<svg id="a1d55391-57fa-4470-b02f-fa87b3184db6" data-name="Layer 1" xmlns="http://www.w3.org/2000/svg" xmlns:xlink="http://www.w3.org/1999/xlink" width="500" height="300" viewBox="0 0 500 300">
  <defs>
    <clipPath id="bd86744e-eb92-477c-acce-e129d1ebcc8a">
      <rect x="2.648" y="-308.333" width="493.92" height="286.789" style="fill: none"/>
    </clipPath>
    <clipPath id="a874d877-b896-4412-b221-e8eeda9525d7">
      <rect x="-0.368" y="-239.004" width="260.889" height="218.606" style="fill: none"/>
    </clipPath>
    <clipPath id="eb12656b-6d9e-4443-87ed-c6829ab777d5">
      <rect x="127.132" y="-239.004" width="260.889" height="218.606" style="fill: none"/>
    </clipPath>
    <clipPath id="ad333bba-c98b-4761-9955-44df56448c06">
      <rect x="281.53" y="-239.004" width="260.889" height="218.606" style="fill: none"/>
    </clipPath>
    <clipPath id="f4c4a09d-1951-4cc2-8c1f-1652abbd3432">
      <rect x="-422.451" y="-1001.276" width="358.027" height="300" style="fill: none"/>
    </clipPath>
    <clipPath id="b48314ff-fc72-4e45-9023-5fcdcf60562c">
      <rect x="51.236" width="384.504" height="300" style="fill: none"/>
    </clipPath>
  </defs>
  <title>pic-8</title>
  <g style="clip-path: url(#bd86744e-eb92-477c-acce-e129d1ebcc8a)">
    <g style="clip-path: url(#a874d877-b896-4412-b221-e8eeda9525d7)">
      <path d="M291.915,13.915c-23.681-14.971-64.7-100.16-112.838-100.872S32.985-79.768-7.027-10.087C-32.447,34.183-79.7,49.252,59.934,41.9S291.915,13.915,291.915,13.915Z" style="fill: #090302"/>
    </g>
    <g style="clip-path: url(#eb12656b-6d9e-4443-87ed-c6829ab777d5)">
      <g>
        <path d="M211.46-62.637c-3.153,4.752-1.892,7.088-5.676,8.981s-2.734.88-7.779,2.542-6.728.822-9.882,4.816-5.044,8.2-7.988,12.615-1.683,1.682-9.883,6.938-10.512,5.256-13.665,8.41.42,2.312-6.518,6.1-.841,2.1-15.558,7.148S121.055-3.2,113.487,1.848s-9.041,3.784-13.246,8.83S89.519,21.611,83.212,31.492s-20.6,37.844-20.6,37.844H441.046s-7.779-30.695-24.808-44.571S397.946,9.837,390.378,8.576s-6.728.21-16.4-9.041-21.655-20.393-27.542-20.6-3.574,1.893-7.99-1.892-4.835-3.574-9.25-7.148-6.308-2.523-11.984-6.938,6.733-2.228-12.652-10.512S211.46-62.637,211.46-62.637Z" style="fill: #441716"/>
        <path d="M116.123,28.628c4.191,2.286,3.81-17.526,9.906,1.143S136.316,63.68,136.7,53.012s-3.81-14.859-1.905-22.1,4.572.937,12.192-8.675,7.239-10.369,9.906-15.134S154.6-12.52,161.462.053s11.811,8,12.954,16-.381,7.62-.381,19.431,1.905,24.384,3.429,16,.381-20.574.762-30.861,1.143-12.573,4.191-1.143,8.971,24.765,9.057,31.242,1.832,14.556,2.051.762,1.193-17.947,12-19.26,46.937,3.094,54.77,7.83c4.777,2.888-30.007-57.714-57.626-92.429a39.565,39.565,0,0,0-4.661,1.257c-5.046,1.663-6.728.822-9.882,4.816-.223.283-.428.57-.639.855h0c-2.353,3.171-4.038,6.472-6.162,9.9-.049.079-.1.158-.145.238-.335.536-.68,1.076-1.042,1.619-1.472,2.207-1.893,2.628-2.971,3.154-.134.065-.279.132-.438.2a38.847,38.847,0,0,0-3.815,1.953c-.756.437-1.634.969-2.659,1.626C165.128-23.46,162.3-22.228,160.135-21a15.436,15.436,0,0,0-3.548,2.661,7.618,7.618,0,0,0-1.285,1.586,4.627,4.627,0,0,0-.283.6c-.035.089-.067.174-.1.257a2.553,2.553,0,0,1-.72,1.041,8.055,8.055,0,0,1-.9.7c-.2.136-.422.282-.677.442-.636.4-1.464.876-2.548,1.468s-1.85,1.049-2.427,1.42c-.461.3-.8.538-1.087.747l-.4.293c-.123.092-.241.178-.362.263s-.245.167-.379.251c-1.145.712-3.09,1.493-10.908,4.174C119.794-.044,121.055-3.2,113.487,1.848c-1.419.946-2.624,1.671-3.673,2.256-.7.391-1.329.72-1.906,1.012s-1.1.547-1.594.789c-.735.364-1.393.7-2.03,1.092-.212.131-.422.268-.632.414a13.331,13.331,0,0,0-1.276,1.011,21.4,21.4,0,0,0-2.135,2.256c-1.314,1.577-2.854,3.236-4.542,5.073q-1.014,1.1-2.093,2.3c-1.437,1.6-2.949,3.331-4.5,5.255-1.161,1.442-2.342,2.99-3.527,4.665q-.593.837-1.186,1.718t-1.184,1.806c-1.38,2.162-3.142,5.189-5.053,8.6q-.41.73-.828,1.483c-.556,1-1.123,2.031-1.693,3.074s-1.145,2.1-1.717,3.161c-1.146,2.121-2.286,4.254-3.377,6.311-4.362,8.226-7.936,15.216-7.936,15.216H81.071c1.905-10.228,8-14.038,16.764-25.849S111.932,26.342,116.123,28.628Z" style="fill: #270c06"/>
        <path d="M266,68.379,251.827-34.314l-35.993-27.9c-2.774-.276-4.374-.424-4.374-.424-3.153,4.752-1.892,7.088-5.676,8.981-3.411,1.7-2.908,1.058-6.466,2.128l-.893,2.917c-3.154,8.831-7.989,19.343-6.728,31.537s-.41,19.343-.205,33.639,1.046,25.229,9.877,34.06c5.147,5.147,10.508,12.508,15.084,18.711h47.34C265.182,68.743,266,68.379,266,68.379Z" style="fill: #433128"/>
        <path d="M297.737-43.031c.5,1.451,4.021,2.41,11.117,12.922s12.564,7.148,11.723,18.291S320.156,5.422,317,14.463s-5.046,9.881-6.308,18.5,1.051,12.194-5.046,22.5S284.625,80.9,283.784,87.207s-7.569-88.723-7.569-88.723Z" style="fill: #433128"/>
        <path d="M259.606-13.432C247.491,7.5,259.271,38.43,271.169,23.924S281.6-9.27,281.6-9.27Z" style="fill: #a67437"/>
        <path d="M292.613-62.637c-4.968,4.321-5.451,4.8-9.308,8.66s-5.786,4.34-7.232,7.715-.482,3.214-4.339,4.821a47.27,47.27,0,0,0-10.125,6.268c-2.732,2.089-4.179,2.572-4.179,5.947s.164,4.884-1.125,7.232-3.857,7.232-2.25,10.607,2.492,7.071,4.219,5.786,1.567-4.5,3.978-1.607,5.142,6.107,5.3,7.714-.321,2.411-.482,8.2,0,12.215,0,12.215-4.982-6.107-5.464-11.411-.085-9.3-.712-11.639-3.467-20.022-9.253-24.361-5.946-2.732-8.357-5.465-2.042-4.783-5.3-6.717-6.615-3.986-4.593,0,3.789,1.414,2.021,3.985-7.554-.482-4.982,4.34,3.053,7.071,4.5,12.214-.9,4.514,2.2,7.962.852,2.484-.595,3.288-2.089-1.125-.643,3.214,1.768,2.572,2.732,9,1.768,9.965,4.34,15.59,1.285,4.661,3.535,10.446,2.411,6.75,4.822,9.643,16.232,31.34,18.643,34.233-1.125,2.25,3.536-4.983,10.768-14.143,12.857-27,1.9-10.446,6.254-22.018,5.8-18.643,10.139-25.071,7.875-3.858,5.143-13.5-3.536-7.393-7.072-17.036-4.031-11.494-4.787-14.313S292.613-62.637,292.613-62.637Z" style="fill: #e0c3a2"/>
        <path d="M428.588,69.145h5c.747-3.229.936-4.778-4.666-11.18-8-9.144-19.05-21.336-15.24-9.906C417.119,58.366,429.534,62.788,428.588,69.145Z" style="fill: #270c06"/>
        <path d="M351.918,7.105c2.71,5.9-.719,7.045,3.853,18.475s11.811,20.193,14.1,27.051c1.674,5.02,2.536,10.07,4.668,16.514h22.379c0-1.567,0-3.243,0-5.084,0-10.287-.762-20.193-2.667-22.86s-10.668-20.814-9.144-13.645,0,17.074,1.524,20.5,4.191,18.669-2.667-1.143S375.2,36.8,370.63,22.239s.381-7.708-4.572-22.567c-3.57-10.71-8.372-12.712-11.472-16.989-3.229-2.236-6.07-3.677-8.149-3.752-5.887-.21-3.574,1.893-7.99-1.892s-4.835-3.574-9.25-7.148-6.308-2.523-11.984-6.938c-1.891-1.47-1.774-2.208-1.5-2.845l-2.621,1.1c-.378,7.223,12.956,20.558,20.957,26.273S349.208,1.2,351.918,7.105Z" style="fill: #270c06"/>
      </g>
    </g>
    <g style="clip-path: url(#ad333bba-c98b-4761-9955-44df56448c06)">
      <path d="M433.678-63.673c-.719,2.685-10.836,23.718-14.721,26.376s-11.859,7.769-15.539,9.4-9.814,3.68-15.335,6.134-7.769,3.68-15.743,5.52-16.971,2.863-18.4,5.93S338.4,21.179,338.4,21.179s-3.68-6.134-3.68-11.859S333.7,1.551,334.31-4.174a15.51,15.51,0,0,1,4.5-9.2s-4.089-2.249,0-6.747,6.134-4.5,6.747-8.179-1.018-1.6-4.089-3.68-4.089-4.089-3.68-5.929.613-1.432,3.271-3.272,6.747-4.907,7.974-6.747a5.877,5.877,0,0,1,3.046-2.328,18.841,18.841,0,0,1,0-9.285,30.473,30.473,0,0,1,4.928-9.856l78.226-42.308Z" style="fill: #eddeda"/>
    </g>
  </g>
  <g style="clip-path: url(#b48314ff-fc72-4e45-9023-5fcdcf60562c)">
    <g>
      <path d="M392.726,189.216s14.919,4.213,18.219,9.435,9.648,20.552-.586,43.64-22.751,26.3-29.463,24.574-24.473-7.018-24.473-7.018L357,205.679Z" style="fill: #903d40"/>
      <path d="M140.06,245.944c86.119-40.371,139.239-12.646,142.382-5.722s8.273,12.655,3.69,14-7.348,2.184-7.348,2.184-12.228,31.539-18.957,40.421-27.264,27.225-23.126,35.6,1.2,17.333,7.173,26.053,17.023,15.854,22.518,9.276,1.975-4.7,8.246-11.133,29.667-40.084,35.743-52.257,7.906-21.969,11.082-22.01,7.319,3.647,12.057-.727.072-6.869,6.765-8.609,8.531-5.578,8.531-5.578l7.569-5.811s25.065,1.513,36.3-28.073.046-44.35.046-44.35l4.818-5.437-14.15-6.773-10.822-2.022-1.383,2.888S252.466,116.6,221.79,46.312l-69.213,85.132S93.921,267.573,140.06,245.944Z" style="fill: #b3b3b3"/>
      <ellipse cx="147.11" cy="132.218" rx="130.08" ry="69.683" transform="translate(-28.185 223.839) rotate(-69.543)" style="fill: #903d40"/>
      <ellipse cx="145.376" cy="130.099" rx="116.501" ry="56.062" transform="matrix(0.35, -0.937, 0.937, 0.35, -27.328, 220.836)" style="fill: gray"/>
      <path d="M197.9,149.693a237.6,237.6,0,0,0,8.5-27.792h0s-28.345-11.247-37.454-13.8-23.9,7.536-23.9,7.536-7.549,13.3-8.944,20.762,9.033,23.913,11.724,28.889c2.03,3.752,23.809,12.831,34.93,17.17A233.93,233.93,0,0,0,197.9,149.693Z" style="fill: #b3b3b3"/>
      <ellipse cx="147.597" cy="129.944" rx="18.065" ry="10.252" transform="translate(-25.738 222.816) rotate(-69.543)" style="fill: #740c10"/>
      <path d="M279.464,116.245s25.936,58.349-28.286,110.416h0a95.369,95.369,0,0,1,18.216,5.194h0c47.283-39.962,32.331-97.985,32.33-97.986-7.4-5.5-14.913-11.395-22.26-17.625Z" style="fill: #903d40"/>
    </g>
  </g>
</svg>
