<svg id="ed56b5ad-a967-4764-8ec8-07dd2ac46db1" data-name="Layer 1" xmlns="http://www.w3.org/2000/svg" xmlns:xlink="http://www.w3.org/1999/xlink" width="500" height="300" viewBox="0 0 500 300">
  <defs>
    <clipPath id="ea33af16-2380-4af6-8214-aa76cbdcc8e6">
      <rect x="2.648" y="13.211" width="493.92" height="286.789" style="fill: none"/>
    </clipPath>
    <clipPath id="b5b2a07a-eead-4073-bd3d-7cd91cbd7527">
      <rect x="-0.368" y="82.54" width="260.889" height="218.606" style="fill: none"/>
    </clipPath>
    <clipPath id="a96ff23b-889d-43ca-9043-c63b9586c70f">
      <rect x="127.132" y="82.54" width="260.889" height="218.606" style="fill: none"/>
    </clipPath>
    <clipPath id="e258c6d1-17c5-41d2-a4da-ec02dce69945">
      <rect x="281.53" y="82.54" width="260.889" height="218.606" style="fill: none"/>
    </clipPath>
    <clipPath id="adc609bf-da5c-495e-a771-02094eac349e">
      <rect x="2.165" y="-276.517" width="298.778" height="250.354" transform="translate(303.107 -302.68) rotate(-180)" style="fill: none"/>
    </clipPath>
    <clipPath id="a8d977c8-a3f4-4f0d-9c82-855de279f988">
      <rect x="201.222" y="-276.517" width="298.778" height="250.354" style="fill: none"/>
    </clipPath>
    <clipPath id="b2df6cb9-11fe-40f0-9bad-33b411fd3067">
      <rect x="-454.193" y="-325.938" width="357.758" height="299.775" style="fill: none"/>
    </clipPath>
    <clipPath id="af3e66eb-4b25-47eb-b335-3f82d0719eba">
      <rect x="-422.451" y="-679.732" width="358.027" height="300" style="fill: none"/>
    </clipPath>
  </defs>
  <title>pic-6</title>
  <g style="clip-path: url(#ea33af16-2380-4af6-8214-aa76cbdcc8e6)">
    <g style="clip-path: url(#b5b2a07a-eead-4073-bd3d-7cd91cbd7527)">
      <g>
        <path d="M291.915,335.459c-23.681-14.971-64.7-100.159-112.838-100.872s-146.092,7.189-186.1,76.87c-25.42,44.27-72.677,59.34,66.961,51.99S291.915,335.459,291.915,335.459Z" style="fill: #090302"/>
        <polygon points="183.09 276.9 144.21 297.485 145.973 269.5 178.068 268.107 183.09 276.9" style="fill: #886a69"/>
        <path d="M67.392,264.648c5.922-8.815,10.049-20.453,10.049-20.453,1.15,1.533,10.351,16.612,18.657,16.356s9.072-1.278,14.184-2.683,12.65-3.578,17.25-6.134,15.59-14.312,18.146-21.467c0,0,10-7.671,9.621-13.933-.058-.945-.194-1.961-.363-3a1.492,1.492,0,0,1,.882-.334c3.031,0,21.763,22.588,24.1,30.577s9.091,23.127,3.168,33.326c0,0-5.289.8-17.52-4.694,0,0-16.225,25.223-24.214,26.463s-11.019-3.168-14.049-4.408-15.977-9.282-19.559-10.15-12.769-3.623-17.128-1.833-15.377,8.54-18.959,8.953-15.977-1.24-19.7-8.54-3.866-7.848-3.866-7.848h2.764C53.893,274.843,61.469,273.463,67.392,264.648Z" style="fill: #9e7e74"/>
        <path d="M86.017,93.092c-6.886.551-15.885-6.725-23.927,2.275s-25.467,13.594-26.615,21.062.765,19.339.383,26.041-5.936,15.7-5.936,24.509,4.6,17.233,2.489,28.722-6.893,15.318-8.234,22.977-1.148,11.3,2.3,18.573a136.114,136.114,0,0,0,7.659,13.6c.383.766,4.213,22.977,11.489,25.275s17.616-.574,22.211-7.468,12.638-22.211,10.914-31.785-8.616-34.849-8.616-34.849L90.62,102.451Z" style="fill: gray"/>
        <path d="M150.533,107.416c-4.393-4.827-14.28-15.285-25.543-16.693s-39.739-2.595-48.832,8.658-19.8,22.653-20.44,36.07.767,39.869,1.789,44.469,0,10.606.767,17.89.511,17.634,2.683,23.384,7.284,13.289,8.434,14.7,6.9,6.773,8.05,8.306S87.792,260.807,96.1,260.551s9.072-1.278,14.184-2.683,12.65-3.578,17.25-6.134,15.59-14.312,18.146-21.467c0,0,10-7.671,9.621-13.933s-4-15.458-.165-16.735,10.222-3.195,12.011-9.712,3.45-11.373,2.939-15.334-1.278-6.261-3.194-8.178S156.909,114.424,150.533,107.416Z" style="fill: #d79d79"/>
        <path d="M106.385,220.287c-2.307-3.35-7.173-2.684-12.742-2.614s-10.382-.785-10.257,1.966c.122,2.678,11.808,1.347,16.108,1.206A60.442,60.442,0,0,0,106.385,220.287Z" style="fill: #540b06"/>
        <path d="M127.863,92.52c-25.371-5-1.437-3.855,7.371-5s14.17-3.255,17.808-3.255,17.233,5.936,18.381,10.531,3.447,12.638,7.277,18.382.574,11.3,7.084,17.616,12.063,5.17,14.361,11.488,5.553,13.787,3.064,18.957,4.212-4.213,3.063,12.063-1.34,11.3.958,21.445,1.149,12.638,1.34,21.254-.574,6.7-5.17,7.276-5.361-2.68-6.7,2.49-3.255,4.978-6.893,5.552-1.915-.191-5.361,3.064.383,4.4-6.319,3.255-5.361.958-10.34-1.34-5.935-4.6-7.467-10.34-1.915-8.808-4.6-10.148-6.035,1.569-5.579-.71-3.8-14.608-4-19.012a21.989,21.989,0,0,1,4.213-14.361c3.447-4.4,7.659-7.085,8.042-12.063s2.3,1.34.191-10.149-6.893-34.938-6.127-40.976S145.718,96.042,127.863,92.52Z" style="fill: gray"/>
        <path d="M130.447,88.856c-5.361-1.723-14.743-4.787-20.871-4.595s-10.531,2.3-16.658,3.446S82.386,86.3,79.706,90.834,84.3,99.2,85.833,99.2s21.773,8.425,30.705,3.638S130.447,88.856,130.447,88.856Z" style="fill: gray"/>
        <path d="M107.3,261.226c0,.382-3.874,19.591-5.851,19.206-2.982-.58,2.867-15.084,5.851-18.824" style="fill: #886a69"/>
        <path d="M132.272,159.362c-8.875-3.782-12-3.195-16.453-2.177s-11.3,4.543-8.886,6.069,3.992.163,5.994-.345a49.478,49.478,0,0,1,11.033-.891c4.2.127,8.97.912,11.259,1S133.384,159.836,132.272,159.362Z" style="fill: #260d0b"/>
        <path d="M82.169,162.062c1.2.758-.479,3.355-2.683,2.492s-6.805-.958-10.83.383-5.175,2.971-6.325,2.3,2.108-4.791,6.038-6.073C71.193,160.243,74.311,157.079,82.169,162.062Z" style="fill: #260d0b"/>
        <path d="M121.619,167.336c-4.109-.138-7.6-.092-8.407,1.745s1.136,4.734,4.442,4.734,9.245-.253,11.45-1.509c.5-.287.04-.954-.011-1.2C128.7,169.238,125.251,167.458,121.619,167.336Z" style="fill: #fae1d7"/>
        <path d="M81.814,173.591c.943-.3,1.38-.786.753-1.635s-2.152-3.521-3.629-3.678a25.745,25.745,0,0,0-5.816.126c-1.493.283-4.652,1.352-5.548,2.389s-2.342,1.965-.833,2.5a18.291,18.291,0,0,0,5.847,1.274c1.634-.111,7.45-.739,8.158-.755A2.445,2.445,0,0,0,81.814,173.591Z" style="fill: #fae1d7"/>
        <path d="M82.305,192.858a24.128,24.128,0,0,0-2.344,3.973,11.768,11.768,0,0,0-.765,2.088,4.088,4.088,0,0,0-.123,1l.036,1.174a8.311,8.311,0,0,0,.238,2.121c.226.647.369.536,1.174,1.348.61.645,1,1.368,1.393,1.805.047.06.095.11.144.162s.1.1.091.117a.4.4,0,0,0,.227.195,3.829,3.829,0,0,0,1.089.229l.087.171a2.084,2.084,0,0,1-1.153.814,1.625,1.625,0,0,1-.909-.02,1.819,1.819,0,0,1-.4-.194c-.1-.065-.211-.135-.306-.207a21.119,21.119,0,0,1-1.689-1.7,11.612,11.612,0,0,1-.883-.875,3.087,3.087,0,0,1-.583-1.488,11.5,11.5,0,0,1,.061-2.532l.113-1.159a5.159,5.159,0,0,1,.3-1.29,10.835,10.835,0,0,1,1.1-2.181,21.427,21.427,0,0,1,2.968-3.683Z" style="fill: #b25f40"/>
        <path d="M98.749,209.194c2.907-3.291,5.186-5.619,5.539-3.5s.352.916,2.255.564,1.41,2.467,3.243,1.339a7.566,7.566,0,0,0,3.082-2.767c1.288-1.674,3.192-3.789,2.557-2.167s-2.538,2.326-1.974,3.736-.1,2.819,2.1,1.55,1.354-.352,3.046-.141.635-.634,2.115-1.268,1.057-.422,2.538.67,1.409,1.938,2.608.951,3.524-3.948,3.172-1.41-1.274,3.862-.813,4.257,2.928-.873,1.165,1.453-2.678,3.031-.775,3.454,3.3.493,1.4,2.96-2.319,2.186-3.164,3.595.065,1.166-2.469,1.845-3.735,1.469-6.907-.435-2.987-3.8-4.6-3.877.3-1.128-2.941-.634-3.384,1.551-6.556.775S98.155,216.9,96.6,216.9s-2.185,1.2-4.3,1.973-6.2-.07-7.965-.281-3.871-2.072-4.653.281-.352,4.723-2.326,5,.917-.211-4.018-.634-3.031-.635-3.736-1.692a8.8,8.8,0,0,1-1.551-2.538c-.352-1.127,2.115.353.212-1.55s-1.974-.212-1.269-2.115.493-1.41.141-2.679.564-1.339,1.41-1.973,1.974-.071,1.269-1.2-1.058-1.408-.776-2.29,1.763-.247,2.608-1.3,1.34-4.3,2.609-2.256-.917,3.243,2.044,4.371,1.339.141,4.511,1.692,3.877,2.678,5.5,1.973,2.115-.916,4.653-2.185S97.7,210.38,98.749,209.194Z" style="fill: gray"/>
        <path d="M106.521,219.81c1.075,1.546,1.094,3.78-2.924,4.2a73.422,73.422,0,0,1-12.535-.105c-3.031-.282-6.215-1.034-7.554-3.39-.624-1.1,10.02-1.013,13.866-1.388A31.82,31.82,0,0,1,106.521,219.81Z" style="fill: #af5945"/>
        <path d="M102.243,226.978a2.414,2.414,0,0,1,1.481,3.595c-.564.916-.987.775-.635,2.4s4.2,7.9,3.3,11A23.048,23.048,0,0,1,102.737,252c-1.762,2.256-3.627,4.16-2.749,6.2s-1.551-.423-2.186-.564-1.268-.775-1.268.7-.282,2.608-.846,1.128.088-3.665-.8-2.538-.115,3.384-1.524,1.41-1.2-4.441-2.256-3.1-.628,2.943-1.125,1.089-.144-1.724-.778-3.2-1.248-.423-2.245-2.326-2.972-.071-3.042-2.89-.987-5.64-.071-7.4,1.763-.705,1.41-3.242.071-1.9.212-4.23-1.763-2.044-.7-3.947,1.832-.987,1.9-2.115,3.242-3.595,3.242-3.595l12.2.846S101.265,226.716,102.243,226.978Z" style="fill: gray"/>
        <path d="M75.594,168.188a27.6,27.6,0,0,1,3.344.09c1.477.157,3,2.83,3.629,3.678s.19,1.336-.753,1.635a2.445,2.445,0,0,1-1.068.22c-.526.012-3.866.361-6.221.585a3.483,3.483,0,0,1-1.684-2.818A3.909,3.909,0,0,1,75.594,168.188Z" style="fill: #190c0a"/>
        <path d="M121.717,167.342c3.6.151,6.99,1.913,7.376,3.765.051.245.515.912.011,1.2-1.477.842-4.628,1.231-7.543,1.4-1.756-.652-2.931-1.818-2.931-3.152C118.63,169.178,119.874,167.981,121.717,167.342Z" style="fill: #190c0a"/>
        <path d="M88.161,165.743c-.131,3.239.162,6.5.354,9.742a60.52,60.52,0,0,1-.073,9.819c-.069.818-.164,1.637-.294,2.462a12.729,12.729,0,0,1-.263,1.25,3.712,3.712,0,0,1-.6,1.258,31.744,31.744,0,0,0-2.618,4.023,8.19,8.19,0,0,0-1.1,4.335,18.842,18.842,0,0,0,.926,4.594,14.3,14.3,0,0,0,2.05,4.1,6.206,6.206,0,0,0,.718.781l.93.728a10.719,10.719,0,0,1,.978.9c.3.308.583.636.78.793a.744.744,0,0,0,.554.183,6.036,6.036,0,0,0,1.031-.1,14.776,14.776,0,0,0,2.224-.479,5.31,5.31,0,0,0,1.824-.936,4.648,4.648,0,0,0,.706-.723,10.068,10.068,0,0,0,.636-.939,10.621,10.621,0,0,1,3.9-3.551,8.935,8.935,0,0,1,1.237-.519c.435-.15.864-.24,1.235-.335a7.524,7.524,0,0,0,2.069-.752,2.55,2.55,0,0,0,1.157-1.567,17.079,17.079,0,0,0,.472-2.307,12.368,12.368,0,0,0-.719-4.677l.178-.069a11.712,11.712,0,0,1,1.413,4.786,16.943,16.943,0,0,1-.268,2.516,3.8,3.8,0,0,1-1.467,2.409,7.766,7.766,0,0,1-2.413,1.132c-.412.132-.775.234-1.1.374a7.332,7.332,0,0,0-.984.49,9,9,0,0,0-3.106,3.107,11.937,11.937,0,0,1-.72,1.09,6.621,6.621,0,0,1-.983,1.034,7.248,7.248,0,0,1-2.468,1.33,14.3,14.3,0,0,1-2.554.513,7.653,7.653,0,0,1-1.4.09,2.7,2.7,0,0,1-1.683-.658,12.549,12.549,0,0,1-.9-.974,8.862,8.862,0,0,0-.791-.784c-.135-.127-.287-.238-.431-.358l-.531-.458a8.151,8.151,0,0,1-.9-1.047,15.854,15.854,0,0,1-2.138-4.673,20.323,20.323,0,0,1-.851-4.987,9.509,9.509,0,0,1,1.386-4.982,32.852,32.852,0,0,1,2.823-4.081,2.506,2.506,0,0,0,.474-.915c.107-.361.2-.743.271-1.132.147-.78.263-1.577.355-2.378a59.8,59.8,0,0,0,.452-9.694c-.066-3.257-.233-6.519.027-9.787Z" style="fill: #b25f40"/>
      </g>
    </g>
    <g style="clip-path: url(#a96ff23b-889d-43ca-9043-c63b9586c70f)">
      <g>
        <path d="M211.46,258.908c-3.153,4.751-1.892,7.088-5.676,8.98s-2.734.88-7.779,2.542-6.728.822-9.882,4.816-5.044,8.2-7.988,12.615-1.683,1.682-9.883,6.938-10.512,5.256-13.665,8.41.42,2.313-6.518,6.1-.841,2.1-15.558,7.148-13.456,1.892-21.024,6.938-9.041,3.785-13.246,8.83-10.722,10.933-17.029,20.815-20.6,37.843-20.6,37.843H441.046s-7.779-30.695-24.808-44.571-18.292-14.928-25.86-16.189-6.728.21-16.4-9.04-21.655-20.394-27.542-20.6-3.574,1.892-7.99-1.893-4.835-3.574-9.25-7.148-6.308-2.523-11.984-6.938,6.733-2.228-12.652-10.512S211.46,258.908,211.46,258.908Z" style="fill: #441716"/>
        <path d="M116.123,350.172c4.191,2.286,3.81-17.526,9.906,1.143s10.287,33.909,10.668,23.241-3.81-14.859-1.905-22.1,4.572.937,12.192-8.675,7.239-10.368,9.906-15.134-2.286-19.625,4.572-7.052,11.811,8,12.954,16-.381,7.62-.381,19.431,1.905,24.384,3.429,16,.381-20.574.762-30.861,1.143-12.573,4.191-1.143,8.971,24.765,9.057,31.242,1.832,14.556,2.051.762,1.193-17.946,12-19.26,46.937,3.094,54.77,7.83c4.777,2.888-30.007-57.714-57.626-92.428a39.257,39.257,0,0,0-4.661,1.256c-5.046,1.663-6.728.822-9.882,4.816-.223.283-.428.57-.639.855h0c-2.353,3.171-4.038,6.472-6.162,9.9l-.145.238c-.335.537-.68,1.076-1.042,1.619-1.472,2.208-1.893,2.628-2.971,3.154-.134.065-.279.133-.438.205a39.08,39.08,0,0,0-3.815,1.953c-.756.437-1.634.969-2.659,1.626-5.124,3.285-7.949,4.517-10.117,5.749a15.436,15.436,0,0,0-3.548,2.661A7.644,7.644,0,0,0,155.3,304.8a4.627,4.627,0,0,0-.283.6c-.035.089-.067.174-.1.257a2.553,2.553,0,0,1-.72,1.041,8.055,8.055,0,0,1-.9.7c-.2.136-.422.282-.677.442-.636.4-1.464.877-2.548,1.468s-1.85,1.049-2.427,1.42c-.461.3-.8.538-1.087.747l-.4.293c-.123.092-.241.179-.362.263s-.245.168-.379.251c-1.145.712-3.09,1.494-10.908,4.174-14.717,5.046-13.456,1.892-21.024,6.938-1.419.946-2.624,1.671-3.673,2.256-.7.391-1.329.72-1.906,1.012s-1.1.547-1.594.79c-.735.364-1.393.7-2.03,1.092-.212.13-.422.267-.632.413a13.331,13.331,0,0,0-1.276,1.011,21.4,21.4,0,0,0-2.135,2.256c-1.314,1.577-2.854,3.236-4.542,5.074q-1.014,1.1-2.093,2.3c-1.437,1.6-2.949,3.332-4.5,5.255-1.161,1.442-2.342,2.99-3.527,4.665q-.593.837-1.186,1.718t-1.184,1.807c-1.38,2.161-3.142,5.188-5.053,8.6q-.41.731-.828,1.483c-.556,1-1.123,2.032-1.693,3.075s-1.145,2.1-1.717,3.16c-1.146,2.121-2.286,4.255-3.377,6.311-4.362,8.226-7.936,15.216-7.936,15.216H81.071c1.905-10.228,8-14.038,16.764-25.849S111.932,347.886,116.123,350.172Z" style="fill: #270c06"/>
        <path d="M266,389.923,251.827,287.23l-35.993-27.9c-2.774-.276-4.374-.423-4.374-.423-3.153,4.751-1.892,7.088-5.676,8.98-3.411,1.705-2.908,1.058-6.466,2.129l-.893,2.917c-3.154,8.83-7.989,19.342-6.728,31.536s-.41,19.343-.205,33.639,1.046,25.23,9.877,34.06c5.147,5.147,10.508,12.508,15.084,18.711h47.34C265.182,390.287,266,389.923,266,389.923Z" style="fill: #433128"/>
        <path d="M297.737,278.514c.5,1.45,4.021,2.409,11.117,12.921s12.564,7.148,11.723,18.291-.421,17.24-3.574,26.281-5.046,9.881-6.308,18.5,1.051,12.194-5.046,22.5-21.024,25.44-21.865,31.747-7.569-88.723-7.569-88.723Z" style="fill: #433128"/>
        <path d="M232.108,277.4c3.31,2.159,12.019,24.4,12.019,24.4l35.673.315,24.761-39.136-5.192-41.012-71.925,46.153Z" style="fill: #d29f6e"/>
        <path d="M295.828,229.649a9.241,9.241,0,0,1,2.6-1.113c-1.75-2.5-1.464-3.595-.166-8.441,1.346-5.023,6.026-8.525,8.243-16.407s3.941-6.9,2.217-15.272-2.956-12.563-8.868-18.475-10.838-3.694-13.548-11.084-3.2-6.158-4.926-14.287-.493-12.809-8.129-15.519-15.559-3.2-25.269-4.926-18.577-1.724-24.488,2.463-11.085,4.68-14.78,10.346-12.768,6.023-13.507,12.674c-.369,3.314-3.253,17.274-2.315,24.9.943,7.679,7.323,13.52,7.447,18.092.246,9.114,5.665,14.287.739,18.721-1.429,1.286-2.517,2.277-3.331,3.133,1.845,5.132,4.862,11.5,6.532,15.35,2.056,4.743,0,11.384,0,15.811a22.559,22.559,0,0,0,5.218,13.6c3.32,4.111,2.372,3,3.32,6.167s3.637,6.325,5.693,9.013,7.431,3.478,13.6,3,3.32-1.9,8.538-3.795,8.7-2.372,16.128-4.585,7.589-4.27,12.965-7.748,9.487-7.432,12.649-9.961,6.325-8.064,7.274-10.278S293.773,231.072,295.828,229.649Z" style="fill: #ffc680"/>
        <path d="M186.052,156.394c.985-9.361-1.478-16.5,4.434-21.923s6.9-14.78,13.548-22.909,6.9-11.823,14.779-17.735,8.375-11.085,16.75-9.114,7.637,4.68,15.026,4.68,17.736-5.665,24.387-4.68,24.139,3.7,30.79,15.026.739,12.07,12.563,16.5,17.982,0,22.415,11.085,4.681,15.765,8.868,27.835,1.724,11.824,0,24.386.493,12.316-1.478,19.952-6.158,6.651-3.941,14.78,5.173,8.621,3.941,14.041.739,12.562-5.419,17-5.419,1.232-1.971,8.129,2.464,13.055-2.709,17.981-9.361,10.346-13.055,10.346-10.592,2.463-15.026,0-7.883.246-10.1-4.187-4.185-1.619-6.157-5.49-2.957-2.393-1.971-7.566.985-4.434.985-13.3-.739-8.375,2.217-13.548,5.665-6.158,3.695-8.868-1.707-3.695-.361-8.718,6.026-8.525,8.243-16.407,3.941-6.9,2.217-15.272-2.956-12.563-8.868-18.475-10.838-3.694-13.548-11.084-3.2-6.158-4.926-14.287-.493-12.809-8.129-15.519-15.559-3.2-25.269-4.926-18.577-1.724-24.488,2.463-11.085,4.68-14.78,10.346-10.158,8.485-10.9,15.135c-.267,2.4-1.963,14.313-1.558,19.846.716,9.8,3.923,14.864,4.08,20.688.246,9.114,5.665,14.287.739,18.721s-5.912,5.419-4.927,9.114-3.2-6.9-7.882-10.592-7.143-5.173-7.39-14.04-2.217-5.666,1.478-14.287,7.636-9.607,5.666-14.78A32.681,32.681,0,0,1,186.052,156.394Z" style="fill: #d1b077"/>
        <path d="M245.344,166.482c-2.911.3-7.869,4.2-3.882,4.092s8.96-2.121,15.255-.233,8.719,1.671,10.4,3.14,1.887-2.609-2.782-4.078S260.662,164.908,245.344,166.482Z" style="fill: #d1b077"/>
        <path d="M209.624,166.047c7.134-.158,12.646,2.411,12.168,3.914s-2.257.579-4.848.576-5-1.212-8.038-.94-11.969,3.649-11.3,1.093S204.734,166.155,209.624,166.047Z" style="fill: #d1b077"/>
        <path d="M251.164,182.439c3.373-1.852,9.459-1.191,10.848,0s7.011,4.3,5.358,5.226a43.17,43.17,0,0,1-11.113,3.572c-2.28.373-9.072-2.178-9.128-3.506C247,184.622,251.164,182.439,251.164,182.439Z" style="fill: #fae1d7"/>
        <path d="M201.515,184.622c1.552-2.567,5.556-4.035,7.872-4.035s9.062,2.117,9.459,3.506,1.389,3.241-1.191,4.1-11.481,2.28-13.56,1.389C202.706,188.988,199.8,187.466,201.515,184.622Z" style="fill: #fae1d7"/>
        <path d="M218.855,240.187c-.274-1.935,2.748-3.816,4.557-4.535s2.263,1.05,4.67.562,2.428-2.044,5.411-.673,3.394,1.93,7.267,3.506,7.836,1.748,7.222,2.932,2.537,1.445-8.143.827-16.128.262-17.644-.959S219.209,242.677,218.855,240.187Z" style="fill: #c05a1d"/>
        <path d="M220.1,240.091c-.677.076-1.909.036-1.707,1.744s.409,2.653,2.684,2.82c4.2.309,5.353-.823,10.55-.039s8.551,1.11,11.173.638,5.428-.616,4.941-1.682-2.343-2.39-7.495-3-6.123-.755-9.145-.927-2.123-.958-5.745-.441S220.1,240.091,220.1,240.091Z" style="fill: #992f00"/>
        <path d="M228.382,172.572a17.783,17.783,0,0,0-.291,5.657,14.3,14.3,0,0,1,.121,2.856l-.04.738-.025.38a4.352,4.352,0,0,1-.068.5,8.8,8.8,0,0,1-.531,1.592c-.814,1.872-1.757,3.53-2.645,5.23a38.707,38.707,0,0,0-2.356,5.029,4.625,4.625,0,0,0-.256,1.125q-.051.66-.06,1.36c-.017.929,0,1.884,0,2.853s0,1.956-.084,2.981a7.22,7.22,0,0,1-.908,3.3,52.621,52.621,0,0,0-2.6,4.959c-.4.855-.79,1.718-1.142,2.574a8.792,8.792,0,0,0-.414,1.178,9.845,9.845,0,0,0-.184,1.263,23.336,23.336,0,0,0,.177,5.43,6.533,6.533,0,0,0,.288,1.139c.028.08.05.087.066.139s.137.214.193.31l.381.624a7.919,7.919,0,0,0,1.513,1.963,1.677,1.677,0,0,0,1.617.432,11.881,11.881,0,0,0,1.194-.436l1.294-.553c1.739-.769,3.493-1.583,5.3-2.327.906-.371,1.821-.73,2.779-1.042a12.353,12.353,0,0,1,3.124-.676,11.212,11.212,0,0,1,1.619.113c.481.054.952.114,1.393.149a6.337,6.337,0,0,0,1.23-.009,4.434,4.434,0,0,0,.983-.163,2.3,2.3,0,0,0,.86-.54,7.825,7.825,0,0,0,.854-1.022c.648-.811,1.369-1.468,1.925-2.149a2.514,2.514,0,0,0,.642-2.3,6.91,6.91,0,0,0-1.309-2.467,7.167,7.167,0,0,1,1.907,2.258,3,3,0,0,1,.284,1.6,4.255,4.255,0,0,1-.506,1.557c-.489.93-1.078,1.693-1.5,2.477a9.431,9.431,0,0,1-.78,1.345,4.5,4.5,0,0,1-1.363,1.255,4.332,4.332,0,0,1-1.778.581,9.811,9.811,0,0,1-1.645-.042c-.516-.041-1-.1-1.47-.156a9.664,9.664,0,0,0-1.249-.1,10.319,10.319,0,0,0-2.481.56c-.868.282-1.741.623-2.612.98-1.743.718-3.472,1.519-5.244,2.3l-1.353.579a13.324,13.324,0,0,1-1.513.541,4.028,4.028,0,0,1-2.023,0,4.455,4.455,0,0,1-1.715-.92,10.05,10.05,0,0,1-2.019-2.551l-.369-.605-.187-.3a4.188,4.188,0,0,1-.254-.5,8.453,8.453,0,0,1-.433-1.642,25.591,25.591,0,0,1-.2-6.053,12.184,12.184,0,0,1,.236-1.583,10.793,10.793,0,0,1,.528-1.539c.378-.919.779-1.806,1.193-2.689a54.2,54.2,0,0,1,2.749-5.233,5.112,5.112,0,0,0,.538-2.211c.072-.89.079-1.826.076-2.774s-.02-1.914,0-2.9c.007-.494.028-1,.068-1.516a6.951,6.951,0,0,1,.37-1.677,40.239,40.239,0,0,1,2.511-5.4c.891-1.7,1.841-3.39,2.556-5.041a6.9,6.9,0,0,0,.39-1.132,1.69,1.69,0,0,0,.028-.21l.022-.338c.01-.232.027-.461.025-.7a11.436,11.436,0,0,1,.389-2.9A14.442,14.442,0,0,1,228.382,172.572Z" style="fill: #efae76"/>
        <path d="M292.613,258.908c-4.968,4.32-5.451,4.8-9.308,8.66s-5.786,4.339-7.232,7.714-.482,3.214-4.339,4.821a47.31,47.31,0,0,0-10.125,6.268c-2.732,2.09-4.179,2.572-4.179,5.947s.164,4.884-1.125,7.232-3.857,7.232-2.25,10.607,2.492,7.072,4.219,5.786,1.567-4.5,3.978-1.607,5.142,6.107,5.3,7.714-.321,2.411-.482,8.2,0,12.214,0,12.214-4.982-6.107-5.464-11.411-.085-9.3-.712-11.639-3.467-20.022-9.253-24.361-5.946-2.732-8.357-5.464-2.042-4.784-5.3-6.718-6.615-3.986-4.593,0,3.789,1.414,2.021,3.985-7.554-.482-4.982,4.34,3.053,7.071,4.5,12.214-.9,4.514,2.2,7.963.852,2.484-.595,3.287-2.089-1.125-.643,3.215,1.768,2.571,2.732,9,1.768,9.964,4.34,15.589,1.285,4.661,3.535,10.446,2.411,6.751,4.822,9.643,16.232,31.34,18.643,34.233-1.125,2.25,3.536-4.982,10.768-14.143,12.857-27,1.9-10.446,6.254-22.018,5.8-18.643,10.139-25.071,7.875-3.857,5.143-13.5-3.536-7.393-7.072-17.036-4.031-11.493-4.787-14.313S292.613,258.908,292.613,258.908Z" style="fill: #e0c3a2"/>
        <path d="M205.919,181.326a6.522,6.522,0,0,0-.4,2.251c0,3.056,2.043,5.532,4.563,5.532s4.563-2.476,4.563-5.532a6.53,6.53,0,0,0-.287-1.915,19.634,19.634,0,0,0-4.974-1.075A10.194,10.194,0,0,0,205.919,181.326Z" style="fill: #673d40"/>
        <path d="M260.292,184.869a7.219,7.219,0,0,0-.793-3.34,14.2,14.2,0,0,0-8.142.817,7.391,7.391,0,0,0-.439,2.523c0,3.315,2.1,6,4.687,6S260.292,188.184,260.292,184.869Z" style="fill: #673d40"/>
        <path d="M351.918,328.649c2.71,5.9-.719,7.045,3.853,18.475s11.811,20.193,14.1,27.051c1.674,5.02,2.536,10.07,4.668,16.514h22.379c0-1.566,0-3.243,0-5.084,0-10.287-.762-20.193-2.667-22.86s-10.668-20.814-9.144-13.645,0,17.074,1.524,20.5,4.191,18.669-2.667-1.143-8.763-10.112-13.335-24.677.381-7.708-4.572-22.567c-3.57-10.71-8.372-12.712-11.472-16.989-3.229-2.236-6.07-3.677-8.149-3.751-5.887-.211-3.574,1.892-7.99-1.893s-4.835-3.574-9.25-7.148-6.308-2.523-11.984-6.938c-1.891-1.47-1.774-2.208-1.5-2.844l-2.621,1.1c-.378,7.223,12.956,20.558,20.957,26.273S349.208,322.747,351.918,328.649Z" style="fill: #270c06"/>
      </g>
    </g>
    <g style="clip-path: url(#e258c6d1-17c5-41d2-a4da-ec02dce69945)">
      <g>
        <path d="M454.71,253.472c1.205-.323,17.882,2.78,24.016,7.38s37.312,28.113,43.446,34.246,14.567,16.612,14.567,16.612H290.628s13.4-17.889,16.793-18.4,4.419,1.278,10.042-2.811,21.249-8.6,21.249-8.6l82.511-31.777Z" style="fill: #8e5e33"/>
        <path d="M307.421,293.309c3.4-.511,4.419,1.278,10.042-2.811s21.249-8.6,21.249-8.6l12.049-4.641,4,3.068,3.7,30.327-2.012,1.06H329.332c.294-.529.669-1.111,1.112-1.861a23.893,23.893,0,0,1,3.67-4.4c1.567-1.7.935-3.6,1.835-5.4s2.4-5.5,2.2-8.107-1.3-1.1-2.2-1.1-2.7,3.3-5.3,8.408c-2.066,4.051-5.449,9.1-7.461,12.47H314.21c.667-1.852,1.9-2.97,2.722-5.164.9-2.4-1.4.2-4.9.8s-3.6,2.7-5.706,4.363H290.628S304.023,293.82,307.421,293.309Z" style="fill: #543128"/>
        <path d="M358.119,296.393l38.28-6.722,5.645,1.805.666,2.484-.244.747a2.359,2.359,0,0,0,.244-.747,2.964,2.964,0,0,1-.123,1.509,11.811,11.811,0,0,1-.527,1.423,23.073,23.073,0,0,1-1.422,2.64,40.843,40.843,0,0,1-3.52,4.792,41.965,41.965,0,0,1-4.159,4.244,25.174,25.174,0,0,1-2.352,1.849,7.471,7.471,0,0,1-2.711,1.293,5.832,5.832,0,0,0,.731-.538l-.731.538h-35Z" style="fill: #72543d"/>
        <path d="M506.1,306.446a41.236,41.236,0,0,1-5.1-6.105c-2.4-3.3-3.6-3-7.707-6.381s-3.9-3.228-8.408-8.533-9.108-5.705-15.914-9.308-9.309-5.805-14.714-8.808a65.325,65.325,0,0,0-14.112-6.306c-6.606-2.2-7.393-1.3-6.793-2.2l-1.815-.932,3.929-6.326,19.246,1.927c1.2-.323,17.881,2.78,24.015,7.38s37.312,28.113,43.446,34.246,14.567,16.612,14.567,16.612H516.326s-1.715-.459-4.117-.86S507.905,308.248,506.1,306.446Z" style="fill: #543128"/>
        <path d="M433.678,257.872c-.719,2.684-10.836,23.717-14.721,26.375s-11.859,7.77-15.539,9.4-9.814,3.681-15.335,6.134-7.769,3.681-15.743,5.521-16.971,2.862-18.4,5.929S338.4,342.723,338.4,342.723s-3.68-6.134-3.68-11.859-1.023-7.769-.409-13.494a15.51,15.51,0,0,1,4.5-9.2s-4.089-2.249,0-6.747,6.134-4.5,6.747-8.179-1.018-1.6-4.089-3.68-4.089-4.089-3.68-5.929.613-1.432,3.271-3.272,6.747-4.907,7.974-6.747a5.877,5.877,0,0,1,3.046-2.328,18.837,18.837,0,0,1,0-9.284,30.461,30.461,0,0,1,4.928-9.856l78.226-42.309Z" style="fill: #eddeda"/>
        <path d="M431.915,216.863c-1.508,8.5-10.913,28.536-17.252,31.808s-25.148,11.859-32.509,13.085-25.558-2.453-27.6-3.884-8.308-9-10.632-15.949-9.2-8.791-9.2-8.791l-9-56.432L347.8,110.454l84.111,5.725L448.4,204.711Z" style="fill: #e1b89d"/>
        <path d="M438.381,101.458c3.885,1.227,10.223,4.7,13.9,9.2s3.272,5.316,5.93,10.019,3.885,7.156,5.111,9,3.476,2.862,5.316,6.747,4.963,5.725,1.84,10.632c0,0-4.26,5.679-2.13,7.951s6.22-2.226,7.038,5.339.2,11.655-.614,14.108-1.227,1.636,0,6.338,2.613,8.588,1,11.655-4.476,3.884-4.271,7.974,5.111,7.36.818,13.494-6.382,3.351-5.82,6.543,1.117,4.7-.519,8.178-2.658.614-2.453,6.134,2.658,3.476.409,7.156-2.045,4.09-2.045,6.339-5.725,5.52-10.632,6.134.613-.2-6.747,1.635-7.156,1.841-10.837,1.841-5.111-5.112-4.293-9.406,3.067-3.26.817-7.974-2.695-.2-1.04-6.134,3.29-9,2.881-13.29.817-2.044-1.636-9.405-3.68-2.044-3.68-13.494.409-20.651,1.022-24.331c0,0-3.271-7.156-3.271-12.268s.408-6.338,2.044-10.632,3.476-3.68,2.249-8.587-.613-8.179-2.453-11.041.2-4.7-4.907-7.77-7.77-3.68-12.473-3.68-.817-2.249-9-1.432-6.543,1.432-12.268,2.045-7.156,1.84-10.018.818a40.959,40.959,0,0,0-12.677-2.045c-4.907,0-7.769-1.431-10.632.818s-5.316,4.7-6.543,7.156-3.476,3.476-4.5,7.565-1.636,5.112-1.636,8.383.2,5.725-1.84,10.632-1.431,11.246-2.658,14.108-1.226,4.294-1.84,8.588a58.336,58.336,0,0,0-.613,8.587c0,1.227.409,7.565,0,10.428s.825,7.468,2.106,12.251-.675,10.444.347,14.738,7.361,19.423,6.748,19.423-2.045,0-6.543-3.066-6.543-3.067-6.543-6.748S324.5,227.2,324.5,227.2c-1.875-7-4.7-9.405-6.134-12.063s-2.658-3.067-2.658-5.725a10.742,10.742,0,0,0-.5-4.528c-.614-2.289,4.2-.175,0-3.446s-5.224-3.885-6.246-6.952-2.25-2.658-1.023-5.929a16.974,16.974,0,0,1,3.272-5.725c.613-.613,1.587,2.849,2.249-3.169s-.53-7.66,1.677-9.81,5.07-.924,5.07-3.378-1.431-2.862,0-5.52,2.453-1.636,2.453-3.885-.613-3.067,0-5.521,2.658-3.271,2.658-4.907a28.318,28.318,0,0,1,0-5.929c.409-2.658.2-.409,1.227-4.5s1.227-3.885,1.227-6.134a16.494,16.494,0,0,1,.682-4.794,16.316,16.316,0,0,1,.954-4.2c1.227-3.885,1.825-.614,2.753-4.294s-1.935-.205,2.972-6.952,7.769-5.316,9.609-8.383,9.406-9.405,12.473-10.018,5.111-2.25,9.2-3.476,6.339-3.272,9-2.454a22.511,22.511,0,0,0,8.587,1.431c4.5,0,8.383-2.42,12.472-1.619s5.725-.016,12.268,2.233,6.338,2.249,9.814,3.476a52.849,52.849,0,0,1,9,4.293c2.454,1.432,4.908,2.658,6.134,3.272S438.381,101.458,438.381,101.458Z" style="fill: #b7a7a3"/>
        <path d="M414.236,169.164a33.7,33.7,0,0,0-9.115-3.143,54.848,54.848,0,0,0-8.676-1.132c-3.143-.189-8.989-.629-10.875,0s-4.023,1.383-2.263,2.137a23.141,23.141,0,0,0,7.606,1.195c1.7-.126,4.967-.126,7.67-.126s6.915-.126,8.487.44,2.954,1.446,4.966,1.7S415.2,169.626,414.236,169.164Z" style="fill: #201d16"/>
        <path d="M362,163.632c1.509,1.131,2.011,3.269.314,2.64a20.183,20.183,0,0,0-4.275-1.257,15,15,0,0,0-4.4-.452c-2.272,0-3.018-.138-4.9,0s-2.7-.264-4.274,0-2.326-1.12-.566-1.5,2.64-1.213,4.2-1.032c3.994.461,5.5-.181,7.075-.181S362,163.632,362,163.632Z" style="fill: #201d16"/>
        <path d="M402.6,175.127c1.069.629,4.717,2.461,4.34,3.844s-2.338,2.779-5.281,2.954c-2.835.169-6.4.691-8.864-.251-1.955-.746-4.274-1.688-3.834-2.95s2.577-3.84,4.652-4.028S402.6,175.127,402.6,175.127Z" style="fill: #fae1d7"/>
        <path d="M363.374,175.387c-.714-1.92-3.516-2.829-6.219-3.394s-9.555.18-9.995,2.667,6.915,4.131,9.429,3.781S364.753,179.1,363.374,175.387Z" style="fill: #fae1d7"/>
        <path d="M370.545,172.118a15.7,15.7,0,0,0,.616,1.747,4.686,4.686,0,0,1,.133,1.983,11.6,11.6,0,0,1-.478,1.863c-.165.571-.3,1.153-.451,1.735-.827,2.243-1.512,4.569-2.2,6.9a27.694,27.694,0,0,1-1.2,3.571c-.516,1.18-1.091,2.229-1.578,3.315a33.693,33.693,0,0,0-1.331,3.283,34.939,34.939,0,0,0-.926,3.427,25.819,25.819,0,0,0-.548,3.467c-.025.286-.029.557-.029.823a2.908,2.908,0,0,0,.069.6,1.772,1.772,0,0,0,.288.278c.2.166.427.337.665.5a34.242,34.242,0,0,0,3.013,1.861c.52.287,1.045.564,1.57.815a8.171,8.171,0,0,0,1.45.582s-.006.011.021,0a2.105,2.105,0,0,0,.269-.114,7,7,0,0,0,.692-.4c.481-.31.971-.659,1.47-1.01s1.008-.71,1.568-1.052a5.112,5.112,0,0,1,2-.808,11.531,11.531,0,0,1,3.89.478,10.883,10.883,0,0,1,3.392,1.593,12.084,12.084,0,0,0-3.547-.579,10.668,10.668,0,0,0-3.379.387c-.245.079-.47.124-.676.2a4.637,4.637,0,0,0-.684.358c-.478.292-.967.636-1.462.984s-1,.707-1.539,1.056a9.019,9.019,0,0,1-.89.51,3.976,3.976,0,0,1-.574.231,1.871,1.871,0,0,1-.881.042,8.976,8.976,0,0,1-1.944-.741c-.573-.273-1.123-.565-1.669-.866a35.66,35.66,0,0,1-3.195-1.976c-.262-.182-.523-.381-.789-.6a2.555,2.555,0,0,1-.862-1.107,4.337,4.337,0,0,1-.176-1.2c0-.343.006-.68.034-1a27.421,27.421,0,0,1,.588-3.739,36.58,36.58,0,0,1,.978-3.618,35.529,35.529,0,0,1,1.408-3.481c.512-1.135,1.1-2.225,1.561-3.277a25.966,25.966,0,0,0,1.118-3.348c.686-2.343,1.4-4.683,2.224-7.019.272-.561.572-1.114.881-1.664a13.946,13.946,0,0,0,.841-1.535,3.877,3.877,0,0,0,.333-1.634A15.3,15.3,0,0,1,370.545,172.118Z" style="fill: #d79f62"/>
        <path d="M359.488,198.144a8.776,8.776,0,0,0-.63,1.494,14.277,14.277,0,0,0-.815,1.327,15.811,15.811,0,0,0-1.237,2.844,5.308,5.308,0,0,0-.259,1.438,1.61,1.61,0,0,0,.451,1.182,9.282,9.282,0,0,0,.983,1.162,5.635,5.635,0,0,0,.421.653c.162.189.31.437.583.461-.263.174-.613.043-.879-.042a5.057,5.057,0,0,1-.8-.391,10.175,10.175,0,0,1-1.087-1.282,3.471,3.471,0,0,1-.472-.78,1.5,1.5,0,0,1-.13-.5,1.719,1.719,0,0,1-.031-.473,6.17,6.17,0,0,1,.3-1.708,16.628,16.628,0,0,1,1.315-3.029c.263-.481.549-.948.854-1.41A4.594,4.594,0,0,1,359.488,198.144Z" style="fill: #be8257"/>
        <path d="M388.219,225.392c1.895-2.745-9.183-1.123-11.562-1.586a31.525,31.525,0,0,0-7.4-.132c-1.123.132-4.625-1.189-7.268-.925a13.991,13.991,0,0,0-5.946,1.652c-1.189.793,11.3,5.418,11.3,5.418l10.571-.859S387.616,226.266,388.219,225.392Z" style="fill: #9b643e"/>
        <path d="M385.775,226.3c-.206-.768-6.343-.529-8.523-.727a25.4,25.4,0,0,0-6.805.364c-1.321.363-3.832-.124-5.946-.442s-6.607-.132-6.739.4,4.71,2.573,6.494,3.5,10.477,1.635,13.855.82C381.558,229.385,386.255,228.093,385.775,226.3Z" style="fill: #bb784e"/>
        <path d="M397.268,182.209a4.695,4.695,0,0,1-1.641-7.533c2.834.08,6.977.451,6.977.451.129.076.3.171.491.279a4.655,4.655,0,0,1-1.7,6.538C400.1,182.028,398.672,182.169,397.268,182.209Z" style="fill: #191915"/>
        <path d="M357.155,171.993a14.529,14.529,0,0,1,4.665,1.636c0,.043.006.084.006.127a5.148,5.148,0,0,1-2.619,4.575,25.263,25.263,0,0,0-2.618.11,6.855,6.855,0,0,1-1.161.039,5.111,5.111,0,0,1-2.919-4.724,5.5,5.5,0,0,1,.309-1.81A14.99,14.99,0,0,1,357.155,171.993Z" style="fill: #191915"/>
      </g>
    </g>
  </g>
  <g style="clip-path: url(#adc609bf-da5c-495e-a771-02094eac349e)">
    <g>
      <path d="M253.546-67.269c10.125,6.586,11.109,7.464,17.036,14.708s4.829,7.463,10.976,11.634,7.463,5.927,12.073,7.244,4.048,1.317,5.927,5.462c1.833,4.044,3.292,3.757-1.1,5.733s-6.805,3.073-11.634,3.951S232.168,1.878,226.241,2.536s5.049,1.1-16.025,4.171A259.982,259.982,0,0,1,159.07,9.56C145.021,8.9,139.314,7.8,125.485,7.8s-23.194.659-32.012.659S80.924,10.747,78.729,9.825c0,0-60.772,4.12-79.313,3.09s-46.7,1.373-54.937-3.434S2.165-4.666,2.165-26.163c0-4.462,9.6-17.372,18.161-31.252,5.325-8.635,37.23-30.617,37.23-30.617l13.288-7.294s42.8-14.678,61.794-14.946c9.935-.139,30.486-29.426,49.948-38.146,16.155-7.238,36.578,67.6,36.578,67.6Z" style="fill: #e4ab8d"/>
      <path d="M205.022-126.318c1.466,3.673,1.416,2.854,3.085,10.1s2.548,10.537,5.4,13.829S221.411-95.8,228-89.22s10.128,8.93,14.942,12.806,12.716,4.316,10.082,12.877S233.205-23.8,229.284-15.9,217.021-2.952,216.143,1s-1.251,2.557-1.251,2.557S177.938-25.867,163.346-27.69,154.9-42.683,154.9-42.683l30.759-38.635s8.955-5.372,9.732-9.915,8.139-18.182,8.19-21.694-1.38-9.28-1.323-12.872.613-8.64,1.323-8.86S205.022-126.318,205.022-126.318Z" style="fill: #daac3d"/>
    </g>
  </g>
  <g style="clip-path: url(#a8d977c8-a3f4-4f0d-9c82-855de279f988)">
    <g>
      <path d="M406.523-138.618c4.03,1.08.061-.882,10.66,5.006s20.8,8.178,24.337,12.528,9.028,15.734,14.131,21.622,4.576,6.732,14.782,14.975,6.528,9.578,14.591,18.52c9.032,10.016,15.769,39.01,28.722,44.9s19.627-8.522,26.692-2.634,11.384,3.925,18.842,12.954,16.486,26.3,24.73,36.505,19.234,25.908,19.234,25.908-480.265.588-479.676,0,37.29-53.385,54.562-63.983,27.477-19.627,40.038-23.553A168.373,168.373,0,0,1,242.505-41.4s-5.5-7.03,7.459-27.834,17.571-22.04,21.161-23,5.531.236,6.708-6.044,3.366-10.372,5.8-15.392,51.113-39.12,51.113-39.12Z" style="fill: #0b0b13"/>
      <path d="M399.254-124.883c6.153,1.084,12.041-.266,16.751,7.278s4.711,10.256,7.066,21.854S429.744-81.8,429.744-71.2s2.826,22.375,2.787,31.8.824,15.309,0,25.907,2.316,10.6-4.357,20.019-4.318,13.346-12.561,18.057-3.157,7.458-13.551,5.888-12.749-.785-18.637-5.5-10.011,3.14-13.053-10.206,1.2-11.383-.529-20.019-.157-5.5-6.045-16.879-4.711-12.308-7.037-16.094-2.929-1.534-5.521,8.139-12.146,7.955-12.159,20.516,3.23,41.216-12.13,42.394-28.652,2.355-33-5.1-5.522-5.5-6.7-15.7-4.548-13.347-2.863-25.908,2.863-7.85,2.078-21.982-3.37-20.411-2.078-26.3,5.611-1.963,2.863-11.384-4.3-20.8-3.326-27.085,5.895-20.444,5.895-20.444l49.258-17.789Z" style="fill: #d8d0bb"/>
    </g>
  </g>
  <g style="clip-path: url(#b2df6cb9-11fe-40f0-9bad-33b411fd3067)">
    <path d="M-191.889-71.327c9.3,1.566,3.209.3,26.812,5.88s21.825,3.156,31.215,8.05,11.421,5.655,19.034,11.745,7.989,5.239,14.466,12.944c8.375,9.961,1.366,7.193,15.07,14.045s12.086,4.735,26.805,10.572,52.534,50.5,56.341,65.223S6.229,86.825,8.513,88.348s-310.026,0-310.026,0H-553.022a368.574,368.574,0,0,0,25.914-38.8c11.178-19.815,11.178-20.324,18.8-37.091s12.433-13.518,26.151-23.172S-462.87-14.52-450.066-31c11.269-14.509,30.073-30.425,36.212-32.931,13.208-5.392,22.523-11,33.136-15.067s35.543-12.225,35.543-12.225Z" style="fill: #b5afb1"/>
  </g>
</svg>
