<svg id="Layer_1" data-name="Layer 1" xmlns="http://www.w3.org/2000/svg" xmlns:xlink="http://www.w3.org/1999/xlink" viewBox="0 0 500 300">
  <defs>
    <clipPath id="clip-path">
      <rect x="515.78" y="49.65" width="298.78" height="250.35" transform="translate(1330.34 349.65) rotate(-180)" fill="none"/>
    </clipPath>
    <clipPath id="clip-path-2">
      <rect x="59.42" y="0.23" width="357.76" height="299.77" fill="none"/>
    </clipPath>
    <clipPath id="clip-path-3">
      <rect x="586.9" y="-349.72" width="353.44" height="296.15" fill="none"/>
    </clipPath>
    <clipPath id="clip-path-4">
      <rect x="91.17" y="-353.57" width="358.03" height="300" fill="none"/>
    </clipPath>
    <clipPath id="clip-path-5">
      <rect x="34.62" y="-349.14" width="427.46" height="427.46" transform="translate(530.77 -119.64) rotate(-148.2)" fill="none"/>
    </clipPath>
  </defs>
  <title>pic-3</title>
  <g clip-path="url(#clip-path)">
    <path d="M767.16,258.89c10.13,6.59,11.11,7.47,17,14.71s4.83,7.47,11,11.64,7.46,5.92,12.07,7.24,4,1.32,5.93,5.46,3.29,3.76-1.1,5.73-6.81,3.08-11.64,4S745.79,328,739.86,328.7s5,1.1-16,4.17a260,260,0,0,1-51.14,2.85c-14.05-.65-19.76-1.75-33.59-1.75s-23.19.66-32,.66-12.55,2.28-14.74,1.36c0,0-60.78,4.12-79.32,3.09s-46.69,1.37-54.93-3.44S515.78,321.5,515.78,300c0-4.46,9.61-17.37,18.16-31.25,5.33-8.64,37.23-30.62,37.23-30.62l13.29-7.29s42.8-14.68,61.8-15c9.93-.14,30.48-29.42,49.94-38.14,16.16-7.24,36.58,67.59,36.58,67.59Z" fill="#e4ab8d"/>
  </g>
  <g clip-path="url(#clip-path-2)">
    <g>
      <path d="M321.73,254.84c9.3,1.56,3.21.29,26.81,5.88s21.83,3.15,31.22,8,11.42,5.65,19,11.74,8,5.24,14.47,12.94c8.37,10,1.36,7.2,15.07,14.05s12.08,4.73,26.8,10.57,52.53,50.51,56.34,65.23,8.38,29.69,10.66,31.21-310,0-310,0H-39.4a368.42,368.42,0,0,0,25.91-38.8c11.18-19.82,11.18-20.32,18.8-37.09s12.43-13.52,26.15-23.17,19.29-3.81,32.09-20.29c11.27-14.51,30.07-30.43,36.21-32.93,13.21-5.39,22.53-11,33.14-15.07s35.54-12.22,35.54-12.22Z" fill="#b5afb1"/>
      <path d="M292.71,168.89c1.77-7.66.5-5.37,2.28-10.7s3.15-6.09,6.52-10.66,3.89-8.38,6.42-10.66,5.08-3.44,7.87-2.73,5.82,2.11,4.31,6.35-4.13,4.11-5.26,8.32l-2.63,9.83c-1,3.74-2,2.93-1.24,10.25s1,7.57.51,14.67-1.53,12.69-.26,17.52-1.08,4.65.51,10.57,1.27,2.12,4.06,11.76,2.79,13.45,2.79,18-2.25-.76,1.92,9.9,2.4,17,4.94,20,.25.5,7.1,6.59,13.45,5.08,18.78,13.71,7.87,14,7.87,14,10.4,18,10.4,21.57-3,34-3,34.77-31.72,41.36-35.4,41.62-19.42-22.08-24.75-24.37-12.43-5.07-14.72-9.39-4.82-3.55-11.93-21.82-17.25-26.9-30.45-36-31-23.09-38.83-29.44-16.5-11.93-21.32-16a87,87,0,0,0-11.67-7.86l84.29-97.2Z" fill="#c39a7e"/>
      <path d="M159.7,19.74c-1.36.46-12.7,0-14.52,9.08s-3.17,7.71-2.72,14.51a23.58,23.58,0,0,1-2.72,12.25l-6.81,6.81-1.81,10-2.72,6.35s3.17-.45,3.17,9.53,2.27,9.07,3.18,15-2.27,5-2.27,10.89-7.71,5.44.45,9.52,15.88,3.18,16.34,4.54-2.27,2.72,3.17,5.44S157,119.55,162,115.47s19.05-34,19.05-34l23.14,19.06,41.74,15s32.66-12.25,34-12.25,25.86,86.2,25.86,86.2l9.65,36,17.12-4.58c7.25-1.94,8.17-9.66,11.34-14.19S354.78,198,354.78,198s-1.81-5.45,4.54-10.89,5.75-3.22,7.35-9.17,11.7-4.94,4-14.9-7.26-7.69-7.71-15,5.89-3.63,0-9.52-8.17-5.45-8.17-8.17a14.15,14.15,0,0,1,1.36-5.45s4.54-4.53-.45-10S348,101.86,348,101.86s6.8-6.35,2.72-21.78-3.63-14.52-8.62-22.23-5.9-7.26-9.08-11.79-5-7.72-10-12.25-6.5-2.32-12.85-6.41-4.06-5.79-10-7.15-5.65-3.06-16.09-3.06-18.71-7-25.06-4.71-7.27.18-10-2.54-3.43-5.38-12.95-2.2S216,11.58,213.23,13.85s-4.08,6.8-9.52.9a100.28,100.28,0,0,0-8.17-8.16A120.37,120.37,0,0,0,183.29,8.4c-6.8,1.36-9.53,3.18-12.25,4.08s-5,3.18-7.26,4.09A11.81,11.81,0,0,0,159.7,19.74Z" fill="#2e110d"/>
      <path d="M152.44,133.61V150a67.11,67.11,0,0,0,9.08,32.66l92.54,11.8,7.72-78-6.35-3.63s3.77,3.5-4.47-1.2-11-3.79-12.32-8.33-2.72-2.27-2.72-10.89,5.44-10-1.36-16.79S227.3,66.47,222.31,61s-13.16-6.81-13.16-6.81-3.17-1.81-8.62,0S192.82,56,186,58.76s11.35-10,.91,2.27.91,3.63-13.16,12.25-19,15.87-21.32,20.41-3.63,1.36-5,9.53a49.45,49.45,0,0,0,0,15.42Z" fill="#c39a7e"/>
      <path d="M253.16,114c-.91,15.09,0,11,2.72,19.17S251,150.85,251,150.85s-7.78,7.72-9.14,15-2.27,8.62-2.73,10-1.36,3.17-5.44,5.44-3.18,1.81-7.26,2.72,3.63-5.44-10.89-8.62-21.12-4.94-22.81-5.4-3.5-1.4-9.85-.5a91.4,91.4,0,0,0-11.8,2.27c-5.89,1.36-12.25.91-12.25-3.17s5.76-5.63,0-4.09-7.71.46-9.52,7.26,2.26,2.27-3.18,10.44-5.9,3.63-7.71,10-5.9,8.62-5.45,10.43a20.8,20.8,0,0,0,5.9,9.53c3.63,3.18,3.63,8.62,3.63,8.62s-5.44,5-2.72,10.43,3.18-2.72,7.26,9.53-2.27,13.61,5.44,16.33,12.25,2.73,12.25,2.73-2.72,5.44,15,0l17.7-5.45s-2.27,3.18,7.71,5.9,8.1,1.91,15,2,3.18-.61,12.7-5.6,8.62-5.44,14.52-8.17a46.2,46.2,0,0,0,9.21-5.44,56.55,56.55,0,0,1,7.58-15c5.44-7.71,8.16-19.06,8.16-19.06l2.27-12.24s14.52-5.9,15.43-12.25a81.67,81.67,0,0,1,2.26-10.89s-.45.91,4.09-6.35,5.25-9.95,5.25-9.95l-10.7-81.7h-29Z" fill="#2e110d"/>
      <path d="M189,109.64c3.08-1.89,14.4-5,20.07-4.63s15.61,3.77,16.63,4.29,3.57,2.77-1.9,1.3-7.19-3.9-13.88-3.29-12.18,2.16-14.75,2.33a31.89,31.89,0,0,0-6.17,1.45C187.76,111.35,189,109.64,189,109.64Z" fill="#2e110d"/>
      <path d="M147.8,119.7c-2.5-1.63,5.92-4.43,10.46-4.74s10.81-.35,10.81.68-.77,2.23-5.36,2.23a32.76,32.76,0,0,0-10.25,1.83C151.74,120.27,149.05,120.52,147.8,119.7Z" fill="#2e110d"/>
      <path d="M197.62,119.07c6.84-1.55,16-2.81,19.09-1.57s5.18,6.63,2.81,8-15.59,2.18-18.91,2-6.16.34-6.16-2.23S194.61,119.76,197.62,119.07Z" fill="#fae1d7"/>
      <path d="M155,125.25c3.17-1.44,12.35-1.72,12.87,0s1.34,6.53-1,7.21-9.46.16-10.37,0-3.08-3.74-2.57-5S155,125.25,155,125.25Z" fill="#fae1d7"/>
      <path d="M134.87,239.79c-6.6,3.31-8.54,3.81-10.87,10.42s-3.86,11.69-6.91,23.88-8.64,18.8-10.16,26.93,3.56,15.75,6.6,32.52,0,27.43,3.56,36.58-16,15.75,11.31,23.88,16.56,9.55,29.81,9.6,12.64-.45,30.22,2.6,28.78,3,28.78,3,14.71,4.58,39.1-9.14,31.5-18.29,36.58-19.82,13.52-1,13.52-1V361.48s-18.17,8.13-32.86,8.13-21.31,4.07-40.61,9.66-42.31,19.3-55.45,16.76S142,392,137.41,381.3s-11.17-24.9-11.17-38.11-2-20.32-4.58-33.53-7.11-11.69-2.54-23.88,8.76-20.84,13.78-27.95,19.57-18,10.77-18Z" fill="#f0f3a6"/>
      <path d="M163.84,124.09c-3-.13-7,.31-8.84,1.16,0,0-.51,1-1,2.25s1.67,4.8,2.57,5c.44.08,2.37.24,4.49.31C162.71,131,163.84,127.8,163.84,124.09Z" fill="#422b23"/>
      <path d="M209.59,119.52a13.8,13.8,0,0,0-.2-2.35,93.32,93.32,0,0,0-11.77,1.9,3.72,3.72,0,0,0-1.74.88,12.07,12.07,0,0,0,2.6,7.47c.67,0,1.39,0,2.13.06,1.2.06,3.68,0,6.48-.19A12.31,12.31,0,0,0,209.59,119.52Z" fill="#422b23"/>
      <path d="M165.76,178.46c7.13-.48,7.76.95,12.83,0s4-1.58,9.84-1a46.12,46.12,0,0,1,14.3,3.8c2.78,1.42,12.11,1.9,3.8,3.8s-12.26,3-19.71,3a86.7,86.7,0,0,1-14.25-1.27c-2.69-.32-5.22.32-6.81-.95s-2.06-3.42-1.11-4.72A6.18,6.18,0,0,0,165.76,178.46Z" fill="#c39a7e"/>
      <g>
        <path d="M170.57,115.86c-1.2,7-4.25,15.56-3.22,19.17s-.17,10.8-1.71,15.44-3.44,9.77,0,14.23,7.16,3.46,11.58,2.28,4-2.11,10.2-1.59,8.08,1,9.11-1.23,2.23-4.12,1-7.21-7.26-7.76-11.38-6.56" fill="#c39a7e"/>
        <path d="M170.57,115.86c-.61,4.33-1.79,8.56-2.56,12.84-.18,1.07-.34,2.14-.43,3.21a8.49,8.49,0,0,0,.19,3.11,19.48,19.48,0,0,1,.27,6.67,43.93,43.93,0,0,1-1.13,6.53c-.53,2.16-1.35,4.2-1.89,6.27a13.9,13.9,0,0,0-.49,6.18,8.5,8.5,0,0,0,1.08,2.81,10.46,10.46,0,0,0,2,2.3,6.75,6.75,0,0,0,5.6,1.42,27.64,27.64,0,0,0,3.12-.67,32.13,32.13,0,0,0,3.08-.92,15.19,15.19,0,0,1,3.28-.9,19.13,19.13,0,0,1,3.38,0c2.21.14,4.38.41,6.52.56a4.68,4.68,0,0,0,2.82-.41,2.76,2.76,0,0,0,.8-1.13c.25-.49.49-1,.71-1.46a6.72,6.72,0,0,0,.74-3,6.35,6.35,0,0,0-.8-2.94,13.74,13.74,0,0,0-4.53-4.44,12.31,12.31,0,0,0-2.93-1.34,6.14,6.14,0,0,0-3.21-.16,6.21,6.21,0,0,1,3.26,0,12,12,0,0,1,3.07,1.22,14.13,14.13,0,0,1,5,4.41,7,7,0,0,1,1,3.28,7.62,7.62,0,0,1-.7,3.36c-.22.52-.45,1-.68,1.51a3.7,3.7,0,0,1-1.05,1.52,3.65,3.65,0,0,1-1.78.67,11.12,11.12,0,0,1-1.72.06c-2.22-.07-4.38-.36-6.53-.46a18.44,18.44,0,0,0-3.16.06,13.14,13.14,0,0,0-3,.87c-1,.38-2.13.7-3.18,1a28.28,28.28,0,0,1-3.27.72,9.44,9.44,0,0,1-3.51-.07,7.44,7.44,0,0,1-3.17-1.63,12.17,12.17,0,0,1-2.25-2.66,9.8,9.8,0,0,1-1.22-3.27,15,15,0,0,1,.58-6.75c.58-2.16,1.42-4.17,2-6.24a45.61,45.61,0,0,0,1.27-6.34,18.78,18.78,0,0,0-.06-6.35,9.47,9.47,0,0,1-.13-3.39,27.08,27.08,0,0,1,.57-3.26C168.38,124.3,169.69,120.14,170.57,115.86Z" fill="#a07155"/>
      </g>
    </g>
  </g>
  <g clip-path="url(#clip-path-4)">
    <g clip-path="url(#clip-path-5)">
      <g>
        <path d="M453.85-2.94c.13-.31-.22-1.19-.41-1.21-1.32-.13-1.57,1.15-2.24,1.88-2.24-1.18-3-2.66-2.35-5.43,1.32-5.38,3.34-9.95,9-11.89h0a3.5,3.5,0,0,1,2,2.55c2.53,14.38,5.85,28.65,4.16,43.49a103.94,103.94,0,0,0-.38,21c.5,5.82.67,11.85-.88,17.48-2,7.25-5.69,14.07-7.27,21.38-1.49,6.88-4.54,13.76-3.7,20.83,1.19,10.07,4,19.91.35,30.12-1.18,3.26-1.06,7.13-.91,10.69a64.74,64.74,0,0,1-1.67,19,75,75,0,0,0-2.33,22.44c1.2,24.59-5.38,47-18.78,67.6-7.18,11-16.27,20.47-24.61,30.54-1.57-4.37-5.57-6.4-9.34-6.95s-5.92-2.76-8.72-4.37a14.76,14.76,0,0,0-6.92-2.36c-6.24-.48-13.84.16-17.71-7.4-1.21-2.35-4.33-2.33-6.74-1.56-2.8.89-4.7.5-7.17-1.44s-5.94-2.33-9.82-2.2c-4.23.14-8.85-3.7-12.82-6.49-2.44-1.72-5.45-3.69-5.43-7.49-4,.06-3.51-7.93-9.09-5-.7.36-2,.21-1.45-.69,1.84-3.3-5.63-4.76-1.56-8.14,2.13-1.78,2.44-3,1.75-6.06-.77-3.31,2.41-4.83,6.33-4.74,6.8.17,13.57-.13,20,3,.28-.44.56-.89.83-1.34-3.06-3.78-5.71-8.06-9.35-11.17-2.35-2-5.68,0-8.51,1.27-3,1.37-6.9,3.55-6.73-2.94,0-.52-.28-1.44-.59-1.52-7.62-1.83-6.72-12-14.29-14.29a9.82,9.82,0,0,1-6.54-7.73c-.16-.84-1.53-1.64-1.43-2.32,1-6.22-9.05,2-7.16-5.6,1.18-4.73-5-5.6-5.67-9.55-.75-4.49-5.59-5.28-7.83-8.52a7.18,7.18,0,0,0-5.47-2.72,25,25,0,0,1-19.39-10.5c-4.11-5.55-10.74-5.9-16.2-8.67a1.36,1.36,0,0,0-2.15,1c-.76,3-2.42,1.69-3.77.7-1.64-1.2-3.16-.88-4.79-.13s-4.56.08-4.84,2.16c-.37,2.81,2.85,2.19,4.47,3.19,4.18,2.58,5.67,7.34,7.85,11.31,3.08,5.63,3.53,12,2.36,18.46-.48,2.64-.62,3.53-3.7,3-5.37-1-7.27,1.16-6.44,6.67,2.11,14.06,6,27.8,6.78,42.12.65,12.1.31,24.05-7.2,34-8.21,10.84-9.76,23.29-11.24,36-.53,4.62.16,9.55-5.59,12.18-1.42.65-2.52,5.4-1.59,7,2.13,3.78.38,7.19.78,11,2.92-4.4,9-5.8,9.31-12.82.16-3.85,4.53-6.7,8.09-8.91a2,2,0,0,1,3.34,1.67c.46,4.83,2.66,2.3,4.17,1a36.56,36.56,0,0,1,13-7.84c4.4-1.43,4.12-5.87,5.26-9.32.13-.38-.28-1.11-.65-1.47-2.9-2.83-2.87-4.11,1.52-5.35,3.83-1.09,4.11-2.57,2-5.8,3.78,3,7.36-.61,10.77.66-5.83,2.1-5.78,8.29-8.77,12.16a34.35,34.35,0,0,0-5,9.72c-1.59,4.3.44,11.48,4.17,13.79,1.46.92,2.88,2.25,4.85,0,2.59-2.89,2.1-8.6,7.77-8.7-.06-2.3-.43-4.57-2.4-6-4.35-3.2-4.24-6.37-.7-10.26,5.49-6,5.35-7.54,0-10.7,4.7-.78,8.25,2.85,12.65,3.38,1,.12,1.1,1.87,1,3s-.76.78-1.57.6c-5.32-1.21-4.39,2-2.71,4.52s2.91,4.64,1.95,8.35c-1,4,3.42,6.81,5.33,10.2.86,1.53,2.27.14,2.9-1.16s-.38-2.65-.26-3.82c.25-2.31.69-5.23,2.94-6.12,2.52-1,2.34,2.29,3.51,3.55s2.24,2.88,4.12,5.35c-1.39-7.9-2.79-14.14-10.5-16.38a2,2,0,0,1-.57-3.69c5.78-4,2.7-6.27-1.41-8.54-.37-.2-.49-.87-.88-1.59,2.57-1.24,4,.77,5.7,1.58,4.1,2,8,4.26,12.15,6.18s5.09,4.35,1.75,7.8c-.74.76-2.28,1.26-1.07,2.57a6.56,6.56,0,0,0,3.26,2.11c1.51.28,1.5-1.39,1.72-2.42,1.11-5.15.83-10.49,1.37-15.69.24-2.24-4.58-5.45-7.26-8-4.66-4.42-8.64-9.49-14.68-12.67-4.52-2.38-9.34-5.47-11.46-11-.56-1.45-2.2-2.48-4.17-4.59,6.58,1.61,11.17,5.07,15.7,8.05,18.82,12.39,38.28,23.9,56,38,9.47,7.53,20.86,12.13,29.73,20.72,2.62,2.55,8.14,3.57,12.75,3.81,5.85.3,8.87-3,10.65-8a38.89,38.89,0,0,0,3,3.27c8.65,7.68,16.09,16,17.29,28.33.31,3.27,2.07,6.37,2.81,9.63,1.06,4.66,3.71,9.19,1.48,14.19h0c-1.86-1-1.92-4.72-5.69-3.38,2.6,3.54-.7,6.76-.84,10.35-.13,3.31,2.09,7.41-1.2,10.63-.94.91.58,2.06,1.26,2.84,3.75,4.26,2.55,8.87.23,12.89-2.83,4.92-4.91,10.2-7.81,15-7,11.53-14.17,22.9-21.4,34.26a23.65,23.65,0,0,0-4,11c-.36,5.52-2.66,10.34-5.23,14.81-6.94,12.11-11.06,25.05-13.48,38.7-1.88,10.57-2.11,21.47-6.08,31.64-.69-.57-1.45-1.68-2.07-1.61-3.54.43-9.39,10.5-8.64,14.6-2.25,4.7-5.82,8.3-9.68,11.67-1.82-1.26-4.24,2-5.86-.79-.41,1-.85,2-1.23,3.08-.94,2.61,1.25,3.11,2.76,4.07-2.23,3.39-6,6-6.23,10.41-.27,4.6-2,8.78-2.89,13.16-1.66,8.19-4.9,16.3-1.75,25,.82,2.28,1.17,5.24-.69,7.63-1.38-.53-3.57-2.71-4.08-.52-1.13,4.86-8.4,4.47-7.95,10,.14,1.77,1.67,3.57,3.47,2.71,2.31-1.1,6-1.23,5.91-5-.1-2.88-.16-5.53,2.64-7.25,3.68,5.57,5,11.07,2.57,17.93-2.61,7.4-6.75,14.43-7.23,22.49-.31,5.18-2.49,5.15-6.1,2.82-9-5.81-18-11.55-27-17.32a51.3,51.3,0,0,0-3.23-5.11c-1.47-1.85-3-2-4.08.53A281.88,281.88,0,0,1,237.39,634c-.62-5.16-5.83-5.76-8.76-8.61-.5-.49-1.56,1.13-1.8,2.23l-1-.66c.63-3.69-4.49-11-8.13-11.4a6.75,6.75,0,0,1-3.42-1.75c-3.31-2.39-5.17-1.5-5.84,2.41l-2-1.26c3.25-1.62,3.38-4.24,2.66-7.39-.67-2.91-2.66-.85-3.95-1.32,2.72-2,5.54-3.79,7.28-7,1.41-2.59,1.64-5.43-.17-7-2-1.74-2.71,1.53-4,2.58-2.58,2.1-6.64,2.53-7.52,6.64a2.51,2.51,0,0,1-2,.16c-4.86-3.43-6,.48-7.45,3.7l-8.1-5c1.22-2.64,4.34-5.12,1.08-8.23-3.68-3.51-4.65-3-8.21,3.5-5.38-1.86-8.52-7.35-14.18-8.75,3.57-3.18,2.22-6-.87-8.85l-4.67,5.74c-4.84-2.1-4-5.41-1.57-8.67,2.09-2.86,1.64-4.64-1.48-6.15a32.6,32.6,0,0,1-12.57-10.27c-2.82-3.93-8.65-3.54-10.83-8.12.67-.84.91-3.3,2.48-.6,1.21,2.07,2.93,1.64,4.23.35,2.38-2.35-.42-4-1.12-5.91-.84-2.31-2.34-.9-2.95-.16-1.29,1.56-3.39,2.47-3.94,4.64a4.17,4.17,0,0,1-3.41-2.32c6.12-3.32.83-7.78,1.83-12.79-3.67,2.84-6.24,5-7.72,8.21-7.55-.54-9.84-7.62-14.55-11.69,6.25-1.84,3.82-6.34,3.06-10.25-.28-1.47-1.89-1.33-2.8-1.14-3.59.78-6.07-1.17-8.6-3.1-5.89-4.51-5.88-4.51-7.78,2.71a7,7,0,0,1-2-.84c-8.29-7.1-8.3-7.12-13.84,1.73a30,30,0,0,0-3.2,6c-1,2.85-2.54,3-4.73,1.66Q36.41,509.38,8,491.65c-1.52-7.41-.81-8.07,6.53-5.68,3.24,1.06,6.34,2.5,9.56,3.62s5.75,2.81,9.3-.24c2.93-2.51,9.11.58,10.3,4.8.64,2.31,1.52,3.75,3.75,4.35,6.12,1.63,12.27,3.15,18.94,6.55a63.82,63.82,0,0,1-1.9-13.83c15.32-2.92,30.59-5.12,44.6-12.59,1.25,1.73-1.83,3.46.16,4.54,1.63.89,2.61-.92,3.87-1.63,6.44-3.63,11.1-9.76,18.62-12.2a42.85,42.85,0,0,1,7.23-1.28c7.93-1.19,16.07-4.15,23.92.47-1.15,3.28-3.73,1.47-5.71,1.49-1.54,0-3.2-.47-3.36,1.76-.12,1.73,1.05,2.31,2.61,3,5,2.3,9.8,3.11,15,.94,1.37-.57,4.32,1.63,4-1.65a4.15,4.15,0,0,0-5.43-3.48c-3.08.9-5-.06-6.89-2.15,1.34-2.56,3.95-2.61,6.29-3.09,1.88-.39,3.69-.77,5.05-2.28,1.79-2,3.92-17.1,2.71-19.41a4.93,4.93,0,0,0-.57-.9c-5.17,2.44-4.43-4.06-7.38-4.87-4.24-1.16-3.75-5.71-6-8.3a1.78,1.78,0,0,1,.65-2.49c1.18-.72,2-.1,2.74,1,1.83,2.88,4.15,4.6,7.16,2.71,2.73,2-3.86,4,.58,5.34,1.35.4,3.06,3.22,4.77.54,1.31-2.07,2.82-4.33-.24-6.32l0,.12c.91-1,1.1-3.28,3.23-2.13,1.57.85,2.9,2.43,1.9,4.21-2.83,5,1.73,10.3-.73,15.37-.8,1.65.28,3.47,2.33,3.8,2.51.4,2.69-1.8,2.86-3.34.94-8.3,2.42-16.76-4.7-23.48-1.78-1.68-.34-4.43-2-6.27-.65-.72-1.09-1.73-2.12-1.29a2.39,2.39,0,0,0-.9,1.88c0,2,.75,5.51-.76,5.67-3,.33-6.92-.16-9-2-2.41-2.05-4-1.36-6.5-.61,4.27-3,1.52-10.68,8.45-11.53.72-.09.94-1.2.53-1.93a1.75,1.75,0,0,0-2.83-.61c-1.7,1.23-3,3.87-5.65,1.45-2.23-2.05-1.35-4.21-.69-6.73s-1-5.78,4.33-4.87c2.08.35,3.73-4,4.07-6.83,1-8.47,5.78-16,6.06-24.61,0-1,.23-2,1.51-1.88s1.27,1.29,1.09,2.21c-1.34,6.88,2.22,14.75-4.72,20.53-3.1,2.57.38,7-1.72,10.18,3.91-.91,5.18,3,7.9,4.23a1.14,1.14,0,0,0,1.5-1.56c-2.91-4.9,4.1-7.35,2.82-11.85-.17-.59.92-1.11,1.76-.88a1.3,1.3,0,0,1,.89,1.79c-.66,2-1.41,3.9-2.19,5.83-.49,1.21-1.46,2.54.17,3.46a3,3,0,0,0,3.67-.73,16.17,16.17,0,0,0,3.14-5.3c1.13-3.69,2.07-7.33,6.15-8.92,1.29-.51,1.25-1.62,1.39-2.8,1-8.28,2.25-16.71,6.34-23.94,2.11-3.72,1.15-7.71,3.15-11.1a1.59,1.59,0,0,0-.73-2.38c-1.09-.56-1.69.22-2.34.94-2.1,2.34-2.1,5.64-3.78,8.16-.75,1.14-1.73,2.29-3.22,1.57a2,2,0,0,1-.45-3.35c2.47-2.1,4-3.88,2.73-7.66-.81-2.4,2.9-4.85,1.67-8.27-4.73.58-5,4.76-6.28,8s-1.19,3.4-5.5,3.81c-.73-2.08,1.92-2,2.21-3.42.36-1.84,0-3.58-1.38-4.61-1.89-1.36-2.56.64-3.41,1.78-1.3,1.75-2.54,3.55-3.69,5.17-3.92-4.65-.32-8.15,1.3-12.38,1.44-3.72,1.49-8.35.85-12.38-.51-3.26-7-3.34-10.2-.23-1.53,1.52-3.24,3-3.66,5.31-2.34-1.05-1.11-2.07-.72-3s1.65-2.69,1.42-2.92c-6-5.8,1.89-12.88-1.69-18.56-2-3.09-1.4-5.16.58-7.56.21-.25.33-1,.23-1-6.95-4.16,1.32-10.91-2.59-15.73-.44-.55-.46-3.68,1.78-4.18,1.58-.35,2.16,1.18,2.61,2.46.87,2.48,2.71,1.58,4.25,1.11,2.22-.69,6.36-10.15,5-12-4-5.32-3.39-11.2-4-17.33-.47-4.54,2.45-10.54-2.54-14.46l0,.13c-.55-3.84.82-7.83-.82-11.57-.32-.75-.73-1.56-.12-2,5.88-4.5,1.94-10.58,2.71-16.31l-4.7,2.54c1.79-4.34,4.75-7.68,3.15-11.85-5.37,2.77-7.48,9.25-8.31,15.14-1,7.25.82,14.35-1,21.8-1.4,5.8-3.11,13-1.6,18.53,1.32,4.83-1,10.63,3.61,14.92,1.93,1.81.88,5.06-1.35,7-1.2,1-2.81,2.32-2.56,3.56,1.33,6.86-3.31,12.86-2.51,19.54.27,2.2-1.75,3-2.24,4.93-2.41,9.48-1.8,19.48-5,28.78-1.32,3.78,3.14,4.88,3.55,8.57.59,5.38-2.1,4.94-4.68,4.23-2.14-.59-3.49-1-4.59.85-.14-3,5-3.59,3.69-7.12-.5-1.42-2.32-.11-3.95.35,1.38-3.72,4.38-5.85,4.54-9.57.11-2.48.78-4.34-.94-7-1.49-2.29,0-6.07,1.25-9.07.93-2.17,3.1-5-1.92-5.45-1.69-.14-2.12-1.47-1.61-3.43,1.14-4.31,2.36-9.35,1.72-13.14-1.16-6.86-.34-13.85-2.1-20.58-1-3.7.32-6.78,3.93-8.11,3-1.11,4.28-2.85,4.08-6.16a7.43,7.43,0,0,0-6.79,2.86c-.62.75-1.47,1.44-2.43.83-1.29-.82-.65-1.94-.15-3,.57-1.19,1.11-2.4,1.66-3.6,2.52-5.45,2.52-5.45-.5-10.16-2-.15-1.7,4-3.86,2.69-2.54-1.53.46-3.19.52-4.81.12-2.89.81-4.72,4-5.44,1.61-.36,2-2.56,2.4-4.26-1.66-1.31-3.26,1-4.85,0-1.79-1-3.85-1.79-2-4.67,1.69-2.64,5.48-6.38,1.17-8.55-4.11-2.08-4.7,3.6-6.72,6-.32.39-.48.93-1,1.29,3-5.84,6.11-11.6,6.87-18.25a2.75,2.75,0,0,1,1.25-1.73c7.08-4.06,8.47-9.83,3.55-15.89-1.22-1.5-1.45-2.93-.07-3.9,2.83-2,2.87-5,1.33-6.88-2.37-2.95-3.78,1.81-6.16,1.75-1-2,.69-3.07,1.47-4.41s2.19-3.44.59-4.63c-5.65-4.22-3.5-10.3-4.08-15.66-.8-7.39-1.38-14.82-1.66-22.25-.16-4.13,3-7.22,4.54-10.81,1-2.17,4.47-4.62,1.82-6.63-3.12-2.37-7.1-.35-10.31,1.39-1.13.61-1.62,2.42-2.92,3.64-.11-4.16-7.68-5.52-1.88-11.71-4.4.75-4.66,7.1-8.46,3.5-3.33-3.16-5.82-7.06-4.75-12,1.63-7.49,3.36-14.94,2.15-23.15-1.44,2.33-2.75,4.77-4.37,7-2.48,3.37-7,3.65-8.71-.1-2.8-6.21-6.11-4-10.34-1.21.31-3.83,1.71-7.1,4.15-8.55,3.44-2,4.2-5.89,7.1-8.12,1.51-1.16,1.26-4.6,4-4.06,2.93.59,1.29,3.82,2.33,6.12,3.34-2.67,4-5.87,3.31-9.49-.4-2-.55-4.11,1.27-5.14,2.31-1.32,3.56,1.39,5.3,2.25,1.56.77,3.71,1.42,2.84,4.11-.75,2.34-1.3,4.74-1.93,7.12-.81,3,.64,3.74,2.91,2.31,2.88-1.82,7-2.48,7.42-7a1.76,1.76,0,0,1,2.34-1.76c8.3,2.4,16.9-1.63,25.18,1.26,2.48.87,5.07,1.43,7.6,2.12-.44,1.92.17,2.71,2.26,2.51,1.14-.11,2.36.63,2,2s-1.57,1-2.73.72c-5.18-1.5-9.31-.06-12.21,4.59l-.71.14c.11,0,.25.14.33.11a1.58,1.58,0,0,0,.37-.32c3.06,2.53,6.57,4,10.37,2.38,6.2-2.64,12.37,2.19,18.86-.63-2.42-2.24-2-4.37.88-6,.93-1.79,3,.3,4-1.23L213,69.85c-2.13,2.39-4.18,2.33-6.79,1.33-1.68-.64-4-2.16-5.57.41-.73,1.2-3.29,1.44-2.32,3.37.76,1.5,1.64,3.3,4.34,2.56,2.2-.61,4.57-.18,5.33,2.8.59,2.29,1.46,4.44-1.94,5.33-1.37.35-1.41,1.65-.81,2.79a2.86,2.86,0,0,0,2.89,1.39c1.9,0,3-1.42,4.39-2.34a2.94,2.94,0,0,1,3.69.43c1.19,1,.47,1.75-.27,2.79-4.71,6.71-4.64,7.21,1.06,14.51.63-5.4,6.62-5.66,8.42-10,.35-.86,2.67-2.06,4-1.24,1.53,1,.72,2.9,0,4.08-1.57,2.7-3.24,5.71-6.88,5.78-2,0-2.62,1.17-3.25,2.55a1.82,1.82,0,0,0,.82,2.42c1.48,1,2.3,0,3.36-.89,2-1.71,2.9-1.14,3.08,1.52.4,6.19,4.22,9.5,10.15,8.95.94-.08,2.14-.65,2.64.21,3.37,5.84,7.33.49,10.92.46,2.27,0,1.69-2.18.07-3-5.05-2.74-9-7.53-15.2-8.19-1.82-.2-4.85-7.34-3.52-8.42,3-2.45,1.84-4.14-.14-6.44-1.59-1.85-3-4.74-.9-6.62,1.65-1.51,4.79-.46,6.63.53s3.89,1.9,5.43,3.76a3.81,3.81,0,0,0,6-.28c1.86-2.48-1.31-2.78-2.49-4-1.61-1.6-2.84-2.68-5.7-2-2.28.53-5.55.12-6.91-3.45-1.45-3.86-5.69-3.09-8.75-4.08-2-.64-4.24-.32-4.47-3.36a19.14,19.14,0,0,1,9.54,3.06c4.78,3.08,10.41,3,15.52,4.72,1.66.57,2.77-.76,4.18-1-.29,2.89,2.11,2.76,3.78,3.17,16.8,4.11,30.6,13.74,44.44,23.53C307,113.51,317,119,326.34,124.83c.05-.31-1-2.34.47-3,6.12-2.76,1.7-5-1.21-8,9-.24,16.62,2.55,25,3.5-1.71-3.72-4.86-2.62-7.09-3.5-1.67-.65-4.26-.3-3.83-3.08.35-2.28,2.86-3,4.46-2.7,5.85,1.17,10-2.82,14.85-4.43,2.27-.75,2.27-1.79.64-3.67-3.05-3.5-8.86-4.85-8.57-11.09.05-1.15-1.89-.87-2.95-.52-1.61.52-3.13,1.49-4.77,1.75-2,.32-4.73,2.52-6.07-.43-1.07-2.34-3.1-5-.77-7.93a16,16,0,0,0,2.66-5.24c-5.47,6.38-11.91,6.73-19.14,4.26-1.64-.56-3.81.57-5.57.17-2.21-.51-5.6-1.2-1.9-4.56,3.16-2.85.41-6.1.06-8.94-.8-6.35,3.87-10.52,5.5-15.85.78-2.53,11.57,1.74,13.65,3.51,4.28,3.64,4.7,8.82,7.15,12.84,2.66,4.35,10.12,4.83,14.47,8.83.42.38,1.94,0,2.68-.48,4.23-2.69,8.39-5.49,12.56-8.28.73-.49,1.93-.89,1.28-2.08a2.34,2.34,0,0,0-2.46-1.07c-6.85.87-9.74-5.16-14.29-8.28a2.22,2.22,0,0,1-.75-3c1.7-3.34-1.29-3.31-2.7-2.92-3.15.87-5.91-.44-8.85-.68-5.39-.43-7.36-3.51-7.85-8.58-.28-3,.88-7.14-4.53-7.76-1.88-.22-1-2.93-.7-4.52.18-1.14.87-2.34,2.3-1.81,2.47.9,4,5.78,7.92,1.2.57-.67,6.59,3.05,7.92,6.93,2.47,7.22,12.4,11.58,18.9,8.23,2.54-1.31,1.44-3.7,1.89-5.55s.86-2.77,3.06-3c2.64-.27,2,1.41,2.38,2.74,1,3.88,3.26,5.78,7.61,6.15,6.33.53,12.5,3.48,19,1.23,7.43-2.58,15-4.9,21.8-8.94-1-2.5-2.35-1.45-3.57-1.43-3.36.07-6.94,1-6.17-5,.43-3.34-2.54-4.32-5.58-2.42-4.07,2.54-8.43,1.27-11.1-2.77-7.27-11-14.87-21.71-20.56-33.65A31.08,31.08,0,0,1,371-20.8c-.27-4.69,4.46-6.62,9.24-4,4.46,2.47,9.41,2,14.09,3.15,1.7.4,2.28-1,3.07-2,1.58.12,3.17,1.26,4.8,0-2.33-1.78-2.33-1.78-4.77.07-4,0-4.46-2.83-4.19-5.64.24-2.43.08-4.57-2.61-4.58-3.49,0-1.66,2.46-1.32,4.1.42,2-.39,3.6-2.16,4.05-2,.51-2.15-1.28-3.05-2.79-2.36-3.9-1.51-9.26-6.55-12.18-2.19-1.26-3.53-1.4-6-.13C373-45.95,374.91-49,380-50.15c3.94-.91,2.63,3,4.77,3.53,2.17-2.65,4.32-5.36,6.58-8,1-1.2,3.28-2,1.24-4-1.48-1.4-2.52-2.55-5.57-2-7.87,1.35-11.69,7.25-16.37,12.24-2.53,2.69-4.73,4-7.76,1-.73-.71-1.55-1.22-2.44-.4a2.38,2.38,0,0,0-.43,1.39c1.78.83,2.51,1.94.65,3.29-1.5,1.08-3.14,3-5,2.3-3-1.07-5.52-2.47-5.43-6.8.06-3.25-1.29-7-5.68-7.58a13.79,13.79,0,0,1-5.7-2.42c-3.27-2.16-6.56-1.39-9.48.41-1.31.81-1.95,2.49-3.44.43-1.13-1.58-1.17-2.74.42-4.36,3.29-3.34,6.64-6.67,8.94-10.87,2.51-4.59,1.88-8.22-2-11.67-2.34-2.11-.27-4.14.5-6.15l.94,0c-.37-.86-.66-.52-.93.06-6.76-1.66-4.61-5.73-2.52-9.54-1.54-2.87-4.49,5.18-5.63-1-.13-.68-1.21.82-1.81,1.37-5.17,4.72-6.23,11.13-6.9,17.55-.35,3.31-1.43,3.56-4.38,2.81-3.12-.8-6.34-3.63-9.77.13-.37-3,1.56-4.38,2.35-6.2.44-1,1.62-1.89.75-3s-2.28-.73-3.15-.31c-3.92,1.86-8.72,1.13-12.18,4.55a5.78,5.78,0,0,1-6.79,1.34c-2.48-1.31-1.22-3.7-1-5.66.29-2.79.27-5.74,3-7.65,2.21-1.55.91-3.84,1-5.79a2,2,0,0,0-2-2.31c-1.35,0-2,.93-2.24,2.14-.37,1.59.19,3.45-1.71,5.13-1.55-2.78-5.44-2.49-6.8-4.78-1.6-2.7,3.94-3.81,2.7-7.78-2,2.59-5.95,2.26-6.41,6.35-.18,1.59-2.3,2.13-2.94.69-1.65-3.7-6-1.35-8.12-4.16-.73-1-2.39.63-3.07,1.7-.88,1.37-.73,3.38-2.46,4.08-5.83-6.44-1.75-11.72,1.26-17.82,7.33-14.84,20.49-21.76,34.62-28.09,5-2.25,9.15-6.5,14.82-7.75,1.83-.4,3.57-1.31,5.41-1.54,9.35-1.19,16-13.17,11.95-21.85-.92-1.94-3.25-2.79-5.24-2.78-3.94,0-7.2-1.68-10.52-3.37-2.77-1.4-4.41-5.06-8.8-3.17-2,.87-1.83-2.85-3.1-4-3.44-3.1-6-5.87-4-11.34,1.06-2.9-3.08-5.06-5.44-6.26-2.93-1.49-2.06,2.09-2.77,3.49-.44.88-.87,1.71-1.91,1.91-6.56,1.32-4.22,7.16-5,11-.51,2.55,3,2.6,5.34,2.31,1.51-.19,3.89-.43,1.78,1.87-2.48,2.71,3.79,5.09.1,6.61-1.87.77-3.29-3.37-5.94-3.33s-5.27-.85-7.68-.89c-6.68-.11-9.82-8.52-17.22-6.66-1.18.3-1.69-3.21-.85-4.27,2.8-3.49,2.34-8.35,5.45-11.67a3.85,3.85,0,0,0-.33-6c-3-2.56-2.47-6.12-2.76-9.44-.09-1.05-.32-2.49,1.29-2.67,1.32-.15,1.89.92,2.4,2,2.35,5.07,8,6.92,11.13,11.38,1.37,2,4.44,2.11,5.77-1.27,1-2.52,3.34-5.2-1.28-6.66-1.05-.33-3.16-8.5-2.61-9.49,1.5-2.7,3.35-1.54,5.28-.57,5.61,2.81,5.63,2.78,8.82-3.28-1.48-2.08-3.54,1.33-5-.53,1.55-4.78,3.59-9.61.11-14.46-.63-.89-.88-1.77,0-2.46s1.76.11,2.55.57c2.88,1.66,2.51,5.31,4.85,8.2,1.65-5.16.65-9.81,0-14.2s-6.4-6.45-11-4.43a39.35,39.35,0,0,0-6,3.2c-3.48,2.35-5.49,1.31-6.74-3.06-2,6.19-5.1,7.75-9.88,3.21-.76-.72-1.68-.24-2.6-.21-3.91.14-7.71-.18-8.29-5.34-.15-1.32-1.61-1.56-2.17-2.46-2.4-3.82-6.49-7.09-4.08-12.57.79-1.8-.59-3.06-2.15-3.29-1.86-.28-4-2.2-5.69.22-.61.86-2.05,2,.85,2.19,2.63.17,2.95,3,2.33,4.95-1,3-2.93.51-4.58.36-8.47-.77-10.26-7.91-13-13.87-.52-1.15-2.93-5.8,2.69-5.68,2.39.05,1.89-3,2.16-4.47a3.51,3.51,0,0,0-3.14-4c-1.75-.28-3.6.25-3.55,1.87.14,5.62-5.21,9.21-5.08,14.8.07,2.77-1.76,3.11-3.85,1.8a22,22,0,0,1-4.53-3.39c-1.5-1.59-2.57-2.63-4.48-.48-.63.7-2.78,1.23-3.09.86-4.29-5-9.58-1.71-14.44-2.07-6.19-.46-7.79-4.12-4.69-9.49,2-3.41,5-6.22,6-10.23.42-1.61,2-2,3.64-2.21,2.23-.24,3.73-2,3.23-3.86-1-3.37-3,.61-4.48-.15-1.35-1.5,2-3.67-.73-4.92.22-1.42,1.2-2.26,2.23-3.15,8.35-7.16,17.91-12.56,27.25-18.2,4.24-2.56,9.3-3.6,14.52-4.13,14.63-1.52,28.42.85,42.17,5.91,17.38,6.38,28.22,18.12,33.78,35.64,3.61,11.39,2.58,23.95,9.41,34.6,1.36,2.13,4.36,5.63,2.78,8.33-2.19,3.74-1.1,7.38-.81,10.79.35,4.06,3.46,7.47,8,7,1.94-.21,1.92.55,1.54,1.19-2.9,4.82,1.26,6,5.39,8.68A36.94,36.94,0,0,0,321-234c-1.65,3.76-3.11,7.59-4.61,11.42,6.21,3,3,7.91,2.27,12.14-.6,3.39-1.23,7.3.86,9.59a123.46,123.46,0,0,1,11.8,14.61c2.89,4.37,4.43,1.63,6.8.37,1.56-.83.37-4.91,3.23-3.39,2.53,1.34,3.38,4.37,3,7.47-.28,2.22-1.55,3.4-3.35,2.07-4.08-3-3.48,0-4,2.55-1.49,6.74,3.72,9.13,7.65,12.4,2.86,2.38,4.76,1.44,6.05-1.71l-.07,0c2.35,2.93-1.57,6.5,1.35,9.89,1.25-5,6.4-7.52,6.55-13.16,0-.8-.35-9.66,6.61-4.54,1.24.91,3.91-.88,3.4-3.75-.34-1.94-1.84-3.86-.24-5.89-2.85-1.61-1.9-7.11-6.79-6.62l.08,0c-2.63-1.11-5-4.51-8.16-.6-.71.86-3.47.47-3.48-.42-.08-4.88-1.66-4.58-4.58-1.79-.25.24-1.7-.16-1.91-.59-1-2-1.89-3.38-4.61-2.11-1.2.56-1.87-1.19-1.5-2.28a32.69,32.69,0,0,1,2.3-4.48,4.62,4.62,0,0,1,3.12,3.54,1.6,1.6,0,0,0,2.11,1.22,1.52,1.52,0,0,0,1.34-1.49A2.08,2.08,0,0,0,345-201.8a49.57,49.57,0,0,0-5.31-.95c-.84-.68-2.26-1-2-2.4.16-1.07,1.31-1.4,2.22-1.41,5.22-.05,10.15-.48,14.45,4.26a194.23,194.23,0,0,0,35.08,30.81A58.26,58.26,0,0,1,407.16-153c6.5,10.92,9.14,23,12.66,34.81l.08,0c-4.89-1.77-6.84-5.63-7-10.45-.08-2-1.5-3.46-2.52-2.66-2.38,1.89-4.63,1.51-7.2,1.25-1.59-.16-1.73.6-.29,2.36.34.41,1,.64.61,1.24-2.94,4.94,0,8.62,2.16,12.82,1.22,2.31.66,5.4,4.82,4.22.31-.09,3.36,0,2.94,2.76-.22,1.4.66,3.35,2.72,2.44,1.48-.65,1.59-2.08.87-3.84-1.69-4.15-.41-7.06,4.27-8l-.06,0c.66,2.16.88,4.59,2,6.43,6.19,9.77,9.47,21,15.12,30.9,8.12,14.27,10.73,30.3,16.46,45.29.14.37-.29,1-.51,1.62a10.15,10.15,0,0,1-1.46-.93c-.81-.77-.53-3.33-2.39-2.15-1.63,1,0,2.18.93,3.07,2.24,2.13,1.16,4.17-.38,6-5.47,6.51-3.87,14.71-5.44,22.15-.37,1.76.91,2.3,2.05,3,1.93,1.09,2.68-.46,3.58-1.65C452.21-2,453.28-1.57,453.85-2.94ZM254.92,504.87v-.45c1.29-5.56,4-2.17,7.15-.5-1.37-2.81-2.22-4.82-5-5.22-1.83-.27-2.78.71-3.62,2.1-1.19,2,.4,2.67,1.53,3.61Zm-34.68-7.18c3.31-5.39,8.94-2.79,13.74-3.95-1.56-2.2-1.78-5.17-6.3-3.09-1.48.68-6.38-1.32-9.63-2.37.27-.67.78-1.36,0-2a.92.92,0,0,0-.87.21c-.39.9.38,1.3.92,1.77-.75,1-1.32,1.37-2.74.55-5.28-3-10.23-1-11.75,4.72-.38,1.4-5.53,2.59-.51,4.52.85.33,3.22,2.18,1.84-1.4-.2-.5,5.23-2.39,6.25-1.11,2.77,3.48,6.06,1.69,9.11,2.12-1.53,3.64.4,5.09,3.6,5a70.3,70.3,0,0,0,8.8-1.32c.58.39,1.43.66,1.68,1.2.63,1.35.88,3.4,2.49,3.4,1.88,0,2.14-2.28,2.93-3.66,1-1.73,1.45-3.47-.69-4.88s-3,.6-4.21,1.54a17.81,17.81,0,0,0-2.19,2.46C229.19,498.08,224.94,497.15,220.24,497.69Zm97.84-85.89c-2.84-1-5.61-2.35-8.53-2.9-6.6-1.25-9,1.83-6.5,8.13.61,1.54,2.28,2.8.44,4.42s-2.45-.54-3.68-1.14c-2.31-1.13-2.85.86-2.19,2.22a26.42,26.42,0,0,1,2.05,17.26,1.25,1.25,0,0,0,1.26,1.53c3.63.06,3.21,3,3.92,5.23.31,1-.64,2.56,1,2.82,2,.31,1.79-1.75,2.08-2.78,1-3.66-.85-6.84-2.56-9.77-1.27-2.2-1.65-4.39.46-5.35,2.48-1.13,2.68,1.67,3.31,3.33.33.87.53,2.29,1.12,2.49,7.44,2.57,4,8.3,3.78,13a4.55,4.55,0,0,0,.84,3c3.71,5.9,3.68,5.92-2.34,7.8l.11,0c-1.45-.18-3-3-4.18-.51-.85,1.78,1.35,3,2.88,3.59,2.77,1.13,5.8,1.37,8.65,2.51,2.5,1,2.42-2.26,3.1-3.59,1.47-2.91,1.32-6.82,5.72-7.55a1.34,1.34,0,0,0,.86-1.83c-.58-1.4-1.86-2.2-3.18-1.56-3.83,1.88-5.38-1.12-7.57-3.09-1.78-1.6-1.43-3,0-4.28,1.24-1.06,2.08-2,1.82-3.79-.32-2.16.6-3.17,3-2.69a3,3,0,0,0,3.63-2c.54-1.75-.85-2.77-2.2-3.54a32.2,32.2,0,0,0-4-2c-4.7-1.86-5.21-4.88-1.1-8,1.38-1,.09-1.52,0-2.19-.49-2.93-3.25-5.36-2-8.71,2.78,1.27,6.32,1.71,6.26,6,0,1.2.92,1.53,2,1.33a1.53,1.53,0,0,0,1.12-2.17c-1.41-3.2-1.48-7.31-5.61-8.78-1.13-.64-1.71-1.53-.86-2.71a8.18,8.18,0,0,1,2-2c2.69-1.88,4.47-4.22,3.36-7.63-1.19-3.67-4.57.52-6.32-1.72,0-.19-.19-.64,0-.88,1.17-1.81,5.27-1.41,4.38-4.25-.71-2.24-3.95-.71-6-1.28a10.22,10.22,0,0,0-9.73,2.64c-1.26,1.17-3.33,4.14-1.91,4.6,5.42,1.75,2.58,6.2,3.49,9.19.64,2.14,1.9,2,3.09,2.47,2,.9,4.15,1.63,6.23,2.43ZM157.71,538.14c-2.44,3.79-5.26,1.14-4.85-.86,1.27-6.29-5.09-7.74-6.43-12.57-1.78,1.26.18,6.54-4.37,3.93-.59-.34-1.5.27-1.65,1.12-.27,1.54.9,1.9,2,2.1,1.82.31,3.4.83,3.24,3.1-.2,2.76-2.27,1.56-3.78,1.88-3.87.82-4.76,4.08-1.7,6.89,1.91,1.74,1.92,6.28,6.35,4.79a3.32,3.32,0,0,1,.8,1.82c-.26,1.6-1.52,3.71,1,4,1.08.14,2.88-1.61,3.61-2.91,1.88-3.35,3.27-6.88,6.86-9.05,2.09-1.26,0-4,1.12-5.83.67.26,1.36.75,2,0a.93.93,0,0,0-.19-.85c-.88-.35-1.31.36-1.78.91A2.61,2.61,0,0,0,157.71,538.14ZM306,145.23c-.35,1.29-2.41,2.69-.58,3.86,1.4.88,3.5.23,4.72-.85,1.75-1.54-.17-3.14-.8-4.43s-2.14-1.95-3.27-2.9c1.1-1.94,2.79-3.62,2.36-6.19-.23-1.4.09-2.88,1.82-2.9,1.37,0,2.32.82,2.5,2.49.56,5.08,1.23,10.14,2,15.19a20.38,20.38,0,0,0,1.33,3.66c.66,1.83,1.45,4,3.79,3.24,2.14-.72,1.95-2.93,1.42-4.88-.29-1.07-1.08-2.63-.65-3.18,5.59-7.18-1.08-12.19-3.82-17.09-1.82-3.25-6.67-5.14-8.56-9.16-2,1.43-1.14,2.62-1.25,3.66s-.32,2-1.44,2.15c-1.38.22-1.9-.64-2.21-1.92-.62-2.55-.15-6.91-4.67-2-1.24,1.37-5.81-.31-8.92-.59-.17,2,2.41,3,1.49,5.28A1.75,1.75,0,0,0,293.1,131c8.32-1.82,9.85,5.13,13.08,9.9C305.14,142.29,306.41,143.77,306,145.23Zm67.52-266.46c2.08-1.12,3.83-2.43,3.06-5,1.44-2.12-.07-5.25-.69-5.7-3.28-2.37-.79-3.93.55-6.13-3.22,1.76-5.64.67-7.6-1.37-2.64-2.74,1.36-4.66.85-7.42-2.33,5.08-9.12,6.58-9.77,13-.11,1.16-.6,2.17.57,3a2.44,2.44,0,0,0,3.09-.16,10.35,10.35,0,0,1,3.58-1.49,2.34,2.34,0,0,1,2.93,2c.44,2.21-1.28,1.72-2.52,1.89-2.43.32-4.83.78-7.26,1.1-4.67.62-8,5.83-6.27,10.28a4.43,4.43,0,0,1-.34,4.26c-1.21,2-1,3.89.73,6.17,2.34-3.42,5.3-4.68,9.45-4,3.65.63,6.07-.27,4.14-5.28-1.55-4,2.87-6.95,4.06-10.63.52-1.62,3-.31,4.55.42ZM260.05,617.1c1.62-5-.46-7.28-5.61-6.9-2.28.17-5.08-.16-6.17-2.8-1-2.43-3.21-3-5-4.25-2.3,1.28.13,4.52-2.52,5.21-2.37.63-3.73-1.43-5.51-2.35-2.34-1.21-4.59-2.61-7-3.76-.68-.34-1.49-1.3-2.71-.08,2.27,2.36,5.24,3.9,6,7.91.47,2.36,2.33,3.65-1,4.78-.94.32-.94,1.08-.52,1.79.51.87,1.23.67,1.92.21a19.57,19.57,0,0,1,3.32-2.15c2.57-1,5.37-2.07,5.38,2.58,0,.91.25,2.46.74,2.62,4,1.31,7.64,2.46,4.72,8-.37.7,1.49.38,2.32.55,3.5.69,5.88,3.07,8.36,5.45.9.87,2.14,4.13,4.23,1.08,1.48-2.16,3.6-4.78.79-7.1-2.38-2-2.64-3.87-1.76-6.4a10.9,10.9,0,0,1,8.72,4.29c-.31-4.19-.83-6.72-4-7.82-3.4-1.16-3.37,2.09-4.67,3.62C258.1,620.08,259.54,618.69,260.05,617.1ZM235.67-310.21c5.53-2,6.8-5.13,4.3-10.62-.27-1.19-2.33-3.52.21-3.27,3.57.35,3.72-2.28,5.4-3.77,4.34-3.84,1.48-5.63-1.93-6.19-4.77-.79-9.56-2.83-14.55,1-2.54,1.95-7.09,2.51-8-3.27-.39-2.52-2.62-1.79-3-.37-1.22,4.66-5.26,3-8,4.27-3.95,1.84-8.14-.68-12,1.32-2.25,1.17-4,2.83-3.9,5.12.1,4-1.43,3.6-4.13,2.36s-4.82.32-3.19,2.69c2.95,4.29,0,7-1.38,10.25-.64,1.46-3.53,3.26-.82,4.61,2.36,1.18,2-2,2.67-3.26,2.12-3.84,3.72-8.12,9.33-7.54,1.6.16,1.8-.66,1.9-2,.42-5.24,1.22-6.05,4.55-3,4,3.74,5.53.17,8.2-.54-.6-2.11-2-1.58-3-2-1.74-.71-2.44-1.84-1.36-3.51s2.45-1.51,3.65,0c3.71,4.59,8.18,4.81,13,2.09,2.15-1.22,4.89-1.06,5.71.41,2.55,4.57,6.27,5.18,10.75,4.56C239-317.16,235.6-314.41,235.67-310.21Zm-22,689.35c-.78,1-2.11,1.84-1.46,3.4.92,2.19-.07,3.34-2.08,3.6-2.8.38-2.81-1.85-2.94-3.68a36.92,36.92,0,0,1,.2-4.4c-2.21-.7-3.37.65-3.75,2.33a46.38,46.38,0,0,1-4.83,13.18c-.89,1.51-.47,2.51,1,3.19,3.87,1.81,1.2,4.36.9,6.73-.22,1.75-7.51,1.19-1.57,4.83-.46.57-1,1.67-1.37,1.63-6.67-.71-5.14,5.84-7.53,8.8-1.78,2.19,1.12,4.05,3.07,3.87,3.88-.36,6.23,1.54,8.81,3.86,1.28,1.15,2.82,2.6,4.92,2.33,3-.39,4.09,1,4.08,3.86A3.19,3.19,0,0,0,214,435.8c2.32.37,2.3-2,2.44-3.1.69-5.48,6.23-8.5,6.91-14-2.48.07-3.49,2.13-5,3.55-1.2-8.85,1.71-13.19,7.88-12-.38.79-1,1.65.1,2.29a1.41,1.41,0,0,0,1.31-.4c.63-1.11-.33-1.53-1.08-2,1.07-1.41.11-2.63-.59-3.62-1.71-2.37-.61-3.74,1.64-3.87,3.44-.21,3.29-3.2,2.53-4.32-2.52-3.72.26-4.84,2.54-5.56,5.57-1.77,4.85-6.24,4.45-10.17-.29-2.87-2.37-2.2-4-.58a57.65,57.65,0,0,0-10.71,15c-1.87-2.25-.59-4.2-1.07-5.83-.25-.85.36-2.35-.71-2.5-6.74-1-2-4.09-1.84-6.58,1.73.34,1.72,1.37,1.95,2.26s.16,2.08,1.45,2.07c1.09,0,1.52-.84,1.75-1.87.66-2.91.31-6.08,2.2-8.68-2.81-1.24-1.56-3.35-.24-4.18,2.41-1.53,2.67-3.94,3.57-6.11S231,361,232,358.77c.3-.65,1.49-1,2.35-1.24a5.68,5.68,0,0,0,4.59-5.68c-.37-6.09,1.57-11.65,2.55-17.45.25-1.47,2-4.83-1.17-5.2-2.71-.33-3.55,2.72-4.31,5-.26.78,1.43,2.48-.83,2.23-1.7-.19-1.77-1.69-1.16-3.1.14-.34.52-.58.64-.92.83-2.49,3.89-5.73.22-7.27-2.47-1-4.93,2.49-5.71,5-3,9.7-8.37,18.57-10,28.73-.85,5.33-3.71,9.39-7.81,12.71l-.41,0,.39-.12C216.33,372.78,216.57,375.48,213.7,379.14ZM309,521.71c-1.25-1.33-1.68-2.53-.88-4,1.13-2.06,1.85-3.65.21-6.13-1.42-2.16,2-5.3,7.18-7-1.32-2-5.16-3.88-.64-6.53,1.09-.64-.39-1.78-.93-2.73-2-3.57-4.83-7.06-2.24-11.62.37-.66.22-2.41-.15-2.57-4.2-1.79-5.24-6.39-8.22-9.3-1.83-1.78-5.8-4.22-3-8.3a3.41,3.41,0,0,0-.16-4.63c-1.65-2-2.84-4-.32-6.38,1.5-1.41.39-2.73-.85-3.78-2.08-1.78-4.6-2.43-7.2-3.06s-4.68,1-6.09,2.21.31,3.77,1.62,4.93c4.73,4.2,2,9.95,3.33,14.83.36,1.37-1.37,4.2-2.62,3.87-5.8-1.56-5.57,2.27-6.15,5.89-.29,1.78-2.14,2.18-3.65,1.85-4.67-1-4.4,1.24-2.82,4.19,1.19,2.23-.05,3.53-1.4,4.91-1-.3-1.45-1.88-2.85-1.16,2.71,2-2.38,4.46.14,6.09,2.78,1.8,1-2.64,2.86-2.52,1.55,1.16,2.32,2.39.95,4.28-2.74,3.74-2.95,8.22-3.38,12.61-.2,2,4.33,6.13-2.46,5.15-.73-.1-.54,1.84.2,2.33,6.69,4.4-.81,6.7-1.72,9.72-1.07,3.55-3.18,1.15-5-.33-2.29-1.83-3.16.3-3.05,2a5.64,5.64,0,0,0,2,3.91c6.15,4,7.2,9.07,4.72,15.84-.93,2.54,1,5.67,3.34,8.94-4.59-.82-7.15-3.58-10.84-5.09-.07,2,1.9,3,1.41,4.72-.36,1.3,6.86,8.26,8.14,8.13a1.7,1.7,0,0,0,1.27-.88c.57-2.07,1.3-4.65,3.79-3.87,2.08.65-.09,3.73,1,5.07,2.67,3.37,1,5.89-1,8.55-.82,1.09-1.78,2.25-3.24,1.68s-.5-1.85-.35-2.9c.53-3.67-2.33-4.75-5.31-6.45-.34,4.72-2.63,5.21-6.08,2.85-.9-.61-2-1.38-3-.14a2.19,2.19,0,0,0,.26,3.05c1.35,1.4.66,3.28.67,4.76,0,7.9-.13,7.88,7.61,8a18,18,0,0,0,13.75-5.26c2.22-2.19.26-5.44,2-6.83,5.47-4.39,4.75-12.23,9.84-16.69,2.36-2.06.21-3.31-1.06-4.45-1.64-1.47-2.79-3.84-.93-4.75,5.73-2.81,5.59-11.61,13.4-12.32,2.9-.26-.3-3.37.27-5,3.66.07,2.25,3.28,4,5,2.14-6.21,11.87-.8,12.81-9h.44l-.43.06C314.68,525.06,311.71,524.65,309,521.71Zm73.15-684c2,.79.66,2.19.05,3.25-1.31,2.29-3,4.33-3.79,6.95-1.06,3.47-2.16,6.47,1,9.77s1.84,7.26.36,11c-.32.82-1.09,1.84.08,2.47a2.15,2.15,0,0,0,2-.22c2.42-3.83,6.95-3.67,10.35-5.6,5.23-3,5.45-5.45.55-8.81-3.84-2.64-3.46-4.28,1.82-7.91-.05-1.25-1.06-1.36-1.94-1.63-3.36-1-7.56-1.54-3.59-6.67a3.22,3.22,0,0,0-.53-4.23c-4.06-2.72-6.92-8.5-14.19-5.44C377.67-167.32,378.72-163.68,382.14-162.32Zm-203,667.87c.68-.31,1.62-.8,2.15-.57,6,2.73,9.16-1,12.55-5,1.54-1.81,3.86-3.86,2.28-5.64a10.73,10.73,0,0,0-7.49-3.37c-2,.07-3.91.49-5.85-.38-.34-.15-1-.38-1.05-.27-3.23,4.22-8,3-12.49,3.83,1.82,1.12,3.69,2.17,5.43,3.39s4.62,1.91,3.43,4.39-3.11-1.1-5.33-.22C173.08,506.14,175.23,507.28,179.1,505.55Zm110.63-745.8c-.7,2.35.45,3.4,2.6,2.85,4.09-1,6.87,1.36,9.8,3.37,1.54,1.06,4,1.85.78,4.33-2.2,1.71.62,3.22,1.53,4.64s1.93,1.47,3.41.64c1.87-1.05,1.45-1.86.66-3.55a6.8,6.8,0,0,1-.11-5.41c3.2-5.66-2.75-9.33-2.75-14.26,0-1.09-1.82-2.22-3.18-1.69-3.24,1.26-6.22,3.3-10,2.45-.25-.05-.71.79-1,1.09C290.88-243.83,290.27-242,289.73-240.25ZM200.64,280c-.11-1.52-.45-2.52-1.82-3.12-3.28-1.43-7.11,2.48-10.37-1-.24-.25-1.34,2.23-1.26,3.8.35,6.35-.69,12.73.58,19C197.24,294.87,201.29,288.92,200.64,280Zm-2.32-11.4c4.54-6.21,1.05-12.54,1.34-18.77,0-.75-.42-1.66-.12-2.21s1.28-1.07,2-1.58c-.25-.24-.45-.57-.74-.68-1-.41-2.21-1.19-3.16-1-1.62.33-1.49,2-1.32,3.28.62,4.7-2.58,8.11-4,12.11-1,2.65-2.15,5.22-3.09,7.88a3.73,3.73,0,0,0,.75,4C192.92,273.61,196.25,271.41,198.32,268.57ZM442.16,52.35c2.4,2.93,3,6.71,3.11,10,.08,3.56,1.65,5.91,3.31,8.49.79,1.23,1.64,2.83,3.54,1.82a3.38,3.38,0,0,0,1.56-4.83c-3.14-6.13-4.81-12.94-8.64-18.74-.9-1.37-1.83-3.29-3.56-1.08C440.43,49.83,441.2,51.18,442.16,52.35Zm-148.6-336c-3.09-.21-7.82,5.53-6.75,7.88,2.67,5.86,8.15,4.55,14.36,4.69C297.44-275.57,301.4-283.17,293.56-283.7Zm-11.7,174.16c2.75,1.32,6.11-.27,7.8-2.54,2.28-3.07.54-6.76-.2-10.17-3.53,1.42-7.89,1.64-9.36,6.8C275-112.44,279.94-110.47,281.86-109.54Zm72-41.68c-3.75-3.56-7,.52-10.52,0-1.17-.16-.28,3.35.25,5s1.72,1,2.57-.13c2.11-2.72,4.06-2,6.06.22,2.8,3.15,6.89,2,10.05,1.84,3.32-.18,0-4.56,2.13-6.46C360.61-148.52,356.74-148.54,353.9-151.22Zm-6.67,538.66c2.35-.26,5-1.69,4.72-4.58-.34-3.09-3.2-3.37-5.73-3.1-1.84.2-3.62.91-5.45,1.26-1.42.28-3.48-.06-3.62,1.77-.12,1.59,1.87,2.09,3.14,2.82A9.38,9.38,0,0,0,347.23,387.44ZM340,184.52c1.65.39,2.86.89,3.72-.88s0-3.22-1.59-4.23a15,15,0,0,0-6.42-1.83c-.92-.12-1.87,0-2.79-.09-2.2-.21-4.42-4.4-6.05-1.47-1.29,2.33,3.4,2.6,4.64,4.79A35.59,35.59,0,0,0,340,184.52ZM328.39,509c-3.95,1.68-2.29,5.44-2.66,8.38-.12,1,1.81,1.48,1.71,1-1.09-5.22,4.28-4.66,6.29-6.16,3.45-2.57,2.2-3.55.19-5.47-.91-.86-1.73-1.81-3-3.18C330.77,506.15,330.69,508.05,328.39,509Zm109-543.59c-3.24,4.09-2.86,12.62,1.06,18.39C441.7-23,441-28.87,437.37-34.57ZM375.59,117.87c-7.5-2.9-15.27-1-22.92-1.12A44.27,44.27,0,0,0,375.59,117.87Zm-166-23.81c-.38-3.22-4.87-3.74-7.1-2.78-4.69,2,1.32,5.72-2.08,9.68C204.91,98.33,210.17,99,209.58,94.06ZM415.24,182.5a25.53,25.53,0,0,1-9.28,8.24c-.71.35-1.29.89-.88,1.75s1.35,1.1,2.37.94c2.35-.36,4.74-1.58,5.61-3.34,1.89-3.81,4.91-6.15,8.46-8.42C419,180.57,416.75,180.4,415.24,182.5ZM192.74,308.87c1.36,1.34,3-.4,3.18-1.84.26-2.93,4.47-5.67,1.23-8.52-1.9-1.68-4.09.39-5.57,2C190.52,303.6,190.51,306.68,192.74,308.87ZM320.65,544.28c-.74,2.65,2.18,2.9,1.19,4.65-.66,1.17-3.77,1.92-1.11,3.61a4.59,4.59,0,0,0,5.68-.41c1.34-1.16,3.49-1.37,4.34-4C327.2,547.11,323.21,548.43,320.65,544.28Zm-35.72,39.49c-.68,1.1-3.16,1.5-1.7,3.49a3.78,3.78,0,0,0,3.48,1.55c1.93-.24,2.8-1.79,3.45-3.38.83-2.07-1.44-3.86-.36-6.29C286.92,580.08,286,582.05,284.93,583.77Zm30.62-219.1c-1.83-7.33-5.41-8.94-12.43-5.48C307.85,359.53,311.41,362.44,315.55,364.67ZM265.7-273.41c-.09-.93.34-1.9-.79-2.33a3.48,3.48,0,0,0-1.52.08c.12,4.36-7.78,5.81-4,11.4C261.79-267,266.2-268.41,265.7-273.41Zm11.86,66c.37.74-.11,2.16,1.24,2.05a1.42,1.42,0,0,0,1.1-2.14c-1.89-4.32,4.88-4.66,3.59-9.48C280.62-214,274.4-213.72,277.56-207.37ZM187,466.15a2.29,2.29,0,0,0,1-3.39c-1.79-2.24-1.49,1.26-2.62,1.15-4.08-.38-4.52,3.91-7,5.7C181.92,469.78,184.33,467.6,187,466.15Zm127.48,82.77c1.17.89,2.88.47,3-1.14.15-2.15,2.08-4.65-.13-6.42-1-.81-3.27-1.33-4.42,1.31C312.71,544.68,312.28,547.21,314.51,548.92ZM225.26,318.61c0-1.37-.11-3.32-1.55-3.12-3.67.51-2.34,4.54-5,7.19C223,322.71,225.31,322.32,225.26,318.61Zm-19,147.31a1.31,1.31,0,0,0,.46,2.28c1,.35,1.73-.32,2.09-1.33,1-2.79,2-5.58,3.51-9.67C208.68,460.11,208.8,463.82,206.28,465.92Zm20.33-762.71c-.59,1.16-2.73,2.54-.78,3.75,1.44.9,2.68-.87,3.58-2.08,1.26-1.68,2.23-3.46.49-6.43A49,49,0,0,0,226.61-296.79Zm-10,881.55c.37-2.23,2.49-4.46.22-6.69-.24-.24-1.77.21-1.9.62-.85,2.5-2.59,5.2.78,7.42C216.08,585.65,216.59,585.24,216.66,584.76ZM346.09,352.22a1.26,1.26,0,0,0,.66,2.38c1.63.1,3.69,2.15,4.93-.43a3.76,3.76,0,0,0-.91-4.19C348.48,349.12,347.44,351.15,346.09,352.22ZM203.49,223.15a1.92,1.92,0,0,0-1.44.24c-.78.73-.93,2-.11,2.46,2.29,1.25,2.07,3.82,3.22,6C208.62,227.83,204.73,225.75,203.49,223.15Zm72.77,216.39c-4.84-1.15-4.84-1.15-4.46,6.45C273.39,442.84,274.26,440.88,276.26,439.54Zm.56-723.84c1,.78,2-.29,2.52-1.35s2-2.23.58-3.43c-1.14-.94-2.49-.44-3.55.63C275.77-287,275.6-285.28,276.82-284.3Zm-18.62-5.18c-1-.79-1.79-3.25-3.36-1-1.1,1.57.73,2.28,1.86,2.74,1.84.75,3.31,2.54,6.4,2.08ZM211.51,336.24c-.65,1.2-1.28,2.77.35,3.42,2.59,1,3.28-2,4.92-3,1.23-.77.48-2-.8-2.68C213.81,333.21,212.5,334.45,211.51,336.24Zm50.68-37.06a1.23,1.23,0,0,0,2.24-.16c1.21-2.64-1.83-3.2-2.68-4.87-.38-.74-1.47-1.1-2.41,0C259.2,296.35,261.25,297.49,262.19,299.18ZM162,285.46c-3.63.12-4.57,2.15-4.08,5.2ZM285.37-219.62a1.53,1.53,0,0,0-1.05-2.2,2.39,2.39,0,0,0-2,.39c-.89.91-.18,1.64.7,2.17S284.85-218.55,285.37-219.62ZM183,405.19c-.06.17.73.94,1,.87a2.56,2.56,0,0,0,1.92-2.78A2.53,2.53,0,0,0,183,405.19Z" fill="#9bb0aa"/>
        <path d="M397.38-23.61c-.79,1-1.37,2.39-3.07,2-4.68-1.11-9.63-.68-14.09-3.15-4.78-2.65-9.51-.72-9.24,4a31.08,31.08,0,0,0,2.54,11.74c5.69,11.94,13.29,22.68,20.56,33.65,2.67,4,7,5.31,11.1,2.77,3-1.9,6-.92,5.58,2.42-.77,6,2.81,5.06,6.17,5,1.22,0,2.61-1.07,3.57,1.43-6.8,4-14.37,6.36-21.8,8.94-6.48,2.25-12.65-.7-19-1.23-4.35-.37-6.58-2.27-7.61-6.15-.36-1.33.26-3-2.38-2.74-2.2.23-2.6,1.1-3.06,3s.65,4.24-1.89,5.55c-6.5,3.35-16.43-1-18.9-8.23-1.33-3.88-7.35-7.6-7.92-6.93-3.92,4.58-5.45-.3-7.92-1.2-1.43-.53-2.12.67-2.3,1.81-.27,1.59-1.18,4.3.7,4.52,5.41.62,4.25,4.76,4.53,7.76.49,5.07,2.46,8.15,7.85,8.58,2.94.24,5.7,1.55,8.85.68,1.41-.39,4.4-.42,2.7,2.92a2.22,2.22,0,0,0,.75,3c4.55,3.12,7.44,9.15,14.29,8.28a2.34,2.34,0,0,1,2.46,1.07c.65,1.19-.55,1.59-1.28,2.08-4.17,2.79-8.33,5.59-12.56,8.28-.74.46-2.26.86-2.68.48-4.35-4-11.81-4.48-14.47-8.83-2.45-4-2.87-9.2-7.15-12.84-2.08-1.77-12.87-6-13.65-3.51-1.63,5.33-6.3,9.5-5.5,15.85.35,2.84,3.1,6.09-.06,8.94-3.7,3.36-.31,4,1.9,4.56,1.76.4,3.93-.73,5.57-.17,7.23,2.47,13.67,2.12,19.14-4.26a16,16,0,0,1-2.66,5.24c-2.33,2.94-.3,5.59.77,7.93,1.34,3,4,.75,6.07.43,1.64-.26,3.16-1.23,4.77-1.75,1.06-.35,3-.63,2.95.52-.29,6.24,5.52,7.59,8.57,11.09,1.63,1.88,1.63,2.92-.64,3.67-4.89,1.61-9,5.6-14.85,4.43-1.6-.32-4.11.42-4.46,2.7-.43,2.78,2.16,2.43,3.83,3.08,2.23.88,5.38-.22,7.09,3.5-8.35-1-16-3.74-25-3.5,2.91,3,7.33,5.28,1.21,8-1.5.68-.42,2.71-.47,3C317,119,307,113.51,297.79,107,284,97.18,270.15,87.55,253.35,83.44c-1.67-.41-4.07-.28-3.78-3.17C250,68.78,248,57.64,246,46.34c-1.2-6.79-1.61-13.93-2.84-20.87-.46-2.65-1.29-3.3-3.94-2.48-6.91,2.13-13.64,4.72-20.39,7.28C205.51,35.33,192,40,178.61,44.74c-1.87.67-4.27,1.09-4.48,3.33-.23,2.53,2.51,3,4.16,4.07,6.84,4.41,13.75,8.71,20.63,13-1,1.53-3.11-.56-4,1.23-5.88-3.88-12.8-4.16-19.39-5.53-2.54-.7-5.13-1.26-7.61-2.13-8.28-2.89-16.88,1.14-25.18-1.26a1.76,1.76,0,0,0-2.34,1.76c-.38,4.54-4.54,5.2-7.42,7C130.67,67.7,129.22,67,130,64c.63-2.38,1.18-4.78,1.93-7.12.87-2.69-1.28-3.34-2.84-4.11-1.74-.86-3-3.57-5.3-2.25-1.82,1-1.67,3.15-1.27,5.14.72,3.62,0,6.82-3.31,9.49-1-2.3.6-5.53-2.33-6.12-2.74-.54-2.49,2.9-4,4.06-2.9,2.23-3.66,6.09-7.1,8.12-2.44,1.45-3.84,4.72-4.15,8.55,4.23-2.74,7.54-5,10.34,1.21,1.7,3.75,6.23,3.47,8.71.1,1.62-2.2,2.93-4.64,4.37-7,1.21,8.21-.52,15.66-2.15,23.15-1.07,4.92,1.42,8.82,4.75,12,3.8,3.6,4.06-2.75,8.46-3.5-5.8,6.19,1.77,7.55,1.88,11.71,1.3-1.22,1.79-3,2.92-3.64,3.21-1.74,7.19-3.76,10.31-1.39,2.65,2-.86,4.46-1.82,6.63-1.58,3.59-4.7,6.68-4.54,10.81.28,7.43.86,14.86,1.66,22.25.58,5.36-1.57,11.44,4.08,15.66,1.6,1.19.28,3.14-.59,4.63s-2.48,2.39-1.47,4.41c2.38.06,3.79-4.7,6.16-1.75,1.54,1.92,1.5,4.89-1.33,6.88-1.38,1-1.15,2.4.07,3.9,4.92,6.06,3.53,11.83-3.55,15.89a2.75,2.75,0,0,0-1.25,1.73c-.76,6.65-3.9,12.41-6.87,18.25.5-.36.66-.9,1-1.29,2-2.4,2.61-8.08,6.72-6,4.31,2.17.52,5.91-1.17,8.55-1.86,2.88.2,3.63,2,4.67,1.59.92,3.19-1.35,4.85,0-.39,1.7-.79,3.9-2.4,4.26-3.22.72-3.91,2.55-4,5.44-.06,1.62-3.06,3.28-.52,4.81,2.16,1.31,1.82-2.84,3.86-2.69,3,4.71,3,4.71.5,10.16-.55,1.2-1.09,2.41-1.66,3.6-.5,1-1.14,2.15.15,3,1,.61,1.81-.08,2.43-.83a7.43,7.43,0,0,1,6.79-2.86c.2,3.31-1.08,5-4.08,6.16-3.61,1.33-4.91,4.41-3.93,8.11,1.76,6.73.94,13.72,2.1,20.58.64,3.79-.58,8.83-1.72,13.14-.51,2-.08,3.29,1.61,3.43,5,.42,2.85,3.28,1.92,5.45-1.29,3-2.74,6.78-1.25,9.07,1.72,2.65,1.05,4.51.94,7-.16,3.72-3.16,5.85-4.54,9.57,1.63-.46,3.45-1.77,3.95-.35,1.26,3.53-3.83,4.15-3.69,7.12,1.1-1.86,2.45-1.44,4.59-.85,2.58.71,5.27,1.15,4.68-4.23-.41-3.69-4.87-4.79-3.55-8.57,3.23-9.3,2.62-19.3,5-28.78.49-1.89,2.51-2.73,2.24-4.93-.8-6.68,3.84-12.68,2.51-19.54-.25-1.24,1.36-2.53,2.56-3.56,2.23-1.94,3.28-5.19,1.35-7-4.57-4.29-2.29-10.09-3.61-14.92-1.51-5.54.2-12.73,1.6-18.53,1.79-7.45,0-14.55,1-21.8.83-5.89,2.94-12.37,8.31-15.14,1.6,4.17-1.36,7.51-3.15,11.85l4.7-2.54c-.77,5.73,3.17,11.81-2.71,16.31-.61.47-.2,1.28.12,2,1.64,3.74.27,7.73.82,11.57h-.9c.44,1,.63.26.87-.13,5,3.92,2.07,9.92,2.54,14.46.63,6.13,0,12,4,17.33,1.36,1.82-2.78,11.28-5,12-1.54.47-3.38,1.37-4.25-1.11-.45-1.28-1-2.81-2.61-2.46-2.24.5-2.22,3.63-1.78,4.18,3.91,4.82-4.36,11.57,2.59,15.73.1.06,0,.78-.23,1-2,2.4-2.54,4.47-.58,7.56,3.58,5.68-4.35,12.76,1.69,18.56.23.23-1,1.88-1.42,2.92s-1.62,1.91.72,3c.42-2.32,2.13-3.79,3.66-5.31,3.16-3.11,9.69-3,10.2.23.64,4,.59,8.66-.85,12.38-1.62,4.23-5.22,7.73-1.3,12.38,1.15-1.62,2.39-3.42,3.69-5.17.85-1.14,1.52-3.14,3.41-1.78,1.42,1,1.74,2.77,1.38,4.61-.29,1.46-2.94,1.34-2.21,3.42,4.31-.41,4.21-.45,5.5-3.81s1.55-7.44,6.28-8c1.23,3.42-2.48,5.87-1.67,8.27,1.29,3.78-.26,5.56-2.73,7.66a2,2,0,0,0,.45,3.35c1.49.72,2.47-.43,3.22-1.57,1.68-2.52,1.68-5.82,3.78-8.16.65-.72,1.25-1.5,2.34-.94a1.59,1.59,0,0,1,.73,2.38c-2,3.39-1,7.38-3.15,11.1-4.09,7.23-5.35,15.66-6.34,23.94-.14,1.18-.1,2.29-1.39,2.8-4.08,1.59-5,5.23-6.15,8.92a16.17,16.17,0,0,1-3.14,5.3,3,3,0,0,1-3.67.73c-1.63-.92-.66-2.25-.17-3.46.78-1.93,1.53-3.86,2.19-5.83a1.3,1.3,0,0,0-.89-1.79c-.84-.23-1.93.29-1.76.88,1.28,4.5-5.73,6.95-2.82,11.85a1.14,1.14,0,0,1-1.5,1.56c-2.72-1.21-4-5.14-7.9-4.23,2.1-3.17-1.38-7.61,1.72-10.18,6.94-5.78,3.38-13.65,4.72-20.53.18-.92.17-2-1.09-2.21s-1.48.9-1.51,1.88c-.28,8.62-5.06,16.14-6.06,24.61-.34,2.84-2,7.18-4.07,6.83-5.38-.91-3.66,2.32-4.33,4.87s-1.54,4.68.69,6.73c2.63,2.42,4-.22,5.65-1.45a1.75,1.75,0,0,1,2.83.61c.41.73.19,1.84-.53,1.93-6.93.85-4.18,8.49-8.45,11.53,2.49-.75,4.09-1.44,6.5.61,2.12,1.82,6.06,2.31,9,2,1.51-.16.73-3.65.76-5.67a2.39,2.39,0,0,1,.9-1.88c1-.44,1.47.57,2.12,1.29,1.65,1.84.21,4.59,2,6.27,7.12,6.72,5.64,15.18,4.7,23.48-.17,1.54-.35,3.74-2.86,3.34-2-.33-3.13-2.15-2.33-3.8,2.46-5.07-2.1-10.33.73-15.37,1-1.78-.33-3.36-1.9-4.21-2.13-1.15-2.32,1.15-3.23,2.13l-1.31-.21.75,1.1a2.61,2.61,0,0,0-1,2.45.66.66,0,0,0,.53,0c1.06-.67.69-1.56.34-2.44l.64-1c3.06,2,1.55,4.25.24,6.32-1.71,2.68-3.42-.14-4.77-.54-4.44-1.33,2.15-3.31-.58-5.34-3,1.89-5.33.17-7.16-2.71-.7-1.11-1.56-1.73-2.74-1a1.78,1.78,0,0,0-.65,2.49c2.26,2.59,1.77,7.14,6,8.3,2.95.81,2.21,7.31,7.38,4.87a4.93,4.93,0,0,1,.57.9c1.21,2.31-.92,17.4-2.71,19.41-1.36,1.51-3.17,1.89-5.05,2.28-2.34.48-4.95.53-6.29,3.09l-.26.06c-7.85-4.62-16-1.66-23.92-.47a42.85,42.85,0,0,0-7.23,1.28c-7.52,2.44-12.18,8.57-18.62,12.2-1.26.71-2.24,2.52-3.87,1.63-2-1.08,1.09-2.81-.16-4.54-14,7.47-29.28,9.67-44.6,12.59a63.82,63.82,0,0,0,1.9,13.83c-6.67-3.4-12.82-4.92-18.94-6.55-2.23-.6-3.11-2-3.75-4.35-1.19-4.22-7.37-7.31-10.3-4.8-3.55,3-6.23,1.32-9.3.24S17.75,487,14.51,486c-7.34-2.39-8-1.73-6.53,5.68L.56,487.21c.13-1.95,2.16-4.89.59-5.51-1.74-.68-4.43,1.05-6.7,1.73-8.55-5.23-17.12-10.44-25.66-15.7-11.62-7.17-23.24-14.33-34.8-21.61-1.25-.79-4.81-1.7-2.13-3.76,3.81-2.92,5.09-7.62,9.16-10.43A104.12,104.12,0,0,0-42.15,418c3.47-3.66,7.92-7.39,13.62-8,6.42-.7,8.46-5.34,9.65-10.66.55-2.44.91-5.05,3.4-6.11,6.37-2.72,12.34-7.29,20.1-3.89,1.69.74,4.24-.33,6.52-1.19,4-1.49,4.69-5,6.69-7.51,5.74-7.27,12.91-13.8,14.13-23.84.2-1.58,1.63-2.74,2.94-3.95,8-7.38,13.05-16,11-27.57-.75-4.17.23-8.45.89-12.7A74,74,0,0,0,45.66,285c-5-22.08-14.59-42.78-20.34-64.75C21.7,206.41,16.05,193,13.24,178.9c-2-10.23-5.25-20.25-6-30.71-.63-8.37-2.22-16.43-.26-25.26,1.24-5.59-2.14-12.85-4.67-19.12C.45,99.32-1.35,94.76,0,89.2c.71-3,1.51-7.75-.39-10.35-3.63-5-7.23-10.54-12.68-13.61s-7.63-6.85-7.1-12.61A23.29,23.29,0,0,0-21,46c-1.5-8-2-15.82,3.57-22.76.9-1.12,1-2.83,1.85-4.06C-9.36,9.8-7.39-1.82.11-10.45a67.56,67.56,0,0,0,6.32-8.69,9.71,9.71,0,0,1-1.11,9.4,35.21,35.21,0,0,0-5.57,11c7.82-2.41,7.7-12,15.32-13.81A26.59,26.59,0,0,1,9.34,3.16C8.08,4.76,6.46,6.84,9.15,7.5c1.85.46,4.63,3.95,6.69-.18.7-1.4,1-4.1,3.11-3.29s.05,3,.14,4.52c.2,3.68-1.54,5.86-4.15,8.54-5,5.15-10.17,10.45-12.59,17.63-.9,2.66-.7,4.42,2.32,3.79,2.1-.44,3,.11,3.27,1.79,1.33,7,5.59,13.19,5.56,20.56,0,4.61,2.09,8.27,5.35,11.35,1.07,1,2,2.15,3.9,1.59,6.54-2,10.69,1.64,14.19,6.46.65.91,1.14,2.33,2.42,1.54,1.07-.67.46-2,.11-3.11C38.09,74.34,35.52,70.54,32.9,67,27.66,60,27.06,51.62,27,43.78,26.88,38,30.27,32,32.81,26.44c.84-1.84,2.75-2.49,6.47-1.59,6.94,1.67,4.44,5.48,4.61,9,.56,10.94,8.67,18.66,19.29,22.1,5.63,1.82,11.55,1.37,16.83,3.88-.89-6-.43-6.37,6-4.78,1.56.39,2.57-.53,3.5-1.4,1.58-1.47,1.81-3.66,2.66-5.52,2.08-4.51,2.84-6.85-2.81-10.65a106.26,106.26,0,0,0-14.68-8.81c-3.56-1.66-4.91,1.06-7.26.47C67.07,32,71.93,31.78,70,35c-.74,1.25-1.78,1.13-2.94,1.06-4.07-.23-1.84-3.49-2.3-5.23C63.13,24.5,67,18.43,66.05,12c-.17-1.07,2.53-1.79,3.87-1.51,3,.62-1.3,2.87,1,4.12,2-2.74,2.85-7.35,8.07-5.8.17,0,2.19-3.61,2.06-5.45-.69-9.95-1.93-19.79-8.48-28-2.35-3-5.49-4.55-8.76-6.08,8.9-2.36,17.7-5.46,26.76-6.82,5.41-.82,5.75-2.77,5.56-7.25-.52-11.69-1.53-23.5.45-35.06a376.88,376.88,0,0,0,5.14-57.93,45.06,45.06,0,0,1,26.17-40.52c4.08-1.94,8.31-3.39,12.44-5,8.88-3.41,16.73-8.91,26-11.62,7.92-2.32,8.7-6.36,4-13.61a10.7,10.7,0,0,1-1.11-3.13c-2.22-8.63-2.29-17.4.69-25.68,1.53-4.28.81-6-2.78-8-6.55-3.75-6.54-4.73-4.12-12,1.55-4.61,3-10.17.08-14a45.73,45.73,0,0,0-7.65-8c-2.81-2.23-3.17-4.46-.88-7.5,7-9.32,13.76-18.81,20.61-28.23,1.46.45,2.57.41,2.22-1.63l1.76-2.61c2.71,1.25-.62,3.42.73,4.92,1.52.76,3.53-3.22,4.48.15.5,1.82-1,3.62-3.23,3.86-1.63.18-3.22.6-3.64,2.21-1,4-4,6.82-6,10.23-3.1,5.37-1.5,9,4.69,9.49,4.86.36,10.15-3,14.44,2.07.31.37,2.46-.16,3.09-.86,1.91-2.15,3-1.11,4.48.48a22,22,0,0,0,4.53,3.39c2.09,1.31,3.92,1,3.85-1.8-.13-5.59,5.22-9.18,5.08-14.8,0-1.62,1.8-2.15,3.55-1.87a3.51,3.51,0,0,1,3.14,4c-.27,1.47.23,4.52-2.16,4.47-5.62-.12-3.21,4.53-2.69,5.68,2.69,6,4.48,13.1,13,13.87,1.65.15,3.59,2.68,4.58-.36.62-1.91.3-4.78-2.33-4.95-2.9-.19-1.46-1.33-.85-2.19,1.72-2.42,3.83-.5,5.69-.22,1.56.23,2.94,1.49,2.15,3.29-2.41,5.48,1.68,8.75,4.08,12.57.56.9,2,1.14,2.17,2.46.58,5.16,4.38,5.48,8.29,5.34.92,0,1.84-.51,2.6.21,4.78,4.54,7.92,3,9.88-3.21,1.25,4.37,3.26,5.41,6.74,3.06a39.35,39.35,0,0,1,6-3.2c4.57-2,10.36,0,11,4.43s1.61,9,0,14.2c-2.34-2.89-2-6.54-4.85-8.2-.79-.46-1.62-1.25-2.55-.57s-.67,1.57,0,2.46c3.48,4.85,1.44,9.68-.11,14.46,1.48,1.86,3.54-1.55,5,.53-3.19,6.06-3.21,6.09-8.82,3.28-1.93-1-3.78-2.13-5.28.57-.55,1,1.56,9.16,2.61,9.49,4.62,1.46,2.27,4.14,1.28,6.66-1.33,3.38-4.4,3.23-5.77,1.27-3.14-4.46-8.78-6.31-11.13-11.38-.51-1.08-1.08-2.15-2.4-2-1.61.18-1.38,1.62-1.29,2.67.29,3.32-.21,6.88,2.76,9.44a3.85,3.85,0,0,1,.33,6c-3.11,3.32-2.65,8.18-5.45,11.67-.84,1.06-.33,4.57.85,4.27,7.4-1.86,10.54,6.55,17.22,6.66,2.41,0,5,.93,7.68.89s4.07,4.1,5.94,3.33c3.69-1.52-2.58-3.9-.1-6.61,2.11-2.3-.27-2.06-1.78-1.87-2.33.29-5.85.24-5.34-2.31.77-3.8-1.57-9.64,5-11,1-.2,1.47-1,1.91-1.91.71-1.4-.16-5,2.77-3.49,2.36,1.2,6.5,3.36,5.44,6.26-2,5.47.56,8.24,4,11.34,1.27,1.14,1.1,4.86,3.1,4,4.39-1.89,6,1.77,8.8,3.17,3.32,1.69,6.58,3.37,10.52,3.37,2,0,4.32.84,5.24,2.78,4.08,8.68-2.6,20.66-11.95,21.85-1.84.23-3.58,1.14-5.41,1.54-5.67,1.25-9.79,5.5-14.82,7.75-14.13,6.33-27.29,13.25-34.62,28.09-3,6.1-7.09,11.38-1.26,17.82,1.73-.7,1.58-2.71,2.46-4.08.68-1.07,2.34-2.67,3.07-1.7,2.09,2.81,6.47.46,8.12,4.16.64,1.44,2.76.9,2.94-.69.46-4.09,4.4-3.76,6.41-6.35,1.24,4-4.3,5.08-2.7,7.78,1.36,2.29,5.25,2,6.8,4.78,1.9-1.68,1.34-3.54,1.71-5.13.28-1.21.89-2.15,2.24-2.14a2,2,0,0,1,2,2.31c-.11,2,1.19,4.24-1,5.79-2.7,1.91-2.68,4.86-3,7.65-.2,2-1.46,4.35,1,5.66a5.78,5.78,0,0,0,6.79-1.34c3.46-3.42,8.26-2.69,12.18-4.55.87-.42,2.33-.79,3.15.31s-.31,2.06-.75,3c-.79,1.82-2.72,3.15-2.35,6.2,3.43-3.76,6.65-.93,9.77-.13,2.95.75,4,.5,4.38-2.81.67-6.42,1.73-12.83,6.9-17.55.6-.55,1.68-2,1.81-1.37,1.14,6.19,4.09-1.86,5.63,1-2.09,3.81-4.24,7.88,2.52,9.54v0c-.77,2-2.84,4-.5,6.15,3.84,3.45,4.47,7.08,2,11.67-2.3,4.2-5.65,7.53-8.94,10.87-1.59,1.62-1.55,2.78-.42,4.36,1.49,2.06,2.13.38,3.44-.43,2.92-1.8,6.21-2.57,9.48-.41a13.79,13.79,0,0,0,5.7,2.42c4.39.61,5.74,4.33,5.68,7.58-.09,4.33,2.48,5.73,5.43,6.8,1.84.66,3.48-1.22,5-2.3,1.86-1.35,1.13-2.46-.65-3.29a2.38,2.38,0,0,1,.43-1.39c.89-.82,1.71-.31,2.44.4,3,3,5.23,1.67,7.76-1,4.68-5,8.5-10.89,16.37-12.24,3.05-.52,4.09.63,5.57,2,2,1.94-.2,2.78-1.24,4-2.26,2.61-4.41,5.32-6.58,8-2.14-.49-.83-4.44-4.77-3.53-5.13,1.18-7.06,4.2-8.49,9.47,2.45-1.27,3.79-1.13,6,.13,5,2.92,4.19,8.28,6.55,12.18.9,1.51,1,3.3,3.05,2.79,1.77-.45,2.58-2.08,2.16-4.05-.34-1.64-2.17-4.11,1.32-4.1,2.69,0,2.85,2.15,2.61,4.58-.27,2.81.23,5.67,4.19,5.64Zm-163.66-84.6-.41-1c-1.48-4.16-4.13-7.51-7-10.73-2.6.65,1.37,5-2.91,4.5-.66-.08.18,2.27.39,2.12,5.4-3.64,6.48,2.7,9.65,4.08Zm-15.06-69.45c-.67-1.81-2.31-2.45-3.91-2.93-.77-.24-2.72-.6-1.74,1.39,1.83,3.74-1.92,2.28-2.92,3-1.71,1.19-2.51-.46-3.1-2-.73-1.94-1.27-4.19-2.63-5.59-1.64-1.68-3-4.78-6.85-1.88-1.79,1.33-5.94,0-8.81-.81-1.67-.48-1.65-2.27,0-3.52,1.26-.94,3.11.15,4.79-2.24-2.71-.5-4.21-2.69-7.51-.69-3,1.84-6.55-.38-9.39-1.51s-2.56-.9-2.6,1.76c0,2,2.52,6.16-3.57,5.54-1.54-.15-3.66,5.52-5.78,8.94.53-4.07-2.1-3.21-4-2.55-2.6.92-5.86,2.23-5.46,5.45.29,2.32-1.35,7.42,5.15,5.7,2.92-.77,2.64,2.76,1.62,5-2.55,5.65-1.58,6.83,4.61,8.1,2.25.46,9.11-1.19,5,5.74-.59,1,1.23,1.62,2.14,2.2,3.3,2.1,6.81,3.94,9.82,6.39,1.61,1.31,3,1.63,4.6,1,7.46-3.15,13,1.89,19.16,4.37,1.81.73.37,2.22-.24,3.31l-.42,0,.39-.05c3.56,3.67,7.93,1.16,11.63.89,5.82-.41,11.41-1,17.05,1,1.88.65,2-1.07,2.28-2.35,1.13-5-2.21-12.28-7.11-13.87-6.44-2.09-12.1-6.94-19.5-5.77l-7.64.13a1.8,1.8,0,0,0-2.66-.53l-1.78-1.1c-5.22-2.79-9.47-6.43-11.88-12.08-1.43-3.35-.71-6.68,1.8-8.07,2.33-1.29,5.17-.32,7.35,2.94,3,4.43,7.34,8,13.52,7.24,1.7-.2,3.71-.54,4.7,1,4.2,6.74,10.79,10.75,17.54,13.87,6,2.79,6.77,9.57,11.85,12.79,3.11,2,5.19,5.31,8.68,7,1.88.9,3.6,2.55,5.44.23,1.68-2.11,2-5.56.44-6.72-7.34-5.64-12.08-13.66-18.92-19.69-3.14-3.85-8.5-5-11.31-9.23,4.9-2.27.65-5.56.92-8.34-3.16-.2-4.93-5-8.85-2.69ZM33.71,429c-.85-1-2.85.08-3.77,1.46-1.09,1.64-.17,2.47,1.11,3.66,5,4.64,10.33,4.24,16.08-1.73-1.86-1.22-3.44-.6-5,.34l.11,0C40,430.18,36.07,431.74,33.71,429Zm215.93-674c-3.11,1.52-5.06-1.37-8-4,.59,4.55-1.5,7.83,0,11.42a2.61,2.61,0,0,1,.12,2.07c-4.39,6.18,2.73,6.51,4.93,8.32,2.4,2,5.2-.94,5.44-3.67.34-4,2.79-6.91,4.13-10.36a8.81,8.81,0,0,0,1.69,3.93c1.52,1.74,3.14,5,5.22,3.24,3-2.46-.95-4.87-1.94-7.16-1.3-3-3.35-2.3-5,.12C256.26-247,255.1-247.6,249.64-244.95ZM134.73-135.34c-2,2-.76,5.3.87,6.67,2.85,2.39,1,3.88.32,6.19-.93,3-5.5,6.87,1.08,9.4,1.07.41.73,2.93-.4,4.06-1.3,1.29-1.28,3.74-1.9,4.24-5.54,4.43,0,12.67-6,16.71a1.7,1.7,0,0,0-.49.89c5.8,4.49-.76,8-1.17,12-.47,4.53.47,9-.47,13.5-.49,2.35-1.51,4.44,2.13,5.81,2.75,1,1.22,5,3,8.63,2.49-5,6.69-7.84,6.06-13.31-.05-.43.41-1.28.75-1.35,7.47-1.63.16-6.66,2.18-9.55.15-.2-.26-1.24-1-.7-4.57,3.17-3.31-1.15-3.57-2.94s-.81-4.81,1.43-4.52c1.85.25,6.38-1.27,5.6,4,5.4-6.29,4.95-7.85,1.34-17.54-1.22-3.28.13-7.73-1.73-11.39,5.76.15,2.29-6.32,5.66-7.88.92,11.71,4.52,23,5.34,34.75.08,1.19-.65,3.31,2.14,3.85s2.84-1.36,3.6-2.59c2.77-4.46,5.39-9,10.13-11.76,3.94-2.27,4.71-6.35,6.26-10.11,4-9.76,8.33-19.4,12.54-29.07.44-1,1.48-2.09,0-2.85-1.9-.95-3.39-3.54-5.81-2.54-8,3.3-16,2.13-24.14,1-8.53-1.22-11.42,1.5-11.24,10a5.36,5.36,0,0,1-.49,1.62c-4.16-2.37-3.29-6.53-2.36-9.64,1.8-6-2.28-8.57-5.16-12.84-1.78,3.95.52,6.35.82,9l.1,0C138.09-133.72,136.74-137.35,134.73-135.34ZM202.06-28.72c1.32,2.3-.74,3.76-1.56,5.56-.34.76-.36,1.56.46,1.93,1.38.63,1.64-.42,1.61-1.4,0-1.34-.28-2.68.74-3.77,1.55-1.67,3.58-2.72,5.5-1.23s2.14,3.69,0,5.31c-1.89,1.43-3,3.25-4.42,5.93,3.43-.81,5.6-2.07,7.28-4.58a15.87,15.87,0,0,1,5-5.31,3.51,3.51,0,0,1,4.21.17c1.81,1.32.82,2.56,0,3.89-1.55,2.61-3.12,5.12-5.93,6.69-4.29,2.41-7.21,6.27-11.41,11.24,6.1-.9,10.43-1.77,13.63-5.62,1.08-1.3,1.81-3.38,3.16-3.91,7.57-2.94,11.87-8,12.36-16.32.13-2.06,1.7-4,4.08-.86,1.7,2.25,4.64.69,7,.94,1.51.15,2.36-1.8,1.72-3.47a3.49,3.49,0,0,0-1.81-2C236.16-37.68,234.28-46,228-49.83c-2.25-1.35-2.33-2.56-4.87-.52-4.79,3.82-8.07,2.79-11.52-2.67a17.84,17.84,0,0,0-1.49-2.24c-4.93,2.55-5.61-1.55-7.1-4.41a1.33,1.33,0,0,0-.93-.59c-2.53-.11-3.63,4.59-6.91,2.07a31.31,31.31,0,0,0-.55,6.27c-.25,4.56,2,9.05.17,13.64-2.52,6.18-2,6.69,4.57,6.19-.22,3.23-2.16,5.54-3.89,8-.88.17-2.19-2.75-2.56.16-.21,1.73,1.13,3.74-1.33,4.87-2-1.15-.93-3.09-1.22-4.62-.79-4.29-4.36-6.08-8.07-3.95a9.11,9.11,0,0,1-3,1.51c-2.21.25-4.31-.37-2.93,3.46.76,2.1-2,3.23-4.91,2.07-1.37-.54-2.13.11-2.85,1.06-4.17,5.47-9,10.48-11,17.33-.7,2.37-1.22,4.71,1.11,6.1,2,1.2,3.73-.5,4.72-2.06,2.46-3.86,8.05-1,10.52-5.18.54-.9,1.3,1,1.55,2.11.44,1.93.05,4.68,2.65,5.1s1.87-2.73,3.11-4c5-5.28,10.71-10,12.74-17.62a58.12,58.12,0,0,0,1.51-6.42C199.1-23.63,198.23-29.56,202.06-28.72Zm-96,429c-3,4-8.53,6.16-9.63,11.13-1.17,5.26-4.84,8.73-6.94,13.13-3,6.29-7.94,8.23-13.86,9.06-3.39.47-5.82,1.41-7.71,4.64-1.52,2.58-4.51,2.5-7.73,3-6.86,1-13.65-2.51-20.31.53a7,7,0,0,1-6.68-.7c-.34,2.45,1.22,3.63,2.42,3.73,3.2.27,4.55,1.1,3.14,4.52-.57,1.39.32,1.93,1.89,1.41a22.58,22.58,0,0,1,4.9-.94c2.14-.18,3.53.94,4.36,2.92.94,2.26.07,3.78-2,4.48-4.95,1.66-3.63,6-4.27,9.54-.14.78.82,1.08,1.6,1.25,5.08,1.08,7.94,8.54,14.67,5,3.32-1.74,6.69-3.82,9.41,1.27.46.87,3,1.21,5.15.19,1.19-.57,4.82-4.65,6.14.67,1.1-.43,2.57-.56,3.2-1.36.85-1.09.08-2.14-1.38-2-1.07.12-1.9,0-2.26-1.05-.45-1.37-.28-3.22.9-3.57,4.12-1.18,3-8.52,8.15-7.39,3.24.7,6.5,3,8.87,5.47,2.08,2.15-1.63,4.16-1.64,6.46,5.41-2.34,7.12-11.47,2.67-15.49-2.56-2.31-4.14-6.43-9.23-4.09-1.68.77-1.46-1.85-1.07-3.35,1.89-7.18,4.73-14,5.92-21.52.82-5.11,4.47-9.86,9.44-12.83,1.71-1,3.91-1.3,4.89-3.48.4-.89,2.33-1.05,2.22-.41-.84,4.8,5.5,2.16,5.77,5.78.08,1.07,1.19.33,1.76,0a25.49,25.49,0,0,1,5.72-1.78c6.4-1.64,7-3.63,1.3-7-.4-.24,1-2.83-1.42-1-2.68,2.09-5.79,4.32-9.78,1.87-5.56-3.41-6.47-6.4-3.2-12.05,1-1.69,2.5-3.2,2.41-5.83C109.51,392.82,108.45,397.11,106.06,400.25ZM69.22,132c-4.44.56-3.18,5.22-3.14,8.51a2.05,2.05,0,0,0,2,2.28c7.19,0,2.91,3.07,1.29,5.17-1.15,1.47-3,2.45-3.9,4-1,1.8.8,3.56,1.68,4.91.75,1.16,3.26,2,4.57.63,2.9-3,5.2-2.23,7.63,1.22,2.23-4.68.76-8.08-1.47-11.43-.93-1.4-2.22-3.21-.36-4.52,2.25-1.59,2.69,1,3.66,2.21,3.46,4.17,5.42,9.37,9.2,13.35,1.85,1.95.77,4.28.1,6.43-.84,2.63-.25,5.39,2.23,5.9s5.57.18,5.43-4.26c-.1-3.09,2.12-6.08,1.32-9.38-.65-2.75.39-6.3-4.61-6.67-2.18-.16-2.54-3.74-2.89-6.06-1-7-6.46-11.9-8.46-18.41a1.64,1.64,0,0,0-2.23-1.16c-1.87.63-2.38,2.13-2.62,4-.51,4.05-1.3,8-5.72,11.17C72.77,135.92,73.05,131.52,69.22,132Zm39-79.45c.45-2.35.43-3.47-1.92-4.25-1.78-.6-4-1.12-5-2.46-2.1-2.87-4.11-2.28-6.14-.52-2.43,2.11-1.89,5-.47,7.21,1,1.54,2,3.14,3.1,4.61,1.28,1.69,1.44,2.21-.88,2.89-1.43.43-1.64,8.82-.3,9.62,2.58,1.57,3.65-.6,5.32-2.92C100.35,60.94,107.14,58.13,108.18,52.55ZM236.43-77.73c-6.92-4.77.17-11-3.2-15.43-6,2.3-8.1,7-5.76,12.85,1.6,4,2.57,8.22,4.27,12.15.66,1.51,2.54,2.5,4.08,3.93C238.58-69,238.36-76.4,236.43-77.73ZM104.24,108.78c1.51-.79,1.68-2.93,1.28-4-1.65-4.61.17-6.73,4.5-7.78a2.75,2.75,0,0,0,2.15-3.5c-.66-2.07-1-4.57-3.78-5.22-1.85-.44-2.73.69-3.63,2-2.09,3.06-3.71,6.26-7.53,8.11-3.24,1.57-1.53,7.13,2.7,9.72C101.3,108.81,102.85,109.52,104.24,108.78ZM211.55-192.75c1.49.13,1.91,1.23,1.27,2.43-1.5,2.78.87,3.59,2.41,3.85a3.84,3.84,0,0,0,4.58-3.07c1-5.49-2.29-10.4-2.57-15.78-.05-1.05-1.61-1.09-2.32-.48-2,1.7-3.75,3.59-5.87,5.65C209.75-197.75,204.27-193.42,211.55-192.75Zm18.85-49.34c1.42-4.83,4.16-6.89,7.57-9.17-1.54-3.06-4.61-2.62-6.87-3.72a2,2,0,0,0-2.95,1.65c-.56,3.92-3.28,9.35-2.5,11.1,3.08,6.94-4,8.56-5.13,13.4C228.61-229.92,229-237.43,230.4-242.09Zm-38.51-17.84a100.22,100.22,0,0,0,12.72,2c1.58.13,5,.21,4.64-1.77s-1.11-5.53-4.55-5.48a16,16,0,0,1-8.57-2c-3-1.74-3.62,2.52-5.74,3C188.62-261.78,189.66-260.39,191.89-259.93ZM148.44-7.34c-2,.86-2.63,3.84-5.88,3.29-1.66-.29-1.5,1.51-.86,2.93,1.12,2.48,2.05,5.06,3.07,7.6,3.85-5,9.1-9.13,9.84-16.16C151.4-11.76,150.42-8.2,148.44-7.34Zm34-60.18c1.23-2.18,1.6-2.68-1-3.89-3.38-1.58-6.16-.59-9.07.7-.6.27-1.43,1.51-1.31,1.66,4.73,6.17-4.39,6.16-4.41,11.38C172.82-60.11,178.93-61.3,182.42-67.52Zm148.89,29.9c4.4.37,8.4-2.14,12.85-1.59a1.6,1.6,0,0,0,1.52-2.37c-1.33-2.23-3.23-5.66-5.65-4.65-3.41,1.42-8.25,1-10.12,5.66C327.41-38.38,328.62-37.84,331.31-37.62Zm-376.1,476.4c-2.05.24-4.1,1-4,3.82.08,2.43,1.85,2.77,3.66,3.5,4.06,1.64,7.67-1.1,12.7-.34C-36,440.56-39.73,438.19-44.79,438.78ZM114.39,168.52c-.64-.54-1.1-1-1.78-.46s-.77,1.57-1,2.49c-.85,3.4,1.63,5.93,2.11,9s1.84,5.95,2.89,9.16C120.44,182.65,119.14,172.47,114.39,168.52ZM100,176.94c0,.13.26.41.36.39.7-.1,1.58-.05,2-.46,3.35-2.93,6.8-5.92,4.61-11.13-.81-1.93-2.73-1.8-4.4-1.75-.61,0-1.2.73-1.84,1.15C100.45,169.18,100.19,173.06,100,176.94Zm93.56,199.6c-2.24-4.53-4.86-4.65-8.08-1-.51.57-.91,1.88-.34,1.81,3.87-.52.33,6.68,4.78,4.67a16.48,16.48,0,0,1,8.07-1.45C196.23,378.71,194.43,378.4,193.51,376.54ZM-5,14.29c-.14,1.85-.83,3.78,1,5.22a1.53,1.53,0,0,0,2.43-.3C-.5,17.39,3,17.06,2.06,14.14S.88,8.13.35,4.94C-2.54,7.78-4.72,10.55-5,14.29ZM97.29,404.19c-4-2.17-10,2.2-16.59,12.23C87.39,412.89,92.34,408.61,97.29,404.19Zm53.2,41.26c.95,1.95,3.83,1.74,5.61,1.3,2-.51,5.81-1.59,1.51-4.67-1.33-.95-1-1.93.21-2.58,1.85-1,2.58-3,1.31-4.12-1.76-1.49-3.34.3-4.47,1.87-.66.91-1.29,1.85-2.14,3.06C151.76,441.78,149.55,443.54,150.49,445.45ZM-.06,399.15c.07-1.18-.49-3-2.09-2.88-2.16.22-1.72,2.62-1.32,3.59,1,2.42-.36,5.19,1.6,7.49.92,1.07-.47,3.95,1.84,4.1,3,.21,1.09-2.57,1.55-3.88.68-1.92,2.95-.59,3.75-3.07C1.82,404.1-.3,402.79-.06,399.15Zm116.2-19.44c-.65,1.69-.76,3.9,1.08,5.18,1.16.81,2.15-.39,2.88-1.15,1.47-1.52,2.87-3.21,1.37-5.47s-2-5.22-2.55-8.07C115.38,372.73,117.32,376.65,116.14,379.71ZM239.43-46.83a3.16,3.16,0,0,0,.13,2.14c.76,1.15,1.53.26,2.3-.24,2.37-1.57,5.18-2,8.67-2.76C244.65-52.65,240.57-52.11,239.43-46.83ZM44.44,53.78c-.95-.72-3.55.9-4.29,2.83a2.13,2.13,0,0,0,1.62,3.06c2,.27,4.07.36,6,2.69C48.83,57.67,46.57,55.4,44.44,53.78ZM138-168.86c2,2.17,4.66,1.09,6-.42s.38-4-1.26-5.37c-2.29-1.85-4.62-.47-6.74.47C134.35-171.42,136.73-170.23,138-168.86ZM125,141.57a1.93,1.93,0,0,0-1.8-2.38,2.65,2.65,0,0,0-1.81,1.83c-.34,3.45-.41,6.92-.57,10.39C124.13,148.6,123.81,144.84,125,141.57Zm-13.41-34a2,2,0,0,0-1.87-2.3c-1.11-.09-1.69.77-1.81,1.72-.39,3.26-3.66,7.46,3,8.74C111.22,112.7,111.47,110.12,111.62,107.54Zm16.84,279.52c-.15-1.06.55-2.45-1-2.72-1.29-.24-1.93,1.1-2.36,2.08-1,2.2-1.75,4.48-2.61,6.73C124.21,390.88,129.11,391.42,128.46,387.06ZM238-200.09c.35-.64-1-1.3-1.6-1.07-3.14,1.1-1.09,4.14-2.86,6.09C238.14-194.73,237-198.27,238-200.09ZM190.2-2.28c1.21-1.25,3.78-1.4,3.4-3.89-.07-.46-1.14-1.06-1.77-1.09-2.48-.12-2.61,2.31-3.68,3.71-.42.55-.89,1.25.14,2.59A11.74,11.74,0,0,0,190.2-2.28Zm22.49-249.8c.67-.51,1.17-1.29.57-1.83-2.21-2-4.54.19-8.28-.63C208.21-251.87,210-250,212.69-252.08Zm-101,673.66c1,.73,1.57-.37,2-1.11.8-1.29.12-2.08-1.07-2.45a1.83,1.83,0,0,0-2.35.78A3,3,0,0,0,111.67,421.58ZM87.85,462.43a2,2,0,0,0,.46-.14c-.11-.09-.22-.26-.33-.26s-.27.14-.4.22C87.67,462.31,87.76,462.43,87.85,462.43Z" fill="#1c2d28"/>
        <path d="M383,306.49c-1.78,5-4.8,8.32-10.65,8-4.61-.24-10.13-1.26-12.75-3.81-8.87-8.59-20.26-13.19-29.73-20.72-17.67-14.05-37.13-25.56-56-38-4.53-3-9.12-6.44-15.7-8.05,2,2.11,3.61,3.14,4.17,4.59,2.12,5.5,6.94,8.59,11.46,11,6,3.18,10,8.25,14.68,12.67,2.68,2.54,7.5,5.75,7.26,8-.54,5.2-.26,10.54-1.37,15.69-.22,1-.21,2.7-1.72,2.42a6.56,6.56,0,0,1-3.26-2.11c-1.21-1.31.33-1.81,1.07-2.57,3.34-3.45,2.38-5.87-1.75-7.8s-8.05-4.21-12.15-6.18c-1.66-.81-3.13-2.82-5.7-1.58.39.72.51,1.39.88,1.59,4.11,2.27,7.19,4.53,1.41,8.54a2,2,0,0,0,.57,3.69c7.71,2.24,9.11,8.48,10.5,16.38-1.88-2.47-2.89-4-4.12-5.35s-1-4.56-3.51-3.55c-2.25.89-2.69,3.81-2.94,6.12-.12,1.17.91,2.47.26,3.82s-2,2.69-2.9,1.16c-1.91-3.39-6.35-6.25-5.33-10.2,1-3.71-.19-5.67-1.95-8.35s-2.61-5.73,2.71-4.52c.81.18,1.48.55,1.57-.6s0-2.89-1-3c-4.4-.53-7.95-4.16-12.65-3.38l.13,0c-3.41-1.27-7,2.38-10.77-.66,2.15,3.23,1.87,4.71-2,5.8-4.39,1.24-4.42,2.52-1.52,5.35.37.36.78,1.09.65,1.47-1.14,3.45-.86,7.89-5.26,9.32a36.56,36.56,0,0,0-13,7.84c-1.51,1.34-3.71,3.87-4.17-1a2,2,0,0,0-3.34-1.67c-3.56,2.21-7.93,5.06-8.09,8.91-.29,7-6.39,8.42-9.31,12.82-.4-3.82,1.35-7.23-.78-11-.93-1.64.17-6.39,1.59-7,5.75-2.63,5.06-7.56,5.59-12.18,1.48-12.7,3-25.15,11.24-36,7.51-9.91,7.85-21.86,7.2-34-.78-14.32-4.67-28.06-6.78-42.12-.83-5.51,1.07-7.65,6.44-6.67,3.08.56,3.22-.33,3.7-3,1.17-6.49.72-12.83-2.36-18.46-2.18-4-3.67-8.73-7.85-11.31-1.62-1-4.84-.38-4.47-3.19.28-2.08,3.2-1.39,4.84-2.16s3.15-1.07,4.79.13c1.35,1,3,2.28,3.77-.7a1.36,1.36,0,0,1,2.15-1c5.46,2.77,12.09,3.12,16.2,8.67a25,25,0,0,0,19.39,10.5,7.18,7.18,0,0,1,5.47,2.72c2.24,3.24,7.08,4,7.83,8.52.66,3.95,6.85,4.82,5.67,9.55-1.89,7.56,8.14-.62,7.16,5.6-.1.68,1.27,1.48,1.43,2.32a9.82,9.82,0,0,0,6.54,7.73c7.57,2.24,6.67,12.46,14.29,14.29.31.08.6,1,.59,1.52-.17,6.49,3.71,4.31,6.73,2.94,2.83-1.28,6.16-3.29,8.51-1.27,3.64,3.11,6.29,7.39,9.35,11.17-.27.45-.55.9-.83,1.34-6.44-3.14-13.21-2.84-20-3-3.92-.09-7.1,1.43-6.33,4.74.69,3,.38,4.28-1.75,6.06-4.07,3.38,3.4,4.84,1.56,8.14-.5.9.75,1,1.45.69,5.58-2.9,5.11,5.09,9.09,5,0,3.8,3,5.77,5.43,7.49,4,2.79,8.59,6.63,12.82,6.49,3.88-.13,7.22.14,9.82,2.2s4.37,2.33,7.17,1.44c2.41-.77,5.53-.79,6.74,1.56,3.87,7.56,11.47,6.92,17.71,7.4a14.76,14.76,0,0,1,6.92,2.36c2.8,1.61,5,3.83,8.72,4.37s7.77,2.58,9.34,6.95C397.71,294.66,389.13,299.21,383,306.49ZM227.82,283.38c-.82-.1-1.49.28-1,1.31.37.85.7,1.94,1.83,1.91,2.28-.06,5.33-.08,5.55-2.73.21-2.49-1.14-5.26-4.38-4.76C227.81,280.6,235,284.27,227.82,283.38Z" fill="#1c2d28"/>
        <path d="M10.69-22.62c4.14-2.23,8.82-3.7,12.46-6.53a21.49,21.49,0,0,1,16.42-4.47c8.07.9,16.13,1.89,24.2,2.84,3.27,1.53,6.41,3.11,8.76,6.08C79.08-16.44,80.32-6.6,81,3.35c.13,1.84-1.89,5.5-2.06,5.45-5.22-1.55-6.11,3.06-8.07,5.8-2.26-1.25,2-3.5-1-4.12-1.34-.28-4,.44-3.87,1.51,1,6.44-2.92,12.51-1.25,18.82.46,1.74-1.77,5,2.3,5.23,1.16.07,2.2.19,2.94-1.06,1.89-3.2-3-3-2.57-5.88,2.35.59,3.7-2.13,7.26-.47a106.26,106.26,0,0,1,14.68,8.81c5.65,3.8,4.89,6.14,2.81,10.65-.85,1.86-1.08,4-2.66,5.52-.93.87-1.94,1.79-3.5,1.4-6.48-1.59-6.94-1.22-6,4.78-5.28-2.51-11.2-2.06-16.83-3.88-10.62-3.44-18.73-11.16-19.29-22.1-.17-3.48,2.33-7.29-4.61-9-3.72-.9-5.63-.25-6.47,1.59C30.27,32,26.88,38,27,43.78c.1,7.84.7,16.19,5.94,23.23,2.62,3.53,5.19,7.33,6.57,11.68.35,1.12,1,2.44-.11,3.11-1.28.79-1.77-.63-2.42-1.54-3.5-4.82-7.65-8.41-14.19-6.46-1.91.56-2.83-.58-3.9-1.59-3.26-3.08-5.38-6.74-5.35-11.35,0-7.37-4.23-13.56-5.56-20.56-.32-1.68-1.17-2.23-3.27-1.79-3,.63-3.22-1.13-2.32-3.79,2.42-7.18,7.59-12.48,12.59-17.63,2.61-2.68,4.35-4.86,4.15-8.54C19,7,21,4.84,19,4s-2.41,1.89-3.11,3.29C13.78,11.45,11,8,9.15,7.5c-2.69-.66-1.07-2.74.19-4.34A26.59,26.59,0,0,0,15.07-12.6C7.45-10.76,7.57-1.2-.25,1.21A35.21,35.21,0,0,1,5.32-9.74a9.71,9.71,0,0,0,1.11-9.4C7.1-21.2,9.08-21.76,10.69-22.62ZM52.83-24c-1.07,1.73-1.39,2.14-1.6,2.61-.51,1.17,1.66,3.49-1,3.53-2.19,0-2.15-2-1.77-3.86.27-1.31,1.21-3.14-1-3.75-1-.28-2.16-.85-3.19.1,2.39,1.74-1.48,4.07.54,5.85a21.84,21.84,0,0,1,3,2.61c2.73,3.51,6.88,6.48,4.11,12-.56,1.15-.72,3.6,1.25,4.42,1.66.69,2.18-.94,2.74-2.12a5.21,5.21,0,0,1,.4-1.05C57.4-5,60.52-.35,60.57-5c0-2.24-1.8-3.68-2.68-5.53-1.3-2.74.34-4.67,1.92-6.61,2.73-2.18,5.58-3.2,9.11-1.72,1.08.45,3,.18,3-1.65,0-1.42-1.43-1.39-2.57-1.58-4.53-.78-8.76-3.11-14.33-2.59,3.28,1.9,4.39,4.6,4.86,7.64C56.62-17.94,53.18-18.54,52.83-24ZM51.2-28.13c.35.18.88,0,1.33,0-.17-.44-.22-1-.54-1.27s-.89-.09-1.7-.14C50.71-28.86,50.86-28.32,51.2-28.13ZM71.26,8.52c.17-.06.41-.08.47-.19s-.07-.33-.12-.49L71.12,8C71.17,8.19,71.22,8.35,71.26,8.52Z" fill="#9bb0aa"/>
        <path d="M306.09,140.91c1.1-1.94,2.79-3.62,2.36-6.19-.23-1.4.09-2.88,1.82-2.9,1.37,0,2.32.82,2.5,2.49.56,5.08,1.23,10.14,2,15.19a20.38,20.38,0,0,0,1.33,3.66c.66,1.83,1.45,4,3.79,3.24,2.14-.72,1.95-2.93,1.42-4.88-.29-1.07-1.08-2.63-.65-3.18,5.59-7.18-1.08-12.19-3.82-17.09-1.82-3.25-6.67-5.14-8.56-9.16-2,1.43-1.14,2.62-1.25,3.66s-.32,2-1.44,2.15c-1.38.22-1.9-.64-2.21-1.92-.62-2.55-.15-6.91-4.67-2-1.24,1.37-5.81-.31-8.92-.59-.17,2,2.41,3,1.49,5.28A1.75,1.75,0,0,0,293.1,131c8.32-1.82,9.85,5.13,13.08,9.9Z" fill="#fefefe"/>
        <path d="M254.57,280.38c-5.83,2.1-5.78,8.29-8.77,12.16a34.35,34.35,0,0,0-5,9.72c-1.59,4.3.44,11.48,4.17,13.79,1.46.92,2.88,2.25,4.85,0,2.59-2.89,2.1-8.6,7.77-8.7-.06-2.3-.43-4.57-2.4-6-4.35-3.2-4.24-6.37-.7-10.26,5.49-6,5.35-7.54,0-10.7Z" fill="#1c2d28"/>
        <path d="M187.77,298.63c9.47-3.76,13.52-9.71,12.87-18.66-.11-1.52-.45-2.52-1.82-3.12-3.28-1.43-7.11,2.48-10.37-1-.24-.25-1.34,2.23-1.26,3.8C187.54,286,186.5,292.35,187.77,298.63Z" fill="#1c2d28"/>
        <path d="M194.88,66.41c-5.88-3.88-12.8-4.16-19.39-5.53-.45,1.91.16,2.7,2.25,2.5,1.14-.11,2.36.63,2,2s-1.57,1-2.73.72c-5.18-1.5-9.31-.06-12.21,4.59v-.07c3.06,2.53,6.57,4,10.37,2.38,6.2-2.64,12.37,2.19,18.86-.63C191.58,70.16,192,68,194.88,66.41Z" fill="#fefefe"/>
        <path d="M189.91,271.64c3,2,6.34-.23,8.41-3.07,4.54-6.21,1.05-12.54,1.34-18.77,0-.75-.42-1.66-.12-2.21s1.28-1.07,2-1.58c-.25-.24-.45-.57-.74-.68-1-.41-2.21-1.19-3.16-1-1.62.33-1.49,2-1.32,3.28.62,4.7-2.58,8.11-4,12.11-1,2.65-2.15,5.22-3.09,7.88A3.73,3.73,0,0,0,189.91,271.64Z" fill="#1c2d28"/>
        <path d="M441.48,48c-1.05,1.82-.28,3.17.68,4.34,2.4,2.93,3,6.71,3.11,10,.08,3.56,1.65,5.91,3.31,8.49.79,1.23,1.64,2.83,3.54,1.82a3.38,3.38,0,0,0,1.56-4.83c-3.14-6.13-4.81-12.94-8.64-18.74C444.14,47.72,443.21,45.8,441.48,48Z" fill="#1c2d28"/>
        <path d="M331.52,180.81a35.59,35.59,0,0,0,8.49,3.71c1.65.39,2.86.89,3.72-.88s0-3.22-1.59-4.23a15,15,0,0,0-6.42-1.83c-.92-.12-1.87,0-2.79-.09-2.2-.21-4.42-4.4-6.05-1.47C325.59,178.35,330.28,178.62,331.52,180.81Z" fill="#fefefe"/>
        <path d="M352.67,116.75a44.27,44.27,0,0,0,22.92,1.12C368.09,115,360.32,116.87,352.67,116.75Z" fill="#1c2d28"/>
        <path d="M200.4,101c4.51-2.63,9.77-2,9.18-6.9-.38-3.22-4.87-3.74-7.1-2.78C197.79,93.31,203.8,97,200.4,101Z" fill="#fefefe"/>
        <path d="M421.52,181.67c-2.52-1.1-4.77-1.27-6.28.83a25.53,25.53,0,0,1-9.28,8.24c-.71.35-1.29.89-.88,1.75s1.35,1.1,2.37.94c2.35-.36,4.74-1.58,5.61-3.34C415,186.28,418,183.94,421.52,181.67Z" fill="#fefefe"/>
        <path d="M191.58,300.48c-1.06,3.12-1.07,6.2,1.16,8.39,1.36,1.34,3-.4,3.18-1.84.26-2.93,4.47-5.67,1.23-8.52C195.25,296.83,193.06,298.9,191.58,300.48Z" fill="#1c2d28"/>
        <path d="M306.18,140.89c-1,1.4.23,2.88-.16,4.34-.35,1.29-2.41,2.69-.58,3.86,1.4.88,3.5.23,4.72-.85,1.75-1.54-.17-3.14-.8-4.43s-2.14-1.95-3.27-2.9Z" fill="#fefefe"/>
        <path d="M205.16,231.89c3.46-4.06-.43-6.14-1.67-8.74a1.92,1.92,0,0,0-1.44.24c-.78.73-.93,2-.11,2.46C204.23,227.1,204,229.67,205.16,231.89Z" fill="#1c2d28"/>
        <path d="M259.34,294.13c-.14,2.22,1.91,3.36,2.85,5.05a1.23,1.23,0,0,0,2.24-.16c1.21-2.64-1.83-3.2-2.68-4.87C261.37,293.41,260.28,293.05,259.34,294.13Z" fill="#1c2d28"/>
        <path d="M158,290.66l4.08-5.2C158.4,285.58,157.46,287.61,158,290.66Z" fill="#1c2d28"/>
        <path d="M164.78,70.72l-.71.14c.11,0,.25.14.33.11a1.58,1.58,0,0,0,.37-.32Z" fill="#fefefe"/>
        <path d="M78.69,128.72c.24-1.84.75-3.34,2.62-4a1.64,1.64,0,0,1,2.23,1.16c2,6.51,7.41,11.44,8.46,18.41.35,2.32.71,5.9,2.89,6.06,5,.37,4,3.92,4.61,6.67.8,3.3-1.42,6.29-1.32,9.38.14,4.44-3.05,4.74-5.43,4.26s-3.07-3.27-2.23-5.9c.67-2.15,1.75-4.48-.1-6.43-3.78-4-5.74-9.18-9.2-13.35-1-1.16-1.41-3.8-3.66-2.21-1.86,1.31-.57,3.12.36,4.52,2.23,3.35,3.7,6.75,1.47,11.43-2.43-3.45-4.73-4.19-7.63-1.22-1.31,1.34-3.82.53-4.57-.63-.88-1.35-2.66-3.11-1.68-4.91.87-1.58,2.75-2.56,3.9-4,1.62-2.1,5.9-5.13-1.29-5.17a2.05,2.05,0,0,1-2-2.28c0-3.29-1.3-7.95,3.14-8.51,3.83-.48,3.55,3.92,3.75,7.89C77.39,136.75,78.18,132.77,78.69,128.72Zm16.78,39a1.74,1.74,0,0,0-.65-2.42c-.79-.51-1.48-.36-1.68.54a2.29,2.29,0,0,0,.58,2.56C94.61,168.94,95.16,168.33,95.47,167.68Z" fill="#9bb0aa"/>
        <path d="M195.46-24.14c-.88.17-2.19-2.75-2.56.16-.21,1.73,1.13,3.74-1.33,4.87-2-1.15-.93-3.09-1.22-4.62-.79-4.29-4.36-6.08-8.07-3.95a9.11,9.11,0,0,1-3,1.51c-2.21.25-4.31-.37-2.93,3.46.76,2.1-2,3.23-4.91,2.07-1.37-.54-2.13.11-2.85,1.06-4.17,5.47-9,10.48-11,17.33-.7,2.37-1.22,4.71,1.11,6.1,2,1.2,3.73-.5,4.72-2.06,2.46-3.86,8.05-1,10.52-5.18.54-.9,1.3,1,1.55,2.11.44,1.93.05,4.68,2.65,5.1s1.87-2.73,3.11-4c5-5.28,10.71-10,12.74-17.62a58.12,58.12,0,0,0,1.51-6.42Z" fill="#9bb0aa"/>
        <path d="M101.88,66.73c-1.53-5.79,5.26-8.6,6.3-14.18.45-2.35.43-3.47-1.92-4.25-1.78-.6-4-1.12-5-2.46-2.1-2.87-4.11-2.28-6.14-.52-2.43,2.11-1.89,5-.47,7.21,1,1.54,2,3.14,3.1,4.61,1.28,1.69,1.44,2.21-.88,2.89-1.43.43-1.64,8.82-.3,9.62C99.14,71.22,100.21,69.05,101.88,66.73Z" fill="#9bb0aa"/>
        <path d="M99.93,108.09c1.37.72,2.92,1.43,4.31.69s1.68-2.93,1.28-4c-1.65-4.61.17-6.73,4.5-7.78a2.75,2.75,0,0,0,2.15-3.5c-.66-2.07-1-4.57-3.78-5.22-1.85-.44-2.73.69-3.63,2-2.09,3.06-3.71,6.26-7.53,8.11C94,99.93,95.7,105.49,99.93,108.09Z" fill="#9bb0aa"/>
        <path d="M154.61-9.68c-3.21-2.08-4.19,1.48-6.17,2.34S145.81-3.5,142.56-4c-1.66-.29-1.5,1.51-.86,2.93,1.12,2.48,2.05,5.06,3.06,7.6C148.62,1.48,153.87-2.65,154.61-9.68Z" fill="#9bb0aa"/>
        <path d="M116.61,188.71c3.83-6.06,2.53-16.24-2.22-20.19-.64-.54-1.1-1-1.78-.46s-.77,1.57-1,2.49c-.85,3.4,1.63,5.93,2.11,9S115.56,185.5,116.61,188.71Z" fill="#fefefe"/>
        <path d="M100.72,165.14c-.27,4-.53,7.92-.77,11.8,0,.13.26.41.36.39.7-.1,1.58-.05,2-.46,3.35-2.93,6.8-5.92,4.61-11.13-.81-1.93-2.73-1.8-4.4-1.75C102,164,101.36,164.72,100.72,165.14Z" fill="#9bb0aa"/>
        <path d="M.35,4.94C-2.54,7.78-4.72,10.55-5,14.29c-.14,1.85-.83,3.78,1,5.22a1.53,1.53,0,0,0,2.43-.3C-.5,17.39,3,17.06,2.06,14.14S.88,8.13.35,4.94Z" fill="#9bb0aa"/>
        <path d="M47.74,62.36c1.09-4.69-1.17-7-3.3-8.58-.95-.72-3.55.9-4.29,2.83a2.13,2.13,0,0,0,1.62,3.06C43.82,59.94,45.84,60,47.74,62.36Z" fill="#9bb0aa"/>
        <path d="M120.85,151.41c3.28-2.81,3-6.57,4.18-9.84a1.93,1.93,0,0,0-1.8-2.38,2.65,2.65,0,0,0-1.81,1.83C121.08,144.47,121,147.94,120.85,151.41Z" fill="#9bb0aa"/>
        <path d="M111,115.7c.25-3,.5-5.58.65-8.16a2,2,0,0,0-1.87-2.3c-1.11-.09-1.69.77-1.81,1.72C107.55,110.22,104.28,114.42,111,115.7Z" fill="#9bb0aa"/>
        <path d="M178.06,233.05h-.9c.44,1,.63.26.87-.13Z" fill="#9bb0aa"/>
        <path d="M229.78,279.11c-2,1.49,5.26,5.16-2,4.27-.82-.1-1.49.28-1,1.31.37.85.7,1.94,1.83,1.91,2.28-.06,5.33-.08,5.55-2.73C234.37,281.38,233,278.61,229.78,279.11Z" fill="#9bb0aa"/>
        <path d="M71.12,8c0,.17.1.33.14.5.17-.06.41-.08.47-.19s-.07-.33-.12-.49Z" fill="#1c2d28"/>
        <path d="M215,77.13c1.72,5.75,8.35,4.44,9.35,9.23,1.14-.26,2.34-.8,2.46-2,.2-1.89-.11-3.88-2.31-4.59C221.71,78.92,218.86,78.21,215,77.13Z" fill="#9bb0aa"/>
        <path d="M93.72,168.37c.89.57,1.44,0,1.75-.69a1.74,1.74,0,0,0-.65-2.42c-.79-.51-1.48-.36-1.68.54A2.31,2.31,0,0,0,93.72,168.37Z" fill="#1c2d28"/>
      </g>
    </g>
  </g>
</svg>
