<svg id="af438cf8-72e3-470d-8429-25b1d5628586" data-name="Layer 1" xmlns="http://www.w3.org/2000/svg" xmlns:xlink="http://www.w3.org/1999/xlink" width="176.389mm" height="105.833mm" viewBox="0 0 500 300">
  <defs>
    <clipPath id="bde8d460-18c2-42a8-b210-e826fdf43221">
      <rect x="73.281" y="3.846" width="353.438" height="296.154" style="fill: none"/>
    </clipPath>
  </defs>
  <title>pic-2</title>
  <g style="clip-path: url(#bde8d460-18c2-42a8-b210-e826fdf43221)">
    <g>
      <path d="M381.655,248.888s.68.309,1.829.807c4.325,1.875,15.3,6.433,21.64,7.3,8.029,1.094,12.152-2.01,22.37,4.161s32.736,19.2,37.115,24.669S480.666,305.9,483.951,311s6.933,19.342,6.933,19.342H151.857l-13.47-50.272L282.87,190.21l95.979,41.6" style="fill: #ab8c77"/>
      <path d="M122.3,221.6c-6.569,4.014-1.095,5.474-6.2,8.393s-16.057-.365-16.057-.365-3.649-8.164-10.948,1.574-8.759,13.389-13.138,14.119-5.109-3.65-14.962-2.555-8.394,0-15.328,4.379-2.554,1.825-14.6,9.854-16.422,9.853-20.8,13.137S9.167,274.146,1.5,280.35s-28.83,20.071-33.939,22.991-17.152,9.123-22.627,13.867a80.191,80.191,0,0,0-8.758,8.759H160.467l37.372-44.158L150.4,216.485Z" style="fill: #be6542"/>
      <path d="M265.559,14.92c-27.656-4.039-36.68-1.847-48.059,0s-44.73,14.8-51.008,30.882-14.264,52.044-11.771,63.957,20.4,154.2,20.4,154.2l143.608-66.7L325.01,95.241,282.241,20.3Z" style="fill: #cca17e"/>
      <path d="M265.559,14.92c11.128,0,4.328-9.274,22.874,0s25.347,9.891,34.621,22.874,16.692,2.473,18.547,16.692,1.854,9.892,3.709,24.111,1.855-3.091,1.855,17.929-5.564,13.6,0,21.019,8.655,6.182,11.128,16.074,9.273,10.51,12.982,20.4-8.017,8.65,0,17.311a63.824,63.824,0,0,1,11.747,18.547s-14.838.618-8.655,8.655,13.6,16.692,13.6,16.692,6.8,9.891,8.037,13.6,6.8,6.182-2.472,11.128-9.274-3.091-9.274,4.946-14.837,3.709-20.4,0-2.473,1.264-5.564,4.545,3.419,8.824-15.08-4.214-20.792-22.367-26.04-15.059-10.811,8.981-7.1,19.273,4.328,7.819,8.037,14.62,15.456,9.891,3.709,17.928-13.6,10.51-17.31,11.128-16.692-16.074-18.547-17.31-8.9-.895-5.379,11.917,9.009,12.217,1.052,18.994-17.929,8.037-12.365,14.219,11.128,1.237,1.855,9.892-16.692-2.473-22.256,8.655-4.946,11.746-6.182,15.456,0,17.31-5.564,0,3.091-17.311-5.564-17.311-9.82,2.821-16.656-4.463-9.928-7.9-7.455-17.793,2.473-13.6,2.473-13.6l-7.7,2.062s-.96-3.916-3.433,4.739-1.237,5.564-3.71,12.982-4.946,6.183-7.418,11.129a21.354,21.354,0,0,0-2.473,8.655s-4.1,4.542-7.419,1.854-1.126-2.434-5.2-8.945-4.693-7.129-9.02-7.747-7.419,2.473-6.182-7.418,8.036-12.983,6.182-14.838.588,2.316-1.855-4.327a18.112,18.112,0,0,1,0-12.365l-5.752-6.629-4.338-16.192c-1.052-3.924-4.747,4.893-4.747-5.617s5.564-11.747,0-12.983-6.183,4.946-8.037-1.855,4.327-6.8.618-12.364a26.554,26.554,0,0,0-9.892-9.274c-3.091-1.854-3.132-1.865-7.17-2.947s-10.06,4.162-7.049-1.082,9.274-6.48,7.419-10.808-3.732-2.843-5.564-4.328,6.182-12.227,6.182-16.314-3.886-3.185,0-10.887,10.744-4.552,8.655-11.128-6.182-11.747-3.709-21.02,7.844-8.784,10.226-17.673,8.108-3.856,7.084-13.238,3.091-22.875,3.091-32.148,1.237-19.783,5.564-25.347,12.983-12.365,14.838-1.237-11.746,56.259-11.128,64.3,6.8,27.2,8.037,30.293-4.946,15.455,3.091,9.891,3.709-12.364,18.547-8.655,19.783,3.091,27.82,7.419-.619,8.037,9.891,5.564,7.419-2.473,12.983-2.473,9.389,12.983,18.295,6.8,12.616-1.236,14.471-12.364-11.066-13.1,9.273-18.547c8.2-2.2,10.98-3.219,6.652-7.546s-6.033-7.909-7.27-14.71-3.709-6.182-.618-16.692a116.681,116.681,0,0,1,6.734-17.745s8.722,2.908.685-2.656-11.068-1.673-8.037-9.274S289.67,53.868,289.67,52.013s3.091-8.655,1.236-12.982-1.587-4.256-7.242-5.771-6.359-3.5-7.595-5.357,1.236,5.564-8.655-1.855S265.559,14.92,265.559,14.92Z" style="fill: #b0a495"/>
      <path d="M224.316,105.8c8.252,0,13.472,5.564,9.573,8.346s-9.831,3.4-14.472,2.782-15.784.219-13.925-7.728c.727-3.107,4.126-2.164,7.994-3.4S224.316,105.8,224.316,105.8Z" style="fill: #f5e0d7"/>
      <path d="M180.575,106.52c2.1,1.948,2.173,4.812.776,6.053s-6.208,2.639-9,2.328-8.381.621-8.381-2.328,1.863-4.5,3.881-6.053S178.4,104.5,180.575,106.52Z" style="fill: #f5e0d7"/>
      <path d="M233.344,96.854c-8.071-.422-14.279.576-18.469,0s-15.21-.111-11.951,1.906,13.037,2.328,15.831,2.328,3.1-.155,10.4-.155,10.709,3.57,8.692,0a9,9,0,0,0-5.357-4.309" style="fill: #b0a495"/>
      <path d="M182.9,97.829c-4.811,0-7.45.227-10.709,1.743s-3.569,2.982-6.053,2.948-6.984,1.613-4.345,2.729,6.917,1.892,9.589-.746,7.052-2.809,9.345-2.964S185.852,97.829,182.9,97.829Z" style="fill: #b0a495"/>
      <path d="M407.6,253.766c2.616,9.762-5.506,25.458-10.193,32.042s-6.512,18.992-14.175,25.926-17.152,16.057-25.546,23.356-66.419,5.109-66.419,5.109,49.55-27,58.167-37.223,26.5-25.546,27.594-33.21-1.1-9.009,4.379-16S405.342,245.353,407.6,253.766Z" style="fill: #1f1716"/>
      <path d="M193.825,174.076c12.043,1.492,14.233,1.536,17.517,4.091s9.594,4.856,5.709,9S211.2,192.4,202.33,192.4s-5.585-.365-13.249-.365H175.943s-10.675-3.285-5.7-8.759,4.357-6.934,9.774-7.3,7.449-2.15,10.844-2.189C191.214,173.784,193.825,174.076,193.825,174.076Z" style="fill: #cca17e"/>
      <g>
        <path d="M186.628,100.157a36.332,36.332,0,0,1-3.1,11.951c-1.242,2.638-3.259,5.121-3.1,8.846s.931,4.812.155,7.76a96.107,96.107,0,0,1-3.88,10.244c-1.4,3.414-4.656,5.9-2.018,10.4s5.588,6.984,8.537,5.9,3.1-1.242,5.121-2.018,2.018-1.4,5.277.311,9.843,6.405,11.673,1.961,4.158-5.841,1.674-8.635-7.139-3.88-7.139-3.88" style="fill: #cca17e"/>
        <path d="M186.628,100.157a27.681,27.681,0,0,1-.781,6.58,33.26,33.26,0,0,1-2.082,6.365c-.973,2.021-2.06,3.884-2.325,5.881a11.42,11.42,0,0,0,.021,3.043c.1,1.06.315,2.088.455,3.264a10.312,10.312,0,0,1-.233,3.639,33.883,33.883,0,0,1-.991,3.262c-.743,2.113-1.576,4.162-2.385,6.2a19.7,19.7,0,0,1-1.461,3.138,24.048,24.048,0,0,0-1.463,2.746,4.54,4.54,0,0,0-.308,2.5,7.164,7.164,0,0,0,1.145,2.525,13.137,13.137,0,0,0,3.922,4.382,4.225,4.225,0,0,0,1.133.461,3.1,3.1,0,0,0,1.1,0c.3-.072.876-.285,1.376-.473l1.513-.572,3.053-1.184a7.736,7.736,0,0,1,1.856-.63,4.333,4.333,0,0,1,2.2.375c2.24.953,3.992,2.25,5.875,3.244a16.523,16.523,0,0,0,2.826,1.259,3.48,3.48,0,0,0,2.515.059c.077-.043.156-.083.239-.121.071-.058.13-.134.2-.2a1.409,1.409,0,0,0,.359-.479c.055-.1.111-.163.172-.29l.183-.386c.119-.259.246-.513.379-.763.517-1,1.121-1.963,1.642-2.883a3.25,3.25,0,0,0,.6-2.658,6.183,6.183,0,0,0-1.839-2.386,17.415,17.415,0,0,0-5.705-3.066,16.311,16.311,0,0,1,6.165,2.476,6.713,6.713,0,0,1,2.357,2.6,3.32,3.32,0,0,1,.191,1.933,7.152,7.152,0,0,1-.591,1.7c-.487,1.033-1,1.97-1.425,2.953-.109.243-.213.487-.307.735a6.679,6.679,0,0,1-.358.809,2.9,2.9,0,0,1-.567.867,5.372,5.372,0,0,1-.373.4l-.465.305a3.363,3.363,0,0,1-1.008.409,6.263,6.263,0,0,1-1.022.122c-.321-.019-.645-.041-.963-.076l-.905-.184a18.34,18.34,0,0,1-3.257-1.258c-2.051-.963-3.938-2.2-5.773-2.915a2.068,2.068,0,0,0-1.01-.192,7.1,7.1,0,0,0-1.227.5l-3.058,1.29c-.517.218-1.037.429-1.557.626a15.806,15.806,0,0,1-1.74.6,5.686,5.686,0,0,1-2.175.018,6.81,6.81,0,0,1-1.921-.741A11.207,11.207,0,0,1,176,153.55a22.27,22.27,0,0,1-2.07-2.828,9.772,9.772,0,0,1-1.478-3.478,7.217,7.217,0,0,1,.489-3.957,25.588,25.588,0,0,1,1.65-3.059,20.251,20.251,0,0,0,1.362-2.812c.871-2.023,1.751-4.023,2.524-6.036.386-1,.737-2.017,1.023-3.013a8.067,8.067,0,0,0,.326-2.894c-.069-1.012-.24-2.152-.3-3.285a12.168,12.168,0,0,1,.183-3.525c.5-2.379,1.836-4.312,2.885-6.165a34.567,34.567,0,0,0,2.537-5.961A31.85,31.85,0,0,0,186.628,100.157Z" style="fill: #c09175"/>
      </g>
      <path d="M224.316,105.8a17.561,17.561,0,0,1,2.128.141,12.649,12.649,0,0,1,.381,3.064,11.935,11.935,0,0,1-3.061,8.108,26.028,26.028,0,0,1-4.347-.185c-2.55-.34-7.054-.248-10.295-1.407A12.213,12.213,0,0,1,207.277,109a12.723,12.723,0,0,1,.16-1.959c1.51-.545,3.69-.492,6.049-1.246C217.354,104.562,224.316,105.8,224.316,105.8Z" style="fill: #2f201a"/>
      <path d="M163.969,112.573c0-2.949,1.862-4.5,3.88-6.052,1.841-1.417,9.1-1.922,12-.467a12.67,12.67,0,0,1,.162,1.974,12.294,12.294,0,0,1-1.511,5.949,16.192,16.192,0,0,1-6.154.925C169.556,114.591,163.969,115.522,163.969,112.573Z" style="fill: #2f201a"/>
    </g>
  </g>
</svg>
