<svg id="ae27e420-4c56-4e11-afe1-7bfc28d4afc6" data-name="Layer 1" xmlns="http://www.w3.org/2000/svg" xmlns:xlink="http://www.w3.org/1999/xlink" width="176.389mm" height="105.833mm" viewBox="0 0 500 300">
  <defs>
    <clipPath id="f17bdffe-52a0-448c-9eb7-ab323ad3ad1f">
      <rect x="20.31" y="0.05" width="468.153" height="299.95" style="fill: none"/>
    </clipPath>
  </defs>
  <title>pic-7</title>
  <g style="clip-path: url(#f17bdffe-52a0-448c-9eb7-ab323ad3ad1f)">
    <g>
      <polygon points="234.392 17.253 234.392 154.447 116.878 285.631 103.777 130.004 234.392 17.253" style="fill: #634830"/>
      <polygon points="116.878 285.631 284.018 360.268 386.331 209.808 234.392 154.447 116.878 285.631" style="fill: #423020"/>
      <polygon points="234.392 154.447 386.331 209.808 399.913 69.598 234.392 17.253 234.392 154.447" style="fill: #835f3e"/>
      <polygon points="36.285 139.532 165.71 31.546 234.392 17.253 103.777 130.004 36.285 139.532" style="fill: #ae906c"/>
      <polygon points="234.392 17.253 276.848 8.978 425.841 55.356 399.913 69.598 234.392 17.253" style="fill: #d7c3a8"/>
      <polygon points="103.777 130.004 116.878 285.631 284.018 360.268 365.008 241.166 298.028 203.984 103.777 130.004" style="fill: #58351c"/>
      <polygon points="399.913 69.598 298.028 203.984 395.896 279.21 482.443 133.139 399.913 69.598" style="fill: #d7c3a8"/>
      <polygon points="103.777 130.004 55.184 228.451 251.285 308.425 298.028 203.984 103.777 130.004" style="fill: #ae906c"/>
    </g>
  </g>
</svg>
