<svg id="Layer_1" data-name="Layer 1" xmlns="http://www.w3.org/2000/svg" xmlns:xlink="http://www.w3.org/1999/xlink" viewBox="0 0 500 300">
  <defs>
    <clipPath id="clip-path">
      <rect x="-422.45" y="-1001.28" width="358.03" height="300" fill="none"/>
    </clipPath>
    <clipPath id="clip-path-2">
      <rect x="51.24" width="384.5" height="300" fill="none"/>
    </clipPath>
  </defs>
  <title>pic-8</title>
  <g clip-path="url(#clip-path-2)">
    <g>
      <path d="M392.73,189.22s14.91,4.21,18.22,9.43,9.64,20.55-.59,43.64-22.75,26.3-29.46,24.57-24.48-7-24.48-7l.58-54.17Z" fill="#903d40"/>
      <path d="M140.06,245.94c86.12-40.37,139.24-12.64,142.38-5.72s8.28,12.66,3.69,14l-7.35,2.18S266.56,288,259.83,296.83s-27.27,27.23-23.13,35.6,1.2,17.34,7.17,26.06,17,15.85,22.52,9.27,2-4.7,8.25-11.13,29.67-40.08,35.74-52.26,7.91-22,11.08-22,7.32,3.65,12.06-.72.07-6.87,6.77-8.61,8.53-5.58,8.53-5.58l7.57-5.81s25.06,1.51,36.29-28.07.05-44.35.05-44.35l4.81-5.44L383.39,177l-10.82-2-1.38,2.89S252.47,116.6,221.79,46.31l-69.21,85.13S93.92,267.57,140.06,245.94Z" fill="#b3b3b3"/>
      <ellipse cx="147.11" cy="132.22" rx="130.08" ry="69.68" transform="translate(-28.19 223.84) rotate(-69.54)" fill="#903d40"/>
      <ellipse cx="145.38" cy="130.1" rx="116.5" ry="56.06" transform="matrix(0.35, -0.94, 0.94, 0.35, -27.33, 220.84)" fill="gray"/>
      <path d="M197.9,149.69a237.31,237.31,0,0,0,8.5-27.79h0S178.05,110.65,169,108.1s-23.9,7.54-23.9,7.54-7.55,13.29-9,20.76,9,23.91,11.73,28.89c2,3.75,23.8,12.83,34.93,17.17A233.89,233.89,0,0,0,197.9,149.69Z" fill="#b3b3b3"/>
      <ellipse cx="147.6" cy="129.94" rx="18.06" ry="10.25" transform="translate(-25.74 222.82) rotate(-69.54)" fill="#740c10"/>
      <path d="M279.46,116.24s25.94,58.35-28.28,110.42h0a96.28,96.28,0,0,1,18.21,5.19h0c47.29-40,32.33-98,32.33-98-7.4-5.5-14.91-11.4-22.26-17.63Z" fill="#903d40"/>
    </g>
  </g>
</svg>
