<svg id="f9d262f2-be37-4b38-853f-ab90a6bbb219" data-name="Layer 1" xmlns="http://www.w3.org/2000/svg" width="176.389mm" height="105.833mm" viewBox="0 0 500 300">
  <title>pic-5</title>
  <g>
    <path d="M442.866,300a190.31,190.31,0,0,0-31.372-22.869C395,267.916,379.75,271.5,355.838,264.5s-39.53-25.1-45.762-30.559c-9.056-7.936-34.219-3.659-34.219-3.659S197.6,245.408,191.52,246.352s-15.845,20.205-29.862,30.779-27.21,15.4-48.648,20.758c-2.754.689-5.3,1.391-7.679,2.111Z" style="fill: #0f0d0f"/>
    <path d="M155.819,111.683c-2.31-.046-3.856-5.7-6.257-5.252s-5.275,2.432-4.439,8.051,3.219,12.833,5.274,18.6,8.308,6.077,8.308,6.077Z" style="fill: #e19961"/>
    <path d="M284.328,159.436s1.806,23.463,1.806,30.384,1.952,19.165,3.726,25.554,8.012,13.072,8.012,13.072l-14.553,25.465-77.753,23.22L187.82,252.109s4.081,4.969,3.726-25.022L253.835,166.4Z" style="fill: #dd8a5a"/>
    <path d="M151.929,110.945c1.093,5.067,1.093,4.147,1.093,13.484s-6.515,18.278-1.093,33.91,10.953,12.986,11.915,19.961a65.33,65.33,0,0,0,7.456,21.163c3.366,6.012,3.366,16.113,6.974,21.163s7.7,12.025,17.556,11.544,13.227-3.126,23.809-3.126,20.2-3.367,32.466-14.43,12.265-6.974,18.037-19,2.93-11.683,8.417-18.758,7.215-27.416,7.215-27.416l13.708-56.276L261.244,46.991,170.1,41.46,149.773,77.533Z" style="fill: #e8af6d"/>
    <path d="M252.016,214.614c12.265-11.063,12.265-6.974,18.037-19s2.93-11.683,8.417-18.758,7.215-27.416,7.215-27.416L295.1,110.8l-9.656-7.877-5.72,7.006c.081,12.647-7.439,11.793-6.926,27.686s6.665,26.148,1.367,34.351-12.647,21.363-23.755,26.49-19.483,8.374-27.173,12.475-20.024,17.758-17.362,19.817a57.4,57.4,0,0,1,13.677-1.7C230.131,229.044,239.751,225.677,252.016,214.614Z" style="fill: #e19961"/>
    <path d="M285.491,176.022c2.8-2.8,6.452-6.053,9.758-6.816s7.629-1.78,7.629-7.12a37.553,37.553,0,0,0-.942-8.853s1.774-1.065,3.265,5.547c0,0,1.1-1.578-1.466-7.982s-2.817-6.275-2.561-10.822-17.845,11.879-17.845,11.879Z" style="fill: #070707"/>
    <path d="M148.842,104.636c-1.167-8.168-7-23.337-1.167-36.173s16.336-43.173,43.174-51.341,28-12.836,57.176-5.835c0,0,28,12.836,32.672,17.5s14,19.837,16.336,28.005,4.667,21,5.834,26.838,2.334,21,2.334,21-9.192,3.653-11.669,5.834c-1.506,1.327-5.152,3.585-7,5.835,0,0-1.167,0-4.667-3.5-5.283-5.283-14-9.335-18.67-17.5s-2.334-7-7-21-7-24.5-18.67-22.171-26.838,15.17-36.173,14-17.5-2.334-23.337-11.669-15.169-3.5-19.837,5.834-3.5,17.5-4.667,26.838,1.167,22.171,0,24.5S148.842,104.636,148.842,104.636Z" style="fill: #070707"/>
    <path d="M287.128,120.822c2.165-5.291,6.14-12.146,14.614-14.731s14.245-2.1,10.638,12.567-6.843,20.3-12.079,24.577-9.085,8.851-11.249,8.611-7.074.723-7.074.723Z" style="fill: #e19961"/>
    <path d="M191.52,246.352c2.529,1.466,5.917,7.543,8.991,9.421s3.415,8.026,17.93,8.538,17.759.171,27.833-3.757,20.321-7,27.493-12.124a142.875,142.875,0,0,0,16.454-13.343c4.672-4.435,13.77-.83,13.77-.83L275.6,258.781l-65.347,16.337-16.336-14.666L189.473,247.9Z" style="fill: #e7eec3"/>
    <path d="M295.71,225.489c3.683-2.45,9.149-2.662,9.724,0s4.216,6.921,0,11.713-20.588,19.343-25.712,22.892-28.371,18.279-40.261,18.456-20.418.857-20.418,1.389-1.91,6.693-7.038,4.439c-2.065-.907-1.859-4.408-1.859-4.408s-9.208-2.169-12.88-7.462-4.61-7.172-5.806-9.9-4.439-5.465-4.61-7.685-.3-5.475,1.089-6.921,2.308-2.681,3.384-.911.82,5.015,3.382,7.235,10.246,10.416,14.856,11.7,17.252,4.5,24.795,2.679c13.882-3.362,27.374-9.09,31.976-12.54,4.838-3.627,22.121-11.826,24.767-18.315S294.157,226.522,295.71,225.489Z" style="fill: #b2252b"/>
    <path d="M208.707,119.165c2.69-1.537,16.649-3.159,20.107-2.86s9.734,3.628,9.606,2.092-4.995-4.483-9.862-4.611-16.649.384-19.851,2.689S208.707,119.165,208.707,119.165Z" style="fill: #7e3524"/>
    <path d="M159.464,113.274c6.159-1.651,14.143-.293,16.192.494s4.1,2.635-.642,2.132-9.348-1.19-14.343-.251S153.8,114.791,159.464,113.274Z" style="fill: #7e3524"/>
    <path d="M212.662,130.928c1.467-5.474,9.936-5.343,13.359-5.093s10.771,2.422,10.771,4.509c0,2-8.678,6.572-14.862,5.093C218.089,134.519,211.835,134.014,212.662,130.928Z" style="fill: #f5e0d7"/>
    <path d="M161.47,127.4c.7-2.61,5.541-4.811,10.061-4.228s9.185,2.722,8.8,5.1-6.314,4.976-10.474,4.433C165.381,132.124,160.921,129.45,161.47,127.4Z" style="fill: #f5e0d7"/>
    <path d="M193.911,168.642c0-4.148,6.175-8.394,5.4-9.165a2.752,2.752,0,0,0-4.245,2.026C194.49,164.4,193.911,168.642,193.911,168.642Z" style="fill: #e19961"/>
    <path d="M236.792,130.344c0-.51-.443-1.024-1.156-1.515a5.842,5.842,0,0,1-.206,3.288C236.28,131.458,236.792,130.826,236.792,130.344Z" style="fill: #e7b09c"/>
    <path d="M235.636,128.829c-2.2-1.518-7.028-2.8-9.615-2.994-.811-.059-1.911-.109-3.129-.082a6.139,6.139,0,0,0-1.886,4.368,6.439,6.439,0,0,0,3.549,5.6,19.861,19.861,0,0,0,10.875-3.6,5.842,5.842,0,0,0,.206-3.288Z" style="fill: #311c15"/>
    <path d="M180.327,128.274c.389-2.381-4.277-4.52-8.8-5.1a11.891,11.891,0,0,0-1.685-.093,5.425,5.425,0,0,0-2.9,4.564c0,2.249,1.655,4.19,4.058,5.13C175.029,132.781,179.973,130.443,180.327,128.274Z" style="fill: #311c15"/>
    <path d="M182.525,193.837c-.592.984-2.626,3.131,1.216,5a22.216,22.216,0,0,0,11.186,2.125c3.728-.17,10.908-.5,13.45-1.969s5.362-1.286,5.532-2.529-3.616-2.937-3.616-2.937Z" style="fill: #d8754e"/>
    <path d="M180.966,192.635c4.467-1.429,11.036,1.258,13.358,1.584s11.345-2.282,14.6-1.467,9.753-1.007,10-.351c.416,1.121-9.643,3.814-15.45,3.926s-9.331,1.145-12.536.686c-2.732-.391-3.623-.341-6.013-1.318S179.236,193.188,180.966,192.635Z" style="fill: #dd8751"/>
    <path d="M187.185,128.487a7.6,7.6,0,0,1,.177,2.288,21.687,21.687,0,0,1-.219,2.294c-.212,1.521-.5,3.027-.83,4.521s-.677,2.984-1.084,4.454l-1.5,4.315c-1.023,2.877-2.037,5.7-3.139,8.57a40.774,40.774,0,0,0-2.64,8.448,10.439,10.439,0,0,0,.093,4.117,6.159,6.159,0,0,0,.767,1.792,14.172,14.172,0,0,0,1.316,1.627c1.933,2.1,4.4,3.821,7.083,3.957a7.488,7.488,0,0,0,1.983-.165l2.2-.541,4.392-1.083a26.416,26.416,0,0,1,4.643-.9,6.892,6.892,0,0,1,2.645.24,2.8,2.8,0,0,1,1.417,1.006,2.282,2.282,0,0,1,.379.923,2.334,2.334,0,0,1-.043,1.018l-.952-1.283a1.735,1.735,0,0,0,.446-.148,1.828,1.828,0,0,0,.493-.368,3.409,3.409,0,0,0,.713-1.234,9.851,9.851,0,0,0,.347-3.365,31.388,31.388,0,0,0-1.249-7.166,13.461,13.461,0,0,0-1.384-3.069,1.692,1.692,0,0,0-1.006-.734l-1.872-.184a11.136,11.136,0,0,0-3.624.1,2.765,2.765,0,0,0-1.492.857,7.8,7.8,0,0,1-.659.7,1.328,1.328,0,0,1-.412.273.178.178,0,0,1-.236-.081.46.46,0,0,1-.026-.239c0,.152.094.347.234.245a1.246,1.246,0,0,0,.324-.309,7.552,7.552,0,0,0,.512-.777,3.135,3.135,0,0,1,1.549-1.27,11.9,11.9,0,0,1,3.853-.679l1.905-.087a3.189,3.189,0,0,1,2.222,1.023,8.1,8.1,0,0,1,2.027,3.612,34.079,34.079,0,0,1,1.332,7.688,11.7,11.7,0,0,1-.453,4.1,4.185,4.185,0,0,1-3.558,3.1l-.862.068-.091-1.35c-.009-.143.017-.308-.482-.49a5.109,5.109,0,0,0-1.858-.137,24.513,24.513,0,0,0-4.27.835l-4.438,1.094-2.218.547a9.487,9.487,0,0,1-2.534.211,10.251,10.251,0,0,1-4.74-1.519,16.872,16.872,0,0,1-3.707-3.08,15.669,15.669,0,0,1-1.532-1.908,8.165,8.165,0,0,1-1.017-2.368,12.411,12.411,0,0,1-.134-4.911,42.508,42.508,0,0,1,2.754-8.879c1.074-2.791,2.109-5.672,3.116-8.507.512-1.421.982-2.856,1.443-4.291.541-1.408,1.116-2.806,1.634-4.222s1.031-2.836,1.466-4.277A13.614,13.614,0,0,0,187.185,128.487Z" style="fill: #e19961"/>
  </g>
</svg>
