<svg id="bf940ace-4ce5-4aac-b7eb-4cb2ed3041f0" data-name="Layer 1" xmlns="http://www.w3.org/2000/svg" xmlns:xlink="http://www.w3.org/1999/xlink" width="176.389mm" height="105.833mm" viewBox="0 0 500 300">
  <defs>
    <clipPath id="a14166db-2a3c-44ec-a3b6-c18df6af0164">
      <rect x="43.392" width="424.169" height="300" style="fill: none"/>
    </clipPath>
  </defs>
  <title>pic-10</title>
  <g style="clip-path: url(#a14166db-2a3c-44ec-a3b6-c18df6af0164)">
    <g>
      <path d="M153.034,22.9c-9.116-3.282-13.128-8.387-20.421-8.023,0,0-14.222-.729-15.316,8.023s2.161,12.053-3.3,16.967-22.6,21.324-26.972,37-6.564,39.384-6.564,39.384-17.14,17.869-21.151,23.7-2.385,23.359,0,25.512-2.509,3.69,3.167,5.074,4.7,2.754,7.241,5.3,6.067,3.132,10.765,3.132,13.308,0,15.657,1.174,3.131,1.37,5.48,4.7,3.141,4.306,3.332,7.046,3.258,36,0,49.906c-2.968,12.669-2.968,58.2-2.968,58.2H455.955s-31.6-65.244-31.6-72.29-5.284-20.55-17.614-26.421-28.182-18.2-29.944-21.724-4.11,4.7-7.633-10.569,2.153-15.852-6.654-22.506a190.569,190.569,0,0,1-19.18-16.049c-5.48-5.284-4.5-4.11-9.981-11.743s-8.807-6.067-12.721-19.767-5.48-10.96-7.829-15.852-.783-3.915-4.305-8.416S299.685,63.312,296.749,59.4s-4.306-5.479-9.786-8.611-9.785-5.088-13.5-9.59-5.088-7.633-11.156-9.981-9.394-2.349-17.614-2.936-1.37.979-14.874-1.174-15.265-1.957-19.962-2.153-6.459-3.131-20.746-3.131-16.244-1.957-22.7,0A36.585,36.585,0,0,1,153.034,22.9Z" style="fill: #bda63c"/>
      <path d="M309.715,300h146.24s-31.6-65.244-31.6-72.29-5.284-20.55-17.614-26.421-28.182-18.2-29.944-21.724-4.11,4.7-7.633-10.569,2.153-15.852-6.654-22.506a190.569,190.569,0,0,1-19.18-16.049c-5.48-5.284-4.5-4.11-9.981-11.743s-8.807-6.067-12.721-19.767-5.48-10.96-7.829-15.852-.783-3.915-4.305-8.416S299.685,63.312,296.749,59.4s-4.306-5.48-9.786-8.611-9.785-5.088-13.5-9.59-5.088-7.632-11.156-9.981-9.394-2.348-17.614-2.936-1.37.979-14.874-1.174-15.265-1.957-19.962-2.153-6.459-3.131-20.746-3.131-16.244-1.958-22.7,0a36.585,36.585,0,0,1-13.37,1.081c-9.116-3.282-13.128-8.387-20.421-8.023,0,0-14.222-.729-15.317,8.023s2.162,12.053-3.3,16.967A138.839,138.839,0,0,0,98.083,56.861c10.131,5.646,2.011,6.493,3.408,9.637,1.486,3.344,4.088.371,6.179.371s2.368,3.345,7.943,9.663,8.176,4.088,13.379,1.858,5.946-8.919,9.248-13.492,5.245.485,11.787,0,11.668.857,10.651,10.118,3.247,1.516,15.333,10.825,6.867,1.84,12.813,8.529,10.778,5.946,12.264,10.587-1.486,11.711-1.486,11.711,7.8,4.459,23.041,4.832,20.068,2.229,14.635,10.033-10.176,6.318,3.575,6.3,11.149,4.846,11.212,8.934-5.266,4.46-20.875,10.406-5.2,5.2-1.486,11.892,1.486,5.946.371,9.537-4.459,4.957-14.465,9.416-4.859,4.832-19.353,10.034-9.663,4.46-13.14,12.264,15,8.919,11.282,13.75-.744,3.345,1.858,10.044,7.433,5.565,15.237,5.937,15.98-2.23,60.2-5.2,5.2,3.716,3.716,8.919-1.115,5.946-7.432,12.635-18.21,7.805-16.479,16.724,9.418-.372,24.655-.372,28.987,0,43.481,3.717c6.378,1.635-4.028,5.76-6.591,10.144C309.788,292.19,312.836,298.183,309.715,300Z" style="fill: #9a6830"/>
      <path d="M139.2,98.736c5.137-6.252,16.44-6.85,23.682-6.655s18-.782,19.962.783-7.045,11.156-13.5,11.352-13.28.967-19.752.676C146.012,104.731,134.943,103.917,139.2,98.736Z" style="fill: #2b2519"/>
      <path d="M219.143,53.33c2.24-7.466,8.71-14.683,11.946-16.425s5.973-4.231,12.692-4.48,11.947-.5,15.68,2.489,3.235,2.488,9.208,8.959,6.222,6.471,7.964,13.191,3.484,6.968,4.48,10.7,5.226,2.489,1.493,8.96-3.982,9.123-5.724,13.894,3.235,6.016-4.978,6.762-13.439-1.89-17.172-5.424-4.48-5.775-4.48-5.775l5.59,1.5c4.507,1.208,10.338,5.968,12.578.742s3.618-4.395,2.929-7.8-.191.58-.191-5.145,1.493-5.475,0-7.964-1.991.249-1.991-5.226,1-.5-1.493-7.466-.249-6.222-4.729-9.209-6.082-3.982-10.88-6.719-7.786-5.973-12.266-1.743-5.475,3.734-9.706,7.467-4.479,5.475-5.226,7.217,1.244-.746-2.987,2.987S219.143,53.33,219.143,53.33Z" style="fill: #5d341b"/>
      <path d="M244.03,50.1c-4.231,0-8.461-5.475-5.475,0s4.231,5.226,3.235,7.715-3.484.5-2.737,4.729-2.754,6.471-1.5,5.973,4.655-2.387,6.478-2.876,2.24-2.96,5.973,2.944,3.339,7.377,3.734,5.905-.249-.747,1-3.484.747-2.24,2.489-3.734,5.226,5.714,2.986-2.369-1.9-8.756-4.435-11.033S251.5,50.1,251.5,50.1Z" style="fill: #654422"/>
      <path d="M71.449,138.258c2.09-6.545,6.2-15.058,12.952-18.875s8.11-7.632,15.5-11.742,3.578-.965,12.385-2.684,9.9-2.014,13.41-2.953,3.91-5.05,5.378,0,2.349,8.279,0,12.1-6.165,6.752-9.394,9.688,1.468,1.468-9.394,5.578-13.8,2.348-16.734,4.99-4.129.587-5.587,5.578-.284,4.7-4.981,7.046-6.459,7.045-8.22,2.055A68.34,68.34,0,0,0,71.449,138.258Z" style="fill: #6a4824"/>
      <path d="M121.685,35.38c4.679-3.4,6.806-2.978,11.91-5.1s5.317-.638,10.847-3.19,9.357-2.553,5.529-2.553-3.4-2.764-8.507,0-7.126,1.749-10.634,4.809A58.2,58.2,0,0,1,121.685,35.38Z" style="fill: #5d341b"/>
      <path d="M99.652,91.957c1.856-4.054-6.893-7.613-13.945-9.831h0c-.99,4.309-1.839,8.91-2.548,13.3v0a55.472,55.472,0,0,1,7.479,3.03C95.941,100.9,97.8,96.01,99.652,91.957Z" style="fill: #2b2519"/>
      <path d="M63.619,140.187c7.994-2.4,14.558-3.611,20.125-.43s10.606,6,10.341,10.69-4.09,9.481-7.954,11.847a33.735,33.735,0,0,1-9.454,4.124,30.755,30.755,0,0,1-10.431.648c-4.243-.53-10.076-1.061-11.136-4.242s-2.559-7.973-2.386-10.172C53.154,147.184,54.485,142.926,63.619,140.187Z" style="fill: #342b1b"/>
      <path d="M68.231,174.017a23.03,23.03,0,0,1,7.95,1.438c5.284,1.957,24.072,2.936,32.293,3.132s10.764-1.175,17.222-1.762,8.612-2.936,12.544-5.872,7.419-7.828,10.159-12.329-1.37-3.327-5.871,0-4.893,4.305-10.96,10.372c0,0-7.633,3.327-12.33,5.089s-27.4-1.37-33.134-4.233-22.384.99-25.169-2.116a1.645,1.645,0,0,0-.943-.6c-.2,1.335-1.612,2.417,2.489,3.417C66.62,171.557,67.222,172.562,68.231,174.017Z" style="fill: #3b2517"/>
    </g>
  </g>
</svg>
