<svg id="Layer_1" data-name="Layer 1" xmlns="http://www.w3.org/2000/svg" xmlns:xlink="http://www.w3.org/1999/xlink" viewBox="0 0 500 300">
  <defs>
    <clipPath id="clip-path">
      <rect x="69.41" width="361.18" height="300" fill="none"/>
    </clipPath>
    <clipPath id="clip-path-2">
      <rect x="20.31" y="-320.72" width="468.15" height="299.95" fill="none"/>
    </clipPath>
  </defs>
  <title>pic-9</title>
  <g clip-path="url(#clip-path)">
    <g>
      <path d="M427.88,119.09c-5.3-6.67-15.31-13.54-23-14.13a68.56,68.56,0,0,0-33.65,6.37c-12.88,6.19-24.85,19.74-36,18.36s-13,2.36-34.16-17.66S238.25,49.4,225.29,44.1s-21.4-18.84-65-15.11c0,0-18.25,3.33-25.91,8.83a1.53,1.53,0,0,1-.66-2.47,3.33,3.33,0,0,0-1.23-5.06s2-1.62,1.55-3.39-2.21-2.87-3.17-4,.81-2,1.25-3.09a10.06,10.06,0,0,0,.15-4.78c-1-4-17.15-1.33-17.15-1.33-5.3.74-10.83,3.54-10.68,5.3s3.09,4.86,3.54,5.3-1.33.45-1.77,2.21a7.09,7.09,0,0,0,.88,4.86c.59.88-1.18,2.36-.14,5.15a21.88,21.88,0,0,0,1.91,4.13L119.48,120s-1,3.23,0,5.44a10.21,10.21,0,0,0,2.21,3.39c.88,1,2.35,2.55,1.62,3.78a15.78,15.78,0,0,0-1.47,4c-.32,1.19-1,3.73-.15,4.62a8.43,8.43,0,0,1,1.82,2.79l.53,1.18,39.61,299.18s-4.71-.74-2.8,3.09,5.45,3.83,5.3,5.6.92,2.56-.65,3.63-2.29,1.52-2.44,3.29-.59,3.82.88,4.86,3.54,2.79,3.54,2.79l7.21,72.29s-5.74.89-6.48,3.39a15,15,0,0,1-1.62,3.83s-4.85,2.94-4.56,6-.88,8.09,1.91,9.42,9.13,2.8,10.75,4.71,6.63,4.56,8.84,7.66,5.15,7.8,5.15,7.8-9.28,2.65-11,5.3-5.33,5.35-3.55,9.3,2.81,8,8,7.48,20.62-5,23.12-5,8.69-1,10.89-1.33,14.58.89,15-1.91a67,67,0,0,0,.44-7.8s5.46-4.21,9.72-4,13.55-1.62,18.55-2.06,4.27-2.21,9.87-.44a44.4,44.4,0,0,1,11.78,5.44c3.53,2.21,2.06,4,5.89,4.42s6.77.3,8.24-1,.59-1,2.8-2.35,4.71-1,4.42-3.54-5.31-9.86-7.37-11.33-7.36-2.51-7.51-3.69,4.57-5.59,4.57-7.36-1.47-6.77.88-7.65,5-.45,3.54-2.21-3.39-5.89-4.42-6.63a6.59,6.59,0,0,0-1.89-1L419.64,173.67,429.06,144S433.18,125.77,427.88,119.09Zm-46.72,49.08L200.54,521.57l-2.58.7s-9.57-55.66-10.16-57.13.09-1.77.68-2.8,1-.88,1.62-3-.88-3-1.27-4-3-2.35-3.63-2.75,0-1.32,0-1.47a23,23,0,0,1,1.47-2,8.63,8.63,0,0,0,1.67-4.27c.14-1.82-2.8-5.15-3.58-5.91s-.74-2.78-.74-2.78-36.38-283.36-36.74-285a96.52,96.52,0,0,1-.88-9.73c-.19-3.34,1.15-2.86,1.82-5.15s-1.05-4.58-2.77-5.54-1.81-1.43-2.67-2.76,0-1.53,1.05-2.58a30.28,30.28,0,0,0,3.45-3.81c1.36-1.82-2.78-4.3-3.93-5.06s4.58-6.11,8-8.11c0,0,9.63-6.89,26.81-10.82s40.34,10.41,40.34,10.41c6.18,2.65,51.24,39.36,51.24,39.36,24,19.14,44.46,22.67,57.71,24.24s27.19-6.28,27.19-6.28c5-2.46,22-12.07,24.93-14.52s7.36-5.6,9.54-6,1.36.36,1.85,2.13S381.16,168.17,381.16,168.17Z" fill="#b17840"/>
      <path d="M155.75,60.18l4.11,34.52s35.94-13,69.79,16.39c31,26.94,56.4,48.86,88.22,57,9,2.33,25.85-.69,35.3-5.58a158.72,158.72,0,0,0,15.35-8.91s-25.77,11-43.27,11.46c-19.13.47-48.13-23.66-62.1-39.68s-56.25-50.61-76-58.54C168.52,59.45,155.75,60.18,155.75,60.18Z" fill="#8c5521"/>
      <circle cx="356.74" cy="151.94" r="4.45" fill="#ebcab7"/>
      <circle cx="368.52" cy="146.64" r="4.45" fill="#ebcab7"/>
      <circle cx="345.16" cy="156.39" r="4.45" fill="#ebcab7"/>
      <circle cx="320.79" cy="156.39" r="4.45" fill="#ebcab7"/>
      <circle cx="333.22" cy="158.11" r="4.45" fill="#ebcab7"/>
      <circle cx="297.16" cy="146.09" r="4.45" fill="#ebcab7"/>
      <circle cx="309.27" cy="151.94" r="4.45" fill="#ebcab7"/>
      <circle cx="277.26" cy="129.88" r="4.45" fill="#ebcab7"/>
      <circle cx="258.35" cy="112.06" r="4.45" fill="#ebcab7"/>
      <circle cx="267.52" cy="120.97" r="4.45" fill="#ebcab7"/>
      <circle cx="286.85" cy="138.79" r="4.45" fill="#ebcab7"/>
      <circle cx="231.55" cy="86.55" r="4.45" fill="#ebcab7"/>
      <circle cx="241.42" cy="93.71" r="4.45" fill="#ebcab7"/>
      <circle cx="250.33" cy="102.62" r="4.45" fill="#ebcab7"/>
      <circle cx="221.11" cy="76.51" r="4.45" fill="#ebcab7"/>
      <circle cx="209.48" cy="69.98" r="4.45" fill="#ebcab7"/>
      <circle cx="198.63" cy="62.44" r="4.45" fill="#ebcab7"/>
      <circle cx="160.97" cy="53.53" r="4.45" fill="#ebcab7"/>
      <circle cx="174.92" cy="54.32" r="4.45" fill="#ebcab7"/>
      <circle cx="188.39" cy="56.98" r="4.45" fill="#ebcab7"/>
      <path d="M383.46,162.34c-2.06.47-3.63,3.35-2.72,4.13s5.72,6.36,7.45,6.8,31.95,1.29,33.14,0,2.31-5.3.13-5.24-30.47.38-30.47.38Z" fill="#4b2d15"/>
      <polygon points="132.63 39.78 129.26 40.69 141.2 110.64 131.01 41.64 132.63 39.78" fill="#8c5521"/>
      <path d="M411,109.48c3.93,4.17,6.94,4.4,2.08,14.36s-11.58,18.51-13,22.8-3.47,9.75-3.47,9.75.23-11.6,1.62-14.2,3.24-2.93,6-9.25,6.72-11.71,6.49-16.42-3-6.34-5.79-7Z" fill="#8c5521"/>
      <line x1="368.52" y1="146.64" x2="378.38" y2="185.66" fill="none" stroke="#292929" stroke-miterlimit="10" stroke-width="1.34"/>
      <line x1="356.74" y1="151.94" x2="369.53" y2="204.67" fill="none" stroke="#292929" stroke-miterlimit="10" stroke-width="1.34"/>
      <line x1="345.16" y1="156.39" x2="362.56" y2="218.08" fill="none" stroke="#292929" stroke-miterlimit="10" stroke-width="1.34"/>
      <line x1="333.22" y1="158.11" x2="353.27" y2="235.79" fill="none" stroke="#292929" stroke-miterlimit="10" stroke-width="1.34"/>
      <line x1="320.79" y1="156.39" x2="345.91" y2="250.13" fill="none" stroke="#292929" stroke-miterlimit="10" stroke-width="1.34"/>
      <line x1="309.27" y1="151.94" x2="339.08" y2="264.29" fill="none" stroke="#292929" stroke-miterlimit="10" stroke-width="1.34"/>
      <line x1="297.16" y1="146.09" x2="331.99" y2="279.46" fill="none" stroke="#292929" stroke-miterlimit="10" stroke-width="1.34"/>
      <line x1="286.85" y1="138.79" x2="323.48" y2="294.6" fill="none" stroke="#292929" stroke-miterlimit="10" stroke-width="1.34"/>
      <line x1="277.26" y1="129.88" x2="311.64" y2="317.75" fill="none" stroke="#292929" stroke-miterlimit="10" stroke-width="1.34"/>
      <line x1="267.52" y1="120.97" x2="303.01" y2="335.4" fill="none" stroke="#292929" stroke-miterlimit="10" stroke-width="1.34"/>
      <line x1="258.35" y1="112.06" x2="291.3" y2="354.29" fill="none" stroke="#292929" stroke-miterlimit="10" stroke-width="1.34"/>
      <line x1="250.33" y1="102.62" x2="282.39" y2="371.09" fill="none" stroke="#292929" stroke-miterlimit="10" stroke-width="1.34"/>
      <line x1="241.42" y1="93.71" x2="271.98" y2="392.79" fill="none" stroke="#292929" stroke-miterlimit="10" stroke-width="1.34"/>
      <line x1="231.55" y1="86.55" x2="260.68" y2="421.47" fill="none" stroke="#292929" stroke-miterlimit="10" stroke-width="1.34"/>
      <line x1="221.11" y1="76.51" x2="247.91" y2="444.47" fill="none" stroke="#292929" stroke-miterlimit="10" stroke-width="1.34"/>
      <line x1="209.48" y1="69.98" x2="236.59" y2="467.83" fill="none" stroke="#292929" stroke-miterlimit="10" stroke-width="1.34"/>
      <line x1="198.63" y1="62.44" x2="225.38" y2="495.35" fill="none" stroke="#292929" stroke-miterlimit="10" stroke-width="1.34"/>
      <line x1="188.39" y1="56.98" x2="217.6" y2="507.26" fill="none" stroke="#292929" stroke-miterlimit="10" stroke-width="1.34"/>
      <line x1="174.92" y1="54.32" x2="212" y2="517.11" fill="none" stroke="#292929" stroke-miterlimit="10" stroke-width="1.34"/>
      <line x1="160.97" y1="53.53" x2="207.75" y2="526.97" fill="none" stroke="#292929" stroke-miterlimit="10" stroke-width="1.34"/>
      <polygon points="382.73 173.95 205.02 530.36 209.48 530.36 386.27 176.21 382.73 173.95" fill="#8c5521"/>
    </g>
  </g>
  <g clip-path="url(#clip-path-2)">
    <g>
      <polygon points="116.88 -35.14 284.02 39.5 386.33 -110.96 234.39 -166.32 116.88 -35.14" fill="#412f1f"/>
      <polygon points="103.78 -190.77 116.88 -35.14 284.02 39.5 365.01 -79.6 298.03 -116.79 103.78 -190.77" fill="#583316"/>
    </g>
  </g>
</svg>
