<svg id="be548549-12fb-47a6-a855-7d688e9f5b75" data-name="Layer 1" xmlns="http://www.w3.org/2000/svg" xmlns:xlink="http://www.w3.org/1999/xlink" width="176.389mm" height="105.833mm" viewBox="0 0 500 300">
  <defs>
    <clipPath id="b95dc0fa-c977-4867-8df0-6e4b0b3181e8">
      <rect x="69.41" width="361.179" height="300" style="fill: none"/>
    </clipPath>
  </defs>
  <title>pic-9</title>
  <g style="clip-path: url(#b95dc0fa-c977-4867-8df0-6e4b0b3181e8)">
    <g>
      <path d="M427.884,119.093c-5.3-6.675-15.312-13.546-22.968-14.135a68.513,68.513,0,0,0-33.649,6.376c-12.877,6.188-24.851,19.734-36.041,18.36s-12.957,2.355-34.158-17.668S238.248,49.4,225.291,44.1s-21.4-18.846-64.978-15.116c0,0-18.257,3.337-25.913,8.834,0,0-1.936-.861-.661-2.467a3.332,3.332,0,0,0-1.229-5.066s1.988-1.62,1.546-3.387-2.208-2.871-3.165-3.975.809-1.988,1.251-3.092a10,10,0,0,0,.147-4.785c-.957-4.012-17.152-1.325-17.152-1.325-5.3.736-10.822,3.534-10.675,5.3s3.092,4.859,3.534,5.3-1.325.442-1.767,2.208a7.09,7.09,0,0,0,.883,4.859c.589.883-1.178,2.356-.147,5.153a21.739,21.739,0,0,0,1.912,4.123l10.6,79.358s-1.031,3.239,0,5.448a10.162,10.162,0,0,0,2.209,3.386c.883,1.031,2.355,2.55,1.619,3.778a15.869,15.869,0,0,0-1.472,3.976c-.32,1.192-1.031,3.73-.147,4.614a8.323,8.323,0,0,1,1.819,2.8l.536,1.178L163.65,444.38s-4.712-.736-2.8,3.092,5.447,3.828,5.3,5.594.912,2.562-.648,3.637-2.3,1.517-2.444,3.284-.589,3.827.884,4.858,3.533,2.8,3.533,2.8l7.215,72.291s-5.743.883-6.479,3.387a15.227,15.227,0,0,1-1.619,3.828s-4.859,2.945-4.565,6.036-.883,8.1,1.915,9.423,9.128,2.8,10.748,4.712,6.625,4.564,8.833,7.655,5.154,7.8,5.154,7.8-9.276,2.65-11.043,5.3-5.331,5.351-3.549,9.3,2.809,7.979,7.966,7.484,20.613-5.006,23.116-5.006,8.687-1.031,10.9-1.325,14.576.883,15.018-1.914a66.881,66.881,0,0,0,.441-7.8s5.455-4.205,9.718-3.976,13.545-1.619,18.551-2.061,4.27-2.209,9.865-.441a44.133,44.133,0,0,1,11.778,5.447c3.534,2.208,2.062,3.976,5.89,4.417s6.773.294,8.245-1.031.589-1.03,2.8-2.355,4.712-1.031,4.417-3.534-5.3-9.865-7.361-11.337-7.362-2.5-7.509-3.68,4.564-5.6,4.564-7.363-1.472-6.772.883-7.656,5.006-.441,3.534-2.208-3.386-5.889-4.417-6.626a6.533,6.533,0,0,0-1.892-.966L419.639,173.667l9.423-29.643S433.185,125.767,427.884,119.093ZM381.162,168.17l-180.624,353.4-2.583.692s-9.57-55.654-10.159-57.126.1-1.767.687-2.8,1.031-.883,1.62-2.993-.884-3.044-1.276-3.976-2.945-2.356-3.632-2.748,0-1.325,0-1.472a22.886,22.886,0,0,1,1.472-1.964,8.55,8.55,0,0,0,1.669-4.27c.147-1.815-2.8-5.152-3.573-5.9s-.746-2.782-.746-2.782-36.373-283.359-36.734-284.981a96.975,96.975,0,0,1-.879-9.732c-.191-3.339,1.145-2.862,1.813-5.151s-1.05-4.58-2.767-5.534a5.733,5.733,0,0,1-2.672-2.767c-.858-1.336,0-1.527,1.05-2.576a30.727,30.727,0,0,0,3.455-3.817c1.357-1.812-2.788-4.293-3.932-5.056s4.579-6.106,8.014-8.11c0,0,9.635-6.888,26.812-10.814s40.342,10.4,40.342,10.4c6.184,2.65,51.237,39.361,51.237,39.361,24.048,19.14,44.465,22.674,57.715,24.244s27.189-6.282,27.189-6.282c5.023-2.466,21.987-12.073,24.932-14.527s7.361-5.595,9.539-5.958,1.356.363,1.847,2.13S381.162,168.17,381.162,168.17Z" style="fill: #b17840"/>
      <path d="M155.745,60.183l4.11,34.515s35.943-12.98,69.792,16.4c31.036,26.934,56.4,48.861,88.223,57.05,9.036,2.325,25.852-.7,35.305-5.58a160.5,160.5,0,0,0,15.343-8.909s-25.765,11.031-43.271,11.459c-19.131.468-48.126-23.661-62.094-39.688s-56.254-50.6-76.046-58.532C168.521,59.447,155.745,60.183,155.745,60.183Z" style="fill: #8d572c"/>
      <circle cx="356.739" cy="151.939" r="4.454" style="fill: #ebcbb8"/>
      <circle cx="368.518" cy="146.643" r="4.454" style="fill: #ebcbb8"/>
      <circle cx="345.156" cy="156.393" r="4.454" style="fill: #ebcbb8"/>
      <circle cx="320.793" cy="156.393" r="4.454" style="fill: #ebcbb8"/>
      <circle cx="333.222" cy="158.109" r="4.454" style="fill: #ebcbb8"/>
      <circle cx="297.156" cy="146.087" r="4.454" style="fill: #ebcbb8"/>
      <circle cx="309.273" cy="151.939" r="4.454" style="fill: #ebcbb8"/>
      <circle cx="277.26" cy="129.88" r="4.454" style="fill: #ebcbb8"/>
      <circle cx="258.346" cy="112.062" r="4.454" style="fill: #ebcbb8"/>
      <circle cx="267.524" cy="120.971" r="4.454" style="fill: #ebcbb8"/>
      <circle cx="286.848" cy="138.788" r="4.454" style="fill: #ebcbb8"/>
      <circle cx="231.55" cy="86.552" r="4.454" style="fill: #ebcbb8"/>
      <circle cx="241.423" cy="93.714" r="4.454" style="fill: #ebcbb8"/>
      <circle cx="250.332" cy="102.623" r="4.454" style="fill: #ebcbb8"/>
      <circle cx="221.108" cy="76.513" r="4.454" style="fill: #ebcbb8"/>
      <circle cx="209.476" cy="69.982" r="4.454" style="fill: #ebcbb8"/>
      <circle cx="198.625" cy="62.439" r="4.454" style="fill: #ebcbb8"/>
      <circle cx="160.966" cy="53.53" r="4.454" style="fill: #ebcbb8"/>
      <circle cx="174.924" cy="54.316" r="4.454" style="fill: #ebcbb8"/>
      <circle cx="188.389" cy="56.984" r="4.454" style="fill: #ebcbb8"/>
      <path d="M383.464,162.336c-2.068.473-3.634,3.359-2.721,4.129s5.721,6.369,7.448,6.8,31.951,1.3,33.139,0,2.312-5.295.131-5.238-30.466.38-30.466.38Z" style="fill: #4b2f1b"/>
      <polygon points="132.63 39.783 129.258 40.687 141.198 110.641 131.009 41.636 132.63 39.783" style="fill: #8d572c"/>
      <path d="M410.967,109.483c3.937,4.168,6.947,4.4,2.084,14.357s-11.578,18.514-12.967,22.8-3.474,9.75-3.474,9.75.232-11.6,1.621-14.2,3.242-2.932,6.021-9.251,6.715-11.7,6.483-16.421-3.01-6.339-5.789-7.034Z" style="fill: #8d572c"/>
      <line x1="368.518" y1="146.643" x2="378.378" y2="185.657" style="fill: none;stroke: #292929;stroke-miterlimit: 10;stroke-width: 1.34145755620616px"/>
      <line x1="356.739" y1="151.939" x2="369.532" y2="204.666" style="fill: none;stroke: #292929;stroke-miterlimit: 10;stroke-width: 1.34145755620616px"/>
      <line x1="345.156" y1="156.393" x2="362.562" y2="218.076" style="fill: none;stroke: #292929;stroke-miterlimit: 10;stroke-width: 1.34145755620616px"/>
      <line x1="333.222" y1="158.109" x2="353.268" y2="235.791" style="fill: none;stroke: #292929;stroke-miterlimit: 10;stroke-width: 1.34145755620616px"/>
      <line x1="320.793" y1="156.393" x2="345.908" y2="250.125" style="fill: none;stroke: #292929;stroke-miterlimit: 10;stroke-width: 1.34145755620616px"/>
      <line x1="309.273" y1="151.939" x2="339.078" y2="264.294" style="fill: none;stroke: #292929;stroke-miterlimit: 10;stroke-width: 1.34145755620616px"/>
      <line x1="297.156" y1="146.087" x2="331.986" y2="279.458" style="fill: none;stroke: #292929;stroke-miterlimit: 10;stroke-width: 1.34145755620616px"/>
      <line x1="286.848" y1="138.788" x2="323.476" y2="294.598" style="fill: none;stroke: #292929;stroke-miterlimit: 10;stroke-width: 1.34145755620616px"/>
      <line x1="277.26" y1="129.88" x2="311.645" y2="317.747" style="fill: none;stroke: #292929;stroke-miterlimit: 10;stroke-width: 1.34145755620616px"/>
      <line x1="267.524" y1="120.971" x2="303.015" y2="335.404" style="fill: none;stroke: #292929;stroke-miterlimit: 10;stroke-width: 1.34145755620616px"/>
      <line x1="258.346" y1="112.062" x2="291.302" y2="354.294" style="fill: none;stroke: #292929;stroke-miterlimit: 10;stroke-width: 1.34145755620616px"/>
      <line x1="250.332" y1="102.623" x2="282.394" y2="371.087" style="fill: none;stroke: #292929;stroke-miterlimit: 10;stroke-width: 1.34145755620616px"/>
      <line x1="241.423" y1="93.714" x2="271.978" y2="392.794" style="fill: none;stroke: #292929;stroke-miterlimit: 10;stroke-width: 1.34145755620616px"/>
      <line x1="231.55" y1="86.552" x2="260.683" y2="421.467" style="fill: none;stroke: #292929;stroke-miterlimit: 10;stroke-width: 1.34145755620616px"/>
      <line x1="221.108" y1="76.513" x2="247.905" y2="444.466" style="fill: none;stroke: #292929;stroke-miterlimit: 10;stroke-width: 1.34145755620616px"/>
      <line x1="209.476" y1="69.982" x2="236.588" y2="467.83" style="fill: none;stroke: #292929;stroke-miterlimit: 10;stroke-width: 1.34145755620616px"/>
      <line x1="198.625" y1="62.439" x2="225.379" y2="495.347" style="fill: none;stroke: #292929;stroke-miterlimit: 10;stroke-width: 1.34145755620616px"/>
      <line x1="188.389" y1="56.984" x2="217.604" y2="507.258" style="fill: none;stroke: #292929;stroke-miterlimit: 10;stroke-width: 1.34145755620616px"/>
      <line x1="174.924" y1="54.316" x2="212.002" y2="517.115" style="fill: none;stroke: #292929;stroke-miterlimit: 10;stroke-width: 1.34145755620616px"/>
      <line x1="160.966" y1="53.53" x2="207.748" y2="526.972" style="fill: none;stroke: #292929;stroke-miterlimit: 10;stroke-width: 1.34145755620616px"/>
      <polygon points="382.733 173.95 205.022 530.364 209.476 530.364 386.266 176.213 382.733 173.95" style="fill: #8d572c"/>
    </g>
  </g>
</svg>
