<svg id="Layer_1" data-name="Layer 1" xmlns="http://www.w3.org/2000/svg" xmlns:xlink="http://www.w3.org/1999/xlink" viewBox="0 0 500 300">
  <defs>
    <clipPath id="clip-path">
      <rect x="91.17" y="-1001.28" width="358.03" height="300" fill="none"/>
    </clipPath>
    <clipPath id="clip-path-2">
      <rect x="34.62" y="-996.84" width="427.46" height="427.46" transform="translate(872.04 -1317.86) rotate(-148.2)" fill="none"/>
    </clipPath>
    <clipPath id="clip-path-3">
      <rect x="20.31" y="0.05" width="468.15" height="299.95" fill="none"/>
    </clipPath>
  </defs>
  <title>pic-7</title>
  <g clip-path="url(#clip-path)">
    <g clip-path="url(#clip-path-2)">
      <g>
        <path d="M453.85-650.65c.13-.31-.22-1.19-.41-1.21-1.32-.13-1.57,1.15-2.24,1.88-2.24-1.18-3-2.66-2.35-5.42,1.32-5.39,3.34-10,9-11.9h0a3.5,3.5,0,0,1,2,2.55c2.53,14.39,5.85,28.66,4.16,43.49a104,104,0,0,0-.38,20.95c.5,5.83.67,11.85-.88,17.48-2,7.25-5.69,14.07-7.27,21.38-1.49,6.88-4.54,13.76-3.7,20.83,1.19,10.08,4,19.92.35,30.12-1.18,3.26-1.06,7.13-.91,10.7a64.67,64.67,0,0,1-1.67,19,75,75,0,0,0-2.33,22.44c1.2,24.59-5.38,47-18.78,67.6-7.18,11-16.27,20.48-24.61,30.54-1.57-4.37-5.57-6.4-9.34-7s-5.92-2.76-8.72-4.37a14.76,14.76,0,0,0-6.92-2.36c-6.24-.48-13.84.17-17.71-7.39-1.21-2.36-4.33-2.33-6.74-1.57-2.8.89-4.7.51-7.17-1.44s-5.94-2.33-9.82-2.2c-4.23.14-8.85-3.7-12.82-6.49-2.44-1.71-5.45-3.68-5.43-7.49-4,.06-3.51-7.93-9.09-5-.7.37-2,.21-1.45-.68,1.84-3.31-5.63-4.77-1.56-8.15,2.13-1.78,2.44-3,1.75-6.06-.77-3.31,2.41-4.83,6.33-4.73,6.8.16,13.57-.13,20,3,.28-.45.56-.9.83-1.35-3.06-3.78-5.71-8.06-9.35-11.17-2.35-2-5.68,0-8.51,1.27-3,1.37-6.9,3.55-6.73-2.94,0-.52-.28-1.44-.59-1.51-7.62-1.84-6.72-12.05-14.29-14.29a9.83,9.83,0,0,1-6.54-7.74c-.16-.84-1.53-1.64-1.43-2.31,1-6.23-9.05,1.95-7.16-5.61,1.18-4.72-5-5.6-5.67-9.54-.75-4.5-5.59-5.28-7.83-8.53a7.18,7.18,0,0,0-5.47-2.72A25,25,0,0,1,243.11-499c-4.11-5.55-10.74-5.89-16.2-8.67a1.37,1.37,0,0,0-2.15,1c-.76,3-2.42,1.69-3.77.7-1.64-1.2-3.16-.88-4.79-.12s-4.56.07-4.84,2.15c-.37,2.81,2.85,2.19,4.47,3.19,4.18,2.58,5.67,7.34,7.85,11.31,3.08,5.63,3.53,12,2.36,18.47-.48,2.64-.62,3.52-3.7,3-5.37-1-7.27,1.16-6.44,6.67,2.11,14.06,6,27.8,6.78,42.13.65,12.1.31,24-7.2,33.95-8.21,10.85-9.76,23.29-11.24,36-.53,4.62.16,9.55-5.59,12.18-1.42.65-2.52,5.41-1.59,7.05,2.13,3.77.38,7.18.78,11,2.92-4.4,9-5.8,9.31-12.81.16-3.86,4.53-6.7,8.09-8.91a2,2,0,0,1,3.34,1.66c.46,4.83,2.66,2.3,4.17,1a36.59,36.59,0,0,1,13-7.85c4.4-1.43,4.12-5.87,5.26-9.32.13-.38-.28-1.11-.65-1.47-2.9-2.83-2.87-4.1,1.52-5.35,3.83-1.08,4.11-2.56,2-5.8,3.78,3,7.36-.61,10.77.66-5.83,2.1-5.78,8.29-8.77,12.16a34.35,34.35,0,0,0-5,9.72c-1.59,4.3.44,11.48,4.17,13.8,1.46.91,2.88,2.25,4.85,0,2.59-2.9,2.1-8.61,7.77-8.7-.06-2.31-.43-4.58-2.4-6-4.35-3.2-4.24-6.37-.7-10.25,5.49-6,5.35-7.55,0-10.71,4.7-.77,8.25,2.85,12.65,3.38,1,.12,1.1,1.87,1,3s-.76.78-1.57.6c-5.32-1.21-4.39,2-2.71,4.52,1.76,2.68,2.91,4.64,1.95,8.35-1,3.95,3.42,6.81,5.33,10.21.86,1.53,2.27.14,2.9-1.17s-.38-2.65-.26-3.82c.25-2.31.69-5.22,2.94-6.12,2.52-1,2.34,2.29,3.51,3.55s2.24,2.89,4.12,5.35c-1.39-7.89-2.79-14.14-10.5-16.38a2,2,0,0,1-.57-3.69c5.78-4,2.7-6.27-1.41-8.54-.37-.2-.49-.86-.88-1.59,2.57-1.24,4,.78,5.7,1.58,4.1,2,8,4.26,12.15,6.18s5.09,4.35,1.75,7.8c-.74.76-2.28,1.26-1.07,2.57a6.49,6.49,0,0,0,3.26,2.11c1.51.28,1.5-1.39,1.72-2.42,1.11-5.15.83-10.49,1.37-15.69.24-2.24-4.58-5.45-7.26-8-4.66-4.43-8.64-9.49-14.68-12.68-4.52-2.38-9.34-5.46-11.46-11-.56-1.45-2.2-2.48-4.17-4.59,6.58,1.62,11.17,5.08,15.7,8.06,18.82,12.39,38.28,23.89,56,37.95,9.47,7.52,20.86,12.12,29.73,20.72,2.62,2.54,8.14,3.56,12.75,3.8,5.85.3,8.87-3,10.65-8a42.27,42.27,0,0,0,3,3.27c8.65,7.68,16.09,16,17.29,28.32.31,3.27,2.07,6.38,2.81,9.64,1.06,4.65,3.71,9.18,1.48,14.19h0c-1.86-1-1.92-4.73-5.69-3.39,2.6,3.54-.7,6.76-.84,10.35-.13,3.31,2.09,7.41-1.2,10.63-.94.91.58,2.06,1.26,2.84,3.75,4.26,2.55,8.87.23,12.89-2.83,4.92-4.91,10.21-7.81,15-7,11.52-14.17,22.89-21.4,34.25a23.69,23.69,0,0,0-4,11c-.36,5.52-2.66,10.34-5.23,14.82-6.94,12.11-11.06,25-13.48,38.69-1.88,10.57-2.11,21.47-6.08,31.64-.69-.56-1.45-1.68-2.07-1.61-3.54.44-9.39,10.5-8.64,14.61-2.25,4.69-5.82,8.3-9.68,11.66-1.82-1.26-4.24,2-5.86-.79-.41,1-.85,2-1.23,3.09-.94,2.61,1.25,3.1,2.76,4.06-2.23,3.39-6,6-6.23,10.41-.27,4.6-2,8.78-2.89,13.17-1.66,8.18-4.9,16.3-1.75,25,.82,2.27,1.17,5.23-.69,7.62-1.38-.53-3.57-2.7-4.08-.52-1.13,4.86-8.4,4.47-7.95,10,.14,1.77,1.67,3.58,3.47,2.71,2.31-1.1,6-1.22,5.91-5.05-.1-2.87-.16-5.52,2.64-7.25,3.68,5.57,5,11.07,2.57,17.93-2.61,7.41-6.75,14.43-7.23,22.49-.31,5.18-2.49,5.15-6.1,2.82q-13.49-8.7-27-17.32A53.72,53.72,0,0,0,266.08.93c-1.47-1.85-3-2.05-4.08.53a279.47,279.47,0,0,1-24.61-15.14c-.62-5.16-5.83-5.76-8.76-8.61-.5-.48-1.56,1.13-1.8,2.24l-1-.67c.63-3.69-4.49-11-8.13-11.4a6.74,6.74,0,0,1-3.42-1.74c-3.31-2.4-5.17-1.51-5.84,2.4l-2-1.26c3.25-1.62,3.38-4.24,2.66-7.39-.67-2.91-2.66-.85-3.95-1.32,2.72-2,5.54-3.79,7.28-7,1.41-2.58,1.64-5.42-.17-7-2-1.74-2.71,1.53-4,2.58-2.58,2.11-6.64,2.54-7.52,6.64a2.55,2.55,0,0,1-2,.17c-4.86-3.44-6,.47-7.45,3.7l-8.1-5c1.22-2.64,4.34-5.12,1.08-8.23-3.68-3.51-4.65-3.05-8.21,3.51-5.38-1.87-8.52-7.36-14.18-8.76,3.57-3.18,2.22-6-.87-8.85l-4.67,5.74c-4.84-2.1-4-5.4-1.57-8.67,2.09-2.85,1.64-4.64-1.48-6.14A32.78,32.78,0,0,1,140.72-89c-2.82-3.94-8.65-3.54-10.83-8.12.67-.84.91-3.3,2.48-.61,1.21,2.07,2.93,1.65,4.23.35,2.38-2.34-.42-4-1.12-5.91-.84-2.31-2.34-.89-2.95-.16-1.29,1.56-3.39,2.47-3.94,4.65a4.22,4.22,0,0,1-3.41-2.32c6.12-3.33.83-7.79,1.83-12.79-3.67,2.83-6.24,5-7.72,8.21-7.55-.54-9.84-7.63-14.55-11.7,6.25-1.84,3.82-6.34,3.06-10.25-.28-1.47-1.89-1.33-2.8-1.13-3.59.77-6.07-1.18-8.6-3.11-5.89-4.5-5.88-4.51-7.78,2.71a7.32,7.32,0,0,1-2-.83c-8.29-7.1-8.3-7.13-13.84,1.72a30,30,0,0,0-3.2,6c-1,2.85-2.54,3-4.73,1.67Q36.41-138.32,8-156.06c-1.52-7.41-.81-8.07,6.53-5.67,3.24,1,6.34,2.49,9.56,3.62s5.75,2.8,9.3-.24c2.93-2.52,9.11.57,10.3,4.79.64,2.31,1.52,3.76,3.75,4.35,6.12,1.63,12.27,3.16,18.94,6.55a63.73,63.73,0,0,1-1.9-13.82c15.32-2.92,30.59-5.13,44.6-12.6,1.25,1.73-1.83,3.46.16,4.55,1.63.89,2.61-.92,3.87-1.63,6.44-3.64,11.1-9.77,18.62-12.21a42.85,42.85,0,0,1,7.23-1.28c7.93-1.19,16.07-4.15,23.92.47-1.15,3.28-3.73,1.47-5.71,1.49-1.54,0-3.2-.46-3.36,1.76-.12,1.73,1.05,2.31,2.61,3,5,2.29,9.8,3.11,15,.93,1.37-.57,4.32,1.64,4-1.65a4.15,4.15,0,0,0-5.43-3.48c-3.08.91-5-.06-6.89-2.15,1.34-2.56,3.95-2.61,6.29-3.09,1.88-.39,3.69-.77,5.05-2.28,1.79-2,3.92-17.1,2.71-19.4a5.14,5.14,0,0,0-.57-.91c-5.17,2.44-4.43-4.06-7.38-4.87-4.24-1.16-3.75-5.71-6-8.29a1.8,1.8,0,0,1,.65-2.5c1.18-.72,2-.1,2.74,1,1.83,2.88,4.15,4.6,7.16,2.71,2.73,2-3.86,4,.58,5.34,1.35.4,3.06,3.23,4.77.54,1.31-2.06,2.82-4.33-.24-6.31l0,.12c.91-1,1.1-3.28,3.23-2.14,1.57.85,2.9,2.43,1.9,4.22-2.83,5,1.73,10.29-.73,15.37-.8,1.64.28,3.46,2.33,3.79,2.51.4,2.69-1.79,2.86-3.34.94-8.3,2.42-16.76-4.7-23.47-1.78-1.69-.34-4.44-2-6.28-.65-.72-1.09-1.73-2.12-1.29a2.4,2.4,0,0,0-.9,1.88c0,2,.75,5.51-.76,5.68-3,.32-6.92-.17-9-2-2.41-2.06-4-1.37-6.5-.62,4.27-3,1.52-10.67,8.45-11.53.72-.09.94-1.2.53-1.93a1.75,1.75,0,0,0-2.83-.61c-1.7,1.23-3,3.87-5.65,1.45-2.23-2.05-1.35-4.21-.69-6.72s-1-5.79,4.33-4.88c2.08.36,3.73-4,4.07-6.83,1-8.47,5.78-16,6.06-24.61,0-1,.23-2,1.51-1.87s1.27,1.28,1.09,2.21c-1.34,6.87,2.22,14.75-4.72,20.52-3.1,2.57.38,7-1.72,10.19,3.91-.92,5.18,3,7.9,4.23a1.14,1.14,0,0,0,1.5-1.57c-2.91-4.9,4.1-7.35,2.82-11.85-.17-.58.92-1.11,1.76-.88a1.3,1.3,0,0,1,.89,1.79c-.66,2-1.41,3.91-2.19,5.83-.49,1.22-1.46,2.54.17,3.46a3,3,0,0,0,3.67-.73,16.23,16.23,0,0,0,3.14-5.29c1.13-3.7,2.07-7.34,6.15-8.93,1.29-.5,1.25-1.61,1.39-2.79,1-8.29,2.25-16.72,6.34-23.94,2.11-3.73,1.15-7.71,3.15-11.11a1.59,1.59,0,0,0-.73-2.38c-1.09-.56-1.69.22-2.34.94-2.1,2.34-2.1,5.64-3.78,8.16-.75,1.14-1.73,2.29-3.22,1.58a2,2,0,0,1-.45-3.36c2.47-2.1,4-3.88,2.73-7.66-.81-2.4,2.9-4.85,1.67-8.27-4.73.59-5,4.77-6.28,8s-1.19,3.4-5.5,3.81c-.73-2.07,1.92-2,2.21-3.42.36-1.83,0-3.58-1.38-4.61-1.89-1.36-2.56.65-3.41,1.78-1.3,1.75-2.54,3.55-3.69,5.17-3.92-4.65-.32-8.15,1.3-12.37,1.44-3.73,1.49-8.36.85-12.39-.51-3.26-7-3.34-10.2-.22-1.53,1.52-3.24,3-3.66,5.3-2.34-1-1.11-2.07-.72-3s1.65-2.69,1.42-2.92c-6-5.8,1.89-12.88-1.69-18.55-2-3.1-1.4-5.17.58-7.56.21-.26.33-1,.23-1-6.95-4.16,1.32-10.9-2.59-15.73-.44-.55-.46-3.68,1.78-4.18,1.58-.35,2.16,1.19,2.61,2.47.87,2.48,2.71,1.57,4.25,1.1,2.22-.68,6.36-10.14,5-12-4-5.33-3.39-11.2-4-17.34-.47-4.53,2.45-10.53-2.54-14.46l0,.13c-.55-3.84.82-7.83-.82-11.57-.32-.75-.73-1.56-.12-2,5.88-4.5,1.94-10.58,2.71-16.31l-4.7,2.54c1.79-4.34,4.75-7.68,3.15-11.85-5.37,2.77-7.48,9.25-8.31,15.14-1,7.25.82,14.35-1,21.8-1.4,5.8-3.11,13-1.6,18.53,1.32,4.84-1,10.64,3.61,14.92,1.93,1.81.88,5.07-1.35,7-1.2,1-2.81,2.33-2.56,3.56,1.33,6.86-3.31,12.86-2.51,19.54.27,2.2-1.75,3-2.24,4.93-2.41,9.48-1.8,19.48-5,28.78-1.32,3.79,3.14,4.89,3.55,8.57.59,5.38-2.1,4.94-4.68,4.23-2.14-.59-3.49-1-4.59.85-.14-3,5-3.58,3.69-7.12-.5-1.42-2.32-.1-3.95.36,1.38-3.72,4.38-5.86,4.54-9.58.11-2.48.78-4.34-.94-7-1.49-2.29,0-6.07,1.25-9.07.93-2.17,3.1-5-1.92-5.45-1.69-.14-2.12-1.46-1.61-3.42,1.14-4.32,2.36-9.36,1.72-13.15-1.16-6.86-.34-13.84-2.1-20.57-1-3.71.32-6.79,3.93-8.12,3-1.11,4.28-2.85,4.08-6.15a7.4,7.4,0,0,0-6.79,2.85c-.62.75-1.47,1.45-2.43.83-1.29-.82-.65-1.94-.15-3,.57-1.19,1.11-2.4,1.66-3.59,2.52-5.45,2.52-5.45-.5-10.17-2-.15-1.7,4-3.86,2.7-2.54-1.53.46-3.2.52-4.81.12-2.9.81-4.72,4-5.44,1.61-.36,2-2.56,2.4-4.27-1.66-1.3-3.26,1-4.85.05-1.79-1.05-3.85-1.8-2-4.68,1.69-2.63,5.48-6.37,1.17-8.55-4.11-2.08-4.7,3.61-6.72,6-.32.39-.48.93-1,1.29,3-5.83,6.11-11.59,6.87-18.25a2.73,2.73,0,0,1,1.25-1.72c7.08-4.06,8.47-9.84,3.55-15.9-1.22-1.5-1.45-2.93-.07-3.9,2.83-2,2.87-4.95,1.33-6.88-2.37-2.94-3.78,1.81-6.16,1.76-1-2,.69-3.08,1.47-4.42s2.19-3.43.59-4.63c-5.65-4.22-3.5-10.3-4.08-15.65-.8-7.4-1.38-14.83-1.66-22.26-.16-4.12,3-7.22,4.54-10.8,1-2.18,4.47-4.62,1.82-6.63-3.12-2.37-7.1-.35-10.31,1.38-1.13.61-1.62,2.42-2.92,3.64-.11-4.15-7.68-5.52-1.88-11.71-4.4.75-4.66,7.1-8.46,3.51-3.33-3.17-5.82-7.06-4.75-12,1.63-7.49,3.36-14.94,2.15-23.16-1.44,2.33-2.75,4.77-4.37,7-2.48,3.37-7,3.65-8.71-.1-2.8-6.21-6.11-4-10.34-1.21.31-3.82,1.71-7.1,4.15-8.54,3.44-2,4.2-5.89,7.1-8.13,1.51-1.16,1.26-4.6,4-4.05,2.93.58,1.29,3.81,2.33,6.11,3.34-2.66,4-5.86,3.31-9.49-.4-2-.55-4.1,1.27-5.14,2.31-1.31,3.56,1.39,5.3,2.25,1.56.77,3.71,1.42,2.84,4.11-.75,2.34-1.3,4.74-1.93,7.12-.81,3,.64,3.74,2.91,2.31,2.88-1.82,7-2.48,7.42-7a1.76,1.76,0,0,1,2.34-1.76c8.3,2.4,16.9-1.62,25.18,1.26,2.48.87,5.07,1.43,7.6,2.13-.44,1.91.17,2.7,2.26,2.5,1.14-.1,2.36.64,2,2s-1.57,1-2.73.72c-5.18-1.5-9.31-.06-12.21,4.59l-.71.14c.11,0,.25.14.33.11a1.53,1.53,0,0,0,.37-.31c3.06,2.52,6.57,4,10.37,2.37,6.2-2.64,12.37,2.2,18.86-.63-2.42-2.24-2-4.36.88-6,.93-1.78,3,.3,4-1.22L213-577.86c-2.13,2.39-4.18,2.33-6.79,1.33-1.68-.64-4-2.16-5.57.42-.73,1.2-3.29,1.43-2.32,3.36.76,1.5,1.64,3.31,4.34,2.56,2.2-.61,4.57-.18,5.33,2.81.59,2.28,1.46,4.44-1.94,5.32-1.37.36-1.41,1.65-.81,2.8a2.87,2.87,0,0,0,2.89,1.38c1.9,0,3-1.41,4.39-2.34a2.94,2.94,0,0,1,3.69.43c1.19,1,.47,1.75-.27,2.8-4.71,6.7-4.64,7.2,1.06,14.5.63-5.4,6.62-5.66,8.42-10,.35-.86,2.67-2.06,4-1.24,1.53,1,.72,2.91,0,4.09-1.57,2.7-3.24,5.7-6.88,5.77-2,0-2.62,1.17-3.25,2.55a1.82,1.82,0,0,0,.82,2.42c1.48,1,2.3,0,3.36-.89,2-1.71,2.9-1.14,3.08,1.53.4,6.18,4.22,9.49,10.15,8.95.94-.09,2.14-.66,2.64.2,3.37,5.84,7.33.49,10.92.47,2.27,0,1.69-2.18.07-3.06-5.05-2.74-9-7.53-15.2-8.19-1.82-.2-4.85-7.34-3.52-8.42,3-2.45,1.84-4.14-.14-6.44-1.59-1.84-3-4.74-.9-6.62,1.65-1.51,4.79-.45,6.63.53s3.89,1.9,5.43,3.76a3.81,3.81,0,0,0,6-.27c1.86-2.49-1.31-2.79-2.49-4-1.61-1.6-2.84-2.68-5.7-2-2.28.54-5.55.13-6.91-3.45-1.45-3.86-5.69-3.08-8.75-4.08-2-.63-4.24-.32-4.47-3.35a19,19,0,0,1,9.54,3.05c4.78,3.08,10.41,3,15.52,4.73,1.66.56,2.77-.77,4.18-1-.29,2.88,2.11,2.75,3.78,3.16,16.8,4.11,30.6,13.75,44.44,23.53,9.24,6.54,19.21,12.07,28.55,17.86.05-.31-1-2.34.47-3,6.12-2.75,1.7-5-1.21-8,9-.24,16.62,2.55,25,3.51-1.71-3.72-4.86-2.63-7.09-3.51-1.67-.65-4.26-.3-3.83-3.08.35-2.28,2.86-3,4.46-2.7,5.85,1.18,10-2.82,14.85-4.43,2.27-.75,2.27-1.79.64-3.67-3.05-3.5-8.86-4.85-8.57-11.09.05-1.14-1.89-.86-2.95-.52-1.61.53-3.13,1.49-4.77,1.75-2,.32-4.73,2.52-6.07-.43-1.07-2.34-3.1-5-.77-7.92a16.09,16.09,0,0,0,2.66-5.25c-5.47,6.38-11.91,6.73-19.14,4.27-1.64-.56-3.81.57-5.57.16-2.21-.51-5.6-1.2-1.9-4.55,3.16-2.86.41-6.11.06-9-.8-6.35,3.87-10.52,5.5-15.84.78-2.54,11.57,1.74,13.65,3.5,4.28,3.64,4.7,8.82,7.15,12.84C341.54-575.5,349-575,353.35-571c.42.38,1.94,0,2.68-.48,4.23-2.68,8.39-5.49,12.56-8.27.73-.49,1.93-.9,1.28-2.09a2.32,2.32,0,0,0-2.46-1.06c-6.85.87-9.74-5.16-14.29-8.29a2.22,2.22,0,0,1-.75-3c1.7-3.34-1.29-3.3-2.7-2.92-3.15.88-5.91-.44-8.85-.68-5.39-.43-7.36-3.51-7.85-8.58-.28-3,.88-7.14-4.53-7.76-1.88-.21-1-2.92-.7-4.52.18-1.14.87-2.33,2.3-1.81,2.47.9,4,5.78,7.92,1.2.57-.66,6.59,3,7.92,6.93,2.47,7.22,12.4,11.59,18.9,8.23,2.54-1.31,1.44-3.7,1.89-5.55s.86-2.77,3.06-3c2.64-.27,2,1.4,2.38,2.73,1,3.88,3.26,5.78,7.61,6.15,6.33.53,12.5,3.48,19,1.24,7.43-2.58,15-4.91,21.8-9-1-2.5-2.35-1.45-3.57-1.42-3.36.06-6.94,1-6.17-5,.43-3.33-2.54-4.32-5.58-2.42-4.07,2.54-8.43,1.27-11.1-2.76-7.27-11-14.87-21.72-20.56-33.66A31,31,0,0,1,371-668.5c-.27-4.7,4.46-6.63,9.24-4,4.46,2.48,9.41,2.05,14.09,3.15,1.7.41,2.28-1,3.07-2,1.58.13,3.17,1.26,4.8,0-2.33-1.78-2.33-1.78-4.77.07-4,0-4.46-2.83-4.19-5.64.24-2.43.08-4.57-2.61-4.57-3.49,0-1.66,2.45-1.32,4.09.42,2-.39,3.6-2.16,4.05-2,.51-2.15-1.28-3.05-2.79-2.36-3.9-1.51-9.26-6.55-12.17-2.19-1.27-3.53-1.41-6-.14,1.43-5.27,3.36-8.29,8.49-9.47,3.94-.91,2.63,3.05,4.77,3.53,2.17-2.65,4.32-5.36,6.58-8,1-1.2,3.28-2,1.24-4-1.48-1.4-2.52-2.55-5.57-2-7.87,1.35-11.69,7.25-16.37,12.25-2.53,2.69-4.73,4-7.76,1-.73-.72-1.55-1.23-2.44-.4a2.38,2.38,0,0,0-.43,1.39c1.78.82,2.51,1.94.65,3.28-1.5,1.08-3.14,3-5,2.3-3-1.07-5.52-2.47-5.43-6.8.06-3.25-1.29-7-5.68-7.58a13.79,13.79,0,0,1-5.7-2.42c-3.27-2.16-6.56-1.39-9.48.41-1.31.81-1.95,2.49-3.44.43-1.13-1.58-1.17-2.74.42-4.36,3.29-3.34,6.64-6.67,8.94-10.87,2.51-4.59,1.88-8.22-2-11.67-2.34-2.11-.27-4.14.5-6.15l.94,0c-.37-.86-.66-.52-.93.07-6.76-1.67-4.61-5.74-2.52-9.55-1.54-2.87-4.49,5.18-5.63-1-.13-.67-1.21.83-1.81,1.37-5.17,4.72-6.23,11.13-6.9,17.55-.35,3.32-1.43,3.56-4.38,2.81-3.12-.79-6.34-3.63-9.77.14-.37-3.06,1.56-4.39,2.35-6.2.44-1,1.62-1.89.75-3s-2.28-.72-3.15-.31c-3.92,1.86-8.72,1.14-12.18,4.55a5.76,5.76,0,0,1-6.79,1.34c-2.48-1.31-1.22-3.7-1-5.66.29-2.79.27-5.74,3-7.64,2.21-1.56.91-3.84,1-5.8a2,2,0,0,0-2-2.3c-1.35,0-2,.92-2.24,2.13-.37,1.59.19,3.45-1.71,5.13-1.55-2.78-5.44-2.49-6.8-4.77-1.6-2.71,3.94-3.82,2.7-7.79-2,2.6-5.95,2.26-6.41,6.36-.18,1.58-2.3,2.12-2.94.68-1.65-3.7-6-1.35-8.12-4.15-.73-1-2.39.63-3.07,1.69-.88,1.37-.73,3.38-2.46,4.09-5.83-6.44-1.75-11.73,1.26-17.82,7.33-14.85,20.49-21.77,34.62-28.1,5-2.25,9.15-6.49,14.82-7.74,1.83-.41,3.57-1.32,5.41-1.55,9.35-1.19,16-13.17,11.95-21.85-.92-1.94-3.25-2.78-5.24-2.78-3.94,0-7.2-1.68-10.52-3.36-2.77-1.4-4.41-5.07-8.8-3.18-2,.87-1.83-2.84-3.1-4-3.44-3.1-6-5.87-4-11.34,1.06-2.9-3.08-5.06-5.44-6.26-2.93-1.49-2.06,2.09-2.77,3.5-.44.87-.87,1.7-1.91,1.91-6.56,1.31-4.22,7.16-5,10.95-.51,2.55,3,2.61,5.34,2.31,1.51-.19,3.89-.43,1.78,1.87-2.48,2.71,3.79,5.1.1,6.61-1.87.77-3.29-3.37-5.94-3.33s-5.27-.85-7.68-.89c-6.68-.11-9.82-8.52-17.22-6.66-1.18.3-1.69-3.21-.85-4.27,2.8-3.49,2.34-8.35,5.45-11.67a3.84,3.84,0,0,0-.33-6c-3-2.57-2.47-6.13-2.76-9.44-.09-1.05-.32-2.5,1.29-2.68,1.32-.15,1.89.93,2.4,2,2.35,5.07,8,6.93,11.13,11.39,1.37,2,4.44,2.1,5.77-1.28,1-2.51,3.34-5.2-1.28-6.66-1.05-.33-3.16-8.5-2.61-9.48,1.5-2.71,3.35-1.55,5.28-.58,5.61,2.81,5.63,2.79,8.82-3.28-1.48-2.08-3.54,1.33-5-.53,1.55-4.78,3.59-9.6.11-14.46-.63-.88-.88-1.77,0-2.45s1.76.11,2.55.56c2.88,1.67,2.51,5.32,4.85,8.21,1.65-5.17.65-9.81,0-14.21s-6.4-6.45-11-4.42a38.42,38.42,0,0,0-6,3.19c-3.48,2.36-5.49,1.31-6.74-3.06-2,6.19-5.1,7.75-9.88,3.21-.76-.71-1.68-.24-2.6-.21-3.91.15-7.71-.18-8.29-5.34-.15-1.31-1.61-1.56-2.17-2.46-2.4-3.82-6.49-7.09-4.08-12.56.79-1.8-.59-3.07-2.15-3.3-1.86-.27-4-2.2-5.69.22-.61.86-2.05,2,.85,2.19,2.63.18,2.95,3,2.33,5-1,3-2.93.5-4.58.35-8.47-.77-10.26-7.9-13-13.87-.52-1.15-2.93-5.79,2.69-5.67,2.39,0,1.89-3,2.16-4.48a3.52,3.52,0,0,0-3.14-4c-1.75-.28-3.6.25-3.55,1.87.14,5.63-5.21,9.21-5.08,14.8.07,2.77-1.76,3.11-3.85,1.81a22.09,22.09,0,0,1-4.53-3.4c-1.5-1.59-2.57-2.62-4.48-.48-.63.71-2.78,1.23-3.09.86-4.29-5.05-9.58-1.71-14.44-2.07-6.19-.46-7.79-4.12-4.69-9.48,2-3.42,5-6.22,6-10.24.42-1.61,2-2,3.64-2.21,2.23-.24,3.73-2,3.23-3.85-1-3.38-3,.6-4.48-.15-1.35-1.51,2-3.68-.73-4.93a5.26,5.26,0,0,1,2.23-3.14c8.35-7.17,17.91-12.57,27.25-18.2,4.24-2.57,9.3-3.6,14.52-4.14,14.63-1.51,28.42.86,42.17,5.91,17.38,6.38,28.22,18.13,33.78,35.64,3.61,11.39,2.58,23.95,9.41,34.61,1.36,2.13,4.36,5.63,2.78,8.32-2.19,3.74-1.1,7.38-.81,10.79.35,4.07,3.46,7.47,8,7,1.94-.21,1.92.55,1.54,1.19-2.9,4.82,1.26,6,5.39,8.68A36.94,36.94,0,0,0,321-881.7c-1.65,3.76-3.11,7.6-4.61,11.42,6.21,3,3,7.91,2.27,12.14-.6,3.39-1.23,7.3.86,9.59a123.46,123.46,0,0,1,11.8,14.61c2.89,4.37,4.43,1.63,6.8.38,1.56-.83.37-4.92,3.23-3.4,2.53,1.34,3.38,4.37,3,7.47-.28,2.22-1.55,3.41-3.35,2.08-4.08-3-3.48,0-4,2.54-1.49,6.74,3.72,9.13,7.65,12.41,2.86,2.38,4.76,1.44,6.05-1.72l-.07,0c2.35,2.94-1.57,6.5,1.35,9.89,1.25-5,6.4-7.52,6.55-13.16,0-.79-.35-9.66,6.61-4.53,1.24.9,3.91-.89,3.4-3.76-.34-1.94-1.84-3.86-.24-5.88-2.85-1.61-1.9-7.12-6.79-6.63l.08,0c-2.63-1.12-5-4.52-8.16-.61-.71.87-3.47.47-3.48-.42-.08-4.88-1.66-4.57-4.58-1.79-.25.24-1.7-.15-1.91-.58-1-2-1.89-3.38-4.61-2.12-1.2.56-1.87-1.19-1.5-2.27a32.24,32.24,0,0,1,2.3-4.49,4.62,4.62,0,0,1,3.12,3.54,1.61,1.61,0,0,0,2.11,1.23,1.53,1.53,0,0,0,1.34-1.49,2.09,2.09,0,0,0-1.25-2.26,49.57,49.57,0,0,0-5.31-1c-.84-.68-2.26-1-2-2.39.16-1.08,1.31-1.41,2.22-1.42,5.22-.05,10.15-.47,14.45,4.26a194.23,194.23,0,0,0,35.08,30.81,58.3,58.3,0,0,1,17.81,18.5c6.5,10.91,9.14,23,12.66,34.8l.08,0c-4.89-1.77-6.84-5.63-7-10.45-.08-2-1.5-3.45-2.52-2.65-2.38,1.88-4.63,1.5-7.2,1.24-1.59-.16-1.73.6-.29,2.36.34.41,1,.64.61,1.24-2.94,4.94,0,8.62,2.16,12.82,1.22,2.31.66,5.4,4.82,4.22.31-.09,3.36,0,2.94,2.76-.22,1.4.66,3.36,2.72,2.44,1.48-.65,1.59-2.08.87-3.84-1.69-4.15-.41-7.06,4.27-8l-.06,0c.66,2.16.88,4.59,2,6.43,6.19,9.77,9.47,21,15.12,30.9,8.12,14.27,10.73,30.3,16.46,45.3.14.36-.29.94-.51,1.61a9.35,9.35,0,0,1-1.46-.93c-.81-.76-.53-3.33-2.39-2.15-1.63,1,0,2.18.93,3.08,2.24,2.12,1.16,4.16-.38,6-5.47,6.5-3.87,14.7-5.44,22.15-.37,1.75.91,2.3,2.05,2.94,1.93,1.09,2.68-.46,3.58-1.65C452.21-649.67,453.28-649.27,453.85-650.65ZM254.92-142.83v-.45c1.29-5.57,4-2.18,7.15-.51-1.37-2.81-2.22-4.82-5-5.22-1.83-.26-2.78.71-3.62,2.1-1.19,2,.4,2.67,1.53,3.61ZM220.24-150c3.31-5.39,8.94-2.78,13.74-3.95-1.56-2.2-1.78-5.17-6.3-3.09-1.48.69-6.38-1.32-9.63-2.36.27-.67.78-1.37,0-2a.91.91,0,0,0-.87.2c-.39.91.38,1.3.92,1.78-.75,1-1.32,1.36-2.74.55-5.28-3-10.23-1.05-11.75,4.71-.38,1.4-5.53,2.59-.51,4.52.85.33,3.22,2.18,1.84-1.39-.2-.51,5.23-2.4,6.25-1.12,2.77,3.49,6.06,1.7,9.11,2.13-1.53,3.63.4,5.08,3.6,5a70.3,70.3,0,0,0,8.8-1.32c.58.4,1.43.66,1.68,1.21.63,1.35.88,3.39,2.49,3.4,1.88,0,2.14-2.28,2.93-3.67,1-1.73,1.45-3.47-.69-4.87s-3,.59-4.21,1.53a17.33,17.33,0,0,0-2.19,2.47C229.19-149.63,224.94-150.56,220.24-150Zm97.84-85.89c-2.84-1-5.61-2.35-8.53-2.9-6.6-1.25-9,1.84-6.5,8.14.61,1.53,2.28,2.79.44,4.41s-2.45-.54-3.68-1.13c-2.31-1.14-2.85.85-2.19,2.22a26.38,26.38,0,0,1,2.05,17.25,1.25,1.25,0,0,0,1.26,1.53c3.63.07,3.21,3,3.92,5.23.31,1-.64,2.57,1,2.82,2,.31,1.79-1.75,2.08-2.78,1-3.65-.85-6.84-2.56-9.77-1.27-2.2-1.65-4.39.46-5.35,2.48-1.12,2.68,1.67,3.31,3.33.33.87.53,2.29,1.12,2.49,7.44,2.58,4,8.3,3.78,13a4.55,4.55,0,0,0,.84,3c3.71,5.91,3.68,5.93-2.34,7.8l.11,0c-1.45-.18-3-3-4.18-.51-.85,1.78,1.35,3,2.88,3.6,2.77,1.13,5.8,1.36,8.65,2.5,2.5,1,2.42-2.26,3.1-3.59,1.47-2.9,1.32-6.82,5.72-7.54a1.35,1.35,0,0,0,.86-1.84c-.58-1.4-1.86-2.2-3.18-1.55-3.83,1.87-5.38-1.12-7.57-3.1-1.78-1.59-1.43-3,0-4.27,1.24-1.07,2.08-2,1.82-3.8-.32-2.16.6-3.17,3-2.69a3,3,0,0,0,3.63-2c.54-1.74-.85-2.77-2.2-3.53a32.26,32.26,0,0,0-4-2c-4.7-1.86-5.21-4.88-1.1-7.95,1.38-1,.09-1.52,0-2.2-.49-2.93-3.25-5.36-2-8.71,2.78,1.27,6.32,1.71,6.26,6,0,1.2.92,1.54,2,1.33a1.52,1.52,0,0,0,1.12-2.16c-1.41-3.2-1.48-7.31-5.61-8.78-1.13-.64-1.71-1.54-.86-2.72a8.36,8.36,0,0,1,2-2c2.69-1.88,4.47-4.22,3.36-7.63-1.19-3.66-4.57.53-6.32-1.72,0-.19-.19-.64,0-.87,1.17-1.81,5.27-1.42,4.38-4.26-.71-2.24-3.95-.71-6-1.27a10.19,10.19,0,0,0-9.73,2.63c-1.26,1.17-3.33,4.15-1.91,4.61,5.42,1.74,2.58,6.19,3.49,9.18.64,2.14,1.9,2,3.09,2.47,2,.9,4.15,1.63,6.23,2.43C319-237.65,318.55-236.78,318.08-235.91ZM157.71-109.57c-2.44,3.8-5.26,1.14-4.85-.86,1.27-6.28-5.09-7.74-6.43-12.57-1.78,1.27.18,6.54-4.37,3.93-.59-.34-1.5.28-1.65,1.12-.27,1.55.9,1.91,2,2.1,1.82.31,3.4.83,3.24,3.11-.2,2.75-2.27,1.55-3.78,1.87-3.87.82-4.76,4.08-1.7,6.89,1.91,1.75,1.92,6.28,6.35,4.79a3.36,3.36,0,0,1,.8,1.82c-.26,1.6-1.52,3.72,1,4.05,1.08.15,2.88-1.61,3.61-2.91,1.88-3.35,3.27-6.88,6.86-9,2.09-1.26,0-4,1.12-5.83.67.26,1.36.75,2,0a.91.91,0,0,0-.19-.84c-.88-.36-1.31.36-1.78.9A2.63,2.63,0,0,0,157.71-109.57ZM306-502.48c-.35,1.29-2.41,2.7-.58,3.86,1.4.89,3.5.24,4.72-.85,1.75-1.54-.17-3.14-.8-4.43s-2.14-2-3.27-2.9c1.1-1.94,2.79-3.62,2.36-6.18-.23-1.41.09-2.88,1.82-2.91,1.37,0,2.32.82,2.5,2.49.56,5.08,1.23,10.14,2,15.19a20.75,20.75,0,0,0,1.33,3.67c.66,1.83,1.45,4,3.79,3.23,2.14-.71,1.95-2.93,1.42-4.88-.29-1.07-1.08-2.62-.65-3.18,5.59-7.18-1.08-12.18-3.82-17.09-1.82-3.25-6.67-5.14-8.56-9.15-2,1.42-1.14,2.61-1.25,3.65s-.32,2-1.44,2.15c-1.38.22-1.9-.64-2.21-1.92-.62-2.55-.15-6.9-4.67-1.94-1.24,1.36-5.81-.31-8.92-.6-.17,2,2.41,3,1.49,5.28a1.76,1.76,0,0,0,1.84,2.28c8.32-1.82,9.85,5.12,13.08,9.89C305.14-505.42,306.41-503.94,306-502.48Zm67.52-266.46c2.08-1.12,3.83-2.42,3.06-5,1.44-2.11-.07-5.25-.69-5.69-3.28-2.37-.79-3.94.55-6.14-3.22,1.76-5.64.67-7.6-1.36-2.64-2.75,1.36-4.66.85-7.43-2.33,5.08-9.12,6.59-9.77,13-.11,1.16-.6,2.17.57,3a2.44,2.44,0,0,0,3.09-.16,10.35,10.35,0,0,1,3.58-1.49,2.34,2.34,0,0,1,2.93,2c.44,2.21-1.28,1.73-2.52,1.89-2.43.33-4.83.78-7.26,1.1-4.67.62-8,5.83-6.27,10.28a4.43,4.43,0,0,1-.34,4.26c-1.21,2-1,3.89.73,6.17,2.34-3.41,5.3-4.68,9.45-4,3.65.63,6.07-.26,4.14-5.28-1.55-4,2.87-7,4.06-10.62.52-1.63,3-.31,4.55.41ZM260.05-30.6c1.62-5-.46-7.28-5.61-6.91-2.28.17-5.08-.15-6.17-2.79-1-2.44-3.21-3-5-4.25-2.3,1.27.13,4.51-2.52,5.21-2.37.62-3.73-1.44-5.51-2.36-2.34-1.21-4.59-2.61-7-3.76-.68-.33-1.49-1.29-2.71-.08,2.27,2.36,5.24,3.9,6,7.91.47,2.36,2.33,3.65-1,4.79-.94.31-.94,1.07-.52,1.79s1.23.66,1.92.21A19,19,0,0,1,235.31-33c2.57-1,5.37-2.07,5.38,2.59,0,.9.25,2.45.74,2.61,4,1.32,7.64,2.47,4.72,8-.37.71,1.49.38,2.32.55,3.5.7,5.88,3.07,8.36,5.45.9.87,2.14,4.14,4.23,1.09,1.48-2.17,3.6-4.79.79-7.1-2.38-1.95-2.64-3.87-1.76-6.41a10.91,10.91,0,0,1,8.72,4.3c-.31-4.2-.83-6.73-4-7.83-3.4-1.16-3.37,2.09-4.67,3.62C258.1-27.63,259.54-29,260.05-30.6ZM235.67-957.92c5.53-2,6.8-5.13,4.3-10.62-.27-1.19-2.33-3.52.21-3.27,3.57.35,3.72-2.28,5.4-3.76,4.34-3.85,1.48-5.63-1.93-6.2-4.77-.79-9.56-2.83-14.55,1-2.54,1.95-7.09,2.52-8-3.26-.39-2.52-2.62-1.8-3-.37-1.22,4.65-5.26,3-8,4.26-3.95,1.85-8.14-.68-12,1.33-2.25,1.16-4,2.83-3.9,5.12.1,4-1.43,3.59-4.13,2.35s-4.82.33-3.19,2.69c2.95,4.3,0,7-1.38,10.25-.64,1.47-3.53,3.26-.82,4.62,2.36,1.18,2-2.05,2.67-3.27,2.12-3.84,3.72-8.12,9.33-7.54,1.6.17,1.8-.66,1.9-2,.42-5.25,1.22-6.06,4.55-3,4,3.73,5.53.16,8.2-.55-.6-2.11-2-1.58-3-2-1.74-.72-2.44-1.85-1.36-3.52s2.45-1.51,3.65,0c3.71,4.59,8.18,4.81,13,2.09,2.15-1.22,4.89-1.05,5.71.42,2.55,4.57,6.27,5.17,10.75,4.55C239-964.87,235.6-962.12,235.67-957.92Zm-22,689.36c-.78,1-2.11,1.84-1.46,3.4.92,2.18-.07,3.33-2.08,3.6-2.8.37-2.81-1.86-2.94-3.69a37,37,0,0,1,.2-4.4c-2.21-.7-3.37.66-3.75,2.33a46.56,46.56,0,0,1-4.83,13.19c-.89,1.51-.47,2.51,1,3.18,3.87,1.81,1.2,4.36.9,6.73-.22,1.75-7.51,1.19-1.57,4.83-.46.57-1,1.67-1.37,1.63-6.67-.71-5.14,5.85-7.53,8.8-1.78,2.19,1.12,4.05,3.07,3.87,3.88-.36,6.23,1.54,8.81,3.86,1.28,1.15,2.82,2.61,4.92,2.33,3-.39,4.09,1,4.08,3.86a3.17,3.17,0,0,0,2.82,3.13c2.32.37,2.3-2,2.44-3.1.69-5.48,6.23-8.49,6.91-14-2.48.07-3.49,2.12-5,3.54-1.2-8.85,1.71-13.19,7.88-12-.38.79-1,1.66.1,2.29a1.41,1.41,0,0,0,1.31-.4c.63-1.11-.33-1.53-1.08-2,1.07-1.4.11-2.63-.59-3.61-1.71-2.38-.61-3.74,1.64-3.88,3.44-.21,3.29-3.2,2.53-4.32-2.52-3.71.26-4.84,2.54-5.56,5.57-1.76,4.85-6.24,4.45-10.17-.29-2.87-2.37-2.19-4-.57a57.59,57.59,0,0,0-10.71,15c-1.87-2.25-.59-4.19-1.07-5.83-.25-.85.36-2.35-.71-2.5-6.74-1-2-4.09-1.84-6.57,1.73.34,1.72,1.36,1.95,2.25s.16,2.08,1.45,2.07c1.09,0,1.52-.84,1.75-1.87.66-2.91.31-6.08,2.2-8.68-2.81-1.24-1.56-3.35-.24-4.18,2.41-1.52,2.67-3.94,3.57-6.11s1.57-4.65,2.61-6.86c.3-.65,1.49-1,2.35-1.24a5.68,5.68,0,0,0,4.59-5.67c-.37-6.09,1.57-11.66,2.55-17.45.25-1.48,2-4.83-1.17-5.21-2.71-.32-3.55,2.72-4.31,5-.26.78,1.43,2.48-.83,2.23-1.7-.19-1.77-1.69-1.16-3.09.14-.34.52-.59.64-.93.83-2.48,3.89-5.72.22-7.27-2.47-1-4.93,2.49-5.71,5-3,9.7-8.37,18.57-10,28.73-.85,5.34-3.71,9.39-7.81,12.71l-.41,0,.39-.13C216.33-274.93,216.57-272.22,213.7-268.56ZM309-126c-1.25-1.34-1.68-2.53-.88-4,1.13-2.06,1.85-3.64.21-6.13-1.42-2.16,2-5.29,7.18-7-1.32-2-5.16-3.88-.64-6.52,1.09-.64-.39-1.79-.93-2.74-2-3.56-4.83-7.06-2.24-11.61.37-.66.22-2.42-.15-2.58-4.2-1.79-5.24-6.39-8.22-9.29-1.83-1.79-5.8-4.23-3-8.31a3.41,3.41,0,0,0-.16-4.63c-1.65-2-2.84-4-.32-6.38,1.5-1.41.39-2.73-.85-3.78-2.08-1.77-4.6-2.42-7.2-3.06s-4.68,1-6.09,2.21.31,3.77,1.62,4.93c4.73,4.2,2,10,3.33,14.83.36,1.37-1.37,4.21-2.62,3.87-5.8-1.56-5.57,2.27-6.15,5.89-.29,1.79-2.14,2.18-3.65,1.86-4.67-1-4.4,1.23-2.82,4.19,1.19,2.22-.05,3.52-1.4,4.9-1-.3-1.45-1.88-2.85-1.16,2.71,2-2.38,4.47.14,6.1,2.78,1.79,1-2.64,2.86-2.52,1.55,1.15,2.32,2.39.95,4.27-2.74,3.75-2.95,8.22-3.38,12.61-.2,2,4.33,6.13-2.46,5.15-.73-.1-.54,1.85.2,2.33,6.69,4.41-.81,6.7-1.72,9.72-1.07,3.55-3.18,1.15-5-.33-2.29-1.82-3.16.3-3.05,2a5.64,5.64,0,0,0,2,3.91c6.15,4,7.2,9.07,4.72,15.84-.93,2.55,1,5.68,3.34,8.94-4.59-.81-7.15-3.57-10.84-5.08-.07,2,1.9,3,1.41,4.72-.36,1.29,6.86,8.25,8.14,8.13a1.73,1.73,0,0,0,1.27-.89c.57-2.07,1.3-4.65,3.79-3.87,2.08.66-.09,3.73,1,5.07,2.67,3.37,1,5.9-1,8.55-.82,1.1-1.78,2.25-3.24,1.68s-.5-1.85-.35-2.9c.53-3.67-2.33-4.75-5.31-6.45-.34,4.72-2.63,5.21-6.08,2.86-.9-.62-2-1.39-3-.15a2.19,2.19,0,0,0,.26,3c1.35,1.4.66,3.28.67,4.76,0,7.9-.13,7.88,7.61,8a18,18,0,0,0,13.75-5.26c2.22-2.19.26-5.43,2-6.83,5.47-4.39,4.75-12.22,9.84-16.69,2.36-2.06.21-3.31-1.06-4.45-1.64-1.47-2.79-3.84-.93-4.75,5.73-2.81,5.59-11.61,13.4-12.32,2.9-.26-.3-3.36.27-5,3.66.07,2.25,3.28,4,5,2.14-6.22,11.87-.81,12.81-9h.44l-.43,0C314.68-122.65,311.71-123.06,309-126Zm73.15-684c2,.79.66,2.19.05,3.25-1.31,2.29-3,4.33-3.79,7-1.06,3.46-2.16,6.46,1,9.76s1.84,7.27.36,11c-.32.81-1.09,1.83.08,2.46a2.13,2.13,0,0,0,2-.22c2.42-3.83,6.95-3.67,10.35-5.6,5.23-3,5.45-5.44.55-8.81-3.84-2.63-3.46-4.27,1.82-7.91-.05-1.25-1.06-1.36-1.94-1.63-3.36-1-7.56-1.54-3.59-6.67a3.2,3.2,0,0,0-.53-4.22c-4.06-2.73-6.92-8.51-14.19-5.44C377.67-815,378.72-811.38,382.14-810Zm-203,667.87c.68-.31,1.62-.8,2.15-.56,6,2.72,9.16-1,12.55-5,1.54-1.81,3.86-3.85,2.28-5.64a10.77,10.77,0,0,0-7.49-3.37c-2,.07-3.91.49-5.85-.38-.34-.15-1-.38-1.05-.27-3.23,4.23-8,3-12.49,3.83,1.82,1.12,3.69,2.17,5.43,3.4s4.62,1.9,3.43,4.38-3.11-1.1-5.33-.22C173.08-141.57,175.23-140.42,179.1-142.16ZM289.73-887.95c-.7,2.34.45,3.4,2.6,2.85,4.09-1,6.87,1.35,9.8,3.36,1.54,1.06,4,1.85.78,4.33-2.2,1.72.62,3.22,1.53,4.64.8,1.27,1.93,1.47,3.41.64,1.87-1,1.45-1.86.66-3.55a6.8,6.8,0,0,1-.11-5.41c3.2-5.65-2.75-9.33-2.75-14.26,0-1.09-1.82-2.21-3.18-1.68-3.24,1.25-6.22,3.29-10,2.45-.25-.06-.71.78-1,1.08C290.88-891.54,290.27-889.76,289.73-887.95ZM200.64-367.74c-.11-1.51-.45-2.52-1.82-3.11-3.28-1.44-7.11,2.48-10.37-1-.24-.26-1.34,2.22-1.26,3.8.35,6.34-.69,12.72.58,19C197.24-352.84,201.29-358.79,200.64-367.74Zm-2.32-11.4c4.54-6.21,1.05-12.53,1.34-18.77,0-.74-.42-1.65-.12-2.21s1.28-1.07,2-1.58c-.25-.23-.45-.57-.74-.68-1-.4-2.21-1.19-3.16-1-1.62.33-1.49,2-1.32,3.28.62,4.7-2.58,8.12-4,12.11-1,2.65-2.15,5.22-3.09,7.88a3.73,3.73,0,0,0,.75,4C192.92-374.1,196.25-376.29,198.32-379.14ZM442.16-595.35c2.4,2.92,3,6.7,3.11,10,.08,3.56,1.65,5.91,3.31,8.5.79,1.22,1.64,2.82,3.54,1.81a3.37,3.37,0,0,0,1.56-4.82c-3.14-6.14-4.81-13-8.64-18.75-.9-1.37-1.83-3.28-3.56-1.08C440.43-597.88,441.2-596.52,442.16-595.35Zm-148.6-336c-3.09-.21-7.82,5.52-6.75,7.88,2.67,5.86,8.15,4.54,14.36,4.68C297.44-923.28,301.4-930.88,293.56-931.4Zm-11.7,174.15c2.75,1.33,6.11-.27,7.8-2.53,2.28-3.07.54-6.77-.2-10.18-3.53,1.42-7.89,1.64-9.36,6.8C275-760.15,279.94-758.18,281.86-757.25Zm72-41.68c-3.75-3.55-7,.52-10.52,0-1.17-.16-.28,3.35.25,5s1.72,1,2.57-.13c2.11-2.72,4.06-2,6.06.22,2.8,3.15,6.89,2,10.05,1.84,3.32-.18,0-4.55,2.13-6.46C360.61-796.23,356.74-796.25,353.9-798.93Zm-6.67,538.66c2.35-.26,5-1.69,4.72-4.58-.34-3.09-3.2-3.37-5.73-3.1-1.84.2-3.62.91-5.45,1.27-1.42.27-3.48-.06-3.62,1.77-.12,1.58,1.87,2.08,3.14,2.82A9.33,9.33,0,0,0,347.23-260.27ZM340-463.19c1.65.4,2.86.89,3.72-.88.95-1.92,0-3.21-1.59-4.23a15.27,15.27,0,0,0-6.42-1.83c-.92-.12-1.87,0-2.79-.09-2.2-.21-4.42-4.39-6.05-1.47-1.29,2.33,3.4,2.6,4.64,4.8A35.57,35.57,0,0,0,340-463.19ZM328.39-138.68c-3.95,1.67-2.29,5.43-2.66,8.37-.12,1,1.81,1.49,1.71,1-1.09-5.22,4.28-4.65,6.29-6.16,3.45-2.57,2.2-3.55.19-5.46-.91-.86-1.73-1.81-3-3.18C330.77-141.55,330.69-139.66,328.39-138.68Zm109-543.59c-3.24,4.08-2.86,12.61,1.06,18.38C441.7-670.76,441-676.58,437.37-682.27ZM375.59-529.84c-7.5-2.9-15.27-1-22.92-1.12A44.16,44.16,0,0,0,375.59-529.84Zm-166-23.81c-.38-3.22-4.87-3.74-7.1-2.77-4.69,2,1.32,5.71-2.08,9.68C204.91-549.38,210.17-548.73,209.58-553.65Zm205.66,88.44A25.53,25.53,0,0,1,406-457c-.71.36-1.29.9-.88,1.75s1.35,1.1,2.37.94c2.35-.36,4.74-1.57,5.61-3.33,1.89-3.82,4.91-6.16,8.46-8.43C419-467.14,416.75-467.3,415.24-465.21ZM192.74-338.84c1.36,1.34,3-.4,3.18-1.83.26-2.94,4.47-5.68,1.23-8.53-1.9-1.68-4.09.4-5.57,2C190.52-344.11,190.51-341,192.74-338.84ZM320.65-103.43c-.74,2.65,2.18,2.9,1.19,4.66-.66,1.16-3.77,1.91-1.11,3.6a4.58,4.58,0,0,0,5.68-.41c1.34-1.16,3.49-1.37,4.34-4C327.2-100.6,323.21-99.28,320.65-103.43ZM284.93-63.94c-.68,1.1-3.16,1.5-1.7,3.49a3.76,3.76,0,0,0,3.48,1.55c1.93-.23,2.8-1.79,3.45-3.38.83-2.07-1.44-3.86-.36-6.28C286.92-67.63,286-65.66,284.93-63.94ZM315.55-283c-1.83-7.33-5.41-8.93-12.43-5.48C307.85-288.18,311.41-285.27,315.55-283ZM265.7-921.12c-.09-.93.34-1.89-.79-2.32a3.37,3.37,0,0,0-1.52.07c.12,4.36-7.78,5.81-4,11.4C261.79-914.73,266.2-916.12,265.7-921.12Zm11.86,66c.37.74-.11,2.16,1.24,2.06a1.43,1.43,0,0,0,1.1-2.15c-1.89-4.32,4.88-4.66,3.59-9.48C280.62-861.68,274.4-861.43,277.56-855.08ZM187-181.55a2.3,2.3,0,0,0,1-3.4c-1.79-2.24-1.49,1.26-2.62,1.16-4.08-.39-4.52,3.9-7,5.69C181.92-177.93,184.33-180.11,187-181.55ZM314.51-98.79c1.17.89,2.88.47,3-1.14.15-2.15,2.08-4.65-.13-6.41-1-.82-3.27-1.34-4.42,1.3C312.71-103,312.28-100.5,314.51-98.79Zm-89.25-230.3c0-1.38-.11-3.32-1.55-3.13-3.67.51-2.34,4.54-5,7.19C223-325,225.31-325.39,225.26-329.09Zm-19,147.3a1.32,1.32,0,0,0,.46,2.29c1,.34,1.73-.33,2.09-1.34,1-2.79,2-5.58,3.51-9.67C208.68-187.6,208.8-183.88,206.28-181.79Zm20.33-762.7c-.59,1.15-2.73,2.54-.78,3.74,1.44.9,2.68-.87,3.58-2.08,1.26-1.68,2.23-3.45.49-6.42A46.67,46.67,0,0,0,226.61-944.49Zm-10,881.54c.37-2.23,2.49-4.46.22-6.69A2.22,2.22,0,0,0,215-69c-.85,2.5-2.59,5.2.78,7.42C216.08-62.06,216.59-62.47,216.66-62.95ZM346.09-295.49a1.26,1.26,0,0,0,.66,2.38c1.63.11,3.69,2.15,4.93-.42a3.77,3.77,0,0,0-.91-4.2C348.48-298.59,347.44-296.56,346.09-295.49ZM203.49-424.56a1.94,1.94,0,0,0-1.44.25c-.78.72-.93,2-.11,2.46,2.29,1.24,2.07,3.81,3.22,6C208.62-419.88,204.73-422,203.49-424.56Zm72.77,216.4c-4.84-1.16-4.84-1.16-4.46,6.44C273.39-204.87,274.26-206.83,276.26-208.16ZM276.82-932c1,.78,2-.29,2.52-1.36s2-2.22.58-3.43c-1.14-.94-2.49-.44-3.55.64C275.77-934.69,275.6-933,276.82-932Zm-18.62-5.19c-1-.79-1.79-3.24-3.36-1-1.1,1.57.73,2.28,1.86,2.74,1.84.75,3.31,2.54,6.4,2.09ZM211.51-311.46c-.65,1.19-1.28,2.76.35,3.41,2.59,1,3.28-2,4.92-3,1.23-.76.48-2-.8-2.68C213.81-314.5,212.5-313.26,211.51-311.46Zm50.68-37.07a1.23,1.23,0,0,0,2.24-.16c1.21-2.64-1.83-3.2-2.68-4.86-.38-.75-1.47-1.11-2.41,0C259.2-351.35,261.25-350.22,262.19-348.53ZM162-362.25c-3.63.12-4.57,2.15-4.08,5.21ZM285.37-867.33a1.52,1.52,0,0,0-1.05-2.19,2.35,2.35,0,0,0-2,.38c-.89.92-.18,1.64.7,2.17S284.85-866.26,285.37-867.33ZM183-242.52c-.06.17.73.94,1,.87a2.56,2.56,0,0,0,1.92-2.77A2.53,2.53,0,0,0,183-242.52Z" fill="#9bb0aa"/>
        <path d="M269.31,6A53.72,53.72,0,0,0,266.08.93c-1.47-1.85-3-2.05-4.08.53Z" fill="#1c2d28"/>
      </g>
    </g>
  </g>
  <g clip-path="url(#clip-path-3)">
    <g>
      <polygon points="234.39 17.25 234.39 154.45 116.88 285.63 103.78 130 234.39 17.25" fill="#62472f"/>
      <polygon points="116.88 285.63 284.02 360.27 386.33 209.81 234.39 154.45 116.88 285.63" fill="#412f1f"/>
      <polygon points="234.39 154.45 386.33 209.81 399.91 69.6 234.39 17.25 234.39 154.45" fill="#825e3e"/>
      <polygon points="36.28 139.53 165.71 31.55 234.39 17.25 103.78 130 36.28 139.53" fill="#ae906c"/>
      <polygon points="234.39 17.25 276.85 8.98 425.84 55.36 399.91 69.6 234.39 17.25" fill="#d7c3a8"/>
      <polygon points="103.78 130 116.88 285.63 284.02 360.27 365.01 241.17 298.03 203.98 103.78 130" fill="#583316"/>
      <polygon points="399.91 69.6 298.03 203.98 395.9 279.21 482.44 133.14 399.91 69.6" fill="#d7c3a8"/>
      <polygon points="103.78 130 55.18 228.45 251.28 308.43 298.03 203.98 103.78 130" fill="#ae906c"/>
    </g>
  </g>
</svg>
