<svg id="b9e5a336-f901-4a85-9ea1-1eba8f050d30" data-name="Layer 1" xmlns="http://www.w3.org/2000/svg" xmlns:xlink="http://www.w3.org/1999/xlink" width="500" height="300" viewBox="0 0 500 300">
  <defs>
    <clipPath id="bfd651f6-c936-4ba3-8f9a-019bd6d1731f">
      <rect x="515.782" y="49.646" width="298.778" height="250.354" transform="translate(1330.343 349.646) rotate(-180)" style="fill: none"/>
    </clipPath>
    <clipPath id="aa121773-d38b-4519-8fa1-816313573e51">
      <rect x="59.424" y="0.225" width="357.758" height="299.775" style="fill: none"/>
    </clipPath>
    <clipPath id="b920257d-9be0-4a67-a39e-c32ba5cde040">
      <rect x="586.899" y="-349.723" width="353.438" height="296.154" style="fill: none"/>
    </clipPath>
    <clipPath id="e09e8e06-11c9-4c83-9397-8eb4b4a80840">
      <rect x="91.167" y="-353.569" width="358.027" height="300" style="fill: none"/>
    </clipPath>
    <clipPath id="bd00114f-cdbc-4378-9b34-0773eb749476">
      <rect x="34.619" y="-349.136" width="427.463" height="427.463" transform="translate(530.774 -119.638) rotate(-148.205)" style="fill: none"/>
    </clipPath>
  </defs>
  <title>pic-3</title>
  <g style="clip-path: url(#bfd651f6-c936-4ba3-8f9a-019bd6d1731f)">
    <path d="M767.163,258.894c10.126,6.586,11.11,7.464,17.037,14.708s4.829,7.463,10.976,11.634,7.463,5.927,12.073,7.244,4.047,1.317,5.927,5.462c1.832,4.044,3.292,3.757-1.1,5.733s-6.8,3.073-11.634,3.951-54.659,20.415-60.586,21.073,5.049,1.1-16.024,4.171a260.071,260.071,0,0,1-51.146,2.854c-14.049-.659-19.756-1.756-33.586-1.756s-23.194.658-32.011.658-12.55,2.285-14.745,1.362c0,0-60.771,4.12-79.312,3.09s-46.7,1.373-54.937-3.434S515.782,321.5,515.782,300c0-4.462,9.6-17.372,18.162-31.252,5.325-8.635,37.23-30.617,37.23-30.617l13.288-7.294s42.795-14.678,61.794-14.945c9.935-.14,30.485-29.427,49.948-38.147,16.154-7.238,36.578,67.6,36.578,67.6Z" style="fill: #e4ab8d"/>
  </g>
  <g style="clip-path: url(#aa121773-d38b-4519-8fa1-816313573e51)">
    <g>
      <path d="M321.728,254.836c9.3,1.566,3.21.3,26.812,5.88s21.826,3.156,31.216,8.05,11.421,5.655,19.034,11.746,7.989,5.238,14.466,12.943c8.375,9.961,1.365,7.193,15.07,14.045s12.085,4.735,26.8,10.572,52.534,50.5,56.341,65.223,8.375,29.693,10.659,31.216-310.026,0-310.026,0H-39.4a368.525,368.525,0,0,0,25.913-38.8c11.178-19.816,11.178-20.324,18.8-37.092S17.741,325.1,31.46,315.446s19.288-3.8,32.091-20.288c11.27-14.509,30.074-30.425,36.212-32.931,13.209-5.392,22.524-11,33.136-15.066s35.544-12.226,35.544-12.226Z" style="fill: #b5afb1"/>
      <path d="M292.707,168.886c1.777-7.654.508-5.37,2.284-10.7s3.145-6.091,6.521-10.659,3.885-8.375,6.422-10.659,5.076-3.434,7.868-2.732,5.821,2.111,4.306,6.355-4.13,4.106-5.259,8.322l-2.632,9.822c-1,3.743-2,2.932-1.237,10.251s1.015,7.573.507,14.679-1.522,12.689-.253,17.511-1.08,4.652.507,10.574,1.269,2.116,4.061,11.759,2.791,13.451,2.791,18.019-2.252-.761,1.92,9.9,2.4,17,4.933,20.049.253.508,7.106,6.6,13.45,5.075,18.78,13.7,7.867,13.958,7.867,13.958,10.406,18.019,10.406,21.572-3.046,34.008-3.046,34.769-31.723,41.368-35.4,41.621-19.415-22.079-24.744-24.363-12.436-5.076-14.72-9.39-4.822-3.553-11.928-21.826-17.258-26.9-30.454-36.038-30.962-23.094-38.83-29.439-16.5-11.928-21.318-15.989a87.48,87.48,0,0,0-11.674-7.867l84.289-97.2Z" style="fill: #c39a7e"/>
      <path d="M159.7,19.743c-1.361.454-12.7,0-14.518,9.073s-3.175,7.713-2.722,14.518a23.647,23.647,0,0,1-2.722,12.249l-6.805,6.805-1.814,9.981L128.4,78.72s3.175-.453,3.175,9.527,2.269,9.074,3.176,14.972-2.268,4.99-2.268,10.888-7.713,5.444.453,9.527,15.879,3.176,16.333,4.537-2.269,2.722,3.175,5.444,4.537-14.064,9.527-18.147,19.055-34.026,19.055-34.026L204.161,100.5,245.9,115.468s32.664-12.249,34.025-12.249,25.86,86.2,25.86,86.2l9.65,36.018,17.118-4.587c7.248-1.942,8.164-9.654,11.34-14.191s10.888-8.62,10.888-8.62-1.814-5.444,4.537-10.888,5.754-3.214,7.35-9.171,11.7-4.94,3.992-14.9-7.259-7.689-7.713-14.948,5.9-3.629,0-9.527-8.166-5.444-8.166-8.166A14.077,14.077,0,0,1,356.141,125s4.537-4.537-.453-9.981-7.713-13.156-7.713-13.156,6.8-6.352,2.722-21.777-3.629-14.517-8.62-22.23-5.9-7.258-9.073-11.8-4.99-7.713-9.981-12.249-6.5-2.321-12.852-6.4-4.061-5.789-9.959-7.15-5.653-3.064-16.087-3.064-18.718-6.973-25.07-4.7-7.267.178-9.989-2.544-3.422-5.376-12.949-2.2-20.161,3.837-22.883,6.105-4.083,6.8-9.527.907a101.247,101.247,0,0,0-8.166-8.166A120.783,120.783,0,0,0,183.292,8.4c-6.805,1.361-9.527,3.176-12.249,4.083s-4.991,3.176-7.259,4.083A11.816,11.816,0,0,0,159.7,19.743Z" style="fill: #2e110d"/>
      <path d="M152.442,133.615v16.332a67.164,67.164,0,0,0,9.074,32.664l92.549,11.8,7.712-78.032-6.351-3.629s3.775,3.505-4.464-1.2-10.961-3.8-12.322-8.331-2.722-2.269-2.722-10.889,5.444-9.98-1.361-16.785-7.259-9.074-12.249-14.518-13.157-6.8-13.157-6.8-3.175-1.815-8.619,0-7.713,1.815-14.518,4.537,11.342-9.981.907,2.268.908,3.629-13.156,12.249-19.054,15.879-21.323,20.415-3.629,1.362-4.99,9.528a49.429,49.429,0,0,0,0,15.424Z" style="fill: #c39a7e"/>
      <path d="M253.158,113.986c-.908,15.092,0,11.009,2.722,19.175s-4.918,17.693-4.918,17.693-7.785,7.713-9.146,14.971-2.269,8.62-2.722,9.981-1.361,3.176-5.444,5.444-3.176,1.815-7.259,2.722,3.629-5.444-10.888-8.619-21.124-4.946-22.817-5.4-3.5-1.406-9.848-.5a90.553,90.553,0,0,0-11.795,2.268c-5.9,1.361-12.249.908-12.249-3.176s5.76-5.626,0-4.083-7.713.454-9.527,7.259,2.268,2.269-3.176,10.435-5.9,3.629-7.713,9.98-5.9,8.62-5.444,10.435a20.745,20.745,0,0,0,5.9,9.527c3.629,3.176,3.629,8.62,3.629,8.62s-5.444,4.99-2.722,10.434,3.176-2.722,7.259,9.527-2.268,13.611,5.444,16.333,12.249,2.722,12.249,2.722-2.722,5.444,14.972,0l17.693-5.444s-2.269,3.175,7.712,5.9,8.1,1.911,14.971,1.966,3.176-.6,12.7-5.595,8.62-5.444,14.518-8.166a46.152,46.152,0,0,0,9.206-5.444,56.8,56.8,0,0,1,7.58-14.971c5.444-7.713,8.166-19.055,8.166-19.055l2.268-12.249s14.518-5.9,15.425-12.249a82.492,82.492,0,0,1,2.268-10.888s-.453.907,4.083-6.352,5.256-9.942,5.256-9.942l-10.7-81.7H261.777Z" style="fill: #2e110d"/>
      <path d="M188.965,109.639c3.088-1.887,14.409-4.975,20.07-4.632s15.61,3.774,16.64,4.289,3.564,2.774-1.906,1.3-7.186-3.9-13.876-3.287-12.179,2.157-14.752,2.329a32.313,32.313,0,0,0-6.176,1.449C187.764,111.354,188.965,109.639,188.965,109.639Z" style="fill: #2e110d"/>
      <path d="M147.8,119.7c-2.5-1.63,5.92-4.434,10.455-4.743s10.807-.343,10.807.686-.769,2.23-5.359,2.23a32.677,32.677,0,0,0-10.251,1.827C151.741,120.274,149.055,120.515,147.8,119.7Z" style="fill: #2e110d"/>
      <path d="M197.62,119.074c6.838-1.553,16.026-2.813,19.091-1.578s5.18,6.637,2.806,7.975-15.59,2.18-18.9,2.008-6.161.343-6.161-2.23S194.612,119.757,197.62,119.074Z" style="fill: #fae1d7"/>
      <path d="M155,125.249c3.175-1.437,12.351-1.715,12.866,0s1.342,6.533-.959,7.212-9.458.158-10.363,0-3.088-3.737-2.573-4.96S155,125.249,155,125.249Z" style="fill: #fae1d7"/>
      <path d="M134.874,239.791c-6.6,3.305-8.541,3.813-10.876,10.418a231.01,231.01,0,0,0-6.907,23.881c-3.049,12.194-8.638,18.8-10.162,26.929s3.556,15.751,6.605,32.518,0,27.438,3.557,36.583-16,15.751,11.307,23.881,16.56,9.545,29.81,9.6,12.647-.453,30.223,2.595,28.775,3.049,28.775,3.049,14.715,4.573,39.1-9.146,31.5-18.291,36.583-19.816,13.519-1.047,13.519-1.047V361.483s-18.17,8.129-32.866,8.129-21.3,4.065-40.609,9.654-42.305,19.308-55.449,16.767-35.5-4.064-40.073-14.734-11.179-24.9-11.179-38.108-2.032-20.324-4.572-33.534-7.114-11.687-2.541-23.881,8.753-20.832,13.776-27.945,19.576-18.04,10.776-18.04Z" style="fill: #f0f3a6"/>
      <path d="M163.841,124.09c-3.036-.126-6.973.314-8.841,1.159,0,0-.515,1.029-1.029,2.252s1.668,4.8,2.573,4.96c.441.077,2.366.239,4.489.308C162.707,131.029,163.836,127.8,163.841,124.09Z" style="fill: #422b23"/>
      <path d="M209.588,119.52a14.524,14.524,0,0,0-.2-2.353,92.212,92.212,0,0,0-11.772,1.906,3.727,3.727,0,0,0-1.741.876,12.071,12.071,0,0,0,2.6,7.475c.672.012,1.387.016,2.133.055,1.194.062,3.68-.01,6.476-.187A12.337,12.337,0,0,0,209.588,119.52Z" style="fill: #422b23"/>
      <path d="M165.763,178.459c7.126-.475,7.759.95,12.826,0s4.008-1.583,9.842-.95a46.45,46.45,0,0,1,14.3,3.8c2.774,1.425,12.1,1.9,3.8,3.8s-12.266,3.008-19.708,3.008a87.18,87.18,0,0,1-14.251-1.267c-2.692-.316-5.225.317-6.809-.95s-2.058-3.422-1.108-4.719A6.305,6.305,0,0,0,165.763,178.459Z" style="fill: #c39a7e"/>
      <g>
        <path d="M170.566,115.864c-1.2,7.033-4.244,15.56-3.215,19.163s-.172,10.807-1.715,15.438-3.431,9.778,0,14.238,7.166,3.459,11.584,2.275,4.026-2.1,10.2-1.589,8.079,1,9.108-1.233,2.23-4.117,1.03-7.205-7.263-7.762-11.38-6.561" style="fill: #c39a7e"/>
        <path d="M170.566,115.864c-.608,4.328-1.789,8.559-2.554,12.836-.186,1.069-.346,2.141-.436,3.208a8.654,8.654,0,0,0,.19,3.11,19.651,19.651,0,0,1,.275,6.672,44.792,44.792,0,0,1-1.127,6.526c-.53,2.163-1.355,4.206-1.891,6.27a13.864,13.864,0,0,0-.493,6.183,8.461,8.461,0,0,0,1.082,2.814,10.513,10.513,0,0,0,1.989,2.3,6.751,6.751,0,0,0,5.6,1.412,27.731,27.731,0,0,0,3.12-.665c1.064-.269,2.066-.554,3.085-.917a14.555,14.555,0,0,1,3.279-.9,19.258,19.258,0,0,1,3.383-.035c2.207.142,4.379.409,6.515.561a4.642,4.642,0,0,0,2.821-.413,2.732,2.732,0,0,0,.8-1.122c.242-.5.489-.977.709-1.46a6.735,6.735,0,0,0,.734-2.969,6.326,6.326,0,0,0-.794-2.944,13.742,13.742,0,0,0-4.536-4.437,11.731,11.731,0,0,0-2.932-1.34,6.06,6.06,0,0,0-3.206-.164,6.17,6.17,0,0,1,3.262-.049,12.041,12.041,0,0,1,3.07,1.221,14.137,14.137,0,0,1,4.952,4.407,7.1,7.1,0,0,1,1,3.283,7.6,7.6,0,0,1-.7,3.358c-.216.517-.45,1.015-.671,1.507a3.734,3.734,0,0,1-1.059,1.523,3.537,3.537,0,0,1-1.771.667,10.906,10.906,0,0,1-1.72.063c-2.224-.068-4.386-.357-6.538-.46a18.056,18.056,0,0,0-3.154.059,13.355,13.355,0,0,0-3.006.868c-1.034.381-2.13.7-3.18.979a28.7,28.7,0,0,1-3.272.728,9.518,9.518,0,0,1-3.5-.076,7.355,7.355,0,0,1-3.167-1.632,11.839,11.839,0,0,1-2.249-2.654,9.773,9.773,0,0,1-1.225-3.272,15.091,15.091,0,0,1,.578-6.751c.585-2.155,1.422-4.168,1.949-6.244a45.8,45.8,0,0,0,1.275-6.334,18.877,18.877,0,0,0-.06-6.349,9.419,9.419,0,0,1-.132-3.392,29.94,29.94,0,0,1,.566-3.259C168.383,124.3,169.686,120.143,170.566,115.864Z" style="fill: #a07155"/>
      </g>
    </g>
  </g>
  <g style="clip-path: url(#e09e8e06-11c9-4c83-9397-8eb4b4a80840)">
    <g style="clip-path: url(#bd00114f-cdbc-4378-9b34-0773eb749476)">
      <g>
        <path d="M453.847-2.939c.129-.315-.218-1.192-.407-1.211C452.124-4.283,451.873-3,451.2-2.27c-2.241-1.18-3.022-2.662-2.344-5.427,1.318-5.383,3.337-9.951,9.021-11.9l.028-.007a3.491,3.491,0,0,1,2.036,2.547c2.526,14.386,5.852,28.656,4.155,43.5a104.778,104.778,0,0,0-.379,20.945c.5,5.826.67,11.853-.875,17.482-1.99,7.25-5.7,14.073-7.275,21.379-1.487,6.877-4.536,13.759-3.7,20.832,1.191,10.073,4.037,19.915.353,30.122-1.177,3.259-1.062,7.129-.907,10.693a64.688,64.688,0,0,1-1.676,19.022,75.142,75.142,0,0,0-2.323,22.44c1.2,24.59-5.384,47.045-18.782,67.6-7.177,11.012-16.267,20.475-24.61,30.543-1.574-4.374-5.575-6.4-9.342-6.95-3.708-.538-5.917-2.764-8.717-4.376a14.786,14.786,0,0,0-6.925-2.356c-6.241-.481-13.836.164-17.71-7.4-1.2-2.353-4.328-2.328-6.739-1.562-2.8.891-4.7.5-7.166-1.444-2.6-2.057-5.944-2.332-9.827-2.2-4.225.143-8.844-3.7-12.813-6.487-2.446-1.716-5.454-3.686-5.429-7.49-3.986.061-3.508-7.934-9.091-5.032-.7.366-1.951.21-1.455-.683,1.839-3.307-5.622-4.763-1.561-8.146,2.138-1.781,2.447-3.026,1.749-6.059-.76-3.31,2.413-4.829,6.339-4.734,6.792.164,13.564-.133,20.01,3.01l.828-1.344c-3.066-3.783-5.71-8.059-9.348-11.174-2.355-2.016-5.681-.011-8.514,1.274-3.022,1.37-6.9,3.544-6.734-2.944.013-.518-.277-1.439-.585-1.513-7.623-1.836-6.716-12.05-14.3-14.291a9.841,9.841,0,0,1-6.537-7.732c-.162-.843-1.531-1.643-1.425-2.319.974-6.223-9.051,1.957-7.163-5.6,1.18-4.726-5.014-5.6-5.671-9.546-.749-4.5-5.593-5.278-7.831-8.524a7.185,7.185,0,0,0-5.464-2.722,24.975,24.975,0,0,1-19.39-10.5c-4.113-5.55-10.748-5.894-16.2-8.666a1.373,1.373,0,0,0-2.16.98c-.755,2.978-2.412,1.687-3.766.7-1.644-1.2-3.157-.879-4.784-.125-1.648.763-4.57.071-4.845,2.152-.372,2.811,2.854,2.192,4.47,3.189,4.184,2.582,5.673,7.34,7.846,11.311,3.083,5.634,3.532,11.969,2.362,18.467-.475,2.64-.618,3.524-3.7,2.964-5.369-.974-7.272,1.164-6.441,6.674,2.118,14.058,6.007,27.8,6.78,42.12.654,12.1.31,24.045-7.195,33.96-8.207,10.843-9.765,23.289-11.236,35.987-.535,4.618.155,9.548-5.6,12.18-1.414.646-2.516,5.405-1.589,7.045,2.134,3.775.38,7.188.778,11.006,2.925-4.4,9.026-5.8,9.316-12.816.159-3.852,4.534-6.7,8.094-8.91a2.04,2.04,0,0,1,3.336,1.662c.459,4.831,2.659,2.305,4.172.968a36.6,36.6,0,0,1,12.959-7.848c4.4-1.429,4.12-5.865,5.263-9.314.128-.386-.288-1.117-.658-1.477-2.9-2.824-2.869-4.1,1.519-5.345,3.836-1.087,4.117-2.565,1.965-5.8,3.777,3.037,7.359-.608,10.772.657-5.829,2.106-5.784,8.292-8.775,12.164a34.456,34.456,0,0,0-5.013,9.722c-1.592,4.294.438,11.474,4.162,13.792,1.466.913,2.885,2.249,4.858.041,2.588-2.9,2.1-8.605,7.767-8.7-.06-2.306-.433-4.575-2.4-6.024-4.353-3.2-4.241-6.374-.7-10.255,5.485-6.009,5.348-7.546-.03-10.709,4.7-.772,8.247,2.854,12.647,3.38,1,.12,1.106,1.876,1.015,3.016s-.767.778-1.578.594c-5.317-1.2-4.381,1.988-2.709,4.526,1.766,2.681,2.913,4.639,1.955,8.345-1.022,3.953,3.423,6.809,5.33,10.207.859,1.531,2.268.142,2.9-1.167.65-1.342-.384-2.644-.259-3.818.247-2.306.687-5.224,2.935-6.12,2.526-1.006,2.346,2.293,3.508,3.548,1.238,1.337,2.247,2.888,4.124,5.356-1.394-7.9-2.788-14.144-10.5-16.387a2.032,2.032,0,0,1-.569-3.683c5.778-4.016,2.7-6.275-1.406-8.54-.374-.207-.5-.868-.885-1.594,2.576-1.236,4.037.775,5.706,1.581,4.091,1.975,8.035,4.258,12.148,6.181s5.084,4.349,1.748,7.8c-.736.762-2.279,1.256-1.069,2.57a6.583,6.583,0,0,0,3.258,2.111c1.509.277,1.5-1.395,1.722-2.425,1.1-5.15.831-10.485,1.372-15.685.233-2.239-4.588-5.453-7.26-7.987-4.661-4.422-8.647-9.491-14.681-12.672-4.522-2.384-9.337-5.469-11.464-10.975-.559-1.446-2.2-2.476-4.172-4.589,6.584,1.615,11.176,5.075,15.7,8.055,18.822,12.391,38.275,23.9,55.949,37.95,9.466,7.527,20.862,12.124,29.731,20.72,2.622,2.542,8.137,3.567,12.755,3.805,5.844.3,8.864-3,10.643-8.014a41.661,41.661,0,0,0,3,3.271c8.653,7.679,16.093,16,17.287,28.324.317,3.27,2.068,6.375,2.814,9.635,1.063,4.651,3.712,9.182,1.483,14.189h0c-1.858-1.02-1.912-4.724-5.685-3.384,2.6,3.542-.7,6.758-.844,10.353-.129,3.309,2.091,7.406-1.2,10.625-.932.911.585,2.065,1.268,2.842,3.748,4.26,2.546,8.868.228,12.892-2.832,4.914-4.907,10.2-7.817,15.023-6.958,11.524-14.168,22.9-21.394,34.257a23.633,23.633,0,0,0-4.009,11.036c-.362,5.518-2.664,10.341-5.228,14.816-6.939,12.11-11.06,25.048-13.486,38.694-1.879,10.572-2.107,21.471-6.075,31.644-.693-.567-1.453-1.685-2.068-1.61-3.547.431-9.393,10.5-8.646,14.6-2.251,4.7-5.818,8.3-9.674,11.664-1.823-1.26-4.249,1.979-5.869-.789-.409,1.028-.845,2.046-1.222,3.085-.948,2.611,1.251,3.108,2.76,4.064-2.235,3.392-5.982,6.027-6.237,10.414-.268,4.6-1.989,8.778-2.883,13.162-1.667,8.182-4.9,16.3-1.759,24.972.824,2.272,1.178,5.234-.686,7.621-1.383-.525-3.572-2.7-4.079-.515-1.128,4.859-8.4,4.467-7.948,10.038.143,1.771,1.666,3.574,3.47,2.712,2.3-1.1,6.029-1.227,5.905-5.053-.093-2.873-.16-5.525,2.641-7.251,3.687,5.57,4.99,11.073,2.573,17.933-2.609,7.4-6.752,14.431-7.233,22.489-.309,5.182-2.489,5.147-6.1,2.818-8.989-5.8-18.015-11.551-27.026-17.321a51.964,51.964,0,0,0-3.221-5.107c-1.472-1.852-3.034-2.052-4.081.53a281.069,281.069,0,0,1-24.61-15.141c-.62-5.156-5.828-5.759-8.764-8.607-.5-.487-1.556,1.131-1.8,2.231l-1.014-.662c.626-3.691-4.489-11.044-8.126-11.4a6.794,6.794,0,0,1-3.428-1.745c-3.3-2.393-5.167-1.507-5.831,2.4l-1.967-1.255c3.25-1.62,3.386-4.245,2.662-7.4-.668-2.908-2.656-.846-3.945-1.318,2.72-2.009,5.536-3.791,7.274-6.976,1.411-2.587,1.645-5.427-.166-7-2-1.742-2.714,1.527-4.013,2.584-2.584,2.1-6.641,2.53-7.521,6.64a2.532,2.532,0,0,1-2.014.161c-4.859-3.437-5.97.473-7.453,3.7l-8.1-4.988c1.218-2.637,4.335-5.116,1.076-8.228-3.676-3.512-4.648-3.051-8.214,3.507-5.375-1.868-8.513-7.36-14.18-8.753,3.571-3.186,2.221-6.031-.867-8.855l-4.668,5.739c-4.844-2.1-3.974-5.4-1.573-8.67,2.1-2.854,1.639-4.64-1.482-6.143a32.646,32.646,0,0,1-12.563-10.268c-2.826-3.938-8.657-3.542-10.835-8.122.67-.838.912-3.3,2.483-.6,1.2,2.069,2.926,1.646,4.232.353,2.372-2.348-.419-3.992-1.119-5.915-.841-2.31-2.345-.893-2.953-.159-1.3,1.562-3.387,2.473-3.94,4.647a4.212,4.212,0,0,1-3.416-2.321c6.123-3.322.831-7.783,1.835-12.79-3.666,2.833-6.236,4.983-7.72,8.211-7.548-.541-9.838-7.624-14.552-11.692,6.255-1.842,3.824-6.347,3.064-10.253-.287-1.472-1.89-1.333-2.805-1.136-3.588.773-6.068-1.171-8.6-3.108-5.883-4.5-5.881-4.505-7.776,2.714a7.154,7.154,0,0,1-2-.835c-8.291-7.1-8.3-7.124-13.84,1.728a30.1,30.1,0,0,0-3.2,5.98c-.975,2.845-2.537,3.024-4.727,1.662q-28.447-17.7-56.873-35.438c-1.518-7.411-.813-8.069,6.529-5.673,3.236,1.056,6.344,2.5,9.56,3.621,3.067,1.072,5.749,2.805,9.3-.241,2.932-2.514,9.116.578,10.3,4.792.648,2.315,1.528,3.758,3.755,4.352,6.119,1.633,12.269,3.157,18.937,6.555a64.577,64.577,0,0,1-1.9-13.828c15.323-2.919,30.6-5.123,44.6-12.594,1.257,1.726-1.829,3.462.158,4.543,1.635.89,2.617-.919,3.877-1.63,6.441-3.633,11.1-9.766,18.615-12.208a43.06,43.06,0,0,1,7.235-1.278c7.926-1.188,16.063-4.151,23.922.472-1.157,3.276-3.734,1.471-5.712,1.491-1.547.014-3.206-.466-3.364,1.758-.123,1.733,1.052,2.314,2.615,3.037,4.953,2.292,9.8,3.109,15.006.937,1.374-.573,4.317,1.63,4.031-1.652a4.147,4.147,0,0,0-5.428-3.479c-3.079.9-5.023-.064-6.891-2.15,1.34-2.562,3.952-2.61,6.29-3.092,1.879-.388,3.69-.772,5.044-2.283,1.794-2,3.925-17.1,2.711-19.4a5.059,5.059,0,0,0-.564-.9c-5.169,2.436-4.432-4.059-7.385-4.87-4.233-1.164-3.746-5.711-6.008-8.3a1.79,1.79,0,0,1,.647-2.494c1.187-.723,2.045-.1,2.746,1.009,1.824,2.881,4.151,4.6,7.16,2.714,2.723,2.027-3.863,4.012.578,5.338,1.346.4,3.06,3.224,4.767.54,1.315-2.067,2.823-4.331-.239-6.317l.031.12c.913-.98,1.1-3.279,3.227-2.133,1.569.845,2.9,2.427,1.9,4.214-2.825,5.039,1.73,10.291-.733,15.37-.8,1.644.282,3.468,2.339,3.8,2.5.4,2.68-1.8,2.855-3.341.939-8.3,2.419-16.757-4.7-23.475-1.787-1.688-.344-4.434-2-6.275-.646-.719-1.085-1.727-2.119-1.29a2.412,2.412,0,0,0-.9,1.881c-.027,2.026.75,5.509-.755,5.674-2.984.326-6.921-.165-9.047-1.979-2.407-2.053-4-1.366-6.492-.614,4.264-3.04,1.518-10.676,8.45-11.533.719-.089.941-1.2.526-1.927a1.745,1.745,0,0,0-2.827-.608c-1.7,1.23-3.023,3.864-5.648,1.45-2.235-2.056-1.356-4.212-.7-6.729.672-2.557-1.05-5.783,4.331-4.872,2.083.353,3.735-4,4.069-6.832,1-8.47,5.777-15.984,6.06-24.611.032-.974.232-2.034,1.513-1.875,1.263.157,1.272,1.285,1.091,2.212-1.339,6.872,2.223,14.749-4.723,20.524-3.095,2.573.376,7.009-1.716,10.185,3.9-.916,5.176,3.012,7.9,4.228a1.14,1.14,0,0,0,1.5-1.566c-2.912-4.9,4.1-7.35,2.818-11.845-.167-.587.922-1.109,1.757-.883a1.293,1.293,0,0,1,.888,1.787c-.651,1.971-1.408,3.908-2.186,5.833-.492,1.215-1.459,2.537.171,3.458a3,3,0,0,0,3.666-.726,16.119,16.119,0,0,0,3.142-5.3c1.127-3.694,2.066-7.331,6.149-8.925,1.292-.5,1.25-1.614,1.391-2.794.991-8.284,2.253-16.712,6.34-23.94,2.106-3.724,1.155-7.71,3.148-11.107a1.585,1.585,0,0,0-.725-2.377c-1.1-.562-1.692.217-2.34.938-2.1,2.339-2.106,5.637-3.777,8.16-.754,1.137-1.733,2.293-3.227,1.575a1.974,1.974,0,0,1-.448-3.351c2.472-2.1,4.017-3.884,2.734-7.662-.816-2.4,2.9-4.854,1.671-8.275-4.738.588-5.022,4.768-6.28,8.022-1.3,3.36-1.2,3.4-5.51,3.811-.722-2.075,1.928-1.958,2.217-3.423.362-1.832.042-3.575-1.386-4.605-1.891-1.365-2.56.643-3.4,1.779-1.3,1.751-2.538,3.549-3.692,5.171-3.917-4.648-.321-8.148,1.3-12.377,1.431-3.726,1.48-8.357.847-12.385-.511-3.256-7.041-3.339-10.2-.223-1.539,1.519-3.245,2.982-3.661,5.3-2.342-1.047-1.109-2.071-.729-2.96.442-1.033,1.659-2.692,1.424-2.917-6.042-5.8,1.892-12.88-1.691-18.556-1.957-3.1-1.4-5.166.585-7.562.209-.253.33-.973.227-1.034-6.952-4.159,1.319-10.905-2.587-15.731-.446-.552-.463-3.679,1.776-4.176,1.584-.352,2.163,1.183,2.61,2.461.867,2.481,2.713,1.576,4.251,1.1,2.221-.682,6.361-10.142,5-11.961-3.99-5.326-3.386-11.2-4.019-17.335-.468-4.536,2.452-10.537-2.545-14.463l.037.133c-.555-3.842.814-7.831-.818-11.571-.328-.749-.739-1.56-.122-2.031,5.874-4.5,1.942-10.579,2.71-16.312l-4.7,2.545c1.789-4.346,4.746-7.682,3.152-11.851-5.372,2.766-7.482,9.247-8.307,15.137-1.015,7.251.815,14.355-.974,21.8-1.4,5.805-3.11,12.994-1.6,18.53,1.318,4.838-.959,10.638,3.606,14.919,1.935,1.814.883,5.07-1.349,7-1.2,1.035-2.8,2.328-2.56,3.565,1.336,6.854-3.306,12.86-2.5,19.534.264,2.2-1.755,3.04-2.238,4.936-2.417,9.48-1.807,19.474-5.035,28.774-1.315,3.789,3.14,4.888,3.548,8.571.6,5.385-2.094,4.94-4.675,4.231-2.145-.59-3.493-1.007-4.6.849-.132-2.971,4.956-3.582,3.7-7.121-.5-1.415-2.321-.1-3.953.359,1.379-3.721,4.384-5.856,4.544-9.58.106-2.475.776-4.339-.941-6.983-1.489-2.294-.045-6.071,1.245-9.071.934-2.171,3.1-5.027-1.917-5.45-1.684-.143-2.121-1.466-1.606-3.426,1.136-4.317,2.356-9.355,1.715-13.148-1.159-6.861-.339-13.843-2.1-20.574-.97-3.7.321-6.784,3.938-8.118,2.993-1.1,4.277-2.847,4.08-6.152a7.424,7.424,0,0,0-6.793,2.855c-.616.751-1.466,1.445-2.434.831-1.29-.819-.649-1.937-.148-2.973.575-1.188,1.111-2.394,1.664-3.592,2.515-5.451,2.515-5.451-.5-10.165-2.043-.15-1.7,4-3.868,2.693-2.535-1.528.462-3.2.526-4.808.114-2.893.809-4.719,4.027-5.44,1.609-.361,2.011-2.561,2.4-4.269-1.658-1.3-3.258.968-4.843.048-1.8-1.042-3.853-1.794-2-4.677,1.7-2.633,5.481-6.372,1.175-8.549-4.108-2.077-4.7,3.605-6.717,6-.328.39-.479.929-.988,1.289,2.97-5.836,6.109-11.595,6.872-18.248a2.723,2.723,0,0,1,1.253-1.726c7.081-4.062,8.466-9.839,3.553-15.893-1.223-1.507-1.45-2.936-.075-3.9,2.827-1.991,2.872-4.953,1.327-6.877-2.367-2.948-3.781,1.8-6.158,1.753-1.005-2.028.692-3.077,1.474-4.413.872-1.488,2.192-3.437.587-4.635-5.652-4.217-3.5-10.3-4.077-15.653-.8-7.392-1.383-14.823-1.662-22.252-.155-4.127,2.957-7.223,4.544-10.808.96-2.171,4.466-4.62,1.818-6.629-3.125-2.371-7.1-.349-10.313,1.382-1.134.61-1.622,2.421-2.918,3.642-.107-4.155-7.68-5.518-1.876-11.708-4.4.748-4.664,7.1-8.46,3.5-3.338-3.164-5.824-7.06-4.756-11.98,1.626-7.489,3.359-14.94,2.151-23.152-1.445,2.331-2.747,4.766-4.367,6.967-2.482,3.374-7.014,3.652-8.71-.1-2.806-6.207-6.114-3.947-10.342-1.212.308-3.822,1.7-7.1,4.147-8.542,3.444-2.038,4.206-5.89,7.106-8.124,1.5-1.158,1.257-4.6,3.992-4.055,2.937.583,1.294,3.816,2.333,6.114,3.34-2.665,4.032-5.865,3.309-9.492-.4-1.991-.552-4.1,1.272-5.141,2.311-1.313,3.563,1.4,5.3,2.25,1.565.772,3.709,1.425,2.847,4.115-.749,2.338-1.3,4.739-1.937,7.114-.8,3,.644,3.745,2.909,2.316,2.885-1.82,7.048-2.483,7.428-7.025a1.756,1.756,0,0,1,2.34-1.757c8.3,2.4,16.9-1.626,25.178,1.261,2.48.865,5.066,1.425,7.6,2.125-.444,1.915.161,2.7,2.257,2.507,1.14-.107,2.355.631,1.982,2.025-.387,1.447-1.576,1.055-2.734.72-5.179-1.5-9.31-.056-12.208,4.589l-.709.14c.111.041.248.143.327.11a1.554,1.554,0,0,0,.368-.312c3.066,2.523,6.57,4,10.372,2.377,6.205-2.64,12.371,2.194,18.858-.629-2.414-2.24-2.038-4.368.881-5.993.93-1.786,3.034.3,4.043-1.227l14.052,4.668c-2.13,2.39-4.184,2.331-6.793,1.331-1.677-.643-4.005-2.164-5.571.414-.73,1.2-3.289,1.432-2.316,3.36.76,1.506,1.638,3.31,4.332,2.564,2.2-.608,4.57-.179,5.335,2.8.585,2.282,1.457,4.44-1.943,5.324-1.37.356-1.409,1.65-.8,2.8A2.859,2.859,0,0,0,208.1,89.83c1.9-.02,3-1.415,4.395-2.343a2.93,2.93,0,0,1,3.682.431c1.194,1.012.474,1.747-.263,2.8-4.712,6.7-4.645,7.2,1.054,14.5.637-5.4,6.627-5.66,8.42-10.01.354-.857,2.674-2.058,3.994-1.237,1.533.951.721,2.9.037,4.08-1.566,2.7-3.233,5.708-6.874,5.78-2.014.04-2.618,1.169-3.25,2.545a1.82,1.82,0,0,0,.815,2.421c1.486,1.022,2.3.029,3.365-.893,1.976-1.707,2.9-1.136,3.072,1.527.4,6.187,4.221,9.5,10.155,8.952.94-.086,2.142-.659,2.642.208,3.366,5.838,7.33.49,10.92.462,2.267-.018,1.689-2.181.069-3.058-5.055-2.736-8.986-7.524-15.2-8.189-1.828-.2-4.857-7.336-3.523-8.415,3.036-2.455,1.84-4.14-.143-6.445-1.586-1.844-2.955-4.739-.9-6.619,1.648-1.509,4.795-.454,6.63.533s3.9,1.9,5.433,3.761a3.813,3.813,0,0,0,6.019-.279c1.863-2.484-1.306-2.783-2.491-3.96-1.611-1.6-2.843-2.679-5.7-2.012-2.282.534-5.556.122-6.906-3.454-1.458-3.86-5.691-3.082-8.758-4.078-1.956-.635-4.238-.318-4.469-3.356a19.085,19.085,0,0,1,9.542,3.057c4.783,3.078,10.411,2.976,15.524,4.724,1.66.567,2.763-.767,4.177-.989-.286,2.885,2.111,2.757,3.778,3.164,16.8,4.113,30.6,13.745,44.439,23.533,9.247,6.539,19.211,12.062,28.556,17.855.051-.3-1.034-2.339.468-3.016,6.113-2.757,1.7-5-1.213-8.043,9.009-.24,16.617,2.549,24.975,3.506-1.717-3.721-4.863-2.625-7.1-3.5-1.666-.655-4.259-.3-3.829-3.083.352-2.278,2.859-3.022,4.459-2.7,5.854,1.174,9.963-2.818,14.849-4.431,2.27-.749,2.276-1.789.639-3.67-3.043-3.5-8.852-4.849-8.571-11.088.052-1.145-1.885-.867-2.944-.522-1.614.527-3.134,1.493-4.776,1.75-2.034.319-4.728,2.519-6.067-.427-1.064-2.339-3.1-4.992-.773-7.927a16.016,16.016,0,0,0,2.662-5.244c-5.47,6.38-11.912,6.73-19.135,4.264-1.642-.561-3.817.571-5.571.165-2.212-.511-5.605-1.2-1.9-4.556,3.156-2.856.41-6.1.056-8.941-.794-6.351,3.866-10.521,5.5-15.848.78-2.538,11.569,1.74,13.646,3.5,4.286,3.641,4.7,8.821,7.157,12.84,2.659,4.352,10.112,4.834,14.47,8.831.415.382,1.939-.017,2.675-.483,4.235-2.683,8.394-5.486,12.563-8.272.732-.489,1.929-.9,1.275-2.088a2.331,2.331,0,0,0-2.454-1.064c-6.858.871-9.746-5.157-14.294-8.285a2.218,2.218,0,0,1-.754-3.017c1.707-3.345-1.282-3.308-2.69-2.918-3.152.872-5.915-.446-8.853-.681-5.392-.43-7.361-3.515-7.848-8.58-.287-3,.878-7.141-4.533-7.761-1.88-.215-.971-2.928-.706-4.522.19-1.141.879-2.334,2.305-1.811,2.467.9,4,5.782,7.919,1.2.569-.666,6.587,3.048,7.916,6.929,2.471,7.216,12.4,11.585,18.908,8.229,2.534-1.307,1.436-3.7,1.885-5.552.46-1.894.864-2.768,3.059-2.992,2.639-.271,2.025,1.4,2.379,2.736,1.031,3.881,3.262,5.778,7.617,6.144,6.324.532,12.5,3.486,18.973,1.24,7.437-2.58,15.007-4.9,21.8-8.945-.965-2.5-2.351-1.45-3.569-1.427-3.365.064-6.938.987-6.167-4.994.43-3.335-2.542-4.32-5.584-2.42-4.065,2.54-8.435,1.271-11.105-2.764-7.26-10.973-14.863-21.717-20.554-33.657A31.058,31.058,0,0,1,370.979-20.8c-.268-4.693,4.461-6.628,9.244-3.972,4.455,2.473,9.409,2.043,14.085,3.149,1.7.4,2.282-.967,3.072-1.993,1.584.125,3.17,1.263,4.8.029-2.33-1.778-2.33-1.778-4.776.073-3.956.034-4.457-2.828-4.185-5.64.236-2.435.079-4.568-2.611-4.576-3.486-.01-1.664,2.458-1.318,4.1.416,1.974-.394,3.6-2.159,4.046-2.014.511-2.15-1.28-3.057-2.785-2.353-3.9-1.509-9.266-6.552-12.178-2.186-1.263-3.528-1.4-5.977-.135,1.433-5.267,3.365-8.286,8.49-9.47,3.945-.912,2.627,3.046,4.772,3.529,2.173-2.646,4.319-5.356,6.578-7.967,1.042-1.2,3.286-2.044,1.238-3.984-1.472-1.4-2.519-2.551-5.567-2.027-7.867,1.351-11.687,7.252-16.374,12.246-2.524,2.689-4.721,4.043-7.758,1.02-.723-.72-1.544-1.224-2.436-.4a2.361,2.361,0,0,0-.433,1.391c1.787.821,2.511,1.939.648,3.286-1.494,1.08-3.133,2.957-4.971,2.294-2.952-1.063-5.526-2.464-5.439-6.794.066-3.249-1.291-6.969-5.68-7.583a13.819,13.819,0,0,1-5.7-2.421c-3.272-2.158-6.555-1.391-9.483.414-1.309.807-1.95,2.487-3.431.431-1.139-1.58-1.174-2.745.416-4.362,3.284-3.341,6.641-6.673,8.941-10.873,2.511-4.586,1.876-8.216-1.958-11.67-2.34-2.109-.27-4.139.5-6.148l.942-.033c-.375-.858-.663-.52-.933.068-6.759-1.663-4.605-5.736-2.517-9.547-1.538-2.865-4.494,5.183-5.632-1.006-.125-.677-1.206.821-1.81,1.371-5.173,4.715-6.224,11.129-6.9,17.546-.35,3.316-1.428,3.561-4.379,2.811-3.123-.795-6.335-3.632-9.773.135-.369-3.055,1.562-4.385,2.358-6.2.432-.982,1.612-1.891.748-3.047-.818-1.095-2.284-.724-3.151-.311-3.922,1.864-8.724,1.137-12.184,4.553a5.769,5.769,0,0,1-6.792,1.338c-2.479-1.312-1.211-3.7-1.013-5.657.284-2.793.264-5.744,2.97-7.646,2.213-1.555.908-3.84,1.014-5.8a1.986,1.986,0,0,0-1.972-2.306c-1.349-.017-1.965.926-2.247,2.137-.371,1.591.19,3.451-1.711,5.129-1.546-2.777-5.434-2.494-6.791-4.777-1.607-2.7,3.933-3.812,2.7-7.78-2.009,2.592-5.954,2.253-6.413,6.351-.178,1.588-2.3,2.128-2.942.688-1.649-3.7-6.022-1.35-8.12-4.157-.727-.973-2.382.63-3.065,1.7-.876,1.367-.733,3.374-2.457,4.081-5.838-6.438-1.756-11.724,1.254-17.819,7.333-14.849,20.5-21.763,34.619-28.092,5.03-2.254,9.149-6.5,14.824-7.749,1.83-.4,3.572-1.312,5.411-1.547,9.348-1.191,16.032-13.164,11.948-21.844-.916-1.947-3.249-2.787-5.235-2.786-3.948,0-7.2-1.676-10.529-3.362-2.763-1.4-4.4-5.065-8.8-3.172-2,.865-1.831-2.847-3.1-3.99-3.441-3.1-6-5.875-4-11.343,1.06-2.9-3.085-5.058-5.444-6.259-2.93-1.492-2.055,2.088-2.767,3.5-.443.874-.869,1.7-1.911,1.91-6.561,1.313-4.224,7.158-4.988,10.956-.511,2.544,3,2.6,5.332,2.307,1.512-.193,3.9-.432,1.787,1.869-2.487,2.712,3.792,5.1.1,6.612-1.878.771-3.3-3.37-5.941-3.329s-5.272-.852-7.687-.892c-6.672-.112-9.817-8.52-17.219-6.658-1.174.295-1.69-3.214-.843-4.272,2.792-3.488,2.333-8.348,5.441-11.669a3.847,3.847,0,0,0-.323-6.026c-2.975-2.566-2.471-6.124-2.76-9.44-.091-1.048-.324-2.493,1.288-2.676,1.323-.149,1.894.928,2.4,2,2.356,5.063,7.993,6.92,11.132,11.381,1.375,1.954,4.442,2.1,5.771-1.275.989-2.514,3.34-5.2-1.279-6.658-1.052-.333-3.162-8.5-2.612-9.487,1.5-2.7,3.355-1.544,5.282-.577,5.607,2.814,5.63,2.787,8.82-3.276-1.484-2.083-3.537,1.327-5.021-.529,1.557-4.781,3.589-9.608.116-14.459-.636-.888-.889-1.774.04-2.458s1.756.109,2.549.568c2.872,1.662,2.5,5.312,4.844,8.2,1.649-5.167.651-9.809.045-14.2-.608-4.414-6.4-6.449-10.97-4.426a38.441,38.441,0,0,0-5.967,3.2c-3.485,2.354-5.5,1.308-6.746-3.06-1.958,6.19-5.1,7.75-9.881,3.212-.755-.717-1.683-.246-2.6-.212-3.9.145-7.707-.177-8.285-5.339-.148-1.317-1.608-1.564-2.171-2.459-2.4-3.822-6.493-7.093-4.085-12.568.791-1.8-.582-3.064-2.146-3.3-1.857-.275-3.973-2.2-5.684.22-.611.863-2.055,2,.85,2.191,2.623.176,2.95,3.045,2.328,4.955-.989,3.032-2.938.507-4.579.357-8.472-.774-10.263-7.907-12.951-13.869-.521-1.155-2.936-5.8,2.688-5.679,2.389.051,1.889-3,2.162-4.477a3.521,3.521,0,0,0-3.144-4.007c-1.749-.281-3.594.249-3.552,1.868.145,5.627-5.2,9.212-5.075,14.8.063,2.768-1.759,3.11-3.851,1.8a22.247,22.247,0,0,1-4.534-3.394c-1.5-1.594-2.563-2.627-4.478-.481-.629.705-2.783,1.227-3.094.861-4.288-5.052-9.571-1.709-14.433-2.072-6.193-.461-7.795-4.122-4.693-9.483,1.978-3.418,4.952-6.22,5.992-10.237.416-1.61,2.006-2.033,3.643-2.208,2.224-.238,3.73-2.039,3.223-3.856-.942-3.374-2.962.606-4.476-.151-1.352-1.5,1.982-3.671-.735-4.921a5.294,5.294,0,0,1,2.234-3.149c8.347-7.163,17.9-12.561,27.245-18.2,4.246-2.563,9.306-3.6,14.528-4.14,14.627-1.511,28.419.857,42.17,5.91,17.374,6.384,28.222,18.128,33.773,35.645,3.609,11.388,2.583,23.947,9.412,34.6,1.365,2.13,4.358,5.628,2.78,8.323-2.191,3.741-1.1,7.384-.807,10.79.351,4.064,3.455,7.473,7.993,6.972,1.932-.213,1.919.546,1.533,1.188-2.893,4.823,1.261,5.974,5.393,8.68a37.75,37.75,0,0,0-4.362-1.22c-1.644,3.759-3.112,7.595-4.608,11.418,6.208,3.005,3.018,7.914,2.271,12.145-.6,3.386-1.235,7.3.862,9.591a121.523,121.523,0,0,1,11.793,14.609c2.895,4.365,4.434,1.629,6.8.372,1.564-.83.37-4.913,3.231-3.4,2.53,1.341,3.38,4.37,2.99,7.468-.28,2.222-1.553,3.409-3.353,2.079-4.076-3.014-3.473.03-4.027,2.542-1.487,6.741,3.718,9.134,7.653,12.408,2.861,2.381,4.762,1.439,6.046-1.713l-.066.015c2.348,2.937-1.573,6.5,1.353,9.894,1.243-4.986,6.393-7.524,6.547-13.162.022-.795-.355-9.656,6.613-4.533,1.232.906,3.9-.886,3.4-3.757-.342-1.942-1.848-3.856-.245-5.884-2.848-1.61-1.9-7.113-6.794-6.624l.084-.027c-2.63-1.117-4.988-4.517-8.164-.6-.7.865-3.461.469-3.475-.423-.078-4.882-1.663-4.572-4.578-1.792-.255.243-1.7-.15-1.914-.582-1-2.039-1.889-3.38-4.609-2.112-1.2.561-1.872-1.194-1.5-2.277a32.938,32.938,0,0,1,2.3-4.484,4.59,4.59,0,0,1,3.12,3.541,1.6,1.6,0,0,0,2.108,1.222,1.533,1.533,0,0,0,1.349-1.489,2.094,2.094,0,0,0-1.253-2.257,50,50,0,0,0-5.314-.947c-.836-.68-2.253-1.006-2.04-2.4.164-1.074,1.314-1.407,2.225-1.415,5.22-.047,10.145-.476,14.451,4.263a194.512,194.512,0,0,0,35.074,30.805,58.256,58.256,0,0,1,17.81,18.5c6.5,10.914,9.139,22.957,12.665,34.8l.076-.02c-4.892-1.765-6.841-5.627-7.039-10.448-.082-2.013-1.5-3.455-2.516-2.652-2.381,1.885-4.628,1.5-7.2,1.241-1.59-.161-1.727.606-.287,2.36.338.413.961.64.605,1.24-2.936,4.94-.047,8.624,2.167,12.822,1.219,2.313.652,5.4,4.81,4.218.316-.09,3.369.009,2.945,2.762-.215,1.4.662,3.355,2.722,2.443,1.478-.654,1.583-2.08.865-3.842-1.691-4.147-.4-7.058,4.276-7.966l-.058.023c.654,2.159.874,4.595,2.037,6.433,6.184,9.771,9.471,20.981,15.115,30.9,8.119,14.271,10.734,30.3,16.461,45.3.139.365-.285.946-.508,1.611a9.541,9.541,0,0,1-1.46-.925c-.809-.767-.532-3.329-2.387-2.151-1.635,1.039-.016,2.177.929,3.075,2.241,2.125,1.154,4.162-.381,5.989-5.467,6.507-3.876,14.708-5.441,22.15-.368,1.754.907,2.3,2.049,2.945,1.933,1.09,2.682-.459,3.582-1.651C452.206-1.962,453.284-1.567,453.847-2.939ZM254.924,504.873l.011-.448c1.281-5.567,4-2.179,7.147-.507-1.372-2.811-2.226-4.82-5-5.22-1.826-.263-2.779.709-3.618,2.1-1.186,1.967.405,2.673,1.536,3.611Zm-34.681-7.182c3.311-5.394,8.932-2.786,13.739-3.954-1.567-2.2-1.78-5.171-6.3-3.088-1.486.686-6.38-1.321-9.637-2.366.272-.669.786-1.365.028-2a.924.924,0,0,0-.865.2c-.39.9.379,1.3.922,1.776-.756.977-1.319,1.365-2.743.552-5.284-3.02-10.225-1.046-11.754,4.711-.371,1.4-5.521,2.592-.5,4.523.847.326,3.216,2.177,1.834-1.395-.194-.5,5.234-2.393,6.252-1.115,2.774,3.486,6.064,1.694,9.116,2.125-1.537,3.632.4,5.083,3.6,4.991a69.954,69.954,0,0,0,8.8-1.315c.578.393,1.429.659,1.682,1.2.626,1.35.885,3.4,2.5,3.4,1.873,0,2.133-2.28,2.924-3.663.992-1.732,1.451-3.474-.693-4.877s-3.009.6-4.2,1.536a17.619,17.619,0,0,0-2.19,2.464C229.2,498.078,224.938,497.147,220.243,497.691ZM318.081,411.8c-2.839-.991-5.61-2.349-8.533-2.9-6.6-1.245-9.02,1.838-6.5,8.136.613,1.534,2.287,2.794.446,4.413-1.778,1.563-2.457-.534-3.679-1.132-2.316-1.136-2.852.856-2.194,2.22a26.422,26.422,0,0,1,2.053,17.254,1.246,1.246,0,0,0,1.253,1.533c3.633.062,3.218,3.029,3.924,5.227.31.965-.641,2.566,1.027,2.821,2.048.312,1.8-1.752,2.08-2.779,1.006-3.656-.847-6.838-2.552-9.773-1.277-2.2-1.66-4.387.451-5.346,2.482-1.128,2.686,1.667,3.312,3.327.33.873.531,2.289,1.124,2.494,7.441,2.572,4.039,8.3,3.773,13a4.6,4.6,0,0,0,.849,3.04c3.705,5.907,3.674,5.926-2.34,7.8l.1-.024c-1.443-.181-2.978-3.033-4.18-.508-.849,1.784,1.351,2.972,2.885,3.6,2.773,1.129,5.8,1.366,8.65,2.5,2.5,1,2.42-2.257,3.1-3.588,1.474-2.9,1.325-6.818,5.726-7.545a1.351,1.351,0,0,0,.858-1.834c-.584-1.4-1.859-2.2-3.177-1.556-3.832,1.874-5.381-1.118-7.578-3.092-1.777-1.6-1.425-3.019.029-4.277,1.231-1.065,2.074-2.006,1.814-3.793-.315-2.161.6-3.171,2.971-2.691A3,3,0,0,0,327.4,436.3c.547-1.748-.844-2.771-2.194-3.538a32.7,32.7,0,0,0-4.039-1.994c-4.7-1.865-5.208-4.879-1.1-7.956,1.37-1.026.088-1.522-.024-2.192-.492-2.936-3.252-5.361-1.955-8.711,2.781,1.269,6.32,1.71,6.266,6-.015,1.2.919,1.536,1.955,1.33a1.523,1.523,0,0,0,1.122-2.163c-1.41-3.2-1.478-7.312-5.608-8.781-1.129-.641-1.714-1.532-.866-2.718a8.447,8.447,0,0,1,2.012-1.967c2.7-1.877,4.469-4.222,3.365-7.63-1.189-3.667-4.57.525-6.323-1.721-.012-.188-.187-.638-.033-.875,1.173-1.808,5.275-1.413,4.383-4.251-.7-2.242-3.946-.715-6.027-1.279a10.2,10.2,0,0,0-9.727,2.636c-1.262,1.169-3.332,4.146-1.911,4.6,5.413,1.744,2.58,6.195,3.482,9.189.645,2.135,1.9,1.949,3.089,2.469,2.041.9,4.152,1.629,6.234,2.43ZM157.708,538.139c-2.439,3.795-5.253,1.142-4.849-.864,1.267-6.281-5.089-7.738-6.427-12.565-1.78,1.263.179,6.542-4.367,3.93-.595-.342-1.51.274-1.658,1.12-.27,1.544.9,1.9,2.037,2.1,1.817.312,3.4.829,3.236,3.107-.2,2.755-2.269,1.558-3.779,1.877-3.871.818-4.758,4.076-1.7,6.885,1.9,1.748,1.919,6.28,6.347,4.789a3.324,3.324,0,0,1,.8,1.823c-.26,1.6-1.524,3.717,1.009,4.053,1.085.144,2.876-1.609,3.61-2.914,1.883-3.35,3.271-6.881,6.861-9.049,2.088-1.26.029-3.99,1.116-5.827.669.261,1.362.749,2,.027a.915.915,0,0,0-.195-.845c-.883-.354-1.305.36-1.78.908A2.62,2.62,0,0,0,157.708,538.139ZM306.016,145.23c-.344,1.287-2.41,2.693-.571,3.859,1.395.884,3.491.234,4.717-.847,1.748-1.54-.173-3.141-.8-4.432-.587-1.21-2.141-1.951-3.27-2.9,1.1-1.94,2.792-3.621,2.362-6.187-.236-1.406.083-2.88,1.812-2.9,1.376-.019,2.319.821,2.5,2.491q.837,7.612,1.985,15.189a20.448,20.448,0,0,0,1.326,3.663c.658,1.829,1.446,4.023,3.788,3.238,2.145-.719,1.949-2.932,1.422-4.884-.29-1.071-1.085-2.623-.652-3.179,5.59-7.181-1.078-12.184-3.819-17.087-1.819-3.254-6.666-5.141-8.562-9.159-1.99,1.423-1.138,2.615-1.249,3.655-.1.973-.319,1.969-1.437,2.148-1.386.223-1.9-.635-2.213-1.917-.619-2.547-.153-6.9-4.668-1.945-1.24,1.362-5.813-.312-8.925-.6-.163,2.017,2.412,3.044,1.49,5.285a1.757,1.757,0,0,0,1.845,2.273c8.322-1.821,9.853,5.125,13.079,9.9C305.144,142.29,306.4,143.772,306.016,145.23Zm67.522-266.46c2.084-1.121,3.836-2.426,3.065-5.019,1.44-2.118-.076-5.253-.69-5.7-3.278-2.371-.793-3.936.544-6.138-3.213,1.765-5.634.675-7.6-1.364-2.641-2.743,1.362-4.659.846-7.42-2.324,5.077-9.112,6.582-9.763,13.029-.118,1.16-.6,2.164.57,2.988a2.424,2.424,0,0,0,3.083-.16,10.483,10.483,0,0,1,3.585-1.49,2.334,2.334,0,0,1,2.928,2c.438,2.213-1.279,1.725-2.52,1.891-2.425.325-4.833.777-7.258,1.1-4.668.622-7.965,5.825-6.269,10.278a4.417,4.417,0,0,1-.346,4.26c-1.209,1.989-1.034,3.894.733,6.171,2.337-3.415,5.3-4.681,9.45-3.962,3.655.634,6.073-.263,4.143-5.28-1.551-4.033,2.869-6.948,4.056-10.623.525-1.629,3.025-.309,4.554.412ZM260.048,617.1c1.618-5.046-.462-7.279-5.61-6.9-2.278.167-5.073-.157-6.172-2.8-1.013-2.434-3.207-2.974-4.969-4.251-2.3,1.275.138,4.515-2.519,5.212-2.364.621-3.73-1.436-5.508-2.354-2.343-1.21-4.591-2.609-6.959-3.764-.679-.332-1.494-1.294-2.715-.074,2.274,2.36,5.248,3.9,6.043,7.909.467,2.356,2.333,3.648-1.047,4.781-.939.315-.941,1.073-.518,1.792.507.862,1.229.665,1.92.209a18.921,18.921,0,0,1,3.315-2.155c2.572-.989,5.371-2.066,5.386,2.585,0,.908.245,2.455.739,2.619,3.955,1.313,7.632,2.462,4.715,7.965-.374.706,1.487.384,2.322.55,3.5.695,5.875,3.074,8.355,5.45.909.872,2.143,4.137,4.231,1.086,1.484-2.168,3.6-4.788.79-7.1-2.374-1.951-2.633-3.872-1.758-6.41a10.905,10.905,0,0,1,8.716,4.3c-.3-4.192-.822-6.726-4.023-7.822-3.4-1.164-3.367,2.084-4.668,3.618C258.1,620.08,259.541,618.687,260.048,617.1ZM235.675-310.213c5.526-1.98,6.79-5.127,4.3-10.615-.273-1.2-2.332-3.523.2-3.273,3.572.353,3.726-2.28,5.4-3.766,4.344-3.846,1.484-5.63-1.934-6.195-4.769-.789-9.559-2.828-14.542.991-2.547,1.952-7.093,2.515-7.986-3.264-.389-2.521-2.615-1.8-2.987-.371-1.219,4.658-5.263,2.99-8,4.267-3.952,1.842-8.135-.679-12.008,1.322-2.251,1.163-3.955,2.83-3.9,5.121.095,3.973-1.427,3.6-4.136,2.352s-4.811.328-3.185,2.695c2.95,4.291.051,6.958-1.382,10.248-.639,1.465-3.524,3.262-.815,4.615,2.361,1.179,1.992-2.044,2.664-3.262,2.121-3.846,3.725-8.123,9.335-7.543,1.594.165,1.8-.663,1.9-2,.416-5.244,1.217-6.052,4.544-2.959,4.019,3.736,5.534.163,8.2-.544-.6-2.115-2.036-1.58-3-1.978-1.737-.715-2.441-1.845-1.365-3.515,1.113-1.729,2.45-1.506,3.649-.025,3.714,4.589,8.184,4.8,12.992,2.085,2.156-1.22,4.89-1.053,5.712.417,2.553,4.571,6.271,5.176,10.753,4.556C238.984-317.163,235.605-314.413,235.675-310.213ZM213.7,379.144c-.783,1-2.109,1.839-1.454,3.4.915,2.185-.072,3.331-2.09,3.6-2.793.372-2.808-1.858-2.933-3.686a36.962,36.962,0,0,1,.2-4.4c-2.216-.7-3.369.656-3.753,2.327a46.25,46.25,0,0,1-4.831,13.188c-.884,1.512-.463,2.512.983,3.187,3.867,1.807,1.2,4.361.9,6.727-.222,1.754-7.515,1.19-1.576,4.832-.458.568-.972,1.668-1.366,1.626-6.668-.7-5.138,5.847-7.53,8.8-1.775,2.191,1.117,4.055,3.072,3.873,3.874-.361,6.232,1.543,8.808,3.86,1.277,1.149,2.823,2.606,4.92,2.331,2.99-.392,4.088.958,4.077,3.859a3.185,3.185,0,0,0,2.827,3.131c2.314.37,2.3-2.016,2.435-3.1.69-5.475,6.23-8.492,6.907-13.972-2.476.068-3.488,2.126-5.031,3.546-1.193-8.852,1.72-13.193,7.889-11.989-.38.789-1.027,1.651.1,2.285a1.385,1.385,0,0,0,1.306-.4c.637-1.111-.325-1.528-1.079-1.987,1.069-1.409.114-2.634-.593-3.618-1.7-2.374-.6-3.74,1.647-3.875,3.44-.207,3.292-3.2,2.531-4.321-2.519-3.715.257-4.839,2.536-5.56,5.57-1.764,4.855-6.238,4.456-10.171-.291-2.868-2.375-2.193-3.987-.574a57.864,57.864,0,0,0-10.712,14.986c-1.87-2.251-.586-4.2-1.065-5.833-.249-.849.356-2.349-.713-2.5-6.735-.958-2.039-4.088-1.834-6.573,1.728.34,1.712,1.364,1.95,2.257.228.857.153,2.079,1.45,2.069,1.085-.008,1.519-.838,1.751-1.867.655-2.913.307-6.084,2.191-8.686-2.809-1.239-1.554-3.345-.232-4.18,2.408-1.523,2.669-3.935,3.566-6.105.935-2.263,1.568-4.657,2.605-6.866.3-.647,1.5-1.032,2.352-1.238a5.676,5.676,0,0,0,4.594-5.674c-.371-6.09,1.567-11.655,2.548-17.448.249-1.473,1.989-4.832-1.171-5.208-2.709-.323-3.55,2.722-4.305,4.98-.26.779,1.426,2.482-.829,2.23-1.7-.189-1.774-1.689-1.167-3.094.146-.338.524-.586.639-.928.834-2.481,3.89-5.722.22-7.267-2.466-1.037-4.925,2.494-5.7,5.018-2.984,9.7-8.374,18.571-9.988,28.731-.847,5.336-3.708,9.391-7.806,12.709L211,371.6l.391-.122C216.333,372.776,216.566,375.483,213.7,379.144Zm95.289,142.571c-1.244-1.339-1.679-2.532-.88-3.985,1.13-2.058,1.85-3.646.216-6.131-1.42-2.158,1.953-5.3,7.174-6.971-1.322-2.038-5.156-3.878-.639-6.524,1.1-.641-.389-1.785-.93-2.734-2.031-3.566-4.832-7.058-2.244-11.616.375-.66.23-2.419-.14-2.576-4.2-1.79-5.241-6.388-8.226-9.294-1.831-1.784-5.794-4.227-3-8.305a3.415,3.415,0,0,0-.151-4.632c-1.657-1.96-2.847-4-.319-6.38,1.495-1.41.388-2.726-.852-3.781-2.082-1.772-4.606-2.424-7.2-3.057s-4.687.986-6.09,2.213c-1.366,1.195.306,3.769,1.613,4.928,4.733,4.2,2.016,9.945,3.329,14.83.368,1.368-1.366,4.2-2.619,3.867-5.8-1.559-5.562,2.273-6.146,5.889-.289,1.788-2.143,2.184-3.648,1.858-4.674-1.01-4.408,1.236-2.824,4.19,1.194,2.226-.049,3.526-1.4,4.907-.984-.305-1.452-1.879-2.852-1.161,2.708,2.023-2.376,4.465.138,6.092,2.778,1.8,1.01-2.639,2.865-2.518,1.547,1.151,2.319,2.389.942,4.273-2.737,3.747-2.951,8.225-3.378,12.608-.2,2.012,4.333,6.13-2.463,5.156-.729-.105-.533,1.842.2,2.326,6.7,4.406-.805,6.7-1.716,9.719-1.074,3.556-3.183,1.151-5.036-.328-2.284-1.825-3.156.3-3.046,1.994a5.636,5.636,0,0,0,2.039,3.91c6.149,4.022,7.2,9.065,4.72,15.839-.933,2.543,1.026,5.672,3.337,8.936-4.582-.814-7.145-3.574-10.831-5.083-.07,2.039,1.9,2.949,1.4,4.721-.362,1.292,6.858,8.256,8.144,8.129a1.72,1.72,0,0,0,1.267-.884c.575-2.069,1.3-4.653,3.795-3.869,2.08.652-.1,3.727.964,5.066,2.669,3.371.982,5.9-1.006,8.548-.824,1.1-1.778,2.255-3.238,1.685-1.524-.6-.506-1.851-.354-2.9.533-3.668-2.326-4.752-5.31-6.448-.339,4.718-2.626,5.211-6.076,2.853-.9-.616-2.044-1.388-2.991-.143a2.19,2.19,0,0,0,.252,3.05c1.353,1.4.669,3.282.673,4.761.022,7.9-.125,7.878,7.609,8.027a17.981,17.981,0,0,0,13.75-5.262c2.225-2.191.263-5.432,2.008-6.83,5.478-4.386,4.752-12.221,9.849-16.684,2.356-2.062.205-3.314-1.065-4.454-1.64-1.472-2.789-3.837-.932-4.748,5.732-2.813,5.59-11.613,13.408-12.322,2.891-.262-.308-3.364.263-5,3.664.068,2.248,3.277,3.991,4.991,2.144-6.214,11.873-.8,12.809-8.978l.446.01-.429.058C314.681,525.062,311.711,524.646,308.988,521.715ZM382.14-162.32c1.989.789.661,2.186.051,3.247-1.316,2.288-2.983,4.332-3.789,6.957-1.062,3.462-2.157,6.463,1,9.761,3.068,3.2,1.836,7.269.355,11.019-.321.814-1.086,1.837.078,2.465a2.152,2.152,0,0,0,2.025-.224c2.421-3.827,6.946-3.667,10.351-5.593,5.234-2.96,5.446-5.448.545-8.815-3.834-2.634-3.455-4.272,1.827-7.905-.055-1.254-1.063-1.36-1.947-1.634-3.358-1.042-7.561-1.537-3.59-6.671a3.21,3.21,0,0,0-.522-4.224c-4.065-2.722-6.929-8.5-14.194-5.438C377.667-167.323,378.719-163.676,382.14-162.32ZM179.1,505.546c.68-.305,1.618-.8,2.144-.562,6.009,2.724,9.165-1.022,12.557-5.022,1.537-1.813,3.856-3.859,2.279-5.64a10.768,10.768,0,0,0-7.494-3.376c-2.021.071-3.911.495-5.852-.375-.337-.152-.96-.385-1.047-.271-3.232,4.223-8.007,3.024-12.489,3.826,1.815,1.125,3.683,2.173,5.428,3.4,1.6,1.122,4.623,1.909,3.434,4.382-1.178,2.452-3.11-1.1-5.333-.219C173.079,506.136,175.227,507.285,179.1,505.546ZM289.733-240.246c-.7,2.346.443,3.4,2.6,2.849,4.092-1.047,6.87,1.357,9.8,3.365,1.545,1.06,3.981,1.852.784,4.333-2.206,1.712.618,3.22,1.523,4.641.8,1.264,1.939,1.464,3.412.638,1.869-1.048,1.455-1.859.667-3.553a6.8,6.8,0,0,1-.118-5.406c3.2-5.658-2.75-9.333-2.747-14.262,0-1.087-1.823-2.215-3.183-1.687-3.234,1.255-6.216,3.3-9.982,2.453-.256-.057-.714.783-.975,1.087C290.881-243.834,290.27-242.051,289.733-240.246ZM200.644,279.971c-.11-1.518-.452-2.521-1.819-3.118-3.282-1.434-7.114,2.48-10.378-1.03-.238-.254-1.337,2.226-1.252,3.8.34,6.346-.694,12.726.576,19.008C197.239,294.867,201.292,288.919,200.644,279.971Zm-2.321-11.4c4.537-6.213,1.05-12.535,1.342-18.772.035-.743-.423-1.654-.128-2.206.366-.682,1.281-1.07,1.958-1.585-.241-.232-.443-.565-.731-.677-1.046-.405-2.215-1.19-3.164-.994-1.615.335-1.493,1.963-1.319,3.284.62,4.7-2.58,8.115-4.033,12.112-.964,2.649-2.144,5.22-3.087,7.876a3.714,3.714,0,0,0,.751,4.028C192.922,273.605,196.246,271.413,198.323,268.569ZM442.161,52.355c2.4,2.922,3.045,6.7,3.114,10,.074,3.557,1.643,5.91,3.308,8.494.79,1.225,1.637,2.825,3.536,1.816a3.378,3.378,0,0,0,1.559-4.825c-3.141-6.134-4.81-12.944-8.639-18.748-.9-1.37-1.824-3.283-3.559-1.076C440.428,49.83,441.2,51.183,442.161,52.355ZM293.562-283.7c-3.093-.209-7.823,5.528-6.751,7.881,2.67,5.859,8.152,4.547,14.364,4.682C297.436-275.574,301.4-283.168,293.562-283.7Zm-11.7,174.154c2.746,1.327,6.106-.27,7.794-2.534,2.288-3.069.545-6.768-.2-10.172-3.528,1.419-7.883,1.638-9.359,6.8C275-112.444,279.939-110.473,281.862-109.543ZM353.9-151.222c-3.758-3.553-7,.522-10.528.043-1.167-.159-.272,3.351.256,4.971.48,1.475,1.719.954,2.566-.136,2.113-2.719,4.067-2.024,6.064.221,2.8,3.15,6.892,2.013,10.051,1.843,3.32-.178.02-4.558,2.126-6.458C360.61-148.524,356.738-148.541,353.9-151.222Zm-6.677,538.664c2.353-.266,5.045-1.694,4.726-4.584-.341-3.09-3.2-3.372-5.736-3.1-1.838.2-3.614.908-5.443,1.263-1.421.276-3.482-.059-3.623,1.769-.123,1.588,1.874,2.083,3.14,2.822A9.376,9.376,0,0,0,347.226,387.442Zm-7.215-202.924c1.649.4,2.854.893,3.723-.879.944-1.923-.028-3.214-1.6-4.227-1.952-1.259-4.2-1.538-6.419-1.832-.918-.122-1.866,0-2.79-.091-2.193-.21-4.415-4.4-6.043-1.469-1.3,2.329,3.4,2.6,4.633,4.794A35.628,35.628,0,0,0,340.011,184.518ZM328.393,509.023c-3.953,1.673-2.3,5.436-2.66,8.379-.12.967,1.809,1.483,1.708,1-1.086-5.222,4.275-4.654,6.289-6.158,3.445-2.572,2.2-3.547.189-5.464-.906-.862-1.73-1.811-3.027-3.181C330.771,506.154,330.69,508.05,328.393,509.023ZM437.367-34.567c-3.239,4.084-2.862,12.616,1.06,18.384C441.7-23.05,441.023-28.872,437.367-34.567Zm-61.78,152.434c-7.5-2.9-15.269-.994-22.919-1.121A44.15,44.15,0,0,0,375.587,117.867Zm-166-23.809c-.385-3.222-4.875-3.737-7.1-2.775-4.7,2.03,1.321,5.719-2.08,9.68C204.907,98.329,210.172,98.979,209.583,94.058ZM415.243,182.5a25.579,25.579,0,0,1-9.282,8.236c-.711.358-1.294.9-.881,1.751.469.967,1.351,1.1,2.371.943,2.347-.36,4.736-1.578,5.607-3.337,1.889-3.817,4.914-6.153,8.458-8.426C419,180.57,416.747,180.4,415.243,182.5ZM192.737,308.869c1.359,1.337,3.053-.4,3.182-1.834.264-2.934,4.472-5.679,1.236-8.529-1.9-1.675-4.1.4-5.576,1.971C190.518,303.6,190.511,306.68,192.737,308.869ZM320.646,544.281c-.74,2.646,2.186,2.9,1.191,4.654-.658,1.161-3.77,1.917-1.1,3.6a4.58,4.58,0,0,0,5.675-.409c1.339-1.161,3.489-1.366,4.339-3.979C327.2,547.111,323.207,548.429,320.646,544.281Zm-35.712,39.49c-.687,1.1-3.169,1.5-1.709,3.49a3.779,3.779,0,0,0,3.482,1.546c1.934-.234,2.808-1.786,3.449-3.38.831-2.066-1.44-3.861-.356-6.284C286.923,580.076,286.014,582.045,284.934,583.771Zm30.615-219.1c-1.833-7.336-5.408-8.938-12.427-5.485C307.852,359.526,311.411,362.435,315.549,364.672ZM265.7-273.413c-.094-.927.339-1.893-.785-2.323a3.448,3.448,0,0,0-1.53.078c.129,4.353-7.77,5.807-3.959,11.393C261.8-267.022,266.2-268.41,265.7-273.413Zm11.862,66.043c.369.741-.116,2.16,1.239,2.054a1.427,1.427,0,0,0,1.1-2.148c-1.891-4.316,4.88-4.655,3.589-9.475C280.621-213.977,274.4-213.72,277.562-207.37ZM187.031,466.154a2.3,2.3,0,0,0,1.006-3.4c-1.783-2.236-1.483,1.262-2.616,1.157-4.081-.382-4.522,3.9-7.012,5.694C181.925,469.779,184.33,467.6,187.031,466.154Zm127.48,82.762c1.171.895,2.882.476,2.994-1.138.148-2.148,2.077-4.652-.135-6.414-1.022-.813-3.266-1.335-4.419,1.3C312.713,544.678,312.278,547.21,314.511,548.916Zm-89.254-230.3c-.02-1.373-.109-3.321-1.547-3.122-3.672.507-2.342,4.535-5.025,7.185C222.971,322.712,225.313,322.317,225.257,318.614Zm-18.982,147.3a1.321,1.321,0,0,0,.462,2.288c1.011.346,1.731-.326,2.092-1.333,1-2.8,2.025-5.585,3.51-9.672C208.677,460.106,208.8,463.823,206.275,465.917Zm20.338-762.7c-.6,1.154-2.738,2.539-.787,3.748,1.445.9,2.684-.876,3.586-2.083,1.254-1.68,2.227-3.456.491-6.426A46.9,46.9,0,0,0,226.613-296.786Zm-9.948,881.548c.366-2.234,2.489-4.464.212-6.7-.237-.232-1.762.217-1.9.619-.851,2.5-2.591,5.2.777,7.427C216.081,585.648,216.586,585.24,216.665,584.762ZM346.088,352.216c-1.285,1.013-.58,2.3.662,2.383,1.625.106,3.687,2.152,4.931-.426a3.766,3.766,0,0,0-.906-4.195C348.483,349.122,347.443,351.149,346.088,352.216ZM203.489,223.15a1.908,1.908,0,0,0-1.443.245c-.777.72-.925,2.013-.1,2.46,2.287,1.246,2.07,3.813,3.223,6.034C208.619,227.828,204.733,225.752,203.489,223.15Zm72.776,216.4c-4.842-1.159-4.842-1.159-4.467,6.446C273.388,442.837,274.262,440.876,276.265,439.545Zm.559-723.841c.964.78,2-.29,2.513-1.357.53-1.095,2.027-2.224.582-3.426-1.135-.946-2.486-.441-3.547.631C275.768-286.984,275.605-285.282,276.824-284.3Zm-18.619-5.188c-1.011-.788-1.8-3.243-3.365-.991-1.1,1.574.733,2.285,1.863,2.746,1.841.751,3.309,2.538,6.392,2.084C261.153-287.171,259.683-288.332,258.205-289.484Zm-46.69,625.727c-.66,1.2-1.286,2.764.346,3.416,2.592,1.035,3.278-1.957,4.917-2.97,1.235-.764.487-1.969-.8-2.677C213.812,333.212,212.5,334.446,211.515,336.243Zm50.671-37.067a1.23,1.23,0,0,0,2.244-.157c1.206-2.642-1.826-3.2-2.678-4.865-.381-.744-1.472-1.1-2.416-.028C259.205,296.355,261.25,297.485,262.186,299.176ZM162.026,285.46c-3.623.119-4.569,2.152-4.081,5.2ZM285.368-219.618a1.521,1.521,0,0,0-1.051-2.2,2.371,2.371,0,0,0-2,.385c-.891.914-.182,1.641.694,2.173S284.853-218.554,285.368-219.618ZM183,405.19c-.061.167.727.938.966.872a2.555,2.555,0,0,0,1.923-2.779A2.532,2.532,0,0,0,183,405.19Z" style="fill: #9bb0aa"/>
        <path d="M397.38-23.612c-.79,1.026-1.37,2.4-3.072,1.993-4.676-1.106-9.63-.676-14.085-3.149-4.783-2.656-9.512-.721-9.244,3.972a31.058,31.058,0,0,0,2.542,11.734c5.691,11.94,13.294,22.684,20.554,33.657,2.67,4.035,7.04,5.3,11.105,2.764,3.042-1.9,6.014-.915,5.584,2.42-.771,5.981,2.8,5.058,6.167,4.994,1.218-.023,2.6-1.072,3.569,1.427-6.8,4.042-14.367,6.365-21.8,8.945-6.475,2.246-12.649-.708-18.973-1.24-4.355-.366-6.586-2.263-7.617-6.144-.354-1.334.26-3.007-2.379-2.736-2.195.224-2.6,1.1-3.059,2.992-.449,1.849.649,4.245-1.885,5.552-6.5,3.356-16.437-1.013-18.908-8.229-1.329-3.881-7.347-7.6-7.916-6.929-3.914,4.578-5.452-.3-7.919-1.2-1.426-.523-2.115.67-2.305,1.811-.265,1.594-1.174,4.307.706,4.522,5.411.62,4.246,4.763,4.533,7.761.487,5.065,2.456,8.15,7.848,8.58,2.938.235,5.7,1.553,8.853.681,1.408-.39,4.4-.427,2.69,2.918a2.218,2.218,0,0,0,.754,3.017c4.548,3.128,7.436,9.156,14.294,8.285a2.331,2.331,0,0,1,2.454,1.064c.654,1.19-.543,1.6-1.275,2.088-4.169,2.786-8.328,5.589-12.563,8.272-.736.466-2.26.865-2.675.483-4.358-4-11.811-4.479-14.47-8.831-2.456-4.019-2.871-9.2-7.157-12.84-2.077-1.764-12.866-6.042-13.646-3.5-1.636,5.327-6.3,9.5-5.5,15.848.354,2.839,3.1,6.085-.056,8.941-3.707,3.354-.314,4.045,1.9,4.556,1.754.406,3.929-.726,5.571-.165,7.223,2.466,13.665,2.116,19.135-4.264a16.016,16.016,0,0,1-2.662,5.244c-2.329,2.935-.291,5.588.773,7.927,1.339,2.946,4.033.746,6.067.427,1.642-.257,3.162-1.223,4.776-1.75,1.059-.345,3-.623,2.944.522-.281,6.239,5.528,7.591,8.571,11.088,1.637,1.881,1.631,2.921-.639,3.67-4.886,1.613-9,5.6-14.849,4.431-1.6-.322-4.107.422-4.459,2.7-.43,2.782,2.163,2.428,3.829,3.083,2.233.877,5.379-.219,7.1,3.5-8.358-.957-15.966-3.746-24.975-3.506,2.912,3.039,7.326,5.286,1.213,8.043-1.5.677-.417,2.711-.468,3.016-9.345-5.793-19.309-11.316-28.556-17.855-13.841-9.788-27.635-19.42-44.439-23.533-1.667-.407-4.064-.279-3.778-3.164.411-11.494-1.581-22.632-3.573-33.937-1.2-6.785-1.606-13.928-2.833-20.871-.469-2.65-1.29-3.295-3.941-2.477-6.912,2.134-13.64,4.716-20.4,7.283-13.315,5.059-26.792,9.692-40.212,14.47-1.879.669-4.275,1.084-4.481,3.331-.232,2.521,2.507,3.006,4.158,4.069,6.839,4.406,13.747,8.7,20.63,13.039-1.009,1.526-3.113-.559-4.043,1.227-5.884-3.88-12.795-4.157-19.394-5.533-2.538-.7-5.124-1.261-7.6-2.126C159.6,55.863,151,59.892,142.7,57.489a1.756,1.756,0,0,0-2.34,1.757c-.38,4.542-4.543,5.2-7.428,7.025-2.265,1.429-3.71.685-2.909-2.316.634-2.375,1.188-4.776,1.937-7.114.862-2.69-1.282-3.343-2.847-4.115-1.733-.854-2.985-3.563-5.3-2.25-1.824,1.037-1.668,3.15-1.272,5.141.723,3.627.031,6.827-3.309,9.492-1.039-2.3.6-5.531-2.333-6.114-2.735-.544-2.489,2.9-3.992,4.055-2.9,2.234-3.662,6.086-7.106,8.124-2.442,1.444-3.839,4.72-4.147,8.542,4.228-2.735,7.536-4.995,10.342,1.212,1.7,3.752,6.228,3.474,8.71.1,1.62-2.2,2.922-4.636,4.367-6.967,1.208,8.212-.525,15.663-2.151,23.152-1.068,4.92,1.418,8.816,4.756,11.98,3.8,3.6,4.059-2.755,8.46-3.5-5.8,6.19,1.769,7.553,1.876,11.708,1.3-1.221,1.784-3.032,2.918-3.642,3.216-1.731,7.188-3.753,10.313-1.382,2.648,2.009-.858,4.458-1.818,6.629-1.587,3.585-4.7,6.681-4.544,10.808.279,7.429.858,14.86,1.662,22.252.582,5.357-1.575,11.436,4.077,15.653,1.605,1.2.285,3.147-.587,4.635-.782,1.336-2.479,2.385-1.474,4.413,2.377.051,3.791-4.7,6.158-1.753,1.545,1.924,1.5,4.886-1.327,6.877-1.375.968-1.148,2.4.075,3.9,4.913,6.054,3.528,11.831-3.553,15.893a2.723,2.723,0,0,0-1.253,1.726c-.763,6.653-3.9,12.412-6.872,18.248.509-.36.66-.9.988-1.289,2.015-2.4,2.609-8.08,6.717-6,4.306,2.177.521,5.916-1.175,8.549-1.856,2.883.2,3.635,2,4.677,1.585.92,3.185-1.348,4.843-.048-.387,1.708-.789,3.908-2.4,4.269-3.218.721-3.913,2.547-4.027,5.44-.064,1.612-3.061,3.28-.526,4.808,2.167,1.306,1.825-2.843,3.868-2.693,3.014,4.714,3.014,4.714.5,10.165-.553,1.2-1.089,2.4-1.664,3.592-.5,1.036-1.142,2.154.148,2.973.968.614,1.818-.08,2.434-.831a7.424,7.424,0,0,1,6.793-2.855c.2,3.3-1.087,5.048-4.08,6.152-3.617,1.334-4.908,4.415-3.938,8.118,1.764,6.731.944,13.713,2.1,20.574.641,3.793-.579,8.831-1.715,13.148-.515,1.96-.078,3.283,1.606,3.426,5.02.423,2.851,3.279,1.917,5.45-1.29,3-2.734,6.777-1.245,9.071,1.717,2.644,1.047,4.508.941,6.983-.16,3.724-3.165,5.859-4.544,9.58,1.632-.461,3.449-1.774,3.953-.359,1.26,3.539-3.828,4.15-3.7,7.121,1.1-1.856,2.452-1.439,4.6-.849,2.581.709,5.271,1.154,4.675-4.231-.408-3.683-4.863-4.782-3.548-8.571,3.228-9.3,2.618-19.294,5.035-28.774.483-1.9,2.5-2.733,2.238-4.936-.8-6.674,3.84-12.68,2.5-19.534-.241-1.237,1.364-2.53,2.56-3.565,2.232-1.932,3.284-5.188,1.349-7-4.565-4.281-2.288-10.081-3.606-14.919-1.509-5.536.206-12.725,1.6-18.53,1.789-7.444-.041-14.548.974-21.8.825-5.89,2.935-12.371,8.307-15.137,1.594,4.169-1.363,7.5-3.152,11.851l4.7-2.545c-.768,5.733,3.164,11.815-2.71,16.312-.617.471-.206,1.282.122,2.031,1.632,3.74.263,7.729.818,11.571h-.906c.447.994.633.262.869-.132,5,3.926,2.077,9.927,2.545,14.463.633,6.134.029,12.009,4.019,17.335,1.362,1.819-2.778,11.279-5,11.961-1.538.473-3.384,1.378-4.251-1.1-.447-1.278-1.026-2.813-2.61-2.461-2.239.5-2.222,3.624-1.776,4.176,3.906,4.826-4.365,11.572,2.587,15.731.1.061-.018.781-.227,1.034-1.98,2.4-2.542,4.464-.585,7.562,3.583,5.676-4.351,12.757,1.691,18.556.235.225-.982,1.884-1.424,2.917-.38.889-1.613,1.913.729,2.96.416-2.321,2.122-3.784,3.661-5.3,3.156-3.116,9.686-3.033,10.2.223.633,4.028.584,8.659-.847,12.385-1.625,4.229-5.221,7.729-1.3,12.377,1.154-1.622,2.392-3.42,3.692-5.171.843-1.136,1.512-3.144,3.4-1.779,1.428,1.03,1.748,2.773,1.386,4.605-.289,1.465-2.939,1.348-2.217,3.423,4.315-.411,4.211-.451,5.51-3.811,1.258-3.254,1.542-7.434,6.28-8.022,1.227,3.421-2.487,5.873-1.671,8.275,1.283,3.778-.262,5.557-2.734,7.662a1.974,1.974,0,0,0,.448,3.351c1.494.718,2.473-.438,3.227-1.575,1.671-2.523,1.675-5.821,3.777-8.16.648-.721,1.245-1.5,2.34-.938a1.585,1.585,0,0,1,.725,2.377c-1.993,3.4-1.042,7.383-3.148,11.107-4.087,7.228-5.349,15.656-6.34,23.94-.141,1.18-.1,2.29-1.391,2.794-4.083,1.594-5.022,5.231-6.149,8.925a16.119,16.119,0,0,1-3.142,5.3,3,3,0,0,1-3.666.726c-1.63-.921-.663-2.243-.171-3.458.778-1.925,1.535-3.862,2.186-5.833a1.293,1.293,0,0,0-.888-1.787c-.835-.226-1.924.3-1.757.883,1.283,4.5-5.73,6.944-2.818,11.845a1.14,1.14,0,0,1-1.5,1.566c-2.723-1.216-4-5.144-7.9-4.228,2.092-3.176-1.379-7.612,1.716-10.185,6.946-5.775,3.384-13.652,4.723-20.524.181-.927.172-2.055-1.091-2.212-1.281-.159-1.481.9-1.513,1.875-.283,8.627-5.061,16.141-6.06,24.611-.334,2.837-1.986,7.185-4.069,6.832-5.381-.911-3.659,2.315-4.331,4.872-.66,2.517-1.539,4.673.7,6.729,2.625,2.414,3.946-.22,5.648-1.45a1.745,1.745,0,0,1,2.827.608c.415.727.193,1.838-.526,1.927-6.932.857-4.186,8.493-8.45,11.533,2.489-.752,4.085-1.439,6.492.614,2.126,1.814,6.063,2.305,9.047,1.979,1.5-.165.728-3.648.755-5.674a2.412,2.412,0,0,1,.9-1.881c1.034-.437,1.473.571,2.119,1.29,1.653,1.841.21,4.587,2,6.275,7.116,6.718,5.636,15.173,4.7,23.475-.175,1.546-.352,3.739-2.855,3.341-2.057-.327-3.136-2.151-2.339-3.8,2.463-5.079-2.092-10.331.733-15.37,1-1.787-.333-3.369-1.9-4.214-2.123-1.146-2.314,1.153-3.227,2.133l-1.311-.213q.377.554.755,1.105a2.6,2.6,0,0,0-.986,2.45.733.733,0,0,0,.534.018c1.056-.671.683-1.565.343-2.446q.316-.516.634-1.033c3.062,1.985,1.554,4.249.239,6.316-1.707,2.684-3.421-.138-4.767-.54-4.441-1.326,2.145-3.311-.578-5.338-3.009,1.884-5.336.167-7.16-2.714-.7-1.108-1.559-1.732-2.746-1.009a1.79,1.79,0,0,0-.647,2.494c2.262,2.587,1.775,7.134,6.008,8.3,2.953.811,2.216,7.306,7.385,4.87a5.059,5.059,0,0,1,.564.9c1.214,2.307-.917,17.4-2.711,19.4-1.354,1.511-3.165,1.895-5.044,2.283-2.338.482-4.95.53-6.29,3.091l-.257.059c-7.859-4.623-16-1.66-23.922-.472a43.06,43.06,0,0,0-7.235,1.278c-7.52,2.442-12.174,8.575-18.615,12.208-1.26.711-2.242,2.52-3.877,1.63-1.987-1.081,1.1-2.817-.158-4.543-14.005,7.471-29.277,9.675-44.6,12.594a64.577,64.577,0,0,0,1.9,13.828c-6.668-3.4-12.818-4.922-18.937-6.555-2.227-.594-3.107-2.037-3.755-4.352-1.18-4.214-7.364-7.306-10.3-4.792-3.55,3.046-6.232,1.313-9.3.241-3.216-1.124-6.324-2.565-9.56-3.621-7.342-2.4-8.047-1.738-6.528,5.673l-7.42-4.433c.132-1.953,2.158-4.9.588-5.51-1.741-.682-4.426,1.047-6.7,1.726-8.553-5.232-17.121-10.441-25.656-15.7-11.624-7.164-23.246-14.332-34.8-21.6-1.257-.791-4.811-1.705-2.13-3.763,3.8-2.92,5.085-7.616,9.16-10.426a104.467,104.467,0,0,0,16.826-13.9c3.47-3.661,7.922-7.39,13.626-8.011,6.416-.7,8.455-5.342,9.645-10.657.546-2.438.914-5.054,3.4-6.116,6.371-2.719,12.336-7.289,20.1-3.883,1.687.74,4.232-.336,6.517-1.193,3.969-1.487,4.687-4.973,6.686-7.506,5.743-7.279,12.911-13.8,14.135-23.847.193-1.58,1.632-2.739,2.941-3.945,8.011-7.387,13.048-15.979,10.972-27.569-.746-4.17.235-8.457.891-12.708A73.967,73.967,0,0,0,45.661,285c-5.029-22.08-14.592-42.779-20.338-64.746-3.62-13.837-9.269-27.219-12.079-41.349-2.036-10.235-5.258-20.254-6.051-30.715-.635-8.369-2.226-16.429-.268-25.255,1.24-5.59-2.134-12.853-4.661-19.123C.455,99.318-1.354,94.76-.017,89.2c.711-2.957,1.505-7.745-.393-10.345-3.634-4.979-7.234-10.539-12.683-13.612-5.3-2.991-7.626-6.853-7.1-12.611A23.531,23.531,0,0,0-20.956,46c-1.5-8-2.031-15.825,3.566-22.757.9-1.119,1.038-2.832,1.847-4.06C-9.36,9.8-7.389-1.822.107-10.447a66.949,66.949,0,0,0,6.318-8.692,9.689,9.689,0,0,1-1.1,9.394A35.375,35.375,0,0,0-.253,1.213C7.568-1.2,7.452-10.761,15.068-12.6A26.644,26.644,0,0,1,9.344,3.163c-1.266,1.6-2.882,3.68-.2,4.339,1.85.455,4.632,3.952,6.7-.186.694-1.391,1.022-4.1,3.112-3.283,2.059.8.049,2.964.134,4.514.2,3.683-1.537,5.862-4.144,8.546-5,5.147-10.173,10.447-12.6,17.632-.9,2.658-.7,4.418,2.326,3.786,2.1-.439,2.947.11,3.267,1.789,1.332,7,5.591,13.19,5.555,20.557-.023,4.614,2.092,8.274,5.354,11.351,1.072,1.011,1.995,2.155,3.9,1.588,6.534-1.945,10.69,1.642,14.184,6.463.657.906,1.143,2.334,2.422,1.541,1.075-.667.462-1.993.109-3.106-1.381-4.353-3.945-8.152-6.568-11.679-5.236-7.041-5.835-15.392-5.942-23.239C26.879,38,30.265,32.012,32.811,26.44c.84-1.837,2.753-2.488,6.464-1.594,6.942,1.673,4.441,5.485,4.617,8.966.554,10.941,8.67,18.663,19.29,22.1,5.624,1.818,11.545,1.365,16.832,3.877-.893-5.995-.439-6.371,6.046-4.773,1.558.384,2.571-.533,3.5-1.4,1.579-1.471,1.8-3.662,2.659-5.519,2.081-4.519,2.842-6.851-2.8-10.655a106.774,106.774,0,0,0-14.687-8.813c-3.561-1.659-4.912,1.063-7.26.472-.4,2.91,4.462,2.68,2.57,5.88-.742,1.254-1.78,1.129-2.94,1.062-4.069-.235-1.843-3.495-2.3-5.227-1.667-6.309,2.224-12.387,1.248-18.827-.161-1.066,2.536-1.785,3.878-1.5,2.941.616-1.308,2.866.961,4.116,1.959-2.743,2.845-7.353,8.063-5.8.174.051,2.192-3.609,2.064-5.449C80.318-6.6,79.076-16.444,72.535-24.7c-2.352-2.968-5.5-4.556-8.768-6.077,8.906-2.368,17.7-5.466,26.761-6.829,5.414-.814,5.756-2.765,5.559-7.244-.516-11.687-1.523-23.5.454-35.063a376.226,376.226,0,0,0,5.138-57.928,45.083,45.083,0,0,1,26.167-40.521c4.083-1.934,8.31-3.393,12.442-4.98,8.88-3.408,16.734-8.913,25.99-11.62,7.917-2.314,8.7-6.36,4.03-13.609A10.692,10.692,0,0,1,169.2-211.7c-2.218-8.625-2.285-17.4.686-25.677,1.539-4.284.815-5.98-2.773-8.037-6.555-3.756-6.543-4.734-4.121-11.963,1.547-4.614,3.031-10.166.08-14.036a45.872,45.872,0,0,0-7.654-8.017c-2.811-2.228-3.163-4.454-.879-7.5,6.991-9.317,13.758-18.8,20.612-28.224,1.463.442,2.572.4,2.218-1.63l1.757-2.612c2.717,1.25-.617,3.417.735,4.921,1.514.757,3.534-3.223,4.476.151.507,1.817-1,3.618-3.223,3.856-1.637.175-3.227.6-3.643,2.208-1.04,4.017-4.014,6.819-5.992,10.237-3.1,5.361-1.5,9.022,4.693,9.483,4.862.363,10.145-2.98,14.433,2.072.311.366,2.465-.156,3.094-.861,1.915-2.146,2.982-1.113,4.478.481a22.247,22.247,0,0,0,4.534,3.394c2.092,1.306,3.914.964,3.851-1.8-.128-5.591,5.22-9.176,5.075-14.8-.042-1.619,1.8-2.149,3.552-1.868a3.521,3.521,0,0,1,3.144,4.007c-.273,1.476.227,4.528-2.162,4.477-5.624-.121-3.209,4.524-2.688,5.679,2.688,5.962,4.479,13.095,12.951,13.869,1.641.15,3.59,2.675,4.579-.357.622-1.91.295-4.779-2.328-4.955-2.905-.194-1.461-1.328-.85-2.191,1.711-2.418,3.827-.5,5.684-.22,1.564.231,2.937,1.5,2.146,3.3-2.408,5.475,1.682,8.746,4.085,12.568.563.9,2.023,1.142,2.171,2.459.578,5.162,4.381,5.484,8.285,5.339.919-.034,1.847-.5,2.6.212,4.777,4.538,7.923,2.978,9.881-3.212,1.249,4.368,3.261,5.414,6.746,3.06a38.441,38.441,0,0,1,5.967-3.2c4.566-2.023,10.362.012,10.97,4.426.606,4.395,1.6,9.037-.045,14.2-2.342-2.889-1.972-6.539-4.844-8.2-.793-.459-1.624-1.249-2.549-.568s-.676,1.57-.04,2.458c3.473,4.851,1.441,9.678-.116,14.459,1.484,1.856,3.537-1.554,5.021.529-3.19,6.063-3.213,6.09-8.82,3.276-1.927-.967-3.779-2.125-5.282.577-.55.988,1.56,9.154,2.612,9.487,4.619,1.46,2.268,4.144,1.279,6.658-1.329,3.38-4.4,3.229-5.771,1.275-3.139-4.461-8.776-6.318-11.132-11.381-.5-1.077-1.072-2.154-2.4-2-1.612.183-1.379,1.628-1.288,2.676.289,3.316-.215,6.874,2.76,9.44a3.847,3.847,0,0,1,.323,6.026c-3.108,3.321-2.649,8.181-5.441,11.669-.847,1.058-.331,4.567.843,4.272,7.4-1.862,10.547,6.546,17.219,6.658,2.415.04,5.04.933,7.687.892s4.063,4.1,5.941,3.329c3.691-1.516-2.588-3.9-.1-6.612,2.112-2.3-.275-2.062-1.787-1.869-2.33.295-5.843.237-5.332-2.307.764-3.8-1.573-9.643,4.988-10.956,1.042-.209,1.468-1.036,1.911-1.91.712-1.407-.163-4.987,2.767-3.5,2.359,1.2,6.5,3.362,5.444,6.259-2,5.468.556,8.242,4,11.343,1.268,1.143,1.095,4.855,3.1,3.99,4.391-1.893,6.033,1.771,8.8,3.172,3.325,1.686,6.581,3.364,10.529,3.362,1.986,0,4.319.839,5.235,2.786,4.084,8.68-2.6,20.653-11.948,21.844-1.839.235-3.581,1.144-5.411,1.547-5.675,1.25-9.794,5.5-14.824,7.749-14.122,6.329-27.286,13.243-34.619,28.092-3.01,6.095-7.092,11.381-1.254,17.819,1.724-.707,1.581-2.714,2.457-4.081.683-1.068,2.338-2.671,3.065-1.7,2.1,2.807,6.471.456,8.12,4.157.642,1.44,2.764.9,2.942-.688.459-4.1,4.4-3.759,6.413-6.351,1.237,3.968-4.3,5.079-2.7,7.78,1.357,2.283,5.245,2,6.791,4.777,1.9-1.678,1.34-3.538,1.711-5.129.282-1.211.9-2.154,2.247-2.137a1.986,1.986,0,0,1,1.972,2.306c-.106,1.955,1.2,4.24-1.014,5.8-2.706,1.9-2.686,4.853-2.97,7.646-.2,1.956-1.466,4.345,1.013,5.657a5.769,5.769,0,0,0,6.792-1.338c3.46-3.416,8.262-2.689,12.184-4.553.867-.413,2.333-.784,3.151.311.864,1.156-.316,2.065-.748,3.047-.8,1.815-2.727,3.145-2.358,6.2,3.438-3.767,6.65-.93,9.773-.135,2.951.75,4.029.505,4.379-2.811.677-6.417,1.728-12.831,6.9-17.546.6-.55,1.685-2.048,1.81-1.371,1.138,6.189,4.094-1.859,5.632,1.006-2.088,3.811-4.242,7.884,2.517,9.547l-.009-.035c-.765,2.009-2.835,4.039-.5,6.148,3.834,3.454,4.469,7.084,1.958,11.67-2.3,4.2-5.657,7.532-8.941,10.873-1.59,1.617-1.555,2.782-.416,4.362,1.481,2.056,2.122.376,3.431-.431,2.928-1.8,6.211-2.572,9.483-.414a13.819,13.819,0,0,0,5.7,2.421c4.389.614,5.746,4.334,5.68,7.583-.087,4.33,2.487,5.731,5.439,6.794,1.838.663,3.477-1.214,4.971-2.294,1.863-1.347,1.139-2.465-.648-3.286a2.361,2.361,0,0,1,.433-1.391c.892-.823,1.713-.319,2.436.4,3.037,3.023,5.234,1.669,7.758-1.02,4.687-4.994,8.507-10.9,16.374-12.246,3.048-.524,4.095.632,5.567,2.027,2.048,1.94-.2,2.781-1.238,3.984-2.259,2.611-4.4,5.321-6.578,7.967-2.145-.483-.827-4.441-4.772-3.529-5.125,1.184-7.057,4.2-8.49,9.47,2.449-1.268,3.791-1.128,5.977.135,5.043,2.912,4.2,8.275,6.552,12.178.907,1.5,1.043,3.3,3.057,2.785,1.765-.447,2.575-2.072,2.159-4.046-.346-1.638-2.168-4.106,1.318-4.1,2.69.008,2.847,2.141,2.611,4.576-.272,2.812.229,5.674,4.185,5.641ZM233.721-108.207l-.408-.983c-1.484-4.155-4.131-7.5-7.03-10.731-2.6.651,1.363,4.992-2.913,4.5-.659-.077.181,2.268.393,2.125,5.4-3.642,6.479,2.7,9.649,4.083Zm-15.065-69.454c-.667-1.81-2.31-2.452-3.9-2.933-.774-.234-2.721-.592-1.747,1.4,1.831,3.739-1.914,2.275-2.917,2.97-1.712,1.186-2.508-.462-3.095-2.014-.733-1.937-1.271-4.19-2.633-5.585-1.642-1.682-2.965-4.78-6.853-1.888-1.793,1.334-5.934.021-8.808-.8-1.674-.48-1.65-2.273.035-3.525,1.256-.935,3.109.155,4.784-2.234-2.709-.508-4.213-2.7-7.5-.7-3.04,1.847-6.551-.378-9.391-1.5-2.921-1.158-2.565-.9-2.6,1.759-.026,1.964,2.521,6.159-3.571,5.546-1.539-.155-3.664,5.516-5.782,8.933.527-4.07-2.1-3.21-3.989-2.545-2.605.914-5.862,2.231-5.463,5.445.289,2.318-1.351,7.417,5.149,5.7,2.918-.77,2.648,2.764,1.622,5.032-2.554,5.652-1.583,6.827,4.614,8.095,2.242.459,9.109-1.186,4.943,5.747-.587.976,1.229,1.616,2.145,2.2,3.3,2.1,6.8,3.942,9.818,6.391,1.612,1.31,3.007,1.623,4.6.949,7.454-3.15,13.038,1.887,19.153,4.366,1.82.737.377,2.222-.237,3.312l-.414-.045.391-.052c3.556,3.67,7.923,1.157,11.626.891,5.816-.418,11.414-1,17.05.958,1.876.652,1.994-1.067,2.281-2.352,1.128-5.047-2.215-12.283-7.107-13.868-6.442-2.087-12.1-6.947-19.5-5.776l-7.646.129a1.8,1.8,0,0,0-2.658-.523l-1.776-1.107c-5.22-2.782-9.468-6.425-11.879-12.074-1.428-3.349-.717-6.678,1.793-8.068,2.335-1.293,5.172-.321,7.353,2.934,2.967,4.429,7.344,7.973,13.518,7.247,1.706-.2,3.711-.542,4.7,1.045,4.207,6.745,10.794,10.755,17.547,13.871,6.046,2.789,6.765,9.57,11.841,12.79,3.115,1.976,5.2,5.311,8.683,6.964,1.88.892,3.607,2.544,5.447.23,1.677-2.11,1.958-5.563.439-6.729-7.343-5.635-12.085-13.659-18.923-19.689-3.146-3.841-8.5-4.98-11.309-9.231,4.9-2.27.652-5.553.922-8.335-3.161-.2-4.934-4.971-8.849-2.686ZM33.709,429.037c-.845-.966-2.853.084-3.769,1.463-1.088,1.637-.168,2.467,1.111,3.659,4.977,4.639,10.325,4.236,16.083-1.734-1.864-1.218-3.447-.6-5.024.343l.105-.021C40.013,430.175,36.069,431.736,33.709,429.037ZM249.64-244.947c-3.108,1.513-5.056-1.375-8.051-4.022.591,4.548-1.5,7.83.013,11.414a2.63,2.63,0,0,1,.121,2.072c-4.389,6.183,2.723,6.518,4.931,8.323,2.4,1.959,5.2-.937,5.434-3.67.347-4.006,2.792-6.908,4.133-10.361a8.783,8.783,0,0,0,1.687,3.931c1.526,1.741,3.142,4.961,5.226,3.243,2.987-2.462-.957-4.875-1.948-7.164-1.3-3-3.344-2.295-4.956.12C256.265-247.052,255.1-247.6,249.64-244.947ZM134.727-135.337c-2.018,2.019-.754,5.3.872,6.664,2.85,2.395,1.042,3.887.325,6.2-.934,3.012-5.5,6.863,1.08,9.394,1.065.409.723,2.935-.407,4.059-1.3,1.292-1.273,3.738-1.9,4.24-5.54,4.431.032,12.669-5.981,16.711a1.629,1.629,0,0,0-.482.891c5.792,4.488-.761,8.034-1.174,11.981-.475,4.532.473,9.042-.468,13.5-.5,2.351-1.509,4.447,2.133,5.812,2.749,1.03,1.213,4.992,2.99,8.632,2.487-4.984,6.681-7.842,6.053-13.306-.05-.435.408-1.281.755-1.357,7.47-1.624.157-6.66,2.18-9.543.142-.2-.268-1.241-1.05-.7-4.569,3.164-3.317-1.152-3.575-2.944-.243-1.689-.812-4.813,1.428-4.517,1.853.246,6.382-1.278,5.6,3.978,5.4-6.29,4.947-7.853,1.344-17.543-1.218-3.276.131-7.728-1.73-11.39,5.758.152,2.282-6.323,5.657-7.881.924,11.712,4.521,23.015,5.337,34.757.083,1.189-.648,3.306,2.146,3.842,2.659.509,2.832-1.357,3.6-2.587,2.771-4.458,5.393-9.032,10.127-11.757,3.947-2.272,4.709-6.347,6.261-10.114,4.019-9.756,8.33-19.393,12.546-29.068.434-1,1.475-2.089-.038-2.847-1.9-.949-3.382-3.545-5.8-2.543-7.977,3.3-16.014,2.125-24.144.968-8.534-1.215-11.421,1.5-11.236,10.032a5.46,5.46,0,0,1-.5,1.617c-4.153-2.364-3.289-6.53-2.359-9.639,1.8-6.017-2.274-8.567-5.163-12.839-1.772,3.951.523,6.349.829,9.039l.1-.019C138.086-133.716,136.744-137.355,134.727-135.337ZM202.062-28.715c1.317,2.295-.743,3.759-1.558,5.553-.346.764-.368,1.563.457,1.936,1.382.625,1.641-.425,1.612-1.407-.039-1.333-.282-2.678.737-3.77,1.554-1.667,3.577-2.713,5.5-1.226,1.853,1.431,2.138,3.692,0,5.31-1.893,1.432-3.043,3.254-4.419,5.927,3.428-.807,5.6-2.065,7.274-4.575a15.8,15.8,0,0,1,5.046-5.311,3.5,3.5,0,0,1,4.2.167c1.816,1.324.823,2.565.039,3.887-1.549,2.612-3.118,5.121-5.924,6.7-4.294,2.41-7.216,6.263-11.412,11.237,6.1-.9,10.43-1.772,13.629-5.62,1.084-1.3,1.806-3.382,3.16-3.908,7.571-2.943,11.871-7.968,12.366-16.326.121-2.055,1.692-4,4.074-.855,1.705,2.246,4.641.69,6.973.935,1.512.158,2.36-1.794,1.719-3.465a3.534,3.534,0,0,0-1.81-2.036c-7.567-2.111-9.454-10.473-15.752-14.261-2.246-1.351-2.328-2.563-4.873-.527-4.784,3.828-8.067,2.794-11.511-2.672a17.73,17.73,0,0,0-1.493-2.231c-4.927,2.543-5.611-1.556-7.1-4.417a1.3,1.3,0,0,0-.926-.585c-2.534-.116-3.633,4.593-6.912,2.066a31.558,31.558,0,0,0-.551,6.274c-.245,4.56,2.037,9.049.171,13.634-2.518,6.186-2.029,6.7,4.57,6.2-.219,3.23-2.164,5.537-3.89,7.945-.877.175-2.188-2.744-2.555.167-.218,1.727,1.122,3.732-1.338,4.867-2.032-1.15-.931-3.089-1.214-4.618-.8-4.291-4.364-6.083-8.077-3.954a8.9,8.9,0,0,1-3.014,1.512c-2.207.246-4.314-.375-2.931,3.459.757,2.1-1.946,3.228-4.907,2.064-1.374-.54-2.133.118-2.858,1.069-4.163,5.466-9,10.479-11.043,17.331-.706,2.364-1.218,4.71,1.105,6.1,2,1.194,3.73-.5,4.722-2.06,2.459-3.868,8.05-1.013,10.521-5.181.536-.9,1.3,1.034,1.545,2.1.447,1.933.055,4.685,2.659,5.108,2.694.437,1.868-2.739,3.107-4.046,5-5.277,10.711-10,12.737-17.621a57.586,57.586,0,0,0,1.508-6.413C199.1-23.626,198.234-29.556,202.062-28.715Zm-96,428.966c-3.02,3.974-8.528,6.16-9.631,11.132-1.165,5.253-4.833,8.727-6.936,13.125-3.007,6.29-7.945,8.235-13.865,9.063-3.388.474-5.82,1.407-7.711,4.636-1.514,2.583-4.5,2.5-7.728,2.969-6.855.992-13.648-2.507-20.313.537a6.978,6.978,0,0,1-6.674-.7c-.337,2.447,1.218,3.632,2.42,3.731,3.2.265,4.549,1.1,3.14,4.515-.573,1.39.321,1.928,1.89,1.414a22.027,22.027,0,0,1,4.9-.937c2.143-.188,3.534.935,4.358,2.916.941,2.263.076,3.782-2.008,4.479-4.952,1.655-3.631,6.04-4.272,9.539-.143.778.816,1.085,1.6,1.252,5.083,1.083,7.946,8.543,14.674,5.012,3.318-1.741,6.684-3.821,9.406,1.268.462.866,3,1.211,5.152.186,1.193-.569,4.817-4.651,6.138.675,1.1-.43,2.575-.564,3.2-1.364.847-1.086.081-2.138-1.376-1.975-1.074.121-1.9.042-2.258-1.053-.451-1.372-.285-3.225.9-3.566,4.116-1.188,3-8.526,8.148-7.4,3.238.709,6.5,3.025,8.869,5.474,2.081,2.151-1.632,4.162-1.641,6.456,5.409-2.341,7.126-11.469,2.675-15.484-2.558-2.308-4.141-6.435-9.235-4.1-1.68.771-1.457-1.85-1.064-3.343,1.891-7.185,4.722-14.036,5.921-21.523.818-5.111,4.464-9.864,9.438-12.826,1.709-1.018,3.908-1.3,4.888-3.485.4-.891,2.327-1.047,2.216-.414-.84,4.81,5.5,2.16,5.769,5.785.08,1.072,1.2.33,1.763.033a25.776,25.776,0,0,1,5.723-1.788c6.4-1.638,6.961-3.626,1.3-7-.4-.237.95-2.831-1.421-.979-2.675,2.088-5.786,4.318-9.777,1.87-5.555-3.407-6.468-6.405-3.2-12.055.976-1.689,2.506-3.2,2.417-5.83C109.51,392.822,108.448,397.109,106.059,400.251ZM69.215,132c-4.435.558-3.172,5.219-3.139,8.5a2.052,2.052,0,0,0,2.045,2.279c7.193.045,2.912,3.073,1.285,5.17-1.142,1.473-3.028,2.457-3.891,4.036-.98,1.794.8,3.558,1.671,4.9.751,1.159,3.267,1.971,4.571.637,2.908-2.975,5.2-2.232,7.637,1.22,2.223-4.68.756-8.082-1.475-11.438-.928-1.4-2.215-3.208-.363-4.515,2.254-1.592,2.7,1.045,3.66,2.208,3.463,4.172,5.426,9.367,9.205,13.352,1.849,1.949.773,4.284.095,6.426-.832,2.629-.25,5.4,2.237,5.9,2.377.481,5.566.181,5.425-4.26-.1-3.085,2.12-6.073,1.327-9.378-.659-2.746.383-6.3-4.612-6.666-2.185-.159-2.544-3.742-2.893-6.063-1.048-6.971-6.464-11.9-8.458-18.416a1.643,1.643,0,0,0-2.237-1.154c-1.86.629-2.376,2.129-2.611,3.967-.518,4.048-1.3,8.034-5.724,11.176C72.771,135.915,73.047,131.523,69.215,132ZM108.184,52.55c.442-2.354.428-3.467-1.924-4.252-1.777-.593-4.032-1.12-5.011-2.455-2.1-2.87-4.106-2.285-6.139-.522-2.432,2.108-1.892,4.993-.471,7.21.986,1.539,1.992,3.14,3.1,4.607,1.279,1.7,1.443,2.21-.875,2.9-1.429.423-1.639,8.813-.307,9.619,2.585,1.566,3.655-.6,5.327-2.924C100.353,60.94,107.135,58.129,108.184,52.55ZM236.434-77.728c-6.926-4.775.166-10.956-3.2-15.428-6.039,2.3-8.1,7.01-5.76,12.846,1.6,3.98,2.573,8.215,4.271,12.145.654,1.515,2.534,2.5,4.074,3.931C238.579-68.968,238.357-76.4,236.434-77.728ZM104.245,108.783c1.5-.79,1.677-2.932,1.276-4.048-1.652-4.605.164-6.724,4.5-7.777a2.748,2.748,0,0,0,2.151-3.5c-.662-2.068-1.006-4.571-3.776-5.222-1.853-.436-2.732.694-3.635,2.014-2.091,3.058-3.711,6.261-7.523,8.106-3.247,1.573-1.533,7.127,2.7,9.72C101.3,108.812,102.846,109.517,104.245,108.783ZM211.551-192.753c1.493.137,1.911,1.237,1.27,2.431-1.5,2.787.871,3.588,2.411,3.852a3.83,3.83,0,0,0,4.576-3.065c.961-5.5-2.289-10.409-2.564-15.788-.053-1.049-1.614-1.089-2.323-.476-1.959,1.7-3.752,3.584-5.872,5.651C209.754-197.754,204.267-193.42,211.551-192.753ZM230.4-242.095c1.423-4.824,4.159-6.881,7.572-9.163-1.539-3.058-4.614-2.62-6.87-3.726a1.988,1.988,0,0,0-2.949,1.658c-.562,3.916-3.28,9.347-2.5,11.1,3.085,6.94-4.035,8.555-5.131,13.4C228.609-229.924,229.023-237.431,230.4-242.095Zm-38.5-17.831a100.941,100.941,0,0,0,12.718,2.039c1.579.123,4.985.212,4.634-1.769s-1.105-5.53-4.548-5.484a15.981,15.981,0,0,1-8.566-2c-3.055-1.739-3.62,2.523-5.746,2.966C188.623-261.78,189.663-260.391,191.894-259.926ZM148.443-7.338c-1.98.86-2.634,3.842-5.882,3.283-1.659-.285-1.5,1.519-.863,2.931,1.126,2.487,2.055,5.062,3.067,7.6,3.858-5,9.1-9.124,9.842-16.158C151.4-11.757,150.421-8.2,148.443-7.338Zm33.978-60.185c1.225-2.18,1.6-2.674-.991-3.886-3.384-1.585-6.165-.595-9.07.7-.6.266-1.427,1.514-1.311,1.666,4.735,6.161-4.391,6.15-4.414,11.376C172.821-60.11,178.928-61.3,182.421-67.523ZM331.306-37.617c4.4.362,8.4-2.148,12.85-1.6a1.6,1.6,0,0,0,1.526-2.371c-1.331-2.229-3.236-5.656-5.656-4.646-3.41,1.422-8.243.988-10.12,5.658C327.4-38.385,328.617-37.839,331.306-37.617Zm-376.1,476.4c-2.052.241-4.1,1.009-4,3.82.083,2.428,1.856,2.771,3.665,3.5,4.06,1.635,7.665-1.105,12.7-.34C-36.05,440.561-39.734,438.187-44.792,438.781ZM114.393,168.516c-.645-.537-1.105-1.015-1.786-.459-.745.61-.771,1.57-1,2.49-.846,3.4,1.637,5.935,2.118,9,.477,3.045,1.833,5.952,2.883,9.163C120.442,182.645,119.14,172.472,114.393,168.516Zm-14.444,8.425c-.008.13.258.408.362.392.695-.107,1.575-.053,2.039-.459,3.354-2.934,6.805-5.927,4.612-11.131-.814-1.931-2.735-1.808-4.4-1.755-.612.019-1.2.731-1.845,1.155C100.449,169.175,100.187,173.057,99.949,176.941Zm93.562,199.6c-2.237-4.531-4.857-4.651-8.085-.959-.5.574-.909,1.884-.336,1.808,3.868-.511.33,6.686,4.785,4.676a16.355,16.355,0,0,1,8.062-1.448C196.227,378.71,194.432,378.4,193.511,376.537ZM-5.026,14.294c-.148,1.844-.836,3.773,1,5.214a1.527,1.527,0,0,0,2.427-.3c1.1-1.816,4.639-2.143,3.668-5.066C1.081,11.18.882,8.13.352,4.938-2.54,7.777-4.724,10.546-5.026,14.294Zm102.319,389.9c-4.005-2.17-10.041,2.195-16.59,12.224C87.394,412.9,92.338,408.613,97.293,404.194Zm53.195,41.259c.95,1.945,3.83,1.736,5.615,1.292,2.033-.506,5.808-1.59,1.509-4.664-1.337-.956-.966-1.93.209-2.581,1.854-1.026,2.583-3.037,1.305-4.123-1.753-1.488-3.339.305-4.47,1.869-.66.913-1.289,1.849-2.132,3.064C151.758,441.783,149.553,443.537,150.488,445.453ZM-.063,399.148c.077-1.176-.486-3.049-2.082-2.881-2.162.228-1.725,2.623-1.323,3.589,1.006,2.421-.36,5.2,1.6,7.491.917,1.072-.469,3.949,1.842,4.107,2.961.2,1.087-2.571,1.551-3.884.681-1.925,2.948-.59,3.75-3.068C1.819,404.1-.3,402.79-.063,399.148Zm116.206-19.44c-.648,1.69-.764,3.9,1.075,5.177,1.165.811,2.148-.385,2.883-1.145,1.467-1.517,2.868-3.209,1.368-5.47-1.6-2.415-1.95-5.224-2.548-8.068C115.384,372.728,117.316,376.65,116.143,379.708ZM239.43-46.832a3.147,3.147,0,0,0,.134,2.142c.752,1.152,1.53.263,2.3-.244,2.373-1.571,5.179-1.962,8.665-2.752C244.651-52.651,240.573-52.11,239.43-46.832ZM44.441,53.781c-.948-.72-3.547.9-4.292,2.832a2.13,2.13,0,0,0,1.619,3.058c2.055.271,4.077.358,5.97,2.691C48.834,57.673,46.573,55.4,44.441,53.781ZM138.01-168.858c2.015,2.167,4.66,1.09,6.033-.426,1.432-1.583.376-4.04-1.265-5.368-2.289-1.852-4.614-.464-6.74.474C134.353-171.424,136.734-170.229,138.01-168.858Zm-12.982,310.43a1.919,1.919,0,0,0-1.8-2.377,2.636,2.636,0,0,0-1.8,1.824c-.341,3.448-.409,6.924-.573,10.389C124.125,148.6,123.814,144.843,125.028,141.572Zm-13.406-34.033a1.965,1.965,0,0,0-1.872-2.3c-1.113-.091-1.693.767-1.807,1.723-.391,3.26-3.665,7.457,3.029,8.734C111.218,112.7,111.473,110.123,111.622,107.539Zm16.84,279.518c-.155-1.052.546-2.446-.961-2.721-1.294-.237-1.928,1.1-2.364,2.086-.971,2.2-1.751,4.48-2.609,6.728C124.213,390.883,129.108,391.416,128.462,387.057ZM238-200.09c.349-.643-.968-1.3-1.606-1.072-3.135,1.1-1.085,4.147-2.854,6.091C238.139-194.727,237.007-198.275,238-200.09ZM190.2-2.281c1.212-1.248,3.775-1.4,3.394-3.89-.07-.458-1.134-1.055-1.763-1.086-2.484-.121-2.618,2.311-3.688,3.709-.416.544-.885,1.252.145,2.587A12.144,12.144,0,0,0,190.2-2.281Zm22.486-249.8c.674-.512,1.172-1.3.574-1.83-2.213-1.972-4.545.191-8.287-.631C208.208-251.873,210.011-250.046,212.689-252.077ZM111.669,421.576c1.048.729,1.569-.366,2.025-1.1.8-1.294.12-2.081-1.078-2.455a1.836,1.836,0,0,0-2.347.776A2.964,2.964,0,0,0,111.669,421.576ZM87.848,462.428a1.87,1.87,0,0,0,.463-.138c-.11-.094-.219-.265-.328-.265-.135,0-.269.143-.4.224C87.669,462.312,87.761,462.431,87.848,462.428Z" style="fill: #1c2d28"/>
        <path d="M383.038,306.494c-1.779,5.018-4.8,8.315-10.643,8.014-4.618-.238-10.133-1.263-12.755-3.805-8.869-8.6-20.265-13.193-29.731-20.72-17.674-14.053-37.127-25.559-55.949-37.95-4.528-2.98-9.12-6.44-15.7-8.055,1.976,2.113,3.613,3.143,4.172,4.589,2.127,5.506,6.942,8.591,11.464,10.975,6.034,3.181,10.02,8.25,14.681,12.672,2.672,2.534,7.493,5.748,7.26,7.987-.541,5.2-.267,10.535-1.372,15.685-.221,1.03-.213,2.7-1.722,2.425a6.583,6.583,0,0,1-3.258-2.111c-1.21-1.314.333-1.808,1.069-2.57,3.336-3.451,2.377-5.871-1.748-7.8s-8.057-4.206-12.148-6.181c-1.669-.806-3.13-2.817-5.706-1.581.387.726.511,1.387.885,1.594,4.107,2.265,7.184,4.524,1.406,8.54a2.032,2.032,0,0,0,.569,3.683c7.714,2.243,9.108,8.488,10.5,16.387-1.877-2.468-2.886-4.019-4.124-5.356-1.162-1.255-.982-4.554-3.508-3.548-2.248.9-2.688,3.814-2.935,6.12-.125,1.174.909,2.476.259,3.818-.633,1.309-2.042,2.7-2.9,1.167-1.907-3.4-6.352-6.254-5.33-10.207.958-3.706-.189-5.664-1.955-8.345-1.672-2.538-2.608-5.73,2.709-4.526.811.184,1.487.558,1.578-.594s-.012-2.9-1.015-3.016c-4.4-.526-7.945-4.152-12.647-3.38l.132-.029c-3.413-1.265-7,2.38-10.772-.657,2.152,3.236,1.871,4.714-1.965,5.8-4.388,1.244-4.418,2.521-1.519,5.345.37.36.786,1.091.658,1.477-1.143,3.449-.866,7.885-5.263,9.314a36.6,36.6,0,0,0-12.959,7.848c-1.513,1.337-3.713,3.863-4.172-.968a2.04,2.04,0,0,0-3.336-1.662c-3.56,2.21-7.935,5.058-8.094,8.91-.29,7.014-6.391,8.412-9.316,12.816-.4-3.818,1.356-7.231-.778-11.006-.927-1.64.175-6.4,1.589-7.045,5.754-2.632,5.064-7.562,5.6-12.18,1.471-12.7,3.029-25.144,11.236-35.987,7.5-9.915,7.849-21.857,7.195-33.96-.773-14.323-4.662-28.062-6.78-42.12-.831-5.51,1.072-7.648,6.441-6.674,3.083.56,3.226-.324,3.7-2.964,1.17-6.5.721-12.833-2.362-18.467-2.173-3.971-3.662-8.729-7.846-11.311-1.616-1-4.842-.378-4.47-3.189.275-2.081,3.2-1.389,4.845-2.152,1.627-.754,3.14-1.075,4.784.125,1.354.988,3.011,2.279,3.766-.7a1.373,1.373,0,0,1,2.16-.98c5.451,2.772,12.086,3.116,16.2,8.666a24.975,24.975,0,0,0,19.39,10.5,7.185,7.185,0,0,1,5.464,2.722c2.238,3.246,7.082,4.026,7.831,8.524.657,3.947,6.851,4.82,5.671,9.546-1.888,7.56,8.137-.62,7.163,5.6-.106.676,1.263,1.476,1.425,2.319A9.841,9.841,0,0,0,296.6,195.6c7.58,2.241,6.673,12.455,14.3,14.291.308.074.6,1,.585,1.513-.165,6.488,3.712,4.314,6.734,2.944,2.833-1.285,6.159-3.29,8.514-1.274,3.638,3.115,6.282,7.391,9.348,11.174l-.828,1.344c-6.446-3.143-13.218-2.846-20.01-3.01-3.926-.095-7.1,1.424-6.339,4.734.7,3.033.389,4.278-1.749,6.059-4.061,3.383,3.4,4.839,1.561,8.146-.5.893.752,1.049,1.455.683,5.583-2.9,5.105,5.093,9.091,5.032-.025,3.8,2.983,5.774,5.429,7.49,3.969,2.786,8.588,6.63,12.813,6.487,3.883-.131,7.224.144,9.827,2.2,2.465,1.947,4.365,2.335,7.166,1.444,2.411-.766,5.534-.791,6.739,1.562,3.874,7.561,11.469,6.916,17.71,7.4a14.786,14.786,0,0,1,6.925,2.356c2.8,1.612,5.009,3.838,8.717,4.376,3.767.546,7.768,2.576,9.342,6.95C397.713,294.661,389.128,299.205,383.038,306.494ZM227.819,283.379c-.819-.1-1.485.279-1.039,1.308.371.853.7,1.939,1.827,1.91,2.278-.061,5.331-.075,5.554-2.731.209-2.482-1.141-5.256-4.384-4.754C227.815,280.6,235.044,284.27,227.819,283.379Z" style="fill: #1c2d28"/>
        <path d="M10.685-22.624c4.141-2.223,8.823-3.693,12.467-6.523a21.47,21.47,0,0,1,16.42-4.473c8.07.9,16.13,1.892,24.2,2.844,3.27,1.521,6.416,3.109,8.768,6.077,6.541,8.255,7.783,18.1,8.477,28.048.128,1.84-1.89,5.5-2.064,5.449-5.218-1.552-6.1,3.058-8.063,5.8-2.269-1.25,1.98-3.5-.961-4.116-1.342-.281-4.039.438-3.878,1.5.976,6.44-2.915,12.518-1.248,18.827.457,1.732-1.769,4.992,2.3,5.227,1.16.067,2.2.192,2.94-1.062,1.892-3.2-2.966-2.97-2.57-5.88,2.348.591,3.7-2.131,7.26-.472A106.774,106.774,0,0,1,89.415,37.44c5.647,3.8,4.886,6.136,2.8,10.655-.854,1.857-1.08,4.048-2.659,5.519-.93.867-1.943,1.784-3.5,1.4-6.485-1.6-6.939-1.222-6.046,4.773-5.287-2.512-11.208-2.059-16.832-3.877-10.62-3.435-18.736-11.157-19.29-22.1-.176-3.481,2.325-7.293-4.617-8.966-3.711-.894-5.624-.243-6.464,1.594C30.265,32.012,26.879,38,26.957,43.776c.107,7.847.706,16.2,5.942,23.239,2.623,3.527,5.187,7.326,6.568,11.679.353,1.113.966,2.439-.109,3.106-1.279.793-1.765-.635-2.422-1.541-3.494-4.821-7.65-8.408-14.184-6.463-1.907.567-2.83-.577-3.9-1.588-3.262-3.077-5.377-6.737-5.354-11.351C13.532,53.49,9.273,47.3,7.941,40.3c-.32-1.679-1.169-2.228-3.267-1.789-3.025.632-3.222-1.128-2.326-3.786,2.423-7.185,7.6-12.485,12.6-17.632,2.607-2.684,4.344-4.863,4.144-8.546C19,7,21.013,4.835,18.954,4.033c-2.09-.815-2.418,1.892-3.112,3.283-2.065,4.138-4.847.641-6.7.186-2.683-.659-1.067-2.743.2-4.339A26.644,26.644,0,0,0,15.068-12.6C7.452-10.761,7.568-1.2-.253,1.213A35.375,35.375,0,0,1,5.32-9.745a9.689,9.689,0,0,0,1.1-9.394C7.1-21.2,9.078-21.761,10.685-22.624Zm42.148-1.363c-1.072,1.73-1.4,2.14-1.6,2.6-.511,1.17,1.655,3.491-.975,3.535-2.186.037-2.149-1.988-1.763-3.866.267-1.3,1.207-3.134-1.023-3.747-1-.274-2.165-.848-3.193.1,2.39,1.744-1.482,4.073.544,5.849A21.411,21.411,0,0,1,47.778-16.9c2.731,3.5,6.883,6.473,4.114,12.05-.567,1.143-.72,3.6,1.251,4.42,1.659.69,2.174-.947,2.734-2.123.162-.34.178-.776.4-1.053C57.4-4.98,60.524-.352,60.565-5c.02-2.245-1.8-3.679-2.678-5.531-1.3-2.74.343-4.676,1.919-6.608,2.731-2.179,5.587-3.206,9.114-1.725,1.076.452,2.946.183,2.969-1.648.018-1.419-1.432-1.388-2.566-1.582-4.534-.776-8.762-3.105-14.334-2.588,3.285,1.9,4.4,4.6,4.861,7.638C56.622-17.938,53.178-18.54,52.833-23.987Zm-1.628-4.146c.341.183.878,0,1.33-.022-.171-.437-.226-1.029-.545-1.266s-.887-.092-1.7-.135C50.708-28.864,50.86-28.318,51.205-28.133ZM71.262,8.523c.164-.061.41-.08.468-.194s-.07-.325-.117-.493l-.491.182C71.169,8.186,71.216,8.355,71.262,8.523Z" style="fill: #9bb0aa"/>
        <path d="M306.092,140.911c1.1-1.94,2.792-3.621,2.362-6.187-.236-1.406.083-2.88,1.812-2.9,1.376-.019,2.319.821,2.5,2.491q.837,7.612,1.985,15.189a20.448,20.448,0,0,0,1.326,3.663c.658,1.829,1.446,4.023,3.788,3.238,2.145-.719,1.949-2.932,1.422-4.884-.29-1.071-1.085-2.623-.652-3.179,5.59-7.181-1.078-12.184-3.819-17.087-1.819-3.254-6.666-5.141-8.562-9.159-1.99,1.423-1.138,2.615-1.249,3.655-.1.973-.319,1.969-1.437,2.148-1.386.223-1.9-.635-2.213-1.917-.619-2.547-.153-6.9-4.668-1.945-1.24,1.362-5.813-.312-8.925-.6-.163,2.017,2.412,3.044,1.49,5.285a1.757,1.757,0,0,0,1.845,2.273c8.322-1.821,9.853,5.125,13.079,9.9Z" style="fill: #fefefe"/>
        <path d="M254.573,280.376c-5.829,2.106-5.784,8.292-8.775,12.164a34.456,34.456,0,0,0-5.013,9.722c-1.592,4.294.438,11.474,4.162,13.792,1.466.913,2.885,2.249,4.858.041,2.588-2.9,2.1-8.605,7.767-8.7-.06-2.306-.433-4.575-2.4-6.024-4.353-3.2-4.241-6.374-.7-10.255,5.485-6.009,5.348-7.546-.03-10.709Z" style="fill: #1c2d28"/>
        <path d="M187.771,298.632c9.468-3.765,13.521-9.713,12.873-18.661-.11-1.518-.452-2.521-1.819-3.118-3.282-1.434-7.114,2.48-10.378-1.03-.238-.254-1.337,2.226-1.252,3.8C187.535,285.97,186.5,292.35,187.771,298.632Z" style="fill: #1c2d28"/>
        <path d="M194.879,66.409c-5.884-3.88-12.795-4.157-19.394-5.533-.444,1.914.161,2.7,2.257,2.506,1.14-.107,2.355.631,1.982,2.025-.387,1.447-1.576,1.055-2.734.72-5.179-1.5-9.31-.056-12.208,4.589l-.014-.062c3.066,2.523,6.57,4,10.372,2.377,6.205-2.64,12.371,2.194,18.858-.629C191.584,70.162,191.96,68.034,194.879,66.409Z" style="fill: #fefefe"/>
        <path d="M189.912,271.635c3.01,1.97,6.334-.222,8.411-3.066,4.537-6.213,1.05-12.535,1.342-18.772.035-.743-.423-1.654-.128-2.206.366-.682,1.281-1.07,1.958-1.585-.241-.232-.443-.565-.731-.677-1.046-.405-2.215-1.19-3.164-.994-1.615.335-1.493,1.963-1.319,3.284.62,4.7-2.58,8.115-4.033,12.112-.964,2.649-2.144,5.22-3.087,7.876A3.714,3.714,0,0,0,189.912,271.635Z" style="fill: #1c2d28"/>
        <path d="M441.48,48.011c-1.052,1.819-.282,3.172.681,4.344,2.4,2.922,3.045,6.7,3.114,10,.074,3.557,1.643,5.91,3.308,8.494.79,1.225,1.637,2.825,3.536,1.816a3.378,3.378,0,0,0,1.559-4.825c-3.141-6.134-4.81-12.944-8.639-18.748C444.135,47.717,443.215,45.8,441.48,48.011Z" style="fill: #1c2d28"/>
        <path d="M331.517,180.814a35.628,35.628,0,0,0,8.494,3.7c1.649.4,2.854.893,3.723-.879.944-1.923-.028-3.214-1.6-4.227-1.952-1.259-4.2-1.538-6.419-1.832-.918-.122-1.866,0-2.79-.091-2.193-.21-4.415-4.4-6.043-1.469C325.588,178.349,330.283,178.616,331.517,180.814Z" style="fill: #fefefe"/>
        <path d="M352.668,116.746a44.15,44.15,0,0,0,22.919,1.121C368.09,114.966,360.318,116.873,352.668,116.746Z" style="fill: #1c2d28"/>
        <path d="M200.4,100.963c4.5-2.634,9.768-1.984,9.179-6.9-.385-3.222-4.875-3.737-7.1-2.775C197.789,93.313,203.805,97,200.4,100.963Z" style="fill: #fefefe"/>
        <path d="M421.516,181.668c-2.521-1.1-4.769-1.264-6.273.833a25.579,25.579,0,0,1-9.282,8.236c-.711.358-1.294.9-.881,1.751.469.967,1.351,1.1,2.371.943,2.347-.36,4.736-1.578,5.607-3.337C414.947,186.277,417.972,183.941,421.516,181.668Z" style="fill: #fefefe"/>
        <path d="M191.579,300.477c-1.061,3.123-1.068,6.2,1.158,8.392,1.359,1.337,3.053-.4,3.182-1.834.264-2.934,4.472-5.679,1.236-8.529C195.253,296.831,193.056,298.9,191.579,300.477Z" style="fill: #1c2d28"/>
        <path d="M306.179,140.888c-1.035,1.4.226,2.884-.163,4.342-.344,1.287-2.41,2.693-.571,3.859,1.395.884,3.491.234,4.717-.847,1.748-1.54-.173-3.141-.8-4.432-.587-1.21-2.141-1.951-3.27-2.9Z" style="fill: #fefefe"/>
        <path d="M205.165,231.889c3.454-4.061-.432-6.137-1.676-8.739a1.908,1.908,0,0,0-1.443.245c-.777.72-.925,2.013-.1,2.46C204.229,227.1,204.012,229.668,205.165,231.889Z" style="fill: #1c2d28"/>
        <path d="M259.336,294.126c-.131,2.229,1.914,3.359,2.85,5.05a1.23,1.23,0,0,0,2.244-.157c1.206-2.642-1.826-3.2-2.678-4.865C261.371,293.41,260.28,293.052,259.336,294.126Z" style="fill: #1c2d28"/>
        <path d="M157.945,290.663l4.081-5.2C158.4,285.579,157.457,287.612,157.945,290.663Z" style="fill: #1c2d28"/>
        <path d="M164.782,70.716l-.709.14c.111.041.248.143.327.11a1.554,1.554,0,0,0,.368-.312Z" style="fill: #fefefe"/>
        <path d="M78.694,128.718c.235-1.838.751-3.338,2.611-3.967a1.643,1.643,0,0,1,2.237,1.154c1.994,6.516,7.41,11.445,8.458,18.416.349,2.321.708,5.9,2.893,6.063,5,.366,3.953,3.92,4.612,6.666.793,3.3-1.425,6.293-1.327,9.378.141,4.441-3.048,4.741-5.425,4.26-2.487-.5-3.069-3.272-2.237-5.9.678-2.142,1.754-4.477-.095-6.426-3.779-3.985-5.742-9.18-9.205-13.352-.965-1.163-1.406-3.8-3.66-2.208-1.852,1.307-.565,3.119.363,4.515,2.231,3.356,3.7,6.758,1.475,11.438-2.438-3.452-4.729-4.195-7.637-1.22-1.3,1.334-3.82.522-4.571-.637-.874-1.346-2.651-3.11-1.671-4.9.863-1.579,2.749-2.563,3.891-4.036,1.627-2.1,5.908-5.125-1.285-5.17a2.052,2.052,0,0,1-2.045-2.279c-.033-3.285-1.3-7.946,3.139-8.5,3.832-.481,3.556,3.911,3.755,7.89C77.391,136.752,78.176,132.766,78.694,128.718ZM95.473,167.68a1.743,1.743,0,0,0-.657-2.423c-.783-.507-1.481-.359-1.681.54a2.29,2.29,0,0,0,.589,2.561C94.613,168.945,95.156,168.332,95.473,167.68Z" style="fill: #9bb0aa"/>
        <path d="M195.459-24.142c-.877.175-2.188-2.744-2.555.167-.218,1.727,1.122,3.732-1.338,4.867-2.032-1.15-.931-3.089-1.214-4.618-.8-4.291-4.364-6.083-8.077-3.954a8.9,8.9,0,0,1-3.014,1.512c-2.207.246-4.314-.375-2.931,3.459.757,2.1-1.946,3.228-4.907,2.064-1.374-.54-2.133.118-2.858,1.069-4.163,5.466-9,10.479-11.043,17.331-.706,2.364-1.218,4.71,1.105,6.1,2,1.194,3.73-.5,4.722-2.06,2.459-3.868,8.05-1.013,10.521-5.181.536-.9,1.3,1.034,1.545,2.1.447,1.933.055,4.685,2.659,5.108,2.694.437,1.868-2.739,3.107-4.046,5-5.277,10.711-10,12.737-17.621a57.586,57.586,0,0,0,1.508-6.413Z" style="fill: #9bb0aa"/>
        <path d="M101.883,66.728c-1.53-5.788,5.252-8.6,6.3-14.178.442-2.354.428-3.467-1.924-4.252-1.777-.593-4.032-1.12-5.011-2.455-2.1-2.87-4.106-2.285-6.139-.522-2.432,2.108-1.892,4.993-.471,7.21.986,1.539,1.992,3.14,3.1,4.607,1.279,1.7,1.443,2.21-.875,2.9-1.429.423-1.639,8.813-.307,9.619C99.141,71.218,100.211,69.05,101.883,66.728Z" style="fill: #9bb0aa"/>
        <path d="M99.933,108.087c1.366.725,2.913,1.43,4.312.7,1.5-.79,1.677-2.932,1.276-4.048-1.652-4.605.164-6.724,4.5-7.777a2.748,2.748,0,0,0,2.151-3.5c-.662-2.068-1.006-4.571-3.776-5.222-1.853-.436-2.732.694-3.635,2.014-2.091,3.058-3.711,6.261-7.523,8.106C93.987,99.932,95.7,105.486,99.933,108.087Z" style="fill: #9bb0aa"/>
        <path d="M154.607-9.681c-3.21-2.076-4.186,1.483-6.164,2.343s-2.634,3.842-5.882,3.283c-1.659-.285-1.5,1.519-.863,2.931,1.126,2.487,2.055,5.062,3.063,7.605C148.623,1.481,153.868-2.647,154.607-9.681Z" style="fill: #9bb0aa"/>
        <path d="M116.608,188.711c3.834-6.066,2.532-16.239-2.215-20.2-.645-.537-1.105-1.015-1.786-.459-.745.61-.771,1.57-1,2.49-.846,3.4,1.637,5.935,2.118,9C114.2,182.593,115.558,185.5,116.608,188.711Z" style="fill: #fefefe"/>
        <path d="M100.718,165.143c-.269,4.032-.531,7.914-.769,11.8-.008.13.258.408.362.392.695-.107,1.575-.053,2.039-.459,3.354-2.934,6.805-5.927,4.612-11.131-.814-1.931-2.735-1.808-4.4-1.755C101.951,164.007,101.362,164.719,100.718,165.143Z" style="fill: #9bb0aa"/>
        <path d="M.352,4.938c-2.892,2.839-5.076,5.608-5.378,9.356-.148,1.844-.836,3.773,1,5.214a1.527,1.527,0,0,0,2.427-.3c1.1-1.816,4.639-2.143,3.668-5.066C1.081,11.18.882,8.13.352,4.938Z" style="fill: #9bb0aa"/>
        <path d="M47.738,62.362c1.1-4.689-1.165-6.963-3.3-8.581-.948-.72-3.547.9-4.292,2.832a2.13,2.13,0,0,0,1.619,3.058C43.823,59.942,45.845,60.029,47.738,62.362Z" style="fill: #9bb0aa"/>
        <path d="M120.847,151.408c3.278-2.812,2.967-6.565,4.181-9.836a1.919,1.919,0,0,0-1.8-2.377,2.636,2.636,0,0,0-1.8,1.824C121.079,144.467,121.011,147.943,120.847,151.408Z" style="fill: #9bb0aa"/>
        <path d="M110.972,115.7c.246-3,.5-5.575.65-8.159a1.965,1.965,0,0,0-1.872-2.3c-1.113-.091-1.693.767-1.807,1.723C107.552,110.224,104.278,114.421,110.972,115.7Z" style="fill: #9bb0aa"/>
        <path d="M178.062,233.05h-.906c.447.994.633.262.869-.132Z" style="fill: #9bb0aa"/>
        <path d="M229.777,279.112c-1.962,1.486,5.267,5.158-1.958,4.267-.819-.1-1.485.279-1.039,1.308.371.853.7,1.939,1.827,1.91,2.278-.061,5.331-.075,5.554-2.731C234.37,281.384,233.02,278.61,229.777,279.112Z" style="fill: #9bb0aa"/>
        <path d="M71.122,8.018c.047.168.094.337.14.5.164-.061.41-.08.468-.194s-.07-.325-.117-.493Z" style="fill: #1c2d28"/>
        <path d="M214.993,77.128c1.718,5.751,8.348,4.438,9.349,9.229,1.139-.262,2.342-.793,2.46-1.949.194-1.893-.108-3.878-2.311-4.588C221.705,78.923,218.859,78.212,214.993,77.128Z" style="fill: #9bb0aa"/>
        <path d="M93.723,168.365c.89.58,1.433-.033,1.75-.685a1.743,1.743,0,0,0-.657-2.423c-.783-.507-1.481-.359-1.681.54A2.3,2.3,0,0,0,93.723,168.365Z" style="fill: #1c2d28"/>
      </g>
    </g>
  </g>
</svg>
