<svg id="Layer_1" data-name="Layer 1" xmlns="http://www.w3.org/2000/svg" xmlns:xlink="http://www.w3.org/1999/xlink" viewBox="0 0 500 300">
  <defs>
    <clipPath id="clip-path">
      <rect x="2.65" y="13.21" width="493.92" height="286.79" fill="none"/>
    </clipPath>
    <clipPath id="clip-path-2">
      <rect x="-0.37" y="82.54" width="260.89" height="218.61" fill="none"/>
    </clipPath>
    <clipPath id="clip-path-3">
      <rect x="127.13" y="82.54" width="260.89" height="218.61" fill="none"/>
    </clipPath>
    <clipPath id="clip-path-4">
      <rect x="281.53" y="82.54" width="260.89" height="218.61" fill="none"/>
    </clipPath>
    <clipPath id="clip-path-5">
      <rect x="2.16" y="-276.52" width="298.78" height="250.35" transform="translate(303.11 -302.68) rotate(-180)" fill="none"/>
    </clipPath>
    <clipPath id="clip-path-6">
      <rect x="201.22" y="-276.52" width="298.78" height="250.35" fill="none"/>
    </clipPath>
    <clipPath id="clip-path-7">
      <rect x="-454.19" y="-325.94" width="357.76" height="299.77" fill="none"/>
    </clipPath>
    <clipPath id="clip-path-8">
      <rect x="-422.45" y="-679.73" width="358.03" height="300" fill="none"/>
    </clipPath>
  </defs>
  <title>pic-6</title>
  <g clip-path="url(#clip-path)">
    <g clip-path="url(#clip-path-2)">
      <g>
        <path d="M291.92,335.46c-23.69-15-64.7-100.16-112.84-100.87S33,241.78-7,311.46c-25.42,44.27-72.67,59.34,67,52S291.92,335.46,291.92,335.46Z" fill="#090302"/>
        <polygon points="183.09 276.9 144.21 297.49 145.97 269.5 178.07 268.11 183.09 276.9" fill="#886a69"/>
        <path d="M67.39,264.65c5.92-8.82,10-20.46,10-20.46,1.15,1.54,10.35,16.62,18.66,16.36s9.07-1.28,14.18-2.68,12.65-3.58,17.25-6.14,15.59-14.31,18.15-21.46c0,0,10-7.67,9.62-13.94-.06-.94-.2-2-.36-3a1.5,1.5,0,0,1,.88-.33c3,0,21.76,22.59,24.1,30.57s9.09,23.13,3.17,33.33c0,0-5.29.8-17.52-4.69,0,0-16.23,25.22-24.21,26.46s-11-3.17-14.05-4.41-16-9.28-19.56-10.15S95,280.49,90.62,282.28s-15.38,8.54-19,9S55.68,290,52,282.69s-3.87-7.85-3.87-7.85h2.76C53.89,274.84,61.47,273.46,67.39,264.65Z" fill="#9e7e74"/>
        <path d="M86,93.09c-6.89.55-15.89-6.72-23.93,2.28S36.62,109,35.47,116.43s.77,19.34.39,26-5.94,15.7-5.94,24.51,4.6,17.23,2.49,28.72-6.89,15.32-8.23,23S23,230,26.48,237.25a136.44,136.44,0,0,0,7.65,13.6c.39.76,4.22,23,11.49,25.27s17.62-.57,22.21-7.47,12.64-22.21,10.92-31.78S70.13,202,70.13,202l20.49-99.57Z" fill="gray"/>
        <path d="M150.53,107.42c-4.39-4.83-14.28-15.29-25.54-16.7s-39.74-2.59-48.83,8.66S56.36,122,55.72,135.45s.76,39.87,1.79,44.47,0,10.61.76,17.89.51,17.63,2.69,23.38,7.28,13.29,8.43,14.7,6.9,6.77,8,8.31,10.35,16.61,18.66,16.35,9.07-1.28,14.18-2.68,12.65-3.58,17.25-6.14,15.59-14.31,18.15-21.46c0,0,10-7.67,9.62-13.94s-4-15.45-.17-16.73,10.23-3.2,12-9.71,3.45-11.38,2.93-15.34-1.27-6.26-3.19-8.18S156.91,114.42,150.53,107.42Z" fill="#d79d79"/>
        <path d="M106.39,220.29c-2.31-3.35-7.18-2.69-12.75-2.62s-10.38-.78-10.25,2,11.8,1.35,16.1,1.21A63.14,63.14,0,0,0,106.39,220.29Z" fill="#540b06"/>
        <path d="M127.86,92.52c-25.37-5-1.43-3.86,7.37-5S149.4,84.26,153,84.26s17.23,5.94,18.38,10.53,3.45,12.64,7.28,18.38.57,11.3,7.08,17.62,12.07,5.17,14.37,11.49,5.55,13.78,3.06,18.95,4.21-4.21,3.06,12.07-1.34,11.29,1,21.44,1.15,12.64,1.34,21.26-.57,6.7-5.17,7.27-5.36-2.68-6.7,2.49-3.26,5-6.89,5.56-1.92-.2-5.37,3.06.39,4.4-6.31,3.25-5.37,1-10.34-1.34-5.94-4.59-7.47-10.34-1.92-8.8-4.6-10.14-6,1.56-5.58-.71-3.8-14.61-4-19a22,22,0,0,1,4.21-14.36c3.45-4.4,7.66-7.08,8-12.06s2.3,1.34.19-10.15-6.89-34.94-6.12-41S145.72,96,127.86,92.52Z" fill="gray"/>
        <path d="M130.45,88.86c-5.36-1.73-14.75-4.79-20.87-4.6s-10.53,2.3-16.66,3.45S82.39,86.3,79.71,90.83s4.59,8.37,6.12,8.37,21.78,8.42,30.71,3.63S130.45,88.86,130.45,88.86Z" fill="gray"/>
        <path d="M107.3,261.23c0,.38-3.88,19.59-5.85,19.2-3-.58,2.86-15.08,5.85-18.82" fill="#886a69"/>
        <path d="M132.27,159.36c-8.87-3.78-12-3.19-16.45-2.17s-11.3,4.54-8.89,6.06,4,.17,6-.34a49.2,49.2,0,0,1,11-.89c4.2.13,9,.91,11.26,1S133.38,159.84,132.27,159.36Z" fill="#260d0b"/>
        <path d="M82.17,162.06c1.19.76-.48,3.36-2.68,2.49s-6.81-1-10.83.39-5.18,3-6.33,2.3,2.11-4.79,6-6.08C71.19,160.24,74.31,157.08,82.17,162.06Z" fill="#260d0b"/>
        <path d="M121.62,167.34c-4.11-.14-7.61-.1-8.41,1.74s1.14,4.73,4.44,4.73,9.25-.25,11.45-1.5c.51-.29,0-1,0-1.2C128.7,169.24,125.25,167.46,121.62,167.34Z" fill="#fae1d7"/>
        <path d="M81.81,173.59c1-.3,1.38-.78.76-1.63s-2.15-3.52-3.63-3.68a25.78,25.78,0,0,0-5.82.12c-1.49.29-4.65,1.36-5.55,2.39s-2.34,2-.83,2.5a18.16,18.16,0,0,0,5.85,1.28c1.63-.11,7.45-.74,8.16-.76A2.32,2.32,0,0,0,81.81,173.59Z" fill="#fae1d7"/>
        <path d="M82.3,192.86a24.46,24.46,0,0,0-2.34,4,11.44,11.44,0,0,0-.76,2.09,4,4,0,0,0-.13,1l0,1.17a7.93,7.93,0,0,0,.24,2.12c.22.65.37.54,1.17,1.35.61.65,1,1.37,1.39,1.81l.15.16c0,.05.1.09.09.11a.36.36,0,0,0,.23.2,3.63,3.63,0,0,0,1.08.23l.09.17a2.08,2.08,0,0,1-1.15.81,1.58,1.58,0,0,1-.91,0,1.67,1.67,0,0,1-.4-.19,3.37,3.37,0,0,1-.31-.21,20.54,20.54,0,0,1-1.69-1.69c-.23-.26-.43-.35-.88-.88a3,3,0,0,1-.58-1.49,11,11,0,0,1,.06-2.53l.11-1.16a5.29,5.29,0,0,1,.3-1.29,11.38,11.38,0,0,1,1.09-2.18,22.05,22.05,0,0,1,3-3.68Z" fill="#b25f40"/>
        <path d="M98.75,209.19c2.91-3.29,5.19-5.61,5.54-3.5s.35.92,2.25.56,1.41,2.47,3.25,1.34a7.55,7.55,0,0,0,3.08-2.76c1.29-1.68,3.19-3.79,2.56-2.17s-2.54,2.32-2,3.73-.1,2.82,2.1,1.56,1.36-.36,3-.15.63-.63,2.11-1.26,1.06-.43,2.54.67,1.41,1.93,2.61.95,3.52-3.95,3.17-1.41-1.27,3.86-.81,4.25,2.92-.87,1.16,1.46-2.68,3-.77,3.45,3.29.49,1.4,3-2.32,2.19-3.17,3.6.07,1.16-2.46,1.84-3.74,1.47-6.91-.43-3-3.81-4.6-3.88.3-1.13-2.94-.64-3.39,1.56-6.56.78-5.22-3.24-6.77-3.24-2.18,1.2-4.3,2-6.2-.07-8-.28-3.87-2.07-4.65.28-.36,4.72-2.33,5,.92-.22-4-.64-3-.63-3.73-1.69A8.64,8.64,0,0,1,68.06,219c-.36-1.13,2.11.35.21-1.55s-2-.21-1.27-2.11.49-1.41.14-2.68.56-1.34,1.41-2,2-.07,1.27-1.19-1.06-1.41-.78-2.29,1.76-.25,2.61-1.31,1.34-4.3,2.61-2.25-.92,3.24,2,4.37,1.34.14,4.51,1.69,3.88,2.68,5.5,2,2.12-.91,4.65-2.18S97.7,210.38,98.75,209.19Z" fill="gray"/>
        <path d="M106.52,219.81c1.08,1.55,1.09,3.78-2.92,4.2a72.9,72.9,0,0,1-12.54-.1c-3-.28-6.21-1-7.55-3.39-.63-1.1,10-1,13.86-1.39A31.76,31.76,0,0,1,106.52,219.81Z" fill="#af5945"/>
        <path d="M102.24,227a2.4,2.4,0,0,1,1.48,3.59c-.56.92-1,.78-.63,2.4s4.19,7.89,3.3,11a23,23,0,0,1-3.65,8c-1.77,2.26-3.63,4.16-2.75,6.21s-1.55-.43-2.19-.57-1.27-.77-1.27.71-.28,2.6-.84,1.12.09-3.66-.8-2.53-.12,3.38-1.53,1.41-1.2-4.44-2.25-3.11-.63,2.95-1.13,1.09-.14-1.72-.78-3.2S88,252.71,87,250.8s-3-.07-3-2.89-1-5.64-.07-7.4,1.76-.7,1.41-3.24.07-1.9.21-4.23-1.77-2-.71-3.95,1.83-1,1.9-2.11,3.25-3.6,3.25-3.6l12.19.85S101.26,226.72,102.24,227Z" fill="gray"/>
        <path d="M75.59,168.19a26.49,26.49,0,0,1,3.35.09c1.48.16,3,2.83,3.63,3.68s.19,1.33-.76,1.63a2.32,2.32,0,0,1-1.06.22c-.53,0-3.87.36-6.22.59a3.48,3.48,0,0,1-1.69-2.82A3.9,3.9,0,0,1,75.59,168.19Z" fill="#190c0a"/>
        <path d="M121.72,167.34c3.59.15,7,1.92,7.37,3.77,0,.24.52.91,0,1.2-1.47.84-4.62,1.23-7.54,1.39-1.76-.65-2.93-1.81-2.93-3.15S119.87,168,121.72,167.34Z" fill="#190c0a"/>
        <path d="M88.16,165.74a96.39,96.39,0,0,0,.36,9.75,60.64,60.64,0,0,1-.08,9.81c-.07.82-.16,1.64-.29,2.47-.07.41-.15.82-.26,1.25a3.74,3.74,0,0,1-.61,1.25,33,33,0,0,0-2.62,4,8.14,8.14,0,0,0-1.09,4.33,18.68,18.68,0,0,0,.92,4.6,14.46,14.46,0,0,0,2.05,4.1,6.79,6.79,0,0,0,.72.78l.93.73a10.45,10.45,0,0,1,1,.9,9.81,9.81,0,0,0,.78.79.75.75,0,0,0,.55.19,7.37,7.37,0,0,0,1-.1,15.92,15.92,0,0,0,2.23-.48,5.33,5.33,0,0,0,1.82-.94,4.83,4.83,0,0,0,.71-.72,10.83,10.83,0,0,0,.63-.94,10.76,10.76,0,0,1,3.91-3.55,7.93,7.93,0,0,1,1.24-.52c.43-.15.86-.24,1.23-.34a7.12,7.12,0,0,0,2.07-.75,2.57,2.57,0,0,0,1.16-1.57,16.75,16.75,0,0,0,.47-2.3,12.43,12.43,0,0,0-.72-4.68l.18-.07a11.71,11.71,0,0,1,1.41,4.79,15.93,15.93,0,0,1-.27,2.51,3.79,3.79,0,0,1-1.46,2.41,7.56,7.56,0,0,1-2.42,1.13c-.41.14-.77.24-1.1.38a6.89,6.89,0,0,0-1,.49,8.91,8.91,0,0,0-3.11,3.11c-.18.28-.43.72-.72,1.09a6.8,6.8,0,0,1-1,1A7.25,7.25,0,0,1,94.36,212a14.32,14.32,0,0,1-2.56.51,7.31,7.31,0,0,1-1.39.09,2.72,2.72,0,0,1-1.69-.65c-.41-.38-.64-.7-.9-1a9.67,9.67,0,0,0-.79-.78c-.14-.13-.29-.24-.43-.36l-.53-.46a7.36,7.36,0,0,1-.9-1.05A15.63,15.63,0,0,1,83,203.68a20.45,20.45,0,0,1-.85-5,9.45,9.45,0,0,1,1.39-5,33.46,33.46,0,0,1,2.82-4.08,2.5,2.5,0,0,0,.48-.91c.1-.36.19-.75.27-1.14.14-.78.26-1.57.35-2.37a59.31,59.31,0,0,0,.45-9.7c-.06-3.25-.23-6.52,0-9.78Z" fill="#b25f40"/>
      </g>
    </g>
    <g clip-path="url(#clip-path-3)">
      <g>
        <path d="M211.46,258.91c-3.15,4.75-1.89,7.09-5.68,9s-2.73.88-7.78,2.54-6.72.82-9.88,4.82-5,8.2-8,12.61-1.68,1.68-9.88,6.94-10.51,5.26-13.66,8.41.42,2.31-6.52,6.1-.84,2.1-15.56,7.14-13.45,1.9-21,6.94-9,3.79-13.25,8.83-10.72,10.94-17,20.82-20.6,37.84-20.6,37.84H441.05s-7.78-30.7-24.81-44.57S398,331.38,390.38,330.12s-6.73.21-16.4-9-21.66-20.39-27.54-20.6-3.58,1.89-8-1.9-4.84-3.57-9.25-7.14-6.31-2.53-12-6.94S324,282.27,304.56,274,211.46,258.91,211.46,258.91Z" fill="#441716"/>
        <path d="M116.12,350.17c4.19,2.29,3.81-17.52,9.91,1.15s10.29,33.9,10.67,23.24-3.81-14.86-1.91-22.1,4.57.94,12.19-8.68,7.24-10.37,9.91-15.13-2.29-19.63,4.57-7,11.81,8,13,16S174,345.22,174,357s1.91,24.38,3.43,16,.38-20.57.77-30.86,1.14-12.57,4.19-1.14,9,24.76,9.05,31.24,1.84,14.56,2.05.76,1.2-17.94,12-19.26,46.94,3.1,54.77,7.83c4.78,2.89-30-57.71-57.62-92.43a41.14,41.14,0,0,0-4.67,1.26c-5,1.66-6.72.82-9.88,4.82-.22.28-.42.57-.64.85h0c-2.35,3.17-4,6.47-6.16,9.9l-.14.24c-.34.54-.68,1.08-1.05,1.62-1.47,2.21-1.89,2.63-3,3.15l-.43.21a37.63,37.63,0,0,0-3.82,1.95c-.76.44-1.63,1-2.66,1.63-5.12,3.28-7.95,4.52-10.12,5.75a15.49,15.49,0,0,0-3.54,2.66,7.76,7.76,0,0,0-1.29,1.59,3.89,3.89,0,0,0-.28.6,2.6,2.6,0,0,0-.1.25,2.51,2.51,0,0,1-.72,1,7.89,7.89,0,0,1-.91.71l-.67.44c-.64.4-1.47.87-2.55,1.47s-1.85,1.05-2.43,1.42-.8.53-1.08.74l-.4.3-.36.26-.38.25c-1.15.71-3.09,1.49-10.91,4.17-14.72,5.05-13.45,1.9-21,6.94-1.42.95-2.63,1.67-3.68,2.26-.7.39-1.32.72-1.9,1l-1.6.79c-.73.36-1.39.7-2,1.09l-.63.41a13.84,13.84,0,0,0-1.27,1,20.76,20.76,0,0,0-2.14,2.25c-1.31,1.58-2.85,3.24-4.54,5.08-.68.73-1.38,1.49-2.09,2.29-1.44,1.6-3,3.33-4.5,5.26q-1.74,2.16-3.53,4.66c-.39.56-.79,1.13-1.18,1.72s-.79,1.19-1.19,1.81c-1.38,2.16-3.14,5.18-5,8.59l-.83,1.49c-.56,1-1.12,2-1.69,3.07s-1.15,2.1-1.72,3.16c-1.15,2.12-2.28,4.26-3.38,6.31-4.36,8.23-7.93,15.22-7.93,15.22H81.07c1.91-10.23,8-14,16.77-25.85S111.93,347.89,116.12,350.17Z" fill="#270c06"/>
        <path d="M266,389.92,251.83,287.23l-36-27.9-4.37-.42c-3.15,4.75-1.89,7.09-5.68,9-3.41,1.7-2.9,1.06-6.46,2.13l-.89,2.91c-3.16,8.83-8,19.35-6.73,31.54s-.41,19.34-.21,33.64,1,25.23,9.88,34.06c5.15,5.15,10.51,12.51,15.08,18.71h47.34C265.18,390.29,266,389.92,266,389.92Z" fill="#433128"/>
        <path d="M297.74,278.51c.49,1.45,4,2.41,11.11,12.93s12.57,7.14,11.73,18.29S320.16,327,317,336s-5,9.88-6.3,18.5,1.05,12.19-5.05,22.49-21,25.44-21.87,31.75S276.22,320,276.22,320Z" fill="#433128"/>
        <path d="M232.11,277.4c3.31,2.16,12,24.4,12,24.4l35.67.32L304.56,263l-5.19-41-71.93,46.15Z" fill="#d29f6e"/>
        <path d="M295.83,229.65a9.26,9.26,0,0,1,2.6-1.11c-1.75-2.51-1.47-3.6-.17-8.44,1.35-5,6-8.53,8.25-16.41s3.94-6.9,2.21-15.27-3-12.57-8.87-18.48-10.83-3.69-13.54-11.08-3.21-6.16-4.93-14.29-.49-12.81-8.13-15.52-15.56-3.2-25.27-4.93-18.57-1.72-24.49,2.47-11.08,4.68-14.78,10.34-12.76,6-13.5,12.68c-.37,3.31-3.26,17.27-2.32,24.9s7.33,13.52,7.45,18.09c.25,9.12,5.66,14.29.74,18.72-1.43,1.29-2.52,2.28-3.33,3.14,1.84,5.13,4.86,11.49,6.53,15.35,2.05,4.74,0,11.38,0,15.81a22.57,22.57,0,0,0,5.22,13.6c3.32,4.11,2.37,3,3.32,6.16s3.63,6.33,5.69,9,7.43,3.47,13.6,3,3.32-1.9,8.54-3.79,8.69-2.38,16.12-4.59,7.59-4.27,13-7.75,9.49-7.43,12.65-10,6.32-8.06,7.27-10.28S293.77,231.07,295.83,229.65Z" fill="#ffc680"/>
        <path d="M186.05,156.39c1-9.36-1.48-16.5,4.44-21.92s6.89-14.78,13.54-22.91,6.9-11.82,14.78-17.73,8.38-11.09,16.75-9.12,7.64,4.68,15,4.68,17.73-5.66,24.39-4.68,24.14,3.7,30.79,15,.74,12.07,12.56,16.5,18,0,22.41,11.09,4.68,15.76,8.87,27.83,1.73,11.83,0,24.39.49,12.31-1.48,19.95-6.15,6.65-3.94,14.78,5.18,8.62,3.94,14,.74,12.56-5.42,17-5.41,1.23-2,8.13,2.47,13.05-2.71,18-9.36,10.34-13,10.34-10.59,2.47-15,0-7.88.25-10.1-4.18-4.18-1.62-6.15-5.49-3-2.4-2-7.57,1-4.43,1-13.3-.74-8.38,2.22-13.55,5.66-6.16,3.69-8.87-1.7-3.69-.36-8.71,6-8.53,8.25-16.41,3.94-6.9,2.21-15.27-3-12.57-8.87-18.48-10.83-3.69-13.54-11.08-3.21-6.16-4.93-14.29-.49-12.81-8.13-15.52-15.56-3.2-25.27-4.93-18.57-1.72-24.49,2.47-11.08,4.68-14.78,10.34-10.15,8.49-10.89,15.14c-.27,2.4-2,14.31-1.56,19.85.72,9.79,3.92,14.86,4.08,20.68.25,9.12,5.66,14.29.74,18.72s-5.91,5.42-4.93,9.12-3.2-6.9-7.88-10.59-7.14-5.18-7.39-14-2.22-5.67,1.48-14.29,7.63-9.61,5.66-14.78A32.7,32.7,0,0,1,186.05,156.39Z" fill="#d1b077"/>
        <path d="M245.34,166.48c-2.91.3-7.87,4.2-3.88,4.09s9-2.12,15.26-.23,8.72,1.67,10.39,3.14,1.89-2.61-2.78-4.08S260.66,164.91,245.34,166.48Z" fill="#d1b077"/>
        <path d="M209.62,166.05c7.14-.16,12.65,2.41,12.17,3.91s-2.25.58-4.85.58-5-1.21-8-.94-12,3.65-11.31,1.09S204.73,166.16,209.62,166.05Z" fill="#d1b077"/>
        <path d="M251.16,182.44c3.38-1.85,9.46-1.19,10.85,0s7,4.3,5.36,5.22a43.1,43.1,0,0,1-11.11,3.58c-2.28.37-9.07-2.18-9.13-3.51C247,184.62,251.16,182.44,251.16,182.44Z" fill="#fae1d7"/>
        <path d="M201.52,184.62c1.55-2.56,5.55-4,7.87-4s9.06,2.11,9.46,3.5,1.38,3.24-1.19,4.1-11.49,2.28-13.57,1.39C202.71,189,199.8,187.47,201.52,184.62Z" fill="#fae1d7"/>
        <path d="M218.86,240.19c-.28-1.94,2.74-3.82,4.55-4.54s2.26,1,4.67.56,2.43-2,5.41-.67,3.4,1.93,7.27,3.51S248.6,240.8,248,242s2.54,1.44-8.14.83-16.13.26-17.65-1S219.21,242.68,218.86,240.19Z" fill="#c05a1d"/>
        <path d="M220.1,240.09c-.68.08-1.91,0-1.71,1.74s.41,2.66,2.69,2.82c4.2.31,5.35-.82,10.55,0s8.55,1.11,11.17.63,5.43-.61,4.94-1.68-2.34-2.39-7.49-3-6.13-.75-9.15-.92-2.12-1-5.74-.44S220.1,240.09,220.1,240.09Z" fill="#992f00"/>
        <path d="M228.38,172.57a17.72,17.72,0,0,0-.29,5.66,14.26,14.26,0,0,1,.12,2.85l0,.74,0,.38c0,.12,0,.36-.07.51a9,9,0,0,1-.53,1.59c-.82,1.87-1.76,3.53-2.65,5.23a38.35,38.35,0,0,0-2.35,5,4.36,4.36,0,0,0-.26,1.12c0,.44,0,.9-.06,1.36,0,.93,0,1.88,0,2.85s0,2-.08,3a7.27,7.27,0,0,1-.91,3.31,53.77,53.77,0,0,0-2.6,5c-.4.85-.79,1.71-1.14,2.57a8.86,8.86,0,0,0-.41,1.18,9.27,9.27,0,0,0-.19,1.26,24,24,0,0,0,.18,5.43,6.49,6.49,0,0,0,.29,1.14c0,.08,0,.09.07.14s.13.21.19.31l.38.62a8.08,8.08,0,0,0,1.51,2,1.72,1.72,0,0,0,1.62.43,11.53,11.53,0,0,0,1.19-.44l1.3-.55c1.74-.77,3.49-1.58,5.3-2.33.9-.37,1.82-.73,2.77-1a12.63,12.63,0,0,1,3.13-.68,10.33,10.33,0,0,1,1.62.12l1.39.15a7.14,7.14,0,0,0,1.23,0,4.64,4.64,0,0,0,1-.17,2.11,2.11,0,0,0,.86-.54,7.08,7.08,0,0,0,.86-1c.65-.81,1.37-1.47,1.92-2.15a2.51,2.51,0,0,0,.65-2.3,7,7,0,0,0-1.31-2.47,7.25,7.25,0,0,1,1.9,2.26,3,3,0,0,1,.29,1.61,4.23,4.23,0,0,1-.51,1.55c-.49.93-1.08,1.69-1.5,2.48a8.36,8.36,0,0,1-.78,1.34,4.35,4.35,0,0,1-1.36,1.26,4.29,4.29,0,0,1-1.78.58,9.76,9.76,0,0,1-1.64,0c-.52,0-1-.11-1.47-.16a9.6,9.6,0,0,0-1.25-.1,10.39,10.39,0,0,0-2.48.56c-.87.28-1.74.63-2.61,1-1.75.72-3.48,1.52-5.25,2.31l-1.35.57a13,13,0,0,1-1.51.54,4,4,0,0,1-2,0,4.47,4.47,0,0,1-1.71-.92,10.05,10.05,0,0,1-2-2.55l-.37-.61-.19-.3a3.88,3.88,0,0,1-.25-.5,7.91,7.91,0,0,1-.43-1.65,25.55,25.55,0,0,1-.21-6,13.48,13.48,0,0,1,.24-1.58,11,11,0,0,1,.53-1.54c.38-.92.78-1.81,1.19-2.69a54.7,54.7,0,0,1,2.75-5.23,5.07,5.07,0,0,0,.54-2.21c.07-.89.08-1.83.07-2.78s0-1.91,0-2.9c0-.5,0-1,.07-1.52a6.91,6.91,0,0,1,.37-1.68,40.53,40.53,0,0,1,2.51-5.39c.89-1.7,1.84-3.39,2.56-5a7.28,7.28,0,0,0,.39-1.13c0-.09,0-.09,0-.21l0-.34c0-.23,0-.46,0-.7a11.75,11.75,0,0,1,.39-2.9A14.66,14.66,0,0,1,228.38,172.57Z" fill="#efae76"/>
        <path d="M292.61,258.91a125.69,125.69,0,0,0-9.3,8.66c-3.86,3.85-5.79,4.34-7.24,7.71s-.48,3.22-4.34,4.82a47.44,47.44,0,0,0-10.12,6.27c-2.73,2.09-4.18,2.57-4.18,5.95s.16,4.88-1.12,7.23-3.86,7.23-2.25,10.61,2.49,7.07,4.21,5.78,1.57-4.5,4-1.6,5.14,6.1,5.31,7.71-.33,2.41-.49,8.2,0,12.21,0,12.21-5-6.11-5.46-11.41-.09-9.3-.71-11.64-3.47-20-9.26-24.36-5.94-2.73-8.35-5.46-2-4.79-5.31-6.72-6.61-4-4.59,0,3.79,1.41,2,4-7.55-.48-5,4.34,3,7.07,4.5,12.22-.9,4.51,2.2,8,.85,2.48-.59,3.29-2.09-1.13-.65,3.21,1.77,2.57,2.74,9,1.76,10,4.34,15.59,1.28,4.66,3.53,10.45,2.41,6.75,4.82,9.64,16.24,31.34,18.65,34.23-1.13,2.25,3.53-5,10.77-14.14,12.86-27,1.9-10.45,6.25-22,5.8-18.64,10.14-25.07,7.88-3.86,5.14-13.5-3.53-7.39-7.07-17-4-11.49-4.78-14.31S292.61,258.91,292.61,258.91Z" fill="#e0c3a2"/>
        <path d="M205.92,181.33a6.52,6.52,0,0,0-.4,2.25c0,3,2,5.53,4.57,5.53s4.56-2.48,4.56-5.53a6.65,6.65,0,0,0-.29-1.92,19.67,19.67,0,0,0-5-1.07A10,10,0,0,0,205.92,181.33Z" fill="#673d40"/>
        <path d="M260.29,184.87a7.19,7.19,0,0,0-.79-3.34,14.13,14.13,0,0,0-8.14.82,7.32,7.32,0,0,0-.44,2.52c0,3.31,2.1,6,4.69,6S260.29,188.18,260.29,184.87Z" fill="#673d40"/>
        <path d="M351.92,328.65c2.71,5.9-.72,7,3.85,18.47s11.81,20.2,14.1,27.06c1.67,5,2.53,10.06,4.67,16.51h22.37c0-1.57,0-3.24,0-5.08,0-10.29-.76-20.2-2.67-22.86s-10.67-20.82-9.14-13.65,0,17.07,1.52,20.5,4.19,18.67-2.66-1.14-8.77-10.11-13.34-24.68.38-7.7-4.57-22.56c-3.57-10.71-8.37-12.72-11.47-17-3.23-2.24-6.07-3.68-8.15-3.75-5.89-.21-3.58,1.89-8-1.9s-4.84-3.57-9.25-7.14-6.31-2.53-12-6.94c-1.89-1.47-1.77-2.21-1.49-2.85l-2.62,1.1c-.38,7.22,12.95,20.56,20.95,26.27S349.21,322.75,351.92,328.65Z" fill="#270c06"/>
      </g>
    </g>
    <g clip-path="url(#clip-path-4)">
      <g>
        <path d="M454.71,253.47c1.2-.32,17.88,2.78,24,7.38S516,289,522.17,295.1s14.57,16.61,14.57,16.61H290.63s13.39-17.89,16.79-18.4,4.42,1.28,10-2.81,21.25-8.6,21.25-8.6l82.51-31.78Z" fill="#8e5e33"/>
        <path d="M307.42,293.31c3.4-.51,4.42,1.28,10-2.81s21.25-8.6,21.25-8.6l12.05-4.64,4,3.06,3.7,30.33-2,1.06H329.33c.3-.53.67-1.11,1.11-1.86a24.5,24.5,0,0,1,3.67-4.4c1.57-1.71.94-3.61,1.84-5.41s2.4-5.5,2.2-8.11-1.3-1.1-2.2-1.1-2.7,3.31-5.31,8.41c-2.06,4.05-5.44,9.1-7.46,12.47h-9c.67-1.85,1.9-3,2.72-5.16.9-2.41-1.4.2-4.9.8s-3.61,2.7-5.71,4.36H290.63S304,293.82,307.42,293.31Z" fill="#543128"/>
        <path d="M358.12,296.39l38.28-6.72,5.64,1.81.67,2.48-.24.75a2.44,2.44,0,0,0,.24-.75,3,3,0,0,1-.12,1.51,11.49,11.49,0,0,1-.53,1.42,23.8,23.8,0,0,1-1.42,2.64,40.7,40.7,0,0,1-3.52,4.79,42.79,42.79,0,0,1-4.16,4.25,24.83,24.83,0,0,1-2.35,1.85,7.45,7.45,0,0,1-2.71,1.29,5.51,5.51,0,0,0,.73-.54l-.73.54h-35Z" fill="#72543d"/>
        <path d="M506.1,306.45a41.94,41.94,0,0,1-5.1-6.11c-2.4-3.3-3.6-3-7.71-6.38s-3.9-3.23-8.41-8.53-9.1-5.71-15.91-9.31-9.31-5.81-14.71-8.81a65.48,65.48,0,0,0-14.12-6.3c-6.6-2.21-7.39-1.31-6.79-2.21l-1.81-.93,3.93-6.33,19.24,1.93c1.2-.32,17.88,2.78,24,7.38S516,289,522.17,295.1s14.57,16.61,14.57,16.61H516.33s-1.72-.46-4.12-.86S507.91,308.25,506.1,306.45Z" fill="#543128"/>
        <path d="M433.68,257.87c-.72,2.69-10.84,23.72-14.72,26.38s-11.86,7.77-15.54,9.4-9.82,3.68-15.34,6.14-7.77,3.68-15.74,5.52-17,2.86-18.4,5.93-15.54,31.48-15.54,31.48-3.68-6.13-3.68-11.86-1-7.77-.41-13.49a15.46,15.46,0,0,1,4.5-9.2s-4.09-2.25,0-6.75,6.13-4.5,6.75-8.18-1-1.59-4.09-3.68-4.09-4.09-3.68-5.93.61-1.43,3.27-3.27,6.74-4.9,8-6.74a5.83,5.83,0,0,1,3.05-2.33,18.87,18.87,0,0,1,0-9.29,30.41,30.41,0,0,1,4.93-9.85l78.22-42.31Z" fill="#eddeda"/>
        <path d="M431.92,216.86c-1.51,8.5-10.92,28.54-17.26,31.81s-25.15,11.86-32.51,13.09-25.55-2.46-27.6-3.89-8.31-9-10.63-16-9.2-8.79-9.2-8.79l-9-56.43,22.08-66.25,84.12,5.73,16.48,88.53Z" fill="#e1b89d"/>
        <path d="M438.38,101.46c3.89,1.22,10.22,4.7,13.9,9.2s3.28,5.31,5.93,10,3.89,7.15,5.12,9,3.47,2.87,5.31,6.75,5,5.73,1.84,10.63c0,0-4.26,5.68-2.13,7.95s6.22-2.22,7,5.34.2,11.66-.61,14.11-1.23,1.64,0,6.34,2.61,8.59,1,11.65-4.47,3.89-4.27,8,5.12,7.36.82,13.49-6.38,3.35-5.82,6.54,1.12,4.71-.52,8.18-2.65.62-2.45,6.14,2.66,3.47.41,7.15-2.05,4.09-2.05,6.34-5.72,5.52-10.63,6.14.62-.21-6.75,1.63-7.15,1.84-10.83,1.84-5.11-5.11-4.3-9.4,3.07-3.26.82-8-2.69-.2-1-6.13,3.29-9,2.88-13.29.82-2-1.63-9.41-3.68-2-3.68-13.49.41-20.65,1-24.33c0,0-3.27-7.16-3.27-12.27s.41-6.34,2-10.63,3.48-3.68,2.25-8.59-.61-8.18-2.45-11,.2-4.7-4.91-7.77-7.77-3.68-12.47-3.68-.82-2.25-9-1.43-6.54,1.43-12.27,2-7.15,1.84-10,.82a41.08,41.08,0,0,0-12.68-2c-4.91,0-7.77-1.43-10.63.81s-5.32,4.71-6.55,7.16-3.47,3.48-4.49,7.57-1.64,5.11-1.64,8.38.2,5.72-1.84,10.63-1.43,11.25-2.66,14.11-1.22,4.29-1.84,8.59a58.57,58.57,0,0,0-.61,8.58c0,1.23.41,7.57,0,10.43s.82,7.47,2.11,12.25-.68,10.45.34,14.74,7.36,19.42,6.75,19.42-2.05,0-6.54-3.06-6.55-3.07-6.55-6.75-6.33-4.91-6.33-4.91c-1.88-7-4.71-9.4-6.14-12.06s-2.66-3.07-2.66-5.73.12-2.24-.5-4.52,4.2-.18,0-3.45-5.22-3.88-6.24-6.95-2.25-2.66-1-5.93a17,17,0,0,1,3.28-5.73c.61-.61,1.58,2.85,2.24-3.17s-.52-7.65,1.68-9.81,5.07-.92,5.07-3.37-1.43-2.87,0-5.52,2.46-1.64,2.46-3.89-.62-3.07,0-5.52,2.65-3.27,2.65-4.91a28.18,28.18,0,0,1,0-5.93c.41-2.65.21-.4,1.23-4.49s1.23-3.89,1.23-6.14a16.44,16.44,0,0,1,.68-4.79,16.48,16.48,0,0,1,.95-4.2c1.23-3.89,1.83-.62,2.76-4.3s-1.94-.2,3-7,7.77-5.31,9.61-8.38,9.4-9.41,12.47-10,5.11-2.25,9.2-3.48,6.34-3.27,9-2.45A22.43,22.43,0,0,0,384,86.94c4.5,0,8.39-2.42,12.48-1.62s5.72,0,12.26,2.23,6.34,2.25,9.82,3.48a53.27,53.27,0,0,1,9,4.29c2.46,1.44,4.91,2.66,6.14,3.28S438.38,101.46,438.38,101.46Z" fill="#b7a7a3"/>
        <path d="M414.24,169.16a33.68,33.68,0,0,0-9.12-3.14,55.56,55.56,0,0,0-8.67-1.13c-3.15-.19-9-.63-10.88,0s-4,1.38-2.26,2.14a23.13,23.13,0,0,0,7.6,1.19c1.7-.12,5-.12,7.67-.12s6.92-.13,8.49.44,2.95,1.44,5,1.69S415.2,169.63,414.24,169.16Z" fill="#201d16"/>
        <path d="M362,163.63c1.5,1.13,2,3.27.31,2.64A20.6,20.6,0,0,0,358,165a15.14,15.14,0,0,0-4.41-.45c-2.27,0-3-.13-4.9,0s-2.7-.26-4.27,0-2.33-1.12-.57-1.49,2.64-1.22,4.21-1c4,.46,5.5-.18,7.07-.18S362,163.63,362,163.63Z" fill="#201d16"/>
        <path d="M402.6,175.13c1.07.63,4.72,2.46,4.34,3.84s-2.33,2.78-5.28,3-6.39.69-8.86-.26c-2-.74-4.28-1.68-3.84-2.95s2.58-3.84,4.66-4S402.6,175.13,402.6,175.13Z" fill="#fae1d7"/>
        <path d="M363.37,175.39c-.71-1.92-3.51-2.83-6.21-3.4s-9.56.18-10,2.67,6.91,4.13,9.43,3.78S364.75,179.1,363.37,175.39Z" fill="#fae1d7"/>
        <path d="M370.55,172.12a13.9,13.9,0,0,0,.61,1.74,4.6,4.6,0,0,1,.13,2,11.21,11.21,0,0,1-.47,1.86c-.17.57-.31,1.15-.45,1.74-.83,2.24-1.52,4.57-2.2,6.89a29.38,29.38,0,0,1-1.2,3.57c-.52,1.18-1.09,2.23-1.58,3.32a33.63,33.63,0,0,0-1.33,3.28,35.32,35.32,0,0,0-.93,3.43,28.24,28.24,0,0,0-.55,3.46c0,.29,0,.56,0,.83a2.63,2.63,0,0,0,.06.6,2.1,2.1,0,0,0,.29.28c.21.17.43.34.67.5a31.55,31.55,0,0,0,3,1.86c.52.29,1.05.57,1.57.82a8.51,8.51,0,0,0,1.45.58h0a1.71,1.71,0,0,0,.27-.11,6.38,6.38,0,0,0,.69-.4c.48-.31,1-.66,1.47-1s1-.71,1.57-1a5.09,5.09,0,0,1,2-.81,11.46,11.46,0,0,1,3.89.48,10.88,10.88,0,0,1,3.39,1.59,12.49,12.49,0,0,0-3.55-.58,10.72,10.72,0,0,0-3.37.39c-.25.08-.47.12-.68.2a4.52,4.52,0,0,0-.68.36c-.48.29-1,.64-1.47,1s-1,.71-1.54,1.06a8.06,8.06,0,0,1-.89.51,4,4,0,0,1-.57.23,1.86,1.86,0,0,1-.88,0,8.12,8.12,0,0,1-1.94-.74c-.58-.27-1.13-.56-1.67-.86a35.89,35.89,0,0,1-3.2-2c-.26-.18-.52-.38-.79-.6a2.54,2.54,0,0,1-.86-1.11,4.41,4.41,0,0,1-.18-1.19c0-.34,0-.68,0-1a25.15,25.15,0,0,1,.59-3.74,35.83,35.83,0,0,1,1-3.62,37.18,37.18,0,0,1,1.41-3.48c.51-1.14,1.11-2.23,1.56-3.28a25.79,25.79,0,0,0,1.12-3.35c.69-2.34,1.4-4.68,2.23-7,.27-.57.57-1.12.88-1.67a17.25,17.25,0,0,0,.84-1.53,4,4,0,0,0,.33-1.64A15.61,15.61,0,0,1,370.55,172.12Z" fill="#d79f62"/>
        <path d="M359.49,198.14a8.4,8.4,0,0,0-.63,1.5A14.79,14.79,0,0,0,358,201a16.15,16.15,0,0,0-1.23,2.84,5,5,0,0,0-.26,1.44,1.57,1.57,0,0,0,.45,1.18,10,10,0,0,0,1,1.16,6,6,0,0,0,.42.65c.16.19.31.44.59.47a1,1,0,0,1-.88-.05,4.56,4.56,0,0,1-.8-.39,10.11,10.11,0,0,1-1.09-1.28,3.8,3.8,0,0,1-.47-.78,1.54,1.54,0,0,1-.13-.5,1.89,1.89,0,0,1,0-.47,6.25,6.25,0,0,1,.3-1.71,16.35,16.35,0,0,1,1.32-3c.26-.48.54-.94.85-1.41A4.64,4.64,0,0,1,359.49,198.14Z" fill="#be8257"/>
        <path d="M388.22,225.39c1.89-2.74-9.18-1.12-11.56-1.58a31.28,31.28,0,0,0-7.4-.14c-1.13.14-4.63-1.18-7.27-.92A14,14,0,0,0,356,224.4c-1.18.79,11.3,5.42,11.3,5.42l10.57-.86S387.62,226.27,388.22,225.39Z" fill="#9b643e"/>
        <path d="M385.77,226.3c-.2-.77-6.34-.53-8.52-.73a25.42,25.42,0,0,0-6.8.37c-1.32.36-3.83-.13-5.95-.44s-6.61-.14-6.74.4,4.71,2.57,6.5,3.5,10.47,1.63,13.85.82S386.25,228.09,385.77,226.3Z" fill="#bb784e"/>
        <path d="M397.27,182.21a4.72,4.72,0,0,1-2.9-4.35,4.65,4.65,0,0,1,1.26-3.18c2.83.08,7,.45,7,.45l.5.28a4.73,4.73,0,0,1,.7,2.45,4.68,4.68,0,0,1-2.4,4.08C400.1,182,398.67,182.17,397.27,182.21Z" fill="#191915"/>
        <path d="M357.16,172a14.65,14.65,0,0,1,4.66,1.64s0,.08,0,.13a5.15,5.15,0,0,1-2.62,4.57,25,25,0,0,0-2.62.11,6,6,0,0,1-1.16,0,5.1,5.1,0,0,1-2.92-4.72,5.37,5.37,0,0,1,.31-1.81A15,15,0,0,1,357.16,172Z" fill="#191915"/>
      </g>
    </g>
  </g>
  <g clip-path="url(#clip-path-5)">
    <g>
      <path d="M253.55-67.27c10.12,6.59,11.11,7.46,17,14.71s4.83,7.46,11,11.63S289-35,293.63-33.68s4.05,1.31,5.93,5.46,3.29,3.76-1.1,5.73-6.8,3.07-11.63,3.95S232.17,1.88,226.24,2.54s5,1.09-16,4.17a260.16,260.16,0,0,1-51.15,2.85C145,8.9,139.31,7.8,125.48,7.8s-23.19.66-32,.66S80.92,10.75,78.73,9.82c0,0-60.77,4.12-79.31,3.09s-46.7,1.38-54.94-3.43S2.16-4.67,2.16-26.16c0-4.46,9.61-17.38,18.17-31.26C25.65-66,57.56-88,57.56-88l13.28-7.3s42.8-14.67,61.8-14.94c9.93-.14,30.48-29.43,50-38.15,16.15-7.24,36.57,67.6,36.57,67.6Z" fill="#e4ab8d"/>
      <path d="M205-126.32c1.47,3.67,1.42,2.86,3.09,10.1s2.55,10.54,5.4,13.83,7.9,6.58,14.49,13.17,10.13,8.93,14.94,12.81S255.66-72.1,253-63.54,233.21-23.81,229.28-15.9,217-2.95,216.14,1s-1.25,2.56-1.25,2.56-36.95-29.43-51.54-31.25-8.45-15-8.45-15l30.76-38.64s9-5.37,9.73-9.91,8.14-18.19,8.19-21.7-1.38-9.28-1.32-12.87.61-8.64,1.32-8.86S205-126.32,205-126.32Z" fill="#daac3d"/>
    </g>
  </g>
  <g clip-path="url(#clip-path-6)">
    <g>
      <path d="M406.52-138.62c4,1.08.06-.88,10.66,5s20.81,8.18,24.34,12.53,9,15.73,14.13,21.62,4.58,6.73,14.78,15S477-74.91,485-66c9,10,15.77,39,28.73,44.9s19.62-8.52,26.69-2.63,11.38,3.92,18.84,13S575.77,15.55,584,25.76s19.23,25.9,19.23,25.9-480.26.59-479.67,0,37.29-53.38,54.56-64,27.48-19.63,40-23.55a167.38,167.38,0,0,1,24.34-5.53s-5.5-7,7.45-27.84,17.57-22,21.17-23,5.53.24,6.7-6,3.37-10.38,5.81-15.4,51.11-39.12,51.11-39.12Z" fill="#0b0b13"/>
      <path d="M399.25-124.88c6.16,1.08,12-.27,16.76,7.28s4.71,10.25,7.06,21.85,6.67,14,6.67,24.55,2.83,22.37,2.79,31.8.82,15.3,0,25.9,2.32,10.6-4.36,20-4.31,13.35-12.56,18.06-3.15,7.46-13.55,5.89-12.75-.79-18.64-5.5-10,3.14-13.05-10.2,1.2-11.39-.53-20-.15-5.5-6-16.88-4.71-12.31-7-16.1-2.93-1.53-5.52,8.14-12.15,8-12.16,20.52S342.31,31.64,327,32.82s-28.65,2.36-33-5.1-5.52-5.5-6.7-15.7-4.54-13.35-2.86-25.91,2.86-7.85,2.08-22-3.37-20.41-2.08-26.3,5.61-2,2.86-11.38-4.29-20.81-3.32-27.09,5.89-20.44,5.89-20.44l49.26-17.79Z" fill="#d8d0bb"/>
    </g>
  </g>
  <g clip-path="url(#clip-path-7)">
    <path d="M-191.89-71.33c9.3,1.57,3.21.3,26.81,5.88s21.83,3.16,31.22,8.05,11.42,5.66,19,11.75,8,5.24,14.47,12.94c8.37,10,1.36,7.19,15.07,14.05s12.08,4.73,26.8,10.57S-5.95,42.41-2.15,57.13,6.23,86.83,8.51,88.35s-310,0-310,0H-553a369.66,369.66,0,0,0,25.91-38.8c11.18-19.82,11.18-20.33,18.8-37.09s12.43-13.52,26.15-23.18,19.29-3.8,32.09-20.28C-438.8-45.51-420-61.43-413.85-63.94c13.2-5.39,22.52-11,33.13-15.06s35.55-12.23,35.55-12.23Z" fill="#b5afb1"/>
  </g>
</svg>
