<svg id="e25fcab3-3bc5-4362-a9ca-8991e080a071" data-name="Layer 1" xmlns="http://www.w3.org/2000/svg" xmlns:xlink="http://www.w3.org/1999/xlink" width="176.389mm" height="105.833mm" viewBox="0 0 500 300">
  <defs>
    <clipPath id="f345dc4e-7e4a-42c3-afd7-3f8103adca9b">
      <rect width="500" height="300" style="fill: none"/>
    </clipPath>
    <clipPath id="bd864acd-2bea-4408-87bb-fe0b8dd9c346">
      <rect x="-19.827" y="72.523" width="272.907" height="228.676" style="fill: none"/>
    </clipPath>
    <clipPath id="b6b67ea2-1cbe-4cff-b01e-63abf9e12d0d">
      <rect x="113.547" y="72.523" width="272.907" height="228.676" style="fill: none"/>
    </clipPath>
    <clipPath id="bf05edb1-639a-4d1e-ace7-5aadd1bdddd9">
      <rect x="275.056" y="72.523" width="272.907" height="228.676" style="fill: none"/>
    </clipPath>
  </defs>
  <title>pic-6</title>
  <g style="clip-path: url(#f345dc4e-7e4a-42c3-afd7-3f8103adca9b)">
    <g style="clip-path: url(#bd864acd-2bea-4408-87bb-fe0b8dd9c346)">
      <g>
        <path d="M285.92,337.092c-24.772-15.66-67.679-104.773-118.036-105.518s-152.822,7.52-194.677,80.411c-26.591,46.31-76.024,62.073,70.045,54.385S285.92,337.092,285.92,337.092Z" style="fill: #0e0c0c"/>
        <polygon points="172.082 275.836 131.411 297.369 133.255 268.096 166.828 266.638 172.082 275.836" style="fill: #896b69"/>
        <path d="M51.054,263.019c6.2-9.221,10.512-21.4,10.512-21.4,1.2,1.6,10.828,17.377,19.516,17.11s9.491-1.337,14.838-2.807,13.233-3.743,18.045-6.416,16.308-14.971,18.981-22.457c0,0,10.466-8.024,10.065-14.574-.061-.989-.2-2.052-.38-3.141a1.552,1.552,0,0,1,.923-.35c3.17,0,22.765,23.629,25.214,31.986s9.51,24.192,3.314,34.861c0,0-5.533.834-18.327-4.911,0,0-16.973,26.386-25.329,27.682s-11.527-3.313-14.7-4.61-16.713-9.71-20.459-10.618-13.358-3.79-17.918-1.917S59.266,290.4,55.52,290.827s-16.713-1.3-20.6-8.933-4.044-8.21-4.044-8.21h2.891C36.934,273.684,44.858,272.241,51.054,263.019Z" style="fill: #9e7e74"/>
        <path d="M70.537,83.56c-7.2.578-16.617-7.034-25.029,2.38s-26.64,14.221-27.841,22.033.8,20.23.4,27.24-6.209,16.425-6.209,25.638,4.807,18.027,2.6,30.045S7.251,206.92,5.849,214.932s-1.2,11.817,2.4,19.429a142.394,142.394,0,0,0,8.011,14.221c.4.8,4.407,24.036,12.018,26.439s18.428-.6,23.235-7.812,13.219-23.234,11.417-33.249-9.014-36.454-9.014-36.454L75.352,93.351Z" style="fill: #818181"/>
        <path d="M138.025,98.545c-4.595-5.05-14.938-15.99-26.72-17.463S69.736,78.369,60.224,90.14s-20.713,23.7-21.381,37.731.8,41.705,1.871,46.518,0,11.094.8,18.713.535,18.447,2.807,24.462,7.619,13.9,8.822,15.372,7.218,7.084,8.421,8.688S72.394,259,81.082,258.734s9.491-1.337,14.838-2.807,13.233-3.743,18.045-6.416,16.308-14.971,18.981-22.457c0,0,10.466-8.024,10.065-14.574s-4.183-16.17-.173-17.506,10.693-3.342,12.565-10.159,3.609-11.9,3.074-16.041-1.337-6.549-3.342-8.554S144.7,105.876,138.025,98.545Z" style="fill: #d89e79"/>
        <path d="M91.844,216.615c-2.414-3.5-7.5-2.808-13.329-2.734s-10.86-.822-10.73,2.056c.128,2.8,12.352,1.409,16.85,1.262A63.053,63.053,0,0,0,91.844,216.615Z" style="fill: #531514"/>
        <path d="M114.311,82.963c-26.54-5.235-1.5-4.033,7.711-5.235s14.822-3.405,18.627-3.405,18.027,6.209,19.229,11.016,3.605,13.22,7.611,19.229.6,11.817,7.411,18.427,12.619,5.408,15.022,12.018,5.809,14.422,3.205,19.83,4.407-4.407,3.2,12.618-1.4,11.818,1,22.434,1.2,13.219,1.4,22.233-.6,7.01-5.408,7.611-5.609-2.8-7.011,2.6-3.405,5.208-7.211,5.808-2-.2-5.608,3.2.4,4.607-6.61,3.405-5.608,1-10.816-1.4-6.209-4.807-7.811-10.816-2-9.214-4.808-10.616-6.313,1.641-5.836-.742-3.978-15.281-4.178-19.888.8-10.416,4.406-15.023,8.012-7.411,8.413-12.618,2.4,1.4.2-10.616-7.211-36.548-6.41-42.864S132.989,86.647,114.311,82.963Z" style="fill: #818181"/>
        <path d="M117.014,79.13c-5.608-1.8-15.423-5.007-21.832-4.807s-11.017,2.4-17.426,3.605S66.739,76.457,63.935,81.2s4.807,8.747,6.41,8.747,22.776,8.813,32.119,3.806S117.014,79.13,117.014,79.13Z" style="fill: #818181"/>
        <path d="M92.8,259.44c0,.4-4.052,20.493-6.12,20.091-3.119-.607,3-15.779,6.12-19.692" style="fill: #896b69"/>
        <path d="M118.923,152.884c-9.284-3.957-12.554-3.342-17.21-2.278s-11.824,4.752-9.3,6.349,4.176.171,6.27-.361a51.714,51.714,0,0,1,11.541-.932c4.39.133,9.383.954,11.778,1.042S120.086,153.38,118.923,152.884Z" style="fill: #271615"/>
        <path d="M66.512,155.708c1.25.793-.5,3.509-2.807,2.607s-7.118-1-11.328.4-5.414,3.108-6.617,2.406,2.206-5.013,6.316-6.353C55.031,153.806,58.292,150.5,66.512,155.708Z" style="fill: #271615"/>
        <path d="M107.779,161.225c-4.3-.144-7.954-.1-8.794,1.825S100.174,168,103.632,168s9.671-.264,11.977-1.578c.527-.3.042-1-.011-1.255C115.191,163.215,111.579,161.352,107.779,161.225Z" style="fill: #f5e0d7"/>
        <path d="M66.141,167.768c.986-.312,1.443-.822.787-1.71s-2.25-3.683-3.8-3.847a26.889,26.889,0,0,0-6.084.131c-1.562.3-4.866,1.414-5.8,2.5s-2.449,2.056-.871,2.615,4.406,1.447,6.116,1.331,7.794-.772,8.534-.789A2.549,2.549,0,0,0,66.141,167.768Z" style="fill: #f5e0d7"/>
        <path d="M66.654,187.923a25.246,25.246,0,0,0-2.452,4.155,12.387,12.387,0,0,0-.8,2.185,4.178,4.178,0,0,0-.128,1.045l.037,1.227a8.666,8.666,0,0,0,.249,2.219c.237.678.386.562,1.228,1.41.639.675,1.044,1.432,1.457,1.889.049.062.1.115.151.169s.108.1.095.123a.413.413,0,0,0,.237.2,4.034,4.034,0,0,0,1.139.239l.091.179a2.174,2.174,0,0,1-1.206.851,1.7,1.7,0,0,1-.95-.02,1.926,1.926,0,0,1-.421-.2c-.11-.069-.221-.141-.32-.217a22.067,22.067,0,0,1-1.767-1.773,12.283,12.283,0,0,1-.923-.915,3.226,3.226,0,0,1-.61-1.557,11.938,11.938,0,0,1,.064-2.649l.118-1.212a5.468,5.468,0,0,1,.31-1.349,11.339,11.339,0,0,1,1.148-2.282,22.362,22.362,0,0,1,3.1-3.852Z" style="fill: #b26040"/>
        <path d="M83.856,205.011c3.041-3.443,5.425-5.878,5.793-3.666s.369.959,2.36.59,1.475,2.581,3.392,1.4a7.915,7.915,0,0,0,3.224-2.894c1.348-1.751,3.339-3.963,2.675-2.267s-2.655,2.433-2.065,3.908-.105,2.949,2.2,1.622,1.416-.369,3.186-.148.664-.663,2.212-1.327,1.106-.441,2.655.7,1.475,2.027,2.728.994,3.687-4.129,3.318-1.475-1.332,4.04-.85,4.454,3.063-.914,1.219,1.519-2.8,3.171-.811,3.613,3.449.516,1.466,3.1-2.425,2.286-3.309,3.761.068,1.219-2.583,1.93-3.906,1.536-7.225-.455-3.124-3.978-4.813-4.056.315-1.18-3.077-.664-3.539,1.623-6.857.812-5.457-3.392-7.079-3.392-2.286,1.253-4.5,2.064-6.489-.073-8.332-.295-4.049-2.166-4.867.295-.369,4.941-2.433,5.236.958-.222-4.2-.664-3.171-.664-3.909-1.77a9.2,9.2,0,0,1-1.622-2.654c-.368-1.18,2.212.368.221-1.622s-2.064-.222-1.327-2.213.516-1.474.148-2.8.59-1.4,1.474-2.064,2.065-.074,1.328-1.254-1.106-1.473-.811-2.4,1.843-.259,2.728-1.365,1.4-4.5,2.728-2.36-.958,3.392,2.139,4.572,1.4.147,4.719,1.769,4.055,2.8,5.751,2.065,2.212-.959,4.867-2.286S82.76,206.252,83.856,205.011Z" style="fill: #818181"/>
        <path d="M91.986,216.116c1.124,1.617,1.144,3.954-3.059,4.4a76.731,76.731,0,0,1-13.112-.111c-3.171-.295-6.5-1.081-7.9-3.546-.653-1.149,10.482-1.059,14.505-1.451A33.3,33.3,0,0,1,91.986,216.116Z" style="fill: #b05a45"/>
        <path d="M87.511,223.614a2.526,2.526,0,0,1,1.549,3.761c-.59.958-1.033.811-.664,2.507s4.389,8.259,3.448,11.5a24.114,24.114,0,0,1-3.817,8.406c-1.843,2.36-3.794,4.352-2.876,6.489s-1.622-.442-2.285-.59-1.328-.811-1.328.737-.3,2.729-.885,1.18.093-3.834-.838-2.654-.12,3.539-1.595,1.474-1.253-4.645-2.36-3.244-.656,3.079-1.176,1.139-.151-1.8-.814-3.351-1.305-.443-2.349-2.433-3.108-.074-3.182-3.024-1.032-5.9-.074-7.742,1.844-.738,1.475-3.392.074-1.991.221-4.424-1.843-2.139-.737-4.13,1.917-1.032,1.991-2.212,3.392-3.76,3.392-3.76l12.757.884S86.488,223.34,87.511,223.614Z" style="fill: #818181"/>
        <path d="M59.635,162.116a28.774,28.774,0,0,1,3.5.095c1.546.164,3.14,2.959,3.8,3.847s.2,1.4-.787,1.71a2.549,2.549,0,0,1-1.118.23c-.55.012-4.043.378-6.507.613a3.647,3.647,0,0,1-1.762-2.949A4.089,4.089,0,0,1,59.635,162.116Z" style="fill: #1e1515"/>
        <path d="M107.881,161.231c3.762.158,7.313,2,7.717,3.938.053.257.538.955.011,1.255-1.545.88-4.842,1.288-7.89,1.462-1.838-.681-3.067-1.9-3.067-3.3C104.652,163.151,105.953,161.9,107.881,161.231Z" style="fill: #1e1515"/>
        <path d="M72.78,159.558c-.137,3.389.169,6.794.371,10.191a63.475,63.475,0,0,1-.076,10.271c-.074.856-.172,1.713-.309,2.576-.07.431-.157.865-.275,1.308a3.885,3.885,0,0,1-.63,1.316,33.419,33.419,0,0,0-2.739,4.207,8.576,8.576,0,0,0-1.148,4.535,19.748,19.748,0,0,0,.969,4.806,14.973,14.973,0,0,0,2.144,4.294,6.57,6.57,0,0,0,.751.817l.974.762a11.139,11.139,0,0,1,1.022.94c.315.322.61.666.816.83a.788.788,0,0,0,.58.192,6.37,6.37,0,0,0,1.079-.105,15.559,15.559,0,0,0,2.326-.5,5.551,5.551,0,0,0,1.908-.98,4.848,4.848,0,0,0,.738-.756,10.916,10.916,0,0,0,.666-.982,11.111,11.111,0,0,1,4.085-3.715,9.359,9.359,0,0,1,1.294-.543c.455-.157.9-.251,1.291-.35a7.917,7.917,0,0,0,2.165-.786,2.672,2.672,0,0,0,1.21-1.64,17.86,17.86,0,0,0,.494-2.414,12.929,12.929,0,0,0-.752-4.892l.186-.072a12.243,12.243,0,0,1,1.478,5.007,17.69,17.69,0,0,1-.28,2.632,3.975,3.975,0,0,1-1.535,2.52,8.1,8.1,0,0,1-2.525,1.183c-.43.139-.81.245-1.152.392a7.661,7.661,0,0,0-1.03.513,9.4,9.4,0,0,0-3.249,3.25,12.709,12.709,0,0,1-.754,1.14,6.91,6.91,0,0,1-1.028,1.082,7.588,7.588,0,0,1-2.582,1.391,15.122,15.122,0,0,1-2.671.537,8.07,8.07,0,0,1-1.464.093,2.82,2.82,0,0,1-1.76-.688,13.068,13.068,0,0,1-.945-1.019,9.406,9.406,0,0,0-.827-.82c-.141-.133-.3-.249-.45-.375l-.556-.478a8.374,8.374,0,0,1-.937-1.1,16.511,16.511,0,0,1-2.237-4.888,21.214,21.214,0,0,1-.89-5.217,9.935,9.935,0,0,1,1.45-5.212,34.3,34.3,0,0,1,2.953-4.268,2.628,2.628,0,0,0,.5-.958c.112-.377.206-.776.284-1.184.154-.815.275-1.649.372-2.487a62.7,62.7,0,0,0,.472-10.141c-.069-3.406-.243-6.819.028-10.237Z" style="fill: #b26040"/>
      </g>
    </g>
    <g style="clip-path: url(#b6b67ea2-1cbe-4cff-b01e-63abf9e12d0d)">
      <g>
        <path d="M201.759,257.015c-3.3,4.97-1.979,7.414-5.938,9.394s-2.859.92-8.137,2.659-7.038.86-10.337,5.038-5.277,8.577-8.357,13.2-1.76,1.759-10.337,7.258-11,5.5-14.295,8.8.439,2.419-6.818,6.378-.88,2.2-16.275,7.477-14.075,1.98-21.993,7.258-9.457,3.959-13.855,9.237S74.2,345.143,67.6,355.48,46.05,395.067,46.05,395.067H441.921s-8.137-32.11-25.952-46.625-19.133-15.615-27.051-16.934-7.038.219-17.154-9.457-22.653-21.333-28.811-21.553-3.739,1.979-8.357-1.98-5.059-3.739-9.677-7.477-6.6-2.639-12.536-7.258,7.044-2.331-13.234-11S201.759,257.015,201.759,257.015Z" style="fill: #431c1b"/>
        <path d="M102.03,352.483c4.384,2.392,3.986-18.333,10.362,1.2s10.761,35.471,11.16,24.311-3.986-15.543-1.993-23.115,4.783.98,12.754-9.075,7.572-10.846,10.362-15.831-2.391-20.529,4.782-7.377,12.356,8.37,13.551,16.739-.4,7.971-.4,20.326S164.6,385.164,166.2,376.4s.4-21.521.8-32.282,1.195-13.152,4.384-1.2,9.384,25.906,9.474,32.681,1.917,15.227,2.145.8,1.249-18.773,12.55-20.147,49.1,3.237,57.293,8.191c5,3.021-31.389-60.373-60.28-96.686a41.072,41.072,0,0,0-4.876,1.314c-5.279,1.739-7.038.859-10.337,5.038-.234.3-.448.6-.669.894h0c-2.461,3.317-4.223,6.77-6.446,10.359-.051.084-.1.166-.152.249-.35.562-.711,1.126-1.09,1.694-1.539,2.309-1.98,2.749-3.107,3.3-.141.069-.292.139-.458.215a40.577,40.577,0,0,0-3.992,2.043c-.79.456-1.708,1.013-2.78,1.7-5.361,3.436-8.316,4.725-10.584,6.013a16.142,16.142,0,0,0-3.711,2.784,7.959,7.959,0,0,0-1.344,1.659,4.783,4.783,0,0,0-.3.628c-.037.093-.071.182-.106.269a2.666,2.666,0,0,1-.753,1.088,8.326,8.326,0,0,1-.946.736c-.207.142-.441.295-.708.462-.666.417-1.531.917-2.665,1.535s-1.935,1.1-2.539,1.486c-.482.31-.838.563-1.137.781l-.413.307c-.129.1-.253.187-.379.275s-.256.176-.4.263c-1.2.744-3.231,1.562-11.41,4.366-15.395,5.278-14.075,1.979-21.993,7.258-1.484.989-2.745,1.747-3.842,2.36-.731.409-1.39.752-1.994,1.058s-1.153.572-1.667.826c-.769.381-1.457.733-2.123,1.142-.222.137-.442.28-.661.433a13.63,13.63,0,0,0-1.335,1.058,22.122,22.122,0,0,0-2.233,2.36c-1.375,1.649-2.986,3.385-4.752,5.307q-1.061,1.152-2.19,2.4c-1.5,1.67-3.084,3.485-4.7,5.5-1.215,1.508-2.45,3.128-3.69,4.88q-.619.876-1.24,1.8T67.6,355.48c-1.444,2.261-3.287,5.427-5.286,8.994q-.429.765-.866,1.552c-.582,1.049-1.174,2.125-1.771,3.216s-1.2,2.2-1.8,3.306c-1.2,2.218-2.391,4.45-3.532,6.6-4.564,8.6-8.3,15.917-8.3,15.917H65.364c1.992-10.7,8.369-14.685,17.536-27.04S97.646,350.092,102.03,352.483Z" style="fill: #281715"/>
        <path d="M258.814,394.066,243.985,286.642l-37.651-29.184c-2.9-.289-4.575-.443-4.575-.443-3.3,4.97-1.979,7.414-5.938,9.394-3.568,1.783-3.042,1.106-6.763,2.226l-.935,3.052c-3.3,9.237-8.357,20.233-7.037,32.989s-.43,20.234-.215,35.189,1.094,26.391,10.331,35.628c5.385,5.385,10.993,13.084,15.78,19.574H256.5C257.956,394.446,258.814,394.066,258.814,394.066Z" style="fill: #433228"/>
        <path d="M292.01,277.524c.52,1.517,4.206,2.52,11.63,13.517s13.142,7.477,12.262,19.133-.44,18.035-3.739,27.492-5.278,10.336-6.6,19.353,1.1,12.756-5.278,23.533-21.993,26.611-22.873,33.209-7.917-92.81-7.917-92.81Z" style="fill: #433228"/>
        <path d="M223.357,276.359c3.464,2.258,12.573,25.526,12.573,25.526l37.317.329,25.9-40.938-5.432-42.9-75.238,48.279Z" style="fill: #d39f6e"/>
        <path d="M290.013,226.408a9.683,9.683,0,0,1,2.72-1.164c-1.83-2.618-1.532-3.761-.174-8.83,1.408-5.254,6.3-8.917,8.623-17.163s4.123-7.214,2.319-15.975-3.092-13.142-9.276-19.326-11.338-3.865-14.172-11.595-3.35-6.442-5.153-14.945-.516-13.4-8.5-16.233-16.276-3.35-26.433-5.154-19.432-1.8-25.616,2.577-11.6,4.9-15.461,10.822-13.356,6.3-14.129,13.258c-.386,3.467-3.4,18.07-2.422,26.05.987,8.033,7.661,14.144,7.79,18.926.258,9.534,5.927,14.945.773,19.583-1.494,1.345-2.632,2.382-3.483,3.277,1.929,5.369,5.085,12.025,6.832,16.057,2.15,4.962,0,11.909,0,16.54a23.606,23.606,0,0,0,5.458,14.225c3.474,4.3,2.481,3.142,3.474,6.45s3.8,6.616,5.954,9.428,7.774,3.639,14.224,3.143,3.474-1.985,8.932-3.97,9.1-2.481,16.871-4.8,7.939-4.465,13.562-8.1,9.924-7.774,13.232-10.42,6.616-8.436,7.609-10.751S287.863,227.9,290.013,226.408Z" style="fill: #eec184"/>
        <path d="M175.18,149.778c1.031-9.791-1.546-17.264,4.638-22.932s7.215-15.461,14.172-23.964,7.215-12.368,15.461-18.552,8.761-11.6,17.521-9.534,7.988,4.895,15.718,4.895,18.553-5.926,25.51-4.895,25.252,3.865,32.209,15.718.773,12.626,13.141,17.264,18.81,0,23.448,11.6,4.9,16.491,9.277,29.117,1.8,12.368,0,25.51.515,12.883-1.546,20.871-6.442,6.957-4.123,15.46,5.411,9.019,4.123,14.688.773,13.141-5.669,17.779-5.669,1.288-2.062,8.5,2.577,13.657-2.834,18.81-9.791,10.822-13.657,10.822-11.079,2.577-15.718,0-8.245.258-10.564-4.38-4.378-1.693-6.441-5.742-3.093-2.5-2.062-7.915,1.03-4.638,1.03-13.914-.773-8.761,2.319-14.172,5.927-6.442,3.866-9.276-1.786-3.865-.378-9.12,6.3-8.917,8.623-17.163,4.123-7.214,2.319-15.975-3.092-13.142-9.276-19.326-11.338-3.865-14.172-11.595-3.35-6.442-5.154-14.945-.515-13.4-8.5-16.233-16.276-3.35-26.433-5.154-19.432-1.8-25.616,2.577-11.6,4.9-15.461,10.822-10.626,8.876-11.4,15.833c-.279,2.511-2.053,14.972-1.63,20.76.75,10.248,4.1,15.548,4.268,21.641.258,9.534,5.927,14.945.773,19.583s-6.184,5.669-5.153,9.534-3.35-7.215-8.246-11.08-7.472-5.411-7.73-14.687-2.319-5.927,1.546-14.945,7.988-10.049,5.927-15.46A34.192,34.192,0,0,1,175.18,149.778Z" style="fill: #d1b077"/>
        <path d="M237.2,160.331c-3.045.313-8.231,4.39-4.06,4.281s9.373-2.219,15.958-.243,9.12,1.748,10.876,3.284,1.974-2.729-2.91-4.266S253.228,158.685,237.2,160.331Z" style="fill: #d1b077"/>
        <path d="M199.838,159.876c7.463-.165,13.228,2.523,12.728,4.095s-2.36.606-5.071.6-5.23-1.267-8.408-.982-12.521,3.816-11.824,1.142S194.723,159.99,199.838,159.876Z" style="fill: #d1b077"/>
        <path d="M243.291,177.024c3.529-1.938,9.9-1.246,11.348,0s7.335,4.5,5.605,5.466a45.142,45.142,0,0,1-11.625,3.737c-2.385.39-9.49-2.278-9.549-3.668C238.932,179.307,243.291,177.024,243.291,177.024Z" style="fill: #f5e0d7"/>
        <path d="M191.356,179.307c1.623-2.685,5.812-4.221,8.234-4.221s9.479,2.215,9.9,3.668,1.453,3.39-1.246,4.29-12.009,2.385-14.185,1.453C192.6,183.874,189.557,182.282,191.356,179.307Z" style="fill: #f5e0d7"/>
        <path d="M209.5,237.432c-.287-2.025,2.874-3.992,4.766-4.744s2.367,1.1,4.885.588,2.54-2.138,5.66-.7,3.551,2.018,7.6,3.667,8.2,1.829,7.555,3.067,2.653,1.512-8.519.865-16.87.274-18.457-1S209.864,240.036,209.5,237.432Z" style="fill: #c05c2e"/>
        <path d="M210.8,237.331c-.709.08-2,.038-1.786,1.824s.428,2.776,2.807,2.951c4.4.322,5.6-.861,11.037-.042s8.944,1.162,11.688.668,5.678-.644,5.168-1.759-2.45-2.5-7.841-3.137-6.405-.79-9.565-.97-2.222-1-6.01-.461S210.8,237.331,210.8,237.331Z" style="fill: #993329"/>
        <path d="M219.461,166.7a18.574,18.574,0,0,0-.305,5.918,15.008,15.008,0,0,1,.127,2.987l-.043.773-.026.4a4.221,4.221,0,0,1-.071.526,9.284,9.284,0,0,1-.555,1.664c-.851,1.959-1.838,3.693-2.767,5.471a40.417,40.417,0,0,0-2.464,5.261,4.81,4.81,0,0,0-.269,1.177q-.052.691-.063,1.422c-.016.972,0,1.971,0,2.985s0,2.047-.088,3.118a7.547,7.547,0,0,1-.95,3.454,55.325,55.325,0,0,0-2.718,5.188c-.419.894-.827,1.8-1.195,2.693a9.073,9.073,0,0,0-.433,1.23,10.112,10.112,0,0,0-.194,1.321,24.5,24.5,0,0,0,.187,5.682,6.455,6.455,0,0,0,.3,1.195.922.922,0,0,0,.071.149l.2.316.4.654a8.315,8.315,0,0,0,1.582,2.053,1.76,1.76,0,0,0,1.692.452,12.687,12.687,0,0,0,1.249-.456l1.354-.579c1.818-.8,3.654-1.656,5.543-2.434.947-.388,1.905-.763,2.907-1.09a12.96,12.96,0,0,1,3.268-.707,11.576,11.576,0,0,1,1.694.119c.5.056,1,.119,1.457.155a6.6,6.6,0,0,0,1.286-.009,4.7,4.7,0,0,0,1.029-.17,2.425,2.425,0,0,0,.9-.566,8.259,8.259,0,0,0,.894-1.069c.678-.848,1.432-1.535,2.013-2.248a2.629,2.629,0,0,0,.672-2.409,7.212,7.212,0,0,0-1.369-2.58,7.511,7.511,0,0,1,2,2.362,3.144,3.144,0,0,1,.3,1.678,4.484,4.484,0,0,1-.529,1.628c-.512.973-1.128,1.771-1.568,2.592a9.862,9.862,0,0,1-.816,1.406,4.681,4.681,0,0,1-1.426,1.313,4.526,4.526,0,0,1-1.859.608,10.277,10.277,0,0,1-1.721-.044c-.54-.043-1.043-.108-1.538-.164a10.119,10.119,0,0,0-1.306-.1,10.774,10.774,0,0,0-2.6.586c-.908.3-1.821.652-2.731,1.025-1.825.751-3.634,1.589-5.487,2.41l-1.415.6a13.7,13.7,0,0,1-1.583.565,4.211,4.211,0,0,1-2.116,0,4.669,4.669,0,0,1-1.794-.963,10.567,10.567,0,0,1-2.113-2.669l-.385-.632-.2-.32a3.324,3.324,0,0,1-.262-.526,8.6,8.6,0,0,1-.45-1.715,26.763,26.763,0,0,1-.213-6.33,12.706,12.706,0,0,1,.248-1.656,11.17,11.17,0,0,1,.554-1.611c.395-.962.814-1.889,1.247-2.813a57.074,57.074,0,0,1,2.876-5.474,5.356,5.356,0,0,0,.564-2.313c.075-.931.082-1.91.079-2.9s-.021-2,0-3.039c.007-.517.029-1.045.071-1.585a7.307,7.307,0,0,1,.386-1.755,42.2,42.2,0,0,1,2.628-5.643c.932-1.779,1.925-3.546,2.673-5.274a7.186,7.186,0,0,0,.408-1.183,1.672,1.672,0,0,0,.029-.221l.023-.353c.011-.243.028-.482.027-.732a11.911,11.911,0,0,1,.407-3.029A15.087,15.087,0,0,1,219.461,166.7Z" style="fill: #e7ac78"/>
        <path d="M286.65,257.015c-5.2,4.519-5.7,5.024-9.737,9.059s-6.052,4.539-7.565,8.069-.5,3.363-4.539,5.044a49.417,49.417,0,0,0-10.592,6.557c-2.858,2.185-4.371,2.689-4.371,6.22s.172,5.109-1.176,7.565-4.035,7.566-2.354,11.1,2.607,7.4,4.414,6.052,1.638-4.707,4.16-1.681,5.38,6.389,5.548,8.07-.336,2.522-.5,8.574,0,12.777,0,12.777-5.211-6.389-5.716-11.936-.088-9.728-.744-12.176-3.627-20.944-9.679-25.483-6.22-2.858-8.742-5.716-2.136-5-5.548-7.027-6.919-4.17-4.8,0,3.963,1.479,2.114,4.169-7.9-.5-5.212,4.539,3.195,7.4,4.708,12.777-.941,4.722,2.3,8.329.891,2.6-.622,3.439-2.186-1.176-.673,3.363,1.85,2.69,2.858,9.414,1.85,10.424,4.54,16.308,1.345,4.875,3.7,10.928,2.522,7.061,5.044,10.087,16.98,32.783,19.5,35.809-1.177,2.354,3.7-5.212,11.264-14.794,13.45-28.244,1.988-10.927,6.542-23.032,6.067-19.5,10.606-26.226,8.238-4.035,5.38-14.122-3.7-7.734-7.4-17.821-4.217-12.023-5.007-14.972S286.65,257.015,286.65,257.015Z" style="fill: #dfc3a2"/>
        <path d="M195.963,175.859a6.818,6.818,0,0,0-.416,2.355c0,3.2,2.137,5.787,4.773,5.787s4.774-2.591,4.774-5.787a6.88,6.88,0,0,0-.3-2,20.541,20.541,0,0,0-5.2-1.125A10.688,10.688,0,0,0,195.963,175.859Z" style="fill: #683e41"/>
        <path d="M252.84,179.566a7.537,7.537,0,0,0-.83-3.494c-2.518-.454-6.107-.368-8.516.854a7.733,7.733,0,0,0-.459,2.64c0,3.468,2.195,6.279,4.9,6.279S252.84,183.034,252.84,179.566Z" style="fill: #683e41"/>
        <path d="M348.687,329.969c2.835,6.174-.752,7.37,4.031,19.326s12.355,21.123,14.746,28.3c1.751,5.251,2.653,10.534,4.883,17.274h23.409c.005-1.638.005-3.392.005-5.318,0-10.76-.8-21.123-2.79-23.913s-11.159-21.772-9.565-14.273,0,17.86,1.594,21.447,4.384,19.529-2.79-1.2-9.166-10.578-13.949-25.814.4-8.063-4.782-23.606c-3.735-11.2-8.758-13.3-12-17.772-3.377-2.339-6.349-3.847-8.524-3.924-6.158-.22-3.739,1.979-8.357-1.98s-5.059-3.739-9.677-7.477-6.6-2.639-12.536-7.258c-1.978-1.538-1.856-2.31-1.564-2.975l-2.741,1.148c-.4,7.556,13.553,21.506,21.922,27.484S345.852,323.8,348.687,329.969Z" style="fill: #281715"/>
      </g>
    </g>
    <g style="clip-path: url(#bf05edb1-639a-4d1e-ace7-5aadd1bdddd9)">
      <g>
        <path d="M456.214,251.328c1.26-.337,18.706,2.909,25.122,7.721s39.031,29.407,45.447,35.824,15.239,17.377,15.239,17.377H284.574S298.586,293.536,302.14,293s4.623,1.337,10.5-2.941,22.227-9,22.227-9l86.312-33.241Z" style="fill: #8e5f33"/>
        <path d="M302.14,293c3.554-.535,4.623,1.337,10.5-2.941s22.227-9,22.227-9l12.6-4.855,4.189,3.209,3.874,31.725-2.1,1.109H325.061c.307-.554.7-1.162,1.163-1.947a24.99,24.99,0,0,1,3.839-4.607c1.639-1.78.977-3.769,1.92-5.654s2.512-5.758,2.3-8.48-1.361-1.152-2.3-1.152-2.827,3.455-5.55,8.795c-2.16,4.237-5.7,9.523-7.8,13.045h-9.388c.7-1.938,1.987-3.108,2.847-5.4.943-2.513-1.465.209-5.13.838s-3.769,2.827-5.968,4.564H284.574S298.586,293.536,302.14,293Z" style="fill: #553229"/>
        <path d="M355.174,296.227l40.043-7.032,5.905,1.889.7,2.6-.255.782a2.428,2.428,0,0,0,.255-.782,3.107,3.107,0,0,1-.128,1.58,12.379,12.379,0,0,1-.551,1.488,24.16,24.16,0,0,1-1.488,2.761,42.8,42.8,0,0,1-3.682,5.013,43.824,43.824,0,0,1-4.35,4.44,26.439,26.439,0,0,1-2.461,1.934,7.836,7.836,0,0,1-2.835,1.353,6.2,6.2,0,0,0,.764-.564l-.764.564H349.7Z" style="fill: #73553e"/>
        <path d="M509.975,306.743a43.06,43.06,0,0,1-5.34-6.387c-2.513-3.455-3.769-3.141-8.062-6.675s-4.083-3.376-8.795-8.925-9.528-5.968-16.647-9.737-9.738-6.073-15.392-9.214a68.336,68.336,0,0,0-14.762-6.6c-6.911-2.3-7.734-1.361-7.106-2.3l-1.9-.974,4.111-6.618,20.131,2.015c1.26-.337,18.706,2.909,25.122,7.721s39.031,29.407,45.447,35.824,15.239,17.377,15.239,17.377H520.668s-1.794-.481-4.307-.9S511.859,308.628,509.975,306.743Z" style="fill: #553229"/>
        <path d="M434.213,255.931c-.752,2.808-11.335,24.81-15.4,27.59s-12.405,8.128-16.255,9.839-10.266,3.85-16.041,6.416-8.127,3.85-16.469,5.775-17.752,2.994-19.249,6.2-16.255,32.937-16.255,32.937-3.85-6.416-3.85-12.4-1.069-8.127-.427-14.116a16.223,16.223,0,0,1,4.705-9.625s-4.278-2.352,0-7.058,6.416-4.705,7.058-8.555-1.065-1.671-4.278-3.85-4.277-4.277-3.849-6.2.641-1.5,3.422-3.422,7.058-5.133,8.341-7.058a6.142,6.142,0,0,1,3.186-2.435,19.71,19.71,0,0,1,0-9.713,31.874,31.874,0,0,1,5.155-10.31l81.829-44.257Z" style="fill: #eddeda"/>
        <path d="M432.369,213.033c-1.578,8.891-11.416,29.851-18.046,33.273S388.015,258.711,380.316,260s-26.735-2.567-28.874-4.064-8.69-9.412-11.122-16.683-9.62-9.2-9.62-9.2l-9.415-59.031,23.1-69.3,87.985,5.989,17.244,92.61Z" style="fill: #e1b89d"/>
        <path d="M439.133,92.312c4.063,1.284,10.694,4.92,14.544,9.625s3.422,5.561,6.2,10.48,4.064,7.486,5.347,9.411,3.636,2.994,5.561,7.058,5.191,5.989,1.925,11.122c0,0-4.457,5.94-2.229,8.317s6.506-2.329,7.362,5.585.214,12.191-.642,14.758-1.283,1.711,0,6.63,2.733,8.983,1.046,12.191-4.682,4.064-4.468,8.341,5.347,7.7.856,14.117-6.675,3.5-6.088,6.844,1.169,4.919-.543,8.555-2.78.642-2.566,6.416,2.78,3.636.428,7.486-2.139,4.278-2.139,6.631-5.989,5.774-11.122,6.416.642-.214-7.058,1.711-7.486,1.925-11.336,1.925-5.347-5.347-4.491-9.839,3.208-3.41.855-8.341-2.819-.214-1.088-6.416,3.441-9.411,3.013-13.9.856-2.138-1.711-9.838-3.85-2.139-3.85-14.116.428-21.6,1.07-25.452c0,0-3.422-7.486-3.422-12.833s.428-6.63,2.139-11.122,3.636-3.849,2.352-8.983-.641-8.555-2.566-11.549.214-4.919-5.133-8.128-8.128-3.849-13.047-3.849-.856-2.353-9.411-1.5-6.844,1.5-12.833,2.139-7.485,1.925-10.48.856a42.808,42.808,0,0,0-13.26-2.139c-5.134,0-8.128-1.5-11.122.856s-5.561,4.919-6.844,7.485-3.636,3.636-4.706,7.914-1.711,5.347-1.711,8.769.214,5.989-1.925,11.122-1.5,11.763-2.78,14.758-1.283,4.491-1.925,8.982a60.97,60.97,0,0,0-.642,8.983c0,1.284.428,7.914,0,10.908s.864,7.813,2.2,12.816-.707,10.925.363,15.417,7.7,20.318,7.058,20.318-2.139,0-6.844-3.208-6.844-3.208-6.844-7.058S320,223.849,320,223.849c-1.961-7.32-4.919-9.839-6.416-12.619s-2.781-3.208-2.781-5.989.118-2.342-.524-4.737,4.4-.182,0-3.6-5.464-4.064-6.534-7.272-2.352-2.78-1.069-6.2a17.741,17.741,0,0,1,3.422-5.988c.642-.642,1.66,2.981,2.353-3.315s-.554-8.013,1.755-10.262,5.3-.967,5.3-3.534-1.5-2.994,0-5.774,2.566-1.711,2.566-4.064-.641-3.208,0-5.775,2.781-3.422,2.781-5.133a29.548,29.548,0,0,1,0-6.2c.428-2.78.214-.427,1.283-4.705s1.283-4.064,1.283-6.416a17.24,17.24,0,0,1,.714-5.015c.335-1.251-.286-.332,1-4.4s1.91-.642,2.88-4.492-2.024-.213,3.109-7.271,8.128-5.561,10.052-8.77,9.839-9.838,13.047-10.48,5.347-2.352,9.625-3.636,6.63-3.422,9.411-2.566a23.557,23.557,0,0,0,8.982,1.5c4.706,0,8.77-2.532,13.047-1.694s5.989-.017,12.833,2.336,6.63,2.352,10.266,3.636A55.366,55.366,0,0,1,427.8,85.9c2.567,1.5,5.133,2.78,6.416,3.422S439.133,92.312,439.133,92.312Z" style="fill: #b8a8a3"/>
        <path d="M413.876,163.137a35.249,35.249,0,0,0-9.536-3.288,57.378,57.378,0,0,0-9.075-1.184c-3.288-.2-9.4-.657-11.376,0s-4.209,1.447-2.367,2.236a24.193,24.193,0,0,0,7.957,1.249c1.775-.131,5.195-.131,8.022-.131s7.234-.132,8.878.46,3.091,1.513,5.195,1.776S414.882,163.62,413.876,163.137Z" style="fill: #211f18"/>
        <path d="M359.229,157.35c1.578,1.184,2.1,3.419.329,2.762a21.151,21.151,0,0,0-4.472-1.315,15.686,15.686,0,0,0-4.6-.473c-2.377,0-3.157-.144-5.13,0s-2.827-.276-4.471,0-2.433-1.171-.592-1.566,2.762-1.269,4.4-1.08c4.179.482,5.758-.189,7.4-.189S359.229,157.35,359.229,157.35Z" style="fill: #211f18"/>
        <path d="M401.708,169.375c1.118.658,4.934,2.574,4.539,4.02s-2.445,2.908-5.523,3.091c-2.966.176-6.691.722-9.273-.263-2.045-.78-4.471-1.765-4.011-3.085s2.7-4.017,4.866-4.214S401.708,169.375,401.708,169.375Z" style="fill: #f5e0d7"/>
        <path d="M360.671,169.647c-.747-2.009-3.678-2.959-6.506-3.551s-10,.188-10.456,2.79,7.234,4.322,9.864,3.955S362.113,173.527,360.671,169.647Z" style="fill: #f5e0d7"/>
        <path d="M368.172,166.228a16.379,16.379,0,0,0,.644,1.826,4.907,4.907,0,0,1,.14,2.075,12.211,12.211,0,0,1-.5,1.949c-.172.6-.318,1.206-.471,1.814-.865,2.347-1.582,4.781-2.3,7.214a29.1,29.1,0,0,1-1.253,3.734c-.539,1.235-1.141,2.333-1.651,3.468a35.3,35.3,0,0,0-1.392,3.435,36.528,36.528,0,0,0-.968,3.585,26.924,26.924,0,0,0-.574,3.627c-.026.3-.031.582-.031.86a3.038,3.038,0,0,0,.073.633,1.712,1.712,0,0,0,.3.29c.215.175.447.354.7.527a35.469,35.469,0,0,0,3.152,1.946c.543.3,1.093.591,1.643.853a8.647,8.647,0,0,0,1.516.61c0-.006,0,0,0,.011.008-.012.006-.008.024-.008a2.373,2.373,0,0,0,.282-.12,7.682,7.682,0,0,0,.723-.417c.5-.324,1.016-.69,1.538-1.057s1.054-.743,1.64-1.1a9.422,9.422,0,0,1,.97-.519,3.305,3.305,0,0,1,1.12-.325,12.049,12.049,0,0,1,4.069.5,11.347,11.347,0,0,1,3.548,1.666,12.623,12.623,0,0,0-3.71-.6,11.121,11.121,0,0,0-3.534.4c-.257.083-.492.13-.708.213a4.724,4.724,0,0,0-.715.374c-.5.306-1.012.666-1.529,1.029s-1.043.739-1.61,1.105a9.408,9.408,0,0,1-.932.534,4.152,4.152,0,0,1-.6.241,3.853,3.853,0,0,1-.445.081,3.318,3.318,0,0,1-.476-.037,6.4,6.4,0,0,1-1.113-.359c-.313-.134-.625-.271-.921-.416-.6-.286-1.175-.591-1.746-.907a37.04,37.04,0,0,1-3.342-2.066c-.274-.19-.547-.4-.826-.627a2.673,2.673,0,0,1-.9-1.158,4.539,4.539,0,0,1-.184-1.251c0-.359.006-.711.035-1.047a28.773,28.773,0,0,1,.615-3.912,38.51,38.51,0,0,1,1.024-3.785,37.146,37.146,0,0,1,1.472-3.641c.536-1.187,1.155-2.328,1.634-3.428a27.241,27.241,0,0,0,1.169-3.5c.717-2.45,1.46-4.9,2.327-7.342.284-.587.6-1.165.921-1.741a14.577,14.577,0,0,0,.88-1.605,4.086,4.086,0,0,0,.348-1.71A15.834,15.834,0,0,1,368.172,166.228Z" style="fill: #d8a062"/>
        <path d="M356.606,193.452a9.153,9.153,0,0,0-.66,1.563,14.674,14.674,0,0,0-.851,1.388,16.466,16.466,0,0,0-1.3,2.975,5.5,5.5,0,0,0-.271,1.5,1.681,1.681,0,0,0,.472,1.236,9.682,9.682,0,0,0,1.028,1.216,5.932,5.932,0,0,0,.44.683c.17.2.325.457.611.483-.276.181-.642.044-.921-.045a5.337,5.337,0,0,1-.831-.408,10.643,10.643,0,0,1-1.137-1.342,3.67,3.67,0,0,1-.494-.816,1.582,1.582,0,0,1-.136-.517,1.8,1.8,0,0,1-.032-.5,6.46,6.46,0,0,1,.314-1.787,17.375,17.375,0,0,1,1.375-3.168c.275-.5.575-.992.894-1.476A4.791,4.791,0,0,1,356.606,193.452Z" style="fill: #bd8157"/>
        <path d="M386.66,221.955c1.982-2.871-9.606-1.175-12.094-1.658a32.953,32.953,0,0,0-7.74-.139c-1.175.139-4.838-1.244-7.6-.967a14.607,14.607,0,0,0-6.22,1.728c-1.244.829,11.818,5.667,11.818,5.667l11.058-.9S386.029,222.87,386.66,221.955Z" style="fill: #9c653f"/>
        <path d="M384.1,222.906c-.215-.8-6.634-.553-8.915-.76a26.568,26.568,0,0,0-7.118.38c-1.383.38-4.009-.13-6.22-.462s-6.912-.138-7.05.421,4.927,2.692,6.793,3.659,10.96,1.71,14.493.858C379.692,226.132,384.606,224.781,384.1,222.906Z" style="fill: #bb784e"/>
        <path d="M396.126,176.783a4.91,4.91,0,0,1-1.717-7.879c2.965.083,7.3.471,7.3.471.135.08.311.179.513.292a4.87,4.87,0,0,1-1.773,6.838C399.09,176.594,397.6,176.741,396.126,176.783Z" style="fill: #1c1c18"/>
        <path d="M354.165,166.1a15.179,15.179,0,0,1,4.88,1.712c0,.045.006.088.006.133a5.387,5.387,0,0,1-2.739,4.786,26.367,26.367,0,0,0-2.739.114,7.048,7.048,0,0,1-1.215.041,5.345,5.345,0,0,1-3.052-4.941,5.752,5.752,0,0,1,.322-1.894A15.677,15.677,0,0,1,354.165,166.1Z" style="fill: #1c1c18"/>
      </g>
    </g>
  </g>
</svg>
