<svg id="Layer_1" data-name="Layer 1" xmlns="http://www.w3.org/2000/svg" xmlns:xlink="http://www.w3.org/1999/xlink" viewBox="0 0 500 300">
  <defs>
    <clipPath id="clip-path">
      <rect x="73.28" y="3.85" width="353.44" height="296.15" fill="none"/>
    </clipPath>
    <clipPath id="clip-path-2">
      <rect x="-422.45" width="358.03" height="300" fill="none"/>
    </clipPath>
  </defs>
  <title>pic-2</title>
  <g clip-path="url(#clip-path)">
    <g>
      <path d="M381.66,248.89s.68.31,1.82.8c4.33,1.88,15.3,6.44,21.64,7.3,8,1.1,12.16-2,22.37,4.16s32.74,19.2,37.12,24.67S480.67,305.9,484,311s6.93,19.35,6.93,19.35h-339l-13.47-50.28,144.48-89.86,96,41.6" fill="#ab8c77"/>
      <path d="M122.3,221.59c-6.57,4-1.1,5.48-6.21,8.4s-16-.37-16-.37-3.65-8.16-11,1.58S80.33,244.59,76,245.32s-5.11-3.65-15-2.56-8.4,0-15.33,4.38S43.11,249,31.06,257s-16.42,9.86-20.8,13.14-1.09,4-8.76,10.22-28.83,20.07-33.94,23-17.15,9.12-22.62,13.87A79.2,79.2,0,0,0-63.82,326H160.47l37.37-44.16L150.4,216.49Z" fill="#be6442"/>
      <path d="M265.56,14.92c-27.66-4-36.68-1.85-48.06,0s-44.73,14.8-51,30.88-14.26,52.05-11.77,64S175.12,264,175.12,264l143.61-66.7,6.28-102L282.24,20.3Z" fill="#cca07d"/>
      <path d="M265.56,14.92c11.13,0,4.33-9.27,22.87,0s25.35,9.89,34.62,22.87,16.7,2.48,18.55,16.7,1.86,9.89,3.71,24.11,1.85-3.09,1.85,17.93-5.56,13.6,0,21,8.66,6.18,11.13,16.07,9.28,10.51,13,20.4-8,8.65,0,17.31A63.91,63.91,0,0,1,383,189.88s-14.84.62-8.65,8.65S388,215.22,388,215.22s6.8,9.9,8,13.61,6.8,6.18-2.47,11.12-9.27-3.09-9.27,5-14.84,3.71-20.4,0-2.48,1.26-5.57,4.55,3.42,8.82-15.08-4.22-20.79-22.37-26-15.06-10.81,9-7.1,19.28,4.33,7.81,8,14.61,15.45,9.9,3.71,17.93-13.6,10.51-17.31,11.13S287.82,277.05,286,275.81s-8.9-.89-5.38,11.92,9,12.21,1.05,19-17.93,8-12.36,14.22,11.13,1.24,1.85,9.89-16.69-2.47-22.25,8.66-5,11.74-6.19,15.45,0,17.31-5.56,0,3.09-17.31-5.56-17.31-9.82,2.82-16.66-4.46-9.93-7.9-7.45-17.79,2.47-13.6,2.47-13.6l-7.7,2.06s-1-3.92-3.43,4.74-1.24,5.56-3.71,13-4.94,6.18-7.42,11.13a21.34,21.34,0,0,0-2.47,8.65s-4.1,4.55-7.42,1.86-1.12-2.44-5.2-8.95-4.69-7.13-9-7.74-7.42,2.47-6.18-7.42,8-13,6.18-14.84.59,2.31-1.85-4.33a18,18,0,0,1,0-12.36L156,280.93l-4.34-16.19c-1.05-3.93-4.75,4.89-4.75-5.62s5.56-11.75,0-13-6.18,4.94-8-1.86,4.33-6.8.62-12.36a26.59,26.59,0,0,0-9.89-9.28c-3.09-1.85-3.13-1.86-7.17-2.94s-10.06,4.16-7-1.09,9.27-6.48,7.42-10.8-3.73-2.85-5.57-4.33,6.19-12.23,6.19-16.32-3.89-3.18,0-10.88,10.74-4.56,8.65-11.13-6.18-11.75-3.71-21,7.85-8.78,10.23-17.67,8.11-3.86,7.08-13.24,3.09-22.88,3.09-32.15,1.24-19.78,5.57-25.35,13-12.36,14.84-1.23S157.37,110.74,158,118.78s6.8,27.2,8,30.29-4.94,15.46,3.1,9.9,3.71-12.37,18.54-8.66,19.79,3.09,27.82,7.42-.62,8,9.89,5.56,7.42-2.47,13-2.47,9.39,13,18.29,6.8,12.62-1.24,14.47-12.36-11.06-13.1,9.28-18.55c8.2-2.2,11-3.22,6.65-7.55s-6-7.91-7.27-14.71-3.71-6.18-.62-16.69A116.62,116.62,0,0,1,285.89,80s8.73,2.9.69-2.66-11.07-1.67-8-9.27S289.67,53.87,289.67,52s3.09-8.65,1.24-13-1.59-4.26-7.25-5.77-6.35-3.5-7.59-5.36,1.24,5.57-8.66-1.85S265.56,14.92,265.56,14.92Z" fill="#b0a494"/>
      <path d="M224.32,105.8c8.25,0,13.47,5.56,9.57,8.34s-9.83,3.41-14.47,2.79-15.79.22-13.93-7.73c.73-3.11,4.13-2.16,8-3.4S224.32,105.8,224.32,105.8Z" fill="#fae1d7"/>
      <path d="M180.58,106.52c2.09,2,2.17,4.81.77,6s-6.21,2.64-9,2.33-8.38.62-8.38-2.33,1.86-4.5,3.88-6S178.4,104.5,180.58,106.52Z" fill="#fae1d7"/>
      <path d="M233.34,96.85c-8.07-.42-14.27.58-18.47,0s-15.21-.11-12,1.91,13,2.33,15.83,2.33,3.11-.16,10.4-.16,10.71,3.57,8.69,0a9,9,0,0,0-5.35-4.31" fill="#b0a494"/>
      <path d="M182.9,97.83c-4.81,0-7.45.23-10.71,1.74s-3.57,3-6.05,3-7,1.61-4.34,2.73,6.91,1.89,9.58-.75,7.06-2.81,9.35-3S185.85,97.83,182.9,97.83Z" fill="#b0a494"/>
      <path d="M407.6,253.77c2.61,9.76-5.51,25.45-10.2,32s-6.51,19-14.17,25.92-17.15,16.06-25.55,23.36-66.42,5.11-66.42,5.11,49.55-27,58.17-37.22,26.5-25.55,27.59-33.21-1.09-9,4.38-16S405.34,245.35,407.6,253.77Z" fill="#1c1210"/>
      <path d="M193.83,174.08c12,1.49,14.23,1.53,17.51,4.09s9.6,4.85,5.71,9-5.85,5.24-14.72,5.24-5.59-.37-13.25-.37H175.94s-10.67-3.28-5.7-8.75,4.36-6.94,9.77-7.3,7.45-2.15,10.85-2.19C191.21,173.78,193.83,174.08,193.83,174.08Z" fill="#cca07d"/>
      <g>
        <path d="M186.63,100.16a36.29,36.29,0,0,1-3.11,12c-1.24,2.64-3.26,5.12-3.1,8.84s.93,4.82.16,7.76A99,99,0,0,1,176.7,139c-1.4,3.41-4.66,5.9-2,10.4s5.58,7,8.53,5.89,3.11-1.24,5.13-2,2-1.4,5.27.31,9.84,6.4,11.67,2,4.16-5.84,1.68-8.64-7.14-3.88-7.14-3.88" fill="#cca07d"/>
        <path d="M186.63,100.16a28.18,28.18,0,0,1-.78,6.58,33.53,33.53,0,0,1-2.08,6.36c-1,2-2.06,3.89-2.33,5.88a11.56,11.56,0,0,0,0,3c.11,1.06.32,2.08.46,3.26a10.14,10.14,0,0,1-.24,3.64,33.37,33.37,0,0,1-1,3.26c-.74,2.11-1.57,4.16-2.38,6.2a20.13,20.13,0,0,1-1.46,3.14,24.28,24.28,0,0,0-1.47,2.75,4.53,4.53,0,0,0-.3,2.49,7.1,7.1,0,0,0,1.14,2.53,13.11,13.11,0,0,0,3.92,4.38,4.27,4.27,0,0,0,1.13.46,2.91,2.91,0,0,0,1.1,0,14.24,14.24,0,0,0,1.38-.47l1.51-.57,3.06-1.19a7.54,7.54,0,0,1,1.85-.62,4.27,4.27,0,0,1,2.2.37c2.24,1,4,2.25,5.88,3.24a16.27,16.27,0,0,0,2.82,1.26,3.49,3.49,0,0,0,2.52.06l.24-.12.2-.2a1.41,1.41,0,0,0,.36-.48c.05-.09.11-.16.17-.28l.18-.39c.12-.26.25-.51.38-.76.52-1,1.12-2,1.64-2.89a3.25,3.25,0,0,0,.6-2.66,6.14,6.14,0,0,0-1.84-2.38,17.26,17.26,0,0,0-5.7-3.07,16.23,16.23,0,0,1,6.16,2.48,6.7,6.7,0,0,1,2.36,2.6,3.28,3.28,0,0,1,.19,1.93,7.09,7.09,0,0,1-.59,1.7c-.48,1-1,2-1.42,3-.11.24-.22.48-.31.73a6.4,6.4,0,0,1-.36.81,2.78,2.78,0,0,1-.57.87,4.51,4.51,0,0,1-.37.39l-.46.31a3.52,3.52,0,0,1-1,.41,7.09,7.09,0,0,1-1,.12c-.32,0-.65,0-1-.08l-.9-.18a18.68,18.68,0,0,1-3.26-1.26c-2-1-3.94-2.19-5.77-2.91a1.92,1.92,0,0,0-1-.19,6.86,6.86,0,0,0-1.23.5l-3.06,1.29c-.51.22-1,.43-1.55.62a15,15,0,0,1-1.74.6,5.71,5.71,0,0,1-2.18,0,7,7,0,0,1-1.92-.74,11.2,11.2,0,0,1-2.83-2.42,21.32,21.32,0,0,1-2.07-2.83,9.59,9.59,0,0,1-1.48-3.48,7.2,7.2,0,0,1,.49-4,26.16,26.16,0,0,1,1.65-3.06,20.33,20.33,0,0,0,1.36-2.81c.87-2,1.75-4,2.53-6,.38-1,.73-2,1-3a7.93,7.93,0,0,0,.32-2.9c-.06-1-.23-2.15-.29-3.28a12.1,12.1,0,0,1,.18-3.53c.5-2.38,1.83-4.31,2.88-6.16a34.68,34.68,0,0,0,2.54-6A31.5,31.5,0,0,0,186.63,100.16Z" fill="#c09175"/>
      </g>
      <path d="M224.32,105.8a18.11,18.11,0,0,1,2.12.14,12.28,12.28,0,0,1,.39,3.06,11.9,11.9,0,0,1-3.07,8.11,25.64,25.64,0,0,1-4.34-.18c-2.55-.34-7.06-.25-10.3-1.41a12.28,12.28,0,0,1-1.84-6.52,12.41,12.41,0,0,1,.16-2c1.51-.55,3.69-.5,6.05-1.25C217.35,104.56,224.32,105.8,224.32,105.8Z" fill="#2f1e17"/>
      <path d="M164,112.57c0-2.95,1.86-4.5,3.88-6,1.84-1.42,9.09-1.92,12-.47a12.9,12.9,0,0,1,.16,2,12.22,12.22,0,0,1-1.51,6,16.19,16.19,0,0,1-6.15.92C169.56,114.59,164,115.52,164,112.57Z" fill="#2f1e17"/>
    </g>
  </g>
</svg>
