<svg id="Layer_1" data-name="Layer 1" xmlns="http://www.w3.org/2000/svg" xmlns:xlink="http://www.w3.org/1999/xlink" viewBox="0 0 500 300">
  <defs>
    <clipPath id="clip-path">
      <rect x="586.9" y="3.85" width="353.44" height="296.15" fill="none"/>
    </clipPath>
    <clipPath id="clip-path-2">
      <rect x="91.17" width="358.03" height="300" fill="none"/>
    </clipPath>
    <clipPath id="clip-path-3">
      <rect x="34.62" y="4.43" width="427.46" height="427.46" transform="translate(344.48 534.44) rotate(-148.2)" fill="none"/>
    </clipPath>
  </defs>
  <title>pic-1</title>
  <g clip-path="url(#clip-path)">
    <path d="M635.91,221.59c-6.56,4-1.09,5.48-6.2,8.4s-16.06-.37-16.06-.37-3.65-8.16-10.94,1.58-8.76,13.39-13.14,14.12-5.11-3.65-15-2.56-8.4,0-15.33,4.38-2.56,1.82-14.6,9.85-16.42,9.86-20.8,13.14-1.1,4-8.76,10.22-28.83,20.07-33.94,23-17.15,9.12-22.62,13.87A79.2,79.2,0,0,0,449.8,326H674.08l37.38-44.16L664,216.49Z" fill="#be6442"/>
  </g>
  <g clip-path="url(#clip-path-2)">
    <g clip-path="url(#clip-path-3)">
      <g>
        <path d="M352.38,149.55a106.92,106.92,0,0,0-9.18-10.4,40.64,40.64,0,0,0-7.16-5.67c-2.16-1.34-6.43-8.61-6.43-8.61a14,14,0,0,0-9.94-6.23c-6.91-.93-9.63,18.83-9.63,18.83s3.62,46.19,4.55,46.79,41.76,16.45,41.76,16.45l14-17.56,2.73-11.75-3.54-4.9-16.19-10Z" fill="#fefefe"/>
        <path d="M453.85,350.63c.13-.32-.22-1.19-.41-1.21-1.32-.13-1.57,1.15-2.24,1.88-2.24-1.18-3-2.66-2.35-5.43,1.32-5.38,3.34-9.95,9-11.89h0a3.5,3.5,0,0,1,2,2.55c2.53,14.38,5.85,28.65,4.16,43.49a103.93,103.93,0,0,0-.38,20.95c.5,5.82.67,11.85-.88,17.48-2,7.25-5.69,14.07-7.27,21.38-1.49,6.87-4.54,13.76-3.7,20.83,1.19,10.07,4,19.91.35,30.12-1.18,3.26-1.06,7.13-.91,10.69a64.74,64.74,0,0,1-1.67,19,75,75,0,0,0-2.33,22.44c1.2,24.59-5.38,47-18.78,67.6-7.18,11-16.27,20.47-24.61,30.54-1.57-4.37-5.57-6.4-9.34-7s-5.92-2.76-8.72-4.38a14.87,14.87,0,0,0-6.92-2.35c-6.24-.48-13.84.16-17.71-7.4-1.21-2.35-4.33-2.33-6.74-1.56-2.8.89-4.7.5-7.17-1.44s-5.94-2.34-9.82-2.2c-4.23.14-8.85-3.71-12.82-6.49-2.44-1.72-5.45-3.69-5.43-7.49-4,.06-3.51-7.94-9.09-5-.7.36-2,.21-1.45-.69,1.84-3.3-5.63-4.76-1.56-8.14,2.13-1.78,2.44-3,1.75-6.06-.77-3.31,2.41-4.83,6.33-4.74,6.8.17,13.57-.13,20,3,.28-.44.56-.89.83-1.34-3.06-3.78-5.71-8.06-9.35-11.17-2.35-2-5.68,0-8.51,1.27-3,1.37-6.9,3.54-6.73-2.94,0-.52-.28-1.44-.59-1.52-7.62-1.83-6.72-12.05-14.29-14.29a9.82,9.82,0,0,1-6.54-7.73c-.16-.84-1.53-1.64-1.43-2.32,1-6.22-9.05,2-7.16-5.6,1.18-4.73-5-5.6-5.67-9.55-.75-4.5-5.59-5.28-7.83-8.52a7.18,7.18,0,0,0-5.47-2.72,25,25,0,0,1-19.39-10.5c-4.11-5.55-10.74-5.9-16.2-8.67a1.36,1.36,0,0,0-2.15,1c-.76,3-2.42,1.69-3.77.7-1.64-1.2-3.16-.88-4.79-.13s-4.56.07-4.84,2.16c-.37,2.81,2.85,2.19,4.47,3.19,4.18,2.58,5.67,7.34,7.85,11.31,3.08,5.63,3.53,12,2.36,18.46-.48,2.64-.62,3.53-3.7,3-5.37-1-7.27,1.16-6.44,6.67,2.11,14.06,6,27.8,6.78,42.12.65,12.1.31,24-7.2,34-8.21,10.84-9.76,23.29-11.24,36-.53,4.62.16,9.55-5.59,12.18-1.42.64-2.52,5.4-1.59,7,2.13,3.78.38,7.19.78,11,2.92-4.41,9-5.8,9.31-12.82.16-3.85,4.53-6.7,8.09-8.91a2,2,0,0,1,3.34,1.66c.46,4.84,2.66,2.31,4.17,1a36.73,36.73,0,0,1,13-7.85c4.4-1.42,4.12-5.86,5.26-9.31.13-.39-.28-1.12-.65-1.48-2.9-2.82-2.87-4.1,1.52-5.34,3.83-1.09,4.11-2.57,2-5.8,3.78,3,7.36-.61,10.77.65-5.83,2.11-5.78,8.3-8.77,12.17a34.35,34.35,0,0,0-5,9.72c-1.59,4.29.44,11.47,4.17,13.79,1.46.92,2.88,2.25,4.85,0,2.59-2.89,2.1-8.6,7.77-8.7-.06-2.3-.43-4.57-2.4-6-4.35-3.2-4.24-6.38-.7-10.26,5.49-6,5.35-7.54,0-10.71,4.7-.77,8.25,2.86,12.65,3.38,1,.12,1.1,1.88,1,3s-.76.78-1.57.59c-5.32-1.2-4.39,2-2.71,4.53s2.91,4.64,1.95,8.34c-1,4,3.42,6.81,5.33,10.21.86,1.53,2.27.14,2.9-1.16s-.38-2.65-.26-3.82c.25-2.31.69-5.23,2.94-6.12,2.52-1,2.34,2.29,3.51,3.54s2.24,2.89,4.12,5.36c-1.39-7.9-2.79-14.14-10.5-16.39a2,2,0,0,1-.57-3.68c5.78-4,2.7-6.27-1.41-8.54-.37-.21-.49-.87-.88-1.59,2.57-1.24,4,.77,5.7,1.58,4.1,2,8,4.26,12.15,6.18s5.09,4.35,1.75,7.8c-.74.76-2.28,1.25-1.07,2.57a6.56,6.56,0,0,0,3.26,2.11c1.51.28,1.5-1.4,1.72-2.43,1.11-5.15.83-10.48,1.37-15.68.24-2.24-4.58-5.45-7.26-8-4.66-4.42-8.64-9.49-14.68-12.67-4.52-2.38-9.34-5.47-11.46-11-.56-1.45-2.2-2.48-4.17-4.59,6.58,1.61,11.17,5.07,15.7,8.05,18.82,12.39,38.28,23.9,56,37.95,9.47,7.53,20.86,12.13,29.73,20.72,2.62,2.54,8.14,3.57,12.75,3.81,5.85.3,8.87-3,10.65-8a38.89,38.89,0,0,0,3,3.27c8.65,7.68,16.09,16,17.29,28.33.31,3.27,2.07,6.37,2.81,9.63,1.06,4.65,3.71,9.18,1.48,14.19h0c-1.86-1-1.92-4.72-5.69-3.38,2.6,3.54-.7,6.76-.84,10.35-.13,3.31,2.09,7.41-1.2,10.63-.94.91.58,2.06,1.26,2.84,3.75,4.26,2.55,8.87.23,12.89-2.83,4.91-4.91,10.2-7.81,15-7,11.53-14.17,22.9-21.4,34.26a23.65,23.65,0,0,0-4,11c-.36,5.51-2.66,10.34-5.23,14.81-6.94,12.11-11.06,25-13.48,38.7-1.88,10.57-2.11,21.47-6.08,31.64-.69-.57-1.45-1.68-2.07-1.61-3.54.43-9.39,10.49-8.64,14.6-2.25,4.7-5.82,8.3-9.68,11.67-1.82-1.26-4.24,2-5.86-.79-.41,1-.85,2-1.23,3.08-.94,2.61,1.25,3.11,2.76,4.07-2.23,3.39-6,6-6.23,10.41-.27,4.6-2,8.78-2.89,13.16-1.66,8.18-4.9,16.3-1.75,25,.82,2.28,1.17,5.24-.69,7.62-1.38-.52-3.57-2.7-4.08-.51-1.13,4.86-8.4,4.47-7.95,10,.14,1.77,1.67,3.57,3.47,2.71,2.31-1.1,6-1.23,5.91-5.05-.1-2.88-.16-5.53,2.64-7.25,3.68,5.57,5,11.07,2.57,17.93-2.61,7.4-6.75,14.43-7.23,22.49-.31,5.18-2.49,5.15-6.1,2.82-9-5.81-18-11.56-27-17.33a52.33,52.33,0,0,0-3.23-5.1c-1.47-1.85-3-2.05-4.08.53a281.88,281.88,0,0,1-24.61-15.14c-.62-5.16-5.83-5.76-8.76-8.61-.5-.49-1.56,1.13-1.8,2.23l-1-.66c.63-3.69-4.49-11-8.13-11.4a6.75,6.75,0,0,1-3.42-1.75c-3.31-2.39-5.17-1.5-5.84,2.4l-2-1.25c3.25-1.62,3.38-4.24,2.66-7.4-.67-2.9-2.66-.84-3.95-1.31,2.72-2,5.54-3.8,7.28-7,1.41-2.59,1.64-5.43-.17-7-2-1.75-2.71,1.52-4,2.58-2.58,2.1-6.64,2.53-7.52,6.64a2.51,2.51,0,0,1-2,.16c-4.86-3.44-6,.47-7.45,3.7l-8.1-5c1.22-2.64,4.34-5.12,1.08-8.23-3.68-3.51-4.65-3-8.21,3.5-5.38-1.86-8.52-7.36-14.18-8.75,3.57-3.19,2.22-6-.87-8.85l-4.67,5.73c-4.84-2.1-4-5.4-1.57-8.67,2.09-2.85,1.64-4.64-1.48-6.14a32.69,32.69,0,0,1-12.57-10.27c-2.82-3.93-8.65-3.54-10.83-8.12.67-.84.91-3.3,2.48-.6,1.21,2.07,2.93,1.64,4.23.35,2.38-2.35-.42-4-1.12-5.92-.84-2.31-2.34-.89-2.95-.15-1.29,1.56-3.39,2.47-3.94,4.64a4.17,4.17,0,0,1-3.41-2.32c6.12-3.32.83-7.78,1.83-12.79-3.67,2.83-6.24,5-7.72,8.21-7.55-.54-9.84-7.62-14.55-11.69,6.25-1.84,3.82-6.35,3.06-10.25-.28-1.47-1.89-1.34-2.8-1.14-3.59.78-6.07-1.17-8.6-3.11-5.89-4.5-5.88-4.5-7.78,2.72a7,7,0,0,1-2-.84c-8.29-7.1-8.3-7.12-13.84,1.73a30,30,0,0,0-3.2,6c-1,2.85-2.54,3-4.73,1.66Q36.41,863,8,845.21c-1.52-7.41-.81-8.06,6.53-5.67,3.24,1.06,6.34,2.5,9.56,3.62s5.75,2.81,9.3-.24c2.93-2.51,9.11.58,10.3,4.79.64,2.32,1.52,3.76,3.75,4.36,6.12,1.63,12.27,3.15,18.94,6.55a63.82,63.82,0,0,1-1.9-13.83c15.32-2.92,30.59-5.12,44.6-12.59,1.25,1.72-1.83,3.46.16,4.54,1.63.89,2.61-.92,3.87-1.63,6.44-3.63,11.1-9.76,18.62-12.21a43.82,43.82,0,0,1,7.23-1.27c7.93-1.19,16.07-4.16,23.92.47-1.15,3.27-3.73,1.47-5.71,1.49-1.54,0-3.2-.47-3.36,1.76-.12,1.73,1.05,2.31,2.61,3,5,2.3,9.8,3.11,15,.94,1.37-.57,4.32,1.63,4-1.65a4.15,4.15,0,0,0-5.43-3.48c-3.08.9-5-.06-6.89-2.15,1.34-2.56,3.95-2.61,6.29-3.09,1.88-.39,3.69-.77,5.05-2.29,1.79-2,3.92-17.09,2.71-19.4a4.93,4.93,0,0,0-.57-.9c-5.17,2.44-4.43-4.06-7.38-4.87-4.24-1.16-3.75-5.71-6-8.3a1.78,1.78,0,0,1,.65-2.49c1.18-.73,2-.1,2.74,1,1.83,2.88,4.15,4.6,7.16,2.71,2.73,2-3.86,4,.58,5.34,1.35.4,3.06,3.22,4.77.54,1.31-2.07,2.82-4.33-.24-6.32l0,.12c.91-1,1.1-3.28,3.23-2.13,1.57.84,2.9,2.43,1.9,4.21-2.83,5,1.73,10.29-.73,15.37-.8,1.65.28,3.47,2.33,3.8,2.51.4,2.69-1.8,2.86-3.34.94-8.31,2.42-16.76-4.7-23.48-1.78-1.69-.34-4.43-2-6.27-.65-.72-1.09-1.73-2.12-1.29-.5.2-.89,1.22-.9,1.88,0,2,.75,5.51-.76,5.67-3,.33-6.92-.16-9-2-2.41-2-4-1.36-6.5-.61,4.27-3,1.52-10.68,8.45-11.53.72-.09.94-1.2.53-1.93a1.75,1.75,0,0,0-2.83-.61c-1.7,1.23-3,3.86-5.65,1.45-2.23-2-1.35-4.21-.69-6.73s-1-5.78,4.33-4.87c2.08.35,3.73-4,4.07-6.83,1-8.47,5.78-16,6.06-24.61,0-1,.23-2,1.51-1.88s1.27,1.29,1.09,2.21c-1.34,6.88,2.22,14.75-4.72,20.53-3.1,2.57.38,7-1.72,10.18,3.91-.91,5.18,3,7.9,4.23a1.14,1.14,0,0,0,1.5-1.57c-2.91-4.9,4.1-7.35,2.82-11.84-.17-.59.92-1.11,1.76-.88a1.29,1.29,0,0,1,.89,1.78c-.66,2-1.41,3.91-2.19,5.84-.49,1.21-1.46,2.53.17,3.45a3,3,0,0,0,3.67-.72,16.17,16.17,0,0,0,3.14-5.3c1.13-3.69,2.07-7.33,6.15-8.92,1.29-.51,1.25-1.62,1.39-2.8,1-8.28,2.25-16.71,6.34-23.94,2.11-3.72,1.15-7.71,3.15-11.1a1.59,1.59,0,0,0-.73-2.38c-1.09-.56-1.69.22-2.34.94-2.1,2.34-2.1,5.63-3.78,8.16-.75,1.13-1.73,2.29-3.22,1.57a2,2,0,0,1-.45-3.35c2.47-2.1,4-3.88,2.73-7.66-.81-2.4,2.9-4.86,1.67-8.28-4.73.59-5,4.77-6.28,8s-1.19,3.4-5.5,3.81c-.73-2.08,1.92-2,2.21-3.43.36-1.83,0-3.57-1.38-4.6-1.89-1.37-2.56.64-3.41,1.78-1.3,1.75-2.54,3.55-3.69,5.17-3.92-4.65-.32-8.15,1.3-12.38,1.44-3.72,1.49-8.36.85-12.38-.51-3.26-7-3.34-10.2-.23-1.53,1.52-3.24,3-3.66,5.31-2.34-1-1.11-2.07-.72-3s1.65-2.7,1.42-2.92c-6-5.8,1.89-12.88-1.69-18.56-2-3.09-1.4-5.16.58-7.56.21-.25.33-1,.23-1-6.95-4.16,1.32-10.91-2.59-15.73-.44-.56-.46-3.68,1.78-4.18,1.58-.35,2.16,1.18,2.61,2.46.87,2.48,2.71,1.58,4.25,1.1,2.22-.68,6.36-10.14,5-12-4-5.32-3.39-11.2-4-17.33-.47-4.54,2.45-10.54-2.54-14.46l0,.13c-.55-3.84.82-7.83-.82-11.57-.32-.75-.73-1.56-.12-2,5.88-4.5,1.94-10.58,2.71-16.32l-4.7,2.55c1.79-4.35,4.75-7.68,3.15-11.85-5.37,2.76-7.48,9.25-8.31,15.14-1,7.25.82,14.35-1,21.79-1.4,5.81-3.11,13-1.6,18.53,1.32,4.84-1,10.64,3.61,14.92,1.93,1.82.88,5.07-1.35,7-1.2,1-2.81,2.32-2.56,3.56,1.33,6.85-3.31,12.86-2.51,19.54.27,2.2-1.75,3-2.24,4.93-2.41,9.48-1.8,19.47-5,28.77-1.32,3.79,3.14,4.89,3.55,8.58.59,5.38-2.1,4.94-4.68,4.23-2.14-.59-3.49-1-4.59.85-.14-3,5-3.59,3.69-7.13-.5-1.41-2.32-.1-3.95.36,1.38-3.72,4.38-5.85,4.54-9.58.11-2.47.78-4.34-.94-7-1.49-2.29,0-6.07,1.25-9.07.93-2.17,3.1-5-1.92-5.45-1.69-.14-2.12-1.47-1.61-3.43,1.14-4.31,2.36-9.35,1.72-13.14-1.16-6.86-.34-13.85-2.1-20.58-1-3.7.32-6.78,3.93-8.12,3-1.1,4.28-2.84,4.08-6.15a7.41,7.41,0,0,0-6.79,2.86c-.62.75-1.47,1.44-2.43.83-1.29-.82-.65-1.94-.15-3s1.11-2.39,1.66-3.59c2.52-5.45,2.52-5.45-.5-10.16-2-.15-1.7,4-3.86,2.69-2.54-1.53.46-3.2.52-4.81.12-2.89.81-4.72,4-5.44,1.61-.36,2-2.56,2.4-4.27-1.66-1.3-3.26,1-4.85,0-1.79-1-3.85-1.79-2-4.68,1.69-2.63,5.48-6.37,1.17-8.54-4.11-2.08-4.7,3.6-6.72,6-.32.39-.48.93-1,1.29,3-5.84,6.11-11.6,6.87-18.25a2.72,2.72,0,0,1,1.25-1.73c7.08-4.06,8.47-9.84,3.55-15.89-1.22-1.51-1.45-2.94-.07-3.9,2.83-2,2.87-5,1.33-6.88-2.37-3-3.78,1.8-6.16,1.75-1-2,.69-3.07,1.47-4.41s2.19-3.44.59-4.63c-5.65-4.22-3.5-10.3-4.08-15.66-.8-7.39-1.38-14.82-1.66-22.25-.16-4.13,3-7.22,4.54-10.81,1-2.17,4.47-4.62,1.82-6.63-3.12-2.37-7.1-.35-10.31,1.38-1.13.61-1.62,2.43-2.92,3.65-.11-4.16-7.68-5.52-1.88-11.71-4.4.75-4.66,7.1-8.46,3.5-3.33-3.16-5.82-7.06-4.75-12,1.63-7.49,3.36-14.94,2.15-23.15-1.44,2.33-2.75,4.77-4.37,7-2.48,3.37-7,3.65-8.71-.1-2.8-6.21-6.11-3.95-10.34-1.21.31-3.83,1.71-7.1,4.15-8.55,3.44-2,4.2-5.89,7.1-8.12,1.51-1.16,1.26-4.6,4-4.06,2.93.59,1.29,3.82,2.33,6.12,3.34-2.67,4-5.87,3.31-9.49-.4-2-.55-4.11,1.27-5.15,2.31-1.31,3.56,1.4,5.3,2.26,1.56.77,3.71,1.42,2.84,4.11-.75,2.34-1.3,4.74-1.93,7.11-.81,3,.64,3.75,2.91,2.32,2.88-1.82,7-2.48,7.42-7a1.75,1.75,0,0,1,2.34-1.75c8.3,2.4,16.9-1.63,25.18,1.26,2.48.86,5.07,1.42,7.6,2.12-.44,1.92.17,2.71,2.26,2.51,1.14-.11,2.36.63,2,2s-1.57,1-2.73.72c-5.18-1.5-9.31-.06-12.21,4.58l-.71.14c.11.05.25.15.33.11a1.53,1.53,0,0,0,.37-.31c3.06,2.53,6.57,4,10.37,2.38,6.2-2.64,12.37,2.19,18.86-.63-2.42-2.24-2-4.37.88-6,.93-1.79,3,.3,4-1.23L213,423.42c-2.13,2.39-4.18,2.33-6.79,1.33-1.68-.64-4-2.16-5.57.41-.73,1.2-3.29,1.44-2.32,3.36.76,1.51,1.64,3.31,4.34,2.57,2.2-.61,4.57-.18,5.33,2.8.59,2.28,1.46,4.44-1.94,5.33-1.37.35-1.41,1.65-.81,2.79a2.86,2.86,0,0,0,2.89,1.39c1.9,0,3-1.42,4.39-2.34a2.94,2.94,0,0,1,3.69.43c1.19,1,.47,1.74-.27,2.79-4.71,6.71-4.64,7.2,1.06,14.51.63-5.4,6.62-5.66,8.42-10,.35-.86,2.67-2.06,4-1.24,1.53.95.72,2.9,0,4.08-1.57,2.7-3.24,5.71-6.88,5.78-2,0-2.62,1.17-3.25,2.55a1.82,1.82,0,0,0,.82,2.42c1.48,1,2.3,0,3.36-.9,2-1.7,2.9-1.13,3.08,1.53.4,6.19,4.22,9.5,10.15,8.95.94-.08,2.14-.66,2.64.21,3.37,5.84,7.33.49,10.92.46,2.27,0,1.69-2.18.07-3.06-5.05-2.73-9-7.52-15.2-8.18-1.82-.2-4.85-7.34-3.52-8.42,3-2.45,1.84-4.14-.14-6.44-1.59-1.85-3-4.74-.9-6.62,1.65-1.51,4.79-.46,6.63.53s3.89,1.9,5.43,3.76a3.81,3.81,0,0,0,6-.28c1.86-2.48-1.31-2.78-2.49-4-1.61-1.6-2.84-2.68-5.7-2-2.28.53-5.55.12-6.91-3.45-1.45-3.86-5.69-3.09-8.75-4.08-2-.64-4.24-.32-4.47-3.36a19.14,19.14,0,0,1,9.54,3.06c4.78,3.08,10.41,3,15.52,4.72,1.66.57,2.77-.76,4.18-1-.29,2.89,2.11,2.76,3.78,3.17,16.8,4.11,30.6,13.74,44.44,23.53C307,467.08,317,472.6,326.34,478.4c.05-.31-1-2.34.47-3,6.12-2.76,1.7-5-1.21-8,9-.24,16.62,2.55,25,3.5-1.71-3.72-4.86-2.62-7.09-3.5-1.67-.65-4.26-.3-3.83-3.08.35-2.28,2.86-3,4.46-2.7,5.85,1.17,10-2.82,14.85-4.43,2.27-.75,2.27-1.79.64-3.67-3.05-3.5-8.86-4.85-8.57-11.09.05-1.15-1.89-.87-2.95-.52-1.61.52-3.13,1.49-4.77,1.75-2,.32-4.73,2.52-6.07-.43-1.07-2.34-3.1-5-.77-7.93a16,16,0,0,0,2.66-5.24c-5.47,6.38-11.91,6.73-19.14,4.26-1.64-.56-3.81.57-5.57.17-2.21-.51-5.6-1.2-1.9-4.56,3.16-2.85.41-6.1.06-8.94-.8-6.35,3.87-10.52,5.5-15.85.78-2.54,11.57,1.74,13.65,3.51,4.28,3.64,4.7,8.82,7.15,12.84,2.66,4.35,10.12,4.83,14.47,8.83.42.38,1.94,0,2.68-.49,4.23-2.68,8.39-5.48,12.56-8.27.73-.49,1.93-.9,1.28-2.09a2.35,2.35,0,0,0-2.46-1.06c-6.85.87-9.74-5.16-14.29-8.28a2.22,2.22,0,0,1-.75-3c1.7-3.35-1.29-3.31-2.7-2.92-3.15.87-5.91-.45-8.85-.68-5.39-.43-7.36-3.52-7.85-8.58-.28-3,.88-7.14-4.53-7.76-1.88-.22-1-2.93-.7-4.52.18-1.14.87-2.34,2.3-1.81,2.47.9,4,5.78,7.92,1.2.57-.67,6.59,3,7.92,6.93,2.47,7.21,12.4,11.58,18.9,8.23,2.54-1.31,1.44-3.71,1.89-5.55s.86-2.77,3.06-3c2.64-.27,2,1.41,2.38,2.74,1,3.88,3.26,5.78,7.61,6.14,6.33.54,12.5,3.49,19,1.24,7.43-2.58,15-4.9,21.8-8.94-1-2.5-2.35-1.45-3.57-1.43-3.36.07-6.94,1-6.17-5,.43-3.34-2.54-4.32-5.58-2.42-4.07,2.54-8.43,1.27-11.1-2.77-7.27-11-14.87-21.71-20.56-33.65A31.08,31.08,0,0,1,371,332.77c-.27-4.69,4.46-6.63,9.24-4,4.46,2.47,9.41,2,14.09,3.15,1.7.4,2.28-1,3.07-2,1.58.12,3.17,1.26,4.8,0-2.33-1.78-2.33-1.78-4.77.07-4,0-4.46-2.83-4.19-5.64.24-2.44.08-4.57-2.61-4.58-3.49,0-1.66,2.46-1.32,4.1.42,2-.39,3.6-2.16,4-2,.52-2.15-1.28-3.05-2.78-2.36-3.9-1.51-9.27-6.55-12.18-2.19-1.26-3.53-1.4-6-.13,1.43-5.27,3.36-8.29,8.49-9.47,3.94-.91,2.63,3,4.77,3.53,2.17-2.65,4.32-5.36,6.58-8,1-1.2,3.28-2.05,1.24-4-1.48-1.39-2.52-2.55-5.57-2-7.87,1.35-11.69,7.25-16.37,12.24-2.53,2.69-4.73,4.05-7.76,1-.73-.72-1.55-1.22-2.44-.4a2.38,2.38,0,0,0-.43,1.39c1.78.83,2.51,1.94.65,3.29-1.5,1.08-3.14,3-5,2.29-3-1.06-5.52-2.46-5.43-6.79.06-3.25-1.29-7-5.68-7.58a13.79,13.79,0,0,1-5.7-2.42c-3.27-2.16-6.56-1.4-9.48.41-1.31.81-1.95,2.49-3.44.43-1.13-1.58-1.17-2.74.42-4.36,3.29-3.34,6.64-6.67,8.94-10.87,2.51-4.59,1.88-8.22-2-11.67-2.34-2.11-.27-4.14.5-6.15l.94,0c-.37-.85-.66-.52-.93.07-6.76-1.66-4.61-5.73-2.52-9.54-1.54-2.87-4.49,5.18-5.63-1-.13-.68-1.21.82-1.81,1.37-5.17,4.72-6.23,11.13-6.9,17.55-.35,3.31-1.43,3.56-4.38,2.81-3.12-.8-6.34-3.63-9.77.13-.37-3.05,1.56-4.38,2.35-6.2.44-1,1.62-1.89.75-3s-2.28-.73-3.15-.32c-3.92,1.87-8.72,1.14-12.18,4.56a5.78,5.78,0,0,1-6.79,1.34c-2.48-1.32-1.22-3.71-1-5.66.29-2.79.27-5.75,3-7.65,2.21-1.55.91-3.84,1-5.79a2,2,0,0,0-2-2.31c-1.35,0-2,.93-2.24,2.14-.37,1.59.19,3.45-1.71,5.13-1.55-2.78-5.44-2.5-6.8-4.78-1.6-2.7,3.94-3.81,2.7-7.78-2,2.59-5.95,2.25-6.41,6.35-.18,1.59-2.3,2.13-2.94.69-1.65-3.7-6-1.35-8.12-4.16-.73-1-2.39.63-3.07,1.7-.88,1.37-.73,3.37-2.46,4.08-5.83-6.44-1.75-11.72,1.26-17.82,7.33-14.85,20.49-21.76,34.62-28.09,5-2.25,9.15-6.5,14.82-7.75,1.83-.4,3.57-1.31,5.41-1.54,9.35-1.2,16-13.17,11.95-21.85-.92-1.95-3.25-2.79-5.24-2.79-3.94,0-7.2-1.67-10.52-3.36-2.77-1.4-4.41-5.06-8.8-3.17-2,.87-1.83-2.85-3.1-4-3.44-3.1-6-5.87-4-11.34,1.06-2.9-3.08-5.06-5.44-6.26-2.93-1.49-2.06,2.09-2.77,3.49-.44.88-.87,1.7-1.91,1.91-6.56,1.32-4.22,7.16-5,11-.51,2.54,3,2.6,5.34,2.31,1.51-.2,3.89-.44,1.78,1.87-2.48,2.71,3.79,5.09.1,6.61-1.87.77-3.29-3.37-5.94-3.33s-5.27-.85-7.68-.89c-6.68-.12-9.82-8.52-17.22-6.66-1.18.29-1.69-3.22-.85-4.27,2.8-3.49,2.34-8.35,5.45-11.67a3.85,3.85,0,0,0-.33-6c-3-2.56-2.47-6.12-2.76-9.44-.09-1.05-.32-2.49,1.29-2.67,1.32-.15,1.89.92,2.4,2,2.35,5.06,8,6.92,11.13,11.38,1.37,2,4.44,2.11,5.77-1.27,1-2.52,3.34-5.2-1.28-6.66-1.05-.33-3.16-8.5-2.61-9.49,1.5-2.7,3.35-1.54,5.28-.57,5.61,2.81,5.63,2.78,8.82-3.28-1.48-2.08-3.54,1.33-5-.53,1.55-4.78,3.59-9.61.11-14.46-.63-.89-.88-1.77,0-2.46s1.76.11,2.55.57c2.88,1.66,2.51,5.31,4.85,8.2,1.65-5.17.65-9.81,0-14.2s-6.4-6.45-11-4.43a38.48,38.48,0,0,0-6,3.2C266,98,263.94,97,262.69,92.61c-2,6.19-5.1,7.75-9.88,3.21-.76-.72-1.68-.25-2.6-.21-3.91.14-7.71-.18-8.29-5.34-.15-1.32-1.61-1.57-2.17-2.46-2.4-3.82-6.49-7.09-4.08-12.57.79-1.8-.59-3.06-2.15-3.29-1.86-.28-4-2.2-5.69.22-.61.86-2.05,2,.85,2.19,2.63.17,2.95,3,2.33,5-1,3-2.93.51-4.58.36-8.47-.77-10.26-7.91-13-13.87-.52-1.15-2.93-5.8,2.69-5.68,2.39.05,1.89-3,2.16-4.48a3.51,3.51,0,0,0-3.14-4c-1.75-.28-3.6.25-3.55,1.87.14,5.62-5.21,9.21-5.08,14.8.07,2.77-1.76,3.11-3.85,1.8a22,22,0,0,1-4.53-3.39c-1.5-1.6-2.57-2.63-4.48-.48-.63.7-2.78,1.22-3.09.86-4.29-5-9.58-1.71-14.44-2.07-6.19-.46-7.79-4.13-4.69-9.49,2-3.41,5-6.22,6-10.23.42-1.61,2-2,3.64-2.21,2.23-.24,3.73-2,3.23-3.86-1-3.37-3,.61-4.48-.15-1.35-1.5,2-3.67-.73-4.92A5.28,5.28,0,0,1,181.36,31c8.35-7.16,17.91-12.56,27.25-18.2,4.24-2.56,9.3-3.6,14.52-4.14,14.63-1.51,28.42.86,42.17,5.91,17.38,6.39,28.22,18.13,33.78,35.65,3.61,11.39,2.58,23.95,9.41,34.6,1.36,2.13,4.36,5.63,2.78,8.33-2.19,3.74-1.1,7.38-.81,10.79.35,4.06,3.46,7.47,8,7,1.94-.21,1.92.54,1.54,1.19-2.9,4.82,1.26,6,5.39,8.68a36.94,36.94,0,0,0-4.36-1.22c-1.65,3.76-3.11,7.59-4.61,11.41,6.21,3,3,7.92,2.27,12.15-.6,3.39-1.23,7.3.86,9.59a121.86,121.86,0,0,1,11.8,14.61c2.89,4.36,4.43,1.63,6.8.37,1.56-.83.37-4.91,3.23-3.39,2.53,1.34,3.38,4.37,3,7.46-.28,2.23-1.55,3.41-3.35,2.08-4.08-3-3.48,0-4,2.55-1.49,6.74,3.72,9.13,7.65,12.4,2.86,2.38,4.76,1.44,6.05-1.71h-.07c2.35,2.94-1.57,6.5,1.35,9.9,1.25-5,6.4-7.53,6.55-13.16,0-.8-.35-9.66,6.61-4.54,1.24.91,3.91-.88,3.4-3.75-.34-1.95-1.84-3.86-.24-5.89-2.85-1.61-1.9-7.11-6.79-6.62l.08,0c-2.63-1.12-5-4.51-8.16-.6-.71.86-3.47.47-3.48-.42-.08-4.89-1.66-4.58-4.58-1.8-.25.25-1.7-.15-1.91-.58-1-2-1.89-3.38-4.61-2.11-1.2.56-1.87-1.19-1.5-2.28a32.69,32.69,0,0,1,2.3-4.48,4.61,4.61,0,0,1,3.12,3.54,1.6,1.6,0,0,0,2.11,1.22A1.53,1.53,0,0,0,346.2,154a2.08,2.08,0,0,0-1.25-2.25,49.57,49.57,0,0,0-5.31-1c-.84-.68-2.26-1-2-2.4.16-1.07,1.31-1.4,2.22-1.41,5.22,0,10.15-.48,14.45,4.26a195,195,0,0,0,35.08,30.81,58.26,58.26,0,0,1,17.81,18.49c6.5,10.92,9.14,23,12.66,34.8l.08,0c-4.89-1.76-6.84-5.62-7-10.44-.08-2-1.5-3.46-2.52-2.66-2.38,1.89-4.63,1.51-7.2,1.25-1.59-.17-1.73.6-.29,2.35.34.42,1,.64.61,1.24-2.94,4.95,0,8.63,2.16,12.83,1.22,2.31.66,5.4,4.82,4.21.31-.09,3.36,0,2.94,2.77-.22,1.4.66,3.35,2.72,2.44,1.48-.65,1.59-2.08.87-3.84-1.69-4.15-.41-7.06,4.27-8l-.06,0c.66,2.16.88,4.6,2,6.44,6.19,9.77,9.47,21,15.12,30.9,8.12,14.27,10.73,30.3,16.46,45.29.14.37-.29.95-.51,1.61a9.39,9.39,0,0,1-1.46-.92c-.81-.77-.53-3.33-2.39-2.15-1.63,1,0,2.18.93,3.07,2.24,2.13,1.16,4.16-.38,6-5.47,6.51-3.87,14.71-5.44,22.15-.37,1.76.91,2.3,2.05,2.95,1.93,1.09,2.68-.46,3.58-1.65C452.21,351.61,453.28,352,453.85,350.63ZM254.92,858.44V858c1.29-5.56,4-2.17,7.15-.5-1.37-2.81-2.22-4.82-5-5.22-1.83-.27-2.78.71-3.62,2.1-1.19,2,.4,2.67,1.53,3.61Zm-34.68-7.18c3.31-5.39,8.94-2.79,13.74-4-1.56-2.21-1.78-5.18-6.3-3.09-1.48.68-6.38-1.32-9.63-2.37.27-.67.78-1.36,0-2a.92.92,0,0,0-.87.21c-.39.9.38,1.29.92,1.77-.75,1-1.32,1.37-2.74.55-5.28-3-10.23-1-11.75,4.71-.38,1.4-5.53,2.6-.51,4.53.85.32,3.22,2.17,1.84-1.4-.2-.5,5.23-2.39,6.25-1.11,2.77,3.48,6.06,1.69,9.11,2.12-1.53,3.63.4,5.09,3.6,5a70.27,70.27,0,0,0,8.8-1.31c.58.39,1.43.66,1.68,1.2.63,1.35.88,3.4,2.49,3.4,1.88,0,2.14-2.28,2.93-3.66,1-1.73,1.45-3.48-.69-4.88s-3,.6-4.21,1.54a17.25,17.25,0,0,0-2.19,2.46C229.19,851.65,224.94,850.72,220.24,851.26Zm97.84-85.89c-2.84-1-5.61-2.35-8.53-2.9-6.6-1.25-9,1.83-6.5,8.13.61,1.54,2.28,2.8.44,4.41s-2.45-.53-3.68-1.13c-2.31-1.13-2.85.86-2.19,2.22a26.42,26.42,0,0,1,2.05,17.26,1.25,1.25,0,0,0,1.26,1.53c3.63.06,3.21,3,3.92,5.23.31,1-.64,2.56,1,2.82,2,.31,1.79-1.75,2.08-2.78,1-3.66-.85-6.84-2.56-9.77-1.27-2.2-1.65-4.39.46-5.35,2.48-1.13,2.68,1.67,3.31,3.33.33.87.53,2.29,1.12,2.49,7.44,2.57,4,8.3,3.78,13a4.56,4.56,0,0,0,.84,3c3.71,5.9,3.68,5.92-2.34,7.8l.11,0c-1.45-.18-3-3-4.18-.5-.85,1.78,1.35,3,2.88,3.59,2.77,1.13,5.8,1.37,8.65,2.5,2.5,1,2.42-2.25,3.1-3.58,1.47-2.91,1.32-6.82,5.72-7.55a1.35,1.35,0,0,0,.86-1.83c-.58-1.4-1.86-2.2-3.18-1.56-3.83,1.88-5.38-1.12-7.57-3.09-1.78-1.6-1.43-3,0-4.28,1.24-1.06,2.08-2,1.82-3.79-.32-2.16.6-3.17,3-2.69a3,3,0,0,0,3.63-2c.54-1.75-.85-2.77-2.2-3.54a32.2,32.2,0,0,0-4-2c-4.7-1.87-5.21-4.88-1.1-8,1.38-1,.09-1.52,0-2.19-.49-2.94-3.25-5.36-2-8.71,2.78,1.27,6.32,1.71,6.26,6,0,1.2.92,1.53,2,1.33a1.53,1.53,0,0,0,1.12-2.17c-1.41-3.2-1.48-7.31-5.61-8.78-1.13-.64-1.71-1.53-.86-2.72a8.32,8.32,0,0,1,2-2c2.69-1.88,4.47-4.22,3.36-7.63-1.19-3.67-4.57.52-6.32-1.72,0-.19-.19-.64,0-.88,1.17-1.81,5.27-1.41,4.38-4.25-.71-2.24-3.95-.71-6-1.28a10.22,10.22,0,0,0-9.73,2.64c-1.26,1.17-3.33,4.14-1.91,4.6,5.42,1.75,2.58,6.2,3.49,9.19.64,2.14,1.9,1.95,3.09,2.47,2,.89,4.15,1.63,6.23,2.43C319,763.62,318.55,764.49,318.08,765.37ZM157.71,891.71c-2.44,3.79-5.26,1.14-4.85-.87,1.27-6.28-5.09-7.73-6.43-12.56-1.78,1.26.18,6.54-4.37,3.93-.59-.34-1.5.27-1.65,1.12-.27,1.54.9,1.9,2,2.1,1.82.31,3.4.82,3.24,3.1-.2,2.76-2.27,1.56-3.78,1.88-3.87.82-4.76,4.08-1.7,6.88,1.91,1.75,1.92,6.29,6.35,4.79a3.4,3.4,0,0,1,.8,1.83c-.26,1.6-1.52,3.71,1,4.05,1.08.14,2.88-1.61,3.61-2.91,1.88-3.35,3.27-6.89,6.86-9,2.09-1.26,0-4,1.12-5.83.67.26,1.36.75,2,0a.93.93,0,0,0-.19-.85c-.88-.35-1.31.36-1.78.91A2.61,2.61,0,0,0,157.71,891.71ZM306,498.8c-.35,1.29-2.41,2.69-.58,3.86,1.4.88,3.5.23,4.72-.85,1.75-1.54-.17-3.14-.8-4.43s-2.14-1.95-3.27-2.9c1.1-1.94,2.79-3.62,2.36-6.19-.23-1.4.09-2.88,1.82-2.9,1.37,0,2.32.82,2.5,2.49.56,5.08,1.23,10.14,2,15.19a20.38,20.38,0,0,0,1.33,3.66c.66,1.83,1.45,4,3.79,3.24,2.14-.72,1.95-2.93,1.42-4.88-.29-1.07-1.08-2.63-.65-3.18,5.59-7.18-1.08-12.19-3.82-17.09-1.82-3.25-6.67-5.14-8.56-9.16-2,1.42-1.14,2.62-1.25,3.66s-.32,2-1.44,2.15c-1.38.22-1.9-.64-2.21-1.92-.62-2.55-.15-6.91-4.67-1.95-1.24,1.36-5.81-.31-8.92-.6-.17,2,2.41,3.05,1.49,5.29a1.75,1.75,0,0,0,1.84,2.27c8.32-1.82,9.85,5.13,13.08,9.9C305.14,495.86,306.41,497.34,306,498.8Zm67.52-266.46c2.08-1.12,3.83-2.43,3.06-5,1.44-2.12-.07-5.25-.69-5.7-3.28-2.37-.79-3.93.55-6.14-3.22,1.77-5.64.68-7.6-1.36-2.64-2.74,1.36-4.66.85-7.42-2.33,5.08-9.12,6.58-9.77,13-.11,1.16-.6,2.16.57,3a2.44,2.44,0,0,0,3.09-.16,10.35,10.35,0,0,1,3.58-1.49,2.34,2.34,0,0,1,2.93,2c.44,2.21-1.28,1.72-2.52,1.89-2.43.32-4.83.78-7.26,1.1-4.67.62-8,5.82-6.27,10.28a4.43,4.43,0,0,1-.34,4.26c-1.21,2-1,3.89.73,6.17,2.34-3.42,5.3-4.68,9.45-4,3.65.63,6.07-.27,4.14-5.28-1.55-4,2.87-6.95,4.06-10.63.52-1.63,3-.31,4.55.41ZM260.05,970.67c1.62-5-.46-7.28-5.61-6.9-2.28.17-5.08-.16-6.17-2.8-1-2.43-3.21-3-5-4.25-2.3,1.28.13,4.52-2.52,5.21-2.37.62-3.73-1.43-5.51-2.35-2.34-1.21-4.59-2.61-7-3.77-.68-.33-1.49-1.29-2.71-.07,2.27,2.36,5.24,3.9,6,7.91.47,2.36,2.33,3.65-1,4.78-.94.32-.94,1.07-.52,1.79s1.23.67,1.92.21a19,19,0,0,1,3.32-2.15c2.57-1,5.37-2.07,5.38,2.58,0,.91.25,2.46.74,2.62,4,1.31,7.64,2.46,4.72,8-.37.7,1.49.38,2.32.55,3.5.69,5.88,3.07,8.36,5.45.9.87,2.14,4.13,4.23,1.08,1.48-2.17,3.6-4.79.79-7.1-2.38-1.95-2.64-3.87-1.76-6.41a10.94,10.94,0,0,1,8.72,4.3c-.31-4.19-.83-6.72-4-7.82-3.4-1.16-3.37,2.08-4.67,3.62C258.1,973.65,259.54,972.26,260.05,970.67ZM235.67,43.36c5.53-2,6.8-5.13,4.3-10.62-.27-1.19-2.33-3.52.21-3.27,3.57.35,3.72-2.28,5.4-3.77,4.34-3.84,1.48-5.63-1.93-6.19-4.77-.79-9.56-2.83-14.55,1-2.54,1.95-7.09,2.51-8-3.27-.39-2.52-2.62-1.79-3-.37-1.22,4.66-5.26,3-8,4.27-3.95,1.84-8.14-.68-12,1.32-2.25,1.16-4,2.83-3.9,5.12.1,4-1.43,3.6-4.13,2.35s-4.82.33-3.19,2.7c2.95,4.29,0,7-1.38,10.25-.64,1.46-3.53,3.26-.82,4.61,2.36,1.18,2-2,2.67-3.26,2.12-3.84,3.72-8.12,9.33-7.54,1.6.16,1.8-.67,1.9-2,.42-5.24,1.22-6.05,4.55-3,4,3.74,5.53.17,8.2-.54-.6-2.12-2-1.58-3-2-1.74-.71-2.44-1.84-1.36-3.51s2.45-1.51,3.65,0c3.71,4.59,8.18,4.8,13,2.09,2.15-1.22,4.89-1.06,5.71.41,2.55,4.57,6.27,5.18,10.75,4.56C239,36.41,235.6,39.16,235.67,43.36Zm-22,689.35c-.78,1-2.11,1.84-1.46,3.4.92,2.19-.07,3.33-2.08,3.6-2.8.37-2.81-1.86-2.94-3.68a36.92,36.92,0,0,1,.2-4.4c-2.21-.7-3.37.65-3.75,2.32a46.33,46.33,0,0,1-4.83,13.19c-.89,1.51-.47,2.51,1,3.19,3.87,1.81,1.2,4.36.9,6.73-.22,1.75-7.51,1.19-1.57,4.83-.46.57-1,1.67-1.37,1.62-6.67-.7-5.14,5.85-7.53,8.8-1.78,2.19,1.12,4.06,3.07,3.88,3.88-.36,6.23,1.54,8.81,3.86,1.28,1.15,2.82,2.6,4.92,2.33,3-.39,4.09,1,4.08,3.86a3.19,3.19,0,0,0,2.82,3.13c2.32.37,2.3-2,2.44-3.11.69-5.47,6.23-8.49,6.91-14-2.48.07-3.49,2.13-5,3.55-1.2-8.85,1.71-13.19,7.88-12-.38.79-1,1.65.1,2.29a1.41,1.41,0,0,0,1.31-.4c.63-1.11-.33-1.53-1.08-2,1.07-1.41.11-2.63-.59-3.62-1.71-2.37-.61-3.74,1.64-3.87,3.44-.21,3.29-3.2,2.53-4.32-2.52-3.72.26-4.84,2.54-5.56,5.57-1.77,4.85-6.24,4.45-10.17-.29-2.87-2.37-2.2-4-.58a57.65,57.65,0,0,0-10.71,15c-1.87-2.25-.59-4.2-1.07-5.84-.25-.84.36-2.34-.71-2.5-6.74-.95-2-4.08-1.84-6.57,1.73.34,1.72,1.37,1.95,2.26s.16,2.08,1.45,2.07c1.09,0,1.52-.84,1.75-1.87.66-2.91.31-6.08,2.2-8.69-2.81-1.23-1.56-3.34-.24-4.18,2.41-1.52,2.67-3.93,3.57-6.1s1.57-4.66,2.61-6.87c.3-.64,1.49-1,2.35-1.23a5.68,5.68,0,0,0,4.59-5.68c-.37-6.09,1.57-11.65,2.55-17.45.25-1.47,2-4.83-1.17-5.2-2.71-.33-3.55,2.72-4.31,5-.26.78,1.43,2.48-.83,2.23-1.7-.19-1.77-1.69-1.16-3.1.14-.34.52-.58.64-.93.83-2.48,3.89-5.72.22-7.26-2.47-1-4.93,2.49-5.71,5-3,9.71-8.37,18.58-10,28.74-.85,5.33-3.71,9.39-7.81,12.7l-.41,0,.39-.12C216.33,726.34,216.57,729.05,213.7,732.71ZM309,875.28c-1.25-1.34-1.68-2.53-.88-4,1.13-2.06,1.85-3.65.21-6.13-1.42-2.16,2-5.3,7.18-7-1.32-2-5.16-3.88-.64-6.53,1.09-.64-.39-1.78-.93-2.73-2-3.57-4.83-7.06-2.24-11.62.37-.66.22-2.42-.15-2.57-4.2-1.79-5.24-6.39-8.22-9.3-1.83-1.78-5.8-4.22-3-8.3a3.41,3.41,0,0,0-.16-4.63c-1.65-2-2.84-4-.32-6.38,1.5-1.41.39-2.73-.85-3.79-2.08-1.77-4.6-2.42-7.2-3.05s-4.68,1-6.09,2.21.31,3.77,1.62,4.93c4.73,4.19,2,9.94,3.33,14.83.36,1.37-1.37,4.2-2.62,3.87-5.8-1.56-5.57,2.27-6.15,5.88-.29,1.79-2.14,2.19-3.65,1.86-4.67-1-4.4,1.24-2.82,4.19,1.19,2.23-.05,3.53-1.4,4.91-1-.31-1.45-1.88-2.85-1.16,2.71,2-2.38,4.46.14,6.09,2.78,1.8,1-2.64,2.86-2.52,1.55,1.15,2.32,2.39.95,4.28-2.74,3.74-2.95,8.22-3.38,12.6-.2,2,4.33,6.13-2.46,5.16-.73-.1-.54,1.84.2,2.33,6.69,4.4-.81,6.7-1.72,9.71-1.07,3.56-3.18,1.16-5-.32-2.29-1.83-3.16.3-3.05,2a5.64,5.64,0,0,0,2,3.91c6.15,4,7.2,9.07,4.72,15.84-.93,2.54,1,5.67,3.34,8.94-4.59-.82-7.15-3.58-10.84-5.09-.07,2,1.9,3,1.41,4.72-.36,1.3,6.86,8.26,8.14,8.13a1.72,1.72,0,0,0,1.27-.88c.57-2.07,1.3-4.65,3.79-3.87,2.08.65-.09,3.73,1,5.07,2.67,3.37,1,5.89-1,8.54-.82,1.1-1.78,2.26-3.24,1.69s-.5-1.85-.35-2.9c.53-3.67-2.33-4.76-5.31-6.45-.34,4.72-2.63,5.21-6.08,2.85-.9-.61-2-1.39-3-.14a2.19,2.19,0,0,0,.26,3c1.35,1.4.66,3.28.67,4.76,0,7.9-.13,7.88,7.61,8a18,18,0,0,0,13.75-5.27c2.22-2.19.26-5.43,2-6.83,5.47-4.38,4.75-12.22,9.84-16.68,2.36-2.06.21-3.31-1.06-4.45-1.64-1.48-2.79-3.84-.93-4.75,5.73-2.81,5.59-11.61,13.4-12.32,2.9-.27-.3-3.37.27-5,3.66.07,2.25,3.28,4,5,2.14-6.21,11.87-.8,12.81-9h.44l-.43.06C314.68,878.63,311.71,878.21,309,875.28Zm73.15-684c2,.79.66,2.18.05,3.25-1.31,2.28-3,4.33-3.79,6.95-1.06,3.46-2.16,6.47,1,9.76s1.84,7.27.36,11c-.32.82-1.09,1.84.08,2.47.51.27,1.78.15,2-.23,2.42-3.82,6.95-3.66,10.35-5.59,5.23-3,5.45-5.45.55-8.81-3.84-2.64-3.46-4.28,1.82-7.91-.05-1.25-1.06-1.36-1.94-1.63-3.36-1.05-7.56-1.54-3.59-6.67a3.22,3.22,0,0,0-.53-4.23c-4.06-2.72-6.92-8.5-14.19-5.44C377.67,186.25,378.72,189.89,382.14,191.25Zm-203,667.86c.68-.3,1.62-.8,2.15-.56,6,2.73,9.16-1,12.55-5,1.54-1.81,3.86-3.86,2.28-5.64a10.78,10.78,0,0,0-7.49-3.38c-2,.08-3.91.5-5.85-.37-.34-.15-1-.39-1.05-.27-3.23,4.22-8,3-12.49,3.82,1.82,1.13,3.69,2.18,5.43,3.4s4.62,1.91,3.43,4.38-3.11-1.1-5.33-.22C173.08,859.7,175.23,860.85,179.1,859.11ZM289.73,113.32c-.7,2.35.45,3.4,2.6,2.85,4.09-1,6.87,1.36,9.8,3.37,1.54,1.06,4,1.85.78,4.33-2.2,1.71.62,3.22,1.53,4.64.8,1.26,1.93,1.47,3.41.64,1.87-1.05,1.45-1.86.66-3.55a6.8,6.8,0,0,1-.11-5.41c3.2-5.66-2.75-9.33-2.75-14.26,0-1.09-1.82-2.22-3.18-1.69-3.24,1.26-6.22,3.3-10,2.45-.25,0-.71.79-1,1.09C290.88,109.73,290.27,111.52,289.73,113.32ZM200.64,633.54c-.11-1.52-.45-2.52-1.82-3.12-3.28-1.43-7.11,2.48-10.37-1-.24-.25-1.34,2.23-1.26,3.8.35,6.35-.69,12.73.58,19C197.24,648.44,201.29,642.49,200.64,633.54Zm-2.32-11.4c4.54-6.22,1.05-12.54,1.34-18.77,0-.75-.42-1.66-.12-2.21s1.28-1.07,2-1.59c-.25-.23-.45-.56-.74-.67-1-.41-2.21-1.19-3.16-1-1.62.34-1.49,2-1.32,3.29.62,4.7-2.58,8.11-4,12.11-1,2.65-2.15,5.22-3.09,7.88a3.7,3.7,0,0,0,.75,4C192.92,627.17,196.25,625,198.32,622.14ZM442.16,405.92c2.4,2.93,3,6.71,3.11,10,.08,3.56,1.65,5.91,3.31,8.49.79,1.23,1.64,2.83,3.54,1.82a3.38,3.38,0,0,0,1.56-4.83c-3.14-6.13-4.81-12.94-8.64-18.74-.9-1.37-1.83-3.29-3.56-1.08C440.43,403.4,441.2,404.75,442.16,405.92Zm-148.6-336c-3.09-.21-7.82,5.53-6.75,7.88,2.67,5.86,8.15,4.55,14.36,4.69C297.44,78,301.4,70.4,293.56,69.87ZM281.86,244c2.75,1.32,6.11-.27,7.8-2.54,2.28-3.07.54-6.77-.2-10.17-3.53,1.42-7.89,1.64-9.36,6.79C275,241.12,279.94,243.1,281.86,244Zm72-41.68c-3.75-3.56-7,.52-10.52,0-1.17-.16-.28,3.35.25,5s1.72.95,2.57-.13c2.11-2.72,4.06-2,6.06.22,2.8,3.15,6.89,2,10.05,1.84,3.32-.18,0-4.56,2.13-6.46C360.61,205,356.74,205,353.9,202.35ZM347.23,741c2.35-.26,5-1.69,4.72-4.58-.34-3.09-3.2-3.38-5.73-3.1-1.84.2-3.62.91-5.45,1.26-1.42.28-3.48-.06-3.62,1.77-.12,1.59,1.87,2.08,3.14,2.82A9.38,9.38,0,0,0,347.23,741ZM340,538.09c1.65.39,2.86.89,3.72-.88.95-1.93,0-3.22-1.59-4.23a15,15,0,0,0-6.42-1.83c-.92-.12-1.87,0-2.79-.09-2.2-.21-4.42-4.4-6.05-1.47-1.29,2.33,3.4,2.6,4.64,4.79A35.59,35.59,0,0,0,340,538.09Zm-11.62,324.5c-3.95,1.68-2.29,5.44-2.66,8.38-.12,1,1.81,1.48,1.71,1-1.09-5.23,4.28-4.66,6.29-6.16,3.45-2.57,2.2-3.55.19-5.47-.91-.86-1.73-1.81-3-3.18C330.77,859.72,330.69,861.62,328.39,862.59ZM437.37,319c-3.24,4.09-2.86,12.62,1.06,18.39C441.7,330.52,441,324.7,437.37,319ZM375.59,471.44c-7.5-2.91-15.27-1-22.92-1.13A44.16,44.16,0,0,0,375.59,471.44Zm-166-23.81c-.38-3.23-4.87-3.74-7.1-2.78-4.69,2,1.32,5.72-2.08,9.68C204.91,451.9,210.17,452.55,209.58,447.63Zm205.66,88.44a25.53,25.53,0,0,1-9.28,8.24c-.71.35-1.29.89-.88,1.75a2,2,0,0,0,2.37.94c2.35-.36,4.74-1.58,5.61-3.34,1.89-3.81,4.91-6.15,8.46-8.42C419,534.14,416.75,534,415.24,536.07ZM192.74,662.44c1.36,1.33,3-.4,3.18-1.84.26-2.93,4.47-5.68,1.23-8.53-1.9-1.67-4.09.4-5.57,2C190.52,657.17,190.51,660.25,192.74,662.44ZM320.65,897.85c-.74,2.65,2.18,2.9,1.19,4.65-.66,1.16-3.77,1.92-1.11,3.61a4.59,4.59,0,0,0,5.68-.41c1.34-1.16,3.49-1.37,4.34-4C327.2,900.68,323.21,902,320.65,897.85Zm-35.72,39.49c-.68,1.1-3.16,1.5-1.7,3.49a3.78,3.78,0,0,0,3.48,1.55c1.93-.24,2.8-1.79,3.45-3.38.83-2.07-1.44-3.87-.36-6.29C286.92,933.64,286,935.61,284.93,937.34Zm30.62-219.1c-1.83-7.34-5.41-8.94-12.43-5.48C307.85,713.09,311.41,716,315.55,718.24ZM265.7,80.16c-.09-.93.34-1.9-.79-2.33a3.48,3.48,0,0,0-1.52.08c.12,4.35-7.78,5.81-4,11.39C261.79,86.55,266.2,85.16,265.7,80.16Zm11.86,66c.37.74-.11,2.16,1.24,2.05a1.43,1.43,0,0,0,1.1-2.15c-1.89-4.31,4.88-4.65,3.59-9.47C280.62,139.59,274.4,139.85,277.56,146.2ZM187,819.72a2.3,2.3,0,0,0,1-3.4c-1.79-2.23-1.49,1.27-2.62,1.16-4.08-.38-4.52,3.91-7,5.7C181.92,823.35,184.33,821.17,187,819.72Zm127.48,82.76c1.17.9,2.88.48,3-1.13.15-2.15,2.08-4.66-.13-6.42a2.74,2.74,0,0,0-4.42,1.3C312.71,898.25,312.28,900.78,314.51,902.48Zm-89.25-230.3c0-1.37-.11-3.32-1.55-3.12-3.67.51-2.34,4.54-5,7.19C223,676.28,225.31,675.89,225.26,672.18Zm-19,147.31a1.31,1.31,0,0,0,.46,2.28c1,.35,1.73-.32,2.09-1.33,1-2.8,2-5.58,3.51-9.67C208.68,813.67,208.8,817.39,206.28,819.49ZM226.61,56.78c-.59,1.16-2.73,2.54-.78,3.75,1.44.9,2.68-.88,3.58-2.08,1.26-1.68,2.23-3.46.49-6.43A47.81,47.81,0,0,0,226.61,56.78Zm-10,881.55c.37-2.23,2.49-4.46.22-6.7a2.22,2.22,0,0,0-1.9.62c-.85,2.51-2.59,5.21.78,7.43C216.08,939.22,216.59,938.81,216.66,938.33ZM346.09,705.78c-1.29,1-.58,2.31.66,2.39,1.63.1,3.69,2.15,4.93-.43a3.76,3.76,0,0,0-.91-4.19C348.48,702.69,347.44,704.72,346.09,705.78ZM203.49,576.72a1.88,1.88,0,0,0-1.44.24c-.78.72-.93,2-.11,2.46,2.29,1.25,2.07,3.82,3.22,6C208.62,581.4,204.73,579.32,203.49,576.72Zm72.77,216.39c-4.84-1.16-4.84-1.16-4.46,6.45C273.39,796.41,274.26,794.44,276.26,793.11Zm.56-723.84c1,.78,2-.29,2.52-1.35s2-2.23.58-3.43c-1.14-.95-2.49-.44-3.55.63C275.77,66.58,275.6,68.29,276.82,69.27ZM258.2,64.08c-1-.78-1.79-3.24-3.36-1-1.1,1.58.73,2.29,1.86,2.75,1.84.75,3.31,2.54,6.4,2.08ZM211.51,689.81c-.65,1.2-1.28,2.77.35,3.42,2.59,1,3.28-2,4.92-3,1.23-.77.48-2-.8-2.68C213.81,686.78,212.5,688,211.51,689.81Zm50.68-37.07a1.22,1.22,0,0,0,2.24-.15c1.21-2.64-1.83-3.2-2.68-4.87-.38-.74-1.47-1.1-2.41,0C259.2,649.92,261.25,651.05,262.19,652.74ZM162,639c-3.63.12-4.57,2.15-4.08,5.2ZM285.37,134a1.53,1.53,0,0,0-1.05-2.2,2.39,2.39,0,0,0-2,.39c-.89.91-.18,1.64.7,2.17S284.85,135,285.37,134ZM183,758.76c-.06.17.73.94,1,.87a2.56,2.56,0,0,0,1.92-2.78A2.53,2.53,0,0,0,183,758.76Z" fill="#9bb0aa"/>
        <path d="M397.38,330c-.79,1-1.37,2.39-3.07,2-4.68-1.11-9.63-.68-14.09-3.15-4.78-2.66-9.51-.72-9.24,4a31.08,31.08,0,0,0,2.54,11.74c5.69,11.94,13.29,22.68,20.56,33.65,2.67,4,7,5.31,11.1,2.77,3-1.9,6-.92,5.58,2.42-.77,6,2.81,5.06,6.17,5,1.22,0,2.61-1.07,3.57,1.43-6.8,4-14.37,6.36-21.8,8.94-6.48,2.25-12.65-.7-19-1.24-4.35-.36-6.58-2.26-7.61-6.14-.36-1.33.26-3-2.38-2.74-2.2.23-2.6,1.1-3.06,3s.65,4.24-1.89,5.55c-6.5,3.35-16.43-1-18.9-8.23-1.33-3.88-7.35-7.6-7.92-6.93-3.92,4.58-5.45-.3-7.92-1.2-1.43-.53-2.12.67-2.3,1.81-.27,1.59-1.18,4.3.7,4.52,5.41.62,4.25,4.76,4.53,7.76.49,5.06,2.46,8.15,7.85,8.58,2.94.23,5.7,1.55,8.85.68,1.41-.39,4.4-.43,2.7,2.92a2.22,2.22,0,0,0,.75,3c4.55,3.12,7.44,9.15,14.29,8.28a2.35,2.35,0,0,1,2.46,1.06c.65,1.19-.55,1.6-1.28,2.09-4.17,2.79-8.33,5.59-12.56,8.27-.74.47-2.26.87-2.68.49-4.35-4-11.81-4.48-14.47-8.83-2.45-4-2.87-9.2-7.15-12.84-2.08-1.77-12.87-6-13.65-3.51-1.63,5.33-6.3,9.5-5.5,15.85.35,2.84,3.1,6.09-.06,8.94-3.7,3.36-.31,4.05,1.9,4.56,1.76.4,3.93-.73,5.57-.17,7.23,2.47,13.67,2.12,19.14-4.26a16,16,0,0,1-2.66,5.24c-2.33,2.94-.3,5.59.77,7.93,1.34,2.95,4,.75,6.07.43,1.64-.26,3.16-1.23,4.77-1.75,1.06-.35,3-.63,2.95.52-.29,6.24,5.52,7.59,8.57,11.09,1.63,1.88,1.63,2.92-.64,3.67-4.89,1.61-9,5.6-14.85,4.43-1.6-.32-4.11.42-4.46,2.7-.43,2.78,2.16,2.43,3.83,3.08,2.23.88,5.38-.22,7.09,3.5-8.35-.95-16-3.74-25-3.5,2.91,3,7.33,5.28,1.21,8-1.5.68-.42,2.71-.47,3-9.34-5.8-19.31-11.32-28.55-17.86C284,450.75,270.15,441.12,253.35,437c-1.67-.41-4.07-.28-3.78-3.17.41-11.49-1.58-22.63-3.57-33.93-1.2-6.79-1.61-13.93-2.84-20.87-.46-2.65-1.29-3.3-3.94-2.48-6.91,2.13-13.64,4.71-20.39,7.28-13.32,5.06-26.79,9.69-40.22,14.47-1.87.67-4.27,1.09-4.48,3.33-.23,2.52,2.51,3,4.16,4.07,6.84,4.41,13.75,8.7,20.63,13-1,1.53-3.11-.56-4,1.23-5.88-3.88-12.8-4.16-19.39-5.54-2.54-.7-5.13-1.26-7.61-2.12-8.28-2.89-16.88,1.14-25.18-1.26a1.75,1.75,0,0,0-2.34,1.75c-.38,4.55-4.54,5.21-7.42,7-2.27,1.43-3.72.68-2.91-2.32.63-2.37,1.18-4.77,1.93-7.11.87-2.69-1.28-3.34-2.84-4.11-1.74-.86-3-3.57-5.3-2.26-1.82,1-1.67,3.15-1.27,5.15.72,3.62,0,6.82-3.31,9.49-1-2.3.6-5.53-2.33-6.12-2.74-.54-2.49,2.9-4,4.06-2.9,2.23-3.66,6.08-7.1,8.12-2.44,1.45-3.84,4.72-4.15,8.55,4.23-2.74,7.54-5,10.34,1.21,1.7,3.75,6.23,3.47,8.71.1,1.62-2.2,2.93-4.64,4.37-7,1.21,8.21-.52,15.66-2.15,23.15-1.07,4.92,1.42,8.82,4.75,12,3.8,3.6,4.06-2.75,8.46-3.5-5.8,6.19,1.77,7.55,1.88,11.71,1.3-1.22,1.79-3,2.92-3.65,3.21-1.73,7.19-3.75,10.31-1.38,2.65,2-.86,4.46-1.82,6.63-1.58,3.59-4.7,6.68-4.54,10.81.28,7.43.86,14.86,1.66,22.25.58,5.36-1.57,11.44,4.08,15.66,1.6,1.19.28,3.14-.59,4.63s-2.48,2.39-1.47,4.41c2.38,0,3.79-4.7,6.16-1.75,1.54,1.92,1.5,4.89-1.33,6.88-1.38,1-1.15,2.39.07,3.9,4.92,6,3.53,11.83-3.55,15.89a2.72,2.72,0,0,0-1.25,1.73c-.76,6.65-3.9,12.41-6.87,18.25.5-.36.66-.9,1-1.29,2-2.4,2.61-8.08,6.72-6,4.31,2.17.52,5.91-1.17,8.54-1.86,2.89.2,3.64,2,4.68,1.59.92,3.19-1.35,4.85,0-.39,1.71-.79,3.91-2.4,4.27-3.22.72-3.91,2.55-4,5.44-.06,1.61-3.06,3.28-.52,4.81,2.16,1.31,1.82-2.84,3.86-2.69,3,4.71,3,4.71.5,10.16-.55,1.2-1.09,2.41-1.66,3.59s-1.14,2.16.15,3c1,.61,1.81-.08,2.43-.83a7.41,7.41,0,0,1,6.79-2.86c.2,3.31-1.08,5-4.08,6.15-3.61,1.34-4.91,4.42-3.93,8.12,1.76,6.73.94,13.72,2.1,20.58.64,3.79-.58,8.83-1.72,13.14-.51,2-.08,3.29,1.61,3.43,5,.42,2.85,3.28,1.92,5.45-1.29,3-2.74,6.78-1.25,9.07,1.72,2.64,1.05,4.51.94,7-.16,3.73-3.16,5.86-4.54,9.58,1.63-.46,3.45-1.77,3.95-.36,1.26,3.54-3.83,4.16-3.69,7.13,1.1-1.86,2.45-1.44,4.59-.85,2.58.71,5.27,1.15,4.68-4.23-.41-3.69-4.87-4.79-3.55-8.58,3.23-9.3,2.62-19.29,5-28.77.49-1.9,2.51-2.73,2.24-4.93-.8-6.68,3.84-12.69,2.51-19.54-.25-1.24,1.36-2.53,2.56-3.56,2.23-1.94,3.28-5.19,1.35-7-4.57-4.28-2.29-10.08-3.61-14.92-1.51-5.53.2-12.72,1.6-18.53,1.79-7.44,0-14.54,1-21.79.83-5.89,2.94-12.38,8.31-15.14,1.6,4.17-1.36,7.5-3.15,11.85l4.7-2.55c-.77,5.74,3.17,11.82-2.71,16.32-.61.47-.2,1.28.12,2,1.64,3.74.27,7.73.82,11.57h-.9c.44,1,.63.26.87-.13,5,3.92,2.07,9.92,2.54,14.46.63,6.13,0,12,4,17.33,1.36,1.82-2.78,11.28-5,12-1.54.48-3.38,1.38-4.25-1.1-.45-1.28-1-2.81-2.61-2.46-2.24.5-2.22,3.62-1.78,4.18,3.91,4.82-4.36,11.57,2.59,15.73.1.06,0,.78-.23,1-2,2.4-2.54,4.47-.58,7.56,3.58,5.68-4.35,12.76,1.69,18.56.23.22-1,1.88-1.42,2.92s-1.62,1.91.72,3c.42-2.32,2.13-3.79,3.66-5.31,3.16-3.11,9.69-3,10.2.23.64,4,.59,8.66-.85,12.38-1.62,4.23-5.22,7.73-1.3,12.38,1.15-1.62,2.39-3.42,3.69-5.17.85-1.14,1.52-3.15,3.41-1.78,1.42,1,1.74,2.77,1.38,4.6-.29,1.47-2.94,1.35-2.21,3.43,4.31-.41,4.21-.45,5.5-3.81s1.55-7.44,6.28-8c1.23,3.42-2.48,5.88-1.67,8.28,1.29,3.78-.26,5.56-2.73,7.66a2,2,0,0,0,.45,3.35c1.49.72,2.47-.44,3.22-1.57,1.68-2.53,1.68-5.82,3.78-8.16.65-.72,1.25-1.5,2.34-.94a1.59,1.59,0,0,1,.73,2.38c-2,3.39-1,7.38-3.15,11.1-4.09,7.23-5.35,15.66-6.34,23.94-.14,1.18-.1,2.29-1.39,2.8-4.08,1.59-5,5.23-6.15,8.92a16.17,16.17,0,0,1-3.14,5.3,3,3,0,0,1-3.67.72c-1.63-.92-.66-2.24-.17-3.45.78-1.93,1.53-3.87,2.19-5.84a1.29,1.29,0,0,0-.89-1.78c-.84-.23-1.93.29-1.76.88,1.28,4.49-5.73,6.94-2.82,11.84a1.14,1.14,0,0,1-1.5,1.57c-2.72-1.21-4-5.14-7.9-4.23,2.1-3.17-1.38-7.61,1.72-10.18,6.94-5.78,3.38-13.65,4.72-20.53.18-.92.17-2.05-1.09-2.21s-1.48.9-1.51,1.88c-.28,8.62-5.06,16.14-6.06,24.61-.34,2.83-2,7.18-4.07,6.83-5.38-.91-3.66,2.31-4.33,4.87s-1.54,4.68.69,6.73c2.63,2.41,4-.22,5.65-1.45a1.75,1.75,0,0,1,2.83.61c.41.73.19,1.84-.53,1.93-6.93.85-4.18,8.49-8.45,11.53,2.49-.75,4.09-1.44,6.5.61,2.12,1.82,6.06,2.31,9,2,1.51-.16.73-3.65.76-5.67,0-.66.4-1.68.9-1.88,1-.44,1.47.57,2.12,1.29,1.65,1.84.21,4.58,2,6.27,7.12,6.72,5.64,15.17,4.7,23.48-.17,1.54-.35,3.74-2.86,3.34-2-.33-3.13-2.15-2.33-3.8,2.46-5.08-2.1-10.33.73-15.37,1-1.78-.33-3.37-1.9-4.21-2.13-1.15-2.32,1.15-3.23,2.13l-1.31-.21.75,1.1a2.61,2.61,0,0,0-1,2.45.71.71,0,0,0,.53,0c1.06-.67.69-1.56.34-2.44l.64-1c3.06,2,1.55,4.25.24,6.32-1.71,2.68-3.42-.14-4.77-.54-4.44-1.33,2.15-3.31-.58-5.34-3,1.89-5.33.17-7.16-2.71-.7-1.11-1.56-1.74-2.74-1a1.78,1.78,0,0,0-.65,2.49c2.26,2.59,1.77,7.14,6,8.3,2.95.81,2.21,7.31,7.38,4.87a4.93,4.93,0,0,1,.57.9c1.21,2.31-.92,17.4-2.71,19.4-1.36,1.52-3.17,1.9-5.05,2.29-2.34.48-4.95.53-6.29,3.09l-.26.06c-7.85-4.63-16-1.66-23.92-.47a43.82,43.82,0,0,0-7.23,1.27c-7.52,2.45-12.18,8.58-18.62,12.21-1.26.71-2.24,2.52-3.87,1.63-2-1.08,1.09-2.82-.16-4.54-14,7.47-29.28,9.67-44.6,12.59a63.82,63.82,0,0,0,1.9,13.83c-6.67-3.4-12.82-4.92-18.94-6.55-2.23-.6-3.11-2-3.75-4.36-1.19-4.21-7.37-7.3-10.3-4.79-3.55,3.05-6.23,1.31-9.3.24s-6.32-2.56-9.56-3.62c-7.34-2.39-8-1.74-6.53,5.67L.56,840.78c.13-1.95,2.16-4.89.59-5.51-1.74-.68-4.43,1.05-6.7,1.73-8.55-5.23-17.12-10.44-25.66-15.7C-42.83,814.13-54.45,807-66,799.69c-1.25-.79-4.81-1.7-2.13-3.76C-64.33,793-63,788.31-59,785.5a104.12,104.12,0,0,0,16.83-13.9c3.47-3.66,7.92-7.39,13.62-8,6.42-.7,8.46-5.34,9.65-10.66.55-2.44.91-5,3.4-6.12,6.37-2.71,12.34-7.28,20.1-3.88,1.69.74,4.24-.33,6.52-1.19,4-1.49,4.69-5,6.69-7.51C23.57,727,30.74,720.43,32,710.39c.2-1.58,1.63-2.74,2.94-3.95,8-7.39,13.05-16,11-27.57-.75-4.17.23-8.46.89-12.71a73.92,73.92,0,0,0-1.11-27.59c-5-22.08-14.59-42.78-20.34-64.75C21.7,560,16.05,546.6,13.24,532.47c-2-10.23-5.25-20.25-6-30.71-.63-8.37-2.22-16.43-.26-25.26,1.24-5.59-2.14-12.85-4.67-19.12C.45,452.89-1.35,448.33,0,442.77c.71-3,1.51-7.75-.39-10.35-3.63-5-7.23-10.54-12.68-13.61s-7.63-6.85-7.1-12.61a23.29,23.29,0,0,0-.77-6.63c-1.5-8-2-15.83,3.57-22.76.9-1.12,1-2.83,1.85-4.06,6.18-9.38,8.15-21,15.65-29.63a67.56,67.56,0,0,0,6.32-8.69,9.69,9.69,0,0,1-1.11,9.39,35.38,35.38,0,0,0-5.57,11c7.82-2.41,7.7-12,15.32-13.81a26.59,26.59,0,0,1-5.73,15.76c-1.26,1.6-2.88,3.68-.19,4.34,1.85.46,4.63,3.95,6.69-.19.7-1.39,1-4.09,3.11-3.28s.05,3,.14,4.52c.2,3.68-1.54,5.86-4.15,8.54-5,5.15-10.17,10.45-12.59,17.63-.9,2.66-.7,4.42,2.32,3.79,2.1-.44,3,.11,3.27,1.79,1.33,7,5.59,13.19,5.56,20.56,0,4.61,2.09,8.27,5.35,11.35,1.07,1,2,2.15,3.9,1.58,6.54-1.94,10.69,1.65,14.19,6.47.65.9,1.14,2.33,2.42,1.54,1.07-.67.46-2,.11-3.11-1.38-4.35-3.95-8.15-6.57-11.68-5.24-7-5.84-15.39-5.94-23.24-.08-5.78,3.31-11.76,5.85-17.33.84-1.84,2.75-2.49,6.47-1.59,6.94,1.67,4.44,5.48,4.61,9,.56,10.94,8.67,18.66,19.29,22.1,5.63,1.82,11.55,1.36,16.83,3.88-.89-6-.43-6.37,6-4.78,1.56.39,2.57-.53,3.5-1.4,1.58-1.47,1.81-3.66,2.66-5.52,2.08-4.52,2.84-6.85-2.81-10.65a106.26,106.26,0,0,0-14.68-8.81c-3.56-1.66-4.91,1.06-7.26.47-.4,2.91,4.46,2.68,2.57,5.88-.74,1.25-1.78,1.13-2.94,1.06-4.07-.24-1.84-3.5-2.3-5.23C63.13,378.07,67,372,66.05,365.56c-.17-1.07,2.53-1.79,3.87-1.51,3,.62-1.3,2.87,1,4.12,2-2.75,2.85-7.36,8.07-5.8.17.05,2.19-3.61,2.06-5.45-.69-9.95-1.93-19.8-8.48-28.05-2.35-3-5.49-4.56-8.76-6.08,8.9-2.37,17.7-5.46,26.76-6.83,5.41-.81,5.75-2.76,5.56-7.24-.52-11.69-1.53-23.5.45-35.06a376.88,376.88,0,0,0,5.14-57.93,45.06,45.06,0,0,1,26.17-40.52c4.08-1.94,8.31-3.4,12.44-5,8.88-3.41,16.73-8.92,26-11.62,7.92-2.32,8.7-6.36,4-13.61a10.7,10.7,0,0,1-1.11-3.13c-2.22-8.63-2.29-17.4.69-25.68,1.53-4.29.81-6-2.78-8-6.55-3.75-6.54-4.73-4.12-12,1.55-4.62,3-10.17.08-14a45.39,45.39,0,0,0-7.65-8c-2.81-2.23-3.17-4.46-.88-7.5,7-9.32,13.76-18.81,20.61-28.23,1.46.44,2.57.4,2.22-1.63l1.76-2.61c2.71,1.25-.62,3.42.73,4.92,1.52.76,3.53-3.22,4.48.15.5,1.82-1,3.62-3.23,3.86-1.63.17-3.22.6-3.64,2.21-1,4-4,6.82-6,10.23-3.1,5.36-1.5,9,4.69,9.49,4.86.36,10.15-3,14.44,2.07.31.36,2.46-.16,3.09-.86,1.91-2.15,3-1.12,4.48.48a22,22,0,0,0,4.53,3.39c2.09,1.31,3.92,1,3.85-1.8-.13-5.59,5.22-9.18,5.08-14.8,0-1.62,1.8-2.15,3.55-1.87a3.51,3.51,0,0,1,3.14,4c-.27,1.48.23,4.53-2.16,4.48-5.62-.12-3.21,4.53-2.69,5.68,2.69,6,4.48,13.1,13,13.87,1.65.15,3.59,2.67,4.58-.36.62-1.91.3-4.78-2.33-5-2.9-.2-1.46-1.33-.85-2.19,1.72-2.42,3.83-.5,5.69-.22,1.56.23,2.94,1.49,2.15,3.29-2.41,5.48,1.68,8.75,4.08,12.57.56.89,2,1.14,2.17,2.46.58,5.16,4.38,5.48,8.29,5.34.92,0,1.84-.51,2.6.21,4.78,4.54,7.92,3,9.88-3.21C263.94,97,266,98,269.43,95.67a38.48,38.48,0,0,1,6-3.2c4.57-2,10.36,0,11,4.43s1.61,9,0,14.2c-2.34-2.89-2-6.54-4.85-8.2-.79-.46-1.62-1.25-2.55-.57s-.67,1.57,0,2.46c3.48,4.85,1.44,9.68-.11,14.46,1.48,1.86,3.54-1.55,5,.53-3.19,6.06-3.21,6.09-8.82,3.28-1.93-1-3.78-2.13-5.28.57-.55,1,1.56,9.16,2.61,9.49,4.62,1.46,2.27,4.14,1.28,6.66-1.33,3.38-4.4,3.23-5.77,1.27-3.14-4.46-8.78-6.32-11.13-11.38-.51-1.08-1.08-2.15-2.4-2-1.61.18-1.38,1.62-1.29,2.67.29,3.32-.21,6.88,2.76,9.44a3.85,3.85,0,0,1,.33,6c-3.11,3.32-2.65,8.18-5.45,11.67-.84,1.05-.33,4.56.85,4.27,7.4-1.86,10.54,6.54,17.22,6.66,2.41,0,5,.93,7.68.89s4.07,4.1,5.94,3.33c3.69-1.52-2.58-3.9-.1-6.61,2.11-2.31-.27-2.07-1.78-1.87-2.33.29-5.85.23-5.34-2.31.77-3.8-1.57-9.64,5-11,1-.21,1.47-1,1.91-1.91.71-1.4-.16-5,2.77-3.49,2.36,1.2,6.5,3.36,5.44,6.26-2,5.47.56,8.24,4,11.34,1.27,1.14,1.1,4.86,3.1,4,4.39-1.89,6,1.77,8.8,3.17,3.32,1.69,6.58,3.37,10.52,3.36,2,0,4.32.84,5.24,2.79,4.08,8.68-2.6,20.65-11.95,21.85-1.84.23-3.58,1.14-5.41,1.54-5.67,1.25-9.79,5.5-14.82,7.75-14.13,6.33-27.29,13.24-34.62,28.09-3,6.1-7.09,11.38-1.26,17.82,1.73-.71,1.58-2.71,2.46-4.08.68-1.07,2.34-2.67,3.07-1.7,2.09,2.81,6.47.46,8.12,4.16.64,1.44,2.76.9,2.94-.69.46-4.1,4.4-3.76,6.41-6.35,1.24,4-4.3,5.08-2.7,7.78,1.36,2.28,5.25,2,6.8,4.78,1.9-1.68,1.34-3.54,1.71-5.13.28-1.21.89-2.16,2.24-2.14a2,2,0,0,1,2,2.31c-.11,2,1.19,4.24-1,5.79-2.7,1.9-2.68,4.86-3,7.65-.2,1.95-1.46,4.34,1,5.66a5.78,5.78,0,0,0,6.79-1.34c3.46-3.42,8.26-2.69,12.18-4.56.87-.41,2.33-.78,3.15.32s-.31,2.06-.75,3c-.79,1.82-2.72,3.15-2.35,6.2,3.43-3.76,6.65-.93,9.77-.13,2.95.75,4,.5,4.38-2.81.67-6.42,1.73-12.83,6.9-17.55.6-.55,1.68-2.05,1.81-1.37,1.14,6.19,4.09-1.86,5.63,1-2.09,3.81-4.24,7.88,2.52,9.54v0c-.77,2-2.84,4-.5,6.15,3.84,3.45,4.47,7.08,2,11.67-2.3,4.2-5.65,7.53-8.94,10.87-1.59,1.62-1.55,2.78-.42,4.36,1.49,2.06,2.13.38,3.44-.43,2.92-1.81,6.21-2.57,9.48-.41a13.79,13.79,0,0,0,5.7,2.42c4.39.61,5.74,4.33,5.68,7.58-.09,4.33,2.48,5.73,5.43,6.79,1.84.67,3.48-1.21,5-2.29,1.86-1.35,1.13-2.46-.65-3.29a2.38,2.38,0,0,1,.43-1.39c.89-.82,1.71-.32,2.44.4,3,3,5.23,1.67,7.76-1,4.68-5,8.5-10.89,16.37-12.24,3.05-.53,4.09.63,5.57,2,2,1.94-.2,2.79-1.24,4-2.26,2.61-4.41,5.32-6.58,8-2.14-.49-.83-4.44-4.77-3.53-5.13,1.18-7.06,4.2-8.49,9.47,2.45-1.27,3.79-1.13,6,.13,5,2.91,4.19,8.28,6.55,12.18.9,1.5,1,3.3,3.05,2.78,1.77-.44,2.58-2.07,2.16-4-.34-1.64-2.17-4.11,1.32-4.1,2.69,0,2.85,2.14,2.61,4.58-.27,2.81.23,5.67,4.19,5.64Zm-163.66-84.6-.41-1c-1.48-4.16-4.13-7.51-7-10.73-2.6.65,1.37,5-2.91,4.5-.66-.08.18,2.26.39,2.12,5.4-3.64,6.48,2.7,9.65,4.08Zm-15.06-69.45c-.67-1.81-2.31-2.45-3.91-2.94-.77-.23-2.72-.59-1.74,1.4,1.83,3.74-1.92,2.28-2.92,3-1.71,1.19-2.51-.46-3.1-2-.73-1.94-1.27-4.19-2.63-5.59-1.64-1.68-3-4.78-6.85-1.89-1.79,1.34-5.94,0-8.81-.8-1.67-.48-1.65-2.27,0-3.52,1.26-.94,3.11.15,4.79-2.24-2.71-.51-4.21-2.7-7.51-.7-3,1.85-6.55-.37-9.39-1.5s-2.56-.9-2.6,1.76c0,2,2.52,6.16-3.57,5.54-1.54-.15-3.66,5.52-5.78,8.94.53-4.07-2.1-3.21-4-2.55-2.6.92-5.86,2.23-5.46,5.45.29,2.31-1.35,7.41,5.15,5.7,2.92-.77,2.64,2.76,1.62,5-2.55,5.65-1.58,6.83,4.61,8.1,2.25.45,9.11-1.19,5,5.74-.59,1,1.23,1.62,2.14,2.2,3.3,2.1,6.81,3.94,9.82,6.39,1.61,1.31,3,1.62,4.6,1,7.46-3.15,13,1.89,19.16,4.37,1.81.73.37,2.22-.24,3.31l-.42-.05.39-.05c3.56,3.67,7.93,1.16,11.63.89,5.82-.42,11.41-1,17.05,1,1.88.65,2-1.07,2.28-2.35,1.13-5-2.21-12.28-7.11-13.87-6.44-2.09-12.1-7-19.5-5.78l-7.64.13a1.81,1.81,0,0,0-2.66-.52l-1.78-1.11c-5.22-2.78-9.47-6.42-11.88-12.07-1.43-3.35-.71-6.68,1.8-8.07,2.33-1.29,5.17-.32,7.35,2.94,3,4.42,7.34,8,13.52,7.24,1.7-.2,3.71-.54,4.7,1.05,4.2,6.74,10.79,10.75,17.54,13.87,6,2.79,6.77,9.57,11.85,12.79,3.11,2,5.19,5.31,8.68,7,1.88.89,3.6,2.55,5.44.23,1.68-2.11,2-5.56.44-6.73-7.34-5.63-12.08-13.66-18.92-19.69-3.14-3.84-8.5-5-11.31-9.23,4.9-2.27.65-5.55.92-8.33-3.16-.2-4.93-5-8.85-2.69ZM33.71,782.61c-.85-1-2.85.08-3.77,1.46-1.09,1.64-.17,2.47,1.11,3.66,5,4.64,10.33,4.23,16.08-1.74-1.86-1.21-3.44-.59-5,.35l.11,0C40,783.74,36.07,785.3,33.71,782.61Zm215.93-674c-3.11,1.51-5.06-1.37-8-4,.59,4.55-1.5,7.83,0,11.41a2.64,2.64,0,0,1,.12,2.08c-4.39,6.18,2.73,6.51,4.93,8.32,2.4,2,5.2-.94,5.44-3.67.34-4,2.79-6.91,4.13-10.36a8.81,8.81,0,0,0,1.69,3.93c1.52,1.74,3.14,5,5.22,3.24,3-2.46-.95-4.87-1.94-7.16-1.3-3-3.35-2.3-5,.12C256.26,106.52,255.1,106,249.64,108.62ZM134.73,218.23c-2,2-.76,5.3.87,6.67,2.85,2.39,1,3.88.32,6.19-.93,3-5.5,6.87,1.08,9.4,1.07.41.73,2.93-.4,4.06-1.3,1.29-1.28,3.73-1.9,4.24-5.54,4.43,0,12.66-6,16.71a1.7,1.7,0,0,0-.49.89c5.8,4.49-.76,8-1.17,12-.47,4.53.47,9-.47,13.49-.49,2.36-1.51,4.45,2.13,5.82,2.75,1,1.22,5,3,8.63,2.49-5,6.69-7.84,6.06-13.31-.05-.43.41-1.28.75-1.35,7.47-1.63.16-6.66,2.18-9.55.15-.2-.26-1.24-1-.7-4.57,3.17-3.31-1.15-3.57-2.94s-.81-4.81,1.43-4.52c1.85.25,6.38-1.28,5.6,4,5.4-6.29,4.95-7.85,1.34-17.54-1.22-3.28.13-7.73-1.73-11.39,5.76.15,2.29-6.33,5.66-7.88.92,11.71,4.52,23,5.34,34.75.08,1.19-.65,3.31,2.14,3.84s2.84-1.35,3.6-2.58c2.77-4.46,5.39-9,10.13-11.76,3.94-2.27,4.71-6.35,6.26-10.11,4-9.76,8.33-19.4,12.54-29.07.44-1,1.48-2.09,0-2.85-1.9-1-3.39-3.54-5.81-2.54-8,3.3-16,2.12-24.14,1-8.53-1.22-11.42,1.49-11.24,10a5.36,5.36,0,0,1-.49,1.62c-4.16-2.37-3.29-6.53-2.36-9.64,1.8-6-2.28-8.57-5.16-12.84-1.78,3.95.52,6.35.82,9l.1,0C138.09,219.85,136.74,216.21,134.73,218.23Zm67.33,106.62c1.32,2.3-.74,3.76-1.56,5.56-.34.76-.36,1.56.46,1.93,1.38.63,1.64-.42,1.61-1.4,0-1.34-.28-2.68.74-3.77,1.55-1.67,3.58-2.72,5.5-1.23s2.14,3.69,0,5.31c-1.89,1.43-3,3.25-4.42,5.93,3.43-.81,5.6-2.07,7.28-4.58a15.87,15.87,0,0,1,5-5.31,3.5,3.5,0,0,1,4.21.17c1.81,1.32.82,2.56,0,3.88-1.55,2.62-3.12,5.13-5.93,6.7-4.29,2.41-7.21,6.26-11.41,11.24,6.1-.9,10.43-1.77,13.63-5.62,1.08-1.3,1.81-3.38,3.16-3.91,7.57-2.94,11.87-8,12.36-16.33.13-2.05,1.7-4,4.08-.85,1.7,2.25,4.64.69,7,.93,1.51.16,2.36-1.79,1.72-3.46a3.54,3.54,0,0,0-1.81-2c-7.57-2.11-9.45-10.47-15.75-14.26-2.25-1.35-2.33-2.56-4.87-.52-4.79,3.82-8.07,2.79-11.52-2.68a17.47,17.47,0,0,0-1.49-2.23c-4.93,2.55-5.61-1.55-7.1-4.41a1.33,1.33,0,0,0-.93-.59c-2.53-.11-3.63,4.59-6.91,2.07a31.31,31.31,0,0,0-.55,6.27c-.25,4.56,2,9.05.17,13.63-2.52,6.19-2,6.7,4.57,6.2-.22,3.23-2.16,5.54-3.89,7.95-.88.17-2.19-2.75-2.56.16-.21,1.73,1.13,3.74-1.33,4.87-2-1.15-.93-3.09-1.22-4.62-.79-4.29-4.36-6.08-8.07-3.95a9.11,9.11,0,0,1-3,1.51c-2.21.25-4.31-.37-2.93,3.46.76,2.1-2,3.23-4.91,2.06-1.37-.54-2.13.12-2.85,1.07-4.17,5.47-9,10.48-11,17.33-.7,2.37-1.22,4.71,1.11,6.1,2,1.2,3.73-.5,4.72-2.06,2.46-3.87,8.05-1,10.52-5.18.54-.9,1.3,1,1.55,2.1.44,1.94.05,4.69,2.65,5.11s1.87-2.74,3.11-4c5-5.28,10.71-10,12.74-17.62a58.66,58.66,0,0,0,1.51-6.42C199.1,329.94,198.23,324,202.06,324.85Zm-96,429c-3,4-8.53,6.16-9.63,11.13-1.17,5.25-4.84,8.73-6.94,13.13-3,6.29-7.94,8.23-13.86,9.06-3.39.47-5.82,1.41-7.71,4.64-1.52,2.58-4.51,2.5-7.73,3-6.86,1-13.65-2.5-20.31.54a7,7,0,0,1-6.68-.7c-.34,2.45,1.22,3.63,2.42,3.73,3.2.27,4.55,1.1,3.14,4.52-.57,1.39.32,1.92,1.89,1.41a22.58,22.58,0,0,1,4.9-.94c2.14-.18,3.53.94,4.36,2.92.94,2.26.07,3.78-2,4.48-4.95,1.65-3.63,6-4.27,9.54-.14.78.82,1.08,1.6,1.25,5.08,1.08,7.94,8.54,14.67,5,3.32-1.74,6.69-3.82,9.41,1.27.46.87,3,1.21,5.15.19,1.19-.57,4.82-4.66,6.14.67,1.1-.43,2.57-.56,3.2-1.36.85-1.09.08-2.14-1.38-2-1.07.12-1.9,0-2.26-1-.45-1.37-.28-3.23.9-3.57,4.12-1.19,3-8.52,8.15-7.4,3.24.71,6.5,3,8.87,5.48,2.08,2.15-1.63,4.16-1.64,6.46,5.41-2.35,7.12-11.47,2.67-15.49-2.56-2.31-4.14-6.43-9.23-4.1-1.68.78-1.46-1.85-1.07-3.34,1.89-7.18,4.73-14,5.92-21.52.82-5.11,4.47-9.86,9.44-12.83,1.71-1,3.91-1.3,4.89-3.48.4-.89,2.33-1.05,2.22-.42-.84,4.81,5.5,2.16,5.77,5.79.08,1.07,1.19.33,1.76,0a25.52,25.52,0,0,1,5.72-1.79c6.4-1.63,7-3.62,1.3-7-.4-.24,1-2.83-1.42-1-2.68,2.09-5.79,4.32-9.78,1.87-5.56-3.41-6.47-6.41-3.2-12.06,1-1.68,2.5-3.19,2.41-5.83C109.51,746.39,108.45,750.68,106.06,753.82ZM69.22,485.57c-4.44.56-3.18,5.22-3.14,8.51a2.05,2.05,0,0,0,2,2.28c7.19,0,2.91,3.07,1.29,5.17-1.15,1.47-3,2.45-3.9,4-1,1.8.8,3.56,1.68,4.91.75,1.15,3.26,2,4.57.63,2.9-3,5.2-2.23,7.63,1.22,2.23-4.68.76-8.08-1.47-11.44-.93-1.39-2.22-3.2-.36-4.51,2.25-1.59,2.69,1,3.66,2.21,3.46,4.17,5.42,9.36,9.2,13.35,1.85,1.95.77,4.28.1,6.43-.84,2.62-.25,5.39,2.23,5.9s5.57.18,5.43-4.26c-.1-3.09,2.12-6.08,1.32-9.38-.65-2.75.39-6.3-4.61-6.67-2.18-.16-2.54-3.74-2.89-6.06-1-7-6.46-11.9-8.46-18.42a1.64,1.64,0,0,0-2.23-1.15c-1.87.63-2.38,2.13-2.62,4-.51,4-1.3,8-5.72,11.17C72.77,489.48,73.05,485.09,69.22,485.57Zm39-79.45c.45-2.36.43-3.47-1.92-4.25-1.78-.6-4-1.12-5-2.46-2.1-2.87-4.11-2.28-6.14-.52-2.43,2.11-1.89,5-.47,7.21,1,1.54,2,3.14,3.1,4.61,1.28,1.69,1.44,2.21-.88,2.89-1.43.42-1.64,8.81-.3,9.62,2.58,1.57,3.65-.6,5.32-2.92C100.35,414.51,107.14,411.7,108.18,406.12ZM236.43,275.84c-6.92-4.77.17-11-3.2-15.43-6,2.3-8.1,7-5.76,12.85,1.6,4,2.57,8.21,4.27,12.14.66,1.52,2.54,2.5,4.08,3.93C238.58,284.6,238.36,277.17,236.43,275.84ZM104.24,462.35c1.51-.79,1.68-2.93,1.28-4.05-1.65-4.6.17-6.72,4.5-7.77a2.75,2.75,0,0,0,2.15-3.5c-.66-2.07-1-4.57-3.78-5.22-1.85-.44-2.73.69-3.63,2-2.09,3.06-3.71,6.26-7.53,8.11-3.24,1.57-1.53,7.13,2.7,9.72C101.3,462.38,102.85,463.09,104.24,462.35ZM211.55,160.82c1.49.13,1.91,1.23,1.27,2.43-1.5,2.78.87,3.58,2.41,3.85a3.84,3.84,0,0,0,4.58-3.07c1-5.49-2.29-10.41-2.57-15.78-.05-1.05-1.61-1.09-2.32-.48-2,1.7-3.75,3.58-5.87,5.65C209.75,155.81,204.27,160.15,211.55,160.82Zm18.85-49.35c1.42-4.82,4.16-6.88,7.57-9.16-1.54-3.06-4.61-2.62-6.87-3.73a2,2,0,0,0-2.95,1.66c-.56,3.92-3.28,9.35-2.5,11.1,3.08,6.94-4,8.55-5.13,13.4C228.61,123.64,229,116.14,230.4,111.47ZM191.89,93.64a100.22,100.22,0,0,0,12.72,2c1.58.12,5,.21,4.64-1.77s-1.11-5.53-4.55-5.48a16.06,16.06,0,0,1-8.57-2c-3-1.74-3.62,2.52-5.74,3C188.62,91.79,189.66,93.18,191.89,93.64ZM148.44,346.23c-2,.86-2.63,3.84-5.88,3.28-1.66-.28-1.5,1.52-.86,2.93,1.12,2.49,2.05,5.07,3.07,7.61,3.85-5,9.1-9.13,9.84-16.16C151.4,341.81,150.42,345.37,148.44,346.23Zm34-60.18c1.23-2.18,1.6-2.68-1-3.89-3.38-1.58-6.16-.6-9.07.7-.6.26-1.43,1.51-1.31,1.66,4.73,6.16-4.39,6.15-4.41,11.38C172.82,293.46,178.93,292.26,182.42,286.05ZM331.31,316c4.4.36,8.4-2.15,12.85-1.6a1.6,1.6,0,0,0,1.52-2.37c-1.33-2.23-3.23-5.65-5.65-4.64-3.41,1.42-8.25,1-10.12,5.66C327.41,315.18,328.62,315.73,331.31,316Zm-376.1,476.4c-2.05.24-4.1,1-4,3.82.08,2.43,1.85,2.77,3.66,3.5,4.06,1.63,7.67-1.11,12.7-.34C-36,794.13-39.73,791.76-44.79,792.35ZM114.39,522.08c-.64-.53-1.1-1-1.78-.45s-.77,1.57-1,2.49c-.85,3.4,1.63,5.93,2.11,9s1.84,6,2.89,9.16C120.44,536.21,119.14,526,114.39,522.08ZM100,530.51c0,.13.26.41.36.39.7-.11,1.58,0,2-.46,3.35-2.93,6.8-5.92,4.61-11.13-.81-1.93-2.73-1.81-4.4-1.75-.61,0-1.2.73-1.84,1.15C100.45,522.74,100.19,526.63,100,530.51Zm93.56,199.6c-2.24-4.54-4.86-4.66-8.08-1-.51.57-.91,1.88-.34,1.8,3.87-.51.33,6.69,4.78,4.68a16.37,16.37,0,0,1,8.07-1.45C196.23,732.28,194.43,732,193.51,730.11ZM-5,367.86c-.14,1.85-.83,3.78,1,5.22a1.53,1.53,0,0,0,2.43-.3C-.5,371,3,370.63,2.06,367.71s-1.18-6-1.71-9.2C-2.54,361.35-4.72,364.11-5,367.86ZM97.29,757.76c-4-2.17-10,2.2-16.59,12.23C87.39,766.46,92.34,762.18,97.29,757.76ZM150.49,799c.95,2,3.83,1.74,5.61,1.29,2-.5,5.81-1.59,1.51-4.66-1.33-1-1-1.93.21-2.58,1.85-1,2.58-3,1.31-4.12-1.76-1.49-3.34.3-4.47,1.87-.66.91-1.29,1.84-2.14,3.06C151.76,795.35,149.55,797.11,150.49,799ZM-.06,752.72c.07-1.18-.49-3.05-2.09-2.88-2.16.22-1.72,2.62-1.32,3.58,1,2.43-.36,5.2,1.6,7.5.92,1.07-.47,4,1.84,4.1,3,.2,1.09-2.57,1.55-3.88.68-1.93,2.95-.59,3.75-3.07C1.82,757.67-.3,756.36-.06,752.72Zm116.2-19.44c-.65,1.69-.76,3.89,1.08,5.17,1.16.81,2.15-.38,2.88-1.14,1.47-1.52,2.87-3.21,1.37-5.47-1.6-2.42-2-5.23-2.55-8.07C115.38,726.3,117.32,730.22,116.14,733.28ZM239.43,306.74a3.16,3.16,0,0,0,.13,2.14c.76,1.15,1.53.26,2.3-.25,2.37-1.57,5.18-2,8.67-2.75C244.65,300.92,240.57,301.46,239.43,306.74Zm-195,100.61c-.95-.72-3.55.9-4.29,2.83a2.13,2.13,0,0,0,1.62,3.06c2,.27,4.07.36,6,2.69C48.83,411.24,46.57,409,44.44,407.35ZM138,184.71c2,2.17,4.66,1.09,6-.43s.38-4-1.26-5.36c-2.29-1.86-4.62-.47-6.74.47C134.35,182.14,136.73,183.34,138,184.71ZM125,495.14a1.93,1.93,0,0,0-1.8-2.38,2.65,2.65,0,0,0-1.81,1.83c-.34,3.45-.41,6.92-.57,10.39C124.13,502.17,123.81,498.41,125,495.14Zm-13.41-34a2,2,0,0,0-1.87-2.3c-1.11-.09-1.69.77-1.81,1.72-.39,3.26-3.66,7.46,3,8.74C111.22,466.27,111.47,463.69,111.62,461.11Zm16.84,279.52c-.15-1.06.55-2.45-1-2.73-1.29-.23-1.93,1.11-2.36,2.09-1,2.2-1.75,4.48-2.61,6.73C124.21,744.45,129.11,745,128.46,740.63ZM238,153.48c.35-.64-1-1.3-1.6-1.07-3.14,1.1-1.09,4.14-2.86,6.09C238.14,158.84,237,155.29,238,153.48ZM190.2,351.29c1.21-1.25,3.78-1.4,3.4-3.89-.07-.46-1.14-1.06-1.77-1.09-2.48-.12-2.61,2.31-3.68,3.71-.42.54-.89,1.25.14,2.59A11.74,11.74,0,0,0,190.2,351.29Zm22.49-249.8c.67-.51,1.17-1.3.57-1.83-2.21-2-4.54.19-8.28-.63C208.21,101.7,210,103.52,212.69,101.49Zm-101,673.65c1,.73,1.57-.36,2-1.1.8-1.29.12-2.08-1.07-2.45a1.83,1.83,0,0,0-2.35.77A3,3,0,0,0,111.67,775.14ZM87.85,816a2,2,0,0,0,.46-.14c-.11-.1-.22-.27-.33-.27s-.27.15-.4.23C87.67,815.88,87.76,816,87.85,816Z" fill="#1c2d28"/>
        <path d="M336,133.48c-4-4.1-4.76-9.15-10-10.66C328.18,127,330.05,131.1,336,133.48Z" fill="#9bb0aa"/>
        <path d="M336.64,135.08c.34,4.43,2.83,6.76,7.48,7.42C343,138.45,339.05,137.51,336.64,135.08Z" fill="#9bb0aa"/>
        <path d="M175.15,38.41c1.46.44,2.57.4,2.22-1.63A2,2,0,0,0,175.15,38.41Z" fill="#9bb0aa"/>
        <path d="M421.18,237.55l-1.36-2.18.08,0c-.29,1.18.53,1.68,1.34,2.18Z" fill="#9bb0aa"/>
        <path d="M361.57,163l.56,1.42.5-.25-1.14-1.14Z" fill="#9bb0aa"/>
        <path d="M350.61,187.11l.05-.47c0,.15,0,.31,0,.46Z" fill="#9bb0aa"/>
        <path d="M240,32.74c-.28-1.19-2.34-3.52.2-3.27,3.57.35,3.72-2.28,5.4-3.77,4.34-3.84,1.48-5.63-1.93-6.19-4.77-.79-9.56-2.83-14.55,1-2.54,1.95-7.09,2.51-8-3.27-.39-2.52-2.62-1.79-3-.37-1.22,4.66-5.26,3-8,4.27-3.95,1.84-8.14-.68-12,1.32-2.25,1.16-4,2.83-3.9,5.12.1,4-1.43,3.6-4.13,2.35s-4.82.33-3.19,2.7c2.95,4.29,0,7-1.38,10.25-.64,1.46-3.53,3.26-.82,4.61,2.36,1.18,2-2,2.67-3.26,2.12-3.84,3.72-8.12,9.33-7.54,1.6.16,1.8-.67,1.9-2,.42-5.24,1.22-6.05,4.55-3,4,3.74,5.53.17,8.2-.54-.6-2.12-2-1.58-3-2-1.74-.71-2.44-1.84-1.36-3.51s2.45-1.51,3.65,0c3.71,4.59,8.18,4.8,13,2.09,2.15-1.22,4.89-1.06,5.71.41,2.55,4.57,6.27,5.18,10.75,4.56Z" fill="#1c2d28"/>
        <path d="M376.6,227.32c1.44-2.12-.07-5.25-.69-5.7-3.28-2.37-.79-3.93.55-6.14-3.22,1.77-5.64.68-7.6-1.36-2.64-2.74,1.36-4.66.85-7.42-2.33,5.08-9.12,6.58-9.77,13-.11,1.16-.6,2.16.57,3a2.44,2.44,0,0,0,3.09-.16,10.35,10.35,0,0,1,3.58-1.49,2.34,2.34,0,0,1,2.93,2c.44,2.21-1.28,1.72-2.52,1.89-2.43.32-4.83.78-7.26,1.1-4.67.62-8,5.82-6.27,10.28a4.43,4.43,0,0,1-.34,4.26c-1.21,2-1,3.89.73,6.17,2.34-3.42,5.3-4.68,9.45-4,3.65.63,6.07-.27,4.14-5.28-1.55-4,2.87-6.95,4.06-10.63.52-1.63,3-.31,4.55.41Z" fill="#fefefe"/>
        <path d="M388.52,189.63a3.22,3.22,0,0,1,.53,4.23c-4,5.13.23,5.62,3.59,6.67.88.27,1.89.38,1.94,1.63-5.28,3.63-5.66,5.27-1.82,7.91,4.9,3.36,4.68,5.85-.55,8.81-3.4,1.93-7.93,1.77-10.35,5.59-.24.38-1.51.5-2,.23-1.17-.63-.4-1.65-.08-2.47,1.48-3.75,2.71-7.81-.36-11s-2.06-6.3-1-9.76c.81-2.62,2.48-4.67,3.79-6.95.61-1.07,1.94-2.46-.05-3.25-3.42-1.36-4.47-5-7.81-7.06C381.6,181.13,384.46,186.91,388.52,189.63Zm-5.19,20.29c1,2.07,1.19,4.64,3.59,5.78.12.06,1-.76.91-1.06-.53-2.61-1.39-5.07-4.19-6.95C383.45,208.92,383.15,209.54,383.33,209.92Z" fill="#fefefe"/>
        <path d="M421.24,237.53c-.81-.5-1.63-1-1.34-2.18-4.89-1.76-6.84-5.62-7-10.44-.08-2-1.5-3.46-2.52-2.66-2.38,1.89-4.63,1.51-7.2,1.25-1.59-.17-1.73.6-.29,2.35.34.42,1,.64.61,1.24-2.94,4.95,0,8.63,2.16,12.83,1.22,2.31.66,5.4,4.82,4.21.31-.09,3.36,0,2.94,2.77-.22,1.4.66,3.35,2.72,2.44,1.48-.65,1.59-2.08.87-3.84C415.28,241.35,416.56,238.44,421.24,237.53Z" fill="#fefefe"/>
        <path d="M291.51,107.78c-.63,2-1.24,3.74-1.78,5.54-.7,2.35.45,3.4,2.6,2.85,4.09-1,6.87,1.36,9.8,3.37,1.54,1.06,4,1.85.78,4.33-2.2,1.71.62,3.22,1.53,4.64.8,1.26,1.93,1.47,3.41.64,1.87-1.05,1.45-1.86.66-3.55a6.8,6.8,0,0,1-.11-5.41c3.2-5.66-2.75-9.33-2.75-14.26,0-1.09-1.82-2.22-3.18-1.69-3.24,1.26-6.22,3.3-10,2.45C292.23,106.64,291.77,107.48,291.51,107.78Z" fill="#1c2d28"/>
        <path d="M301.17,82.44c-3.73-4.45.23-12-7.61-12.57-3.09-.21-7.82,5.53-6.75,7.88C289.48,83.61,295,82.3,301.17,82.44Z" fill="#fefefe"/>
        <path d="M280.1,238.11c-5.1,3-.16,5,1.76,5.92,2.75,1.32,6.11-.27,7.8-2.54,2.28-3.07.54-6.77-.2-10.17C285.93,232.74,281.57,233,280.1,238.11Z" fill="#1c2d28"/>
        <path d="M364.44,202.83c-3.83,2.21-7.7,2.2-10.54-.48-3.75-3.56-7,.52-10.52,0-1.17-.16-.28,3.35.25,5s1.72.95,2.57-.13c2.11-2.72,4.06-2,6.06.22,2.8,3.15,6.89,2,10.05,1.84C365.63,209.11,362.33,204.73,364.44,202.83Z" fill="#fefefe"/>
        <path d="M259.43,89.3c2.36-2.75,6.77-4.14,6.27-9.14-.09-.93.34-1.9-.79-2.33a3.48,3.48,0,0,0-1.52.08C263.51,82.26,255.61,83.72,259.43,89.3Z" fill="#1c2d28"/>
        <path d="M240.09,32.72c-1.11,3.69-4.49,6.44-4.42,10.64,5.53-2,6.8-5.13,4.3-10.62Z" fill="#1c2d28"/>
        <path d="M283.49,136.63c-2.87,3-9.09,3.22-5.93,9.57.37.74-.11,2.16,1.24,2.05a1.43,1.43,0,0,0,1.1-2.15C278,141.79,284.78,141.45,283.49,136.63Z" fill="#1c2d28"/>
        <path d="M229.9,52a47.81,47.81,0,0,0-3.29,4.76c-.59,1.16-2.73,2.54-.78,3.75,1.44.9,2.68-.88,3.58-2.08C230.67,56.77,231.64,55,229.9,52Z" fill="#1c2d28"/>
        <path d="M276.37,65.12c-.6,1.46-.77,3.17.45,4.15,1,.78,2-.29,2.52-1.35s2-2.23.58-3.43C278.78,63.54,277.43,64.05,276.37,65.12Z" fill="#1c2d28"/>
        <path d="M263.1,67.92l-4.9-3.84c-1-.78-1.79-3.24-3.36-1-1.1,1.58.73,2.29,1.86,2.75C258.54,66.59,260,68.38,263.1,67.92Z" fill="#1c2d28"/>
        <path d="M339.63,150.75a4.61,4.61,0,0,1,3.12,3.54,1.6,1.6,0,0,0,2.11,1.22A1.53,1.53,0,0,0,346.2,154a2.08,2.08,0,0,0-1.25-2.25,49.57,49.57,0,0,0-5.31-1Z" fill="#fefefe"/>
        <path d="M283,134.31c.89.54,1.84.7,2.36-.36a1.53,1.53,0,0,0-1.05-2.2,2.39,2.39,0,0,0-2,.39C281.43,133.05,282.14,133.78,283,134.31Z" fill="#1c2d28"/>
        <path d="M376.65,227.31l-3.11,5c2.08-1.12,3.83-2.43,3.06-5Z" fill="#fefefe"/>
        <path d="M333.9,263.8l.94,0c-.37-.85-.66-.52-.93.07Z" fill="#1c2d28"/>
        <path d="M218.66,175.91c-.67-1.81-2.31-2.45-3.91-2.94-.77-.23-2.72-.59-1.74,1.4,1.83,3.74-1.92,2.28-2.92,3-1.71,1.19-2.51-.46-3.1-2-.73-1.94-1.27-4.19-2.63-5.59-1.64-1.68-3-4.78-6.85-1.89-1.79,1.34-5.94,0-8.81-.8-1.67-.48-1.65-2.27,0-3.52,1.26-.94,3.11.15,4.79-2.24-2.71-.51-4.21-2.7-7.51-.7-3,1.85-6.55-.37-9.39-1.5s-2.56-.9-2.6,1.76c0,2,2.52,6.16-3.57,5.54-1.54-.15-3.66,5.52-5.78,8.94.53-4.07-2.1-3.21-4-2.55-2.6.92-5.86,2.23-5.46,5.45.29,2.31-1.35,7.41,5.15,5.7,2.92-.77,2.64,2.76,1.62,5-2.55,5.65-1.58,6.83,4.61,8.1,2.25.45,9.11-1.19,5,5.74-.59,1,1.23,1.62,2.14,2.2,3.3,2.1,6.81,3.94,9.82,6.39,1.61,1.31,3,1.62,4.6,1,7.46-3.15,13,1.89,19.16,4.37,1.81.73.37,2.22-.24,3.31l0-.1c3.55,3.67,7.92,1.16,11.62.89,5.82-.42,11.41-1,17.05,1,1.88.65,2-1.07,2.28-2.35,1.13-5-2.21-12.28-7.11-13.87-6.44-2.09-12.1-7-19.5-5.78-1.53,2.11,3.16,7.86-2.84,6.7-4.29-.83-8.06.38-12.07.21s-7.12-.87-8.22-5.24c-.46-1.83-2.05-2.63-3.47-3.57-.83-.54-1.58-1.2-1.13-2.28.57-1.37,1.83-1.1,2.94-.92,1.9.29,2.65,2,3.77,3.25,2.93,3.15,5.82,3.75,8.94.35-5.22-2.78-9.47-6.42-11.88-12.07-1.43-3.35-.71-6.68,1.8-8.07,2.33-1.29,5.17-.32,7.35,2.94,3,4.42,7.34,8,13.52,7.24,1.7-.2,3.71-.54,4.7,1.05,4.2,6.74,10.79,10.75,17.54,13.87,6,2.79,6.77,9.57,11.85,12.79,3.11,2,5.19,5.31,8.68,7,1.88.89,3.6,2.55,5.44.23,1.68-2.11,2-5.56.44-6.73-7.34-5.63-12.08-13.66-18.92-19.69-.74,1.81.22,6.41-3.9,3.17-4.62-3.64-9.86-6.46-14-10.86-2.73-2.94-3.59-5.78-2.05-9.41v.08C218.13,178.92,217.31,177.76,218.66,175.91Z" fill="#9bb0aa"/>
        <path d="M195.43,329.31c3.67.63,2.8-5.3,6.63-4.46,1.32,2.3-.74,3.76-1.56,5.56-.34.76-.36,1.56.46,1.93,1.38.63,1.64-.42,1.61-1.4,0-1.34-.28-2.68.74-3.77,1.55-1.67,3.58-2.72,5.5-1.23s2.14,3.69,0,5.31c-1.89,1.43-3,3.25-4.42,5.93,3.43-.81,5.6-2.07,7.28-4.58a15.87,15.87,0,0,1,5-5.31,3.5,3.5,0,0,1,4.21.17c1.81,1.32.82,2.56,0,3.88-1.55,2.62-3.12,5.13-5.93,6.7-4.29,2.41-7.21,6.26-11.41,11.24,6.1-.9,10.43-1.77,13.63-5.62,1.08-1.3,1.81-3.38,3.16-3.91,7.57-2.94,11.87-8,12.36-16.33.13-2.05,1.7-4,4.08-.85,1.7,2.25,4.64.69,7,.93,1.51.16,2.36-1.79,1.72-3.46a3.54,3.54,0,0,0-1.81-2c-7.57-2.11-9.45-10.47-15.75-14.26-2.25-1.35-2.33-2.56-4.87-.52-4.79,3.82-8.07,2.79-11.52-2.68a17.47,17.47,0,0,0-1.49-2.23c-4.93,2.55-5.61-1.55-7.1-4.41a1.33,1.33,0,0,0-.93-.59c-2.53-.11-3.63,4.59-6.91,2.07a31.31,31.31,0,0,0-.55,6.27c-.25,4.56,2,9.05.17,13.63-2.52,6.19-2,6.7,4.57,6.2-.22,3.23-2.16,5.54-3.89,7.95Z" fill="#9bb0aa"/>
        <path d="M140.08,220c-2-.1-3.34-3.74-5.35-1.72s-.76,5.3.87,6.67c2.85,2.39,1,3.88.32,6.19-.93,3-5.5,6.87,1.08,9.4,1.07.41.73,2.93-.4,4.06-1.3,1.29-1.28,3.73-1.9,4.24-5.54,4.43,0,12.66-6,16.71a1.7,1.7,0,0,0-.49.89c5.8,4.49-.76,8-1.17,12-.47,4.53.47,9-.47,13.49-.49,2.36-1.51,4.45,2.13,5.82,2.75,1,1.22,5,3,8.63,2.49-5,6.69-7.84,6.06-13.31-.05-.43.41-1.28.75-1.35,7.47-1.63.16-6.66,2.18-9.55.15-.2-.26-1.24-1-.7-4.57,3.17-3.31-1.15-3.57-2.94s-.81-4.81,1.43-4.52c1.85.25,6.38-1.28,5.6,4,5.4-6.29,4.95-7.85,1.34-17.54-1.22-3.28.13-7.73-1.73-11.39,5.76.15,2.29-6.33,5.66-7.88v.07c-3.72-2.7-4-3.84-1.81-7.84l.12.07c-4.16-2.37-3.29-6.53-2.36-9.64,1.8-6-2.28-8.57-5.16-12.84-1.78,3.95.52,6.35.82,9l0,.45Z" fill="#9bb0aa"/>
        <path d="M256.23,112.51c0-6-1.13-6.54-6.59-3.89-3.11,1.51-5.06-1.37-8-4,.59,4.55-1.5,7.83,0,11.41a2.64,2.64,0,0,1,.12,2.08c-4.39,6.18,2.73,6.51,4.93,8.32,2.4,2,5.2-.94,5.44-3.67.34-4,2.79-6.91,4.13-10.36Z" fill="#9bb0aa"/>
        <path d="M235.82,289.33c2.76-4.73,2.54-12.16.61-13.49-6.92-4.77.17-11-3.2-15.43-6,2.3-8.1,7-5.76,12.85,1.6,4,2.57,8.21,4.27,12.14C232.4,286.92,234.28,287.9,235.82,289.33Z" fill="#9bb0aa"/>
        <path d="M199.27,198.27c-3.12,3.4-6,2.8-8.94-.35-1.12-1.21-1.87-3-3.77-3.25-1.11-.18-2.37-.45-2.94.92-.45,1.08.3,1.74,1.13,2.28,1.42.94,3,1.74,3.47,3.57,1.1,4.37,4.3,5.07,8.22,5.24s7.78-1,12.07-.21c6,1.16,1.31-4.59,2.84-6.7l-7.64.13c-1.15,1.15-2.1,1.31-2.66-.52Z" fill="#fefefe"/>
        <path d="M209.05,153.42c.7,2.39-4.78,6.73,2.5,7.4,1.49.13,1.91,1.23,1.27,2.43-1.5,2.78.87,3.58,2.41,3.85a3.84,3.84,0,0,0,4.58-3.07c1-5.49-2.29-10.41-2.57-15.78-.05-1.05-1.61-1.09-2.32-.48C213,149.47,211.17,151.35,209.05,153.42Z" fill="#9bb0aa"/>
        <path d="M220.52,124.74c8.09-1.1,8.5-8.6,9.88-13.27s4.16-6.88,7.57-9.16c-1.54-3.06-4.61-2.62-6.87-3.73a2,2,0,0,0-2.95,1.66c-.56,3.92-3.28,9.35-2.5,11.1C228.73,118.28,221.61,119.89,220.52,124.74Z" fill="#9bb0aa"/>
        <path d="M190.39,89.4c-1.77,2.39-.73,3.78,1.5,4.24a100.22,100.22,0,0,0,12.72,2c1.58.12,5,.21,4.64-1.77s-1.11-5.53-4.55-5.48a16.06,16.06,0,0,1-8.57-2C193.08,84.69,192.51,89,190.39,89.4Z" fill="#9bb0aa"/>
        <path d="M219.88,179.69c-1.54,3.63-.68,6.47,2.05,9.41,4.1,4.4,9.34,7.22,14,10.86,4.12,3.24,3.16-1.36,3.9-3.17-3.14-3.84-8.5-5-11.31-9.23-1.6,1-2.27.54-1.95-1.33-2.31-.73-2.89-2.86-3.83-4.69Z" fill="#fefefe"/>
        <path d="M166.64,295.9c6.18-2.44,12.29-3.64,15.78-9.85,1.23-2.18,1.6-2.68-1-3.89-3.38-1.58-6.16-.6-9.07.7-.6.26-1.43,1.51-1.31,1.66C175.78,290.68,166.66,290.67,166.64,295.9Z" fill="#9bb0aa"/>
        <path d="M226.53,186.23c-.32,1.87.35,2.29,1.95,1.33,4.9-2.27.65-5.55.92-8.33-3.16-.2-4.93-5-8.85-2.69l-.66,3.23v-.08l2.82,1.85C226.92,180.69,226.86,183.35,226.53,186.23Z" fill="#9bb0aa"/>
        <path d="M136,179.39c-1.69,2.75.69,4,2,5.32,2,2.17,4.66,1.09,6-.43s.38-4-1.26-5.36C140.49,177.06,138.16,178.45,136,179.39Z" fill="#9bb0aa"/>
        <path d="M256.22,112.38a8.81,8.81,0,0,0,1.69,3.93c1.52,1.74,3.14,5,5.22,3.24,3-2.46-.95-4.87-1.94-7.16-1.3-3-3.35-2.3-5,.12Z" fill="#9bb0aa"/>
        <path d="M233.31,244.38c-1.48-4.16-4.13-7.51-7-10.73-2.6.65,1.37,5-2.91,4.5-.66-.08.18,2.26.39,2.12,5.4-3.64,6.48,2.7,9.65,4.08Z" fill="#9bb0aa"/>
        <path d="M233.53,158.5c4.61.34,3.48-3.21,4.46-5,.35-.64-1-1.3-1.6-1.07C233.25,153.51,235.3,156.55,233.53,158.5Z" fill="#9bb0aa"/>
        <path d="M205,99c3.23,2.67,5,4.49,7.71,2.46.67-.51,1.17-1.3.57-1.83C211.05,97.69,208.72,99.85,205,99Z" fill="#9bb0aa"/>
        <path d="M219.89,179.77l.66-3.23-1.89-.63C217.31,177.76,218.13,178.92,219.89,179.77Z" fill="#fefefe"/>
        <path d="M201.05,199.38c.56,1.83,1.51,1.67,2.66.52A1.81,1.81,0,0,0,201.05,199.38Z" fill="#9bb0aa"/>
        <path d="M233.41,244.35l.31,1c-.13-.33-.27-.65-.41-1Z" fill="#9bb0aa"/>
        <path d="M207,220l-.42-.05.4-.05Z" fill="#9bb0aa"/>
        <path d="M383.64,207.69c-.19,1.23-.49,1.85-.31,2.23,1,2.07,1.19,4.64,3.59,5.78.12.06,1-.76.91-1.06C387.3,212,386.44,209.57,383.64,207.69Z" fill="#9bb0aa"/>
        <path d="M146.56,233.34c-2.17,4-1.91,5.14,1.81,7.84C148.05,238.51,147.79,235.81,146.56,233.34Z" fill="#1c2d28"/>
        <path d="M140.08,220l-.13.47,0-.45Z" fill="#1c2d28"/>
        <path d="M226.53,186.23c.33-2.88.39-5.54-3.83-4.69C223.64,183.37,224.22,185.5,226.53,186.23Z" fill="#1c2d28"/>
      </g>
    </g>
  </g>
</svg>
