<svg id="a43081e8-961a-4001-8d5f-0556162d22b7" data-name="Layer 1" xmlns="http://www.w3.org/2000/svg" xmlns:xlink="http://www.w3.org/1999/xlink" width="500" height="300" viewBox="0 0 500 300">
  <defs>
    <clipPath id="e23c9b1b-cc1e-4e23-957a-5026a696041c">
      <rect x="2.165" y="49.646" width="298.778" height="250.354" transform="translate(303.107 349.646) rotate(-180)" style="fill: none"/>
    </clipPath>
    <clipPath id="babdb9d7-2130-4af9-a789-05d175fa53ef">
      <rect x="201.222" y="49.646" width="298.778" height="250.354" style="fill: none"/>
    </clipPath>
    <clipPath id="b90503be-9213-4a33-be7d-caf81916fab0">
      <rect x="-454.193" y="0.225" width="357.758" height="299.775" style="fill: none"/>
    </clipPath>
    <clipPath id="bad4c799-9b22-43fa-a399-e150d60f9978">
      <rect x="73.281" y="-349.723" width="353.438" height="296.154" style="fill: none"/>
    </clipPath>
    <clipPath id="a47b2db0-a4ec-4e98-8c47-1691100ee65e">
      <rect x="-422.451" y="-353.569" width="358.027" height="300" style="fill: none"/>
    </clipPath>
  </defs>
  <title>pic-4</title>
  <g style="clip-path: url(#e23c9b1b-cc1e-4e23-957a-5026a696041c)">
    <g>
      <path d="M253.546,258.894c10.125,6.586,11.109,7.464,17.036,14.708s4.829,7.463,10.976,11.634,7.463,5.927,12.073,7.244,4.048,1.317,5.927,5.462c1.833,4.044,3.292,3.757-1.1,5.733s-6.805,3.073-11.634,3.951-54.658,20.415-60.585,21.073,5.049,1.1-16.025,4.171a260.071,260.071,0,0,1-51.146,2.854c-14.049-.659-19.756-1.756-33.585-1.756s-23.194.658-32.012.658-12.549,2.285-14.744,1.362c0,0-60.772,4.12-79.313,3.09s-46.7,1.373-54.937-3.434S2.165,321.5,2.165,300c0-4.462,9.6-17.372,18.161-31.252,5.325-8.635,37.23-30.617,37.23-30.617l13.288-7.294s42.8-14.678,61.794-14.945c9.935-.14,30.486-29.427,49.948-38.147,16.155-7.238,36.578,67.6,36.578,67.6Z" style="fill: #e4ab8d"/>
      <path d="M212.1,77.641c0-1.078-4.884-6.742-10.548-10.03S193.7,61.034,180.36,56.832s-20.461-6.211-41.287-2.74S104.91,72.361,104.91,72.361L91.026,87.524l-4.567,24.3L80.8,146.166l.913,17.538L78.6,179.232l2.375,17.173-5.663,6.759s-8.723,13.341-8.929,28.867,43.639,17.718,43.639,17.718l67.616-21.965,17.151-55.311,27.038-27.4-2.193-56.45Z" style="fill: #e1bb94"/>
      <path d="M116.1,63.469c-.714,2.678-3.391,5-8.21,10.888S97,84.71,95.576,89.172s.714,5.176-1.428,10.888-2.678,6.247-3.213,11.067a162.9,162.9,0,0,1-5.534,23.2c-1.606,4.284.357,6.069,0,11.245s1.071,11.245,0,16.064-3.391,8.925-3.748,11.6,4.1,12.138,4.1,15.529,2.856,4.284-1.427,8.568-4.754,6.038-4.754,6.038-2.316,3.195-8.633,3.6c0,0-.572,2.133,1.02-3.809s3.308-7.389,3.732-13.927-.826-3.5.245-10.644,3.927-13.387,3.213-14.993-3.391-2.321-5-2.856-2.32-.893-2.141-4.641-1.964-4.1,1.249-8.746,3.927-1.428,5-7.318,3.213-6.605.714-8.747-4.071,1.62-2.928-3.741,2.749-6.611,3.285-8.4,3.391-3.213,1.606-3.748-3.748,2.32-4.641,0,2.678-5.534,4.463-9.46,1.606-.536,3.213-5.712,6.425-5.177,1.606-5.177-8.169,2.153-5.513-2.587,3.907-2.589,6.584-7.23,4.006-3.391,6.822-6.782,2.1-2.678,4.6-4.82,1.428-.357,5.712-3.391,6.068-4.462,7.943-5.89A5.905,5.905,0,0,1,116.1,63.469Z" style="fill: #e9d3c8"/>
      <path d="M228.018,163.255c-1.331,4.1-.343,7.391-2.717,10.68s-2.01,3.471-5.481,6.576-3.288,3.289-6.029,5.481-2.74,1.279-4.932,4.932-2.558,5.116-3.837,7.125-3.471,3.471-9.5,2.74a28.48,28.48,0,0,1-9.865-2.923l17.9-59.19,22.47-1.1,4.526,16.2Z" style="fill: #e1bb94"/>
      <path d="M116.1,138.1c2.856,1.456,4.234,4.978,1.171,3.6s-6.585-1.841-9.495-3.6-5.674-4.29-9.188-3.6-4.9.764-7.963,1.377-6.738-.612-2.6-2.449a35.017,35.017,0,0,1,12.4-2.6c1.991.153,7.2,2.451,10.26,3.829A24.331,24.331,0,0,1,116.1,138.1Z" style="fill: #e9d3c8"/>
      <path d="M169.8,141.919c4.441,2.144,9.342,3.062,9.8,5.359s-2.45,2.144-4.9.766a34.646,34.646,0,0,0-17-3.828c-8.422.153-9.569.357-11.748-.281-1.148-.336-11.375-4.16-1.845-4.16,3.793,0,8.693-.153,12.674,0S169.8,141.919,169.8,141.919Z" style="fill: #e9d3c8"/>
      <path d="M146.894,158.9c1.926-3.88,2.662-4.514,8.787-4.055s10.2-.291,12.65,3.41,1.745,2.563,2.205,4.4.919,2.6-2.3,3.369-10.567,1.532-13.783.613-6.52-1.471-7.641-3.825A5.77,5.77,0,0,1,146.894,158.9Z" style="fill: #fae1d7"/>
      <path d="M113.521,156.365c0-3.4-2.33-5.669-5.623-7.316s-7.772-2.767-10.291-2.353c-3.067.5-7.025-.655-7.025,3.912s.439,7.64,5.927,8.738,6.476.9,9.768.558S113.521,159.311,113.521,156.365Z" style="fill: #fae1d7"/>
      <path d="M205.022,199.846c1.466,3.672,1.416,2.853,3.085,10.1s2.548,10.537,5.4,13.829,7.9,6.586,14.488,13.171,10.128,8.93,14.942,12.806,12.716,4.316,10.082,12.877-19.816,39.732-23.737,47.634-12.263,12.951-13.141,16.9-1.251,2.557-1.251,2.557-36.954-29.424-51.546-31.247S154.9,283.48,154.9,283.48l30.759-38.634s8.955-5.373,9.732-9.916,8.139-18.182,8.19-21.694-1.38-9.28-1.323-12.872.613-8.64,1.323-8.86S205.022,199.846,205.022,199.846Z" style="fill: #daac3d"/>
      <path d="M206.265,243.968c6.805.439,7.244-1.1,10.317,0s-1.536,4.539-1.536,5.781.439,2.78,1.536,3.219-2.195-.22-2.853,1.1,4.088-2.415,3.91,4.829-.251,9.22,0,11.086,2.408,7.353,4.186-1.427,2.435-10.317,3.752-10.756,4.024-.4,4.975.681-2.268,4.807,0,4.368,4.464-1.818,5.781-2.117,10.756-4.469,5.269-.957-6.366,1.976-9.659,5.708-4.829,3.969-7.244,7.911-1.359,7.016-2.874,7.235-3.272.659-5.687-2.415-.219-3.731-3.951-7.024-8.781-6.366-6.805,2.195,3.685,12.951,2.72,14.927,1.89,1.976-.964,1.976-10.756-5.488-10.756-5.488h-3.293s-7.243-.659,4.391,4.171,10.928,6.365,10.622,7.463-.352,1.317,0,3.293-.964,1.536,1.012,3.292,2.853,1.537,2.853,1.537-.439-9-.439-10.317.22-1.537,2.2-2.195,3.731.439,4.609-1.756,2.634-2.854,2.195-4.171,2.853-2.2-.439-1.317,0-1.968-3.291.882-1.977,2.849-3.294,2.849.439,1.318-1.317-3.512a35.518,35.518,0,0,1-1.976-6.805,9.888,9.888,0,0,0-2.109-4.148s4.963,2.173,6.28,4.368-1.388.658,2.7,3.512,6.521,2.415,6.521,2.415l3.046-.817c1.024-.274,5.734.378.685,3.67a51.045,51.045,0,0,0-9.219,7.244c-1.976,1.976-3.512,2.195-3.732,3.732a20.134,20.134,0,0,0-.219,3.512c0,1.317.439.676,0,2.863s.439,3.784-.439,4.3.241,1.52-1.307,2.116-2.472,4.456-4.315-.327-2.163-6.978-4.527-8.515-.388.439-5.656-3.512-3.359-3.951-7.058-5.927-4.962-2.195-5.208-3.731-2.222.878-.247-1.537,3.952-4.39,3.952-4.39-.22-1.317,2.853-1.976a33.549,33.549,0,0,0,5.269-1.537c1.317-.439,2.195,4.548,1.975-1.238s-3.073-4.908,0-7.322,4.83-2.2,5.269-4.391,5.487,3.073,7.024-.439,4.171-3.731.658-8.341-4.39-4.171-5.926-6.366-3.834-5.488-2.905-6.805A2.388,2.388,0,0,1,206.265,243.968Z" style="fill: #ba7731"/>
      <path d="M212.1,77.641c5.839,5.547,10.889,10.93,12.932,14.434s7.883,21.6,11.386,26.858,7.176,7.681,6.423,10.51.876,7.591-3.211,10.8-6.58,2.878-5.334,7.862.954,8.195.079,9.363,1.381,1.731-1.5,3.493-4.241.031-6.188,2.648,3.6-4.973-2.531-12.564-10.219-6.13-14.89-2.043-7.006,10.218-7.006,11.97,1.167,3.211,0,8.174-.292,4.671-2.044,8.758.584,3.5-3.211,7.007-4.963,3.5-5.255,6.131-3.8,2.919-1.752,7.006,4.963,2.92,3.8,6.715-2.93,3.657-2.049,7.084-1.7,3.123.882,8.1,2.584,11.678,2.584,14.014,2.962,3.5,2.671,7.006-2.628,7.3-3.5,10.218-.584,3.212-.584,7.007,2.336,5.547-.292,8.175-3.609,2.043-4.14,6.13.345,5.547-3.158,8.467,0,2.335-3.5,6.131-8.466,4.963-14.6,8.174-17,15.139-27.443,13.43a160.318,160.318,0,0,1-18.527-3.877c-4.056-1.087-2.708-4.586-7.748-4.006s-12.261,2.044-17.516,2.044-4.671,2.043-11.386-.876-17.809-6.131-21.9-11.386-5.839-5.839-5.839-13.138-.584-11.969.292-16.932-.584-6.131,1.752-11.386S63,246.221,63,242.134s5.547-15.181,9.342-20.728,10.8-9.634,14.306-11.386-2.628-4.671,4.379-6.714a52.305,52.305,0,0,1,14.889-2.044,13.593,13.593,0,0,1,4.933.774c2.67.716,5.869,3.021,9.664.686s2.628-2.336,5.839-2.336,4.379-2.044,8.758,0,5.547,3.211,7.883,4.379,3.211-1.168,4.963,3.8a33.135,33.135,0,0,0,6.131,10.218c.876.875,4.087,8.466,8.174,8.174s3.8-.876,4.379-7.3-.6-9.232,1.743-10.747,4.1.237,6.724-4.142.38-5.779,3.4-7.268,3.9-.03,4.772-2.658a14.82,14.82,0,0,1,2.336-4.379s-.209.778,1.709-6.377,4.422-5.3,3.838-13.767-4.087-9.051.584-12.262,6.5-1.637,4.671-5.839-2.628-5.839-2.92-10.51.876-4.087-.875-8.758-7.883-3.212-1.752-7.3,5.44-1.509,6.72-6.286-.967-2.787,2-7.447,5.882-2.908,7.342-9.038-.584-4.672,1.46-9.343,8.43-.456,3.8-7.882C209.338,81.09,212.1,77.641,212.1,77.641Z" style="fill: #f0e1cc"/>
      <path d="M147.288,239.188c-6.126-6.125-8.269-7.2-13.476-12.4s-7.5-8.269-10.26-8.729-8.423-1.225-13.17-1.99-7.2,1.072-10.107,4.287a40.456,40.456,0,0,1-8.882,7.045c-1.685.919-5.054,3.062.612,2.144s4.441-1.379,7.5-1.072A32.155,32.155,0,0,1,107.166,230c3.675,1.072,1.225,2.144,6.125,2.757s4.759-2.6,7.893-.613,2.827,2.91,5.89,3.369,2.756-1.072,6.891.459,3.511,1.838,8.57,3.216,7.509,3.676,6.131,1.838Z" style="fill: #e1bb94"/>
      <path d="M127.759,228.8c-4.972-2.311-8.689-5.593-14.336-5.352s-12.84-.048-14.481-.82a3.264,3.264,0,0,1-.584-.365c.673-.616,1.324-1.257,1.917-1.912,2.909-3.215,5.36-5.053,10.107-4.287s10.413,1.531,13.17,1.99,5.053,3.523,10.26,8.729c1,1,1.892,1.852,2.719,2.615C135.014,230.529,131.763,230.662,127.759,228.8Z" style="fill: #72382c"/>
      <path d="M94.862,225.117c1.361-1,4.375-3.794,5.728-5.108,6.94-.08,21.853,3.882,25.219,4.556s8,2.9,9.773,5.664c1.178,1.84,1.93,5.083.782,6.081a2.618,2.618,0,0,1-.639.355c-.483-.2-1.048-.429-1.76-.692-4.135-1.532-3.828,0-6.891-.46s-2.757-1.378-5.89-3.369-2.992,1.225-7.893.612-2.45-1.684-6.125-2.756a32.155,32.155,0,0,0-7.657-1.531,7.349,7.349,0,0,0-3.658.3A16.423,16.423,0,0,1,94.862,225.117Z" style="fill: #844234"/>
      <path d="M155.681,154.848c1.971.148,3.727.172,5.287.258a9.373,9.373,0,0,1,.988,4.218,8.4,8.4,0,0,1-4.459,7.714,13.555,13.555,0,0,1-3.041-.4c-1.564-.447-3.145-.81-4.49-1.333a9.023,9.023,0,0,1-2.174-5.983,9.581,9.581,0,0,1,.391-2.7C149.5,154.783,151.045,154.5,155.681,154.848Z" style="fill: #503338"/>
      <path d="M96.509,159.346a10.291,10.291,0,0,1-2.777-.929A9.353,9.353,0,0,1,93.658,147c1.237-.168,2.669-.092,3.949-.3a16.471,16.471,0,0,1,6.885.983,9.233,9.233,0,0,1,1.422,4.98,8.51,8.51,0,0,1-4.026,7.488A38.378,38.378,0,0,1,96.509,159.346Z" style="fill: #503338"/>
      <path d="M121.184,159.9c-.561,3.552-2.3,6.853-3.027,10.153a19.129,19.129,0,0,0-.55,2.437c-.127.837-.182,1.679-.261,2.593a6.971,6.971,0,0,1-1.568,4.208c-.266.342-.518.666-.756,1.015-.474.676-.923,1.475-1.524,2.243a18.921,18.921,0,0,1-1.905,2.062c-.692.646-1.279,1.179-1.855,1.808a23.147,23.147,0,0,0-1.595,1.976,13.813,13.813,0,0,0-2.217,4.376,2.933,2.933,0,0,0,.046,1.9c.052.118.154.19.21.3l.471.483c.317.331.63.67.936,1.022.618.7,1.157,1.5,1.656,2.154.256.335.52.656.8.974a9.855,9.855,0,0,0,.853.844,8.992,8.992,0,0,0,4.185,2.153c1.4.274,3-.331,4.6-.97l2.428-1.05c.418-.178.837-.357,1.31-.517.451-.139.869-.231,1.305-.349l5.181-1.341,1.3-.335.323-.084a3.432,3.432,0,0,1,.546-.086,4.188,4.188,0,0,1,.886.085c.5.094.9.213,1.261.248a2.846,2.846,0,0,0,.841-.019c.4-.024.831-.54,1.177-1.336a10.463,10.463,0,0,0,.779-2.39,7.208,7.208,0,0,0,.08-2.52,4.817,4.817,0,0,0-.988-2.374,5.109,5.109,0,0,1,1.536,2.234,7.917,7.917,0,0,1,.412,2.761,11.764,11.764,0,0,1-.381,2.789,5.509,5.509,0,0,1-.548,1.448,2.873,2.873,0,0,1-1.4,1.276,3.279,3.279,0,0,1-1.788.128c-.515-.091-.971-.206-1.346-.28a2.525,2.525,0,0,0-.434-.052c-.051.018.019-.012-.109.02l-.32.082-1.28.331-5.12,1.323c-.419.113-.868.215-1.264.336-.367.123-.765.291-1.162.461l-2.455,1.061a20.565,20.565,0,0,1-2.645.915,7.133,7.133,0,0,1-3.043.179,10.929,10.929,0,0,1-5.177-2.622,32.925,32.925,0,0,1-3.507-4.172c-.275-.317-.563-.63-.861-.939l-.457-.469a4.736,4.736,0,0,1-.556-.779,4.809,4.809,0,0,1-.218-3.3,15.686,15.686,0,0,1,2.535-5.074,25.456,25.456,0,0,1,1.745-2.16c.621-.682,1.348-1.343,1.952-1.906a17.091,17.091,0,0,0,1.7-1.84c.5-.627.921-1.379,1.461-2.157.262-.384.554-.761.833-1.119a5.012,5.012,0,0,0,1.144-3.148,23.612,23.612,0,0,1,.878-5.449C117.649,165.978,119.829,163.21,121.184,159.9Z" style="fill: #e29d7c"/>
    </g>
  </g>
  <g style="clip-path: url(#babdb9d7-2130-4af9-a789-05d175fa53ef)">
    <g>
      <path d="M406.523,187.546c4.03,1.079.061-.883,10.66,5s20.8,8.178,24.337,12.528,9.028,15.734,14.131,21.622,4.576,6.732,14.782,14.975,6.528,9.578,14.591,18.52c9.032,10.016,15.769,39.011,28.722,44.9s19.627-8.523,26.692-2.635,11.384,3.925,18.842,12.954,16.486,26.3,24.73,36.5,19.234,25.908,19.234,25.908-480.265.588-479.676,0,37.29-53.385,54.562-63.983,27.477-19.627,40.038-23.552a168.215,168.215,0,0,1,24.337-5.532s-5.5-7.031,7.459-27.835,17.571-22.04,21.161-23,5.531.236,6.708-6.044,3.366-10.372,5.8-15.392,51.113-39.12,51.113-39.12Z" style="fill: #0b0b13"/>
      <path d="M399.254,201.28c6.153,1.084,12.041-.266,16.751,7.278s4.711,10.256,7.066,21.854,6.673,13.953,6.673,24.552,2.826,22.374,2.787,31.8.824,15.309,0,25.907,2.316,10.6-4.357,20.019-4.318,13.346-12.561,18.057-3.157,7.458-13.551,5.888-12.749-.785-18.637-5.5-10.011,3.141-13.053-10.206,1.2-11.383-.529-20.019-.157-5.5-6.045-16.879-4.711-12.308-7.037-16.094-2.929-1.534-5.521,8.139-12.146,7.955-12.159,20.516,3.23,41.216-12.13,42.394-28.652,2.355-33-5.1-5.522-5.5-6.7-15.7-4.548-13.346-2.863-25.908,2.863-7.85,2.078-21.981-3.37-20.412-2.078-26.3,5.611-1.963,2.863-11.384-4.3-20.8-3.326-27.084,5.895-20.445,5.895-20.445l49.258-17.789Z" style="fill: #d8d0bb"/>
      <path d="M397.306,204.629c3,10.689,9.278,41.7-.535,47.194S377.929,266.347,374.4,271.45s-3.926,11.383-10.991,12.954-17.41-2.356-23.229-5.888a104.328,104.328,0,0,1-13.226-9.421c-4.369-3.533-9.839-6.673-10.833-12.169s-2.962-14.622-4.579-16.338,70.316-64.524,70.316-64.524Z" style="fill: #d5bd8d"/>
      <path d="M404.085,78.881c-2.56-2-21.538-14.62-30.885-16.86s-19.912-4.272-29.259-4.272S296.8,69.941,296.8,69.941l-39.012,41.45,12.191,67.051,19.842,26.637s19.17,48.136,41.114,44.072,30.908-4.992,47.546-18.693c18.752-15.442,28.04-42.912,28.04-42.912l6.095-6.468,12.3-24.959,7.618-37.82S418.854,90.445,404.085,78.881Z" style="fill: #e2c8af"/>
      <path d="M404.085,78.881c-7.722.813-15.443-.813-23.57,0s-12.758-2.836-17.228.821-13.523,2.69-9.593,6.372c10.035,9.4,6.1,4.592,14.223,8.249s13.817,2.032,15.849,6.1,1.716,12.191,1.716,12.191,6,7.314,7.63,12.191,3.251,10.159,4.877,8.534,1.219-5.283,6.1-5.283,5.772-1.938,8.94,0,4.47,1.006,5.689,5.583,4.47,2.951,4.064,11.078.441,4.966-2.141,14.6a96.906,96.906,0,0,1-8.019,20.348c-1.318,2.638-4.08,5.239-5.272,6.7-1.012,1.237-.894,1.648,2.2.557,6.733-2.376,7.545-6.846,9.171-7.659s-.337-2.032,4.1-2.032,9.311.406,10.53-3.657.813-6.909,1.626-11.379,0-8.127,1.219-10.565,1.626-2.032,3.657-4.064-.061-1.533,2.032-5.689,3.251-3.251,4.064-6.5,3.251-2.032,2.438-8.128,0-8.94-3.251-13.817-3.251-7.721-5.689-9.346-.813-4.064-2.438-8.94,1.625-5.283-4.064-8.534-6.7-6.462-11.681-4.857-3.667,1.958-7.662.887A67.446,67.446,0,0,1,404.085,78.881Z" style="fill: #1d160c"/>
      <path d="M327.28,68.315c8.534,1.626,14.629,2.438,15.849,4.47s3.657,2.845,3.657,9.753.406,8.94-5.283,10.972-2.844,1.626-14.223,2.032-10.972-2.438-17.068,1.219-5.689,4.47-13.816,6.5-6.1,1.626-14.63,4.47-11.378-.406-12.191,4.877,1.219,4.063,1.626,8.94,1.219,4.805,1.219,11.546a53.693,53.693,0,0,0,1.625,14.055c.813,3.251,2.438,5.283,2.438,8.128s2.032,6.095,3.251,9.753,1.22,3.657,1.22,9.753-2.845.406.406,10.159a72.532,72.532,0,0,0,7.315,15.849s5.689,7.721-1.626,2.438-9.727-13.41-17.664-21.538-13.627-15.442-15.252-20.319-2.032-6.5-4.064-11.378-.21-11.674,0-12.459-2.844.6-4.47-4.441-1.633-5.071-2.879-9.723-2.879-6.7,0-9.951,2.879,1.626,2.879-3.251-2.438-5.689,0-11.378-.406-10.972,6.5-10.972,9.347,1.219,14.223,0a26.951,26.951,0,0,0,11.379-6.1c2.031-2.031-.813,4.877,8.533-6.095s7.721-11.379,10.972-13,18.694.406,21.538,1.625S327.28,68.315,327.28,68.315Z" style="fill: #1d160c"/>
      <path d="M343.863,149.426c-1.636-6.106,8.022-8.239,12.575-8.022s11.275-.012,12.792,4,.217,8.136-3.9,9.22-7.372,1.952-11.275.868S344.991,153.634,343.863,149.426Z" style="fill: #fff"/>
      <path d="M295.947,153.572c6.94-.091,11.491-1.2,13.442,2.423s1.3,6.656-3.469,8.391-6,2.288-11.966.867c-6.1-1.45-8.848-1.438-9.5-4.513S288.146,153.675,295.947,153.572Z" style="fill: #fff"/>
      <path d="M313.725,150.293a42.941,42.941,0,0,1,3.436,8.212,54.2,54.2,0,0,1,1.937,8.723,22.566,22.566,0,0,1,.225,4.509,9.5,9.5,0,0,1-.4,2.3c-.24.686-.446,1.382-.629,2.091a42.216,42.216,0,0,0-1.3,8.675,22.125,22.125,0,0,0,.181,4.335,7.007,7.007,0,0,0,1.588,3.77,15.136,15.136,0,0,0,1.714,1.269,19.114,19.114,0,0,0,1.849,1.141,5.646,5.646,0,0,0,1.933.685,2.831,2.831,0,0,0,1.865-.434,7.124,7.124,0,0,0,1.538-1.421c.443-.555.879-1.174,1.362-1.755a13.7,13.7,0,0,1,3.354-3.024,11.631,11.631,0,0,1,4.247-1.509,3.313,3.313,0,0,1,2.08.869,8.215,8.215,0,0,1,1.472,1.673,8.115,8.115,0,0,0-1.566-1.554,3.123,3.123,0,0,0-1.973-.723,11.332,11.332,0,0,0-4,1.657,13.343,13.343,0,0,0-3.125,3,13.878,13.878,0,0,1-2.978,3.43,3.647,3.647,0,0,1-2.365.619,6.308,6.308,0,0,1-2.247-.751,19.988,19.988,0,0,1-1.944-1.171,15.178,15.178,0,0,1-1.861-1.361,7.861,7.861,0,0,1-1.89-4.26,22.771,22.771,0,0,1-.236-4.532,43.16,43.16,0,0,1,1.419-8.866c.195-.724.417-1.448.674-2.158a8.676,8.676,0,0,0,.372-2.062,25.837,25.837,0,0,0-.124-4.363,54.405,54.405,0,0,0-1.644-8.674A47.357,47.357,0,0,0,313.725,150.293Z" style="fill: #886d50"/>
      <path d="M312.18,184.741a12.387,12.387,0,0,0-2.889,3.549,4.518,4.518,0,0,0,.1,4.119,12.741,12.741,0,0,0,2.754,3.532,2.089,2.089,0,0,0,1.888.625,11.392,11.392,0,0,0,2.088-.983,8.491,8.491,0,0,1-1.947,1.422,2.084,2.084,0,0,1-1.317.095,3.411,3.411,0,0,1-1.164-.561,10.735,10.735,0,0,1-1.8-1.662,9.48,9.48,0,0,1-1.4-2.031,5.649,5.649,0,0,1-.612-2.478,4.963,4.963,0,0,1,.706-2.448A8.892,8.892,0,0,1,312.18,184.741Z" style="fill: #886d50"/>
      <path d="M344.4,208.558a6.187,6.187,0,0,1-.392,3.929c-.813,1.445-2.709,4.7-4.335,4.9s-10.633,1.152-13.342,0-4.877-2.777-5.283-4.6,2.98-5.08,6.773-5.012S344.4,208.558,344.4,208.558Z" style="fill: #bc8b7d"/>
      <path d="M350.178,205.87c-.136-1.206-10-1.293-14.988-.791s-5.4-1.595-9.106.5-8.577,1.123-9.709,3.705,1.687,3.667,4.289,3.016,8.752-1.517,12.507-2.168,4.4.906,8.957-.848S350.428,208.08,350.178,205.87Z" style="fill: #916751"/>
      <path d="M368.164,124.144c-7.343-1.967-12-2.086-16.949-.26s-15.557,5.084-11.038,5.867,7.909-1.043,12.733-2.608,2.738-2.216,9.778-1.434S372.8,125.388,368.164,124.144Z" style="fill: #1d160c"/>
      <path d="M299.324,136.27c-11.865.521-16.558,1.3-17.341,3.65s.652,3.26,3.781,2.086,7.432-2.868,10.952-3.129,11.082,1.174,7.823-.782S299.324,136.27,299.324,136.27Z" style="fill: #1d160c"/>
      <path d="M356.438,141.4c3.116.149,7.247.09,10.031,1.325a15.424,15.424,0,0,1,.263,2.8,13.727,13.727,0,0,1-3.74,9.7c-3.083.748-5.8,1.142-8.939.272-1.375-.383-2.9-.733-4.36-1.2a14.082,14.082,0,0,1-2.9-8.766,15.443,15.443,0,0,1,.143-2.025A19.779,19.779,0,0,1,356.438,141.4Z" style="fill: #412c19"/>
      <path d="M292.233,153.954a20.489,20.489,0,0,1,3.714-.382c4.389-.058,7.819-.519,10.244.064a14.237,14.237,0,0,1,.94,5.16,14.065,14.065,0,0,1-1.107,5.544c-.038.014-.065.032-.1.046-4.77,1.735-6,2.287-11.966.867-.409-.1-.765-.174-1.145-.26a13.857,13.857,0,0,1-1.406-6.2A14.306,14.306,0,0,1,292.233,153.954Z" style="fill: #412c19"/>
    </g>
  </g>
  <g style="clip-path: url(#b90503be-9213-4a33-be7d-caf81916fab0)">
    <path d="M-191.889,254.836c9.3,1.566,3.209.3,26.812,5.88s21.825,3.156,31.215,8.05,11.421,5.655,19.034,11.746,7.989,5.238,14.466,12.943c8.375,9.961,1.366,7.193,15.07,14.045s12.086,4.735,26.805,10.572,52.534,50.5,56.341,65.223,8.375,29.693,10.659,31.216-310.026,0-310.026,0H-553.022a368.625,368.625,0,0,0,25.914-38.8c11.178-19.816,11.178-20.324,18.8-37.092s12.433-13.518,26.151-23.172,19.288-3.8,32.092-20.288c11.269-14.509,30.073-30.425,36.212-32.931,13.208-5.392,22.523-11,33.136-15.066s35.543-12.226,35.543-12.226Z" style="fill: #b5afb1"/>
  </g>
  <g style="clip-path: url(#bad4c799-9b22-43fa-a399-e150d60f9978)">
    <path d="M265.559-338.649c11.128,0,4.328-9.273,22.874,0s25.347,9.892,34.621,22.875,16.692,2.472,18.547,16.692,1.854,9.891,3.709,24.11,1.855-3.091,1.855,17.929-5.564,13.6,0,21.02,8.655,6.182,11.128,16.073,9.273,10.51,12.982,20.4-8.017,8.65,0,17.31a63.824,63.824,0,0,1,11.747,18.547s-14.838.618-8.655,8.655,13.6,16.692,13.6,16.692,6.8,9.892,8.037,13.6,6.8,6.182-2.472,11.128-9.274-3.091-9.274,4.946-14.837,3.709-20.4,0-2.473,1.264-5.564,4.545,3.419,8.824-15.08-4.214-20.792-22.367-26.04-15.058-10.811,8.98-7.1,19.272S314.4-96.3,318.108-89.5s15.456,9.891,3.709,17.928-13.6,10.51-17.31,11.128-16.692-16.073-18.547-17.31-8.9-.9-5.379,11.917,9.009,12.217,1.052,18.994S263.7-38.81,269.268-32.627s11.128,1.236,1.855,9.891-16.692-2.473-22.256,8.655-4.946,11.747-6.182,15.456,0,17.31-5.564,0,3.091-17.31-5.564-17.31-9.82,2.82-16.656-4.463-9.928-7.9-7.455-17.793,2.473-13.6,2.473-13.6l-7.7,2.061s-.96-3.916-3.433,4.739-1.237,5.564-3.71,12.983-4.946,6.182-7.418,11.128a21.358,21.358,0,0,0-2.473,8.655s-4.1,4.543-7.419,1.855-1.126-2.435-5.2-8.945-4.693-7.129-9.02-7.747-7.419,2.473-6.182-7.419,8.036-12.983,6.182-14.837S164.14-47,161.7-53.647a18.112,18.112,0,0,1,0-12.365l-5.752-6.628-4.338-16.193c-1.052-3.924-4.747,4.893-4.747-5.617s5.564-11.746,0-12.983-6.183,4.946-8.037-1.854,4.327-6.8.618-12.365a26.541,26.541,0,0,0-9.892-9.273c-3.091-1.855-3.132-1.866-7.17-2.948s-10.06,4.162-7.049-1.082,9.274-6.48,7.419-10.808-3.732-2.842-5.564-4.327,6.182-12.228,6.182-16.315-3.886-3.184,0-10.887,10.744-4.552,8.655-11.128-6.182-11.746-3.709-21.02,7.844-8.784,10.226-17.673,8.108-3.856,7.084-13.238,3.091-22.874,3.091-32.148,1.237-19.783,5.564-25.347,12.983-12.364,14.838-1.236-11.746,56.258-11.128,64.295,6.8,27.2,8.037,30.293-4.946,15.456,3.091,9.892,3.709-12.365,18.547-8.656,19.783,3.092,27.82,7.419-.619,8.037,9.891,5.564,7.419-2.473,12.983-2.473,9.389,12.983,18.295,6.8,12.616-1.237,14.471-12.365-11.066-13.1,9.273-18.546c8.2-2.2,10.98-3.219,6.652-7.547s-6.033-7.909-7.27-14.71-3.709-6.182-.618-16.692a116.735,116.735,0,0,1,6.734-17.745s8.722,2.908.685-2.656-11.068-1.673-8.037-9.273,11.128-14.22,11.128-16.074,3.091-8.655,1.236-12.983-1.587-4.256-7.242-5.771-6.359-3.5-7.595-5.357,1.236,5.564-8.655-1.855S265.559-338.649,265.559-338.649Z" style="fill: #b0a494"/>
  </g>
</svg>
