<svg id="f2a58eec-3c55-4d74-a151-3ffbb02b01a1" data-name="Layer 1" xmlns="http://www.w3.org/2000/svg" xmlns:xlink="http://www.w3.org/1999/xlink" width="500" height="300" viewBox="0 0 500 300">
  <defs>
    <clipPath id="b010befb-55c3-4096-bf8b-553fef29fa81">
      <rect x="516.265" y="-308.333" width="493.92" height="286.789" style="fill: none"/>
    </clipPath>
    <clipPath id="fc5018cb-2193-4dc9-ad1f-7d98a33a904f">
      <rect x="513.25" y="-239.004" width="260.889" height="218.606" style="fill: none"/>
    </clipPath>
    <clipPath id="e35b37e5-71f3-4a4c-b870-f04406fd912b">
      <rect x="91.167" y="-1001.276" width="358.027" height="300" style="fill: none"/>
    </clipPath>
    <clipPath id="f83d7f1f-83f8-4222-af64-075d5c31eddf">
      <rect x="34.619" y="-996.843" width="427.463" height="427.463" transform="translate(872.042 -1317.855) rotate(-148.205)" style="fill: none"/>
    </clipPath>
    <clipPath id="f1e36bc2-09cb-4a49-b3f0-3b7803c82b7b">
      <rect x="20.31" y="0.05" width="468.153" height="299.95" style="fill: none"/>
    </clipPath>
  </defs>
  <title>pic-7</title>
  <g style="clip-path: url(#b010befb-55c3-4096-bf8b-553fef29fa81)">
    <g style="clip-path: url(#fc5018cb-2193-4dc9-ad1f-7d98a33a904f)">
      <path d="M805.533,13.915C781.852-1.056,740.834-86.245,692.7-86.957s-146.092,7.189-186.1,76.87c-25.42,44.27-72.677,59.339,66.96,51.99S805.533,13.915,805.533,13.915Z" style="fill: #090302"/>
    </g>
  </g>
  <g style="clip-path: url(#e35b37e5-71f3-4a4c-b870-f04406fd912b)">
    <g style="clip-path: url(#f83d7f1f-83f8-4222-af64-075d5c31eddf)">
      <g>
        <path d="M453.847-650.647c.129-.314-.218-1.191-.407-1.21-1.316-.133-1.567,1.147-2.241,1.88-2.241-1.181-3.022-2.662-2.344-5.428,1.318-5.383,3.337-9.951,9.021-11.9l.028-.006a3.488,3.488,0,0,1,2.036,2.546c2.526,14.387,5.852,28.657,4.155,43.5a104.778,104.778,0,0,0-.379,20.945c.5,5.825.67,11.852-.875,17.482-1.99,7.25-5.7,14.072-7.275,21.379-1.487,6.877-4.536,13.759-3.7,20.832,1.191,10.073,4.037,19.914.353,30.122-1.177,3.259-1.062,7.129-.907,10.692a64.695,64.695,0,0,1-1.676,19.023,75.142,75.142,0,0,0-2.323,22.44c1.2,24.59-5.384,47.045-18.782,67.6-7.177,11.012-16.267,20.474-24.61,30.543-1.574-4.374-5.575-6.4-9.342-6.951-3.708-.538-5.917-2.763-8.717-4.375a14.786,14.786,0,0,0-6.925-2.356c-6.241-.481-13.836.164-17.71-7.4-1.2-2.353-4.328-2.329-6.739-1.562-2.8.89-4.7.5-7.166-1.444-2.6-2.057-5.944-2.332-9.827-2.2-4.225.143-8.844-3.7-12.813-6.487-2.446-1.716-5.454-3.686-5.429-7.49-3.986.061-3.508-7.934-9.091-5.032-.7.365-1.951.21-1.455-.683,1.839-3.307-5.622-4.763-1.561-8.146,2.138-1.781,2.447-3.027,1.749-6.059-.76-3.31,2.413-4.83,6.339-4.735,6.792.165,13.564-.132,20.01,3.01l.828-1.343c-3.066-3.784-5.71-8.059-9.348-11.174-2.355-2.017-5.681-.011-8.514,1.273-3.022,1.371-6.9,3.545-6.734-2.944.013-.518-.277-1.438-.585-1.512-7.623-1.836-6.716-12.05-14.3-14.292a9.841,9.841,0,0,1-6.537-7.732c-.162-.843-1.531-1.642-1.425-2.318.974-6.223-9.051,1.957-7.163-5.6,1.18-4.726-5.014-5.6-5.671-9.545-.749-4.5-5.593-5.279-7.831-8.524a7.186,7.186,0,0,0-5.464-2.723,24.974,24.974,0,0,1-19.39-10.5c-4.113-5.55-10.748-5.895-16.2-8.666a1.373,1.373,0,0,0-2.16.979c-.755,2.979-2.412,1.687-3.766.7-1.644-1.2-3.157-.878-4.784-.125-1.648.764-4.57.072-4.845,2.153-.372,2.81,2.854,2.192,4.47,3.189,4.184,2.581,5.673,7.34,7.846,11.31,3.083,5.635,3.532,11.969,2.362,18.467-.475,2.641-.618,3.524-3.7,2.965-5.369-.974-7.272,1.163-6.441,6.673,2.118,14.059,6.007,27.8,6.78,42.121.654,12.1.31,24.044-7.195,33.96-8.207,10.842-9.765,23.289-11.236,35.987-.535,4.618.155,9.548-5.6,12.179-1.414.647-2.516,5.4-1.589,7.045,2.134,3.776.38,7.189.778,11.007,2.925-4.4,9.026-5.8,9.316-12.816.159-3.852,4.534-6.7,8.094-8.91a2.04,2.04,0,0,1,3.336,1.662c.459,4.831,2.659,2.305,4.172.968a36.608,36.608,0,0,1,12.959-7.849c4.4-1.428,4.12-5.864,5.263-9.313.128-.386-.288-1.117-.658-1.477-2.9-2.824-2.869-4.1,1.519-5.345,3.836-1.087,4.117-2.566,1.965-5.8,3.777,3.037,7.359-.608,10.772.657-5.829,2.105-5.784,8.292-8.775,12.163a34.469,34.469,0,0,0-5.013,9.722c-1.592,4.3.438,11.474,4.162,13.793,1.466.913,2.885,2.248,4.858.04,2.588-2.9,2.1-8.6,7.767-8.7-.06-2.306-.433-4.574-2.4-6.024-4.353-3.2-4.241-6.373-.7-10.254,5.485-6.009,5.348-7.546-.03-10.709,4.7-.772,8.247,2.853,12.647,3.38,1,.12,1.106,1.875,1.015,3.016s-.767.777-1.578.594c-5.317-1.2-4.381,1.988-2.709,4.526,1.766,2.68,2.913,4.638,1.955,8.344-1.022,3.954,3.423,6.81,5.33,10.208.859,1.531,2.268.141,2.9-1.167.65-1.342-.384-2.644-.259-3.818.247-2.306.687-5.224,2.935-6.12,2.526-1.007,2.346,2.293,3.508,3.547,1.238,1.338,2.247,2.889,4.124,5.357-1.394-7.9-2.788-14.144-10.5-16.387a2.033,2.033,0,0,1-.569-3.683c5.778-4.017,2.7-6.275-1.406-8.541-.374-.206-.5-.867-.885-1.593,2.576-1.236,4.037.775,5.706,1.58,4.091,1.976,8.035,4.259,12.148,6.182s5.084,4.348,1.748,7.8c-.736.762-2.279,1.256-1.069,2.57a6.583,6.583,0,0,0,3.258,2.111c1.509.277,1.5-1.395,1.722-2.425,1.1-5.151.831-10.486,1.372-15.685.233-2.24-4.588-5.453-7.26-7.988-4.661-4.421-8.647-9.491-14.681-12.671-4.522-2.384-9.337-5.469-11.464-10.975-.559-1.446-2.2-2.476-4.172-4.589,6.584,1.615,11.176,5.074,15.7,8.055,18.822,12.39,38.275,23.9,55.949,37.95C339.375-350.2,350.771-345.6,359.64-337c2.622,2.542,8.137,3.567,12.755,3.805,5.844.3,8.864-3,10.643-8.015a41.661,41.661,0,0,0,3,3.271c8.653,7.679,16.093,16,17.287,28.324.317,3.27,2.068,6.376,2.814,9.636,1.063,4.651,3.712,9.182,1.483,14.189h0c-1.858-1.021-1.912-4.724-5.685-3.385,2.6,3.543-.7,6.758-.844,10.353-.129,3.31,2.091,7.406-1.2,10.626-.932.911.585,2.065,1.268,2.842,3.748,4.26,2.546,8.868.228,12.892-2.832,4.914-4.907,10.2-7.817,15.023-6.958,11.524-14.168,22.9-21.394,34.257a23.633,23.633,0,0,0-4.009,11.036c-.362,5.518-2.664,10.341-5.228,14.815-6.939,12.111-11.06,25.049-13.486,38.694-1.879,10.573-2.107,21.472-6.075,31.644-.693-.567-1.453-1.684-2.068-1.609-3.547.431-9.393,10.495-8.646,14.6-2.251,4.7-5.818,8.3-9.674,11.664-1.823-1.259-4.249,1.98-5.869-.788-.409,1.028-.845,2.046-1.222,3.085-.948,2.611,1.251,3.108,2.76,4.063-2.235,3.392-5.982,6.028-6.237,10.415-.268,4.6-1.989,8.777-2.883,13.162-1.667,8.182-4.9,16.3-1.759,24.972.824,2.272,1.178,5.234-.686,7.62-1.383-.524-3.572-2.7-4.079-.514-1.128,4.858-8.4,4.466-7.948,10.038.143,1.771,1.666,3.573,3.47,2.712,2.3-1.1,6.029-1.227,5.905-5.053-.093-2.874-.16-5.526,2.641-7.251,3.687,5.57,4.99,11.073,2.573,17.933-2.609,7.405-6.752,14.431-7.233,22.489-.309,5.182-2.489,5.147-6.1,2.818-8.989-5.8-18.015-11.552-27.026-17.322A52.2,52.2,0,0,0,266.084.931C264.612-.92,263.05-1.121,262,1.462a281.31,281.31,0,0,1-24.61-15.141c-.62-5.156-5.828-5.759-8.764-8.608-.5-.487-1.556,1.132-1.8,2.232l-1.014-.662c.626-3.691-4.489-11.044-8.126-11.4a6.794,6.794,0,0,1-3.428-1.745c-3.3-2.394-5.167-1.507-5.831,2.4l-1.967-1.254c3.25-1.62,3.386-4.245,2.662-7.4-.668-2.908-2.656-.846-3.945-1.318,2.72-2.01,5.536-3.791,7.274-6.976,1.411-2.587,1.645-5.427-.166-7-2-1.742-2.714,1.528-4.013,2.584-2.584,2.1-6.641,2.531-7.521,6.641a2.532,2.532,0,0,1-2.014.161c-4.859-3.437-5.97.473-7.453,3.7l-8.1-4.987c1.218-2.637,4.335-5.116,1.076-8.229-3.676-3.511-4.648-3.051-8.214,3.507-5.375-1.867-8.513-7.359-14.18-8.752,3.571-3.186,2.221-6.031-.867-8.855L156.341-63.9c-4.844-2.1-3.974-5.4-1.573-8.671,2.1-2.853,1.639-4.64-1.482-6.142a32.64,32.64,0,0,1-12.563-10.269c-2.826-3.937-8.657-3.542-10.835-8.122.67-.838.912-3.3,2.483-.6,1.2,2.068,2.926,1.646,4.232.353,2.372-2.348-.419-3.992-1.119-5.916-.841-2.309-2.345-.892-2.953-.159-1.3,1.563-3.387,2.474-3.94,4.648a4.215,4.215,0,0,1-3.416-2.322c6.123-3.321.831-7.783,1.835-12.79-3.666,2.834-6.236,4.984-7.72,8.212-7.548-.542-9.838-7.625-14.552-11.692,6.255-1.842,3.824-6.347,3.064-10.253-.287-1.472-1.89-1.334-2.805-1.136-3.588.773-6.068-1.172-8.6-3.108-5.883-4.5-5.881-4.5-7.776,2.714a7.127,7.127,0,0,1-2-.836c-8.291-7.1-8.3-7.123-13.84,1.729a30.076,30.076,0,0,0-3.2,5.98c-.975,2.845-2.537,3.024-4.727,1.661q-28.447-17.7-56.873-35.438c-1.518-7.41-.813-8.069,6.529-5.672,3.236,1.056,6.344,2.5,9.56,3.621,3.067,1.071,5.749,2.8,9.3-.241,2.932-2.514,9.116.578,10.3,4.792.648,2.315,1.528,3.758,3.755,4.352,6.119,1.632,12.269,3.157,18.937,6.555a64.577,64.577,0,0,1-1.9-13.828c15.323-2.92,30.6-5.123,44.6-12.594,1.257,1.725-1.829,3.462.158,4.543,1.635.89,2.617-.919,3.877-1.63,6.441-3.634,11.1-9.766,18.615-12.208a43.167,43.167,0,0,1,7.235-1.279c7.926-1.187,16.063-4.15,23.922.473-1.157,3.276-3.734,1.471-5.712,1.49-1.547.015-3.206-.465-3.364,1.758-.123,1.734,1.052,2.314,2.615,3.038,4.953,2.291,9.8,3.108,15.006.937,1.374-.573,4.317,1.63,4.031-1.652a4.147,4.147,0,0,0-5.428-3.48c-3.079.9-5.023-.063-6.891-2.149,1.34-2.562,3.952-2.61,6.29-3.093,1.879-.388,3.69-.771,5.044-2.282,1.794-2,3.925-17.1,2.711-19.4a5.02,5.02,0,0,0-.564-.9c-5.169,2.436-4.432-4.059-7.385-4.871-4.233-1.163-3.746-5.711-6.008-8.3a1.79,1.79,0,0,1,.647-2.494c1.187-.723,2.045-.1,2.746,1.009,1.824,2.881,4.151,4.6,7.16,2.714,2.723,2.027-3.863,4.012.578,5.338,1.346.4,3.06,3.223,4.767.54,1.315-2.067,2.823-4.332-.239-6.317l.031.119c.913-.98,1.1-3.278,3.227-2.133,1.569.846,2.9,2.428,1.9,4.215-2.825,5.038,1.73,10.291-.733,15.37-.8,1.644.282,3.467,2.339,3.794,2.5.4,2.68-1.795,2.855-3.34.939-8.3,2.419-16.758-4.7-23.475-1.787-1.688-.344-4.435-2-6.275-.646-.719-1.085-1.728-2.119-1.291a2.415,2.415,0,0,0-.9,1.882c-.027,2.026.75,5.509-.755,5.674-2.984.326-6.921-.165-9.047-1.979-2.407-2.053-4-1.367-6.492-.614,4.264-3.04,1.518-10.676,8.45-11.534.719-.088.941-1.2.526-1.926a1.745,1.745,0,0,0-2.827-.608c-1.7,1.23-3.023,3.864-5.648,1.449-2.235-2.055-1.356-4.211-.7-6.728.672-2.558-1.05-5.784,4.331-4.872,2.083.353,3.735-4,4.069-6.832,1-8.47,5.777-15.985,6.06-24.611.032-.974.232-2.035,1.513-1.876,1.263.157,1.272,1.285,1.091,2.213-1.339,6.872,2.223,14.749-4.723,20.524-3.095,2.573.376,7.008-1.716,10.185,3.9-.917,5.176,3.012,7.9,4.228a1.141,1.141,0,0,0,1.5-1.566c-2.912-4.9,4.1-7.35,2.818-11.845-.167-.587.922-1.11,1.757-.883a1.293,1.293,0,0,1,.888,1.787c-.651,1.97-1.408,3.908-2.186,5.833-.492,1.215-1.459,2.537.171,3.458a3,3,0,0,0,3.666-.727,16.1,16.1,0,0,0,3.142-5.3c1.127-3.695,2.066-7.331,6.149-8.925,1.292-.5,1.25-1.615,1.391-2.794.991-8.285,2.253-16.712,6.34-23.94,2.106-3.724,1.155-7.71,3.148-11.107a1.584,1.584,0,0,0-.725-2.377c-1.1-.562-1.692.217-2.34.938-2.1,2.339-2.106,5.637-3.777,8.159-.754,1.138-1.733,2.294-3.227,1.575a1.973,1.973,0,0,1-.448-3.35c2.472-2.1,4.017-3.884,2.734-7.662-.816-2.4,2.9-4.854,1.671-8.275-4.738.588-5.022,4.767-6.28,8.022-1.3,3.36-1.2,3.4-5.51,3.81-.722-2.074,1.928-1.958,2.217-3.422.362-1.832.042-3.575-1.386-4.606-1.891-1.364-2.56.643-3.4,1.779-1.3,1.752-2.538,3.549-3.692,5.171-3.917-4.648-.321-8.147,1.3-12.376,1.431-3.726,1.48-8.357.847-12.386-.511-3.255-7.041-3.339-10.2-.222-1.539,1.519-3.245,2.982-3.661,5.3-2.342-1.047-1.109-2.071-.729-2.961.442-1.033,1.659-2.691,1.424-2.917-6.042-5.8,1.892-12.88-1.691-18.555-1.957-3.1-1.4-5.167.585-7.562.209-.254.33-.973.227-1.035-6.952-4.159,1.319-10.9-2.587-15.73-.446-.552-.463-3.679,1.776-4.176,1.584-.353,2.163,1.183,2.61,2.461.867,2.481,2.713,1.575,4.251,1.1,2.221-.682,6.361-10.143,5-11.962-3.99-5.326-3.386-11.2-4.019-17.334-.468-4.537,2.452-10.538-2.545-14.463l.037.133c-.555-3.843.814-7.832-.818-11.571-.328-.75-.739-1.56-.122-2.032,5.874-4.5,1.942-10.578,2.71-16.311l-4.7,2.545c1.789-4.346,4.746-7.682,3.152-11.851-5.372,2.766-7.482,9.246-8.307,15.137-1.015,7.251.815,14.355-.974,21.8-1.4,5.8-3.11,12.994-1.6,18.53,1.318,4.838-.959,10.637,3.606,14.919,1.935,1.814.883,5.07-1.349,7-1.2,1.035-2.8,2.327-2.56,3.564,1.336,6.854-3.306,12.861-2.5,19.535.264,2.2-1.755,3.039-2.238,4.936-2.417,9.48-1.807,19.473-5.035,28.773-1.315,3.789,3.14,4.888,3.548,8.572.6,5.384-2.094,4.939-4.675,4.23-2.145-.589-3.493-1.006-4.6.849-.132-2.97,4.956-3.581,3.7-7.12-.5-1.416-2.321-.1-3.953.358,1.379-3.721,4.384-5.856,4.544-9.579.106-2.475.776-4.339-.941-6.984-1.489-2.294-.045-6.07,1.245-9.07.934-2.171,3.1-5.027-1.917-5.451-1.684-.142-2.121-1.465-1.606-3.426,1.136-4.317,2.356-9.355,1.715-13.147-1.159-6.861-.339-13.844-2.1-20.574-.97-3.7.321-6.784,3.938-8.118,2.993-1.1,4.277-2.848,4.08-6.153a7.427,7.427,0,0,0-6.793,2.856c-.616.751-1.466,1.445-2.434.831-1.29-.819-.649-1.938-.148-2.974.575-1.187,1.111-2.394,1.664-3.592,2.515-5.45,2.515-5.45-.5-10.164-2.043-.151-1.7,4-3.868,2.693-2.535-1.528.462-3.2.526-4.808.114-2.893.809-4.719,4.027-5.44,1.609-.361,2.011-2.562,2.4-4.269-1.658-1.3-3.258.967-4.843.048-1.8-1.043-3.853-1.8-2-4.677,1.7-2.633,5.481-6.372,1.175-8.549-4.108-2.077-4.7,3.6-6.717,6-.328.39-.479.928-.988,1.289,2.97-5.836,6.109-11.595,6.872-18.248a2.723,2.723,0,0,1,1.253-1.726c7.081-4.062,8.466-9.84,3.553-15.893-1.223-1.507-1.45-2.936-.075-3.9,2.827-1.99,2.872-4.952,1.327-6.877-2.367-2.948-3.781,1.805-6.158,1.754-1.005-2.028.692-3.078,1.474-4.414.872-1.487,2.192-3.436.587-4.634-5.652-4.217-3.5-10.3-4.077-15.654-.8-7.392-1.383-14.822-1.662-22.251-.155-4.127,2.957-7.223,4.544-10.808.96-2.171,4.466-4.62,1.818-6.63-3.125-2.371-7.1-.349-10.313,1.382-1.134.611-1.622,2.422-2.918,3.642-.107-4.154-7.68-5.517-1.876-11.707-4.4.748-4.664,7.1-8.46,3.5-3.338-3.164-5.824-7.06-4.756-11.98,1.626-7.49,3.359-14.94,2.151-23.152-1.445,2.33-2.747,4.765-4.367,6.967-2.482,3.373-7.014,3.652-8.71-.1-2.806-6.207-6.114-3.948-10.342-1.212.308-3.822,1.7-7.1,4.147-8.543,3.444-2.037,4.206-5.889,7.106-8.123,1.5-1.158,1.257-4.6,3.992-4.056,2.937.584,1.294,3.817,2.333,6.115,3.34-2.665,4.032-5.865,3.309-9.492-.4-1.991-.552-4.105,1.272-5.141,2.311-1.313,3.563,1.395,5.3,2.25,1.565.772,3.709,1.424,2.847,4.114-.749,2.339-1.3,4.74-1.937,7.115-.8,3,.644,3.745,2.909,2.316,2.885-1.821,7.048-2.483,7.428-7.025a1.757,1.757,0,0,1,2.34-1.758c8.3,2.4,16.9-1.625,25.178,1.262,2.48.865,5.066,1.425,7.6,2.124-.444,1.915.161,2.7,2.257,2.507,1.14-.107,2.355.631,1.982,2.025-.387,1.448-1.576,1.056-2.734.721-5.179-1.5-9.31-.056-12.208,4.589l-.709.139c.111.041.248.144.327.11a1.55,1.55,0,0,0,.368-.311c3.066,2.523,6.57,3.994,10.372,2.377,6.205-2.64,12.371,2.194,18.858-.629-2.414-2.24-2.038-4.369.881-5.993.93-1.786,3.034.3,4.043-1.227l14.052,4.667c-2.13,2.39-4.184,2.332-6.793,1.332-1.677-.643-4.005-2.165-5.571.413-.73,1.2-3.289,1.433-2.316,3.361.76,1.506,1.638,3.309,4.332,2.564,2.2-.609,4.57-.18,5.335,2.8.585,2.282,1.457,4.441-1.943,5.325-1.37.356-1.409,1.65-.8,2.8a2.857,2.857,0,0,0,2.884,1.385c1.9-.019,3-1.415,4.395-2.342a2.928,2.928,0,0,1,3.682.431c1.194,1.012.474,1.747-.263,2.8-4.712,6.7-4.645,7.2,1.054,14.5.637-5.4,6.627-5.66,8.42-10.01.354-.857,2.674-2.058,3.994-1.238,1.533.952.721,2.9.037,4.081-1.566,2.7-3.233,5.707-6.874,5.779-2.014.04-2.618,1.17-3.25,2.545a1.821,1.821,0,0,0,.815,2.422c1.486,1.022,2.3.028,3.365-.893,1.976-1.708,2.9-1.137,3.072,1.527.4,6.187,4.221,9.5,10.155,8.952.94-.086,2.142-.659,2.642.208,3.366,5.838,7.33.49,10.92.462,2.267-.018,1.689-2.181.069-3.058-5.055-2.736-8.986-7.524-15.2-8.189-1.828-.2-4.857-7.336-3.523-8.415,3.036-2.455,1.84-4.14-.143-6.445-1.586-1.844-2.955-4.74-.9-6.62,1.648-1.508,4.795-.453,6.63.533s3.9,1.9,5.433,3.762a3.814,3.814,0,0,0,6.019-.279c1.863-2.484-1.306-2.784-2.491-3.96-1.611-1.6-2.843-2.68-5.7-2.012-2.282.534-5.556.122-6.906-3.455-1.458-3.859-5.691-3.081-8.758-4.078-1.956-.635-4.238-.317-4.469-3.355a19.085,19.085,0,0,1,9.542,3.057c4.783,3.078,10.411,2.976,15.524,4.723,1.66.568,2.763-.767,4.177-.988-.286,2.884,2.111,2.756,3.778,3.164,16.8,4.113,30.6,13.745,44.439,23.533,9.247,6.538,19.211,12.062,28.556,17.855.051-.3-1.034-2.339.468-3.017,6.113-2.757,1.7-5-1.213-8.042,9.009-.241,16.617,2.549,24.975,3.5-1.717-3.72-4.863-2.624-7.1-3.5-1.666-.654-4.259-.3-3.829-3.082.352-2.278,2.859-3.022,4.459-2.7,5.854,1.175,9.963-2.817,14.849-4.43,2.27-.749,2.276-1.789.639-3.67-3.043-3.5-8.852-4.85-8.571-11.088.052-1.145-1.885-.867-2.944-.522-1.614.527-3.134,1.493-4.776,1.75-2.034.319-4.728,2.519-6.067-.427-1.064-2.339-3.1-4.993-.773-7.927a16.012,16.012,0,0,0,2.662-5.245c-5.47,6.38-11.912,6.731-19.135,4.264-1.642-.561-3.817.572-5.571.166-2.212-.512-5.605-1.2-1.9-4.556,3.156-2.856.41-6.1.056-8.941-.794-6.352,3.866-10.521,5.5-15.848.78-2.538,11.569,1.739,13.646,3.5,4.286,3.641,4.7,8.821,7.157,12.84,2.659,4.352,10.112,4.833,14.47,8.831.415.381,1.939-.017,2.675-.484,4.235-2.682,8.394-5.486,12.563-8.272.732-.489,1.929-.9,1.275-2.087a2.329,2.329,0,0,0-2.454-1.064c-6.858.871-9.746-5.158-14.294-8.286a2.217,2.217,0,0,1-.754-3.016c1.707-3.345-1.282-3.308-2.69-2.918-3.152.871-5.915-.447-8.853-.681-5.392-.43-7.361-3.516-7.848-8.58-.287-3,.878-7.142-4.533-7.761-1.88-.215-.971-2.928-.706-4.523.19-1.14.879-2.334,2.305-1.81,2.467.9,4,5.782,7.919,1.2.569-.666,6.587,3.048,7.916,6.929,2.471,7.216,12.4,11.586,18.908,8.23,2.534-1.307,1.436-3.7,1.885-5.552.46-1.894.864-2.768,3.059-2.993,2.639-.27,2.025,1.4,2.379,2.736,1.031,3.882,3.262,5.779,7.617,6.145,6.324.531,12.5,3.485,18.973,1.239,7.437-2.58,15.007-4.9,21.8-8.944-.965-2.5-2.351-1.45-3.569-1.427-3.365.063-6.938.987-6.167-5,.43-3.334-2.542-4.32-5.584-2.419-4.065,2.539-8.435,1.27-11.105-2.765-7.26-10.972-14.863-21.716-20.554-33.656a31.062,31.062,0,0,1-2.542-11.734c-.268-4.693,4.461-6.628,9.244-3.973,4.455,2.473,9.409,2.043,14.085,3.149,1.7.4,2.282-.966,3.072-1.992,1.584.125,3.17,1.263,4.8.029-2.33-1.779-2.33-1.779-4.776.073-3.956.034-4.457-2.828-4.185-5.64.236-2.435.079-4.569-2.611-4.576-3.486-.011-1.664,2.457-1.318,4.1.416,1.973-.394,3.6-2.159,4.046-2.014.51-2.15-1.281-3.057-2.785-2.353-3.9-1.509-9.266-6.552-12.179-2.186-1.262-3.528-1.4-5.977-.135,1.433-5.266,3.365-8.285,8.49-9.47,3.945-.911,2.627,3.047,4.772,3.53,2.173-2.646,4.319-5.356,6.578-7.967,1.042-1.2,3.286-2.045,1.238-3.984-1.472-1.4-2.519-2.551-5.567-2.027-7.867,1.351-11.687,7.252-16.374,12.246-2.524,2.689-4.721,4.043-7.758,1.02-.723-.72-1.544-1.224-2.436-.4a2.36,2.36,0,0,0-.433,1.39c1.787.822,2.511,1.939.648,3.286-1.494,1.081-3.133,2.957-4.971,2.3-2.952-1.063-5.526-2.464-5.439-6.794.066-3.249-1.291-6.969-5.68-7.584a13.8,13.8,0,0,1-5.7-2.42c-3.272-2.158-6.555-1.391-9.483.414-1.309.807-1.95,2.487-3.431.431-1.139-1.58-1.174-2.745.416-4.362,3.284-3.341,6.641-6.674,8.941-10.874,2.511-4.585,1.876-8.215-1.958-11.67-2.34-2.108-.27-4.139.5-6.147l.942-.034c-.375-.857-.663-.52-.933.068-6.759-1.662-4.605-5.735-2.517-9.546-1.538-2.866-4.494,5.183-5.632-1.006-.125-.677-1.206.821-1.81,1.371-5.173,4.715-6.224,11.129-6.9,17.546-.35,3.315-1.428,3.561-4.379,2.81-3.123-.794-6.335-3.632-9.773.135-.369-3.055,1.562-4.385,2.358-6.2.432-.982,1.612-1.891.748-3.047-.818-1.1-2.284-.724-3.151-.312-3.922,1.865-8.724,1.138-12.184,4.554a5.771,5.771,0,0,1-6.792,1.338c-2.479-1.312-1.211-3.7-1.013-5.657.284-2.793.264-5.745,2.97-7.647,2.213-1.554.908-3.84,1.014-5.795a1.986,1.986,0,0,0-1.972-2.306c-1.349-.016-1.965.926-2.247,2.138-.371,1.591.19,3.451-1.711,5.129-1.546-2.777-5.434-2.494-6.791-4.777-1.607-2.7,3.933-3.812,2.7-7.781-2.009,2.593-5.954,2.254-6.413,6.352-.178,1.588-2.3,2.128-2.942.688-1.649-3.7-6.022-1.35-8.12-4.158-.727-.972-2.382.631-3.065,1.7-.876,1.367-.733,3.374-2.457,4.081-5.838-6.439-1.756-11.724,1.254-17.819,7.333-14.849,20.5-21.763,34.619-28.092,5.03-2.254,9.149-6.5,14.824-7.749,1.83-.4,3.572-1.312,5.411-1.547,9.348-1.191,16.032-13.165,11.948-21.844-.916-1.947-3.249-2.787-5.235-2.786-3.948,0-7.2-1.677-10.529-3.363-2.763-1.4-4.4-5.064-8.8-3.171-2,.864-1.831-2.847-3.1-3.99-3.441-3.1-6-5.876-4-11.343,1.06-2.9-3.085-5.059-5.444-6.259-2.93-1.492-2.055,2.088-2.767,3.494-.443.875-.869,1.7-1.911,1.911-6.561,1.313-4.224,7.158-4.988,10.956-.511,2.544,3,2.6,5.332,2.306,1.512-.192,3.9-.431,1.787,1.87-2.487,2.712,3.792,5.1.1,6.612-1.878.771-3.3-3.37-5.941-3.329s-5.272-.853-7.687-.893c-6.672-.111-9.817-8.52-17.219-6.657-1.174.3-1.69-3.215-.843-4.272,2.792-3.488,2.333-8.348,5.441-11.67a3.846,3.846,0,0,0-.323-6.025c-2.975-2.566-2.471-6.124-2.76-9.44-.091-1.048-.324-2.494,1.288-2.676,1.323-.15,1.894.927,2.4,2,2.356,5.063,7.993,6.92,11.132,11.381,1.375,1.954,4.442,2.1,5.771-1.275.989-2.515,3.34-5.2-1.279-6.659-1.052-.332-3.162-8.5-2.612-9.486,1.5-2.7,3.355-1.544,5.282-.577,5.607,2.813,5.63,2.787,8.82-3.276-1.484-2.084-3.537,1.327-5.021-.53,1.557-4.78,3.589-9.607.116-14.458-.636-.888-.889-1.774.04-2.458s1.756.109,2.549.568c2.872,1.662,2.5,5.311,4.844,8.2,1.649-5.167.651-9.809.045-14.2-.608-4.414-6.4-6.449-10.97-4.426a38.436,38.436,0,0,0-5.967,3.195c-3.485,2.355-5.5,1.308-6.746-3.06-1.958,6.19-5.1,7.751-9.881,3.213-.755-.717-1.683-.246-2.6-.212-3.9.144-7.707-.177-8.285-5.339-.148-1.317-1.608-1.564-2.171-2.46-2.4-3.821-6.493-7.092-4.085-12.567.791-1.8-.582-3.064-2.146-3.295-1.857-.275-3.973-2.2-5.684.219-.611.864-2.055,2,.85,2.192,2.623.175,2.95,3.045,2.328,4.954-.989,3.033-2.938.508-4.579.358-8.472-.774-10.263-7.907-12.951-13.869-.521-1.155-2.936-5.8,2.688-5.679,2.389.051,1.889-3,2.162-4.478a3.52,3.52,0,0,0-3.144-4.006c-1.749-.282-3.594.248-3.552,1.867.145,5.627-5.2,9.213-5.075,14.8.063,2.769-1.759,3.111-3.851,1.8a22.215,22.215,0,0,1-4.534-3.395c-1.5-1.593-2.563-2.626-4.478-.48-.629.705-2.783,1.227-3.094.86-4.288-5.051-9.571-1.708-14.433-2.071-6.193-.462-7.795-4.122-4.693-9.483,1.978-3.418,4.952-6.22,5.992-10.238.416-1.609,2.006-2.032,3.643-2.207,2.224-.238,3.73-2.04,3.223-3.856-.942-3.375-2.962.605-4.476-.152-1.352-1.5,1.982-3.671-.735-4.92a5.291,5.291,0,0,1,2.234-3.149c8.347-7.163,17.9-12.561,27.245-18.2,4.246-2.563,9.306-3.6,14.528-4.14,14.627-1.511,28.419.857,42.17,5.91,17.374,6.384,28.222,18.127,33.773,35.645,3.609,11.388,2.583,23.947,9.412,34.6,1.365,2.13,4.358,5.628,2.78,8.323-2.191,3.742-1.1,7.384-.807,10.791.351,4.064,3.455,7.472,7.993,6.972,1.932-.213,1.919.545,1.533,1.188-2.893,4.823,1.261,5.974,5.393,8.68a37.75,37.75,0,0,0-4.362-1.22c-1.644,3.759-3.112,7.594-4.608,11.417,6.208,3.006,3.018,7.915,2.271,12.146-.6,3.385-1.235,7.3.862,9.591a121.592,121.592,0,0,1,11.793,14.608c2.895,4.366,4.434,1.63,6.8.373,1.564-.831.37-4.914,3.231-3.4,2.53,1.341,3.38,4.371,2.99,7.469-.28,2.222-1.553,3.409-3.353,2.078-4.076-3.013-3.473.03-4.027,2.543-1.487,6.741,3.718,9.134,7.653,12.408,2.861,2.38,4.762,1.439,6.046-1.714l-.066.016c2.348,2.937-1.573,6.5,1.353,9.894,1.243-4.986,6.393-7.524,6.547-13.162.022-.8-.355-9.657,6.613-4.533,1.232.906,3.9-.886,3.4-3.757-.342-1.942-1.848-3.856-.245-5.885-2.848-1.609-1.9-7.113-6.794-6.623l.084-.027c-2.63-1.117-4.988-4.517-8.164-.6-.7.864-3.461.469-3.475-.423-.078-4.882-1.663-4.572-4.578-1.792-.255.243-1.7-.151-1.914-.582-1-2.039-1.889-3.38-4.609-2.112-1.2.56-1.872-1.194-1.5-2.278a32.927,32.927,0,0,1,2.3-4.483,4.59,4.59,0,0,1,3.12,3.541,1.6,1.6,0,0,0,2.108,1.222,1.533,1.533,0,0,0,1.349-1.489,2.094,2.094,0,0,0-1.253-2.257,50,50,0,0,0-5.314-.948c-.836-.68-2.253-1.006-2.04-2.395.164-1.074,1.314-1.407,2.225-1.415,5.22-.047,10.145-.476,14.451,4.262a194.434,194.434,0,0,0,35.074,30.8,58.266,58.266,0,0,1,17.81,18.5c6.5,10.915,9.139,22.957,12.665,34.8l.076-.02c-4.892-1.765-6.841-5.627-7.039-10.448-.082-2.013-1.5-3.455-2.516-2.653-2.381,1.886-4.628,1.5-7.2,1.242-1.59-.161-1.727.606-.287,2.36.338.412.961.64.605,1.239-2.936,4.941-.047,8.624,2.167,12.823,1.219,2.312.652,5.4,4.81,4.218.316-.09,3.369.009,2.945,2.761-.215,1.4.662,3.355,2.722,2.444,1.478-.654,1.583-2.08.865-3.843-1.691-4.147-.4-7.058,4.276-7.966l-.058.023c.654,2.16.874,4.6,2.037,6.433,6.184,9.771,9.471,20.981,15.115,30.9,8.119,14.271,10.734,30.3,16.461,45.3.139.365-.285.945-.508,1.611a9.619,9.619,0,0,1-1.46-.925c-.809-.767-.532-3.329-2.387-2.151-1.635,1.038-.016,2.177.929,3.074,2.241,2.126,1.154,4.163-.381,5.99-5.467,6.507-3.876,14.708-5.441,22.15-.368,1.753.907,2.3,2.049,2.945,1.933,1.09,2.682-.46,3.582-1.651C452.206-649.669,453.284-649.274,453.847-650.647ZM254.924-142.834l.011-.449c1.281-5.567,4-2.178,7.147-.506-1.372-2.812-2.226-4.821-5-5.22-1.826-.263-2.779.708-3.618,2.1-1.186,1.967.405,2.673,1.536,3.611Zm-34.681-7.183c3.311-5.394,8.932-2.786,13.739-3.953-1.567-2.2-1.78-5.171-6.3-3.088-1.486.685-6.38-1.322-9.637-2.367.272-.669.786-1.364.028-2a.924.924,0,0,0-.865.2c-.39.905.379,1.3.922,1.775-.756.977-1.319,1.366-2.743.552-5.284-3.019-10.225-1.045-11.754,4.712-.371,1.4-5.521,2.592-.5,4.523.847.326,3.216,2.176,1.834-1.4-.194-.5,5.234-2.394,6.252-1.115,2.774,3.485,6.064,1.694,9.116,2.125-1.537,3.632.4,5.083,3.6,4.991a69.954,69.954,0,0,0,8.8-1.315c.578.392,1.429.658,1.682,1.2.626,1.351.885,3.4,2.5,3.4,1.873,0,2.133-2.281,2.924-3.663.992-1.732,1.451-3.474-.693-4.878s-3.009.6-4.2,1.537a17.667,17.667,0,0,0-2.19,2.463C229.2-149.63,224.938-150.56,220.243-150.017Zm97.838-85.892c-2.839-.992-5.61-2.349-8.533-2.9-6.6-1.245-9.02,1.837-6.5,8.136.613,1.533,2.287,2.794.446,4.413-1.778,1.563-2.457-.534-3.679-1.133-2.316-1.135-2.852.857-2.194,2.221a26.419,26.419,0,0,1,2.053,17.253,1.246,1.246,0,0,0,1.253,1.534c3.633.061,3.218,3.028,3.924,5.227.31.964-.641,2.566,1.027,2.82,2.048.312,1.8-1.752,2.08-2.779,1.006-3.655-.847-6.838-2.552-9.772-1.277-2.2-1.66-4.387.451-5.347,2.482-1.128,2.686,1.668,3.312,3.328.33.873.531,2.289,1.124,2.494,7.441,2.571,4.039,8.3,3.773,13a4.6,4.6,0,0,0,.849,3.04c3.705,5.906,3.674,5.925-2.34,7.8l.1-.023c-1.443-.181-2.978-3.033-4.18-.508-.849,1.784,1.351,2.971,2.885,3.6,2.773,1.128,5.8,1.366,8.65,2.5,2.5,1,2.42-2.258,3.1-3.588,1.474-2.9,1.325-6.819,5.726-7.545a1.351,1.351,0,0,0,.858-1.834c-.584-1.4-1.859-2.2-3.177-1.556-3.832,1.874-5.381-1.119-7.578-3.093-1.777-1.6-1.425-3.018.029-4.276,1.231-1.065,2.074-2.006,1.814-3.793-.315-2.162.6-3.171,2.971-2.691a3,3,0,0,0,3.626-2.019c.547-1.747-.844-2.771-2.194-3.537a32.7,32.7,0,0,0-4.039-1.995c-4.7-1.864-5.208-4.879-1.1-7.955,1.37-1.026.088-1.522-.024-2.192-.492-2.936-3.252-5.361-1.955-8.711,2.781,1.269,6.32,1.709,6.266,6-.015,1.2.919,1.535,1.955,1.33a1.523,1.523,0,0,0,1.122-2.163c-1.41-3.2-1.478-7.312-5.608-8.781-1.129-.642-1.714-1.533-.866-2.718a8.409,8.409,0,0,1,2.012-1.967c2.7-1.877,4.469-4.222,3.365-7.631-1.189-3.666-4.57.525-6.323-1.72-.012-.189-.187-.639-.033-.875,1.173-1.808,5.275-1.414,4.383-4.252-.7-2.241-3.946-.714-6.027-1.279a10.205,10.205,0,0,0-9.727,2.637c-1.262,1.169-3.332,4.146-1.911,4.6,5.413,1.744,2.58,6.195,3.482,9.188.645,2.136,1.9,1.95,3.089,2.47,2.041.895,4.152,1.628,6.234,2.43ZM157.708-109.569c-2.439,3.8-5.253,1.143-4.849-.863,1.267-6.282-5.089-7.738-6.427-12.565-1.78,1.263.179,6.542-4.367,3.93-.595-.343-1.51.274-1.658,1.12-.27,1.544.9,1.9,2.037,2.1,1.817.311,3.4.828,3.236,3.106-.2,2.756-2.269,1.559-3.779,1.878-3.871.817-4.758,4.075-1.7,6.885,1.9,1.748,1.919,6.28,6.347,4.789a3.317,3.317,0,0,1,.8,1.823c-.26,1.6-1.524,3.717,1.009,4.053,1.085.144,2.876-1.609,3.61-2.915,1.883-3.35,3.271-6.88,6.861-9.048,2.088-1.26.029-3.99,1.116-5.828.669.262,1.362.75,2,.028a.915.915,0,0,0-.195-.845c-.883-.354-1.305.36-1.78.908A2.619,2.619,0,0,0,157.708-109.569ZM306.016-502.477c-.344,1.286-2.41,2.693-.571,3.858,1.395.885,3.491.234,4.717-.846,1.748-1.541-.173-3.141-.8-4.432-.587-1.21-2.141-1.952-3.27-2.9,1.1-1.94,2.792-3.622,2.362-6.187-.236-1.406.083-2.88,1.812-2.9,1.376-.018,2.319.822,2.5,2.492q.837,7.612,1.985,15.189a20.476,20.476,0,0,0,1.326,3.663c.658,1.829,1.446,4.022,3.788,3.237,2.145-.719,1.949-2.931,1.422-4.883-.29-1.072-1.085-2.623-.652-3.18,5.59-7.18-1.078-12.183-3.819-17.086-1.819-3.254-6.666-5.141-8.562-9.16-1.99,1.423-1.138,2.615-1.249,3.656-.1.973-.319,1.968-1.437,2.148-1.386.223-1.9-.635-2.213-1.917-.619-2.547-.153-6.9-4.668-1.945-1.24,1.361-5.813-.312-8.925-.6-.163,2.017,2.412,3.044,1.49,5.285a1.757,1.757,0,0,0,1.845,2.273c8.322-1.821,9.853,5.124,13.079,9.9C305.144-505.418,306.4-503.936,306.016-502.477Zm67.522-266.461c2.084-1.12,3.836-2.425,3.065-5.018,1.44-2.118-.076-5.253-.69-5.7-3.278-2.371-.793-3.936.544-6.138-3.213,1.765-5.634.675-7.6-1.364-2.641-2.743,1.362-4.659.846-7.42-2.324,5.076-9.112,6.582-9.763,13.028-.118,1.16-.6,2.165.57,2.988a2.422,2.422,0,0,0,3.083-.16,10.481,10.481,0,0,1,3.585-1.489,2.334,2.334,0,0,1,2.928,2c.438,2.213-1.279,1.725-2.52,1.891-2.425.324-4.833.777-7.258,1.1-4.668.621-7.965,5.825-6.269,10.278a4.414,4.414,0,0,1-.346,4.259c-1.209,1.99-1.034,3.895.733,6.171,2.337-3.414,5.3-4.68,9.45-3.961,3.655.634,6.073-.263,4.143-5.28-1.551-4.034,2.869-6.948,4.056-10.623.525-1.629,3.025-.31,4.554.411ZM260.048-30.6c1.618-5.046-.462-7.28-5.61-6.9-2.278.166-5.073-.158-6.172-2.8-1.013-2.435-3.207-2.974-4.969-4.251-2.3,1.275.138,4.514-2.519,5.212-2.364.621-3.73-1.436-5.508-2.354-2.343-1.211-4.591-2.61-6.959-3.765-.679-.331-1.494-1.293-2.715-.073,2.274,2.359,5.248,3.9,6.043,7.909.467,2.356,2.333,3.648-1.047,4.781-.939.315-.941,1.073-.518,1.792.507.862,1.229.664,1.92.209A18.984,18.984,0,0,1,235.309-33c2.572-.988,5.371-2.065,5.386,2.586,0,.907.245,2.454.739,2.618,3.955,1.313,7.632,2.463,4.715,7.966-.374.7,1.487.384,2.322.55,3.5.7,5.875,3.074,8.355,5.45.909.872,2.143,4.136,4.231,1.086,1.484-2.168,3.6-4.788.79-7.1-2.374-1.951-2.633-3.873-1.758-6.41a10.907,10.907,0,0,1,8.716,4.3c-.3-4.191-.822-6.726-4.023-7.821-3.4-1.164-3.367,2.084-4.668,3.618C258.1-27.627,259.541-29.021,260.048-30.6ZM235.675-957.92c5.526-1.981,6.79-5.127,4.3-10.615-.273-1.2-2.332-3.523.2-3.273,3.572.353,3.726-2.28,5.4-3.766,4.344-3.846,1.484-5.631-1.934-6.2-4.769-.788-9.559-2.827-14.542.992-2.547,1.952-7.093,2.515-7.986-3.265-.389-2.52-2.615-1.794-2.987-.37-1.219,4.658-5.263,2.99-8,4.267-3.952,1.842-8.135-.68-12.008,1.322-2.251,1.163-3.955,2.83-3.9,5.121.095,3.973-1.427,3.6-4.136,2.352s-4.811.328-3.185,2.694c2.95,4.292.051,6.959-1.382,10.249-.639,1.465-3.524,3.262-.815,4.615,2.361,1.179,1.992-2.044,2.664-3.263,2.121-3.845,3.725-8.122,9.335-7.542,1.594.165,1.8-.663,1.9-2,.416-5.244,1.217-6.053,4.544-2.959,4.019,3.736,5.534.162,8.2-.544-.6-2.115-2.036-1.581-3-1.978-1.737-.716-2.441-1.845-1.365-3.516,1.113-1.729,2.45-1.506,3.649-.025,3.714,4.589,8.184,4.8,12.992,2.086,2.156-1.22,4.89-1.053,5.712.416,2.553,4.571,6.271,5.177,10.753,4.557C238.984-964.871,235.605-962.121,235.675-957.92ZM213.7-268.563c-.783,1-2.109,1.839-1.454,3.4.915,2.184-.072,3.331-2.09,3.6-2.793.372-2.808-1.859-2.933-3.686a36.952,36.952,0,0,1,.2-4.4c-2.216-.7-3.369.656-3.753,2.327a46.233,46.233,0,0,1-4.831,13.187c-.884,1.513-.463,2.512.983,3.188,3.867,1.806,1.2,4.361.9,6.727-.222,1.754-7.515,1.19-1.576,4.832-.458.568-.972,1.667-1.366,1.626-6.668-.7-5.138,5.847-7.53,8.8-1.775,2.191,1.117,4.054,3.072,3.872,3.874-.36,6.232,1.543,8.808,3.861,1.277,1.149,2.823,2.606,4.92,2.331,2.99-.392,4.088.957,4.077,3.859a3.185,3.185,0,0,0,2.827,3.131c2.314.369,2.3-2.016,2.435-3.1.69-5.476,6.23-8.493,6.907-13.973-2.476.069-3.488,2.127-5.031,3.547-1.193-8.853,1.72-13.193,7.889-11.989-.38.789-1.027,1.651.1,2.285a1.39,1.39,0,0,0,1.306-.4c.637-1.111-.325-1.528-1.079-1.987,1.069-1.41.114-2.634-.593-3.618-1.7-2.374-.6-3.74,1.647-3.875,3.44-.207,3.292-3.2,2.531-4.322-2.519-3.715.257-4.838,2.536-5.56,5.57-1.763,4.855-6.237,4.456-10.171-.291-2.868-2.375-2.193-3.987-.573a57.864,57.864,0,0,0-10.712,14.986c-1.87-2.251-.586-4.2-1.065-5.833-.249-.849.356-2.349-.713-2.5-6.735-.957-2.039-4.087-1.834-6.573,1.728.341,1.712,1.365,1.95,2.258.228.857.153,2.079,1.45,2.069,1.085-.008,1.519-.839,1.751-1.868.655-2.913.307-6.083,2.191-8.685-2.809-1.24-1.554-3.346-.232-4.181,2.408-1.522,2.669-3.934,3.566-6.105.935-2.262,1.568-4.656,2.605-6.865.3-.647,1.5-1.033,2.352-1.238a5.676,5.676,0,0,0,4.594-5.675c-.371-6.089,1.567-11.654,2.548-17.448.249-1.472,1.989-4.831-1.171-5.208-2.709-.322-3.55,2.723-4.305,4.981-.26.779,1.426,2.481-.829,2.23-1.7-.189-1.774-1.689-1.167-3.094.146-.339.524-.586.639-.928.834-2.481,3.89-5.723.22-7.267-2.466-1.038-4.925,2.493-5.7,5.018-2.984,9.7-8.374,18.571-9.988,28.731-.847,5.336-3.708,9.391-7.806,12.708L211-276.1l.391-.122C216.333-274.932,216.566-272.224,213.7-268.563Zm95.289,142.57c-1.244-1.339-1.679-2.532-.88-3.984,1.13-2.058,1.85-3.646.216-6.131-1.42-2.159,1.953-5.3,7.174-6.972-1.322-2.038-5.156-3.878-.639-6.523,1.1-.641-.389-1.786-.93-2.735-2.031-3.565-4.832-7.058-2.244-11.615.375-.66.23-2.419-.14-2.576-4.2-1.79-5.241-6.388-8.226-9.294-1.831-1.784-5.794-4.227-3-8.3a3.415,3.415,0,0,0-.151-4.632c-1.657-1.96-2.847-4-.319-6.38,1.495-1.41.388-2.726-.852-3.782-2.082-1.772-4.606-2.423-7.2-3.056s-4.687.985-6.09,2.212c-1.366,1.2.306,3.77,1.613,4.929,4.733,4.2,2.016,9.945,3.329,14.83.368,1.367-1.366,4.2-2.619,3.867-5.8-1.559-5.562,2.273-6.146,5.888-.289,1.789-2.143,2.185-3.648,1.859-4.674-1.011-4.408,1.235-2.824,4.19,1.194,2.226-.049,3.525-1.4,4.906-.984-.305-1.452-1.878-2.852-1.161,2.708,2.024-2.376,4.466.138,6.093,2.778,1.8,1.01-2.64,2.865-2.518,1.547,1.151,2.319,2.389.942,4.273-2.737,3.747-2.951,8.225-3.378,12.608-.2,2.012,4.333,6.13-2.463,5.156-.729-.1-.533,1.841.2,2.326,6.7,4.406-.805,6.7-1.716,9.719-1.074,3.556-3.183,1.151-5.036-.329-2.284-1.824-3.156.3-3.046,1.995a5.638,5.638,0,0,0,2.039,3.91c6.149,4.022,7.2,9.065,4.72,15.839-.933,2.543,1.026,5.671,3.337,8.936-4.582-.814-7.145-3.574-10.831-5.083-.07,2.039,1.9,2.949,1.4,4.72-.362,1.292,6.858,8.256,8.144,8.13a1.72,1.72,0,0,0,1.267-.884c.575-2.069,1.3-4.654,3.795-3.87,2.08.653-.1,3.727.964,5.067,2.669,3.371.982,5.9-1.006,8.548-.824,1.1-1.778,2.255-3.238,1.684-1.524-.594-.506-1.85-.354-2.9.533-3.668-2.326-4.753-5.31-6.448-.339,4.718-2.626,5.211-6.076,2.852-.9-.615-2.044-1.387-2.991-.142a2.19,2.19,0,0,0,.252,3.05c1.353,1.4.669,3.281.673,4.76.022,7.9-.125,7.879,7.609,8.028a17.989,17.989,0,0,0,13.75-5.262c2.225-2.191.263-5.433,2.008-6.83,5.478-4.386,4.752-12.221,9.849-16.684,2.356-2.063.205-3.314-1.065-4.454-1.64-1.472-2.789-3.837-.932-4.748,5.732-2.814,5.59-11.613,13.408-12.322,2.891-.262-.308-3.365.263-5,3.664.067,2.248,3.277,3.991,4.991,2.144-6.215,11.873-.8,12.809-8.979l.446.01-.429.059C314.681-122.645,311.711-123.061,308.988-125.993ZM382.14-810.027c1.989.788.661,2.186.051,3.247-1.316,2.288-2.983,4.332-3.789,6.957-1.062,3.462-2.157,6.463,1,9.761,3.068,3.2,1.836,7.269.355,11.019-.321.813-1.086,1.837.078,2.464a2.152,2.152,0,0,0,2.025-.223c2.421-3.828,6.946-3.667,10.351-5.593,5.234-2.96,5.446-5.448.545-8.815-3.834-2.634-3.455-4.273,1.827-7.9-.055-1.254-1.063-1.36-1.947-1.634-3.358-1.042-7.561-1.537-3.59-6.671a3.21,3.21,0,0,0-.522-4.224c-4.065-2.722-6.929-8.5-14.194-5.438C377.667-815.03,378.719-811.384,382.14-810.027ZM179.1-142.161c.68-.305,1.618-.8,2.144-.563,6.009,2.725,9.165-1.021,12.557-5.021,1.537-1.813,3.856-3.859,2.279-5.64a10.764,10.764,0,0,0-7.494-3.376c-2.021.07-3.911.5-5.852-.376-.337-.151-.96-.384-1.047-.27-3.232,4.222-8.007,3.023-12.489,3.826,1.815,1.125,3.683,2.173,5.428,3.4,1.6,1.122,4.623,1.909,3.434,4.382-1.178,2.451-3.11-1.1-5.333-.219C173.079-141.572,175.227-140.423,179.1-142.161ZM289.733-887.953c-.7,2.346.443,3.4,2.6,2.849,4.092-1.048,6.87,1.357,9.8,3.365,1.545,1.06,3.981,1.852.784,4.333-2.206,1.712.618,3.22,1.523,4.641.8,1.264,1.939,1.464,3.412.638,1.869-1.049,1.455-1.859.667-3.554a6.8,6.8,0,0,1-.118-5.4c3.2-5.658-2.75-9.334-2.747-14.262,0-1.088-1.823-2.215-3.183-1.687-3.234,1.255-6.216,3.3-9.982,2.453-.256-.058-.714.783-.975,1.087C290.881-891.541,290.27-889.758,289.733-887.953ZM200.644-367.736c-.11-1.519-.452-2.522-1.819-3.119-3.282-1.433-7.114,2.48-10.378-1.029-.238-.255-1.337,2.226-1.252,3.8.34,6.346-.694,12.726.576,19.007C197.239-352.84,201.292-358.788,200.644-367.736Zm-2.321-11.4c4.537-6.213,1.05-12.536,1.342-18.772.035-.744-.423-1.654-.128-2.206.366-.682,1.281-1.07,1.958-1.585-.241-.232-.443-.565-.731-.677-1.046-.405-2.215-1.19-3.164-.994-1.615.334-1.493,1.963-1.319,3.284.62,4.7-2.58,8.114-4.033,12.112-.964,2.649-2.144,5.22-3.087,7.876a3.714,3.714,0,0,0,.751,4.028C192.922-374.1,196.246-376.294,198.323-379.138ZM442.161-595.353c2.4,2.923,3.045,6.7,3.114,10,.074,3.557,1.643,5.91,3.308,8.493.79,1.226,1.637,2.826,3.536,1.817a3.379,3.379,0,0,0,1.559-4.826c-3.141-6.134-4.81-12.943-8.639-18.747-.9-1.37-1.824-3.283-3.559-1.076C440.428-597.877,441.2-596.525,442.161-595.353ZM293.562-931.4c-3.093-.209-7.823,5.528-6.751,7.881,2.67,5.858,8.152,4.547,14.364,4.682C297.436-923.281,301.4-930.875,293.562-931.4Zm-11.7,174.154c2.746,1.326,6.106-.271,7.794-2.534,2.288-3.07.545-6.768-.2-10.172-3.528,1.419-7.883,1.637-9.359,6.794C275-760.152,279.939-758.18,281.862-757.25ZM353.9-798.929c-3.758-3.553-7,.521-10.528.042-1.167-.158-.272,3.351.256,4.972.48,1.475,1.719.954,2.566-.136,2.113-2.72,4.067-2.025,6.064.22,2.8,3.15,6.892,2.014,10.051,1.844,3.32-.178.02-4.558,2.126-6.459C360.61-796.231,356.738-796.248,353.9-798.929Zm-6.677,538.664c2.353-.266,5.045-1.695,4.726-4.584-.341-3.09-3.2-3.372-5.736-3.1-1.838.2-3.614.908-5.443,1.263-1.421.275-3.482-.06-3.623,1.769-.123,1.588,1.874,2.083,3.14,2.821A9.377,9.377,0,0,0,347.226-260.265Zm-7.215-202.924c1.649.4,2.854.893,3.723-.879.944-1.924-.028-3.214-1.6-4.227-1.952-1.259-4.2-1.538-6.419-1.833-.918-.121-1.866,0-2.79-.091-2.193-.21-4.415-4.4-6.043-1.469-1.3,2.33,3.4,2.6,4.633,4.8A35.669,35.669,0,0,0,340.011-463.189ZM328.393-138.684c-3.953,1.673-2.3,5.435-2.66,8.379-.12.967,1.809,1.483,1.708,1-1.086-5.222,4.275-4.655,6.289-6.158,3.445-2.572,2.2-3.548.189-5.465-.906-.862-1.73-1.81-3.027-3.18C330.771-141.553,330.69-139.657,328.393-138.684ZM437.367-682.275c-3.239,4.084-2.862,12.617,1.06,18.384C441.7-670.758,441.023-676.58,437.367-682.275ZM375.587-529.84c-7.5-2.9-15.269-1-22.919-1.121A44.161,44.161,0,0,0,375.587-529.84Zm-166-23.809c-.385-3.222-4.875-3.737-7.1-2.775-4.7,2.03,1.321,5.718-2.08,9.679C204.907-549.378,210.172-548.729,209.583-553.649Zm205.66,88.442a25.561,25.561,0,0,1-9.282,8.236c-.711.359-1.294.9-.881,1.751.469.968,1.351,1.1,2.371.944,2.347-.36,4.736-1.578,5.607-3.338,1.889-3.816,4.914-6.152,8.458-8.426C419-467.138,416.747-467.3,415.243-465.207ZM192.737-338.839c1.359,1.338,3.053-.4,3.182-1.834.264-2.933,4.472-5.678,1.236-8.528-1.9-1.675-4.1.4-5.576,1.971C190.518-344.107,190.511-341.027,192.737-338.839ZM320.646-103.426c-.74,2.645,2.186,2.9,1.191,4.653-.658,1.162-3.77,1.917-1.1,3.6a4.582,4.582,0,0,0,5.675-.409c1.339-1.161,3.489-1.367,4.339-3.98C327.2-100.6,323.207-99.278,320.646-103.426ZM284.934-63.937c-.687,1.1-3.169,1.5-1.709,3.491a3.781,3.781,0,0,0,3.482,1.546c1.934-.234,2.808-1.786,3.449-3.38.831-2.066-1.44-3.862-.356-6.284C286.923-67.631,286.014-65.662,284.934-63.937Zm30.615-219.1c-1.833-7.335-5.408-8.937-12.427-5.485C307.852-288.181,311.411-285.272,315.549-283.036ZM265.7-921.121c-.094-.926.339-1.893-.785-2.322a3.433,3.433,0,0,0-1.53.078c.129,4.353-7.77,5.807-3.959,11.393C261.8-914.729,266.2-916.117,265.7-921.121Zm11.862,66.044c.369.74-.116,2.159,1.239,2.053a1.426,1.426,0,0,0,1.1-2.147c-1.891-4.316,4.88-4.655,3.589-9.476C280.621-861.684,274.4-861.428,277.562-855.077ZM187.031-181.554a2.3,2.3,0,0,0,1.006-3.4c-1.783-2.236-1.483,1.262-2.616,1.156-4.081-.382-4.522,3.906-7.012,5.695C181.925-177.928,184.33-180.109,187.031-181.554Zm127.48,82.763c1.171.895,2.882.476,2.994-1.138.148-2.148,2.077-4.653-.135-6.414-1.022-.814-3.266-1.336-4.419,1.3C312.713-103.029,312.278-100.5,314.511-98.791Zm-89.254-230.3c-.02-1.373-.109-3.32-1.547-3.121-3.672.507-2.342,4.534-5.025,7.184C222.971-324.995,225.313-325.39,225.257-329.094Zm-18.982,147.3a1.32,1.32,0,0,0,.462,2.287c1.011.347,1.731-.325,2.092-1.332,1-2.8,2.025-5.585,3.51-9.673C208.677-187.6,208.8-183.884,206.275-181.79Zm20.338-762.7c-.6,1.153-2.738,2.538-.787,3.748,1.445.895,2.684-.877,3.586-2.084,1.254-1.68,2.227-3.456.491-6.425A46.79,46.79,0,0,0,226.613-944.493ZM216.665-62.946c.366-2.234,2.489-4.463.212-6.7-.237-.232-1.762.217-1.9.619-.851,2.5-2.591,5.2.777,7.427C216.081-62.059,216.586-62.467,216.665-62.946ZM346.088-295.491c-1.285,1.013-.58,2.3.662,2.382,1.625.106,3.687,2.153,4.931-.426a3.765,3.765,0,0,0-.906-4.194C348.483-298.586,347.443-296.558,346.088-295.491Zm-142.6-129.067a1.918,1.918,0,0,0-1.443.245c-.777.721-.925,2.014-.1,2.461,2.287,1.246,2.07,3.813,3.223,6.034C208.619-419.879,204.733-421.955,203.489-424.558Zm72.776,216.4c-4.842-1.16-4.842-1.16-4.467,6.446C273.388-204.87,274.262-206.831,276.265-208.162ZM276.824-932c.964.78,2-.291,2.513-1.357.53-1.1,2.027-2.224.582-3.427-1.135-.945-2.486-.44-3.547.632C275.768-934.691,275.605-932.989,276.824-932Zm-18.619-5.188c-1.011-.788-1.8-3.243-3.365-.991-1.1,1.574.733,2.284,1.863,2.745,1.841.752,3.309,2.539,6.392,2.084C261.153-934.878,259.683-936.039,258.205-937.191Zm-46.69,625.727c-.66,1.2-1.286,2.764.346,3.415,2.592,1.036,3.278-1.956,4.917-2.97,1.235-.764.487-1.968-.8-2.676C213.812-314.495,212.5-313.261,211.515-311.464Zm50.671-37.067a1.23,1.23,0,0,0,2.244-.158c1.206-2.641-1.826-3.2-2.678-4.864-.381-.745-1.472-1.1-2.416-.028C259.205-351.353,261.25-350.222,262.186-348.531Zm-100.16-13.716c-3.623.119-4.569,2.151-4.081,5.2ZM285.368-867.325a1.521,1.521,0,0,0-1.051-2.2,2.368,2.368,0,0,0-2,.385c-.891.914-.182,1.641.694,2.173S284.853-866.262,285.368-867.325ZM183-242.518c-.061.167.727.939.966.873a2.555,2.555,0,0,0,1.923-2.78A2.534,2.534,0,0,0,183-242.518Z" style="fill: #9bb0aa"/>
        <path d="M269.305,6.038A52.2,52.2,0,0,0,266.084.931C264.612-.92,263.05-1.121,262,1.462Z" style="fill: #1c2d28"/>
      </g>
    </g>
  </g>
  <g style="clip-path: url(#f1e36bc2-09cb-4a49-b3f0-3b7803c82b7b)">
    <g>
      <polygon points="234.392 17.253 234.392 154.447 116.878 285.631 103.777 130.004 234.392 17.253" style="fill: #62472f"/>
      <polygon points="116.878 285.631 284.018 360.268 386.331 209.808 234.392 154.447 116.878 285.631" style="fill: #412f1f"/>
      <polygon points="234.392 154.447 386.331 209.808 399.913 69.598 234.392 17.253 234.392 154.447" style="fill: #825e3e"/>
      <polygon points="36.285 139.532 165.71 31.546 234.392 17.253 103.777 130.004 36.285 139.532" style="fill: #ae906c"/>
      <polygon points="234.392 17.253 276.848 8.978 425.841 55.356 399.913 69.598 234.392 17.253" style="fill: #d7c3a8"/>
      <polygon points="103.777 130.004 116.878 285.631 284.018 360.268 365.008 241.166 298.028 203.984 103.777 130.004" style="fill: #583316"/>
      <polygon points="399.913 69.598 298.028 203.984 395.896 279.21 482.443 133.139 399.913 69.598" style="fill: #d7c3a8"/>
      <polygon points="103.777 130.004 55.184 228.451 251.285 308.425 298.028 203.984 103.777 130.004" style="fill: #ae906c"/>
    </g>
  </g>
</svg>
