<svg id="e6751573-999d-437e-a99b-2355e0387f6b" data-name="Layer 1" xmlns="http://www.w3.org/2000/svg" xmlns:xlink="http://www.w3.org/1999/xlink" width="176.389mm" height="105.833mm" viewBox="0 0 500 300">
  <defs>
    <clipPath id="ae9eaf6b-b201-46f1-8b5b-b5e8c1baf866">
      <rect x="59.424" y="0.225" width="357.758" height="299.775" style="fill: none"/>
    </clipPath>
  </defs>
  <title>pic-3</title>
  <g style="clip-path: url(#ae9eaf6b-b201-46f1-8b5b-b5e8c1baf866)">
    <g>
      <path d="M321.728,254.836c9.3,1.566,3.21.3,26.812,5.88s21.826,3.156,31.216,8.05,11.421,5.655,19.034,11.746,7.989,5.238,14.466,12.943c8.375,9.961,1.365,7.193,15.07,14.045s12.085,4.735,26.8,10.572,52.534,50.5,56.341,65.223,8.375,29.693,10.659,31.216-310.026,0-310.026,0H-39.4a368.525,368.525,0,0,0,25.913-38.8c11.178-19.816,11.178-20.324,18.8-37.092S17.741,325.1,31.46,315.446s19.288-3.8,32.091-20.288c11.27-14.509,30.074-30.425,36.212-32.931,13.209-5.392,22.524-11,33.136-15.066s35.544-12.226,35.544-12.226Z" style="fill: #b5afb1"/>
      <path d="M292.707,168.886c1.777-7.654.508-5.37,2.284-10.7s3.145-6.091,6.521-10.659,3.885-8.375,6.422-10.659,5.076-3.434,7.868-2.732,5.821,2.111,4.306,6.355-4.13,4.106-5.259,8.322l-2.632,9.822c-1,3.743-2,2.932-1.237,10.251s1.015,7.573.507,14.679-1.522,12.689-.253,17.511-1.08,4.652.507,10.574,1.269,2.116,4.061,11.759,2.791,13.451,2.791,18.019-2.252-.761,1.92,9.9,2.4,17,4.933,20.049.253.508,7.106,6.6,13.45,5.075,18.78,13.7,7.867,13.958,7.867,13.958,10.406,18.019,10.406,21.572-3.046,34.008-3.046,34.769-31.723,41.368-35.4,41.621-19.415-22.079-24.744-24.363-12.436-5.076-14.72-9.39-4.822-3.553-11.928-21.826-17.258-26.9-30.454-36.038-30.962-23.094-38.83-29.439-16.5-11.928-21.318-15.989a87.48,87.48,0,0,0-11.674-7.867l84.289-97.2Z" style="fill: #c39a7e"/>
      <path d="M159.7,19.743c-1.361.454-12.7,0-14.518,9.073s-3.175,7.713-2.722,14.518a23.647,23.647,0,0,1-2.722,12.249l-6.805,6.805-1.814,9.981L128.4,78.72s3.175-.453,3.175,9.527,2.269,9.074,3.176,14.972-2.268,4.99-2.268,10.888-7.713,5.444.453,9.527,15.879,3.176,16.333,4.537-2.269,2.722,3.175,5.444,4.537-14.064,9.527-18.147,19.055-34.026,19.055-34.026L204.161,100.5,245.9,115.468s32.664-12.249,34.025-12.249,25.86,86.2,25.86,86.2l9.65,36.018,17.118-4.587c7.248-1.942,8.164-9.654,11.34-14.191s10.888-8.62,10.888-8.62-1.814-5.444,4.537-10.888,5.754-3.214,7.35-9.171,11.7-4.94,3.992-14.9-7.259-7.689-7.713-14.948,5.9-3.629,0-9.527-8.166-5.444-8.166-8.166A14.077,14.077,0,0,1,356.141,125s4.537-4.537-.453-9.981-7.713-13.156-7.713-13.156,6.8-6.352,2.722-21.777-3.629-14.517-8.62-22.23-5.9-7.258-9.073-11.8-4.99-7.713-9.981-12.249-6.5-2.321-12.852-6.4-4.061-5.789-9.959-7.15-5.653-3.064-16.087-3.064-18.718-6.973-25.07-4.7-7.267.178-9.989-2.544-3.422-5.376-12.949-2.2-20.161,3.837-22.883,6.105-4.083,6.8-9.527.907a101.247,101.247,0,0,0-8.166-8.166A120.783,120.783,0,0,0,183.292,8.4c-6.805,1.361-9.527,3.176-12.249,4.083s-4.991,3.176-7.259,4.083A11.816,11.816,0,0,0,159.7,19.743Z" style="fill: #2e1917"/>
      <path d="M152.442,133.615v16.332a67.164,67.164,0,0,0,9.074,32.664l92.549,11.8,7.712-78.032-6.351-3.629s3.775,3.505-4.464-1.2-10.961-3.8-12.322-8.331-2.722-2.269-2.722-10.889,5.444-9.98-1.361-16.785-7.259-9.074-12.249-14.518-13.157-6.8-13.157-6.8-3.175-1.815-8.619,0-7.713,1.815-14.518,4.537,11.342-9.981.907,2.268.908,3.629-13.156,12.249-19.054,15.879-21.323,20.415-3.629,1.362-4.99,9.528a49.429,49.429,0,0,0,0,15.424Z" style="fill: #c39a7e"/>
      <path d="M253.158,113.986c-.908,15.092,0,11.009,2.722,19.175s-4.918,17.693-4.918,17.693-7.785,7.713-9.146,14.971-2.269,8.62-2.722,9.981-1.361,3.176-5.444,5.444-3.176,1.815-7.259,2.722,3.629-5.444-10.888-8.619-21.124-4.946-22.817-5.4-3.5-1.406-9.848-.5a90.553,90.553,0,0,0-11.795,2.268c-5.9,1.361-12.249.908-12.249-3.176s5.76-5.626,0-4.083-7.713.454-9.527,7.259,2.268,2.269-3.176,10.435-5.9,3.629-7.713,9.98-5.9,8.62-5.444,10.435a20.745,20.745,0,0,0,5.9,9.527c3.629,3.176,3.629,8.62,3.629,8.62s-5.444,4.99-2.722,10.434,3.176-2.722,7.259,9.527-2.268,13.611,5.444,16.333,12.249,2.722,12.249,2.722-2.722,5.444,14.972,0l17.693-5.444s-2.269,3.175,7.712,5.9,8.1,1.911,14.971,1.966,3.176-.6,12.7-5.595,8.62-5.444,14.518-8.166a46.152,46.152,0,0,0,9.206-5.444,56.8,56.8,0,0,1,7.58-14.971c5.444-7.713,8.166-19.055,8.166-19.055l2.268-12.249s14.518-5.9,15.425-12.249a82.492,82.492,0,0,1,2.268-10.888s-.453.907,4.083-6.352,5.256-9.942,5.256-9.942l-10.7-81.7H261.777Z" style="fill: #2e1917"/>
      <path d="M188.965,109.639c3.088-1.887,14.409-4.975,20.07-4.632s15.61,3.774,16.64,4.289,3.564,2.774-1.906,1.3-7.186-3.9-13.876-3.287-12.179,2.157-14.752,2.329a32.313,32.313,0,0,0-6.176,1.449C187.764,111.354,188.965,109.639,188.965,109.639Z" style="fill: #2e1917"/>
      <path d="M147.8,119.7c-2.5-1.63,5.92-4.434,10.455-4.743s10.807-.343,10.807.686-.769,2.23-5.359,2.23a32.677,32.677,0,0,0-10.251,1.827C151.741,120.274,149.055,120.515,147.8,119.7Z" style="fill: #2e1917"/>
      <path d="M197.62,119.074c6.838-1.553,16.026-2.813,19.091-1.578s5.18,6.637,2.806,7.975-15.59,2.18-18.9,2.008-6.161.343-6.161-2.23S194.612,119.757,197.62,119.074Z" style="fill: #f5e0d7"/>
      <path d="M155,125.249c3.175-1.437,12.351-1.715,12.866,0s1.342,6.533-.959,7.212-9.458.158-10.363,0-3.088-3.737-2.573-4.96S155,125.249,155,125.249Z" style="fill: #f5e0d7"/>
      <path d="M134.874,239.791c-6.6,3.305-8.541,3.813-10.876,10.418a231.01,231.01,0,0,0-6.907,23.881c-3.049,12.194-8.638,18.8-10.162,26.929s3.556,15.751,6.605,32.518,0,27.438,3.557,36.583-16,15.751,11.307,23.881,16.56,9.545,29.81,9.6,12.647-.453,30.223,2.595,28.775,3.049,28.775,3.049,14.715,4.573,39.1-9.146,31.5-18.291,36.583-19.816,13.519-1.047,13.519-1.047V361.483s-18.17,8.129-32.866,8.129-21.3,4.065-40.609,9.654-42.305,19.308-55.449,16.767-35.5-4.064-40.073-14.734-11.179-24.9-11.179-38.108-2.032-20.324-4.572-33.534-7.114-11.687-2.541-23.881,8.753-20.832,13.776-27.945,19.576-18.04,10.776-18.04Z" style="fill: #eeefa8"/>
      <path d="M163.841,124.09c-3.036-.126-6.973.314-8.841,1.159,0,0-.515,1.029-1.029,2.252s1.668,4.8,2.573,4.96c.441.077,2.366.239,4.489.308C162.707,131.029,163.836,127.8,163.841,124.09Z" style="fill: #432c23"/>
      <path d="M209.588,119.52a14.524,14.524,0,0,0-.2-2.353,92.212,92.212,0,0,0-11.772,1.906,3.727,3.727,0,0,0-1.741.876,12.071,12.071,0,0,0,2.6,7.475c.672.012,1.387.016,2.133.055,1.194.062,3.68-.01,6.476-.187A12.337,12.337,0,0,0,209.588,119.52Z" style="fill: #432c23"/>
      <path d="M165.763,178.459c7.126-.475,7.759.95,12.826,0s4.008-1.583,9.842-.95a46.45,46.45,0,0,1,14.3,3.8c2.774,1.425,12.1,1.9,3.8,3.8s-12.266,3.008-19.708,3.008a87.18,87.18,0,0,1-14.251-1.267c-2.692-.316-5.225.317-6.809-.95s-2.058-3.422-1.108-4.719A6.305,6.305,0,0,0,165.763,178.459Z" style="fill: #c39a7e"/>
      <g>
        <path d="M170.566,115.864c-1.2,7.033-4.244,15.56-3.215,19.163s-.172,10.807-1.715,15.438-3.431,9.778,0,14.238,7.166,3.459,11.584,2.275,4.026-2.1,10.2-1.589,8.079,1,9.108-1.233,2.23-4.117,1.03-7.205-7.263-7.762-11.38-6.561" style="fill: #c39a7e"/>
        <path d="M170.566,115.864c-.608,4.328-1.789,8.559-2.554,12.836-.186,1.069-.346,2.141-.436,3.208a8.654,8.654,0,0,0,.19,3.11,19.651,19.651,0,0,1,.275,6.672,44.792,44.792,0,0,1-1.127,6.526c-.53,2.163-1.355,4.206-1.891,6.27a13.864,13.864,0,0,0-.493,6.183,8.461,8.461,0,0,0,1.082,2.814,10.513,10.513,0,0,0,1.989,2.3,6.751,6.751,0,0,0,5.6,1.412,27.731,27.731,0,0,0,3.12-.665c1.064-.269,2.066-.554,3.085-.917a14.555,14.555,0,0,1,3.279-.9,19.258,19.258,0,0,1,3.383-.035c2.207.142,4.379.409,6.515.561a4.642,4.642,0,0,0,2.821-.413,2.732,2.732,0,0,0,.8-1.122c.242-.5.489-.977.709-1.46a6.735,6.735,0,0,0,.734-2.969,6.326,6.326,0,0,0-.794-2.944,13.742,13.742,0,0,0-4.536-4.437,11.731,11.731,0,0,0-2.932-1.34,6.06,6.06,0,0,0-3.206-.164,6.17,6.17,0,0,1,3.262-.049,12.041,12.041,0,0,1,3.07,1.221,14.137,14.137,0,0,1,4.952,4.407,7.1,7.1,0,0,1,1,3.283,7.6,7.6,0,0,1-.7,3.358c-.216.517-.45,1.015-.671,1.507a3.734,3.734,0,0,1-1.059,1.523,3.537,3.537,0,0,1-1.771.667,10.906,10.906,0,0,1-1.72.063c-2.224-.068-4.386-.357-6.538-.46a18.056,18.056,0,0,0-3.154.059,13.355,13.355,0,0,0-3.006.868c-1.034.381-2.13.7-3.18.979a28.7,28.7,0,0,1-3.272.728,9.518,9.518,0,0,1-3.5-.076,7.355,7.355,0,0,1-3.167-1.632,11.839,11.839,0,0,1-2.249-2.654,9.773,9.773,0,0,1-1.225-3.272,15.091,15.091,0,0,1,.578-6.751c.585-2.155,1.422-4.168,1.949-6.244a45.8,45.8,0,0,0,1.275-6.334,18.877,18.877,0,0,0-.06-6.349,9.419,9.419,0,0,1-.132-3.392,29.94,29.94,0,0,1,.566-3.259C168.383,124.3,169.686,120.143,170.566,115.864Z" style="fill: #a17255"/>
      </g>
    </g>
  </g>
</svg>
