<svg id="Layer_1" data-name="Layer 1" xmlns="http://www.w3.org/2000/svg" xmlns:xlink="http://www.w3.org/1999/xlink" viewBox="0 0 500 300">
  <defs>
    <clipPath id="clip-path">
      <rect x="516.27" y="13.21" width="493.92" height="286.79" fill="none"/>
    </clipPath>
    <clipPath id="clip-path-2">
      <rect x="513.25" y="82.54" width="260.89" height="218.61" fill="none"/>
    </clipPath>
    <clipPath id="clip-path-3">
      <rect x="515.78" y="-276.52" width="298.78" height="250.35" transform="translate(1330.34 -302.68) rotate(-180)" fill="none"/>
    </clipPath>
    <clipPath id="clip-path-4">
      <rect x="59.42" y="-325.94" width="357.76" height="299.77" fill="none"/>
    </clipPath>
    <clipPath id="clip-path-5">
      <rect x="91.17" y="-679.73" width="358.03" height="300" fill="none"/>
    </clipPath>
    <clipPath id="clip-path-6">
      <rect x="34.62" y="-675.3" width="427.46" height="427.46" transform="translate(702.62 -723.02) rotate(-148.2)" fill="none"/>
    </clipPath>
  </defs>
  <title>pic-5</title>
  <g clip-path="url(#clip-path)">
    <g clip-path="url(#clip-path-2)">
      <path d="M805.53,335.46c-23.68-15-64.7-100.16-112.83-100.87s-146.1,7.19-186.11,76.87c-25.42,44.27-72.68,59.34,67,52S805.53,335.46,805.53,335.46Z" fill="#090302"/>
    </g>
  </g>
  <g>
    <path d="M442.87,300a190.6,190.6,0,0,0-31.38-22.87c-16.49-9.21-31.74-5.63-55.65-12.63s-39.53-25.1-45.76-30.56c-9.06-7.94-34.22-3.66-34.22-3.66s-78.26,15.13-84.34,16.07-15.84,20.21-29.86,30.78-27.21,15.4-48.65,20.76c-2.75.69-5.3,1.39-7.68,2.11Z" fill="#0b050b"/>
    <path d="M155.82,111.68c-2.31,0-3.86-5.69-6.26-5.25s-5.27,2.43-4.44,8,3.22,12.84,5.28,18.61,8.31,6.07,8.31,6.07Z" fill="#fe9e59"/>
    <path d="M284.33,159.44s1.8,23.46,1.8,30.38,2,19.17,3.73,25.55,8,13.08,8,13.08l-14.55,25.46-77.75,23.22-17.75-25s4.08,5,3.73-25l62.29-60.7Z" fill="#ef8c54"/>
    <path d="M151.93,110.94C153,116,153,115.09,153,124.43s-6.51,18.28-1.09,33.91,10.95,13,11.91,20a65.46,65.46,0,0,0,7.46,21.16c3.37,6,3.37,16.12,7,21.17s7.7,12,17.56,11.54S209.06,229,219.64,229s20.2-3.36,32.47-14.43,12.26-7,18-19,2.93-11.69,8.42-18.76,7.21-27.42,7.21-27.42l13.71-56.27L261.24,47,170.1,41.46,149.77,77.53Z" fill="#f1b16b"/>
    <path d="M252,214.61c12.26-11.06,12.26-7,18-19s2.93-11.69,8.42-18.76,7.22-27.42,7.22-27.42l9.41-38.64-9.66-7.88-5.72,7c.08,12.65-7.44,11.79-6.92,27.68s6.66,26.15,1.36,34.36-12.64,21.36-23.75,26.48-19.48,8.38-27.18,12.48-20,17.76-17.36,19.82A57,57,0,0,1,219.55,229C230.13,229,239.75,225.68,252,214.61Z" fill="#fe9e59"/>
    <path d="M285.49,176c2.8-2.8,6.45-6.05,9.76-6.81s7.63-1.78,7.63-7.12a37.74,37.74,0,0,0-.94-8.86s1.77-1.06,3.26,5.55c0,0,1.1-1.58-1.46-8s-2.82-6.28-2.57-10.82-17.84,11.87-17.84,11.87Z"/>
    <path d="M148.84,104.64c-1.17-8.17-7-23.34-1.17-36.18S164,25.29,190.85,17.12s28-12.83,57.17-5.83c0,0,28,12.83,32.68,17.5s14,19.84,16.33,28,4.67,21,5.84,26.84,2.33,21,2.33,21-9.19,3.65-11.67,5.83c-1.5,1.33-5.15,3.59-7,5.83,0,0-1.17,0-4.67-3.5-5.28-5.28-14-9.33-18.67-17.5s-2.33-7-7-21-7-24.51-18.67-22.17-26.83,15.17-36.17,14S183.85,63.8,178,54.46,162.84,51,158.18,60.3s-3.5,17.5-4.67,26.83,1.17,22.17,0,24.51S148.84,104.64,148.84,104.64Z"/>
    <path d="M287.13,120.82c2.16-5.29,6.14-12.14,14.61-14.73S316,104,312.38,118.66,305.54,139,300.3,143.23s-9.08,8.86-11.25,8.62-7.07.72-7.07.72Z" fill="#fe9e59"/>
    <path d="M191.52,246.35c2.53,1.47,5.92,7.54,9,9.42s3.42,8,17.93,8.54,17.76.17,27.83-3.76,20.32-7,27.5-12.12a143.12,143.12,0,0,0,16.45-13.34c4.67-4.44,13.77-.83,13.77-.83L275.6,258.78l-65.35,16.34-16.33-14.67-4.45-12.55Z" fill="#e9f8c4"/>
    <path d="M295.71,225.49c3.68-2.45,9.15-2.66,9.72,0s4.22,6.92,0,11.71-20.58,19.35-25.71,22.89-28.37,18.28-40.26,18.46-20.42.86-20.42,1.39-1.91,6.69-7,4.44c-2.06-.91-1.85-4.41-1.85-4.41s-9.21-2.17-12.88-7.46-4.61-7.17-5.81-9.91-4.44-5.46-4.61-7.68-.3-5.48,1.09-6.92,2.31-2.68,3.38-.91.82,5,3.38,7.23S205,264.74,209.56,266s17.25,4.5,24.8,2.68c13.88-3.36,27.37-9.09,32-12.54,4.84-3.63,22.12-11.83,24.77-18.32S294.16,226.52,295.71,225.49Z" fill="#b21b1b"/>
    <path d="M208.71,119.16c2.69-1.53,16.65-3.15,20.1-2.86s9.74,3.63,9.61,2.1-5-4.49-9.86-4.61-16.65.38-19.85,2.69S208.71,119.16,208.71,119.16Z" fill="#7d3318"/>
    <path d="M159.46,113.27c6.16-1.65,14.15-.29,16.2.5s4.09,2.63-.65,2.13-9.34-1.19-14.34-.25S153.8,114.79,159.46,113.27Z" fill="#7d3318"/>
    <path d="M212.66,130.93c1.47-5.48,9.94-5.35,13.36-5.09s10.77,2.42,10.77,4.5-8.68,6.58-14.86,5.1C218.09,134.52,211.84,134,212.66,130.93Z" fill="#fae1d7"/>
    <path d="M161.47,127.4c.7-2.61,5.54-4.81,10.06-4.23s9.19,2.72,8.8,5.1-6.32,5-10.48,4.44C165.38,132.12,160.92,129.45,161.47,127.4Z" fill="#fae1d7"/>
    <path d="M193.91,168.64c0-4.15,6.18-8.39,5.4-9.16a2.74,2.74,0,0,0-4.24,2C194.49,164.4,193.91,168.64,193.91,168.64Z" fill="#fe9e59"/>
    <path d="M236.79,130.34c0-.51-.44-1-1.15-1.51a6.14,6.14,0,0,1,.14,1.29,5.8,5.8,0,0,1-.35,2C236.28,131.46,236.79,130.83,236.79,130.34Z" fill="#f3b39b"/>
    <path d="M235.64,128.83c-2.21-1.52-7-2.81-9.62-3-.81-.06-1.91-.11-3.13-.09a6.13,6.13,0,0,0-1.88,4.37,6.44,6.44,0,0,0,3.54,5.6,19.83,19.83,0,0,0,10.88-3.6,5.8,5.8,0,0,0,.35-2A6.14,6.14,0,0,0,235.64,128.83Z" fill="#311705"/>
    <path d="M180.33,128.27c.39-2.38-4.28-4.52-8.8-5.1a11.83,11.83,0,0,0-1.68-.09,5.42,5.42,0,0,0-2.9,4.56c0,2.25,1.65,4.19,4.06,5.13C175,132.78,180,130.44,180.33,128.27Z" fill="#311705"/>
    <path d="M182.52,193.84c-.59,1-2.62,3.13,1.22,5A22.16,22.16,0,0,0,194.93,201c3.73-.17,10.9-.5,13.45-2s5.36-1.29,5.53-2.53-3.62-2.94-3.62-2.94Z" fill="#f57544"/>
    <path d="M181,192.64c4.46-1.43,11,1.25,13.35,1.58s11.35-2.28,14.61-1.47,9.75-1,10-.35c.42,1.12-9.64,3.81-15.45,3.93s-9.33,1.14-12.53.68c-2.74-.39-3.63-.34-6-1.32S179.24,193.19,181,192.64Z" fill="#ea884b"/>
    <path d="M187.19,128.49a7.61,7.61,0,0,1,.17,2.29,22.17,22.17,0,0,1-.22,2.29c-.21,1.52-.49,3-.83,4.52s-.67,3-1.08,4.45l-1.5,4.32c-1,2.88-2,5.7-3.14,8.57a41.19,41.19,0,0,0-2.64,8.45,10.29,10.29,0,0,0,.1,4.11,6,6,0,0,0,.76,1.8,15.18,15.18,0,0,0,1.32,1.62c1.93,2.11,4.4,3.82,7.08,4a7.84,7.84,0,0,0,2-.16l2.19-.55,4.39-1.08a27,27,0,0,1,4.65-.9,7,7,0,0,1,2.64.24,2.88,2.88,0,0,1,1.42,1,2.31,2.31,0,0,1,.33,1.94l-.95-1.28a1.61,1.61,0,0,0,.45-.15,1.55,1.55,0,0,0,.49-.37,3.22,3.22,0,0,0,.71-1.23,9.74,9.74,0,0,0,.35-3.37,30.88,30.88,0,0,0-1.25-7.16,13.57,13.57,0,0,0-1.38-3.07,1.79,1.79,0,0,0-1-.74l-1.87-.18a11.22,11.22,0,0,0-3.62.1,2.81,2.81,0,0,0-1.5.86,6.13,6.13,0,0,1-.65.7,1.34,1.34,0,0,1-.42.28.18.18,0,0,1-.23-.08.41.41,0,0,1,0-.24c0,.15.09.34.24.24a1.34,1.34,0,0,0,.32-.31,7,7,0,0,0,.51-.78,3.22,3.22,0,0,1,1.55-1.27,12,12,0,0,1,3.85-.67l1.91-.09a3.23,3.23,0,0,1,2.22,1,8.1,8.1,0,0,1,2,3.61,34.33,34.33,0,0,1,1.33,7.69,11.73,11.73,0,0,1-.45,4.11,4.19,4.19,0,0,1-3.56,3.1l-.86.07-.09-1.35c0-.15,0-.31-.49-.49a4.91,4.91,0,0,0-1.85-.14,25.2,25.2,0,0,0-4.28.83l-4.43,1.1-2.22.55a9.77,9.77,0,0,1-2.53.21,10.4,10.4,0,0,1-4.75-1.52,17,17,0,0,1-3.7-3.08,15.22,15.22,0,0,1-1.53-1.91,8,8,0,0,1-1-2.37,12.54,12.54,0,0,1-.14-4.91,43.31,43.31,0,0,1,2.76-8.88c1.07-2.79,2.11-5.67,3.12-8.51.51-1.42,1-2.85,1.44-4.29s1.11-2.8,1.63-4.22,1-2.83,1.47-4.27A14,14,0,0,0,187.19,128.49Z" fill="#fe9e59"/>
  </g>
  <g clip-path="url(#clip-path-3)">
    <path d="M767.16-67.27c10.13,6.59,11.11,7.46,17,14.71s4.83,7.46,11,11.63,7.46,5.93,12.07,7.25,4,1.31,5.93,5.46,3.29,3.76-1.1,5.73-6.81,3.07-11.64,3.95S745.79,1.88,739.86,2.54s5,1.09-16,4.17a260,260,0,0,1-51.14,2.85C658.64,8.9,652.93,7.8,639.1,7.8s-23.19.66-32,.66-12.55,2.29-14.74,1.36c0,0-60.78,4.12-79.32,3.09s-46.69,1.38-54.93-3.43,57.68-14.15,57.68-35.64c0-4.46,9.61-17.38,18.16-31.26C539.27-66,571.17-88,571.17-88l13.29-7.3s42.8-14.67,61.8-14.94c9.93-.14,30.48-29.43,49.94-38.15,16.16-7.24,36.58,67.6,36.58,67.6Z" fill="#e4ab8d"/>
  </g>
  <g clip-path="url(#clip-path-4)">
    <g>
      <path d="M321.73-71.33c9.3,1.57,3.21.3,26.81,5.88s21.83,3.16,31.22,8.05,11.42,5.66,19,11.75,8,5.24,14.47,12.94c8.37,10,1.36,7.19,15.07,14.05s12.08,4.73,26.8,10.57,52.53,50.5,56.34,65.22,8.38,29.7,10.66,31.22-310,0-310,0H-39.4a369.66,369.66,0,0,0,25.91-38.8C-2.31,29.73-2.31,29.22,5.31,12.46S17.74-1.06,31.46-10.72,50.75-14.52,63.55-31C74.82-45.51,93.62-61.43,99.76-63.94,113-69.33,122.29-74.94,132.9-79s35.54-12.23,35.54-12.23Z" fill="#b5afb1"/>
      <path d="M292.71-157.28c1.77-7.65.5-5.37,2.28-10.7s3.15-6.09,6.52-10.66,3.89-8.37,6.42-10.66,5.08-3.43,7.87-2.73,5.82,2.11,4.31,6.36-4.13,4.1-5.26,8.32l-2.63,9.82c-1,3.74-2,2.93-1.24,10.25s1,7.58.51,14.68-1.53,12.69-.26,17.51-1.08,4.65.51,10.58,1.27,2.11,4.06,11.76,2.79,13.45,2.79,18-2.25-.77,1.92,9.89,2.4,17,4.94,20.05.25.51,7.1,6.6S346-43.11,351.33-34.48s7.87,13.95,7.87,13.95,10.4,18,10.4,21.58-3,34-3,34.76-31.72,41.37-35.4,41.63-19.42-22.08-24.75-24.37S294,48,291.69,43.68s-4.82-3.55-11.93-21.82S262.51-5,249.31-14.18s-31-23.1-38.83-29.44-16.5-11.93-21.32-16a87.59,87.59,0,0,0-11.67-7.87l84.29-97.2Z" fill="#c39a7e"/>
      <path d="M134.87-86.37c-6.6,3.3-8.54,3.81-10.87,10.42a229.05,229.05,0,0,0-6.91,23.88c-3,12.19-8.64,18.8-10.16,26.93s3.56,15.75,6.6,32.51,0,27.44,3.56,36.59-16,15.75,11.31,23.88,16.56,9.54,29.81,9.6S170.85,77,188.43,80s28.78,3,28.78,3,14.71,4.57,39.1-9.14,31.5-18.3,36.58-19.82,13.52-1,13.52-1V35.32s-18.17,8.13-32.86,8.13-21.31,4.06-40.61,9.65-42.31,19.31-55.45,16.77S142,65.81,137.41,55.14,126.24,30.24,126.24,17s-2-20.33-4.58-33.54-7.11-11.68-2.54-23.88,8.76-20.83,13.78-27.94,19.57-18,10.77-18Z" fill="#f0f3a6"/>
    </g>
  </g>
  <g clip-path="url(#clip-path-5)">
    <g clip-path="url(#clip-path-6)">
      <g>
        <path d="M453.85-329.1c.13-.32-.22-1.19-.41-1.21-1.32-.14-1.57,1.14-2.24,1.88-2.24-1.18-3-2.66-2.35-5.43,1.32-5.38,3.34-9.95,9-11.9h0a3.5,3.5,0,0,1,2,2.54c2.53,14.39,5.85,28.66,4.16,43.5a103.84,103.84,0,0,0-.38,20.94c.5,5.83.67,11.86-.88,17.49-2,7.25-5.69,14.07-7.27,21.38-1.49,6.87-4.54,13.75-3.7,20.83,1.19,10.07,4,19.91.35,30.12-1.18,3.26-1.06,7.13-.91,10.69a64.67,64.67,0,0,1-1.67,19,75,75,0,0,0-2.33,22.44c1.2,24.59-5.38,47.05-18.78,67.61-7.18,11-16.27,20.47-24.61,30.54-1.57-4.37-5.57-6.4-9.34-7s-5.92-2.76-8.72-4.38a14.76,14.76,0,0,0-6.92-2.35c-6.24-.48-13.84.16-17.71-7.4-1.21-2.35-4.33-2.33-6.74-1.56-2.8.89-4.7.5-7.17-1.45s-5.94-2.33-9.82-2.2c-4.23.15-8.85-3.7-12.82-6.48-2.44-1.72-5.45-3.69-5.43-7.49-4,.06-3.51-7.94-9.09-5-.7.37-2,.21-1.45-.68,1.84-3.31-5.63-4.76-1.56-8.15,2.13-1.78,2.44-3,1.75-6-.77-3.31,2.41-4.83,6.33-4.74,6.8.17,13.57-.13,20,3,.28-.45.56-.89.83-1.34-3.06-3.79-5.71-8.06-9.35-11.18-2.35-2-5.68,0-8.51,1.28-3,1.37-6.9,3.54-6.73-3,0-.51-.28-1.43-.59-1.51-7.62-1.83-6.72-12-14.29-14.29a9.83,9.83,0,0,1-6.54-7.73c-.16-.85-1.53-1.64-1.43-2.32,1-6.22-9.05,2-7.16-5.6,1.18-4.73-5-5.6-5.67-9.55-.75-4.5-5.59-5.28-7.83-8.52A7.19,7.19,0,0,0,262.5-167a25,25,0,0,1-19.39-10.5c-4.11-5.55-10.74-5.89-16.2-8.66a1.36,1.36,0,0,0-2.15,1c-.76,3-2.42,1.68-3.77.7-1.64-1.2-3.16-.88-4.79-.13s-4.56.07-4.84,2.15c-.37,2.81,2.85,2.2,4.47,3.19,4.18,2.58,5.67,7.34,7.85,11.31,3.08,5.64,3.53,12,2.36,18.47-.48,2.64-.62,3.52-3.7,3-5.37-1-7.27,1.16-6.44,6.67,2.11,14.06,6,27.8,6.78,42.12.65,12.1.31,24-7.2,34-8.21,10.84-9.76,23.29-11.24,36-.53,4.61.16,9.54-5.59,12.18-1.42.64-2.52,5.4-1.59,7,2.13,3.78.38,7.19.78,11,2.92-4.41,9-5.81,9.31-12.82.16-3.85,4.53-6.7,8.09-8.91a2,2,0,0,1,3.34,1.66c.46,4.83,2.66,2.31,4.17,1a36.73,36.73,0,0,1,13-7.85c4.4-1.43,4.12-5.86,5.26-9.31.13-.39-.28-1.12-.65-1.48-2.9-2.82-2.87-4.1,1.52-5.34,3.83-1.09,4.11-2.57,2-5.8,3.78,3,7.36-.61,10.77.65-5.83,2.11-5.78,8.29-8.77,12.17a34.35,34.35,0,0,0-5,9.72c-1.59,4.29.44,11.47,4.17,13.79,1.46.91,2.88,2.25,4.85,0,2.59-2.9,2.1-8.6,7.77-8.7-.06-2.31-.43-4.57-2.4-6-4.35-3.2-4.24-6.38-.7-10.26,5.49-6,5.35-7.54,0-10.71,4.7-.77,8.25,2.86,12.65,3.38,1,.12,1.1,1.88,1,3s-.76.78-1.57.59c-5.32-1.2-4.39,2-2.71,4.53s2.91,4.64,1.95,8.34c-1,4,3.42,6.81,5.33,10.21.86,1.53,2.27.14,2.9-1.17s-.38-2.64-.26-3.81c.25-2.31.69-5.23,2.94-6.12,2.52-1,2.34,2.29,3.51,3.54s2.24,2.89,4.12,5.36c-1.39-7.9-2.79-14.15-10.5-16.39a2,2,0,0,1-.57-3.68c5.78-4,2.7-6.28-1.41-8.54-.37-.21-.49-.87-.88-1.59,2.57-1.24,4,.77,5.7,1.58,4.1,2,8,4.25,12.15,6.18s5.09,4.35,1.75,7.8c-.74.76-2.28,1.25-1.07,2.57a6.63,6.63,0,0,0,3.26,2.11c1.51.27,1.5-1.4,1.72-2.43,1.11-5.15.83-10.48,1.37-15.68.24-2.24-4.58-5.45-7.26-8-4.66-4.42-8.64-9.49-14.68-12.67-4.52-2.38-9.34-5.47-11.46-11-.56-1.44-2.2-2.47-4.17-4.59,6.58,1.62,11.17,5.08,15.7,8.06,18.82,12.39,38.28,23.9,56,37.95,9.47,7.53,20.86,12.12,29.73,20.72,2.62,2.54,8.14,3.57,12.75,3.8,5.85.31,8.87-3,10.65-8a40.51,40.51,0,0,0,3,3.27c8.65,7.68,16.09,16,17.29,28.33.31,3.27,2.07,6.37,2.81,9.63,1.06,4.65,3.71,9.18,1.48,14.19h0c-1.86-1-1.92-4.72-5.69-3.38,2.6,3.54-.7,6.75-.84,10.35-.13,3.31,2.09,7.4-1.2,10.62-.94.92.58,2.07,1.26,2.85,3.75,4.26,2.55,8.86.23,12.89-2.83,4.91-4.91,10.2-7.81,15-7,11.52-14.17,22.9-21.4,34.26a23.65,23.65,0,0,0-4,11c-.36,5.52-2.66,10.35-5.23,14.82-6.94,12.11-11.06,25-13.48,38.69-1.88,10.58-2.11,21.48-6.08,31.65-.69-.57-1.45-1.69-2.07-1.61-3.54.43-9.39,10.49-8.64,14.6-2.25,4.7-5.82,8.3-9.68,11.66-1.82-1.26-4.24,2-5.86-.78-.41,1-.85,2-1.23,3.08-.94,2.61,1.25,3.11,2.76,4.06-2.23,3.4-6,6-6.23,10.42-.27,4.6-2,8.78-2.89,13.16-1.66,8.18-4.9,16.3-1.75,25,.82,2.27,1.17,5.24-.69,7.62-1.38-.52-3.57-2.7-4.08-.51-1.13,4.86-8.4,4.46-7.95,10,.14,1.77,1.67,3.57,3.47,2.71,2.31-1.1,6-1.23,5.91-5.05-.1-2.88-.16-5.53,2.64-7.26,3.68,5.57,5,11.08,2.57,17.94-2.61,7.4-6.75,14.43-7.23,22.49-.31,5.18-2.49,5.14-6.1,2.81q-13.49-8.7-27-17.32a52.33,52.33,0,0,0-3.23-5.1c-1.47-1.86-3-2.06-4.08.53a284.33,284.33,0,0,1-24.61-15.14c-.62-5.16-5.83-5.76-8.76-8.61-.5-.49-1.56,1.13-1.8,2.23l-1-.66c.63-3.69-4.49-11.05-8.13-11.4a6.75,6.75,0,0,1-3.42-1.75c-3.31-2.39-5.17-1.51-5.84,2.4l-2-1.25c3.25-1.62,3.38-4.25,2.66-7.4-.67-2.91-2.66-.84-3.95-1.32,2.72-2,5.54-3.79,7.28-7,1.41-2.59,1.64-5.43-.17-7-2-1.74-2.71,1.53-4,2.59-2.58,2.1-6.64,2.53-7.52,6.64a2.55,2.55,0,0,1-2,.16c-4.86-3.44-6,.47-7.45,3.7l-8.1-5c1.22-2.63,4.34-5.11,1.08-8.23-3.68-3.51-4.65-3.05-8.21,3.51-5.38-1.87-8.52-7.36-14.18-8.75,3.57-3.19,2.22-6-.87-8.86l-4.67,5.74c-4.84-2.1-4-5.4-1.57-8.67,2.09-2.85,1.64-4.64-1.48-6.14a32.69,32.69,0,0,1-12.57-10.27c-2.82-3.94-8.65-3.54-10.83-8.12.67-.84.91-3.3,2.48-.61,1.21,2.07,2.93,1.65,4.23.36,2.38-2.35-.42-4-1.12-5.92-.84-2.31-2.34-.89-2.95-.16-1.29,1.57-3.39,2.48-3.94,4.65a4.19,4.19,0,0,1-3.41-2.32c6.12-3.32.83-7.78,1.83-12.79-3.67,2.83-6.24,5-7.72,8.21-7.55-.54-9.84-7.62-14.55-11.69,6.25-1.84,3.82-6.35,3.06-10.25-.28-1.48-1.89-1.34-2.8-1.14-3.59.77-6.07-1.17-8.6-3.11-5.89-4.5-5.88-4.5-7.78,2.72a7.34,7.34,0,0,1-2-.84c-8.29-7.1-8.3-7.12-13.84,1.73a30,30,0,0,0-3.2,6c-1,2.84-2.54,3-4.73,1.66Q36.41,183.22,8,165.48c-1.52-7.41-.81-8.07,6.53-5.67,3.24,1.06,6.34,2.5,9.56,3.62s5.75,2.81,9.3-.24c2.93-2.51,9.11.58,10.3,4.79.64,2.32,1.52,3.76,3.75,4.35,6.12,1.64,12.27,3.16,18.94,6.56a63.89,63.89,0,0,1-1.9-13.83c15.32-2.92,30.59-5.12,44.6-12.59,1.25,1.72-1.83,3.46.16,4.54,1.63.89,2.61-.92,3.87-1.63,6.44-3.63,11.1-9.77,18.62-12.21a42.85,42.85,0,0,1,7.23-1.28c7.93-1.18,16.07-4.15,23.92.48-1.15,3.27-3.73,1.47-5.71,1.49-1.54,0-3.2-.47-3.36,1.75-.12,1.74,1.05,2.32,2.61,3,5,2.29,9.8,3.11,15,.94,1.37-.57,4.32,1.63,4-1.65a4.14,4.14,0,0,0-5.43-3.48c-3.08.9-5-.07-6.89-2.15,1.34-2.56,3.95-2.61,6.29-3.09,1.88-.39,3.69-.78,5.05-2.29,1.79-2,3.92-17.09,2.71-19.4a4.58,4.58,0,0,0-.57-.9c-5.17,2.43-4.43-4.06-7.38-4.87-4.24-1.17-3.75-5.71-6-8.3a1.78,1.78,0,0,1,.65-2.49c1.18-.73,2-.1,2.74,1,1.83,2.89,4.15,4.6,7.16,2.72,2.73,2-3.86,4,.58,5.34,1.35.4,3.06,3.22,4.77.54,1.31-2.07,2.82-4.33-.24-6.32l0,.12c.91-1,1.1-3.28,3.23-2.13,1.57.84,2.9,2.42,1.9,4.21-2.83,5,1.73,10.29-.73,15.37-.8,1.64.28,3.47,2.33,3.8,2.51.39,2.69-1.8,2.86-3.35.94-8.3,2.42-16.75-4.7-23.47-1.78-1.69-.34-4.43-2-6.27-.65-.72-1.09-1.73-2.12-1.3a2.41,2.41,0,0,0-.9,1.89c0,2,.75,5.51-.76,5.67-3,.33-6.92-.16-9-2-2.41-2-4-1.37-6.5-.61,4.27-3,1.52-10.68,8.45-11.54.72-.09.94-1.2.53-1.92a1.75,1.75,0,0,0-2.83-.61c-1.7,1.23-3,3.86-5.65,1.45-2.23-2.06-1.35-4.21-.69-6.73s-1-5.78,4.33-4.87c2.08.35,3.73-4,4.07-6.83,1-8.47,5.78-16,6.06-24.61,0-1,.23-2,1.51-1.88s1.27,1.28,1.09,2.21c-1.34,6.87,2.22,14.75-4.72,20.53-3.1,2.57.38,7-1.72,10.18,3.91-.92,5.18,3,7.9,4.23a1.14,1.14,0,0,0,1.5-1.57c-2.91-4.9,4.1-7.35,2.82-11.84-.17-.59.92-1.11,1.76-.88a1.29,1.29,0,0,1,.89,1.78c-.66,2-1.41,3.91-2.19,5.84-.49,1.21-1.46,2.53.17,3.45a3,3,0,0,0,3.67-.72,16.17,16.17,0,0,0,3.14-5.3c1.13-3.69,2.07-7.33,6.15-8.93,1.29-.5,1.25-1.61,1.39-2.79,1-8.28,2.25-16.71,6.34-23.94,2.11-3.72,1.15-7.71,3.15-11.11a1.58,1.58,0,0,0-.73-2.37c-1.09-.57-1.69.21-2.34.94-2.1,2.33-2.1,5.63-3.78,8.15-.75,1.14-1.73,2.3-3.22,1.58a2,2,0,0,1-.45-3.35c2.47-2.11,4-3.89,2.73-7.66-.81-2.41,2.9-4.86,1.67-8.28-4.73.59-5,4.77-6.28,8s-1.19,3.4-5.5,3.81c-.73-2.07,1.92-1.95,2.21-3.42.36-1.83,0-3.57-1.38-4.6-1.89-1.37-2.56.64-3.41,1.78-1.3,1.75-2.54,3.54-3.69,5.17-3.92-4.65-.32-8.15,1.3-12.38,1.44-3.73,1.49-8.36.85-12.39-.51-3.25-7-3.33-10.2-.22-1.53,1.52-3.24,3-3.66,5.31-2.34-1-1.11-2.08-.72-3s1.65-2.69,1.42-2.91c-6-5.8,1.89-12.88-1.69-18.56-2-3.1-1.4-5.16.58-7.56.21-.25.33-1,.23-1C166.59-37.3,174.86-44,171-48.87c-.44-.56-.46-3.68,1.78-4.18,1.58-.35,2.16,1.18,2.61,2.46.87,2.48,2.71,1.58,4.25,1.1,2.22-.68,6.36-10.14,5-12-4-5.32-3.39-11.2-4-17.33C180.1-83.32,183-89.32,178-93.25l0,.14c-.55-3.85.82-7.83-.82-11.57-.32-.75-.73-1.56-.12-2,5.88-4.49,1.94-10.57,2.71-16.31l-4.7,2.55c1.79-4.35,4.75-7.68,3.15-11.85-5.37,2.76-7.48,9.24-8.31,15.13-1,7.26.82,14.36-1,21.8-1.4,5.81-3.11,13-1.6,18.53,1.32,4.84-1,10.64,3.61,14.92,1.93,1.82.88,5.07-1.35,7-1.2,1-2.81,2.33-2.56,3.57,1.33,6.85-3.31,12.86-2.51,19.53.27,2.21-1.75,3-2.24,4.94-2.41,9.48-1.8,19.47-5,28.77-1.32,3.79,3.14,4.89,3.55,8.57.59,5.39-2.1,4.94-4.68,4.23-2.14-.59-3.49-1-4.59.85-.14-3,5-3.58,3.69-7.12-.5-1.41-2.32-.1-3.95.36,1.38-3.72,4.38-5.85,4.54-9.58.11-2.47.78-4.34-.94-7-1.49-2.3,0-6.07,1.25-9.07.93-2.17,3.1-5-1.92-5.45-1.69-.14-2.12-1.47-1.61-3.43,1.14-4.32,2.36-9.35,1.72-13.15-1.16-6.86-.34-13.84-2.1-20.57-1-3.7.32-6.78,3.93-8.12,3-1.1,4.28-2.85,4.08-6.15a7.41,7.41,0,0,0-6.79,2.86c-.62.75-1.47,1.44-2.43.83-1.29-.82-.65-1.94-.15-3s1.11-2.39,1.66-3.59c2.52-5.45,2.52-5.45-.5-10.16-2-.15-1.7,4-3.86,2.69-2.54-1.53.46-3.2.52-4.81.12-2.89.81-4.72,4-5.44,1.61-.36,2-2.56,2.4-4.27-1.66-1.3-3.26,1-4.85.05-1.79-1-3.85-1.79-2-4.68,1.69-2.63,5.48-6.37,1.17-8.55-4.11-2.07-4.7,3.61-6.72,6-.32.39-.48.93-1,1.29,3-5.84,6.11-11.6,6.87-18.25a2.72,2.72,0,0,1,1.25-1.73c7.08-4.06,8.47-9.84,3.55-15.89-1.22-1.51-1.45-2.94-.07-3.91,2.83-2,2.87-4.95,1.33-6.87-2.37-2.95-3.78,1.8-6.16,1.75-1-2,.69-3.08,1.47-4.41.87-1.49,2.19-3.44.59-4.64-5.65-4.21-3.5-10.29-4.08-15.65-.8-7.39-1.38-14.82-1.66-22.25-.16-4.13,3-7.22,4.54-10.81,1-2.17,4.47-4.62,1.82-6.63-3.12-2.37-7.1-.35-10.31,1.38-1.13.61-1.62,2.42-2.92,3.64-.11-4.15-7.68-5.51-1.88-11.7-4.4.74-4.66,7.1-8.46,3.5-3.33-3.16-5.82-7.06-4.75-12,1.63-7.49,3.36-14.94,2.15-23.15-1.44,2.33-2.75,4.76-4.37,7-2.48,3.37-7,3.65-8.71-.11-2.8-6.2-6.11-3.94-10.34-1.21.31-3.82,1.71-7.09,4.15-8.54,3.44-2,4.2-5.89,7.1-8.12,1.51-1.16,1.26-4.6,4-4.06,2.93.59,1.29,3.82,2.33,6.12,3.34-2.67,4-5.87,3.31-9.5-.4-2-.55-4.1,1.27-5.14,2.31-1.31,3.56,1.4,5.3,2.25,1.56.78,3.71,1.43,2.84,4.12-.75,2.34-1.3,4.74-1.93,7.11-.81,3,.64,3.75,2.91,2.32,2.88-1.82,7-2.49,7.42-7a1.75,1.75,0,0,1,2.34-1.75c8.3,2.4,16.9-1.63,25.18,1.26,2.48.86,5.07,1.42,7.6,2.12-.44,1.92.17,2.71,2.26,2.51,1.14-.11,2.36.63,2,2s-1.57,1.06-2.73.72c-5.18-1.49-9.31,0-12.21,4.59l-.71.14c.11,0,.25.15.33.11a1.53,1.53,0,0,0,.37-.31c3.06,2.52,6.57,4,10.37,2.38,6.2-2.64,12.37,2.19,18.86-.63-2.42-2.24-2-4.37.88-6,.93-1.79,3,.3,4-1.23L213-256.31c-2.13,2.39-4.18,2.33-6.79,1.33-1.68-.65-4-2.17-5.57.41-.73,1.2-3.29,1.43-2.32,3.36.76,1.51,1.64,3.31,4.34,2.57,2.2-.61,4.57-.18,5.33,2.8.59,2.28,1.46,4.44-1.94,5.33-1.37.35-1.41,1.64-.81,2.79a2.88,2.88,0,0,0,2.89,1.39c1.9,0,3-1.42,4.39-2.35a2.94,2.94,0,0,1,3.69.44c1.19,1,.47,1.74-.27,2.79-4.71,6.71-4.64,7.2,1.06,14.51.63-5.4,6.62-5.66,8.42-10,.35-.86,2.67-2.06,4-1.24,1.53.95.72,2.9,0,4.08-1.57,2.7-3.24,5.71-6.88,5.78-2,0-2.62,1.17-3.25,2.54a1.82,1.82,0,0,0,.82,2.42c1.48,1,2.3,0,3.36-.89,2-1.71,2.9-1.13,3.08,1.53.4,6.19,4.22,9.49,10.15,8.95.94-.09,2.14-.66,2.64.21,3.37,5.84,7.33.49,10.92.46,2.27,0,1.69-2.18.07-3.06-5.05-2.73-9-7.52-15.2-8.19-1.82-.19-4.85-7.33-3.52-8.41,3-2.46,1.84-4.14-.14-6.45-1.59-1.84-3-4.74-.9-6.62,1.65-1.5,4.79-.45,6.63.54s3.89,1.9,5.43,3.76a3.81,3.81,0,0,0,6-.28c1.86-2.48-1.31-2.78-2.49-4-1.61-1.6-2.84-2.68-5.7-2-2.28.53-5.55.12-6.91-3.46-1.45-3.86-5.69-3.08-8.75-4.07-2-.64-4.24-.32-4.47-3.36a19.14,19.14,0,0,1,9.54,3.06c4.78,3.07,10.41,3,15.52,4.72,1.66.57,2.77-.77,4.18-1-.29,2.89,2.11,2.76,3.78,3.17,16.8,4.11,30.6,13.74,44.44,23.53,9.24,6.54,19.21,12.06,28.55,17.85.05-.3-1-2.34.47-3,6.12-2.76,1.7-5-1.21-8,9-.25,16.62,2.54,25,3.5-1.71-3.72-4.86-2.62-7.09-3.5-1.67-.66-4.26-.3-3.83-3.08.35-2.28,2.86-3,4.46-2.7C350-217,354.07-221,359-222.6c2.27-.75,2.27-1.79.64-3.68-3.05-3.49-8.86-4.84-8.57-11.08.05-1.15-1.89-.87-2.95-.52-1.61.52-3.13,1.49-4.77,1.75-2,.31-4.73,2.51-6.07-.43-1.07-2.34-3.1-5-.77-7.93a16,16,0,0,0,2.66-5.24c-5.47,6.38-11.91,6.73-19.14,4.26-1.64-.56-3.81.57-5.57.17-2.21-.52-5.6-1.21-1.9-4.56,3.16-2.86.41-6.1.06-8.94-.8-6.35,3.87-10.52,5.5-15.85.78-2.54,11.57,1.74,13.65,3.51,4.28,3.64,4.7,8.82,7.15,12.84,2.66,4.35,10.12,4.83,14.47,8.83.42.38,1.94,0,2.68-.49,4.23-2.68,8.39-5.48,12.56-8.27.73-.49,1.93-.9,1.28-2.09a2.33,2.33,0,0,0-2.46-1.06c-6.85.87-9.74-5.16-14.29-8.29a2.2,2.2,0,0,1-.75-3c1.7-3.35-1.29-3.31-2.7-2.92-3.15.87-5.91-.45-8.85-.68-5.39-.43-7.36-3.52-7.85-8.58-.28-3,.88-7.14-4.53-7.76-1.88-.22-1-2.93-.7-4.53.18-1.14.87-2.33,2.3-1.81,2.47.91,4,5.79,7.92,1.21.57-.67,6.59,3.05,7.92,6.93,2.47,7.21,12.4,11.58,18.9,8.23,2.54-1.31,1.44-3.71,1.89-5.56s.86-2.76,3.06-3c2.64-.27,2,1.4,2.38,2.74,1,3.88,3.26,5.78,7.61,6.14,6.33.53,12.5,3.49,19,1.24,7.43-2.58,15-4.9,21.8-8.94-1-2.5-2.35-1.45-3.57-1.43-3.36.06-6.94,1-6.17-5,.43-3.34-2.54-4.32-5.58-2.42-4.07,2.54-8.43,1.27-11.1-2.77-7.27-11-14.87-21.72-20.56-33.65A31.08,31.08,0,0,1,371-347c-.27-4.69,4.46-6.63,9.24-4,4.46,2.47,9.41,2,14.09,3.15,1.7.4,2.28-1,3.07-2,1.58.12,3.17,1.26,4.8,0-2.33-1.77-2.33-1.77-4.77.08-4,0-4.46-2.83-4.19-5.64.24-2.44.08-4.57-2.61-4.58-3.49,0-1.66,2.46-1.32,4.1.42,2-.39,3.6-2.16,4-2,.51-2.15-1.28-3.05-2.78-2.36-3.91-1.51-9.27-6.55-12.18-2.19-1.26-3.53-1.4-6-.14,1.43-5.26,3.36-8.28,8.49-9.47,3.94-.91,2.63,3.05,4.77,3.53,2.17-2.64,4.32-5.35,6.58-8,1-1.21,3.28-2.05,1.24-4-1.48-1.39-2.52-2.55-5.57-2-7.87,1.35-11.69,7.25-16.37,12.24-2.53,2.69-4.73,4-7.76,1-.73-.72-1.55-1.22-2.44-.4a2.38,2.38,0,0,0-.43,1.39c1.78.82,2.51,1.94.65,3.29-1.5,1.08-3.14,3-5,2.29-3-1.06-5.52-2.46-5.43-6.79.06-3.25-1.29-7-5.68-7.59a13.66,13.66,0,0,1-5.7-2.42c-3.27-2.15-6.56-1.39-9.48.42-1.31.81-1.95,2.49-3.44.43-1.13-1.58-1.17-2.75.42-4.36,3.29-3.34,6.64-6.68,8.94-10.88,2.51-4.58,1.88-8.21-2-11.67-2.34-2.11-.27-4.14.5-6.14l.94,0c-.37-.85-.66-.52-.93.07-6.76-1.66-4.61-5.74-2.52-9.55-1.54-2.86-4.49,5.19-5.63-1-.13-.68-1.21.82-1.81,1.37-5.17,4.71-6.23,11.13-6.9,17.55-.35,3.31-1.43,3.56-4.38,2.81-3.12-.8-6.34-3.64-9.77.13-.37-3.05,1.56-4.38,2.35-6.2.44-1,1.62-1.89.75-3s-2.28-.72-3.15-.31c-3.92,1.87-8.72,1.14-12.18,4.56a5.76,5.76,0,0,1-6.79,1.33c-2.48-1.31-1.22-3.7-1-5.65.29-2.8.27-5.75,3-7.65,2.21-1.55.91-3.84,1-5.79a2,2,0,0,0-2-2.31c-1.35,0-2,.93-2.24,2.14-.37,1.59.19,3.45-1.71,5.13-1.55-2.78-5.44-2.5-6.8-4.78-1.6-2.7,3.94-3.81,2.7-7.78-2,2.59-5.95,2.25-6.41,6.35-.18,1.59-2.3,2.13-2.94.69-1.65-3.7-6-1.35-8.12-4.16-.73-1-2.39.63-3.07,1.7-.88,1.37-.73,3.37-2.46,4.08-5.83-6.44-1.75-11.72,1.26-17.82,7.33-14.85,20.49-21.76,34.62-28.09,5-2.25,9.15-6.5,14.82-7.75,1.83-.4,3.57-1.31,5.41-1.55,9.35-1.19,16-13.16,11.95-21.84-.92-2-3.25-2.79-5.24-2.79-3.94,0-7.2-1.67-10.52-3.36-2.77-1.4-4.41-5.06-8.8-3.17-2,.86-1.83-2.85-3.1-4-3.44-3.1-6-5.88-4-11.34,1.06-2.9-3.08-5.06-5.44-6.26-2.93-1.5-2.06,2.09-2.77,3.49-.44.88-.87,1.7-1.91,1.91-6.56,1.32-4.22,7.16-5,11-.51,2.54,3,2.6,5.34,2.3,1.51-.19,3.89-.43,1.78,1.87-2.48,2.72,3.79,5.1.1,6.62-1.87.77-3.29-3.37-5.94-3.33s-5.27-.86-7.68-.9c-6.68-.11-9.82-8.52-17.22-6.65-1.18.29-1.69-3.22-.85-4.28,2.8-3.48,2.34-8.34,5.45-11.66a3.85,3.85,0,0,0-.33-6c-3-2.57-2.47-6.12-2.76-9.44-.09-1.05-.32-2.49,1.29-2.68,1.32-.15,1.89.93,2.4,2,2.35,5.06,8,6.92,11.13,11.38,1.37,1.95,4.44,2.1,5.77-1.28,1-2.51,3.34-5.19-1.28-6.65-1.05-.34-3.16-8.5-2.61-9.49,1.5-2.7,3.35-1.54,5.28-.58,5.61,2.82,5.63,2.79,8.82-3.27-1.48-2.09-3.54,1.32-5-.53,1.55-4.78,3.59-9.61.11-14.46-.63-.89-.88-1.78,0-2.46s1.76.11,2.55.57c2.88,1.66,2.51,5.31,4.85,8.2,1.65-5.17.65-9.81,0-14.2s-6.4-6.45-11-4.43a38.48,38.48,0,0,0-6,3.2c-3.48,2.35-5.49,1.3-6.74-3.06-2,6.19-5.1,7.75-9.88,3.21-.76-.72-1.68-.25-2.6-.21-3.91.14-7.71-.18-8.29-5.34-.15-1.32-1.61-1.57-2.17-2.46-2.4-3.82-6.49-7.1-4.08-12.57.79-1.8-.59-3.06-2.15-3.3-1.86-.27-4-2.19-5.69.22-.61.87-2.05,2,.85,2.2,2.63.17,2.95,3,2.33,5-1,3-2.93.51-4.58.36-8.47-.78-10.26-7.91-13-13.87-.52-1.16-2.93-5.8,2.69-5.68,2.39.05,1.89-3,2.16-4.48a3.51,3.51,0,0,0-3.14-4c-1.75-.29-3.6.24-3.55,1.86.14,5.63-5.21,9.22-5.08,14.81.07,2.77-1.76,3.11-3.85,1.8a22.42,22.42,0,0,1-4.53-3.39c-1.5-1.6-2.57-2.63-4.48-.48-.63.7-2.78,1.22-3.09.86-4.29-5-9.58-1.71-14.44-2.07-6.19-.47-7.79-4.13-4.69-9.49,2-3.42,5-6.22,6-10.24.42-1.6,2-2,3.64-2.2,2.23-.24,3.73-2,3.23-3.86-1-3.37-3,.61-4.48-.15-1.35-1.5,2-3.67-.73-4.92a5.28,5.28,0,0,1,2.23-3.15c8.35-7.16,17.91-12.56,27.25-18.2,4.24-2.56,9.3-3.6,14.52-4.14,14.63-1.51,28.42.86,42.17,5.91,17.38,6.39,28.22,18.13,33.78,35.65,3.61,11.38,2.58,23.94,9.41,34.6,1.36,2.13,4.36,5.63,2.78,8.32-2.19,3.75-1.1,7.39-.81,10.79.35,4.07,3.46,7.48,8,7,1.94-.22,1.92.54,1.54,1.19-2.9,4.82,1.26,6,5.39,8.67a38,38,0,0,0-4.36-1.21c-1.65,3.75-3.11,7.59-4.61,11.41,6.21,3,3,7.92,2.27,12.15-.6,3.38-1.23,7.3.86,9.59a121.86,121.86,0,0,1,11.8,14.61c2.89,4.36,4.43,1.63,6.8.37,1.56-.83.37-4.91,3.23-3.4,2.53,1.34,3.38,4.37,3,7.47-.28,2.22-1.55,3.41-3.35,2.08-4.08-3-3.48,0-4,2.54-1.49,6.74,3.72,9.14,7.65,12.41,2.86,2.38,4.76,1.44,6.05-1.71h-.07c2.35,2.94-1.57,6.5,1.35,9.9,1.25-5,6.4-7.53,6.55-13.17,0-.79-.35-9.65,6.61-4.53,1.24.91,3.91-.88,3.4-3.75-.34-1.95-1.84-3.86-.24-5.89-2.85-1.61-1.9-7.11-6.79-6.62l.08,0c-2.63-1.12-5-4.52-8.16-.6-.71.86-3.47.47-3.48-.43-.08-4.88-1.66-4.57-4.58-1.79-.25.24-1.7-.15-1.91-.58-1-2-1.89-3.38-4.61-2.11-1.2.56-1.87-1.2-1.5-2.28a32.13,32.13,0,0,1,2.3-4.48,4.59,4.59,0,0,1,3.12,3.54,1.6,1.6,0,0,0,2.11,1.22,1.53,1.53,0,0,0,1.34-1.49A2.09,2.09,0,0,0,345-528a49.54,49.54,0,0,0-5.31-.94c-.84-.68-2.26-1-2-2.4.16-1.07,1.31-1.41,2.22-1.41,5.22,0,10.15-.48,14.45,4.26a194.56,194.56,0,0,0,35.08,30.8,58.4,58.4,0,0,1,17.81,18.5c6.5,10.92,9.14,23,12.66,34.8l.08,0c-4.89-1.76-6.84-5.62-7-10.45-.08-2-1.5-3.45-2.52-2.65-2.38,1.89-4.63,1.5-7.2,1.24-1.59-.16-1.73.61-.29,2.36.34.42,1,.64.61,1.24-2.94,4.94,0,8.63,2.16,12.82,1.22,2.32.66,5.41,4.82,4.22.31-.09,3.36,0,2.94,2.76-.22,1.41.66,3.36,2.72,2.45,1.48-.66,1.59-2.08.87-3.84-1.69-4.15-.41-7.06,4.27-8l-.06,0c.66,2.16.88,4.6,2,6.44,6.19,9.77,9.47,21,15.12,30.9,8.12,14.27,10.73,30.29,16.46,45.29.14.37-.29.95-.51,1.61a9.39,9.39,0,0,1-1.46-.92c-.81-.77-.53-3.33-2.39-2.15-1.63,1,0,2.17.93,3.07,2.24,2.13,1.16,4.16-.38,6-5.47,6.51-3.87,14.71-5.44,22.15-.37,1.75.91,2.3,2.05,2.94,1.93,1.09,2.68-.45,3.58-1.65C452.21-328.12,453.28-327.73,453.85-329.1ZM254.92,178.71v-.45c1.29-5.57,4-2.18,7.15-.51-1.37-2.81-2.22-4.82-5-5.21-1.83-.27-2.78.7-3.62,2.1-1.19,2,.4,2.67,1.53,3.61Zm-34.68-7.18c3.31-5.4,8.94-2.79,13.74-4-1.56-2.2-1.78-5.17-6.3-3.08-1.48.68-6.38-1.33-9.63-2.37.27-.67.78-1.36,0-2a.94.94,0,0,0-.87.2c-.39.91.38,1.3.92,1.78-.75,1-1.32,1.37-2.74.55-5.28-3-10.23-1-11.75,4.71-.38,1.4-5.53,2.6-.51,4.53.85.32,3.22,2.17,1.84-1.4-.2-.5,5.23-2.39,6.25-1.11,2.77,3.48,6.06,1.69,9.11,2.12-1.53,3.63.4,5.08,3.6,5a70.27,70.27,0,0,0,8.8-1.31c.58.39,1.43.66,1.68,1.2.63,1.35.88,3.4,2.49,3.4,1.88,0,2.14-2.28,2.93-3.66,1-1.73,1.45-3.48-.69-4.88s-3,.6-4.21,1.54a17.25,17.25,0,0,0-2.19,2.46C229.19,171.91,224.94,171,220.24,171.53Zm97.84-85.89c-2.84-1-5.61-2.35-8.53-2.91-6.6-1.24-9,1.84-6.5,8.14.61,1.53,2.28,2.79.44,4.41s-2.45-.53-3.68-1.13C297.5,93,297,95,297.62,96.37a26.39,26.39,0,0,1,2.05,17.25,1.25,1.25,0,0,0,1.26,1.54c3.63.06,3.21,3,3.92,5.23.31,1-.64,2.56,1,2.82,2,.31,1.79-1.76,2.08-2.78,1-3.66-.85-6.84-2.56-9.78-1.27-2.19-1.65-4.38.46-5.34,2.48-1.13,2.68,1.66,3.31,3.32.33.88.53,2.29,1.12,2.5,7.44,2.57,4,8.3,3.78,13a4.56,4.56,0,0,0,.84,3c3.71,5.9,3.68,5.92-2.34,7.8l.11,0c-1.45-.18-3-3-4.18-.51-.85,1.79,1.35,3,2.88,3.6,2.77,1.13,5.8,1.37,8.65,2.5,2.5,1,2.42-2.25,3.1-3.59,1.47-2.9,1.32-6.81,5.72-7.54a1.35,1.35,0,0,0,.86-1.83c-.58-1.4-1.86-2.2-3.18-1.56-3.83,1.87-5.38-1.12-7.57-3.09-1.78-1.6-1.43-3,0-4.28,1.24-1.06,2.08-2,1.82-3.79-.32-2.16.6-3.17,3-2.69a3,3,0,0,0,3.63-2c.54-1.75-.85-2.77-2.2-3.54a32.2,32.2,0,0,0-4-2c-4.7-1.87-5.21-4.88-1.1-8,1.38-1,.09-1.52,0-2.19-.49-2.94-3.25-5.36-2-8.71,2.78,1.27,6.32,1.71,6.26,6,0,1.19.92,1.53,2,1.32a1.52,1.52,0,0,0,1.12-2.16c-1.41-3.2-1.48-7.31-5.61-8.78-1.13-.64-1.71-1.53-.86-2.72a8.32,8.32,0,0,1,2-2c2.69-1.88,4.47-4.23,3.36-7.63-1.19-3.67-4.57.52-6.32-1.72,0-.19-.19-.64,0-.88,1.17-1.81,5.27-1.41,4.38-4.25-.71-2.24-3.95-.72-6-1.28a10.22,10.22,0,0,0-9.73,2.64c-1.26,1.16-3.33,4.14-1.91,4.6,5.42,1.74,2.58,6.2,3.49,9.19.64,2.13,1.9,1.95,3.09,2.47,2,.89,4.15,1.63,6.23,2.43C319,83.89,318.55,84.76,318.08,85.64ZM157.71,212c-2.44,3.79-5.26,1.14-4.85-.87,1.27-6.28-5.09-7.74-6.43-12.56-1.78,1.26.18,6.54-4.37,3.93-.59-.35-1.5.27-1.65,1.12-.27,1.54.9,1.9,2,2.09,1.82.32,3.4.83,3.24,3.11-.2,2.76-2.27,1.56-3.78,1.88-3.87.82-4.76,4.07-1.7,6.88,1.91,1.75,1.92,6.28,6.35,4.79a3.4,3.4,0,0,1,.8,1.83c-.26,1.6-1.52,3.71,1,4,1.08.14,2.88-1.61,3.61-2.92,1.88-3.35,3.27-6.88,6.86-9,2.09-1.27,0-4,1.12-5.83.67.26,1.36.75,2,0a.93.93,0,0,0-.19-.85c-.88-.35-1.31.36-1.78.91A2.61,2.61,0,0,0,157.71,212ZM306-180.93c-.35,1.28-2.41,2.69-.58,3.86,1.4.88,3.5.23,4.72-.85,1.75-1.54-.17-3.14-.8-4.43s-2.14-2-3.27-2.9c1.1-1.94,2.79-3.62,2.36-6.19-.23-1.41.09-2.88,1.82-2.9,1.37,0,2.32.82,2.5,2.49.56,5.07,1.23,10.14,2,15.19a20.38,20.38,0,0,0,1.33,3.66c.66,1.83,1.45,4,3.79,3.24,2.14-.72,1.95-2.93,1.42-4.89-.29-1.07-1.08-2.62-.65-3.17,5.59-7.18-1.08-12.19-3.82-17.09-1.82-3.25-6.67-5.14-8.56-9.16-2,1.42-1.14,2.61-1.25,3.66s-.32,2-1.44,2.14c-1.38.23-1.9-.63-2.21-1.91-.62-2.55-.15-6.91-4.67-1.95-1.24,1.36-5.81-.31-8.92-.6-.17,2,2.41,3,1.49,5.29a1.75,1.75,0,0,0,1.84,2.27c8.32-1.82,9.85,5.12,13.08,9.89C305.14-183.87,306.41-182.39,306-180.93Zm67.52-266.46c2.08-1.12,3.83-2.43,3.06-5,1.44-2.12-.07-5.26-.69-5.7-3.28-2.37-.79-3.93.55-6.14-3.22,1.77-5.64.68-7.6-1.36-2.64-2.74,1.36-4.66.85-7.42-2.33,5.08-9.12,6.58-9.77,13-.11,1.16-.6,2.16.57,3a2.45,2.45,0,0,0,3.09-.16,10.35,10.35,0,0,1,3.58-1.49,2.33,2.33,0,0,1,2.93,2c.44,2.21-1.28,1.72-2.52,1.89-2.43.32-4.83.77-7.26,1.1-4.67.62-8,5.82-6.27,10.28a4.41,4.41,0,0,1-.34,4.25c-1.21,2-1,3.9.73,6.18,2.34-3.42,5.3-4.68,9.45-4,3.65.64,6.07-.26,4.14-5.28-1.55-4,2.87-6.94,4.06-10.62.52-1.63,3-.31,4.55.41ZM260.05,290.94c1.62-5-.46-7.28-5.61-6.9-2.28.16-5.08-.16-6.17-2.8-1-2.43-3.21-3-5-4.25-2.3,1.27.13,4.51-2.52,5.21-2.37.62-3.73-1.43-5.51-2.35-2.34-1.21-4.59-2.61-7-3.77-.68-.33-1.49-1.29-2.71-.07,2.27,2.36,5.24,3.9,6,7.91.47,2.35,2.33,3.65-1,4.78-.94.31-.94,1.07-.52,1.79s1.23.67,1.92.21a19.63,19.63,0,0,1,3.32-2.16c2.57-1,5.37-2.06,5.38,2.59,0,.91.25,2.45.74,2.62,4,1.31,7.64,2.46,4.72,8-.37.71,1.49.39,2.32.55,3.5.7,5.88,3.08,8.36,5.45.9.88,2.14,4.14,4.23,1.09,1.48-2.17,3.6-4.79.79-7.1-2.38-1.95-2.64-3.87-1.76-6.41a10.94,10.94,0,0,1,8.72,4.3c-.31-4.19-.83-6.73-4-7.82-3.4-1.17-3.37,2.08-4.67,3.62C258.1,293.92,259.54,292.52,260.05,290.94ZM235.67-636.38c5.53-2,6.8-5.12,4.3-10.61-.27-1.2-2.33-3.52.21-3.27,3.57.35,3.72-2.28,5.4-3.77,4.34-3.85,1.48-5.63-1.93-6.2-4.77-.78-9.56-2.82-14.55,1-2.54,2-7.09,2.51-8-3.27-.39-2.52-2.62-1.79-3-.37-1.22,4.66-5.26,3-8,4.27-3.95,1.84-8.14-.68-12,1.32-2.25,1.16-4,2.83-3.9,5.12.1,4-1.43,3.6-4.13,2.35s-4.82.33-3.19,2.7c2.95,4.29,0,7-1.38,10.25-.64,1.46-3.53,3.26-.82,4.61,2.36,1.18,2-2,2.67-3.26,2.12-3.85,3.72-8.12,9.33-7.54,1.6.16,1.8-.67,1.9-2,.42-5.24,1.22-6.05,4.55-3,4,3.74,5.53.16,8.2-.54-.6-2.12-2-1.58-3-2-1.74-.72-2.44-1.85-1.36-3.52s2.45-1.5,3.65,0c3.71,4.59,8.18,4.8,13,2.08,2.15-1.22,4.89-1,5.71.42,2.55,4.57,6.27,5.18,10.75,4.56C239-643.33,235.6-640.58,235.67-636.38ZM213.7,53c-.78,1-2.11,1.84-1.46,3.4.92,2.19-.07,3.33-2.08,3.6-2.8.37-2.81-1.86-2.94-3.68a36.82,36.82,0,0,1,.2-4.4c-2.21-.71-3.37.65-3.75,2.32a46.33,46.33,0,0,1-4.83,13.19c-.89,1.51-.47,2.51,1,3.19,3.87,1.8,1.2,4.36.9,6.72-.22,1.76-7.51,1.19-1.57,4.84-.46.56-1,1.66-1.37,1.62-6.67-.7-5.14,5.85-7.53,8.8-1.78,2.19,1.12,4.06,3.07,3.87,3.88-.36,6.23,1.55,8.81,3.87,1.28,1.14,2.82,2.6,4.92,2.33,3-.4,4.09.95,4.08,3.85a3.19,3.19,0,0,0,2.82,3.14c2.32.37,2.3-2,2.44-3.11.69-5.47,6.23-8.49,6.91-14-2.48.07-3.49,2.13-5,3.55-1.2-8.86,1.71-13.2,7.88-12-.38.79-1,1.65.1,2.28a1.38,1.38,0,0,0,1.31-.39c.63-1.11-.33-1.53-1.08-2,1.07-1.41.11-2.64-.59-3.62-1.71-2.37-.61-3.74,1.64-3.87,3.44-.21,3.29-3.2,2.53-4.33-2.52-3.71.26-4.83,2.54-5.56,5.57-1.76,4.85-6.23,4.45-10.17-.29-2.86-2.37-2.19-4-.57a57.65,57.65,0,0,0-10.71,15c-1.87-2.25-.59-4.2-1.07-5.84-.25-.85.36-2.35-.71-2.5-6.74-.95-2-4.09-1.84-6.57,1.73.34,1.72,1.36,1.95,2.26s.16,2.08,1.45,2.07c1.09,0,1.52-.84,1.75-1.87.66-2.91.31-6.09,2.2-8.69-2.81-1.24-1.56-3.34-.24-4.18,2.41-1.52,2.67-3.93,3.57-6.1S231,34.81,232,32.6c.3-.65,1.49-1,2.35-1.24A5.67,5.67,0,0,0,239,25.69c-.37-6.09,1.57-11.66,2.55-17.45.25-1.47,2-4.83-1.17-5.21-2.71-.32-3.55,2.73-4.31,5-.26.78,1.43,2.49-.83,2.23-1.7-.18-1.77-1.69-1.16-3.09.14-.34.52-.59.64-.93.83-2.48,3.89-5.72.22-7.26-2.47-1-4.93,2.49-5.71,5-3,9.71-8.37,18.57-10,28.73-.85,5.34-3.71,9.4-7.81,12.71l-.41,0,.39-.12C216.33,46.61,216.57,49.32,213.7,53ZM309,195.55c-1.25-1.34-1.68-2.53-.88-4,1.13-2.06,1.85-3.65.21-6.13-1.42-2.16,2-5.3,7.18-7-1.32-2-5.16-3.87-.64-6.52,1.09-.64-.39-1.78-.93-2.73-2-3.57-4.83-7.06-2.24-11.62.37-.66.22-2.42-.15-2.58-4.2-1.78-5.24-6.38-8.22-9.29-1.83-1.78-5.8-4.23-3-8.3a3.42,3.42,0,0,0-.16-4.64c-1.65-2-2.84-4-.32-6.38,1.5-1.41.39-2.72-.85-3.78-2.08-1.77-4.6-2.42-7.2-3.05s-4.68,1-6.09,2.21.31,3.77,1.62,4.93c4.73,4.19,2,9.94,3.33,14.83.36,1.36-1.37,4.2-2.62,3.86-5.8-1.56-5.57,2.28-6.15,5.89-.29,1.79-2.14,2.19-3.65,1.86-4.67-1-4.4,1.24-2.82,4.19,1.19,2.23-.05,3.53-1.4,4.91-1-.31-1.45-1.88-2.85-1.16,2.71,2-2.38,4.46.14,6.09,2.78,1.8,1-2.64,2.86-2.52,1.55,1.15,2.32,2.39.95,4.27-2.74,3.75-2.95,8.23-3.38,12.61-.2,2,4.33,6.13-2.46,5.16-.73-.11-.54,1.84.2,2.32,6.69,4.41-.81,6.71-1.72,9.72-1.07,3.56-3.18,1.15-5-.33-2.29-1.82-3.16.31-3.05,2a5.64,5.64,0,0,0,2,3.91c6.15,4,7.2,9.06,4.72,15.84-.93,2.54,1,5.67,3.34,8.93-4.59-.81-7.15-3.57-10.84-5.08-.07,2,1.9,3,1.41,4.72-.36,1.29,6.86,8.26,8.14,8.13a1.72,1.72,0,0,0,1.27-.88c.57-2.07,1.3-4.66,3.79-3.87,2.08.65-.09,3.72,1,5.06,2.67,3.38,1,5.9-1,8.55-.82,1.1-1.78,2.26-3.24,1.69s-.5-1.85-.35-2.9c.53-3.67-2.33-4.76-5.31-6.45-.34,4.71-2.63,5.21-6.08,2.85-.9-.62-2-1.39-3-.14a2.19,2.19,0,0,0,.26,3c1.35,1.4.66,3.28.67,4.76,0,7.89-.13,7.88,7.61,8a18,18,0,0,0,13.75-5.27c2.22-2.19.26-5.43,2-6.83,5.47-4.38,4.75-12.22,9.84-16.68,2.36-2.06.21-3.32-1.06-4.46-1.64-1.47-2.79-3.83-.93-4.74,5.73-2.82,5.59-11.62,13.4-12.32,2.9-.27-.3-3.37.27-5,3.66.07,2.25,3.27,4,5,2.14-6.22,11.87-.8,12.81-9h.44l-.43.06C314.68,198.9,311.71,198.48,309,195.55Zm73.15-684c2,.79.66,2.18.05,3.24-1.31,2.29-3,4.34-3.79,7-1.06,3.46-2.16,6.46,1,9.76s1.84,7.27.36,11c-.32.81-1.09,1.84.08,2.47.51.27,1.78.15,2-.23,2.42-3.83,6.95-3.66,10.35-5.59,5.23-3,5.45-5.45.55-8.82-3.84-2.63-3.46-4.27,1.82-7.9-.05-1.25-1.06-1.36-1.94-1.64-3.36-1-7.56-1.53-3.59-6.67a3.2,3.2,0,0,0-.53-4.22c-4.06-2.72-6.92-8.5-14.19-5.44C377.67-493.49,378.72-489.84,382.14-488.48Zm-203,667.86c.68-.3,1.62-.8,2.15-.56,6,2.73,9.16-1,12.55-5,1.54-1.81,3.86-3.86,2.28-5.64a10.74,10.74,0,0,0-7.49-3.38c-2,.07-3.91.5-5.85-.37-.34-.15-1-.39-1.05-.27-3.23,4.22-8,3-12.49,3.82,1.82,1.13,3.69,2.18,5.43,3.4s4.62,1.91,3.43,4.38-3.11-1.1-5.33-.22C173.08,180,175.23,181.12,179.1,179.38ZM289.73-566.41c-.7,2.35.45,3.4,2.6,2.85,4.09-1.05,6.87,1.36,9.8,3.37,1.54,1.05,4,1.85.78,4.33-2.2,1.71.62,3.22,1.53,4.64.8,1.26,1.93,1.46,3.41.64,1.87-1,1.45-1.86.66-3.56a6.77,6.77,0,0,1-.11-5.4c3.2-5.66-2.75-9.34-2.75-14.26,0-1.09-1.82-2.22-3.18-1.69-3.24,1.25-6.22,3.3-10,2.45-.25-.06-.71.79-1,1.09C290.88-570,290.27-568.21,289.73-566.41ZM200.64-46.19c-.11-1.52-.45-2.52-1.82-3.12-3.28-1.43-7.11,2.48-10.37-1-.24-.25-1.34,2.23-1.26,3.8.35,6.35-.69,12.73.58,19C197.24-31.3,201.29-37.24,200.64-46.19Zm-2.32-11.4c4.54-6.22,1.05-12.54,1.34-18.78,0-.74-.42-1.65-.12-2.2s1.28-1.07,2-1.59c-.25-.23-.45-.56-.74-.67-1-.41-2.21-1.19-3.16-1-1.62.34-1.49,2-1.32,3.29.62,4.7-2.58,8.11-4,12.11-1,2.65-2.15,5.22-3.09,7.87a3.72,3.72,0,0,0,.75,4C192.92-52.56,196.25-54.75,198.32-57.59ZM442.16-273.81c2.4,2.92,3,6.7,3.11,10,.08,3.55,1.65,5.91,3.31,8.49.79,1.23,1.64,2.83,3.54,1.82a3.38,3.38,0,0,0,1.56-4.83c-3.14-6.13-4.81-12.94-8.64-18.75-.9-1.37-1.83-3.28-3.56-1.07C440.43-276.33,441.2-275,442.16-273.81Zm-148.6-336c-3.09-.21-7.82,5.53-6.75,7.88,2.67,5.86,8.15,4.55,14.36,4.68C297.44-601.74,301.4-609.33,293.56-609.86Zm-11.7,174.15c2.75,1.33,6.11-.27,7.8-2.53,2.28-3.07.54-6.77-.2-10.17-3.53,1.42-7.89,1.64-9.36,6.79C275-438.61,279.94-436.64,281.86-435.71Zm72-41.68c-3.75-3.55-7,.53-10.52.05-1.17-.16-.28,3.35.25,5s1.72.95,2.57-.14c2.11-2.72,4.06-2,6.06.22,2.8,3.15,6.89,2,10.05,1.85,3.32-.18,0-4.56,2.13-6.46C360.61-474.69,356.74-474.7,353.9-477.39ZM347.23,61.28c2.35-.27,5-1.7,4.72-4.59-.34-3.08-3.2-3.37-5.73-3.09-1.84.2-3.62.91-5.45,1.26-1.42.28-3.48-.06-3.62,1.77-.12,1.59,1.87,2.08,3.14,2.82A9.38,9.38,0,0,0,347.23,61.28ZM340-141.65c1.65.4,2.86.9,3.72-.87.95-1.93,0-3.22-1.59-4.23a15,15,0,0,0-6.42-1.83c-.92-.12-1.87,0-2.79-.09-2.2-.21-4.42-4.4-6.05-1.47-1.29,2.33,3.4,2.59,4.64,4.79A35.57,35.57,0,0,0,340-141.65ZM328.39,182.86c-3.95,1.67-2.29,5.44-2.66,8.38-.12,1,1.81,1.48,1.71,1-1.09-5.22,4.28-4.65,6.29-6.15,3.45-2.58,2.2-3.55.19-5.47-.91-.86-1.73-1.81-3-3.18C330.77,180,330.69,181.89,328.39,182.86Zm109-543.59c-3.24,4.08-2.86,12.62,1.06,18.38C441.7-349.21,441-355,437.37-360.73ZM375.59-208.3c-7.5-2.9-15.27-1-22.92-1.12A44.06,44.06,0,0,0,375.59-208.3Zm-166-23.81c-.38-3.22-4.87-3.73-7.1-2.77-4.69,2,1.32,5.72-2.08,9.68C204.91-227.83,210.17-227.18,209.58-232.11Zm205.66,88.45a25.51,25.51,0,0,1-9.28,8.23c-.71.36-1.29.9-.88,1.75s1.35,1.1,2.37,1c2.35-.36,4.74-1.58,5.61-3.34,1.89-3.82,4.91-6.15,8.46-8.43C419-145.59,416.75-145.76,415.24-143.66ZM192.74-17.29c1.36,1.33,3-.4,3.18-1.84.26-2.93,4.47-5.68,1.23-8.53-1.9-1.67-4.09.4-5.57,2C190.52-22.56,190.51-19.48,192.74-17.29ZM320.65,218.12c-.74,2.64,2.18,2.9,1.19,4.65-.66,1.16-3.77,1.92-1.11,3.6a4.58,4.58,0,0,0,5.68-.41c1.34-1.16,3.49-1.36,4.34-4C327.2,221,323.21,222.27,320.65,218.12Zm-35.72,39.49c-.68,1.09-3.16,1.5-1.7,3.49a3.78,3.78,0,0,0,3.48,1.54c1.93-.23,2.8-1.78,3.45-3.38.83-2.06-1.44-3.86-.36-6.28C286.92,253.91,286,255.88,284.93,257.61Zm30.62-219.1c-1.83-7.34-5.41-8.94-12.43-5.49C307.85,33.36,311.41,36.27,315.55,38.51ZM265.7-599.58c-.09-.92.34-1.89-.79-2.32a3.48,3.48,0,0,0-1.52.08c.12,4.35-7.78,5.81-4,11.39C261.79-593.19,266.2-594.57,265.7-599.58Zm11.86,66.05c.37.74-.11,2.16,1.24,2a1.43,1.43,0,0,0,1.1-2.15c-1.89-4.31,4.88-4.65,3.59-9.47C280.62-540.14,274.4-539.88,277.56-533.53ZM187,140a2.3,2.3,0,0,0,1-3.4c-1.79-2.23-1.49,1.27-2.62,1.16-4.08-.38-4.52,3.91-7,5.69C181.92,143.62,184.33,141.43,187,140Zm127.48,82.76c1.17.9,2.88.48,3-1.13.15-2.15,2.08-4.66-.13-6.42a2.74,2.74,0,0,0-4.42,1.3C312.71,218.52,312.28,221.05,314.51,222.75ZM225.26-7.55c0-1.37-.11-3.32-1.55-3.12-3.67.51-2.34,4.53-5,7.18C223-3.45,225.31-3.85,225.26-7.55Zm-19,147.3a1.32,1.32,0,0,0,.46,2.29c1,.35,1.73-.32,2.09-1.33,1-2.8,2-5.59,3.51-9.67C208.68,133.94,208.8,137.66,206.28,139.75Zm20.33-762.7c-.59,1.15-2.73,2.54-.78,3.75,1.44.89,2.68-.88,3.58-2.08,1.26-1.68,2.23-3.46.49-6.43A46.67,46.67,0,0,0,226.61-622.95Zm-10,881.55c.37-2.24,2.49-4.46.22-6.7a2.22,2.22,0,0,0-1.9.62c-.85,2.51-2.59,5.2.78,7.43C216.08,259.49,216.59,259.08,216.66,258.6ZM346.09,26.05c-1.29,1-.58,2.3.66,2.39,1.63.1,3.69,2.15,4.93-.43a3.76,3.76,0,0,0-.91-4.19C348.48,23,347.44,25,346.09,26.05ZM203.49-103a1.88,1.88,0,0,0-1.44.24c-.78.72-.93,2-.11,2.46,2.29,1.25,2.07,3.82,3.22,6C208.62-98.33,204.73-100.41,203.49-103Zm72.77,216.39c-4.84-1.16-4.84-1.16-4.46,6.45C273.39,116.67,274.26,114.71,276.26,113.38Zm.56-723.84c1,.78,2-.29,2.52-1.36s2-2.22.58-3.42c-1.14-1-2.49-.44-3.55.63C275.77-613.15,275.6-611.44,276.82-610.46Zm-18.62-5.19c-1-.79-1.79-3.24-3.36-1-1.1,1.58.73,2.29,1.86,2.75,1.84.75,3.31,2.54,6.4,2.08ZM211.51,10.08c-.65,1.2-1.28,2.76.35,3.42,2.59,1,3.28-2,4.92-3,1.23-.77.48-2-.8-2.68C213.81,7.05,212.5,8.28,211.51,10.08ZM262.19-27a1.23,1.23,0,0,0,2.24-.15c1.21-2.65-1.83-3.21-2.68-4.87-.38-.74-1.47-1.1-2.41,0C259.2-29.81,261.25-28.68,262.19-27ZM162-40.7c-3.63.12-4.57,2.15-4.08,5.2C159.24-37.15,160.53-38.8,162-40.7ZM285.37-545.78a1.52,1.52,0,0,0-1.05-2.2,2.36,2.36,0,0,0-2,.39c-.89.91-.18,1.64.7,2.17S284.85-544.72,285.37-545.78ZM183,79c-.06.16.73.94,1,.87a2.57,2.57,0,0,0,1.92-2.78A2.53,2.53,0,0,0,183,79Z" fill="#9bb0aa"/>
        <path d="M397.38-349.77c-.79,1-1.37,2.39-3.07,2-4.68-1.11-9.63-.68-14.09-3.15-4.78-2.66-9.51-.72-9.24,4a31.08,31.08,0,0,0,2.54,11.74c5.69,11.93,13.29,22.68,20.56,33.65,2.67,4,7,5.31,11.1,2.77,3-1.9,6-.92,5.58,2.42-.77,6,2.81,5.05,6.17,5,1.22,0,2.61-1.07,3.57,1.43-6.8,4-14.37,6.36-21.8,8.94-6.48,2.25-12.65-.71-19-1.24-4.35-.36-6.58-2.26-7.61-6.14-.36-1.34.26-3-2.38-2.74-2.2.23-2.6,1.1-3.06,3s.65,4.25-1.89,5.56c-6.5,3.35-16.43-1-18.9-8.23-1.33-3.88-7.35-7.6-7.92-6.93-3.92,4.58-5.45-.3-7.92-1.21-1.43-.52-2.12.67-2.3,1.81-.27,1.6-1.18,4.31.7,4.53,5.41.62,4.25,4.76,4.53,7.76.49,5.06,2.46,8.15,7.85,8.58,2.94.23,5.7,1.55,8.85.68,1.41-.39,4.4-.43,2.7,2.92a2.2,2.2,0,0,0,.75,3c4.55,3.13,7.44,9.16,14.29,8.29a2.33,2.33,0,0,1,2.46,1.06c.65,1.19-.55,1.6-1.28,2.09-4.17,2.79-8.33,5.59-12.56,8.27-.74.47-2.26.87-2.68.49-4.35-4-11.81-4.48-14.47-8.83-2.45-4-2.87-9.2-7.15-12.84-2.08-1.77-12.87-6.05-13.65-3.51-1.63,5.33-6.3,9.5-5.5,15.85.35,2.84,3.1,6.08-.06,8.94-3.7,3.35-.31,4,1.9,4.56,1.76.4,3.93-.73,5.57-.17,7.23,2.47,13.67,2.12,19.14-4.26a16,16,0,0,1-2.66,5.24c-2.33,2.94-.3,5.59.77,7.93,1.34,2.94,4,.74,6.07.43,1.64-.26,3.16-1.23,4.77-1.75,1.06-.35,3-.63,2.95.52-.29,6.24,5.52,7.59,8.57,11.08,1.63,1.89,1.63,2.93-.64,3.68-4.89,1.61-9,5.6-14.85,4.43-1.6-.33-4.11.42-4.46,2.7-.43,2.78,2.16,2.42,3.83,3.08,2.23.88,5.38-.22,7.09,3.5-8.35-1-16-3.75-25-3.5,2.91,3,7.33,5.28,1.21,8-1.5.67-.42,2.71-.47,3-9.34-5.79-19.31-11.31-28.55-17.85C284-229,270.15-238.61,253.35-242.72c-1.67-.41-4.07-.28-3.78-3.17.41-11.49-1.58-22.63-3.57-33.93-1.2-6.79-1.61-13.93-2.84-20.88-.46-2.65-1.29-3.29-3.94-2.47-6.91,2.13-13.64,4.71-20.39,7.28-13.32,5.06-26.79,9.69-40.22,14.47-1.87.67-4.27,1.08-4.48,3.33-.23,2.52,2.51,3,4.16,4.07,6.84,4.41,13.75,8.7,20.63,13-1,1.53-3.11-.56-4,1.23-5.88-3.88-12.8-4.16-19.39-5.54-2.54-.7-5.13-1.26-7.61-2.12-8.28-2.89-16.88,1.14-25.18-1.26a1.75,1.75,0,0,0-2.34,1.75c-.38,4.54-4.54,5.21-7.42,7-2.27,1.43-3.72.68-2.91-2.32.63-2.37,1.18-4.77,1.93-7.11.87-2.69-1.28-3.34-2.84-4.12-1.74-.85-3-3.56-5.3-2.25-1.82,1-1.67,3.15-1.27,5.14.72,3.63,0,6.83-3.31,9.5-1-2.3.6-5.53-2.33-6.12-2.74-.54-2.49,2.9-4,4.06-2.9,2.23-3.66,6.08-7.1,8.12-2.44,1.45-3.84,4.72-4.15,8.54,4.23-2.73,7.54-5,10.34,1.21,1.7,3.76,6.23,3.48,8.71.11,1.62-2.21,2.93-4.64,4.37-7,1.21,8.21-.52,15.66-2.15,23.15-1.07,4.92,1.42,8.82,4.75,12,3.8,3.6,4.06-2.76,8.46-3.5-5.8,6.19,1.77,7.55,1.88,11.7,1.3-1.22,1.79-3,2.92-3.64,3.21-1.73,7.19-3.75,10.31-1.38,2.65,2-.86,4.46-1.82,6.63-1.58,3.59-4.7,6.68-4.54,10.81.28,7.43.86,14.86,1.66,22.25.58,5.36-1.57,11.44,4.08,15.65,1.6,1.2.28,3.15-.59,4.64-.78,1.33-2.48,2.38-1.47,4.41,2.38.05,3.79-4.7,6.16-1.75,1.54,1.92,1.5,4.88-1.33,6.87-1.38,1-1.15,2.4.07,3.91,4.92,6.05,3.53,11.83-3.55,15.89a2.72,2.72,0,0,0-1.25,1.73c-.76,6.65-3.9,12.41-6.87,18.25.5-.36.66-.9,1-1.29,2-2.4,2.61-8.08,6.72-6,4.31,2.18.52,5.92-1.17,8.55-1.86,2.89.2,3.64,2,4.68,1.59.92,3.19-1.35,4.85-.05-.39,1.71-.79,3.91-2.4,4.27-3.22.72-3.91,2.55-4,5.44-.06,1.61-3.06,3.28-.52,4.81,2.16,1.31,1.82-2.84,3.86-2.69,3,4.71,3,4.71.5,10.16-.55,1.2-1.09,2.4-1.66,3.59s-1.14,2.16.15,3c1,.61,1.81-.08,2.43-.83a7.41,7.41,0,0,1,6.79-2.86c.2,3.3-1.08,5-4.08,6.15-3.61,1.34-4.91,4.42-3.93,8.12,1.76,6.73.94,13.71,2.1,20.57.64,3.8-.58,8.83-1.72,13.15-.51,2-.08,3.29,1.61,3.43,5,.42,2.85,3.28,1.92,5.45-1.29,3-2.74,6.77-1.25,9.07,1.72,2.64,1.05,4.51.94,7-.16,3.73-3.16,5.86-4.54,9.58,1.63-.46,3.45-1.77,3.95-.36,1.26,3.54-3.83,4.15-3.69,7.12,1.1-1.85,2.45-1.44,4.59-.85,2.58.71,5.27,1.16,4.68-4.23-.41-3.68-4.87-4.78-3.55-8.57,3.23-9.3,2.62-19.29,5-28.77.49-1.9,2.51-2.73,2.24-4.94-.8-6.67,3.84-12.68,2.51-19.53-.25-1.24,1.36-2.53,2.56-3.57,2.23-1.93,3.28-5.18,1.35-7-4.57-4.28-2.29-10.08-3.61-14.92-1.51-5.53.2-12.72,1.6-18.53,1.79-7.44,0-14.54,1-21.8.83-5.89,2.94-12.37,8.31-15.13,1.6,4.17-1.36,7.5-3.15,11.85l4.7-2.55c-.77,5.74,3.17,11.82-2.71,16.31-.61.48-.2,1.29.12,2,1.64,3.74.27,7.72.82,11.57h-.9c.44,1,.63.26.87-.14,5,3.93,2.07,9.93,2.54,14.47.63,6.13,0,12,4,17.33,1.36,1.82-2.78,11.28-5,12-1.54.48-3.38,1.38-4.25-1.1-.45-1.28-1-2.81-2.61-2.46-2.24.5-2.22,3.62-1.78,4.18,3.91,4.82-4.36,11.57,2.59,15.73.1.06,0,.78-.23,1-2,2.4-2.54,4.46-.58,7.56,3.58,5.68-4.35,12.76,1.69,18.56.23.22-1,1.88-1.42,2.91s-1.62,1.92.72,3c.42-2.33,2.13-3.79,3.66-5.31,3.16-3.11,9.69-3,10.2.22.64,4,.59,8.66-.85,12.39-1.62,4.23-5.22,7.73-1.3,12.38,1.15-1.63,2.39-3.42,3.69-5.17.85-1.14,1.52-3.15,3.41-1.78,1.42,1,1.74,2.77,1.38,4.6-.29,1.47-2.94,1.35-2.21,3.42,4.31-.41,4.21-.45,5.5-3.81s1.55-7.43,6.28-8c1.23,3.42-2.48,5.87-1.67,8.28,1.29,3.77-.26,5.55-2.73,7.66a2,2,0,0,0,.45,3.35c1.49.72,2.47-.44,3.22-1.58,1.68-2.52,1.68-5.82,3.78-8.15.65-.73,1.25-1.51,2.34-.94a1.58,1.58,0,0,1,.73,2.37c-2,3.4-1,7.39-3.15,11.11-4.09,7.23-5.35,15.66-6.34,23.94-.14,1.18-.1,2.29-1.39,2.79-4.08,1.6-5,5.24-6.15,8.93a16.17,16.17,0,0,1-3.14,5.3,3,3,0,0,1-3.67.72c-1.63-.92-.66-2.24-.17-3.45.78-1.93,1.53-3.87,2.19-5.84a1.29,1.29,0,0,0-.89-1.78c-.84-.23-1.93.29-1.76.88,1.28,4.49-5.73,6.94-2.82,11.84a1.14,1.14,0,0,1-1.5,1.57c-2.72-1.22-4-5.15-7.9-4.23,2.1-3.18-1.38-7.61,1.72-10.18,6.94-5.78,3.38-13.66,4.72-20.53.18-.93.17-2-1.09-2.21s-1.48.9-1.51,1.88c-.28,8.62-5.06,16.14-6.06,24.61-.34,2.83-2,7.18-4.07,6.83-5.38-.91-3.66,2.31-4.33,4.87s-1.54,4.67.69,6.73c2.63,2.41,4-.22,5.65-1.45a1.75,1.75,0,0,1,2.83.61c.41.72.19,1.83-.53,1.92-6.93.86-4.18,8.5-8.45,11.54,2.49-.76,4.09-1.44,6.5.61,2.12,1.82,6.06,2.31,9,2,1.51-.16.73-3.65.76-5.67a2.41,2.41,0,0,1,.9-1.89c1-.43,1.47.58,2.12,1.3,1.65,1.84.21,4.58,2,6.27,7.12,6.72,5.64,15.17,4.7,23.47-.17,1.55-.35,3.74-2.86,3.35-2-.33-3.13-2.16-2.33-3.8,2.46-5.08-2.1-10.33.73-15.37,1-1.79-.33-3.37-1.9-4.21-2.13-1.15-2.32,1.15-3.23,2.13l-1.31-.21.75,1.1a2.61,2.61,0,0,0-1,2.45.71.71,0,0,0,.53,0c1.06-.67.69-1.57.34-2.45.22-.34.43-.68.64-1,3.06,2,1.55,4.25.24,6.32-1.71,2.68-3.42-.14-4.77-.54-4.44-1.33,2.15-3.31-.58-5.34-3,1.88-5.33.17-7.16-2.72-.7-1.1-1.56-1.73-2.74-1a1.78,1.78,0,0,0-.65,2.49c2.26,2.59,1.77,7.13,6,8.3,2.95.81,2.21,7.3,7.38,4.87a4.58,4.58,0,0,1,.57.9c1.21,2.31-.92,17.4-2.71,19.4-1.36,1.51-3.17,1.9-5.05,2.29-2.34.48-4.95.53-6.29,3.09l-.26.06c-7.85-4.63-16-1.66-23.92-.48a42.85,42.85,0,0,0-7.23,1.28c-7.52,2.44-12.18,8.58-18.62,12.21-1.26.71-2.24,2.52-3.87,1.63-2-1.08,1.09-2.82-.16-4.54-14,7.47-29.28,9.67-44.6,12.59a63.89,63.89,0,0,0,1.9,13.83c-6.67-3.4-12.82-4.92-18.94-6.56-2.23-.59-3.11-2-3.75-4.35-1.19-4.21-7.37-7.3-10.3-4.79-3.55,3.05-6.23,1.31-9.3.24s-6.32-2.56-9.56-3.62c-7.34-2.4-8-1.74-6.53,5.67L.56,161.05c.13-2,2.16-4.9.59-5.51-1.74-.68-4.43,1.05-6.7,1.73-8.55-5.24-17.12-10.45-25.66-15.71Q-48.64,130.82-66,120c-1.25-.79-4.81-1.71-2.13-3.76,3.81-2.92,5.09-7.62,9.16-10.43a104.64,104.64,0,0,0,16.83-13.9c3.47-3.66,7.92-7.39,13.62-8,6.42-.7,8.46-5.35,9.65-10.66.55-2.44.91-5.06,3.4-6.12,6.37-2.72,12.34-7.29,20.1-3.88,1.69.74,4.24-.34,6.52-1.19,4-1.49,4.69-5,6.69-7.51C23.57,47.22,30.74,40.7,32,30.65c.2-1.58,1.63-2.73,2.94-3.94,8-7.39,13.05-16,11-27.57-.75-4.17.23-8.46.89-12.71a74,74,0,0,0-1.11-27.6c-5-22.08-14.59-42.77-20.34-64.74-3.62-13.84-9.27-27.22-12.08-41.35-2-10.24-5.25-20.25-6-30.72-.63-8.36-2.22-16.43-.26-25.25,1.24-5.59-2.14-12.85-4.67-19.12C.45-226.84-1.35-231.4,0-237c.71-3,1.51-7.75-.39-10.35-3.63-5-7.23-10.54-12.68-13.61s-7.63-6.85-7.1-12.61a23.29,23.29,0,0,0-.77-6.63c-1.5-8-2-15.83,3.57-22.76.9-1.12,1-2.83,1.85-4.06,6.18-9.38,8.15-21,15.65-29.63a67.56,67.56,0,0,0,6.32-8.69,9.69,9.69,0,0,1-1.11,9.39,35.38,35.38,0,0,0-5.57,11c7.82-2.41,7.7-12,15.32-13.81A26.61,26.61,0,0,1,9.34-323c-1.26,1.6-2.88,3.68-.19,4.34,1.85.45,4.63,4,6.69-.19.7-1.39,1-4.09,3.11-3.28s.05,3,.14,4.51c.2,3.69-1.54,5.87-4.15,8.55-5,5.15-10.17,10.45-12.59,17.63-.9,2.66-.7,4.42,2.32,3.79,2.1-.44,3,.11,3.27,1.79,1.33,7,5.59,13.19,5.56,20.55,0,4.62,2.09,8.28,5.35,11.36,1.07,1,2,2.15,3.9,1.58,6.54-1.94,10.69,1.64,14.19,6.47.65.9,1.14,2.33,2.42,1.54,1.07-.67.46-2,.11-3.11-1.38-4.35-3.95-8.15-6.57-11.68-5.24-7-5.84-15.39-5.94-23.24-.08-5.78,3.31-11.76,5.85-17.33.84-1.84,2.75-2.49,6.47-1.6,6.94,1.68,4.44,5.49,4.61,9,.56,10.94,8.67,18.66,19.29,22.1,5.63,1.82,11.55,1.36,16.83,3.87-.89-6-.43-6.37,6-4.77,1.56.39,2.57-.53,3.5-1.4,1.58-1.47,1.81-3.66,2.66-5.52,2.08-4.52,2.84-6.85-2.81-10.65a107.32,107.32,0,0,0-14.68-8.82c-3.56-1.66-4.91,1.07-7.26.48-.4,2.91,4.46,2.68,2.57,5.88-.74,1.25-1.78,1.13-2.94,1.06-4.07-.24-1.84-3.5-2.3-5.23-1.67-6.31,2.22-12.39,1.25-18.83-.17-1.06,2.53-1.78,3.87-1.5,3,.62-1.3,2.87,1,4.12,2-2.75,2.85-7.36,8.07-5.81.17.06,2.19-3.6,2.06-5.44-.69-9.95-1.93-19.8-8.48-28.05-2.35-3-5.49-4.56-8.76-6.08,8.9-2.37,17.7-5.46,26.76-6.83,5.41-.81,5.75-2.76,5.56-7.24-.52-11.69-1.53-23.5.45-35.06A376.88,376.88,0,0,0,101.68-464a45.05,45.05,0,0,1,26.17-40.52c4.08-1.94,8.31-3.4,12.44-5,8.88-3.41,16.73-8.92,26-11.62,7.92-2.32,8.7-6.36,4-13.61a10.66,10.66,0,0,1-1.11-3.14c-2.22-8.62-2.29-17.4.69-25.67,1.53-4.29.81-6-2.78-8-6.55-3.76-6.54-4.73-4.12-12,1.55-4.62,3-10.17.08-14a45.78,45.78,0,0,0-7.65-8c-2.81-2.22-3.17-4.45-.88-7.5,7-9.31,13.76-18.8,20.61-28.22,1.46.44,2.57.4,2.22-1.63l1.76-2.61c2.71,1.25-.62,3.42.73,4.92,1.52.76,3.53-3.22,4.48.15.5,1.82-1,3.62-3.23,3.86-1.63.17-3.22.6-3.64,2.2-1,4-4,6.82-6,10.24-3.1,5.36-1.5,9,4.69,9.49,4.86.36,10.15-3,14.44,2.07.31.36,2.46-.16,3.09-.86,1.91-2.15,3-1.12,4.48.48a22.42,22.42,0,0,0,4.53,3.39c2.09,1.31,3.92,1,3.85-1.8-.13-5.59,5.22-9.18,5.08-14.81,0-1.62,1.8-2.15,3.55-1.86a3.51,3.51,0,0,1,3.14,4c-.27,1.48.23,4.53-2.16,4.48-5.62-.12-3.21,4.52-2.69,5.68,2.69,6,4.48,13.09,13,13.87,1.65.15,3.59,2.67,4.58-.36.62-1.91.3-4.78-2.33-5-2.9-.2-1.46-1.33-.85-2.2,1.72-2.41,3.83-.49,5.69-.22,1.56.24,2.94,1.5,2.15,3.3-2.41,5.47,1.68,8.75,4.08,12.57.56.89,2,1.14,2.17,2.46.58,5.16,4.38,5.48,8.29,5.34.92,0,1.84-.51,2.6.21,4.78,4.54,7.92,3,9.88-3.21,1.25,4.36,3.26,5.41,6.74,3.06a38.48,38.48,0,0,1,6-3.2c4.57-2,10.36,0,11,4.43s1.61,9,0,14.2c-2.34-2.89-2-6.54-4.85-8.2-.79-.46-1.62-1.25-2.55-.57s-.67,1.57,0,2.46c3.48,4.85,1.44,9.68-.11,14.46,1.48,1.85,3.54-1.56,5,.53-3.19,6.06-3.21,6.09-8.82,3.27-1.93-1-3.78-2.12-5.28.58-.55,1,1.56,9.15,2.61,9.49,4.62,1.46,2.27,4.14,1.28,6.65-1.33,3.38-4.4,3.23-5.77,1.28-3.14-4.46-8.78-6.32-11.13-11.38-.51-1.08-1.08-2.16-2.4-2-1.61.19-1.38,1.63-1.29,2.68.29,3.32-.21,6.87,2.76,9.44a3.85,3.85,0,0,1,.33,6c-3.11,3.32-2.65,8.18-5.45,11.66-.84,1.06-.33,4.57.85,4.28,7.4-1.87,10.54,6.54,17.22,6.65,2.41,0,5,.94,7.68.9s4.07,4.1,5.94,3.33c3.69-1.52-2.58-3.9-.1-6.62,2.11-2.3-.27-2.06-1.78-1.87-2.33.3-5.85.24-5.34-2.3.77-3.8-1.57-9.64,5-11,1-.21,1.47-1,1.91-1.91.71-1.4-.16-5,2.77-3.49,2.36,1.2,6.5,3.36,5.44,6.26-2,5.46.56,8.24,4,11.34,1.27,1.14,1.1,4.85,3.1,4,4.39-1.89,6,1.77,8.8,3.17,3.32,1.69,6.58,3.37,10.52,3.36,2,0,4.32.84,5.24,2.79,4.08,8.68-2.6,20.65-11.95,21.84-1.84.24-3.58,1.15-5.41,1.55-5.67,1.25-9.79,5.5-14.82,7.75-14.13,6.33-27.29,13.24-34.62,28.09-3,6.1-7.09,11.38-1.26,17.82,1.73-.71,1.58-2.71,2.46-4.08.68-1.07,2.34-2.67,3.07-1.7,2.09,2.81,6.47.46,8.12,4.16.64,1.44,2.76.9,2.94-.69.46-4.1,4.4-3.76,6.41-6.35,1.24,4-4.3,5.08-2.7,7.78,1.36,2.28,5.25,2,6.8,4.78,1.9-1.68,1.34-3.54,1.71-5.13.28-1.21.89-2.16,2.24-2.14a2,2,0,0,1,2,2.31c-.11,2,1.19,4.24-1,5.79-2.7,1.9-2.68,4.85-3,7.65-.2,2-1.46,4.34,1,5.65a5.76,5.76,0,0,0,6.79-1.33c3.46-3.42,8.26-2.69,12.18-4.56.87-.41,2.33-.78,3.15.31s-.31,2.07-.75,3c-.79,1.82-2.72,3.15-2.35,6.2,3.43-3.77,6.65-.93,9.77-.13,2.95.75,4,.5,4.38-2.81.67-6.42,1.73-12.84,6.9-17.55.6-.55,1.68-2.05,1.81-1.37,1.14,6.19,4.09-1.86,5.63,1-2.09,3.81-4.24,7.89,2.52,9.55v0c-.77,2-2.84,4-.5,6.14,3.84,3.46,4.47,7.09,2,11.67-2.3,4.2-5.65,7.54-8.94,10.88-1.59,1.61-1.55,2.78-.42,4.36,1.49,2.06,2.13.38,3.44-.43,2.92-1.81,6.21-2.57,9.48-.42a13.66,13.66,0,0,0,5.7,2.42c4.39.62,5.74,4.34,5.68,7.59-.09,4.33,2.48,5.73,5.43,6.79,1.84.66,3.48-1.21,5-2.29,1.86-1.35,1.13-2.47-.65-3.29a2.38,2.38,0,0,1,.43-1.39c.89-.82,1.71-.32,2.44.4,3,3,5.23,1.67,7.76-1,4.68-5,8.5-10.89,16.37-12.24,3.05-.53,4.09.63,5.57,2,2,1.94-.2,2.78-1.24,4-2.26,2.61-4.41,5.32-6.58,8-2.14-.48-.83-4.44-4.77-3.53-5.13,1.19-7.06,4.21-8.49,9.47,2.45-1.26,3.79-1.12,6,.14,5,2.91,4.19,8.27,6.55,12.18.9,1.5,1,3.29,3.05,2.78,1.77-.44,2.58-2.07,2.16-4-.34-1.64-2.17-4.11,1.32-4.1,2.69,0,2.85,2.14,2.61,4.58-.27,2.81.23,5.67,4.19,5.64Zm-163.66-84.6-.41-1c-1.48-4.16-4.13-7.51-7-10.73-2.6.65,1.37,5-2.91,4.49-.66-.07.18,2.27.39,2.13,5.4-3.64,6.48,2.7,9.65,4.08Zm-15.06-69.45c-.67-1.81-2.31-2.46-3.91-2.94-.77-.23-2.72-.59-1.74,1.4,1.83,3.74-1.92,2.27-2.92,3-1.71,1.19-2.51-.46-3.1-2-.73-1.94-1.27-4.2-2.63-5.59-1.64-1.68-3-4.78-6.85-1.89-1.79,1.34-5.94,0-8.81-.8-1.67-.48-1.65-2.27,0-3.53,1.26-.93,3.11.16,4.79-2.23-2.71-.51-4.21-2.7-7.51-.7-3,1.85-6.55-.38-9.39-1.5s-2.56-.9-2.6,1.76c0,2,2.52,6.15-3.57,5.54-1.54-.15-3.66,5.52-5.78,8.93.53-4.07-2.1-3.21-4-2.54-2.6.91-5.86,2.23-5.46,5.44.29,2.32-1.35,7.42,5.15,5.71,2.92-.77,2.64,2.76,1.62,5-2.55,5.65-1.58,6.83,4.61,8.09,2.25.46,9.11-1.18,5,5.75-.59,1,1.23,1.62,2.14,2.2,3.3,2.1,6.81,3.94,9.82,6.39,1.61,1.31,3,1.62,4.6.95,7.46-3.15,13,1.89,19.16,4.36,1.81.74.37,2.23-.24,3.32l-.42-.05.39-.05c3.56,3.67,7.93,1.16,11.63.89,5.82-.42,11.41-1,17.05,1,1.88.65,2-1.07,2.28-2.35,1.13-5.05-2.21-12.29-7.11-13.87-6.44-2.09-12.1-6.95-19.5-5.78l-7.64.13a1.81,1.81,0,0,0-2.66-.52l-1.78-1.11c-5.22-2.78-9.47-6.42-11.88-12.07-1.43-3.35-.71-6.68,1.8-8.07,2.33-1.29,5.17-.32,7.35,2.93,3,4.43,7.34,8,13.52,7.25,1.7-.2,3.71-.54,4.7,1.05,4.2,6.74,10.79,10.75,17.54,13.87,6,2.79,6.77,9.57,11.85,12.79,3.11,2,5.19,5.31,8.68,7,1.88.89,3.6,2.55,5.44.23,1.68-2.11,2-5.56.44-6.73-7.34-5.63-12.08-13.66-18.92-19.69-3.14-3.84-8.5-5-11.31-9.23,4.9-2.27.65-5.55.92-8.33-3.16-.2-4.93-5-8.85-2.69ZM33.71,102.87c-.85-1-2.85.09-3.77,1.47-1.09,1.63-.17,2.46,1.11,3.66,5,4.63,10.33,4.23,16.08-1.74-1.86-1.22-3.44-.6-5,.35l.11,0C40,104,36.07,105.57,33.71,102.87Zm215.93-674c-3.11,1.51-5.06-1.37-8-4,.59,4.55-1.5,7.83,0,11.41a2.61,2.61,0,0,1,.12,2.07c-4.39,6.19,2.73,6.52,4.93,8.33,2.4,2,5.2-.94,5.44-3.67.34-4,2.79-6.91,4.13-10.36a8.81,8.81,0,0,0,1.69,3.93c1.52,1.74,3.14,5,5.22,3.24,3-2.46-.95-4.88-1.94-7.16-1.3-3-3.35-2.3-5,.12C256.26-573.21,255.1-573.76,249.64-571.11ZM134.73-461.5c-2,2-.76,5.3.87,6.66,2.85,2.4,1,3.89.32,6.2-.93,3-5.5,6.86,1.08,9.39,1.07.41.73,2.94-.4,4.06-1.3,1.3-1.28,3.74-1.9,4.24-5.54,4.44,0,12.67-6,16.71a1.75,1.75,0,0,0-.49.9c5.8,4.48-.76,8-1.17,12-.47,4.53.47,9-.47,13.49-.49,2.35-1.51,4.45,2.13,5.81,2.75,1,1.22,5,3,8.64,2.49-5,6.69-7.85,6.06-13.31a1.67,1.67,0,0,1,.75-1.36c7.47-1.62.16-6.66,2.18-9.54.15-.2-.26-1.24-1-.7-4.57,3.16-3.31-1.15-3.57-2.94s-.81-4.82,1.43-4.52c1.85.25,6.38-1.28,5.6,4,5.4-6.29,4.95-7.86,1.34-17.54-1.22-3.28.13-7.73-1.73-11.4,5.76.16,2.29-6.32,5.66-7.88.92,11.72,4.52,23,5.34,34.76.08,1.19-.65,3.31,2.14,3.84s2.84-1.35,3.6-2.58c2.77-4.46,5.39-9,10.13-11.76,3.94-2.27,4.71-6.35,6.26-10.12,4-9.75,8.33-19.39,12.54-29.06.44-1,1.48-2.09,0-2.85-1.9-1-3.39-3.55-5.81-2.54-8,3.3-16,2.12-24.14,1-8.53-1.21-11.42,1.5-11.24,10a5.31,5.31,0,0,1-.49,1.61c-4.16-2.36-3.29-6.53-2.36-9.64,1.8-6-2.28-8.56-5.16-12.83-1.78,3.95.52,6.35.82,9h.1C138.09-459.88,136.74-463.52,134.73-461.5Zm67.33,106.62c1.32,2.3-.74,3.76-1.56,5.55-.34.77-.36,1.57.46,1.94,1.38.63,1.64-.42,1.61-1.41,0-1.33-.28-2.67.74-3.77,1.55-1.66,3.58-2.71,5.5-1.22s2.14,3.69,0,5.31c-1.89,1.43-3,3.25-4.42,5.93,3.43-.81,5.6-2.07,7.28-4.58a15.78,15.78,0,0,1,5-5.31,3.5,3.5,0,0,1,4.21.17c1.81,1.32.82,2.56,0,3.88-1.55,2.61-3.12,5.12-5.93,6.7-4.29,2.41-7.21,6.26-11.41,11.24,6.1-.9,10.43-1.78,13.63-5.62,1.08-1.31,1.81-3.39,3.16-3.91,7.57-2.94,11.87-8,12.36-16.33.13-2.05,1.7-4,4.08-.85,1.7,2.24,4.64.69,7,.93,1.51.16,2.36-1.79,1.72-3.46a3.54,3.54,0,0,0-1.81-2c-7.57-2.11-9.45-10.47-15.75-14.26-2.25-1.35-2.33-2.56-4.87-.53-4.79,3.83-8.07,2.8-11.52-2.67a16.73,16.73,0,0,0-1.49-2.23c-4.93,2.54-5.61-1.56-7.1-4.42a1.31,1.31,0,0,0-.93-.58c-2.53-.12-3.63,4.59-6.91,2.06a31.47,31.47,0,0,0-.55,6.28c-.25,4.56,2,9.05.17,13.63-2.52,6.19-2,6.7,4.57,6.2-.22,3.23-2.16,5.54-3.89,7.95-.88.17-2.19-2.75-2.56.16-.21,1.73,1.13,3.73-1.33,4.87-2-1.15-.93-3.09-1.22-4.62-.79-4.29-4.36-6.08-8.07-3.95a9.11,9.11,0,0,1-3,1.51c-2.21.25-4.31-.38-2.93,3.46.76,2.1-2,3.23-4.91,2.06-1.37-.54-2.13.12-2.85,1.07-4.17,5.47-9,10.48-11,17.33-.7,2.37-1.22,4.71,1.11,6.1,2,1.19,3.73-.5,4.72-2.06,2.46-3.87,8.05-1,10.52-5.18.54-.9,1.3,1,1.55,2.1.44,1.94.05,4.69,2.65,5.11s1.87-2.74,3.11-4.05c5-5.27,10.71-10,12.74-17.62a58,58,0,0,0,1.51-6.41C199.1-349.79,198.23-355.72,202.06-354.88Zm-96,429c-3,4-8.53,6.16-9.63,11.13-1.17,5.25-4.84,8.73-6.94,13.13-3,6.28-7.94,8.23-13.86,9.06-3.39.47-5.82,1.4-7.71,4.63-1.52,2.59-4.51,2.51-7.73,3-6.86,1-13.65-2.5-20.31.54a7,7,0,0,1-6.68-.7c-.34,2.45,1.22,3.63,2.42,3.73,3.2.27,4.55,1.1,3.14,4.51-.57,1.4.32,1.93,1.89,1.42a22,22,0,0,1,4.9-.94c2.14-.19,3.53.94,4.36,2.92.94,2.26.07,3.78-2,4.48-4.95,1.65-3.63,6-4.27,9.54-.14.77.82,1.08,1.6,1.25,5.08,1.08,7.94,8.54,14.67,5C63.22,145,66.59,143,69.31,148c.46.86,3,1.21,5.15.18,1.19-.57,4.82-4.65,6.14.68,1.1-.43,2.57-.57,3.2-1.36.85-1.09.08-2.14-1.38-2-1.07.12-1.9,0-2.26-1.05-.45-1.37-.28-3.23.9-3.57,4.12-1.19,3-8.52,8.15-7.4,3.24.71,6.5,3,8.87,5.48,2.08,2.15-1.63,4.16-1.64,6.45,5.41-2.34,7.12-11.47,2.67-15.48-2.56-2.31-4.14-6.44-9.23-4.1-1.68.77-1.46-1.85-1.07-3.34,1.89-7.19,4.73-14,5.92-21.52.82-5.11,4.47-9.87,9.44-12.83,1.71-1,3.91-1.3,4.89-3.48.4-.9,2.33-1,2.22-.42-.84,4.81,5.5,2.16,5.77,5.79.08,1.07,1.19.33,1.76,0a25.52,25.52,0,0,1,5.72-1.79c6.4-1.64,7-3.62,1.3-7-.4-.24,1-2.83-1.42-1-2.68,2.09-5.79,4.32-9.78,1.87-5.56-3.41-6.47-6.41-3.2-12.06,1-1.69,2.5-3.2,2.41-5.83C109.51,66.66,108.45,71,106.06,74.09ZM69.22-194.16c-4.44.56-3.18,5.22-3.14,8.5a2,2,0,0,0,2,2.28c7.19,0,2.91,3.08,1.29,5.17-1.15,1.48-3,2.46-3.9,4-1,1.79.8,3.56,1.68,4.9.75,1.16,3.26,2,4.57.64,2.9-3,5.2-2.23,7.63,1.22,2.23-4.68.76-8.08-1.47-11.44-.93-1.39-2.22-3.2-.36-4.51,2.25-1.59,2.69,1,3.66,2.21,3.46,4.17,5.42,9.36,9.2,13.35,1.85,2,.77,4.28.1,6.42-.84,2.63-.25,5.4,2.23,5.9s5.57.19,5.43-4.25c-.1-3.09,2.12-6.08,1.32-9.38-.65-2.75.39-6.3-4.61-6.67-2.18-.16-2.54-3.74-2.89-6.06-1-7-6.46-11.9-8.46-18.42a1.64,1.64,0,0,0-2.23-1.15c-1.87.63-2.38,2.13-2.62,4-.51,4-1.3,8-5.72,11.17C72.77-190.25,73.05-194.64,69.22-194.16Zm39-79.45c.45-2.36.43-3.47-1.92-4.26-1.78-.59-4-1.12-5-2.45-2.1-2.87-4.11-2.29-6.14-.52-2.43,2.11-1.89,5-.47,7.21,1,1.54,2,3.14,3.1,4.61,1.28,1.69,1.44,2.2-.88,2.89-1.43.42-1.64,8.81-.3,9.62,2.58,1.56,3.65-.6,5.32-2.92C100.35-265.22,107.14-268,108.18-273.61ZM236.43-403.89c-6.92-4.78.17-11-3.2-15.43-6,2.3-8.1,7-5.76,12.85,1.6,4,2.57,8.21,4.27,12.14.66,1.52,2.54,2.5,4.08,3.93C238.58-395.13,238.36-402.57,236.43-403.89ZM104.24-217.38c1.51-.79,1.68-2.93,1.28-4.05-1.65-4.6.17-6.72,4.5-7.77a2.75,2.75,0,0,0,2.15-3.5c-.66-2.07-1-4.57-3.78-5.22-1.85-.44-2.73.69-3.63,2-2.09,3.06-3.71,6.26-7.53,8.11-3.24,1.57-1.53,7.12,2.7,9.72C101.3-217.35,102.85-216.65,104.24-217.38ZM211.55-518.92c1.49.14,1.91,1.24,1.27,2.44-1.5,2.78.87,3.58,2.41,3.85a3.84,3.84,0,0,0,4.58-3.07c1-5.49-2.29-10.41-2.57-15.79-.05-1-1.61-1.09-2.32-.47-2,1.69-3.75,3.58-5.87,5.65C209.75-523.92,204.27-519.58,211.55-518.92Zm18.85-49.34c1.42-4.82,4.16-6.88,7.57-9.16-1.54-3.06-4.61-2.62-6.87-3.73a2,2,0,0,0-2.95,1.66c-.56,3.92-3.28,9.35-2.5,11.1,3.08,6.94-4,8.55-5.13,13.39C228.61-556.09,229-563.59,230.4-568.26Zm-38.51-17.83a100.22,100.22,0,0,0,12.72,2c1.58.12,5,.21,4.64-1.77s-1.11-5.53-4.55-5.48a16.06,16.06,0,0,1-8.57-2c-3-1.74-3.62,2.52-5.74,3C188.62-587.94,189.66-586.55,191.89-586.09ZM148.44-333.5c-2,.86-2.63,3.84-5.88,3.28-1.66-.28-1.5,1.52-.86,2.93,1.12,2.49,2.05,5.07,3.07,7.6,3.85-5,9.1-9.12,9.84-16.15C151.4-337.92,150.42-334.36,148.44-333.5Zm34-60.19c1.23-2.18,1.6-2.67-1-3.88-3.38-1.59-6.16-.6-9.07.7-.6.26-1.43,1.51-1.31,1.66,4.73,6.16-4.39,6.15-4.41,11.38C172.82-386.27,178.93-387.47,182.42-393.69Zm148.89,29.91c4.4.36,8.4-2.15,12.85-1.6a1.6,1.6,0,0,0,1.52-2.37c-1.33-2.23-3.23-5.65-5.65-4.64-3.41,1.42-8.25,1-10.12,5.65C327.41-364.55,328.62-364,331.31-363.78Zm-376.1,476.4c-2.05.24-4.1,1-4,3.82.08,2.43,1.85,2.77,3.66,3.5,4.06,1.63,7.67-1.11,12.7-.34C-36,114.4-39.73,112-44.79,112.62ZM114.39-157.65c-.64-.53-1.1-1-1.78-.46s-.77,1.57-1,2.49c-.85,3.4,1.63,5.94,2.11,9s1.84,6,2.89,9.16C120.44-143.52,119.14-153.69,114.39-157.65ZM100-149.22c0,.13.26.41.36.39.7-.11,1.58,0,2-.46,3.35-2.93,6.8-5.93,4.61-11.13-.81-1.93-2.73-1.81-4.4-1.76-.61,0-1.2.74-1.84,1.16C100.45-157,100.19-153.11,100-149.22ZM193.51,50.37c-2.24-4.53-4.86-4.65-8.08-.95-.51.57-.91,1.88-.34,1.8,3.87-.51.33,6.69,4.78,4.68a16.37,16.37,0,0,1,8.07-1.45C196.23,52.55,194.43,52.24,193.51,50.37ZM-5-311.87c-.14,1.84-.83,3.77,1,5.21A1.53,1.53,0,0,0-1.6-307C-.5-308.77,3-309.1,2.06-312s-1.18-6-1.71-9.2C-2.54-318.39-4.72-315.62-5-311.87ZM97.29,78c-4-2.17-10,2.2-16.59,12.23C87.39,86.73,92.34,82.45,97.29,78Zm53.2,41.26c.95,1.95,3.83,1.74,5.61,1.29,2-.5,5.81-1.59,1.51-4.66-1.33-1-1-1.93.21-2.58,1.85-1,2.58-3,1.31-4.13-1.76-1.48-3.34.31-4.47,1.87-.66.92-1.29,1.85-2.14,3.07C151.76,115.62,149.55,117.37,150.49,119.29ZM-.06,73c.07-1.17-.49-3-2.09-2.88-2.16.23-1.72,2.63-1.32,3.59,1,2.42-.36,5.2,1.6,7.49.92,1.08-.47,3.95,1.84,4.11,3,.2,1.09-2.57,1.55-3.88.68-1.93,2.95-.59,3.75-3.07C1.82,77.94-.3,76.63-.06,73Zm116.2-19.43c-.65,1.68-.76,3.89,1.08,5.17,1.16.81,2.15-.38,2.88-1.14,1.47-1.52,2.87-3.21,1.37-5.47-1.6-2.42-2-5.23-2.55-8.07C115.38,46.56,117.32,50.49,116.14,53.55ZM239.43-373a3.19,3.19,0,0,0,.13,2.15c.76,1.15,1.53.26,2.3-.25,2.37-1.57,5.18-2,8.67-2.75C244.65-378.81,240.57-378.27,239.43-373Zm-195,100.62c-.95-.72-3.55.9-4.29,2.83a2.13,2.13,0,0,0,1.62,3.06c2,.27,4.07.36,6,2.69C48.83-268.49,46.57-270.76,44.44-272.38ZM138-495c2,2.17,4.66,1.09,6-.43s.38-4-1.26-5.36c-2.29-1.86-4.62-.47-6.74.47C134.35-497.59,136.73-496.39,138-495ZM125-184.59a1.93,1.93,0,0,0-1.8-2.38,2.65,2.65,0,0,0-1.81,1.83c-.34,3.44-.41,6.92-.57,10.39C124.13-177.57,123.81-181.32,125-184.59Zm-13.41-34a2,2,0,0,0-1.87-2.3c-1.11-.09-1.69.76-1.81,1.72-.39,3.26-3.66,7.46,3,8.74C111.22-213.46,111.47-216,111.62-218.62ZM128.46,60.89c-.15-1,.55-2.44-1-2.72-1.29-.23-1.93,1.1-2.36,2.09-1,2.2-1.75,4.48-2.61,6.73C124.21,64.72,129.11,65.25,128.46,60.89ZM238-526.25c.35-.65-1-1.3-1.6-1.08-3.14,1.11-1.09,4.15-2.86,6.1C238.14-520.89,237-524.44,238-526.25ZM190.2-328.44c1.21-1.25,3.78-1.41,3.4-3.89-.07-.46-1.14-1.06-1.77-1.09-2.48-.12-2.61,2.31-3.68,3.71-.42.54-.89,1.25.14,2.59A12.4,12.4,0,0,0,190.2-328.44Zm22.49-249.8c.67-.51,1.17-1.3.57-1.83-2.21-2-4.54.19-8.28-.63C208.21-578,210-576.21,212.69-578.24Zm-101,673.65c1,.73,1.57-.36,2-1.1.8-1.29.12-2.08-1.07-2.45a1.83,1.83,0,0,0-2.35.77A3,3,0,0,0,111.67,95.41ZM87.85,136.26a1.59,1.59,0,0,0,.46-.13c-.11-.1-.22-.27-.33-.27s-.27.14-.4.23C87.67,136.15,87.76,136.27,87.85,136.26Z" fill="#1c2d28"/>
        <path d="M383-19.67c-1.78,5-4.8,8.32-10.65,8-4.61-.23-10.13-1.26-12.75-3.8-8.87-8.6-20.26-13.19-29.73-20.72-17.67-14-37.13-25.56-56-37.95-4.53-3-9.12-6.44-15.7-8.06,2,2.12,3.61,3.15,4.17,4.59,2.12,5.51,6.94,8.6,11.46,11,6,3.18,10,8.25,14.68,12.67,2.68,2.54,7.5,5.75,7.26,8-.54,5.2-.26,10.53-1.37,15.68-.22,1-.21,2.7-1.72,2.43A6.63,6.63,0,0,1,289.48-30c-1.21-1.32.33-1.81,1.07-2.57,3.34-3.45,2.38-5.87-1.75-7.8s-8.05-4.21-12.15-6.18c-1.66-.81-3.13-2.82-5.7-1.58.39.72.51,1.38.88,1.59C275.94-44.24,279-42,273.24-38a2,2,0,0,0,.57,3.68c7.71,2.24,9.11,8.49,10.5,16.39-1.88-2.47-2.89-4-4.12-5.36s-1-4.55-3.51-3.54c-2.25.89-2.69,3.81-2.94,6.12-.12,1.17.91,2.47.26,3.81s-2,2.7-2.9,1.17c-1.91-3.4-6.35-6.25-5.33-10.21,1-3.7-.19-5.66-1.95-8.34s-2.61-5.73,2.71-4.53c.81.19,1.48.56,1.57-.59s0-2.9-1-3c-4.4-.52-7.95-4.15-12.65-3.38l.13,0c-3.41-1.26-7,2.38-10.77-.65,2.15,3.23,1.87,4.71-2,5.8-4.39,1.24-4.42,2.52-1.52,5.34.37.36.78,1.09.65,1.48-1.14,3.45-.86,7.88-5.26,9.31a36.73,36.73,0,0,0-13,7.85c-1.51,1.34-3.71,3.86-4.17-1a2,2,0,0,0-3.34-1.66c-3.56,2.21-7.93,5.06-8.09,8.91-.29,7-6.39,8.41-9.31,12.82-.4-3.82,1.35-7.23-.78-11-.93-1.64.17-6.4,1.59-7,5.75-2.64,5.06-7.57,5.59-12.18,1.48-12.7,3-25.15,11.24-36,7.51-9.92,7.85-21.86,7.2-34-.78-14.32-4.67-28.06-6.78-42.12-.83-5.51,1.07-7.65,6.44-6.67,3.08.55,3.22-.33,3.7-3,1.17-6.5.72-12.83-2.36-18.47-2.18-4-3.67-8.73-7.85-11.31-1.62-1-4.84-.38-4.47-3.19.28-2.08,3.2-1.39,4.84-2.15s3.15-1.07,4.79.13c1.35,1,3,2.28,3.77-.7a1.36,1.36,0,0,1,2.15-1c5.46,2.77,12.09,3.11,16.2,8.66A25,25,0,0,0,262.5-167a7.19,7.19,0,0,1,5.47,2.73c2.24,3.24,7.08,4,7.83,8.52.66,3.95,6.85,4.82,5.67,9.55-1.89,7.56,8.14-.62,7.16,5.6-.1.68,1.27,1.47,1.43,2.32a9.83,9.83,0,0,0,6.54,7.73c7.57,2.24,6.67,12.46,14.29,14.29.31.08.6,1,.59,1.51-.17,6.49,3.71,4.32,6.73,3,2.83-1.29,6.16-3.29,8.51-1.28,3.64,3.12,6.29,7.39,9.35,11.18-.27.45-.55.89-.83,1.34-6.44-3.14-13.21-2.84-20-3-3.92-.09-7.1,1.43-6.33,4.74.69,3,.38,4.27-1.75,6-4.07,3.39,3.4,4.84,1.56,8.15-.5.89.75,1,1.45.68,5.58-2.9,5.11,5.1,9.09,5,0,3.8,3,5.77,5.43,7.49,4,2.78,8.59,6.63,12.82,6.48,3.88-.13,7.22.15,9.82,2.2s4.37,2.34,7.17,1.45c2.41-.77,5.53-.79,6.74,1.56,3.87,7.56,11.47,6.92,17.71,7.4A14.76,14.76,0,0,1,385.86-50c2.8,1.62,5,3.84,8.72,4.38s7.77,2.58,9.34,7C397.71-31.5,389.13-27,383-19.67ZM227.82-42.78c-.82-.11-1.49.28-1,1.3.37.86.7,1.94,1.83,1.91,2.28-.06,5.33-.07,5.55-2.73.21-2.48-1.14-5.25-4.38-4.75C227.81-45.56,235-41.89,227.82-42.78Z" fill="#1c2d28"/>
        <path d="M104.74,204.17c6.25-1.84,3.82-6.35,3.06-10.25-.28-1.48-1.89-1.34-2.8-1.14-3.59.77-6.07-1.17-8.6-3.11-5.89-4.5-5.88-4.5-7.78,2.72C94.42,195.73,99.48,200.09,104.74,204.17Z" fill="#1c2d28"/>
        <path d="M205.3,280.06c-4-1.59-4.29,2.81-6.56,4l-7.45-4.85c1.48-3.23,2.59-7.14,7.45-3.7a2.55,2.55,0,0,0,2-.16c.88-4.11,4.94-4.54,7.52-6.64,1.3-1.06,2-4.33,4-2.59,1.81,1.58,1.58,4.42.17,7-1.74,3.18-4.56,5-7.28,7Zm-2.89-4c-.09.15.2.52.32.78.27-.18.64-.3.77-.55s-.14-.54-.24-.85C202.94,275.66,202.56,275.8,202.41,276.07Z" fill="#1c2d28"/>
        <path d="M225.82,300.83c.63-3.69-4.49-11.05-8.13-11.4a6.75,6.75,0,0,1-3.42-1.75c-3.31-2.39-5.17-1.51-5.84,2.4Z" fill="#1c2d28"/>
        <path d="M132.14,242.66c4.41,2.73,8.14,5.09,11.93,7.36.86.52,2.29,1.64,2.8.11,1.23-3.69-4.57-5.8-2.5-9.87-2.12-.49-4.57-1.4-6.34-.29C136.42,241,134.52,241,132.14,242.66Z" fill="#9bb0aa"/>
        <path d="M111.85,230.25c3.67,2.27,7.33,1.85,10.71-.29a3.65,3.65,0,0,0,1.43-5c-1.25-2.16-2.82-1-4.17.19-2.06,1.86-4.43,1.71-6.92,1.16-1.3-.29-2.9-.3-3.35,1.24C109.06,229.28,111,229.41,111.85,230.25Z" fill="#9bb0aa"/>
        <path d="M183.19,274.23c1.22-2.63,4.34-5.11,1.08-8.23-3.68-3.51-4.65-3.05-8.21,3.51A22,22,0,0,0,183.19,274.23Z" fill="#1c2d28"/>
        <path d="M124,234c-.58,1.14-1.55,2.26,0,3.42s9.83,0,10.62-1.64c1.12-2.34-1.14-2.86-2.39-3.69A6,6,0,0,0,124,234Z" fill="#9bb0aa"/>
        <path d="M125.18,220.44c6.12-3.32.83-7.78,1.83-12.79-3.67,2.83-6.24,5-7.72,8.21l2.71,1.83c.3-.67.87-1.47,1.49-1a2.4,2.4,0,0,1,.54,2.91Z" fill="#1c2d28"/>
        <path d="M343.38,214.55c-.69-.57-1.45-1.69-2.07-1.61-3.54.43-9.39,10.49-8.64,14.6C335.6,222.68,339.55,218.67,343.38,214.55Z" fill="#1c2d28"/>
        <path d="M161.88,260.76c3.57-3.19,2.22-6-.87-8.86l-4.67,5.74Z" fill="#1c2d28"/>
        <path d="M129.89,224.44c.67-.84.91-3.3,2.48-.61,1.21,2.07,2.93,1.65,4.23.36,2.38-2.35-.42-4-1.12-5.92-.84-2.31-2.34-.89-2.95-.16-1.29,1.57-3.39,2.48-3.94,4.65Z" fill="#1c2d28"/>
        <path d="M206.47,288.83c3.25-1.62,3.38-4.25,2.66-7.4-.67-2.91-2.66-.84-3.95-1.32l.12-.05c-1.16,1.94-2.33,3.87-3.49,5.8Z" fill="#1c2d28"/>
        <path d="M323,239.2c-1.82-1.26-4.24,2-5.86-.78-.41,1-.85,2-1.23,3.08-.94,2.61,1.25,3.11,2.76,4.06Z" fill="#1c2d28"/>
        <path d="M237.39,307.87c-.62-5.16-5.83-5.76-8.76-8.61-.5-.49-1.56,1.13-1.8,2.23Z" fill="#1c2d28"/>
        <path d="M.56,161.05c.13-2,2.16-4.9.59-5.51-1.74-.68-4.43,1.05-6.7,1.73A18.68,18.68,0,0,0,.56,161.05Z" fill="#9bb0aa"/>
        <path d="M201.81,285.86c1.16-1.93,2.33-3.86,3.49-5.8-4-1.59-4.29,2.81-6.56,4Z" fill="#9bb0aa"/>
        <path d="M124,219.6a2.4,2.4,0,0,0-.54-2.91c-.62-.47-1.19.33-1.49,1C121.8,219.26,122.67,219.69,124,219.6Z" fill="#9bb0aa"/>
        <path d="M407.63,35.75,407,37.12l.77.07c0-.48-.09-1-.14-1.44Z" fill="#9bb0aa"/>
        <path d="M406.84,52.34l-.12.88c.16,0,.43,0,.46-.1a4.94,4.94,0,0,0,.14-.87Z" fill="#9bb0aa"/>
        <path d="M408.07,45.57l-.12.9.67-.1-.3-.86Z" fill="#9bb0aa"/>
        <path d="M408.32,45.51c-.06-.31-.11-.62-.16-.93-.89.26-.43.63-.08,1Z" fill="#9bb0aa"/>
        <path d="M407.88,49.25c.18-.06.44-.06.51-.18s-.08-.35-.13-.53c-.18.06-.44.06-.51.18S407.83,49.07,407.88,49.25Z" fill="#9bb0aa"/>
        <path d="M274,162.25c1.35-1.38,2.59-2.68,1.4-4.91-1.58-3-1.85-5.2,2.82-4.19,1.51.33,3.36-.07,3.65-1.86.58-3.61.35-7.45,6.15-5.89,1.25.34,3-2.5,2.62-3.86-1.32-4.89,1.4-10.64-3.33-14.83-1.31-1.16-3-3.74-1.62-4.93s3.49-2.85,6.09-2.21,5.12,1.28,7.2,3.05c1.24,1.06,2.35,2.37.85,3.78-2.52,2.39-1.33,4.42.32,6.38a3.42,3.42,0,0,1,.16,4.64c-2.8,4.07,1.17,6.52,3,8.3,3,2.91,4,7.51,8.22,9.29.37.16.52,1.92.15,2.58-2.59,4.56.21,8,2.24,11.62.54.95,2,2.09.93,2.73-4.52,2.65-.68,4.49.64,6.52-5.22,1.68-8.6,4.82-7.18,7,1.64,2.48.92,4.07-.21,6.13-.8,1.45-.37,2.64.88,4,2.72,2.93,5.69,3.35,9.17,1.84v-.07c-.94,8.18-10.67,2.76-12.81,9-1.74-1.72-.33-4.92-4-5-.57,1.63,2.63,4.73-.27,5-7.81.7-7.67,9.5-13.4,12.32-1.86.91-.71,3.27.93,4.74,1.27,1.14,3.42,2.4,1.06,4.46-5.09,4.46-4.37,12.3-9.84,16.68-1.75,1.4.21,4.64-2,6.83a18,18,0,0,1-13.75,5.27c-7.74-.15-7.59-.14-7.61-8,0-1.48.68-3.36-.67-4.76a2.19,2.19,0,0,1-.26-3c1-1.25,2.09-.48,3,.14,3.45,2.36,5.74,1.86,6.08-2.85,3,1.69,5.84,2.78,5.31,6.45-.15,1.05-1.17,2.3.35,2.9s2.42-.59,3.24-1.69c2-2.65,3.68-5.17,1-8.55-1.06-1.34,1.11-4.41-1-5.06-2.49-.79-3.22,1.8-3.79,3.87a1.72,1.72,0,0,1-1.27.88c-1.28.13-8.5-6.84-8.14-8.13.49-1.77-1.48-2.68-1.41-4.72,3.69,1.51,6.25,4.27,10.84,5.08-2.31-3.26-4.27-6.39-3.34-8.93,2.48-6.78,1.43-11.82-4.72-15.84a5.64,5.64,0,0,1-2-3.91c-.11-1.69.76-3.82,3.05-2,1.85,1.48,4,3.89,5,.33.91-3,8.41-5.31,1.72-9.72-.74-.48-.93-2.43-.2-2.32,6.79,1,2.26-3.15,2.46-5.16.43-4.38.64-8.86,3.38-12.61,1.37-1.88.6-3.12-.95-4.27A2.18,2.18,0,0,0,274,162.25Zm23,15.09c.62,2,1.33,5.31.33,7.89-1.15,3-4,1-6.05,1.6-1.55.44-4.83-1.91-4.87.2-.09,4.94-5.07,8.24-3.8,13.29.5,2,1.28.14,1.91,0,1.83-.38,2.78.61,2.17,2.11-1.1,2.71-.1,3.72,2.37,4.51s3.89,0,5.76-1.89c2.28-2.31,3.56-5.95,7.33-6.59,2.13-.36.46-.92.21-1.6-1.06-2.88-2-5.8-2.91-8.73a2.13,2.13,0,0,1,.17-1.59c4.16-6.25,4.09-6.22,2.16-13.6-1.05-4,2.21-6.1,4.79-7.46s2.06-2.29.88-3.72a10.46,10.46,0,0,1-2.55-5c-.37-2.22-1.29-4-4-4-1.22,0-3,.38-2.52,1.45,1,2.43-2.21,5.16.84,7.31,1.24.87,3.31,1.09,3.39,3.7-2.76-.18-4.56-1.73-6.21-3.42-.86-.88-1.76-1.85-2.75-.68s-.1,1.92,1.18,2.4c3.59,1.34,2.18,4.36.5,5.11-4.67,2.09-3.39,6.36-5,9.68C293.18,178.67,296.32,175,297,177.34Zm-15.61,41.49c1.41.59,2.33-.1,2.18-1.5-.34-3.17-.88-6.32-1.44-9.47a2.33,2.33,0,0,0-1.93-1.85c-1.22-.25-1.56.73-2,1.54C277.14,209.48,279.55,218.05,281.43,218.83Zm-5.35-31.58c-1-.43-1.66,1.4-.44,2.27,1.48,1.06,1.57,2.36,1.26,3.93,4.75-1.28,8.21-3.51,7.38-10.08C281.64,185.59,280.08,188.94,276.08,187.25Zm8.88-9a2.56,2.56,0,0,0,.29,2.05c.48.7,1.31.63,1.81-.19a1.41,1.41,0,0,0-.24-2C286.16,177.79,285.34,177.29,285,178.28Z" fill="#fefefe"/>
        <path d="M226.15,84.12c-6.17-1.21-9.08,3.13-7.88,12,1.54-1.42,2.55-3.48,5-3.55-.68,5.48-6.22,8.5-6.91,14-.14,1.09-.12,3.48-2.44,3.11a3.19,3.19,0,0,1-2.82-3.14c0-2.9-1.09-4.25-4.08-3.85-2.1.27-3.64-1.19-4.92-2.33-2.58-2.32-4.93-4.23-8.81-3.87-1.95.19-4.85-1.68-3.07-3.87,2.39-3,.86-9.5,7.53-8.8.39,0,.91-1.06,1.37-1.62-5.94-3.65,1.35-3.08,1.57-4.84.3-2.36,3-4.92-.9-6.72-1.45-.68-1.87-1.68-1-3.19a46.33,46.33,0,0,0,4.83-13.19c.38-1.67,1.54-3,3.75-2.32a36.82,36.82,0,0,0-.2,4.4c.13,1.82.14,4.05,2.94,3.68,2-.27,3-1.41,2.08-3.6-.65-1.56.68-2.4,1.46-3.4,2.87-3.66,2.63-6.37-2.31-7.66l0,.09c4.1-3.31,7-7.37,7.81-12.71,1.61-10.16,7-19,10-28.73.78-2.52,3.24-6.05,5.71-5,3.67,1.54.61,4.78-.22,7.26-.12.34-.5.59-.64.93-.61,1.4-.54,2.91,1.16,3.09,2.26.26.57-1.45.83-2.23.76-2.25,1.6-5.3,4.31-5,3.16.38,1.42,3.74,1.17,5.21-1,5.79-2.92,11.36-2.55,17.45a5.67,5.67,0,0,1-4.59,5.67c-.86.21-2,.59-2.35,1.24-1,2.21-1.67,4.61-2.61,6.87s-1.16,4.58-3.57,6.1c-1.32.84-2.57,2.94.24,4.18-1.89,2.6-1.54,5.78-2.2,8.69-.23,1-.66,1.86-1.75,1.87-1.29,0-1.22-1.22-1.45-2.07s-.22-1.92-1.95-2.26c-.2,2.48-4.9,5.62,1.84,6.57,1.07.15.46,1.65.71,2.5.48,1.64-.8,3.59,1.07,5.84a57.65,57.65,0,0,1,10.71-15c1.61-1.62,3.69-2.29,4,.57.4,3.94,1.12,8.41-4.45,10.17-2.28.73-5.06,1.85-2.54,5.56.76,1.13.91,4.12-2.53,4.33-2.25.13-3.35,1.5-1.64,3.87.7,1,1.66,2.21.6,3.62Zm-7.73-3.31c0-3.94.83-8-.75-11.72-.35-.84-1.16-2.7-2.83-2.25s-1.38,2.16-1.61,3.33c-.79,4.06-1.34,8.17-1.95,12.27-.29,2-.16,4.25,2.26,4.42,3.17.24.58-2.59,1.51-3.74a14.18,14.18,0,0,0,1.35-2.49l-.11,0Zm11.72-53.64c-.53-4.71,1.5-9.09,2.63-13.57.33-1.31,1.13-2.69-.52-3.38s-2.66.79-2.93,1.94c-1.72,7.2-6.13,14.08-2.55,22.62C229.42,32.5,230.51,30.36,230.14,27.17Zm-20.38,62.3c-2.38.88-1.2,4.14,1.5,3.77,1.31-.19,2.42,1.29,4.25-.5C213.52,91.31,212.26,88.53,209.76,89.47Zm-8.65-2.36c-.29-.77-1.41-.51-1.88,0-1.49,1.62-3.24,3.3-.56,6.09C199.94,91,202.09,89.65,201.11,87.11Zm5.16,9.38c4,5.2,4.11,5.2,7-1C210.44,96.61,208.71,98.48,206.27,96.49Z" fill="#1c2d28"/>
        <path d="M312.75,135.62c0-.11.14-.24.11-.31a1.14,1.14,0,0,0-.29-.34c6-1.88,6.05-1.9,2.34-7.8a4.56,4.56,0,0,1-.84-3c.26-4.7,3.66-10.43-3.78-13-.59-.21-.79-1.62-1.12-2.5-.63-1.66-.83-4.45-3.31-3.32-2.11,1-1.73,3.15-.46,5.34,1.71,2.94,3.56,6.12,2.56,9.78-.29,1,0,3.09-2.08,2.78-1.67-.26-.72-1.86-1-2.82-.71-2.2-.29-5.17-3.92-5.23a1.25,1.25,0,0,1-1.26-1.54,26.39,26.39,0,0,0-2.05-17.25C297,95,297.5,93,299.81,94.15c1.23.6,1.91,2.7,3.68,1.13s.17-2.88-.44-4.41c-2.52-6.3-.1-9.38,6.5-8.14,2.92.56,5.69,1.91,8.53,2.91v.11c-1.3,3.35,1.46,5.77,2,8.71.11.67,1.4,1.17,0,2.19-4.11,3.08-3.6,6.09,1.1,8a32.2,32.2,0,0,1,4,2c1.35.77,2.74,1.79,2.2,3.54a3,3,0,0,1-3.63,2c-2.37-.48-3.29.53-3,2.69.26,1.79-.58,2.73-1.82,3.79-1.45,1.26-1.8,2.68,0,4.28,2.19,2,3.74,5,7.57,3.09,1.32-.64,2.6.16,3.18,1.56a1.35,1.35,0,0,1-.86,1.83c-4.4.73-4.25,4.64-5.72,7.54-.68,1.34-.6,4.59-3.1,3.59-2.85-1.13-5.88-1.37-8.65-2.5-1.53-.62-3.73-1.81-2.88-3.6,1.2-2.52,2.73.33,4.18.51ZM315,98c.58-2.46-3.88-2.24-4-5.07,0-.49-1.37-.4-1.77.42-1.11,2.32.38,3.48,2.17,4.58C312.54,98.5,314.48,100.15,315,98Z" fill="#fefefe"/>
        <path d="M260.11,295.39c-2-1.47-.57-2.87-.06-4.45,1.62-5-.46-7.28-5.61-6.9-2.28.16-5.08-.16-6.17-2.8-1-2.43-3.21-3-5-4.25-2.3,1.27.13,4.51-2.52,5.21-2.37.62-3.73-1.43-5.51-2.35-2.34-1.21-4.59-2.61-7-3.77-.68-.33-1.49-1.29-2.71-.07,2.27,2.36,5.24,3.9,6,7.91.47,2.35,2.33,3.65-1,4.78-.94.31-.94,1.07-.52,1.79s1.23.67,1.92.21a19.63,19.63,0,0,1,3.32-2.16c2.57-1,5.37-2.06,5.38,2.59,0,.91.25,2.45.74,2.62,4,1.31,7.64,2.46,4.72,8-.37.71,1.49.39,2.32.55,3.5.7,5.88,3.08,8.36,5.45.9.88,2.14,4.14,4.23,1.09,1.48-2.17,3.6-4.79.79-7.1-2.38-1.95-2.64-3.87-1.76-6.41Z" fill="#fefefe"/>
        <path d="M160,210.53a2.61,2.61,0,0,0-2.26,1.45c-2.44,3.79-5.26,1.14-4.85-.87,1.27-6.28-5.09-7.74-6.43-12.56-1.78,1.26.18,6.54-4.37,3.93-.59-.35-1.5.27-1.65,1.12-.27,1.54.9,1.9,2,2.09,1.82.32,3.4.83,3.24,3.11-.2,2.76-2.27,1.56-3.78,1.88-3.87.82-4.76,4.07-1.7,6.88,1.91,1.75,1.92,6.28,6.35,4.79a3.4,3.4,0,0,1,.8,1.83c-.26,1.6-1.52,3.71,1,4,1.08.14,2.88-1.61,3.61-2.92,1.88-3.35,3.27-6.88,6.86-9,2.09-1.27,0-4,1.12-5.83Z" fill="#fefefe"/>
        <path d="M321.82,82.13c-1.13-.64-1.71-1.53-.86-2.72a8.32,8.32,0,0,1,2-2c2.69-1.88,4.47-4.23,3.36-7.63-1.19-3.67-4.57.52-6.32-1.72,0-.19-.19-.64,0-.88,1.17-1.81,5.27-1.41,4.38-4.25-.71-2.24-3.95-.72-6-1.28a10.22,10.22,0,0,0-9.73,2.64c-1.26,1.16-3.33,4.14-1.91,4.6,5.42,1.74,2.58,6.2,3.49,9.19.64,2.13,1.9,1.95,3.09,2.47,2,.89,4.15,1.63,6.23,2.43Z" fill="#fefefe"/>
        <path d="M172.73,175.52c.35,4.45,2.5,5.6,6.37,3.86.68-.3,1.62-.8,2.15-.56,6,2.73,9.16-1,12.55-5,1.54-1.81,3.86-3.86,2.28-5.64a10.74,10.74,0,0,0-7.49-3.38c-2,.07-3.91.5-5.85-.37-.34-.15-1-.39-1.05-.27-3.23,4.22-8,3-12.49,3.82,1.82,1.13,3.69,2.18,5.43,3.4s4.62,1.91,3.43,4.38S175,174.64,172.73,175.52Z" fill="#fefefe"/>
        <path d="M220.24,171.53c3.31-5.4,8.94-2.79,13.74-4-1.56-2.2-1.78-5.17-6.3-3.08-1.48.68-6.38-1.33-9.63-2.37l.08,0c-.75,1-1.32,1.37-2.74.55-5.28-3-10.23-1-11.75,4.71-.38,1.4-5.53,2.6-.51,4.53.85.32,3.22,2.17,1.84-1.4-.2-.5,5.23-2.39,6.25-1.11,2.77,3.48,6.06,1.69,9.11,2.12Z" fill="#fefefe"/>
        <path d="M162.86,142.37c-1.15,3.27-3.73,1.47-5.71,1.49-1.54,0-3.2-.47-3.36,1.75-.12,1.74,1.05,2.32,2.61,3,5,2.29,9.8,3.11,15,.94,1.37-.57,4.32,1.63,4-1.65a4.14,4.14,0,0,0-5.43-3.48c-3.08.9-5-.07-6.89-2.15Z" fill="#fefefe"/>
        <path d="M340.29,59.45a9.38,9.38,0,0,0,6.94,1.83c2.35-.27,5-1.7,4.72-4.59-.34-3.08-3.2-3.37-5.73-3.09-1.84.2-3.62.91-5.45,1.26-1.42.28-3.48-.06-3.62,1.77C337,58.22,339,58.71,340.29,59.45Z" fill="#1c2d28"/>
        <path d="M330.89,177.43c-.12,2.56-.2,4.46-2.5,5.43-3.95,1.67-2.29,5.44-2.66,8.38-.12,1,1.81,1.48,1.71,1-1.09-5.22,4.28-4.65,6.29-6.15,3.45-2.58,2.2-3.55.19-5.47C333,179.75,332.19,178.8,330.89,177.43Z" fill="#fefefe"/>
        <path d="M321.82,82.13,319.5,83c-.47.87-.95,1.74-1.42,2.62v.11c2.78,1.27,6.32,1.71,6.26,6,0,1.19.92,1.53,2,1.32a1.52,1.52,0,0,0,1.12-2.16C326,87.71,326,83.6,321.82,82.13Z" fill="#1c2d28"/>
        <path d="M330.75,222c-3.55-1-7.54.28-10.1-3.87-.74,2.64,2.18,2.9,1.19,4.65-.66,1.16-3.77,1.92-1.11,3.6a4.58,4.58,0,0,0,5.68-.41C327.75,224.8,329.9,224.6,330.75,222Z" fill="#1c2d28"/>
        <path d="M232.74,175.24c-3.55-3.33-7.8-4.26-12.5-3.71l.09,0c-1.53,3.63.4,5.08,3.6,5a70.27,70.27,0,0,0,8.8-1.31Z" fill="#fefefe"/>
        <path d="M232.73,175.18c.58.39,1.43.66,1.68,1.2.63,1.35.88,3.4,2.49,3.4,1.88,0,2.14-2.28,2.93-3.66,1-1.73,1.45-3.48-.69-4.88s-3,.6-4.21,1.54a17.25,17.25,0,0,0-2.19,2.46Z" fill="#fefefe"/>
        <path d="M289.8,253c-2.88.93-3.79,2.9-4.87,4.63-.68,1.09-3.16,1.5-1.7,3.49a3.78,3.78,0,0,0,3.48,1.54c1.93-.23,2.8-1.78,3.45-3.38C291,257.2,288.72,255.4,289.8,253Z" fill="#fefefe"/>
        <path d="M303.12,33c4.73.34,8.29,3.25,12.43,5.49C313.72,31.17,310.14,29.57,303.12,33Z" fill="#1c2d28"/>
        <path d="M178.41,143.44c3.51.18,5.92-2,8.62-3.45a2.3,2.3,0,0,0,1-3.4c-1.79-2.23-1.49,1.27-2.62,1.16C181.34,137.37,180.9,141.66,178.41,143.44Z" fill="#fefefe"/>
        <path d="M313,216.5c-.24,2-.67,4.55,1.56,6.25,1.17.9,2.88.48,3-1.13.15-2.15,2.08-4.66-.13-6.42A2.74,2.74,0,0,0,313,216.5Z" fill="#1c2d28"/>
        <path d="M212.34,131c-3.66,2.9-3.54,6.62-6.06,8.71a1.32,1.32,0,0,0,.46,2.29c1,.35,1.73-.32,2.09-1.33C209.83,137.91,210.85,135.12,212.34,131Z" fill="#1c2d28"/>
        <path d="M260.09,295.29a10.94,10.94,0,0,1,8.72,4.3c-.31-4.19-.83-6.73-4-7.82-3.4-1.17-3.37,2.08-4.67,3.62Z" fill="#fefefe"/>
        <path d="M254.93,178.26c1.29-5.57,4-2.18,7.15-.51-1.37-2.81-2.22-4.82-5-5.21-1.83-.27-2.78.7-3.62,2.1-1.19,2,.4,2.67,1.53,3.61Z" fill="#fefefe"/>
        <path d="M215.76,260c.32-.46.83-.87.9-1.35.37-2.24,2.49-4.46.22-6.7a2.22,2.22,0,0,0-1.9.62C214.13,255,212.39,257.72,215.76,260Z" fill="#1c2d28"/>
        <path d="M350.77,23.82c-2.29-.86-3.33,1.17-4.68,2.23s-.58,2.3.66,2.39c1.63.1,3.69,2.15,4.93-.43A3.76,3.76,0,0,0,350.77,23.82Z" fill="#fefefe"/>
        <path d="M271.8,119.83c1.59-3.16,2.46-5.12,4.46-6.45C271.42,112.22,271.42,112.22,271.8,119.83Z" fill="#1c2d28"/>
        <path d="M274.16,164.66a2.18,2.18,0,0,0-.15-2.41c-1-.31-1.45-1.88-2.85-1.16,2.71,2-2.38,4.46.14,6.09C274.08,169,272.31,164.54,274.16,164.66Z" fill="#1c2d28"/>
        <path d="M216,7.85c-2.17-.8-3.48.43-4.47,2.23-.65,1.2-1.28,2.76.35,3.42,2.59,1,3.28-2,4.92-3C218,9.76,217.26,8.56,216,7.85Z" fill="#1c2d28"/>
        <path d="M185.89,77.12A2.53,2.53,0,0,0,183,79c-.06.16.73.94,1,.87A2.57,2.57,0,0,0,185.89,77.12Z" fill="#1c2d28"/>
        <path d="M218.05,162.12c.27-.67.78-1.36,0-2a.94.94,0,0,0-.87.2c-.39.91.38,1.3.92,1.78Z" fill="#fefefe"/>
        <path d="M160,210.44c.67.26,1.36.75,2,0a.93.93,0,0,0-.19-.85c-.88-.35-1.31.36-1.78.91Z" fill="#fefefe"/>
        <path d="M226.15,84.12c-.38.79-1,1.65.1,2.28a1.38,1.38,0,0,0,1.31-.39c.63-1.11-.33-1.53-1.08-2Z" fill="#1c2d28"/>
        <path d="M255,178.25l-.08.46c0-.15,0-.3,0-.45Z" fill="#fefefe"/>
        <path d="M211.41,45.41l-.41,0,.39-.12Z" fill="#1c2d28"/>
        <path d="M318.15,197.32h.44l-.43.06Z" fill="#fefefe"/>
        <path d="M111.43,70.17c-3.27,5.65-2.36,8.65,3.2,12.06,4,2.45,7.1.22,9.78-1.87,2.37-1.85,1,.74,1.42,1,5.66,3.37,5.1,5.35-1.3,7a25.52,25.52,0,0,0-5.72,1.79c-.57.3-1.68,1-1.76,0-.27-3.63-6.61-1-5.77-5.79.11-.63-1.82-.48-2.22.42-1,2.18-3.18,2.46-4.89,3.48-5,3-8.62,7.72-9.44,12.83-1.19,7.48-4,14.33-5.92,21.52-.39,1.49-.61,4.11,1.07,3.34,5.09-2.34,6.67,1.79,9.23,4.1,4.45,4,2.74,13.14-2.67,15.48,0-2.29,3.72-4.3,1.64-6.45-2.37-2.45-5.63-4.77-8.87-5.48-5.15-1.12-4,6.21-8.15,7.4-1.18.34-1.35,2.2-.9,3.57.36,1.09,1.19,1.17,2.26,1.05,1.46-.16,2.23.89,1.38,2-.63.79-2.1.93-3.2,1.36-1.32-5.33-4.95-1.25-6.14-.68-2.15,1-4.69.68-5.15-.18-2.72-5.09-6.09-3-9.41-1.27-6.73,3.53-9.59-3.93-14.67-5-.78-.17-1.74-.48-1.6-1.25.64-3.5-.68-7.89,4.27-9.54,2.08-.7,3-2.22,2-4.48-.83-2-2.22-3.11-4.36-2.92a22,22,0,0,0-4.9.94c-1.57.51-2.46,0-1.89-1.42,1.41-3.41.06-4.24-3.14-4.51-1.2-.1-2.76-1.28-2.42-3.73a7,7,0,0,0,6.68.7c6.66-3,13.45.45,20.31-.54,3.22-.46,6.21-.38,7.73-3,1.89-3.23,4.32-4.16,7.71-4.63,5.92-.83,10.86-2.78,13.86-9.06,2.1-4.4,5.77-7.88,6.94-13.13,1.1-5,6.61-7.16,9.63-11.13,2.39-3.14,3.45-7.43,7.78-9.75C113.93,67,112.4,68.48,111.43,70.17ZM66.83,125c-1.64,4,.52,7.51,3.54,10.46,4.58-2.38-.27-10.64,7.47-11.37C73.94,125.49,69.35,118.86,66.83,125Z" fill="#9bb0aa"/>
        <path d="M42.22,106.58c-2.21-2.57-6.15-1-8.51-3.71-.85-1-2.85.09-3.77,1.47-1.09,1.63-.17,2.46,1.11,3.66,5,4.63,10.33,4.23,16.08-1.74-1.86-1.22-3.44-.6-5,.35a1.9,1.9,0,0,1,.21.4c0,.07,0,.18-.08.27C42.23,107.05,42.22,106.81,42.22,106.58Z" fill="#9bb0aa"/>
        <path d="M197.94,54.45c-1.71-1.9-3.51-2.21-4.43-4.08-2.24-4.53-4.86-4.65-8.08-.95-.51.57-.91,1.88-.34,1.8,3.87-.51.33,6.69,4.78,4.68A16.37,16.37,0,0,1,197.94,54.45Z" fill="#9bb0aa"/>
        <path d="M80.7,90.26C87.39,86.73,92.34,82.45,97.29,78,93.29,75.86,87.25,80.23,80.7,90.26Z" fill="#9bb0aa"/>
        <path d="M152.52,114.15c-.76,1.47-3,3.22-2,5.14s3.83,1.74,5.61,1.29c2-.5,5.81-1.59,1.51-4.66-1.33-1-1-1.93.21-2.58,1.85-1,2.58-3,1.31-4.13-1.76-1.48-3.34.31-4.47,1.87C154,112,153.37,112.93,152.52,114.15Z" fill="#9bb0aa"/>
        <path d="M5.27,78.34C1.82,77.94-.3,76.63-.06,73c.07-1.17-.49-3-2.09-2.88-2.16.23-1.72,2.63-1.32,3.59,1,2.42-.36,5.2,1.6,7.49.92,1.08-.47,3.95,1.84,4.11,3,.2,1.09-2.57,1.55-3.88C2.2,79.48,4.47,80.82,5.27,78.34Z" fill="#9bb0aa"/>
        <path d="M118.92,44c-3.54,2.52-1.6,6.45-2.78,9.51-.65,1.68-.76,3.89,1.08,5.17,1.16.81,2.15-.38,2.88-1.14,1.47-1.52,2.87-3.21,1.37-5.47C119.87,49.69,119.52,46.88,118.92,44Z" fill="#9bb0aa"/>
        <path d="M122.53,67c1.68-2.27,6.58-1.74,5.93-6.1-.15-1,.55-2.44-1-2.72-1.29-.23-1.93,1.1-2.36,2.09C124.17,62.46,123.39,64.74,122.53,67Z" fill="#9bb0aa"/>
        <path d="M110.27,92.63a3,3,0,0,0,1.4,2.78c1,.73,1.57-.36,2-1.1.8-1.29.12-2.08-1.07-2.45A1.83,1.83,0,0,0,110.27,92.63Z" fill="#9bb0aa"/>
        <path d="M178.35,105.26a2.6,2.6,0,0,0-1,2.45.71.71,0,0,0,.53,0c1.06-.67.69-1.57.35-2.45Z" fill="#9bb0aa"/>
        <path d="M87.58,136.09c.09.06.18.18.27.17a1.59,1.59,0,0,0,.46-.13c-.11-.1-.22-.27-.33-.27S87.71,136,87.58,136.09Z" fill="#9bb0aa"/>
        <path d="M178.9,104.37l-1.31-.21.75,1.1-.1,0,.63-1Z" fill="#9bb0aa"/>
        <path d="M203.26,275.45c-.32.21-.7.35-.85.62s.2.52.32.78c.27-.18.64-.3.77-.55S203.36,275.76,203.26,275.45Z" fill="#9bb0aa"/>
        <path d="M290.37,178.39c2.81.28,5.95-3.36,6.67-1,.62,2,1.33,5.31.33,7.89-1.15,3-4,1-6.05,1.6-1.55.44-4.83-1.91-4.87.2-.09,4.94-5.07,8.24-3.8,13.29.5,2,1.28.14,1.91,0,1.83-.38,2.78.61,2.17,2.11-1.1,2.71-.1,3.72,2.37,4.51s3.89,0,5.76-1.89c2.28-2.31,3.56-5.95,7.33-6.59,2.13-.36.46-.92.21-1.6-1.06-2.88-2-5.8-2.91-8.73a2.13,2.13,0,0,1,.17-1.59c4.16-6.25,4.09-6.22,2.16-13.6-1.05-4,2.21-6.1,4.79-7.46s2.06-2.29.88-3.72a10.46,10.46,0,0,1-2.55-5c-.37-2.22-1.29-4-4-4-1.22,0-3,.38-2.52,1.45,1,2.43-2.21,5.16.84,7.31,1.24.87,3.31,1.09,3.39,3.7-2.76-.18-4.56-1.73-6.21-3.42-.86-.88-1.76-1.85-2.75-.68s-.1,1.92,1.18,2.4c3.59,1.34,2.18,4.36.5,5.11C290.73,170.8,292,175.07,290.37,178.39Z" fill="#9bb0aa"/>
        <path d="M278.22,207.55c-1.08,1.93,1.33,10.5,3.21,11.28,1.41.59,2.33-.1,2.18-1.5-.34-3.17-.88-6.32-1.44-9.47a2.33,2.33,0,0,0-1.93-1.85C279,205.76,278.68,206.74,278.22,207.55Z" fill="#9bb0aa"/>
        <path d="M284.28,183.37c-2.64,2.22-4.2,5.57-8.2,3.88-1-.43-1.66,1.4-.44,2.27,1.48,1.06,1.57,2.36,1.26,3.93C281.65,192.17,285.11,189.94,284.28,183.37Z" fill="#9bb0aa"/>
        <path d="M286.83,178.13c-.67-.34-1.49-.84-1.87.15a2.56,2.56,0,0,0,.29,2.05c.48.7,1.31.63,1.81-.19A1.43,1.43,0,0,0,286.83,178.13Z" fill="#9bb0aa"/>
        <path d="M216.29,80.66l2.13.15c0-3.94.83-8-.75-11.72-.35-.84-1.16-2.7-2.83-2.25s-1.38,2.16-1.61,3.33c-.79,4.06-1.34,8.17-1.95,12.27-.29,2-.16,4.25,2.26,4.42,3.17.24.58-2.59,1.51-3.74a14.18,14.18,0,0,0,1.35-2.49l-.87-1.74.83-.18C216.34,79.36,216.32,80,216.29,80.66Z" fill="#9bb0aa"/>
        <path d="M226.77,34.78c2.65-2.28,3.74-4.42,3.37-7.61-.53-4.71,1.5-9.09,2.63-13.57.33-1.31,1.13-2.69-.52-3.38s-2.66.79-2.93,1.94C227.6,19.36,223.19,26.24,226.77,34.78Z" fill="#9bb0aa"/>
        <path d="M215.51,92.74c-2-1.43-3.25-4.21-5.75-3.27s-1.2,4.14,1.5,3.77C212.57,93.05,213.68,94.53,215.51,92.74Z" fill="#9bb0aa"/>
        <path d="M198.67,93.21c1.27-2.17,3.42-3.56,2.44-6.1-.29-.77-1.41-.51-1.88,0C197.74,88.74,196,90.42,198.67,93.21Z" fill="#9bb0aa"/>
        <path d="M213.24,95.53c-2.8,1.08-4.53,3-7,1C210.31,101.69,210.38,101.69,213.24,95.53Z" fill="#9bb0aa"/>
        <path d="M311.34,98c1.2.53,3.14,2.18,3.64.07.58-2.46-3.88-2.24-4-5.07,0-.49-1.37-.4-1.77.42C308.06,95.71,309.55,96.87,311.34,98Z" fill="#9bb0aa"/>
        <path d="M312.68,134.94l.07.68c0-.11.14-.24.11-.31a1.14,1.14,0,0,0-.29-.34Z" fill="#9bb0aa"/>
        <path d="M77.84,124.12c-3.9,1.37-8.49-5.26-11,.91-1.64,4,.52,7.51,3.54,10.46C75,133.11,70.1,124.85,77.84,124.12Z" fill="#fefefe"/>
        <path d="M42.22,106.58c0,.23,0,.47,0,.7,0-.09.1-.2.08-.27a1.9,1.9,0,0,0-.21-.4Z" fill="#1c2d28"/>
        <path d="M216.29,80.66c0-.65.05-1.3.07-2l-.83.18.87,1.74Z" fill="#1c2d28"/>
      </g>
    </g>
  </g>
</svg>
