<svg id="Layer_1" data-name="Layer 1" xmlns="http://www.w3.org/2000/svg" xmlns:xlink="http://www.w3.org/1999/xlink" viewBox="0 0 500 300">
  <defs>
    <clipPath id="clip-path">
      <rect x="51.24" y="-320.77" width="384.5" height="300" fill="none"/>
    </clipPath>
    <clipPath id="clip-path-2">
      <rect x="43.39" width="424.17" height="300" fill="none"/>
    </clipPath>
  </defs>
  <title>pic-10</title>
  <g clip-path="url(#clip-path)">
    <path d="M140.06-74.83c86.12-40.37,139.24-12.64,142.38-5.72s8.28,12.66,3.69,14l-7.35,2.18s-12.22,31.54-18.95,40.42S232.56,3.29,236.7,11.66s1.2,17.34,7.17,26.06,17,15.85,22.52,9.27,2-4.7,8.25-11.13S304.31-4.22,310.38-16.4s7.91-22,11.08-22,7.32,3.65,12.06-.72.07-6.87,6.77-8.61,8.53-5.58,8.53-5.58l7.57-5.81s25.06,1.51,36.29-28.07.05-44.35.05-44.35l4.81-5.44-14.15-6.77-10.82-2-1.38,2.89s-118.72-61.27-149.4-131.56l-69.21,85.13S93.92-53.2,140.06-74.83Z" fill="#b3b3b3"/>
  </g>
  <g clip-path="url(#clip-path-2)">
    <g>
      <path d="M153,22.9c-9.11-3.28-13.12-8.39-20.42-8,0,0-14.22-.73-15.31,8s2.16,12.06-3.3,17-22.6,21.32-27,37-6.57,39.39-6.57,39.39S63.32,134.13,59.31,140s-2.38,23.36,0,25.51-2.5,3.69,3.17,5.08,4.7,2.75,7.24,5.3S75.79,179,80.49,179s13.31,0,15.65,1.17,3.13,1.37,5.48,4.7,3.15,4.3,3.34,7,3.25,36,0,49.91c-3,12.67-3,58.2-3,58.2H456s-31.61-65.24-31.61-72.29-5.28-20.55-17.61-26.42-28.18-18.2-29.94-21.73-4.11,4.7-7.64-10.56,2.16-15.86-6.65-22.51a188.77,188.77,0,0,1-19.18-16.05c-5.48-5.28-4.5-4.11-10-11.74s-8.81-6.07-12.72-19.77-5.48-11-7.83-15.85-.79-3.92-4.31-8.42-8.81-11.35-11.74-15.26-4.31-5.48-9.79-8.61-9.78-5.09-13.5-9.59-5.09-7.64-11.16-10-9.39-2.34-17.61-2.93-1.37,1-14.87-1.18-15.27-2-20-2.15-6.46-3.13-20.74-3.13-16.25-2-22.71,0A36.49,36.49,0,0,1,153,22.9Z" fill="#bca537"/>
      <path d="M309.72,300H456s-31.61-65.24-31.61-72.29-5.28-20.55-17.61-26.42-28.18-18.2-29.94-21.73-4.11,4.7-7.64-10.56,2.16-15.86-6.65-22.51a188.77,188.77,0,0,1-19.18-16.05c-5.48-5.28-4.5-4.11-10-11.74s-8.81-6.07-12.72-19.77-5.48-11-7.83-15.85-.79-3.92-4.31-8.42-8.81-11.35-11.74-15.26-4.31-5.48-9.79-8.61-9.78-5.09-13.5-9.59-5.09-7.64-11.16-10-9.39-2.34-17.61-2.93-1.37,1-14.87-1.18-15.27-2-20-2.15-6.46-3.13-20.74-3.13-16.25-2-22.71,0A36.49,36.49,0,0,1,153,22.9c-9.11-3.28-13.12-8.39-20.42-8,0,0-14.22-.73-15.31,8s2.16,12.06-3.3,17a140,140,0,0,0-15.92,17c10.13,5.65,2,6.49,3.41,9.64,1.49,3.34,4.09.37,6.18.37s2.37,3.34,7.94,9.66,8.18,4.09,13.38,1.86,5.95-8.92,9.25-13.49,5.25.48,11.79,0,11.67.85,10.65,10.12,3.24,1.51,15.33,10.82,6.87,1.84,12.81,8.53,10.78,5.95,12.27,10.59-1.49,11.71-1.49,11.71,7.81,4.46,23,4.83,20.07,2.23,14.64,10-10.18,6.32,3.57,6.31,11.15,4.84,11.21,8.93-5.26,4.46-20.87,10.41-5.2,5.2-1.49,11.89,1.49,5.94.38,9.54-4.46,4.95-14.47,9.41-4.86,4.83-19.35,10-9.67,4.45-13.14,12.26,15,8.92,11.28,13.75-.74,3.34,1.86,10,7.43,5.57,15.23,5.94,16-2.23,60.21-5.2,5.2,3.71,3.71,8.92-1.11,5.94-7.43,12.63-18.21,7.81-16.48,16.72,9.42-.37,24.66-.37,29,0,43.48,3.72c6.38,1.64-4,5.76-6.59,10.14C309.79,292.19,312.84,298.18,309.72,300Z" fill="#9b6503"/>
      <path d="M139.2,98.74c5.14-6.26,16.44-6.85,23.68-6.66s18-.78,20,.78-7,11.16-13.5,11.36-13.28,1-19.75.67C146,104.73,134.94,103.92,139.2,98.74Z" fill="#292100"/>
      <path d="M219.14,53.33c2.24-7.47,8.71-14.68,12-16.43s6-4.23,12.69-4.48,11.95-.49,15.68,2.49,3.24,2.49,9.21,9,6.22,6.47,8,13.19,3.49,7,4.48,10.71,5.23,2.48,1.5,9-4,9.13-5.73,13.9,3.24,6-5,6.76S258.47,95.49,254.73,92s-4.48-5.78-4.48-5.78l5.59,1.5c4.51,1.21,10.34,6,12.58.74s3.62-4.39,2.93-7.8-.19.58-.19-5.14,1.49-5.47,0-8-2,.25-2-5.23,1-.5-1.5-7.47-.25-6.22-4.73-9.2-6.08-4-10.88-6.72-7.78-6-12.26-1.75-5.48,3.74-9.71,7.47-4.48,5.48-5.22,7.22,1.24-.75-3,3S219.14,53.33,219.14,53.33Z" fill="#5e3101"/>
      <path d="M244,50.1c-4.23,0-8.46-5.48-5.47,0s4.23,5.22,3.23,7.71-3.48.5-2.74,4.73-2.75,6.47-1.5,6,4.66-2.39,6.48-2.87,2.24-3,6,2.94,3.34,7.38,3.74,5.9-.25-.74,1-3.48.75-2.24,2.49-3.73,5.23,5.71,3-2.37-1.91-8.76-4.44-11-4.27-3.77-4.27-3.77Z" fill="#654102"/>
      <path d="M71.45,138.26c2.09-6.55,6.2-15.06,13-18.88s8.11-7.63,15.51-11.74,3.57-1,12.38-2.68,9.9-2,13.41-3,3.91-5,5.38,0,2.35,8.28,0,12.1-6.17,6.75-9.4,9.69,1.47,1.46-9.39,5.57-13.8,2.35-16.73,5-4.13.58-5.59,5.57-.28,4.7-5,7-6.46,7-8.22,2.05A68.07,68.07,0,0,0,71.45,138.26Z" fill="#6a4502"/>
      <path d="M121.68,35.38c4.68-3.4,6.81-3,11.91-5.1s5.32-.64,10.85-3.19,9.36-2.56,5.53-2.56-3.4-2.76-8.51,0-7.12,1.75-10.63,4.81A58.32,58.32,0,0,1,121.68,35.38Z" fill="#5e3101"/>
      <path d="M99.65,92c1.86-4.06-6.89-7.62-13.94-9.83h0c-1,4.3-1.84,8.91-2.55,13.3h0a54.68,54.68,0,0,1,7.48,3C95.94,100.9,97.8,96,99.65,92Z" fill="#292100"/>
      <path d="M63.62,140.19c8-2.4,14.56-3.61,20.12-.43s10.61,6,10.34,10.69-4.09,9.48-8,11.84a33.64,33.64,0,0,1-9.45,4.13,30.75,30.75,0,0,1-10.43.65c-4.25-.53-10.08-1.06-11.14-4.25s-2.56-8-2.39-10.17C53.15,147.18,54.49,142.93,63.62,140.19Z" fill="#342803"/>
      <path d="M68.23,174a22.93,22.93,0,0,1,8,1.43c5.29,2,24.07,2.94,32.29,3.14s10.77-1.18,17.23-1.77,8.61-2.93,12.54-5.87,7.42-7.82,10.16-12.33-1.37-3.32-5.87,0-4.9,4.31-11,10.38c0,0-7.64,3.32-12.33,5.09s-27.4-1.37-33.14-4.24-22.38,1-25.17-2.11a1.59,1.59,0,0,0-.94-.61c-.2,1.34-1.61,2.42,2.49,3.42S67.22,172.56,68.23,174Z" fill="#3d2100"/>
    </g>
  </g>
</svg>
