<svg id="ac31289b-3f4d-4ec8-893c-1e0b72a1fc11" data-name="Layer 1" xmlns="http://www.w3.org/2000/svg" xmlns:xlink="http://www.w3.org/1999/xlink" width="176.389mm" height="105.833mm" viewBox="0 0 500 300">
  <defs>
    <clipPath id="fb9dfec7-83bb-4825-9ecb-62d94ab0beb7">
      <rect x="51.236" width="384.504" height="300" style="fill: none"/>
    </clipPath>
  </defs>
  <title>pic-8</title>
  <g style="clip-path: url(#fb9dfec7-83bb-4825-9ecb-62d94ab0beb7)">
    <g>
      <path d="M392.726,189.216s14.919,4.213,18.219,9.435,9.648,20.552-.586,43.64-22.751,26.3-29.463,24.574-24.473-7.018-24.473-7.018L357,205.679Z" style="fill: #913e41"/>
      <path d="M140.06,245.944c86.119-40.371,139.239-12.646,142.382-5.722s8.273,12.655,3.69,14-7.348,2.184-7.348,2.184-12.228,31.539-18.957,40.421-27.264,27.225-23.126,35.6,1.2,17.333,7.173,26.053,17.023,15.854,22.518,9.276,1.975-4.7,8.246-11.133,29.667-40.084,35.743-52.257,7.906-21.969,11.082-22.01,7.319,3.647,12.057-.727.072-6.869,6.765-8.609,8.531-5.578,8.531-5.578l7.569-5.811s25.065,1.513,36.3-28.073.046-44.35.046-44.35l4.818-5.437-14.15-6.773-10.822-2.022-1.383,2.888S252.466,116.6,221.79,46.312l-69.213,85.132S93.921,267.573,140.06,245.944Z" style="fill: #b3b4b4"/>
      <ellipse cx="147.11" cy="132.218" rx="130.08" ry="69.683" transform="translate(-28.185 223.839) rotate(-69.543)" style="fill: #913e41"/>
      <ellipse cx="145.376" cy="130.099" rx="116.501" ry="56.062" transform="translate(-27.328 220.836) rotate(-69.543)" style="fill: #818181"/>
      <path d="M197.9,149.693a237.6,237.6,0,0,0,8.5-27.792h0s-28.345-11.247-37.454-13.8-23.9,7.536-23.9,7.536-7.549,13.3-8.944,20.762,9.033,23.913,11.724,28.889c2.03,3.752,23.809,12.831,34.93,17.17A233.93,233.93,0,0,0,197.9,149.693Z" style="fill: #b3b4b4"/>
      <ellipse cx="147.597" cy="129.944" rx="18.065" ry="10.252" transform="translate(-25.738 222.816) rotate(-69.543)" style="fill: #751d1f"/>
      <path d="M279.464,116.245s25.936,58.349-28.286,110.416h0a95.369,95.369,0,0,1,18.216,5.194h0c47.283-39.962,32.331-97.985,32.33-97.986-7.4-5.5-14.913-11.395-22.26-17.625Z" style="fill: #913e41"/>
    </g>
  </g>
</svg>
