<svg id="Layer_1" data-name="Layer 1" xmlns="http://www.w3.org/2000/svg" xmlns:xlink="http://www.w3.org/1999/xlink" viewBox="0 0 500 300">
  <defs>
    <clipPath id="clip-path">
      <rect x="2.16" y="49.65" width="298.78" height="250.35" transform="translate(303.11 349.65) rotate(-180)" fill="none"/>
    </clipPath>
    <clipPath id="clip-path-2">
      <rect x="201.22" y="49.65" width="298.78" height="250.35" fill="none"/>
    </clipPath>
    <clipPath id="clip-path-3">
      <rect x="-454.19" y="0.23" width="357.76" height="299.77" fill="none"/>
    </clipPath>
    <clipPath id="clip-path-4">
      <rect x="73.28" y="-349.72" width="353.44" height="296.15" fill="none"/>
    </clipPath>
    <clipPath id="clip-path-5">
      <rect x="-422.45" y="-353.57" width="358.03" height="300" fill="none"/>
    </clipPath>
  </defs>
  <title>pic-4</title>
  <g clip-path="url(#clip-path)">
    <g>
      <path d="M253.55,258.89c10.12,6.59,11.11,7.47,17,14.71s4.83,7.47,11,11.64,7.46,5.92,12.07,7.24,4.05,1.32,5.93,5.46,3.29,3.76-1.1,5.73-6.8,3.08-11.63,4S232.17,328,226.24,328.7s5,1.1-16,4.17a260.16,260.16,0,0,1-51.15,2.85c-14-.65-19.76-1.75-33.59-1.75s-23.19.66-32,.66S80.92,336.91,78.73,336c0,0-60.77,4.12-79.31,3.09s-46.7,1.37-54.94-3.44S2.16,321.5,2.16,300c0-4.46,9.61-17.37,18.17-31.25,5.32-8.64,37.23-30.62,37.23-30.62l13.28-7.29s42.8-14.68,61.8-15c9.93-.14,30.48-29.42,50-38.14,16.15-7.24,36.57,67.59,36.57,67.59Z" fill="#e4ab8d"/>
      <path d="M212.1,77.64c0-1.08-4.89-6.74-10.55-10S193.7,61,180.36,56.83s-20.46-6.21-41.29-2.74-34.16,18.27-34.16,18.27L91,87.52l-4.57,24.3L80.8,146.17l.91,17.53L78.6,179.23,81,196.4l-5.67,6.76S66.59,216.5,66.39,232,110,249.75,110,249.75l67.61-22,17.15-55.31,27-27.4-2.19-56.45Z" fill="#e1bb94"/>
      <path d="M116.1,63.47c-.71,2.68-3.39,5-8.21,10.89S97,84.71,95.58,89.17s.71,5.18-1.43,10.89-2.68,6.25-3.22,11.07a161.47,161.47,0,0,1-5.53,23.2c-1.6,4.28.36,6.07,0,11.25s1.07,11.24,0,16.06-3.39,8.92-3.75,11.6,4.11,12.14,4.11,15.53,2.85,4.29-1.43,8.57-4.75,6-4.75,6-2.32,3.19-8.64,3.6l1-3.81c1.6-5.94,3.31-7.39,3.74-13.93s-.83-3.5.24-10.64,3.93-13.39,3.21-15-3.39-2.32-5-2.85-2.32-.89-2.15-4.64-2-4.11,1.25-8.75,3.93-1.43,5-7.32,3.21-6.6.72-8.74-4.07,1.62-2.93-3.75,2.75-6.61,3.28-8.39,3.39-3.21,1.61-3.75-3.75,2.32-4.64,0S79,109.88,80.76,106s1.61-.53,3.21-5.71,6.43-5.18,1.61-5.18-8.17,2.16-5.51-2.58,3.9-2.59,6.58-7.23,4-3.4,6.82-6.79,2.11-2.67,4.6-4.82,1.43-.35,5.72-3.39,6.06-4.46,7.94-5.89A5.88,5.88,0,0,1,116.1,63.47Z" fill="#e9d3c8"/>
      <path d="M228,163.25c-1.33,4.11-.34,7.4-2.72,10.68s-2,3.48-5.48,6.58-3.29,3.29-6,5.48-2.74,1.28-4.93,4.93S206.3,196,205,198.05s-3.47,3.47-9.5,2.74a28.46,28.46,0,0,1-9.86-2.92l17.9-59.19,22.47-1.1,4.53,16.2Z" fill="#e1bb94"/>
      <path d="M116.1,138.1c2.86,1.46,4.24,5,1.17,3.6s-6.58-1.84-9.49-3.6-5.68-4.29-9.19-3.6-4.9.77-8,1.38-6.74-.61-2.61-2.45a35.3,35.3,0,0,1,12.41-2.6c2,.15,7.2,2.45,10.26,3.83A24.48,24.48,0,0,1,116.1,138.1Z" fill="#e9d3c8"/>
      <path d="M169.8,141.92c4.44,2.14,9.34,3.06,9.8,5.36s-2.45,2.14-4.9.76a34.69,34.69,0,0,0-17-3.82c-8.42.15-9.57.35-11.75-.29-1.15-.33-11.37-4.16-1.84-4.16,3.79,0,8.69-.15,12.67,0S169.8,141.92,169.8,141.92Z" fill="#e9d3c8"/>
      <path d="M146.89,158.9c1.93-3.88,2.67-4.51,8.79-4.05s10.2-.29,12.65,3.41,1.75,2.56,2.21,4.4.91,2.6-2.3,3.37-10.57,1.53-13.78.61-6.52-1.47-7.65-3.83A5.77,5.77,0,0,1,146.89,158.9Z" fill="#fae1d7"/>
      <path d="M113.52,156.36c0-3.4-2.33-5.66-5.62-7.31s-7.77-2.77-10.29-2.35c-3.07.5-7-.66-7,3.91s.44,7.64,5.93,8.74,6.47.89,9.77.55S113.52,159.31,113.52,156.36Z" fill="#fae1d7"/>
      <path d="M205,199.85c1.47,3.67,1.42,2.85,3.09,10.09s2.55,10.54,5.4,13.83,7.9,6.59,14.49,13.17,10.13,8.93,14.94,12.81,12.72,4.32,10.08,12.88-19.81,39.73-23.74,47.63-12.26,12.95-13.14,16.9-1.25,2.56-1.25,2.56-36.95-29.42-51.54-31.25-8.45-15-8.45-15l30.76-38.63s9-5.38,9.73-9.92,8.14-18.18,8.19-21.69-1.38-9.28-1.32-12.88.61-8.64,1.32-8.86S205,199.85,205,199.85Z" fill="#daac3d"/>
      <path d="M206.27,244c6.8.44,7.24-1.1,10.31,0s-1.53,4.54-1.53,5.78.43,2.78,1.53,3.22-2.19-.22-2.85,1.1,4.09-2.42,3.91,4.82-.25,9.22,0,11.09,2.41,7.35,4.19-1.43,2.44-10.31,3.75-10.75,4-.4,5,.68-2.27,4.8,0,4.37,4.46-1.82,5.78-2.12,10.75-4.47,5.27-1-6.37,2-9.66,5.71-4.83,4-7.25,7.91-1.35,7-2.87,7.24-3.27.65-5.69-2.42-.22-3.73-3.95-7-8.78-6.37-6.8,2.19,3.68,12.95,2.72,14.93,1.89,2-1,2-10.75-5.48-10.75-5.48h-3.3s-7.24-.66,4.39,4.17,10.93,6.36,10.63,7.46-.36,1.32,0,3.29-1,1.54,1,3.3,2.85,1.53,2.85,1.53-.44-9-.44-10.31.22-1.54,2.2-2.2,3.73.44,4.61-1.76,2.63-2.85,2.19-4.17,2.86-2.2-.44-1.31,0-2-3.29.88-2,2.85-3.29,2.85.44,1.32-1.32-3.51a35.05,35.05,0,0,1-2-6.81,10,10,0,0,0-2.11-4.15s5,2.18,6.28,4.37-1.39.66,2.7,3.51,6.52,2.42,6.52,2.42l3-.82c1-.27,5.74.38.69,3.67a50.4,50.4,0,0,0-9.22,7.25c-2,2-3.51,2.19-3.73,3.73a20,20,0,0,0-.22,3.51c0,1.32.44.68,0,2.86s.44,3.79-.44,4.3.24,1.52-1.31,2.12-2.47,4.46-4.31-.33-2.17-7-4.53-8.51-.39.44-5.66-3.51-3.36-4-7-5.93-5-2.2-5.21-3.73-2.22.88-.25-1.54,4-4.39,4-4.39-.22-1.32,2.86-2a33.36,33.36,0,0,0,5.26-1.54c1.32-.44,2.2,4.55,2-1.24s-3.07-4.91,0-7.32,4.83-2.2,5.27-4.39,5.49,3.07,7-.44,4.17-3.73.66-8.34-4.39-4.17-5.93-6.37-3.83-5.49-2.9-6.8A2.39,2.39,0,0,1,206.27,244Z" fill="#ba7731"/>
      <path d="M212.1,77.64C217.94,83.19,223,88.57,225,92.07s7.88,21.61,11.39,26.86,7.17,7.68,6.42,10.51.88,7.59-3.21,10.81-6.58,2.87-5.33,7.86.95,8.19.07,9.36,1.39,1.73-1.5,3.49-4.24,0-6.18,2.65,3.6-5-2.53-12.56-10.22-6.13-14.89-2.05-7,10.22-7,12,1.17,3.21,0,8.18-.29,4.67-2,8.76.58,3.5-3.22,7-5,3.51-5.25,6.13-3.8,2.92-1.75,7,5,2.92,3.79,6.72-2.93,3.65-2,7.08-1.7,3.12.89,8.1,2.58,11.67,2.58,14,3,3.5,2.67,7-2.63,7.29-3.5,10.21-.59,3.22-.59,7,2.34,5.55-.29,8.18-3.61,2-4.14,6.13.35,5.54-3.16,8.46,0,2.34-3.5,6.13-8.47,5-14.6,8.18-17,15.14-27.44,13.43a159.79,159.79,0,0,1-18.53-3.88c-4-1.09-2.71-4.58-7.75-4s-12.26,2-17.51,2-4.67,2-11.39-.88-17.81-6.13-21.89-11.38-5.84-5.84-5.84-13.14-.59-12,.29-16.93-.58-6.13,1.75-11.39,3.21-2.92,3.21-7,5.55-15.18,9.34-20.72S83.15,211.77,86.65,210,84,205.35,91,203.31a52.16,52.16,0,0,1,14.89-2.05,13.51,13.51,0,0,1,4.93.78c2.67.71,5.87,3,9.67.68s2.62-2.33,5.83-2.33,4.38-2,8.76,0,5.55,3.21,7.88,4.38,3.22-1.17,5,3.79a33.13,33.13,0,0,0,6.13,10.22c.87.87,4.09,8.46,8.17,8.17s3.8-.87,4.38-7.3-.6-9.23,1.75-10.74,4.09.23,6.72-4.14.38-5.78,3.4-7.27,3.9,0,4.77-2.66a14.84,14.84,0,0,1,2.34-4.38l1.71-6.38c1.91-7.15,4.42-5.3,3.84-13.76s-4.09-9,.58-12.27,6.5-1.63,4.67-5.83-2.63-5.84-2.92-10.51.88-4.09-.87-8.76-7.89-3.21-1.76-7.3,5.44-1.51,6.72-6.29-1-2.79,2-7.44,5.88-2.91,7.34-9-.58-4.67,1.46-9.35,8.43-.45,3.8-7.88C209.34,81.09,212.1,77.64,212.1,77.64Z" fill="#f0e1cc"/>
      <path d="M147.29,239.19c-6.13-6.13-8.27-7.2-13.48-12.41s-7.5-8.27-10.26-8.72-8.42-1.23-13.17-2-7.2,1.08-10.11,4.29a40,40,0,0,1-8.88,7.05c-1.68.92-5,3.06.62,2.14s4.44-1.38,7.5-1.07a32,32,0,0,1,7.66,1.53c3.67,1.07,1.22,2.14,6.12,2.76s4.76-2.61,7.89-.62,2.83,2.91,5.89,3.37,2.76-1.07,6.89.46,3.52,1.84,8.58,3.22,7.5,3.67,6.13,1.84Z" fill="#e1bb94"/>
      <path d="M127.76,228.8c-5-2.31-8.69-5.59-14.34-5.35s-12.84,0-14.48-.82a2.83,2.83,0,0,1-.58-.37,26.47,26.47,0,0,0,1.91-1.91c2.91-3.21,5.36-5,10.11-4.29s10.42,1.54,13.17,2,5.06,3.52,10.26,8.72c1,1,1.89,1.86,2.72,2.62C135,230.53,131.76,230.66,127.76,228.8Z" fill="#72382c"/>
      <path d="M94.86,225.12c1.36-1,4.38-3.8,5.73-5.11,6.94-.08,21.85,3.88,25.22,4.56s8,2.89,9.77,5.66c1.18,1.84,1.93,5.08.78,6.08a2.39,2.39,0,0,1-.64.35c-.48-.2-1-.42-1.76-.69-4.13-1.53-3.82,0-6.89-.46s-2.75-1.38-5.89-3.37-3,1.23-7.89.62-2.45-1.69-6.12-2.76a32.55,32.55,0,0,0-7.66-1.53,7.4,7.4,0,0,0-3.66.3A16.28,16.28,0,0,1,94.86,225.12Z" fill="#844234"/>
      <path d="M155.68,154.85c2,.15,3.73.17,5.29.26a9.36,9.36,0,0,1,1,4.21A8.42,8.42,0,0,1,157.5,167a13.6,13.6,0,0,1-3-.4c-1.57-.45-3.15-.81-4.49-1.33a9,9,0,0,1-2.18-6,9.58,9.58,0,0,1,.39-2.7C149.5,154.78,151.05,154.5,155.68,154.85Z" fill="#503338"/>
      <path d="M96.51,159.35a10.38,10.38,0,0,1-2.78-.93A9.35,9.35,0,0,1,93.66,147c1.24-.17,2.67-.09,4-.3a16.24,16.24,0,0,1,6.88,1,9.23,9.23,0,0,1,1.42,5,8.51,8.51,0,0,1-4,7.49A39.58,39.58,0,0,1,96.51,159.35Z" fill="#503338"/>
      <path d="M121.18,159.9c-.56,3.56-2.3,6.86-3,10.16a17.51,17.51,0,0,0-.55,2.43c-.13.84-.19,1.68-.26,2.6a7.91,7.91,0,0,1-.74,2.92,7.7,7.7,0,0,1-.83,1.29c-.27.34-.52.66-.76,1-.47.68-.92,1.47-1.52,2.24a19.93,19.93,0,0,1-1.91,2.07c-.69.64-1.28,1.17-1.85,1.8a23.46,23.46,0,0,0-1.6,2,13.66,13.66,0,0,0-2.21,4.37,3,3,0,0,0,0,1.91c0,.12.16.19.21.3l.47.48c.32.33.63.67.94,1,.62.7,1.16,1.49,1.66,2.15.25.33.52.66.79,1a9.86,9.86,0,0,0,.86.85,9,9,0,0,0,4.18,2.15c1.4.27,3-.33,4.6-1l2.43-1c.42-.18.84-.36,1.31-.52s.87-.23,1.31-.35l5.18-1.34,1.29-.33.33-.09a4.55,4.55,0,0,1,.54-.08,3.81,3.81,0,0,1,.89.08c.5.1.9.22,1.26.25a2.77,2.77,0,0,0,.84,0c.4,0,.83-.54,1.18-1.33a11.14,11.14,0,0,0,.78-2.39,7.36,7.36,0,0,0,.08-2.52,4.9,4.9,0,0,0-1-2.38,5.11,5.11,0,0,1,1.53,2.24,7.81,7.81,0,0,1,.42,2.76,12.66,12.66,0,0,1-.38,2.79,5.92,5.92,0,0,1-.55,1.44,2.86,2.86,0,0,1-1.41,1.28,3.31,3.31,0,0,1-1.79.13c-.51-.09-1-.21-1.34-.28a2.15,2.15,0,0,0-.43-.05c-.06,0,0,0-.11,0l-.32.08-1.28.33-5.12,1.32c-.42.11-.87.22-1.27.34s-.76.29-1.16.46l-2.46,1.06a22.75,22.75,0,0,1-2.64.92,7.18,7.18,0,0,1-3,.17,10.88,10.88,0,0,1-5.18-2.62,34,34,0,0,1-3.51-4.17c-.27-.32-.56-.63-.86-.94l-.45-.47a4.15,4.15,0,0,1-.56-.78,4.75,4.75,0,0,1-.22-3.29,15.64,15.64,0,0,1,2.54-5.08,27.4,27.4,0,0,1,1.74-2.16c.62-.68,1.35-1.34,1.95-1.9a17.27,17.27,0,0,0,1.71-1.84c.49-.63.92-1.38,1.46-2.16.26-.38.55-.76.83-1.12a5.78,5.78,0,0,0,.61-.94,5.7,5.7,0,0,0,.53-2.21,24.16,24.16,0,0,1,.88-5.45C117.65,166,119.83,163.21,121.18,159.9Z" fill="#e29d7c"/>
    </g>
  </g>
  <g clip-path="url(#clip-path-2)">
    <g>
      <path d="M406.52,187.55c4,1.08.06-.89,10.66,5s20.81,8.18,24.34,12.53,9,15.73,14.13,21.62,4.58,6.73,14.78,15S477,251.25,485,260.2c9,10,15.77,39,28.73,44.89s19.62-8.52,26.69-2.63,11.38,3.93,18.84,13,16.49,26.3,24.73,36.51,19.23,25.91,19.23,25.91-480.26.59-479.67,0,37.29-53.39,54.56-64,27.48-19.62,40-23.55a169,169,0,0,1,24.34-5.53s-5.5-7,7.45-27.83,17.57-22.05,21.17-23,5.53.24,6.7-6,3.37-10.37,5.81-15.39,51.11-39.12,51.11-39.12Z" fill="#0b0b13"/>
      <path d="M399.25,201.28c6.16,1.08,12-.27,16.76,7.28s4.71,10.25,7.06,21.85,6.67,14,6.67,24.55,2.83,22.38,2.79,31.8.82,15.31,0,25.91,2.32,10.59-4.36,20-4.31,13.34-12.56,18.05-3.15,7.46-13.55,5.89-12.75-.79-18.64-5.5-10,3.14-13.05-10.2,1.2-11.39-.53-20-.15-5.5-6-16.88-4.71-12.31-7-16.09-2.93-1.54-5.52,8.14-12.15,7.95-12.16,20.51S342.31,357.81,327,359s-28.65,2.36-33-5.1-5.52-5.49-6.7-15.7-4.54-13.35-2.86-25.91,2.86-7.85,2.08-22-3.37-20.41-2.08-26.3,5.61-2,2.86-11.38-4.29-20.81-3.32-27.09,5.89-20.44,5.89-20.44l49.26-17.79Z" fill="#d8d0bb"/>
      <path d="M397.31,204.63c3,10.69,9.27,41.7-.54,47.19s-18.84,14.53-22.37,19.63-3.93,11.38-11,12.95-17.41-2.35-23.23-5.88A104.39,104.39,0,0,1,327,269.09c-4.37-3.53-9.84-6.67-10.83-12.16s-3-14.63-4.58-16.34,70.31-64.53,70.31-64.53Z" fill="#d5bd8d"/>
      <path d="M404.08,78.88c-2.56-2-21.53-14.62-30.88-16.86s-19.91-4.27-29.26-4.27S296.8,69.94,296.8,69.94l-39,41.45L270,178.44l19.84,26.64s19.17,48.13,41.12,44.07,30.91-5,47.54-18.69c18.76-15.44,28-42.91,28-42.91l6.1-6.47,12.29-25,7.62-37.82S418.85,90.44,404.08,78.88Z" fill="#e2c8af"/>
      <path d="M404.08,78.88c-7.72.81-15.44-.81-23.57,0s-12.75-2.84-17.22.82-13.53,2.69-9.6,6.37c10,9.41,6.1,4.6,14.23,8.25s13.81,2,15.85,6.1,1.71,12.19,1.71,12.19,6,7.31,7.63,12.19,3.25,10.16,4.88,8.53,1.22-5.28,6.09-5.28,5.78-1.94,8.94,0,4.47,1,5.69,5.58,4.47,3,4.07,11.08.44,5-2.14,14.6a96.74,96.74,0,0,1-8,20.35c-1.32,2.64-4.08,5.24-5.27,6.7-1,1.23-.9,1.65,2.19.55,6.74-2.37,7.55-6.84,9.17-7.66s-.33-2,4.1-2,9.31.41,10.53-3.65.82-6.91,1.63-11.38,0-8.13,1.22-10.57,1.62-2,3.66-4.06-.07-1.54,2-5.69,3.25-3.25,4.06-6.5,3.25-2,2.44-8.13,0-8.94-3.25-13.82-3.25-7.72-5.69-9.34-.81-4.07-2.44-8.94,1.63-5.29-4.06-8.54-6.7-6.46-11.68-4.85-3.67,2-7.67.88A67.75,67.75,0,0,1,404.08,78.88Z" fill="#1d160c"/>
      <path d="M327.28,68.32c8.53,1.62,14.63,2.43,15.85,4.47s3.66,2.84,3.66,9.75.4,8.94-5.29,11-2.84,1.63-14.22,2-11-2.44-17.07,1.22-5.69,4.47-13.81,6.5-6.1,1.63-14.63,4.47-11.38-.4-12.19,4.88,1.21,4.06,1.62,8.94,1.22,4.81,1.22,11.55a53.3,53.3,0,0,0,1.63,14.05c.81,3.25,2.43,5.28,2.43,8.13s2,6.09,3.25,9.75,1.22,3.66,1.22,9.75-2.84.41.41,10.16a72.44,72.44,0,0,0,7.31,15.85s5.69,7.72-1.62,2.44-9.73-13.41-17.66-21.54-13.63-15.44-15.26-20.32-2-6.5-4.06-11.37-.21-11.68,0-12.46-2.85.6-4.47-4.44-1.63-5.08-2.88-9.73-2.88-6.7,0-10,2.88,1.63,2.88-3.25-2.44-5.69,0-11.38-.41-11,6.5-11,9.35,1.22,14.22,0a27,27,0,0,0,11.38-6.09c2-2-.81,4.87,8.54-6.1s7.72-11.38,11-13,18.69.4,21.54,1.62S327.28,68.32,327.28,68.32Z" fill="#1d160c"/>
      <path d="M343.86,149.43c-1.63-6.11,8-8.24,12.58-8s11.27,0,12.79,4,.22,8.14-3.9,9.22-7.37,2-11.28.87S345,153.63,343.86,149.43Z" fill="#fff"/>
      <path d="M296,153.57c6.94-.09,11.49-1.2,13.44,2.42s1.3,6.66-3.47,8.4-6,2.28-12,.86-8.84-1.44-9.49-4.51S288.15,153.67,296,153.57Z" fill="#fff"/>
      <path d="M313.73,150.29a43.43,43.43,0,0,1,3.43,8.21,55.08,55.08,0,0,1,1.94,8.73,22.55,22.55,0,0,1,.22,4.51,9.34,9.34,0,0,1-.4,2.3c-.24.68-.44,1.38-.63,2.09a42.55,42.55,0,0,0-1.3,8.67,23.22,23.22,0,0,0,.18,4.34,7.11,7.11,0,0,0,1.59,3.77,15.35,15.35,0,0,0,1.72,1.27,18.79,18.79,0,0,0,1.85,1.14,5.51,5.51,0,0,0,1.93.68,2.75,2.75,0,0,0,1.86-.43,7.11,7.11,0,0,0,1.54-1.42c.45-.56.88-1.17,1.36-1.76a13.84,13.84,0,0,1,3.36-3,11.63,11.63,0,0,1,4.25-1.51,3.31,3.31,0,0,1,2.07.87,8.36,8.36,0,0,1,1.48,1.67,8.23,8.23,0,0,0-1.57-1.55,3.07,3.07,0,0,0-2-.72,11.31,11.31,0,0,0-4,1.65,13.51,13.51,0,0,0-3.12,3,13.87,13.87,0,0,1-3,3.43,3.66,3.66,0,0,1-2.37.62,6.38,6.38,0,0,1-2.24-.75,21,21,0,0,1-1.95-1.17,16.33,16.33,0,0,1-1.86-1.37,7.84,7.84,0,0,1-1.89-4.25,22.34,22.34,0,0,1-.23-4.54,43.52,43.52,0,0,1,1.41-8.86c.2-.73.42-1.45.68-2.16a8.72,8.72,0,0,0,.37-2.06,26.66,26.66,0,0,0-.12-4.37,54.77,54.77,0,0,0-1.65-8.67A47.94,47.94,0,0,0,313.73,150.29Z" fill="#886d50"/>
      <path d="M312.18,184.74a12.41,12.41,0,0,0-2.89,3.55,4.54,4.54,0,0,0,.1,4.12,12.66,12.66,0,0,0,2.75,3.53,2.1,2.1,0,0,0,1.89.63,11,11,0,0,0,2.09-1,8.29,8.29,0,0,1-1.95,1.42,2,2,0,0,1-1.32.1,3.57,3.57,0,0,1-1.16-.56,11,11,0,0,1-1.8-1.66,9.6,9.6,0,0,1-1.39-2,5.58,5.58,0,0,1-.62-2.48,5,5,0,0,1,.71-2.45A8.91,8.91,0,0,1,312.18,184.74Z" fill="#886d50"/>
      <path d="M344.4,208.56a6.22,6.22,0,0,1-.39,3.93c-.81,1.44-2.71,4.69-4.34,4.9s-10.63,1.15-13.34,0-4.87-2.78-5.28-4.61,3-5.08,6.77-5S344.4,208.56,344.4,208.56Z" fill="#bc8b7d"/>
      <path d="M350.18,205.87c-.14-1.21-10-1.29-15-.79s-5.4-1.6-9.11.5-8.57,1.12-9.7,3.71,1.68,3.66,4.28,3,8.76-1.52,12.51-2.17,4.41.91,9-.84S350.43,208.08,350.18,205.87Z" fill="#916751"/>
      <path d="M368.16,124.14c-7.34-2-12-2.08-17-.26s-15.55,5.09-11,5.87,7.91-1,12.73-2.61,2.74-2.21,9.78-1.43S372.8,125.39,368.16,124.14Z" fill="#1d160c"/>
      <path d="M299.32,136.27c-11.86.52-16.55,1.3-17.34,3.65s.66,3.26,3.78,2.09,7.44-2.87,11-3.13,11.08,1.17,7.82-.79S299.32,136.27,299.32,136.27Z" fill="#1d160c"/>
      <path d="M356.44,141.4c3.11.15,7.24.09,10,1.33a15,15,0,0,1,.26,2.8,13.69,13.69,0,0,1-3.74,9.69c-3.08.75-5.8,1.15-8.94.28-1.37-.39-2.9-.74-4.36-1.21a14.07,14.07,0,0,1-2.9-8.76,16.87,16.87,0,0,1,.14-2A19.81,19.81,0,0,1,356.44,141.4Z" fill="#412c19"/>
      <path d="M292.23,154a21.17,21.17,0,0,1,3.72-.38c4.39-.06,7.82-.52,10.24.07a14.19,14.19,0,0,1,.94,5.16,14,14,0,0,1-1.11,5.54l-.1,0c-4.77,1.73-6,2.28-12,.86l-1.14-.26a13.77,13.77,0,0,1-1.41-6.19A14.47,14.47,0,0,1,292.23,154Z" fill="#412c19"/>
    </g>
  </g>
  <g clip-path="url(#clip-path-3)">
    <path d="M-191.89,254.84c9.3,1.56,3.21.29,26.81,5.88s21.83,3.15,31.22,8,11.42,5.65,19,11.74,8,5.24,14.47,12.94c8.37,10,1.36,7.2,15.07,14.05s12.08,4.73,26.8,10.57S-5.95,368.58-2.15,383.3,6.23,413,8.51,414.51s-310,0-310,0H-553a368.42,368.42,0,0,0,25.91-38.8c11.18-19.82,11.18-20.32,18.8-37.09s12.43-13.52,26.15-23.17,19.29-3.81,32.09-20.29c11.27-14.51,30.08-30.43,36.22-32.93,13.2-5.39,22.52-11,33.13-15.07s35.55-12.22,35.55-12.22Z" fill="#b5afb1"/>
  </g>
  <g clip-path="url(#clip-path-4)">
    <path d="M265.56-338.65c11.13,0,4.33-9.27,22.87,0s25.35,9.89,34.62,22.88,16.7,2.47,18.55,16.69,1.86,9.89,3.71,24.11,1.85-3.09,1.85,17.93-5.56,13.6,0,21,8.66,6.18,11.13,16.07,9.28,10.51,13,20.4-8,8.65,0,17.31A63.91,63.91,0,0,1,383-163.69s-14.84.62-8.65,8.65,13.6,16.7,13.6,16.7,6.8,9.89,8,13.6,6.8,6.18-2.47,11.13-9.27-3.1-9.27,4.94-14.84,3.71-20.4,0-2.48,1.26-5.57,4.55,3.42,8.82-15.08-4.22-20.79-22.36-26-15.06-10.81,9-7.1,19.28,4.33,7.82,8,14.62,15.45,9.89,3.71,17.92-13.6,10.51-17.31,11.13S287.82-76.52,286-77.76s-8.9-.89-5.38,11.92,9,12.22,1.05,19-17.93,8-12.36,14.22,11.13,1.24,1.85,9.89-16.69-2.47-22.25,8.66-5,11.75-6.19,15.45,0,17.32-5.56,0,3.09-17.31-5.56-17.31-9.82,2.83-16.66-4.46-9.93-7.9-7.45-17.79,2.47-13.6,2.47-13.6l-7.7,2.06s-1-3.92-3.43,4.74-1.24,5.56-3.71,13-4.94,6.18-7.42,11.13a21.34,21.34,0,0,0-2.47,8.65s-4.1,4.55-7.42,1.86-1.12-2.44-5.2-9-4.69-7.13-9-7.74-7.42,2.47-6.18-7.42,8-13,6.18-14.84.59,2.32-1.85-4.33a18,18,0,0,1,0-12.36L156-72.64l-4.34-16.19c-1.05-3.93-4.75,4.89-4.75-5.62s5.56-11.75,0-13-6.18,4.94-8-1.86,4.33-6.8.62-12.36a26.59,26.59,0,0,0-9.89-9.28c-3.09-1.85-3.13-1.86-7.17-2.94s-10.06,4.16-7-1.08,9.27-6.49,7.42-10.81-3.73-2.85-5.57-4.33,6.19-12.23,6.19-16.31-3.89-3.19,0-10.89,10.74-4.55,8.65-11.13-6.18-11.75-3.71-21,7.85-8.78,10.23-17.67,8.11-3.86,7.08-13.24,3.09-22.88,3.09-32.15,1.24-19.78,5.57-25.35,13-12.36,14.84-1.23S157.37-242.82,158-234.79s6.8,27.2,8,30.3-4.94,15.45,3.1,9.89,3.71-12.37,18.54-8.66,19.79,3.09,27.82,7.42-.62,8,9.89,5.57,7.42-2.48,13-2.48,9.39,13,18.29,6.8,12.62-1.23,14.47-12.36-11.06-13.1,9.28-18.55c8.2-2.2,11-3.22,6.65-7.54s-6-7.91-7.27-14.71-3.71-6.19-.62-16.7a116.62,116.62,0,0,1,6.73-17.74s8.73,2.91.69-2.66-11.07-1.67-8-9.27,11.13-14.22,11.13-16.08,3.09-8.65,1.24-13-1.59-4.25-7.25-5.77-6.35-3.5-7.59-5.36,1.24,5.57-8.66-1.85S265.56-338.65,265.56-338.65Z" fill="#b0a494"/>
  </g>
</svg>
