<svg id="b429fca5-a63f-4e73-a045-39437e0a31ec" data-name="Layer 1" xmlns="http://www.w3.org/2000/svg" xmlns:xlink="http://www.w3.org/1999/xlink" width="1344.293" height="194.648" viewBox="0 0 1344.293 194.648">
  <defs>
    <clipPath id="a2514010-e906-4107-9dd9-78a183706838">
      <rect x="3.718" y="31.105" width="168.773" height="141.419" style="fill: none"/>
    </clipPath>
    <clipPath id="fd1f5e44-3ea8-424d-8528-f5a961fe01ff">
      <rect x="1188.582" y="108.515" width="155.711" height="86.133" style="fill: none"/>
    </clipPath>
    <clipPath id="a4abb88f-e367-494b-aa1e-959df26deaf5">
      <rect x="9.537" y="-401.954" width="151.783" height="127.183" style="fill: none"/>
    </clipPath>
    <clipPath id="eb194796-c9be-437d-8d35-1f49ea862045">
      <rect x="-14.436" y="-400.075" width="181.22" height="181.22" transform="translate(303.97 -532.355) rotate(-148.205)" style="fill: none"/>
    </clipPath>
  </defs>
  <title>banner-3</title>
  <g style="clip-path: url(#a2514010-e906-4107-9dd9-78a183706838)">
    <g>
      <path d="M127.46,151.218c4.387.739,1.514.14,12.648,2.774s10.3,1.489,14.727,3.8,5.387,2.667,8.979,5.541,3.768,2.471,6.824,6.106c3.951,4.7.644,3.393,7.109,6.626s5.7,2.233,12.646,4.987,24.783,23.825,26.578,30.769,3.951,14.008,5.029,14.726-146.255,0-146.255,0H-42.9a173.71,173.71,0,0,0,12.225-18.3,151,151,0,0,0,8.869-17.5c3.595-7.91,5.865-6.378,12.336-10.932s9.1-1.794,15.14-9.571c5.316-6.844,14.187-14.353,17.083-15.535,6.231-2.543,10.625-5.19,15.632-7.108s16.767-5.767,16.767-5.767Z" style="fill: #b5afb1"/>
      <path d="M113.769,110.671c.838-3.611.24-2.533,1.078-5.047s1.483-2.874,3.076-5.029,1.832-3.951,3.03-5.028a4,4,0,0,1,3.711-1.289c1.317.331,2.746,1,2.032,3s-1.949,1.937-2.482,3.926l-1.241,4.634c-.473,1.765-.943,1.382-.584,4.835a27.044,27.044,0,0,1,.24,6.925c-.24,3.352-.719,5.986-.12,8.261s-.509,2.194.239,4.989.6,1,1.916,5.547a25.25,25.25,0,0,1,1.317,8.5c0,2.155-1.063-.359.905,4.669s1.13,8.022,2.327,9.459.12.239,3.353,3.113,6.345,2.394,8.859,6.465,3.712,6.585,3.712,6.585,4.909,8.5,4.909,10.176-1.437,16.043-1.437,16.4-14.966,19.515-16.7,19.635-9.159-10.416-11.673-11.493-5.866-2.4-6.944-4.43-2.275-1.676-5.627-10.3-8.141-12.69-14.367-17S78.69,167.282,74.978,164.289s-7.782-5.627-10.056-7.543a41.233,41.233,0,0,0-5.508-3.712L99.178,107.18Z" style="fill: #c39a7e"/>
      <path d="M51.023,40.313c-.642.214-5.992,0-6.848,4.28s-1.5,3.639-1.285,6.849a11.156,11.156,0,0,1-1.284,5.778L38.4,60.431l-.856,4.708-1.284,3s1.5-.214,1.5,4.494,1.07,4.28,1.5,7.063-1.07,2.354-1.07,5.136-3.638,2.568.214,4.5,7.491,1.5,7.7,2.14-1.07,1.284,1.5,2.568,2.14-6.635,4.494-8.561S61.082,69.42,61.082,69.42L72,78.409l19.69,7.062s15.41-5.778,16.052-5.778,12.2,40.664,12.2,40.664l4.553,16.991,8.075-2.164c3.419-.916,3.851-4.554,5.35-6.695s5.136-4.066,5.136-4.066-.856-2.568,2.14-5.137,2.715-1.516,3.468-4.326,5.521-2.331,1.883-7.028-3.425-3.627-3.639-7.051,2.783-1.712,0-4.5-3.852-2.568-3.852-3.852a6.641,6.641,0,0,1,.642-2.568,3.29,3.29,0,0,0-.214-4.709,20.768,20.768,0,0,1-3.638-6.206s3.21-3,1.284-10.273-1.712-6.849-4.066-10.487-2.783-3.425-4.281-5.565a27.946,27.946,0,0,0-4.708-5.778c-2.355-2.141-3.067-1.095-6.063-3.021s-1.916-2.731-4.7-3.374-2.667-1.445-7.59-1.445-8.83-3.29-11.826-2.219-3.429.083-4.713-1.2-1.614-2.536-6.109-1.037-9.51,1.809-10.794,2.88-1.927,3.21-4.5.428a47.629,47.629,0,0,0-3.852-3.853,56.983,56.983,0,0,0-5.779.856,28.8,28.8,0,0,0-5.778,1.927c-1.284.428-2.354,1.5-3.425,1.926A5.574,5.574,0,0,0,51.023,40.313Z" style="fill: #2e110d"/>
      <path d="M47.6,94.032v7.7a31.688,31.688,0,0,0,4.28,15.409l43.661,5.565L99.178,85.9l-3-1.712s1.781,1.654-2.106-.564-5.171-1.79-5.813-3.93-1.284-1.07-1.284-5.137,2.568-4.708-.642-7.919-3.425-4.28-5.779-6.848a12.179,12.179,0,0,0-6.207-3.211,5.243,5.243,0,0,0-4.066,0c-2.568.857-3.638.857-6.849,2.141s5.351-4.709.428,1.07.429,1.712-6.206,5.778S48.669,73.058,47.6,75.2s-1.712.642-2.354,4.5a23.319,23.319,0,0,0,0,7.276Z" style="fill: #c39a7e"/>
      <path d="M95.111,84.772c-.428,7.12,0,5.194,1.285,9.046s-2.32,8.347-2.32,8.347-3.673,3.638-4.315,7.062a20.369,20.369,0,0,1-1.284,4.709c-.214.642-.642,1.5-2.568,2.568a7.52,7.52,0,0,1-3.425,1.284c-1.926.428,1.712-2.568-5.136-4.066s-9.965-2.333-10.764-2.547a8.6,8.6,0,0,0-4.646-.235,42.733,42.733,0,0,0-5.564,1.07c-2.783.642-5.779.428-5.779-1.5s2.717-2.655,0-1.927-3.638.214-4.494,3.425,1.07,1.07-1.5,4.922-2.783,1.712-3.639,4.709-2.782,4.066-2.568,4.922a9.789,9.789,0,0,0,2.782,4.495,5.96,5.96,0,0,1,1.712,4.066s-2.568,2.354-1.284,4.922,1.5-1.284,3.425,4.5-1.07,6.421,2.568,7.705a19.371,19.371,0,0,0,5.778,1.284s-1.284,2.568,7.063,0l8.347-2.568s-1.07,1.5,3.638,2.782,3.821.9,7.063.927,1.5-.285,5.993-2.639,4.066-2.569,6.848-3.853a21.79,21.79,0,0,0,4.343-2.568,26.821,26.821,0,0,1,3.576-7.063,30.756,30.756,0,0,0,3.852-8.989l1.07-5.778S112.019,121,112.447,118a38.919,38.919,0,0,1,1.07-5.136,22.849,22.849,0,0,0,1.926-3,21.827,21.827,0,0,0,2.48-4.691l-5.048-38.542h-13.7Z" style="fill: #2e110d"/>
      <path d="M64.829,82.721A24.376,24.376,0,0,1,74.3,80.536a33.9,33.9,0,0,1,7.849,2.024c.486.242,1.682,1.308-.9.613s-3.39-1.84-6.546-1.55-5.745,1.017-6.959,1.1a15.288,15.288,0,0,0-2.913.684C64.262,83.531,64.829,82.721,64.829,82.721Z" style="fill: #2e110d"/>
      <path d="M45.411,87.468c-1.18-.769,2.793-2.092,4.932-2.238s5.1-.162,5.1.324-.362,1.052-2.528,1.052a15.428,15.428,0,0,0-4.836.862A3.727,3.727,0,0,1,45.411,87.468Z" style="fill: #2e110d"/>
      <path d="M68.911,87.172c3.227-.732,7.561-1.327,9.007-.744s2.443,3.131,1.324,3.762-7.355,1.028-8.918.948-2.906.161-2.906-1.052S67.493,87.494,68.911,87.172Z" style="fill: #fae1d7"/>
      <path d="M48.806,90.086c1.5-.678,5.826-.81,6.069,0s.633,3.082-.452,3.4a20.091,20.091,0,0,1-4.889,0c-.427-.075-1.457-1.763-1.214-2.34S48.806,90.086,48.806,90.086Z" style="fill: #fae1d7"/>
      <path d="M39.311,144.121c-3.116,1.559-4.029,1.8-5.131,4.915A109.1,109.1,0,0,0,30.922,160.3c-1.438,5.753-4.075,8.869-4.794,12.7s1.678,7.431,3.116,15.341,0,12.943,1.678,17.258-7.549,7.43,5.334,11.266,7.812,4.5,14.063,4.528,5.966-.214,14.258,1.224a88.013,88.013,0,0,0,13.574,1.438s6.942,2.158,18.448-4.314,14.861-8.629,17.258-9.348a23.655,23.655,0,0,1,6.377-.494v-8.375s-8.571,3.835-15.5,3.835-10.049,1.918-19.158,4.554-19.957,9.109-26.158,7.91-16.747-1.917-18.9-6.951-5.274-11.745-5.274-17.977-.958-9.588-2.157-15.82-3.356-5.513-1.2-11.266a57.192,57.192,0,0,1,6.5-13.183c2.369-3.356,9.234-8.51,5.083-8.51Z" style="fill: #f0f3a6"/>
      <path d="M52.976,89.539a11.209,11.209,0,0,0-4.17.547s-.243.485-.486,1.062.787,2.265,1.214,2.34c.208.036,1.116.113,2.118.145A6.089,6.089,0,0,0,52.976,89.539Z" style="fill: #422b23"/>
      <path d="M74.558,87.383a6.9,6.9,0,0,0-.093-1.11,43.512,43.512,0,0,0-5.554.9,1.765,1.765,0,0,0-.821.413,5.7,5.7,0,0,0,1.228,3.526c.317.006.655.008,1.006.027.564.029,1.736-.005,3.055-.089A5.815,5.815,0,0,0,74.558,87.383Z" style="fill: #422b23"/>
      <path d="M53.883,115.187c3.362-.224,3.66.449,6.051,0s1.891-.747,4.643-.448a21.931,21.931,0,0,1,6.747,1.793c1.309.672,5.71.9,1.791,1.793s-5.786,1.419-9.3,1.419a41.062,41.062,0,0,1-6.723-.6c-1.27-.149-2.465.15-3.212-.448a1.7,1.7,0,0,1-.523-2.226A2.979,2.979,0,0,0,53.883,115.187Z" style="fill: #c39a7e"/>
      <g>
        <path d="M56.149,85.658c-.567,3.318-2,7.341-1.517,9.04s-.081,5.1-.809,7.283-1.619,4.613,0,6.717,3.381,1.632,5.465,1.073,1.9-.992,4.812-.749,3.812.47,4.3-.582,1.052-1.942.486-3.4-3.427-3.662-5.369-3.095" style="fill: #c39a7e"/>
        <path d="M56.149,85.658c-.275,2.044-.826,4.043-1.175,6.061a7.54,7.54,0,0,0-.109,2.965A9.332,9.332,0,0,1,55,97.847a21.221,21.221,0,0,1-.524,3.087c-.251,1.024-.639,1.99-.89,2.959a6.465,6.465,0,0,0-.228,2.89,4.141,4.141,0,0,0,1.429,2.376c1.428,1.3,3.635.466,5.506-.088a6.93,6.93,0,0,1,1.559-.427,9.092,9.092,0,0,1,1.606-.015c1.044.069,2.069.194,3.073.269a2.17,2.17,0,0,0,1.3-.179c.282-.193.473-.768.7-1.2a2.859,2.859,0,0,0-.018-2.755,6.423,6.423,0,0,0-2.12-2.094,4.009,4.009,0,0,0-2.886-.727,3.949,3.949,0,0,1,3,.54,6.629,6.629,0,0,1,2.354,2.078,3.349,3.349,0,0,1,.482,1.563,3.653,3.653,0,0,1-.331,1.6l-.316.713a1.794,1.794,0,0,1-.512.737,2.641,2.641,0,0,1-1.678.358c-1.053-.028-2.072-.166-3.084-.212a8.423,8.423,0,0,0-1.478.029,6.221,6.221,0,0,0-1.406.408,18.668,18.668,0,0,1-3.054.811,4.562,4.562,0,0,1-1.677-.036,3.527,3.527,0,0,1-1.52-.784,4.9,4.9,0,0,1-1.657-2.834,7.19,7.19,0,0,1,.276-3.211c.279-1.021.674-1.969.923-2.944a21.728,21.728,0,0,0,.608-2.979,8.863,8.863,0,0,0-.019-2.98,7.392,7.392,0,0,1,.215-3.153C55.1,89.633,55.72,87.674,56.149,85.658Z" style="fill: #a07155"/>
      </g>
    </g>
  </g>
  <polygon points="204.411 104.462 162.931 172.476 0 172.476 0 194.648 279.306 194.648 1344.293 194.648 1344.293 104.462 204.411 104.462" style="fill: #212026"/>
  <g style="clip-path: url(#fd1f5e44-3ea8-424d-8528-f5a961fe01ff)">
    <path d="M1271.359,229.86q-16.564,0-33.129-.008c-.447,0-1.059.215-1.3-.286s.245-.935.543-1.312a11.621,11.621,0,0,1,6-3.987,64.274,64.274,0,0,1,9.992-1.731c2.064-.261,4.125-.545,6.186-.833a9.7,9.7,0,0,0,2.619-.793,5.259,5.259,0,0,0,3.249-5.066c.147-3.821.4-7.638.611-11.457.127-2.352.245-4.705.374-7.058q.306-5.6.62-11.207c.128-2.325.249-4.65.378-6.975q.309-5.6.623-11.207c.132-2.435.244-4.872.378-7.307.2-3.653.414-7.305.616-10.958.132-2.38.25-4.761.381-7.141q.307-5.6.624-11.207c.058-1.051.106-2.1.177-3.154.05-.726-.42-.948-.992-1.116-2.343-.686-4.683-1.383-7.025-2.074l-34.8-10.276a2.992,2.992,0,0,0-.32-.092c-.289-.053-.619-.3-.861-.036s0,.582.1.859q4.518,13.5,9.047,26.99,3.906,11.64,7.813,23.278c.438,1.3.534,1.374,1.889,1.383.638,0,1.277-.012,1.914.009.786.026.9.228.485.908a10.943,10.943,0,0,1-3.789,3.555,25.793,25.793,0,0,1-10.7,3.419,56.235,56.235,0,0,1-20.986-1.031,21.854,21.854,0,0,1-8.878-4.392,8.274,8.274,0,0,1-1.43-1.5c-.152-.218-.424-.43-.256-.733.16-.286.489-.221.757-.223,1.36-.01,2.719,0,4.079-.01,1.22-.007,1.343-.092,1.728-1.246q3.954-11.843,7.9-23.688,4.449-13.3,8.9-26.6c.161-.483.735-1.07.032-1.56a1.837,1.837,0,0,0-2.405.13,1.912,1.912,0,0,1-1.48.636,1.843,1.843,0,0,1-.538-3.577,1.613,1.613,0,0,1,2.139.759,2.379,2.379,0,0,0,2,1.36q22.2,4.448,44.389,8.93c.109.022.218.045.327.065,1.166.22,1.308.1,1.329-1.087a.763.763,0,0,1,0-.083,2.387,2.387,0,0,0-1.463-2.927,4.244,4.244,0,0,1-1.747-5.377,4.47,4.47,0,0,1,4.729-2.787,4.493,4.493,0,0,1,.85,8.738c-1.209.406-1.281.515-1.172,1.784.2,2.3.19,2.322,2.354,2.963q16.24,4.806,32.488,9.591c3.619,1.067,7.243,2.12,10.854,3.212a1.784,1.784,0,0,0,1.839-.26,1.819,1.819,0,0,1,2.764.651,1.891,1.891,0,0,1-.859,2.479,1.722,1.722,0,0,1-2.485-1.061c-.306-1.254-1.216-1.278-2.137-1.416-.483-.073-.675.172-.556.643.062.241.142.479.221.715q7.054,21.075,14.111,42.149c.917,2.735,1.854,5.464,2.782,8.2.421,1.24.51,1.3,1.85,1.312,1.082,0,2.165-.01,3.247.008.37.006.856-.137,1.047.3.18.408-.2.72-.417,1.027a13.709,13.709,0,0,1-6.089,4.478,31.507,31.507,0,0,1-9.854,2.288,58.73,58.73,0,0,1-17.391-.792,24.453,24.453,0,0,1-10.425-4.586,10.407,10.407,0,0,1-1.988-2.114c-.3-.421-.273-.646.323-.628.86.026,1.72.023,2.58.021,1.427,0,1.509-.062,1.956-1.4q5.1-15.279,10.193-30.558,3.283-9.828,6.6-19.647c.1-.289.19-.58.275-.873a.684.684,0,0,0-.6-.972c-.218-.046-.434-.1-.651-.141l-39.987-8.033c-.217-.043-.437-.077-.653-.128-.667-.159-.946.14-.916.782q.1,2.077.213,4.152c.144,2.574.3,5.146.444,7.72q.314,5.562.622,11.124.192,3.486.377,6.974.312,5.686.625,11.374c.186,3.459.354,6.92.544,10.379.2,3.57.414,7.139.614,10.708.134,2.408.25,4.816.383,7.224q.3,5.562.621,11.124c.125,2.242.313,4.482.353,6.725a4.994,4.994,0,0,0,3.336,4.72,20.415,20.415,0,0,0,5.929,1.219c3.521.451,7.06.779,10.541,1.514a14.637,14.637,0,0,1,6.509,2.8,9.017,9.017,0,0,1,2.1,2.447c.362.623.224.846-.489.89-.3.019-.61.009-.916.009Zm44.22-40.129q7.614,0,15.23,0c1.256,0,1.372-.167.968-1.37-.379-1.131-.792-2.25-1.171-3.381q-4.5-13.411-9-26.825-2.8-8.365-5.592-16.735c-.081-.242-.071-.643-.418-.632-.27.009-.268.379-.365.6-.044.1-.072.21-.108.315q-3.43,10.216-6.86,20.434-4.382,13.1-8.742,26.21c-.425,1.276-.352,1.385.992,1.386Q1308.047,189.736,1315.579,189.731Zm-89.86-22.642q7.654,0,15.308,0c1.044,0,1.162-.135.847-1.112-.647-2-1.342-3.994-2.011-5.992q-6.855-20.47-13.714-40.939c-.108-.323-.1-.872-.489-.867s-.373.555-.481.88q-7.77,23.192-15.522,46.387a9.7,9.7,0,0,0-.284.956.482.482,0,0,0,.459.645,8.473,8.473,0,0,0,1,.045Q1218.273,167.092,1225.719,167.089Z" style="fill: #fff"/>
    <circle cx="1315.639" cy="186.209" r="10.982" style="fill: #fff"/>
  </g>
  <g>
    <path d="M244.442,160.88v.585l-.078.235-.957.566a1.217,1.217,0,0,0-.41.332,6.706,6.706,0,0,0-.147,1.162q-.087,1.047-.088,2.549a34.656,34.656,0,0,0,.215,3.692l-.117.195a30.485,30.485,0,0,1-11,2.051,18.209,18.209,0,0,1-7.832-1.641,12.97,12.97,0,0,1-5.547-4.863,13.958,13.958,0,0,1-2.051-7.656,13.465,13.465,0,0,1,4.619-10.743q4.62-3.984,12.061-3.984a24.855,24.855,0,0,1,9.824,1.855l.137.215a46.662,46.662,0,0,0-.82,5.489l-.157.136h-.9l-.156-.156-.1-2.07a6.38,6.38,0,0,0-.127-1.192,1.381,1.381,0,0,0-.42-.459,9.748,9.748,0,0,0-1.806-.9,14.712,14.712,0,0,0-2.92-.9,16.636,16.636,0,0,0-3.145-.283,13.123,13.123,0,0,0-6.328,1.485,9.6,9.6,0,0,0-4.15,4.326,14.13,14.13,0,0,0-1.4,6.318,15.1,15.1,0,0,0,1.5,6.69,11.4,11.4,0,0,0,4.316,4.834,12.188,12.188,0,0,0,6.543,1.738,17.716,17.716,0,0,0,3.311-.322,9.821,9.821,0,0,0,2.783-.909,11.378,11.378,0,0,0,.176-2.519v-2.168a5.565,5.565,0,0,0-.195-1.924,1.307,1.307,0,0,0-.967-.537,23.4,23.4,0,0,0-3.33-.2l-.176-.176v-.859l.176-.176,1.191.039q3.066.1,5,.1,1.113,0,3.262-.117Z" style="fill: #fff"/>
    <path d="M246.649,158.067a17.316,17.316,0,0,1,.84-5.469,12.686,12.686,0,0,1,2.861-4.7,13.864,13.864,0,0,1,4.873-3.34,16.722,16.722,0,0,1,6.446-1.181q6.66,0,10.605,3.623t3.945,9.892a16.177,16.177,0,0,1-1.933,7.93,13.537,13.537,0,0,1-5.537,5.469,16.726,16.726,0,0,1-8.1,1.953,15.706,15.706,0,0,1-5.859-1.065,11.94,11.94,0,0,1-4.561-3.174,12.89,12.89,0,0,1-2.734-4.882A17.4,17.4,0,0,1,246.649,158.067Zm4.063-1.289a18.97,18.97,0,0,0,.771,5.127,13.472,13.472,0,0,0,2.305,4.707,9.9,9.9,0,0,0,3.535,2.92,11.248,11.248,0,0,0,9.951-.43,8.708,8.708,0,0,0,3.594-4.306,16.731,16.731,0,0,0,1.23-6.553,17.455,17.455,0,0,0-1.406-7.129,9.427,9.427,0,0,0-4-4.629,11.651,11.651,0,0,0-5.762-1.445,9.67,9.67,0,0,0-7.48,2.968Q250.712,150.978,250.712,156.778Z" style="fill: #fff"/>
    <path d="M278.094,158.067a17.345,17.345,0,0,1,.84-5.469,12.676,12.676,0,0,1,2.862-4.7,13.846,13.846,0,0,1,4.873-3.34,16.713,16.713,0,0,1,6.445-1.181q6.66,0,10.605,3.623t3.946,9.892a16.178,16.178,0,0,1-1.934,7.93,13.537,13.537,0,0,1-5.537,5.469,16.723,16.723,0,0,1-8.1,1.953,15.706,15.706,0,0,1-5.859-1.065,11.94,11.94,0,0,1-4.561-3.174,12.9,12.9,0,0,1-2.734-4.882A17.43,17.43,0,0,1,278.094,158.067Zm4.063-1.289a19.009,19.009,0,0,0,.771,5.127,13.489,13.489,0,0,0,2.305,4.707,9.912,9.912,0,0,0,3.535,2.92,11.248,11.248,0,0,0,9.951-.43,8.7,8.7,0,0,0,3.594-4.306,16.713,16.713,0,0,0,1.231-6.553,17.455,17.455,0,0,0-1.407-7.129,9.431,9.431,0,0,0-4-4.629,11.657,11.657,0,0,0-5.762-1.445,9.674,9.674,0,0,0-7.481,2.968Q282.156,150.978,282.157,156.778Z" style="fill: #fff"/>
    <path d="M309.188,144.063l.156-.137q3.379.158,4.61.157l9.14-.2a23.269,23.269,0,0,1,6.407.733,10.984,10.984,0,0,1,4.443,2.539,12.068,12.068,0,0,1,2.949,4.2,13.04,13.04,0,0,1,1.006,5.107,15.443,15.443,0,0,1-.918,5.215,15.142,15.142,0,0,1-2.607,4.619,14.225,14.225,0,0,1-3.848,3.291,13.861,13.861,0,0,1-4.326,1.67,23.175,23.175,0,0,1-4.434.42q-1.523,0-5.742-.117-1.388-.039-1.836-.039-1.347,0-3.262.156l-.156-.156v-.644l.156-.2a10.423,10.423,0,0,0,1.319-.732,15.265,15.265,0,0,0,.273-3.418q.108-3.271.108-4.99v-7.168l-.02-4.434q0-1.445-.039-2.353a7.207,7.207,0,0,0-.137-1.3,1.471,1.471,0,0,0-.224-.547.964.964,0,0,0-.41-.264,4.526,4.526,0,0,0-.967-.185l-1.485-.118-.156-.136Zm7.227,25.488a24,24,0,0,0,4.59.391,14.906,14.906,0,0,0,7.275-1.523,9.469,9.469,0,0,0,4.072-4.512,16.206,16.206,0,0,0,1.348-6.738q0-5.528-2.949-8.575t-9.3-3.046a31.655,31.655,0,0,0-5.039.39q-.158,3.2-.156,7.227V159.3l.039,5.742Q316.3,166.72,316.415,169.551Z" style="fill: #fff"/>
    <path d="M350.282,144.063l.156-.137q4.845.158,5.586.157.664,0,5.606-.157l.156.137v.977l-.156.136q-1.349.041-2.08.118a2.532,2.532,0,0,0-1.065.293,1.377,1.377,0,0,0-.439,1.005,17.222,17.222,0,0,0-.108,2.2l-.039,4.492v8.633q0,3.243.039,4.531l.1,3.379h3.984q4.766,0,5.948-.117a8.029,8.029,0,0,0,2.275-.567,15.941,15.941,0,0,0,.615-2.246q.4-1.758.42-2.031l.176-.156h.957l.137.156a29.861,29.861,0,0,0-.323,3.027q-.165,2.247-.166,3.633l-.156.156q-3.711-.117-9.746-.117l-5.7-.039q-1.953,0-3.985.156l-.156-.156v-.644l.156-.2a8.293,8.293,0,0,0,1.329-.761,12.552,12.552,0,0,0,.244-2.52q.128-2.382.127-5.742v-8.379l-.039-3.809q-.019-2.226-.108-2.871a1.762,1.762,0,0,0-.273-.859,1.428,1.428,0,0,0-.713-.352,16.9,16.9,0,0,0-2.6-.215l-.156-.136Z" style="fill: #fff"/>
    <path d="M375.145,143.926l2.442.079q2.4.078,3.144.078.664,0,5.606-.157l.156.137v.977l-.156.136q-1.349.041-2.08.118a2.532,2.532,0,0,0-1.065.293,1.377,1.377,0,0,0-.439,1.005,17.222,17.222,0,0,0-.108,2.2l-.039,4.492v9.043l.02,3.808a26.023,26.023,0,0,0,.117,2.852,1.812,1.812,0,0,0,.283.859,1.463,1.463,0,0,0,.713.362,15.473,15.473,0,0,0,2.6.224l.156.118v.976l-.156.156q-.1,0-3.438-.117-1.388-.039-2.168-.039-.6,0-5.586.156l-.156-.156v-.976l.156-.118a20.149,20.149,0,0,0,2.422-.195,1.787,1.787,0,0,0,.811-.3,1.533,1.533,0,0,0,.332-.791,17.934,17.934,0,0,0,.146-2.695l.02-4.121v-9.043l-.039-3.809q-.019-2.226-.108-2.871a1.762,1.762,0,0,0-.273-.859,1.428,1.428,0,0,0-.713-.352,16.9,16.9,0,0,0-2.6-.215l-.156-.136v-.977Z" style="fill: #fff"/>
    <path d="M395.985,158.36v3.965l.02,3.808a26.616,26.616,0,0,0,.117,2.823,1.843,1.843,0,0,0,.283.9,1.53,1.53,0,0,0,.713.352,15.46,15.46,0,0,0,2.6.224l.156.118v.976l-.156.156q-4.962-.156-5.606-.156-.626,0-5.586.156l-.156-.156v-.976l.156-.118a20.011,20.011,0,0,0,2.432-.195,1.688,1.688,0,0,0,.8-.312,1.584,1.584,0,0,0,.332-.782,17.262,17.262,0,0,0,.146-2.656l.02-4.16v-9.043l-.039-3.809q-.02-2.226-.108-2.871a1.762,1.762,0,0,0-.273-.859,1.428,1.428,0,0,0-.713-.352,16.9,16.9,0,0,0-2.6-.215l-.156-.136v-.977l.156-.137q8.282.119,9.668.118,4.649,0,9.531-.118l.157.137a9.889,9.889,0,0,0-.411,2.217q-.1,1.24-.214,3.506l-.157.156h-.918l-.136-.156q-.04-.137-.176-1.5a13.969,13.969,0,0,0-.313-1.973,18.254,18.254,0,0,0-5.605-.683,35.234,35.234,0,0,0-3.75.234,73.566,73.566,0,0,0-.215,7.422v3.379q2.479.039,3.379.039a27.337,27.337,0,0,0,2.852-.127,6.139,6.139,0,0,0,1.425-.244.781.781,0,0,0,.362-.44,6.8,6.8,0,0,0,.244-1.416l.117-1.054.137-.157h1l.156.176-.137,4.277c0,.5.02,1.211.059,2.149q.078,1.6.078,2.48l-.176.157H404.5l-.137-.157-.078-1.66a6.848,6.848,0,0,0-.195-1.426.864.864,0,0,0-.45-.585,5.932,5.932,0,0,0-1.386-.254q-1.074-.119-3.3-.118Q396.98,158.3,395.985,158.36Z" style="fill: #fff"/>
    <path d="M411.141,144.063l.157-.137q6.7.119,8.574.118,6.4,0,11.406-.118l.1.137a33.311,33.311,0,0,0-.723,5.879l-.117.156h-.957l-.176-.156a2.871,2.871,0,0,0,.02-.312,19.035,19.035,0,0,0-.254-3.165,10.64,10.64,0,0,0-3.409-.712q-2.178-.166-3.271-.166-1.542,0-3.945.214l-.078,3.125-.059,3.575-.059,3.964q2.11.119,3.887.118,1.8,0,3.008-.118a5.048,5.048,0,0,0,1.416-.244.812.812,0,0,0,.312-.488,7.267,7.267,0,0,0,.186-1.279l.078-1.211.156-.156h.9l.156.156q-.039,2.13-.1,4.277l.1,4.395-.156.156h-.9l-.156-.156-.137-1.172q-.175-1.367-.254-1.631a.856.856,0,0,0-.361-.459,3.92,3.92,0,0,0-1.455-.313q-1.172-.117-3.223-.117-1.131,0-3.457.1-.1,1.641-.1,5.469,0,4.1.1,6.035h3.594q4.746,0,5.938-.117a7.8,7.8,0,0,0,2.265-.567,21.407,21.407,0,0,0,.576-2.08q.4-1.631.459-2.041l.2-.137h.937l.156.137a26.9,26.9,0,0,0-.341,2.93q-.166,2.089-.166,3.574l-.137.156q-3.73-.117-9.766-.117l-5.312-.039q-1.856,0-3.867.156l-.157-.156v-.644l.157-.2a10.454,10.454,0,0,0,1.318-.732,15.265,15.265,0,0,0,.273-3.418q.108-3.271.108-4.99v-7.168l-.02-4.434q0-1.445-.039-2.353a7.326,7.326,0,0,0-.136-1.3,1.486,1.486,0,0,0-.225-.547.964.964,0,0,0-.41-.264,4.526,4.526,0,0,0-.967-.185l-1.484-.118-.157-.136Z" style="fill: #fff"/>
    <path d="M445.3,143.926l2.442.079q2.4.078,3.144.078.664,0,5.606-.157l.156.137v.977l-.156.136q-1.349.041-2.08.118a2.536,2.536,0,0,0-1.065.293,1.381,1.381,0,0,0-.439,1.005,17.411,17.411,0,0,0-.108,2.2l-.039,4.492v9.043l.02,3.808a26.571,26.571,0,0,0,.117,2.852,1.823,1.823,0,0,0,.283.859,1.468,1.468,0,0,0,.713.362,15.473,15.473,0,0,0,2.6.224l.156.118v.976l-.156.156q-.1,0-3.438-.117-1.386-.039-2.168-.039-.6,0-5.586.156l-.156-.156v-.976l.156-.118a20.149,20.149,0,0,0,2.422-.195,1.782,1.782,0,0,0,.811-.3,1.525,1.525,0,0,0,.332-.791,17.793,17.793,0,0,0,.146-2.695l.02-4.121v-9.043l-.039-3.809q-.019-2.226-.108-2.871a1.762,1.762,0,0,0-.273-.859,1.424,1.424,0,0,0-.713-.352,16.887,16.887,0,0,0-2.6-.215l-.156-.136v-.977Z" style="fill: #fff"/>
    <path d="M458.915,171.661l-.176-.176v-.9l.176-.157a13.536,13.536,0,0,0,1.9-.136,1.438,1.438,0,0,0,.918-.391,1.826,1.826,0,0,0,.273-.879q.069-.6.137-2.734t.069-3.047V147.462a2.447,2.447,0,0,0-.362-1.475,1.59,1.59,0,0,0-.986-.606,13.379,13.379,0,0,0-2.129-.146l-.156-.156v-.918l.156-.176q2.7.1,3.535.1,1.974,0,3.242-.1l6.231,8.086,9.16,11.484q1.659,2.091,3.379,3.965V152.4q0-.7-.068-3t-.167-2.91a1.392,1.392,0,0,0-.341-.83,1.923,1.923,0,0,0-.918-.323,13.918,13.918,0,0,0-1.826-.127l-.157-.156v-.9l.157-.176q1.581.1,4.511.1,2.676,0,3.887-.1l.176.176v.9l-.156.156a13.243,13.243,0,0,0-1.993.147,1.262,1.262,0,0,0-.879.42,2.236,2.236,0,0,0-.244.859q-.069.567-.136,2.7t-.069,3.066v9.277l.02,5.371q.039,2.637.078,5.293a31.364,31.364,0,0,0-3.379-.82l-1.387-1.641-4.16-5.078-13.242-16.543v14.981q0,.9.068,3.2a25.722,25.722,0,0,0,.166,2.793,1.581,1.581,0,0,0,.254.674,1.469,1.469,0,0,0,.674.342,9.5,9.5,0,0,0,2.139.175l.156.157v.918l-.156.156a27.612,27.612,0,0,0-3.282-.137Q461.1,171.524,458.915,171.661Z" style="fill: #fff"/>
    <path d="M524.442,143.926l.176.176q-.176,1.758-.176,6.133l-.156.156h-.918l-.156-.176-.215-1.8a17.194,17.194,0,0,0-.244-1.768.843.843,0,0,0-.284-.469,3.541,3.541,0,0,0-1.269-.244q-1.074-.1-2.4-.1h-3.692q-.156,4.416-.156,5.1v11.387l.039,3.808q.019,2.208.107,2.862a1.719,1.719,0,0,0,.274.859,1.53,1.53,0,0,0,.713.352,15.6,15.6,0,0,0,2.617.224l.137.118v.976l-.137.156q-5-.156-5.586-.156-.626,0-5.566.156l-.157-.156v-.976l.157-.118a19.987,19.987,0,0,0,2.431-.195,1.762,1.762,0,0,0,.8-.3,1.567,1.567,0,0,0,.342-.791,15.941,15.941,0,0,0,.137-2.695l.039-4.121V150.938q0-.312-.157-5.1h-2.91q-1.8,0-3.105.079t-1.514.4a7.04,7.04,0,0,0-.381,2.1l-.195,1.8-.176.176h-.9l-.157-.156q-.039-4.707-.175-6.133l.175-.176q3.4.158,11.309.157Q521.181,144.083,524.442,143.926Z" style="fill: #fff"/>
    <path d="M526.532,143.926q4.98.158,5.586.157.645,0,5.6-.157l.157.137v.977l-.157.136q-1.347.041-2.08.118a2.531,2.531,0,0,0-1.064.293,1.381,1.381,0,0,0-.44,1.005,17.445,17.445,0,0,0-.107,2.2l-.039,4.492v2.734q4.277.117,8.1.117,5.235,0,7.969-.117v-2.734l-.039-3.809a26.846,26.846,0,0,0-.117-2.871,1.923,1.923,0,0,0-.274-.859,1.353,1.353,0,0,0-.7-.352,17.038,17.038,0,0,0-2.617-.215l-.137-.136v-.977l.137-.137q5,.158,5.606.157.663,0,5.605-.157l.156.137v.977l-.156.136q-1.367.041-2.1.118a2.531,2.531,0,0,0-1.064.293,1.358,1.358,0,0,0-.43,1.005,21.5,21.5,0,0,0-.117,2.2l-.039,4.492v9.043l.039,3.808a26.571,26.571,0,0,0,.117,2.852,1.81,1.81,0,0,0,.284.859,1.455,1.455,0,0,0,.7.362,15.358,15.358,0,0,0,2.607.224l.156.118v.976l-.156.156q-5-.156-5.605-.156-.626,0-5.606.156l-.137-.156v-.976l.137-.118a20.368,20.368,0,0,0,2.442-.195,1.7,1.7,0,0,0,.8-.3,1.633,1.633,0,0,0,.332-.791,15.941,15.941,0,0,0,.137-2.695l.039-4.121v-4.453q-5.781-.117-8.105-.117-2.383,0-7.969.117v4.453l.019,3.808a26.2,26.2,0,0,0,.118,2.852,1.812,1.812,0,0,0,.283.859,1.463,1.463,0,0,0,.713.362,15.443,15.443,0,0,0,2.6.224l.157.118v.976l-.157.156q-4.98-.156-5.6-.156-.6,0-5.586.156l-.156-.156v-.976l.156-.118a20.149,20.149,0,0,0,2.422-.195,1.777,1.777,0,0,0,.81-.3,1.525,1.525,0,0,0,.332-.791,17.883,17.883,0,0,0,.147-2.695l.019-4.121v-9.043l-.039-3.809q-.018-2.226-.107-2.871a1.772,1.772,0,0,0-.273-.859,1.433,1.433,0,0,0-.713-.352,16.9,16.9,0,0,0-2.6-.215l-.156-.136v-.977Z" style="fill: #fff"/>
    <path d="M560.087,144.063l.156-.137q6.7.119,8.574.118,6.406,0,11.406-.118l.1.137a33.408,33.408,0,0,0-.723,5.879l-.117.156h-.957l-.176-.156a2.871,2.871,0,0,0,.02-.312,19.035,19.035,0,0,0-.254-3.165,10.633,10.633,0,0,0-3.408-.712q-2.178-.166-3.272-.166-1.542,0-3.945.214l-.078,3.125-.059,3.575-.058,3.964q2.109.119,3.886.118,1.8,0,3.008-.118a5.039,5.039,0,0,0,1.416-.244.818.818,0,0,0,.313-.488,7.293,7.293,0,0,0,.185-1.279l.078-1.211.157-.156h.9l.156.156q-.039,2.13-.1,4.277l.1,4.395-.156.156h-.9l-.157-.156-.136-1.172q-.177-1.367-.254-1.631a.863.863,0,0,0-.362-.459,3.914,3.914,0,0,0-1.455-.313q-1.171-.117-3.222-.117-1.132,0-3.457.1-.1,1.641-.1,5.469,0,4.1.1,6.035h3.593q4.746,0,5.938-.117a7.806,7.806,0,0,0,2.266-.567q.175-.448.576-2.08t.459-2.041l.2-.137h.938l.156.137a26.835,26.835,0,0,0-.342,2.93q-.165,2.089-.166,3.574l-.137.156q-3.73-.117-9.765-.117l-5.313-.039q-1.855,0-3.867.156l-.156-.156v-.644l.156-.2a10.454,10.454,0,0,0,1.318-.732,15.222,15.222,0,0,0,.274-3.418q.106-3.271.107-4.99v-7.168l-.019-4.434q0-1.445-.039-2.353a7.4,7.4,0,0,0-.137-1.3,1.486,1.486,0,0,0-.225-.547.957.957,0,0,0-.41-.264,4.512,4.512,0,0,0-.967-.185l-1.484-.118-.156-.136Z" style="fill: #fff"/>
    <path d="M622.352,160.88v.585l-.078.235-.957.566a1.217,1.217,0,0,0-.41.332,6.706,6.706,0,0,0-.147,1.162q-.087,1.047-.087,2.549a34.641,34.641,0,0,0,.214,3.692l-.117.195a30.485,30.485,0,0,1-11,2.051,18.212,18.212,0,0,1-7.832-1.641,12.97,12.97,0,0,1-5.547-4.863,13.958,13.958,0,0,1-2.051-7.656,13.466,13.466,0,0,1,4.62-10.743q4.618-3.984,12.06-3.984a24.855,24.855,0,0,1,9.824,1.855l.137.215a46.662,46.662,0,0,0-.82,5.489l-.156.136h-.9l-.156-.156-.1-2.07a6.38,6.38,0,0,0-.127-1.192,1.381,1.381,0,0,0-.42-.459,9.748,9.748,0,0,0-1.806-.9,14.712,14.712,0,0,0-2.92-.9,16.636,16.636,0,0,0-3.145-.283,13.123,13.123,0,0,0-6.328,1.485,9.6,9.6,0,0,0-4.15,4.326,14.13,14.13,0,0,0-1.4,6.318,15.1,15.1,0,0,0,1.5,6.69,11.406,11.406,0,0,0,4.317,4.834,12.185,12.185,0,0,0,6.542,1.738,17.707,17.707,0,0,0,3.311-.322,9.821,9.821,0,0,0,2.783-.909,11.378,11.378,0,0,0,.176-2.519v-2.168a5.539,5.539,0,0,0-.2-1.924,1.3,1.3,0,0,0-.967-.537,23.4,23.4,0,0,0-3.33-.2l-.176-.176v-.859l.176-.176,1.191.039q3.066.1,5,.1,1.113,0,3.262-.117Z" style="fill: #fff"/>
    <path d="M624.559,158.067a17.345,17.345,0,0,1,.84-5.469,12.686,12.686,0,0,1,2.861-4.7,13.859,13.859,0,0,1,4.874-3.34,16.713,16.713,0,0,1,6.445-1.181q6.66,0,10.605,3.623t3.946,9.892a16.178,16.178,0,0,1-1.934,7.93,13.537,13.537,0,0,1-5.537,5.469,16.723,16.723,0,0,1-8.1,1.953,15.706,15.706,0,0,1-5.859-1.065,11.94,11.94,0,0,1-4.561-3.174,12.89,12.89,0,0,1-2.734-4.882A17.43,17.43,0,0,1,624.559,158.067Zm4.063-1.289a19.009,19.009,0,0,0,.771,5.127,13.489,13.489,0,0,0,2.3,4.707,9.9,9.9,0,0,0,3.535,2.92,11.248,11.248,0,0,0,9.951-.43,8.7,8.7,0,0,0,3.594-4.306,16.731,16.731,0,0,0,1.231-6.553,17.455,17.455,0,0,0-1.407-7.129,9.427,9.427,0,0,0-4-4.629,11.65,11.65,0,0,0-5.761-1.445,9.672,9.672,0,0,0-7.481,2.968Q628.622,150.978,628.622,156.778Z" style="fill: #fff"/>
    <path d="M655.79,144.063l.156-.137q4.845.158,5.586.157.663,0,5.6-.157l.157.137v.977l-.157.136q-1.347.041-2.08.118a2.531,2.531,0,0,0-1.064.293,1.381,1.381,0,0,0-.44,1.005,17.445,17.445,0,0,0-.107,2.2l-.039,4.492v8.633q0,3.243.039,4.531l.1,3.379h3.984q4.765,0,5.947-.117a8.036,8.036,0,0,0,2.276-.567,16.087,16.087,0,0,0,.615-2.246q.4-1.758.42-2.031l.176-.156h.957l.136.156a29.956,29.956,0,0,0-.322,3.027q-.165,2.247-.166,3.633l-.156.156q-3.711-.117-9.746-.117l-5.7-.039q-1.953,0-3.985.156l-.156-.156v-.644l.156-.2a8.2,8.2,0,0,0,1.328-.761,12.412,12.412,0,0,0,.245-2.52q.128-2.382.126-5.742v-8.379l-.039-3.809q-.018-2.226-.107-2.871a1.772,1.772,0,0,0-.273-.859,1.428,1.428,0,0,0-.713-.352,16.9,16.9,0,0,0-2.6-.215l-.156-.136Z" style="fill: #fff"/>
    <path d="M680.087,144.063l.156-.137q3.379.158,4.609.157l9.141-.2a23.266,23.266,0,0,1,6.406.733,10.988,10.988,0,0,1,4.444,2.539,12.081,12.081,0,0,1,2.949,4.2,13.04,13.04,0,0,1,1.006,5.107,15.443,15.443,0,0,1-.918,5.215,15.165,15.165,0,0,1-2.608,4.619,14.236,14.236,0,0,1-3.847,3.291,13.866,13.866,0,0,1-4.327,1.67,23.164,23.164,0,0,1-4.433.42q-1.524,0-5.742-.117-1.387-.039-1.836-.039-1.349,0-3.262.156l-.156-.156v-.644l.156-.2a10.454,10.454,0,0,0,1.318-.732,15.222,15.222,0,0,0,.274-3.418q.106-3.271.107-4.99v-7.168l-.019-4.434q0-1.445-.039-2.353a7.4,7.4,0,0,0-.137-1.3,1.486,1.486,0,0,0-.225-.547.957.957,0,0,0-.41-.264,4.512,4.512,0,0,0-.967-.185l-1.484-.118-.156-.136Zm7.226,25.488a24,24,0,0,0,4.59.391,14.906,14.906,0,0,0,7.275-1.523,9.471,9.471,0,0,0,4.073-4.512,16.221,16.221,0,0,0,1.347-6.738q0-5.528-2.949-8.575t-9.3-3.046a31.655,31.655,0,0,0-5.039.39q-.156,3.2-.156,7.227V159.3l.039,5.742Q687.2,166.72,687.313,169.551Z" style="fill: #fff"/>
    <path d="M711.884,144.063l.156-.137q6.7.119,8.574.118,6.406,0,11.406-.118l.1.137a33.311,33.311,0,0,0-.723,5.879l-.117.156h-.957l-.176-.156a2.871,2.871,0,0,0,.02-.312,19.035,19.035,0,0,0-.254-3.165,10.633,10.633,0,0,0-3.408-.712q-2.178-.166-3.272-.166-1.542,0-3.945.214l-.078,3.125-.059,3.575-.058,3.964q2.109.119,3.886.118,1.8,0,3.008-.118a5.048,5.048,0,0,0,1.416-.244.818.818,0,0,0,.313-.488,7.393,7.393,0,0,0,.185-1.279l.078-1.211.157-.156h.9l.156.156q-.039,2.13-.1,4.277l.1,4.395-.156.156h-.9l-.157-.156-.136-1.172q-.177-1.367-.254-1.631a.863.863,0,0,0-.362-.459,3.92,3.92,0,0,0-1.455-.313q-1.171-.117-3.222-.117-1.132,0-3.457.1-.1,1.641-.1,5.469,0,4.1.1,6.035h3.593q4.746,0,5.938-.117a7.792,7.792,0,0,0,2.265-.567,21.3,21.3,0,0,0,.577-2.08q.4-1.631.459-2.041l.2-.137h.937l.157.137a26.58,26.58,0,0,0-.342,2.93q-.165,2.089-.166,3.574l-.137.156q-3.73-.117-9.766-.117l-5.312-.039q-1.856,0-3.867.156l-.156-.156v-.644l.156-.2a10.454,10.454,0,0,0,1.318-.732,15.222,15.222,0,0,0,.274-3.418q.106-3.271.107-4.99v-7.168l-.02-4.434q0-1.445-.039-2.353a7.326,7.326,0,0,0-.136-1.3,1.486,1.486,0,0,0-.225-.547.964.964,0,0,0-.41-.264,4.526,4.526,0,0,0-.967-.185l-1.484-.118-.156-.136Z" style="fill: #fff"/>
    <path d="M736.18,171.661l-.175-.176v-.9l.175-.157a13.552,13.552,0,0,0,1.905-.136A1.441,1.441,0,0,0,739,169.9a1.848,1.848,0,0,0,.273-.879q.069-.6.137-2.734t.068-3.047V147.462a2.447,2.447,0,0,0-.361-1.475,1.59,1.59,0,0,0-.986-.606,13.379,13.379,0,0,0-2.129-.146l-.157-.156v-.918l.157-.176q2.694.1,3.535.1,1.973,0,3.242-.1l6.23,8.086,9.161,11.484q1.659,2.091,3.378,3.965V152.4q0-.7-.068-3t-.166-2.91a1.392,1.392,0,0,0-.342-.83,1.919,1.919,0,0,0-.918-.323,13.9,13.9,0,0,0-1.826-.127l-.156-.156v-.9l.156-.176q1.582.1,4.512.1,2.676,0,3.887-.1l.175.176v.9l-.156.156a13.239,13.239,0,0,0-1.992.147,1.257,1.257,0,0,0-.879.42,2.236,2.236,0,0,0-.244.859q-.069.567-.137,2.7t-.068,3.066v9.277l.019,5.371q.041,2.637.078,5.293a31.393,31.393,0,0,0-3.378-.82l-1.387-1.641-4.16-5.078-13.242-16.543v14.981q0,.9.068,3.2a25.443,25.443,0,0,0,.166,2.793,1.555,1.555,0,0,0,.254.674,1.464,1.464,0,0,0,.674.342,9.483,9.483,0,0,0,2.138.175l.157.157v.918l-.157.156a27.581,27.581,0,0,0-3.281-.137Q738.368,171.524,736.18,171.661Z" style="fill: #fff"/>
    <path d="M814.872,143.985l.176.156v.957l-.157.137a14.273,14.273,0,0,0-2.666.215,1.216,1.216,0,0,0-.732.517,3.283,3.283,0,0,0-.244,1.416q-.03,1.056-.108,5.957v9q0,1.954.059,4.414a11.977,11.977,0,0,0,.244,2.862,1.148,1.148,0,0,0,.674.586,12.271,12.271,0,0,0,2.773.244l.157.137v.957l-.176.156q-3.183-.175-5.547-.176-1.6,0-5.449.176l-.176-.156v-.938l.156-.156a14.262,14.262,0,0,0,2.666-.215,1.212,1.212,0,0,0,.733-.518,3.436,3.436,0,0,0,.254-1.435q.039-1.074.1-5.938V148.008l-6.738,14.1q-2.538,5.293-4.434,9.961h-.761q-1.1-2.52-1.8-4.023l-9.336-19.4v13.652q0,1.915.049,4.405a11.277,11.277,0,0,0,.244,2.88,1.228,1.228,0,0,0,.683.586,11.324,11.324,0,0,0,2.774.235l.156.156v.938l-.176.175-1.25-.058q-1.933-.1-3.32-.1-.626,0-4.668.156l-.156-.156v-.937l.156-.176a13.491,13.491,0,0,0,2.656-.2,1.23,1.23,0,0,0,.733-.527,3.135,3.135,0,0,0,.254-1.387q.029-1.014.087-6V153.36q0-1.778-.048-4.326a12.468,12.468,0,0,0-.235-2.949,1.186,1.186,0,0,0-.674-.6,11.39,11.39,0,0,0-2.773-.234l-.156-.157v-.937l.175-.176q1.348.1,3.633.1,2.149,0,3.75-.1,1.641,3.789,3.145,6.855l7.4,15.2,6.68-13.926q2.714-5.644,3.652-8.125,1.875.1,3.692.1Q812.644,144.083,814.872,143.985Z" style="fill: #fff"/>
    <path d="M817.391,144.063l.157-.137q6.7.119,8.574.118,6.405,0,11.406-.118l.1.137a33.311,33.311,0,0,0-.723,5.879l-.117.156h-.957l-.176-.156a2.871,2.871,0,0,0,.02-.312,19.035,19.035,0,0,0-.254-3.165,10.64,10.64,0,0,0-3.409-.712q-2.178-.166-3.271-.166-1.542,0-3.945.214l-.078,3.125-.059,3.575-.059,3.964q2.111.119,3.887.118,1.8,0,3.008-.118a5.048,5.048,0,0,0,1.416-.244.812.812,0,0,0,.312-.488,7.267,7.267,0,0,0,.186-1.279l.078-1.211.156-.156h.9l.156.156q-.039,2.13-.1,4.277l.1,4.395-.156.156h-.9l-.156-.156-.137-1.172q-.175-1.367-.254-1.631a.856.856,0,0,0-.361-.459,3.92,3.92,0,0,0-1.455-.313q-1.172-.117-3.223-.117-1.131,0-3.457.1-.1,1.641-.1,5.469,0,4.1.1,6.035h3.594q4.746,0,5.938-.117a7.8,7.8,0,0,0,2.265-.567,21.407,21.407,0,0,0,.576-2.08q.4-1.631.459-2.041l.2-.137h.937l.156.137a26.9,26.9,0,0,0-.341,2.93q-.166,2.089-.166,3.574l-.137.156q-3.731-.117-9.766-.117L823,171.524q-1.856,0-3.867.156l-.157-.156v-.644l.157-.2a10.454,10.454,0,0,0,1.318-.732,15.265,15.265,0,0,0,.273-3.418q.108-3.271.108-4.99v-7.168l-.02-4.434q0-1.445-.039-2.353a7.326,7.326,0,0,0-.136-1.3,1.486,1.486,0,0,0-.225-.547.964.964,0,0,0-.41-.264,4.526,4.526,0,0,0-.967-.185l-1.484-.118-.157-.136Z" style="fill: #fff"/>
    <path d="M841.259,171.68l-.176-.156v-1.016l.176-.156a8.361,8.361,0,0,0,1.835-.146,1.56,1.56,0,0,0,.733-.508,16.187,16.187,0,0,0,1.3-2.49l2.05-4.453,5.313-12.032q1.5-3.534,2.988-7.07h1.27l8.34,19.609,1.113,2.618q.487,1.113,1.123,2.421a7.357,7.357,0,0,0,.879,1.543,1.631,1.631,0,0,0,.605.362,6.5,6.5,0,0,0,1.612.146l.156.156v1.016l-.156.156q-2.07-.176-3.731-.175-3.241.1-6.484.175l-.156-.156v-1.016l.156-.156a15.693,15.693,0,0,0,2.734-.185.651.651,0,0,0,.547-.674,3.335,3.335,0,0,0-.273-1.133l-2.4-5.957H849.5l-2.129,5a5.888,5.888,0,0,0-.567,1.973.764.764,0,0,0,.528.722,8.9,8.9,0,0,0,2.656.254l.176.156v1.016l-.156.156q-2.52-.156-4.415-.156Q843.446,171.524,841.259,171.68Zm8.906-10.957h9.883l-4.9-11.777Z" style="fill: #fff"/>
    <path d="M872.8,171.661l-.175-.176v-.9l.175-.157a13.552,13.552,0,0,0,1.9-.136,1.441,1.441,0,0,0,.918-.391,1.848,1.848,0,0,0,.273-.879q.069-.6.137-2.734t.068-3.047V147.462a2.447,2.447,0,0,0-.361-1.475,1.59,1.59,0,0,0-.986-.606,13.379,13.379,0,0,0-2.129-.146l-.157-.156v-.918l.157-.176q2.7.1,3.535.1,1.973,0,3.242-.1l6.231,8.086,9.16,11.484q1.659,2.091,3.379,3.965V152.4q0-.7-.069-3t-.166-2.91a1.386,1.386,0,0,0-.342-.83,1.919,1.919,0,0,0-.918-.323,13.9,13.9,0,0,0-1.826-.127l-.156-.156v-.9l.156-.176q1.583.1,4.512.1,2.676,0,3.887-.1l.175.176v.9l-.156.156a13.239,13.239,0,0,0-1.992.147,1.257,1.257,0,0,0-.879.42,2.236,2.236,0,0,0-.244.859q-.069.567-.137,2.7t-.068,3.066v9.277l.019,5.371q.04,2.637.079,5.293a31.49,31.49,0,0,0-3.379-.82l-1.387-1.641-4.16-5.078L877.88,148.262v14.981q0,.9.068,3.2a25.722,25.722,0,0,0,.166,2.793,1.555,1.555,0,0,0,.254.674,1.464,1.464,0,0,0,.674.342,9.483,9.483,0,0,0,2.138.175l.157.157v.918l-.157.156a27.581,27.581,0,0,0-3.281-.137Q874.989,171.524,872.8,171.661Z" style="fill: #fff"/>
  </g>
  <g style="clip-path: url(#a4abb88f-e367-494b-aa1e-959df26deaf5)">
    <g style="clip-path: url(#eb194796-c9be-437d-8d35-1f49ea862045)">
      <g>
        <path d="M163.293-253.307c.055-.134-.092-.505-.172-.513-.558-.057-.665.486-.95.8a1.755,1.755,0,0,1-.994-2.3c.558-2.282,1.415-4.219,3.824-5.044l.012,0a1.479,1.479,0,0,1,.863,1.079c1.071,6.1,2.481,12.149,1.762,18.44a44.391,44.391,0,0,0-.161,8.879,21.215,21.215,0,0,1-.371,7.412c-.843,3.073-2.415,5.966-3.084,9.063-.63,2.916-1.923,5.833-1.569,8.832.5,4.27,1.712,8.443.15,12.77a12.147,12.147,0,0,0-.385,4.533,27.389,27.389,0,0,1-.71,8.064,31.872,31.872,0,0,0-.985,9.514,47.142,47.142,0,0,1-7.962,28.659c-3.043,4.669-6.9,8.68-10.434,12.948a4.718,4.718,0,0,0-3.96-2.946c-1.572-.228-2.509-1.172-3.7-1.855a6.258,6.258,0,0,0-2.935-1c-2.646-.2-5.866.07-7.508-3.136-.511-1-1.835-.987-2.858-.662a2.875,2.875,0,0,1-3.037-.612,6.107,6.107,0,0,0-4.166-.933c-1.792.06-3.75-1.569-5.433-2.75-1.037-.728-2.312-1.563-2.3-3.176-1.69.026-1.487-3.363-3.854-2.133-.3.155-.827.089-.617-.289.78-1.4-2.384-2.02-.662-3.454.907-.755,1.038-1.283.742-2.569-.323-1.4,1.023-2.047,2.687-2.007,2.879.07,5.751-.056,8.483,1.276l.351-.569a34.49,34.49,0,0,0-3.963-4.737c-1-.855-2.408,0-3.609.54-1.281.58-2.925,1.5-2.855-1.249.006-.219-.117-.609-.248-.641-3.232-.778-2.847-5.108-6.061-6.059a4.17,4.17,0,0,1-2.771-3.278c-.069-.357-.649-.7-.6-.982.413-2.639-3.837.829-3.037-2.376.5-2-2.126-2.374-2.4-4.047-.317-1.907-2.371-2.238-3.32-3.614a3.05,3.05,0,0,0-2.316-1.154,10.586,10.586,0,0,1-8.221-4.451c-1.743-2.353-4.556-2.5-6.867-3.674a.583.583,0,0,0-.916.416c-.32,1.262-1.022.715-1.6.3a1.813,1.813,0,0,0-2.029-.053c-.7.323-1.937.03-2.054.913-.157,1.191,1.21.929,1.9,1.351,1.773,1.095,2.4,3.112,3.326,4.795a11.66,11.66,0,0,1,1,7.829c-.2,1.12-.262,1.494-1.569,1.257-2.276-.413-3.083.493-2.731,2.829.9,5.96,2.547,11.785,2.875,17.857.277,5.131.131,10.194-3.051,14.4-3.479,4.6-4.139,9.873-4.763,15.257-.227,1.957.066,4.047-2.374,5.163-.6.274-1.066,2.291-.673,2.987.905,1.6.161,3.047.33,4.666,1.24-1.867,3.826-2.46,3.949-5.434.068-1.633,1.922-2.84,3.431-3.777a.865.865,0,0,1,1.415.7c.194,2.048,1.127.977,1.768.41a15.525,15.525,0,0,1,5.494-3.327c1.864-.606,1.747-2.486,2.231-3.949.055-.163-.122-.473-.278-.626-1.23-1.2-1.217-1.738.643-2.266,1.627-.46,1.746-1.087.834-2.459,1.6,1.287,3.119-.258,4.566.278-2.471.893-2.452,3.516-3.72,5.157a14.594,14.594,0,0,0-2.125,4.122c-.675,1.82.186,4.864,1.764,5.847.622.387,1.224.953,2.06.017,1.1-1.228.889-3.648,3.293-3.689a3.009,3.009,0,0,0-1.02-2.554c-1.845-1.357-1.8-2.7-.295-4.347,2.325-2.548,2.267-3.2-.013-4.54,1.994-.327,3.5,1.21,5.362,1.433.425.051.469.8.43,1.278s-.325.33-.669.252c-2.254-.51-1.857.843-1.148,1.919a3.823,3.823,0,0,1,.829,3.537c-.434,1.677,1.451,2.887,2.259,4.328.364.649.962.06,1.23-.5s-.163-1.121-.11-1.618c.105-.978.292-2.215,1.245-2.595,1.071-.427.994.972,1.487,1.5.525.567.952,1.224,1.748,2.271-.591-3.349-1.182-6-4.452-6.947a.862.862,0,0,1-.241-1.562c2.449-1.7,1.145-2.66-.6-3.62-.158-.088-.21-.368-.375-.676,1.093-.524,1.712.328,2.42.67,1.734.838,3.406,1.805,5.15,2.621s2.155,1.843.741,3.307c-.312.322-.967.532-.454,1.089a2.792,2.792,0,0,0,1.381.9c.64.117.637-.591.73-1.028a61.7,61.7,0,0,0,.582-6.65c.1-.949-1.945-2.311-3.078-3.386-1.976-1.874-3.665-4.024-6.224-5.372-1.917-1.01-3.958-2.318-4.86-4.653-.237-.613-.93-1.049-1.768-1.945a20.552,20.552,0,0,1,6.657,3.415c7.98,5.253,16.227,10.13,23.719,16.088,4.014,3.192,8.845,5.14,12.605,8.785,1.111,1.077,3.449,1.512,5.407,1.612,2.478.128,3.758-1.27,4.512-3.4a17.836,17.836,0,0,0,1.273,1.387c3.668,3.255,6.822,6.782,7.329,12.007.134,1.387.876,2.7,1.192,4.085.451,1.972,1.574,3.893.629,6.016h0c-.788-.433-.811-2-2.41-1.435,1.1,1.5-.3,2.865-.358,4.389-.055,1.4.886,3.14-.509,4.5-.395.387.248.876.538,1.2,1.588,1.806,1.079,3.76.1,5.466-1.2,2.083-2.08,4.325-3.314,6.369-2.949,4.885-6.006,9.707-9.07,14.523a10.023,10.023,0,0,0-1.7,4.678,14.573,14.573,0,0,1-2.216,6.281,50.162,50.162,0,0,0-5.718,16.4c-.8,4.483-.893,9.1-2.575,13.416-.294-.241-.616-.714-.877-.683-1.5.183-3.982,4.449-3.666,6.19a15.713,15.713,0,0,1-4.1,4.945c-.772-.534-1.8.839-2.488-.334-.173.436-.358.867-.518,1.308-.4,1.107.53,1.318,1.17,1.723-.947,1.438-2.536,2.555-2.644,4.415a39.022,39.022,0,0,1-1.222,5.58c-.707,3.468-2.078,6.91-.746,10.586a3.313,3.313,0,0,1-.29,3.231c-.587-.222-1.515-1.146-1.73-.218-.478,2.06-3.561,1.893-3.37,4.256.061.75.707,1.514,1.472,1.149.977-.466,2.556-.52,2.5-2.142-.039-1.218-.068-2.342,1.12-3.074a7.941,7.941,0,0,1,1.09,7.6c-1.106,3.14-2.862,6.118-3.066,9.535-.131,2.2-1.055,2.182-2.585,1.194-3.811-2.46-7.637-4.9-11.457-7.343a22.072,22.072,0,0,0-1.366-2.165c-.624-.785-1.286-.87-1.73.225a119.353,119.353,0,0,1-10.433-6.419c-.263-2.186-2.471-2.442-3.715-3.649-.213-.207-.66.479-.762.946l-.43-.281c.266-1.565-1.9-4.682-3.445-4.833a2.884,2.884,0,0,1-1.453-.74c-1.4-1.015-2.191-.639-2.472,1.018l-.834-.532c1.378-.686,1.435-1.8,1.129-3.135-.284-1.233-1.126-.359-1.673-.559a9.52,9.52,0,0,0,3.084-2.957c.6-1.1.7-2.3-.07-2.969-.849-.739-1.151.647-1.7,1.1C58.091,1.026,56.371,1.208,56,2.95a1.07,1.07,0,0,1-.854.068c-2.06-1.457-2.531.2-3.16,1.569L48.552,2.473c.516-1.118,1.837-2.169.456-3.489C47.449-2.5,47.037-2.309,45.526.471c-2.279-.792-3.609-3.12-6.012-3.71,1.514-1.351.942-2.557-.368-3.754L37.167-4.56c-2.053-.891-1.684-2.291-.666-3.676.888-1.21.7-1.967-.629-2.6a13.845,13.845,0,0,1-5.326-4.354c-1.2-1.669-3.67-1.5-4.593-3.443.284-.355.387-1.4,1.052-.256.512.877,1.241.7,1.8.15,1-1-.178-1.693-.475-2.508-.356-.979-.994-.378-1.251-.068-.55.663-1.437,1.049-1.671,1.971a1.786,1.786,0,0,1-1.448-.985c2.6-1.408.352-3.3.778-5.422a9.741,9.741,0,0,0-3.273,3.481c-3.2-.229-4.171-3.232-6.169-4.956,2.651-.781,1.621-2.691,1.3-4.347-.122-.624-.8-.565-1.189-.482-1.522.328-2.573-.5-3.646-1.317-2.494-1.908-2.493-1.91-3.3,1.15a3.027,3.027,0,0,1-.85-.354c-3.514-3.01-3.52-3.02-5.867.733A12.772,12.772,0,0,0,.386-29.312c-.413,1.206-1.075,1.282-2,.7q-12.06-7.5-24.111-15.023c-.643-3.142-.344-3.421,2.768-2.405,1.372.448,2.69,1.059,4.053,1.535,1.3.454,2.437,1.189,3.943-.1,1.242-1.066,3.864.245,4.364,2.032.275.981.648,1.593,1.592,1.844A38.259,38.259,0,0,1-.981-37.948a27.406,27.406,0,0,1-.8-5.862c6.5-1.238,12.971-2.172,18.908-5.339.533.732-.775,1.468.067,1.926.693.377,1.11-.39,1.644-.691,2.731-1.541,4.7-4.14,7.892-5.175a18.264,18.264,0,0,1,3.067-.543c3.36-.5,6.81-1.759,10.141.2-.49,1.388-1.583.623-2.421.632-.656.006-1.359-.2-1.426.745-.052.735.446.981,1.108,1.288a7.506,7.506,0,0,0,6.362.4c.582-.243,1.83.691,1.709-.7a1.759,1.759,0,0,0-2.3-1.475,2.544,2.544,0,0,1-2.922-.911c.568-1.086,1.676-1.106,2.667-1.311a3.588,3.588,0,0,0,2.138-.968c.761-.848,1.664-7.248,1.149-8.226a2.061,2.061,0,0,0-.239-.382c-2.191,1.033-1.878-1.721-3.13-2.065-1.8-.493-1.588-2.421-2.547-3.517a.759.759,0,0,1,.274-1.058c.5-.306.867-.041,1.164.428.773,1.222,1.76,1.95,3.036,1.151,1.154.859-1.638,1.7.244,2.263.571.17,1.3,1.366,2.021.229.558-.877,1.2-1.837-.1-2.678l.013.05c.387-.415.468-1.389,1.368-.9.665.359,1.231,1.029.807,1.787-1.2,2.136.733,4.363-.311,6.516a1.146,1.146,0,0,0,.991,1.609c1.062.168,1.137-.762,1.211-1.417.4-3.519,1.025-7.1-1.991-9.952-.758-.715-.146-1.88-.847-2.66-.274-.3-.46-.732-.9-.547a1.022,1.022,0,0,0-.382.8c-.011.858.318,2.335-.32,2.405a5.506,5.506,0,0,1-3.835-.839c-1.021-.87-1.7-.579-2.753-.26,1.808-1.289.644-4.526,3.583-4.89.3-.038.4-.508.223-.817a.74.74,0,0,0-1.2-.257c-.721.521-1.282,1.638-2.394.614-.948-.871-.575-1.785-.3-2.852.284-1.085-.445-2.452,1.836-2.066.883.15,1.583-1.694,1.725-2.9.423-3.591,2.449-6.777,2.569-10.434.013-.413.1-.862.641-.8s.54.545.463.938c-.568,2.913.942,6.253-2,8.7-1.312,1.091.159,2.971-.728,4.318,1.654-.389,2.2,1.277,3.349,1.792a.483.483,0,0,0,.636-.664c-1.234-2.077,1.739-3.115,1.2-5.021-.071-.249.391-.471.745-.375a.549.549,0,0,1,.376.758c-.276.835-.6,1.657-.927,2.473-.208.515-.618,1.075.073,1.466a1.27,1.27,0,0,0,1.554-.308,6.831,6.831,0,0,0,1.332-2.245c.478-1.567.876-3.109,2.607-3.784.548-.214.53-.685.59-1.185.42-3.512.955-7.085,2.688-10.149.892-1.579.489-3.269,1.334-4.709a.671.671,0,0,0-.307-1.007c-.464-.239-.718.092-.993.4-.891.992-.892,2.39-1.6,3.459-.319.483-.734.973-1.367.668a.836.836,0,0,1-.191-1.42c1.048-.893,1.7-1.647,1.159-3.248-.346-1.019,1.229-2.058.709-3.508-2.009.249-2.129,2.021-2.663,3.4-.55,1.425-.506,1.442-2.335,1.616-.307-.88.817-.83.94-1.451a1.835,1.835,0,0,0-.588-1.953c-.8-.578-1.085.273-1.443.754-.551.743-1.076,1.5-1.565,2.193-1.661-1.971-.136-3.454.553-5.247a10.637,10.637,0,0,0,.359-5.251c-.217-1.38-2.985-1.416-4.323-.094a4.362,4.362,0,0,0-1.552,2.248c-.993-.444-.47-.878-.309-1.255.187-.438.7-1.141.6-1.237-2.562-2.458.8-5.46-.718-7.866a2.357,2.357,0,0,1,.249-3.206c.088-.108.139-.413.1-.439-2.947-1.763.559-4.623-1.1-6.669-.189-.234-.2-1.559.753-1.77.672-.149.917.5,1.106,1.043.368,1.052,1.151.668,1.8.468.941-.289,2.7-4.3,2.119-5.071-1.691-2.258-1.436-4.748-1.7-7.349-.2-1.923,1.04-4.467-1.079-6.131l.016.056c-.236-1.629.345-3.32-.347-4.905-.139-.318-.313-.662-.052-.862,2.491-1.906.824-4.484,1.149-6.915l-1.993,1.079c.758-1.842,2.012-3.257,1.336-5.024-2.278,1.173-3.172,3.92-3.522,6.417-.43,3.074.346,6.086-.413,9.242-.591,2.461-1.318,5.508-.679,7.855.559,2.051-.406,4.51,1.529,6.325.821.769.374,2.149-.572,2.969-.507.438-1.187.986-1.085,1.511.566,2.905-1.4,5.452-1.062,8.281.112.934-.743,1.289-.948,2.093-1.025,4.019-.766,8.255-2.135,12.2-.557,1.607,1.331,2.072,1.5,3.634.253,2.283-.888,2.094-1.981,1.794-.91-.25-1.482-.427-1.949.359-.057-1.259,2.1-1.518,1.566-3.018-.213-.6-.984-.044-1.675.152.584-1.578,1.858-2.483,1.926-4.061.045-1.05.329-1.84-.4-2.961-.631-.972-.019-2.574.528-3.846.4-.92,1.315-2.131-.813-2.31-.714-.06-.9-.622-.681-1.453a14.756,14.756,0,0,0,.727-5.573c-.491-2.909-.143-5.869-.891-8.722a2.639,2.639,0,0,1,1.669-3.442,2.3,2.3,0,0,0,1.73-2.608,3.147,3.147,0,0,0-2.88,1.21c-.261.319-.622.613-1.032.352-.547-.347-.275-.821-.062-1.26.243-.5.471-1.015.7-1.523,1.066-2.311,1.066-2.311-.212-4.309-.866-.064-.721,1.695-1.639,1.142-1.075-.648.2-1.356.222-2.039.049-1.226.343-2,1.708-2.306.682-.153.852-1.086,1.017-1.81-.7-.551-1.382.41-2.054.02-.761-.441-1.633-.76-.846-1.982.719-1.117,2.323-2.7.5-3.625-1.742-.88-1.993,1.529-2.848,2.545-.139.166-.2.394-.419.547,1.26-2.474,2.59-4.916,2.914-7.736a1.15,1.15,0,0,1,.531-.732c3-1.722,3.589-4.171,1.506-6.738-.518-.638-.615-1.245-.032-1.655a1.949,1.949,0,0,0,.563-2.915c-1-1.25-1.6.765-2.611.743-.426-.86.293-1.305.625-1.871.37-.631.929-1.457.249-1.965-2.4-1.788-1.482-4.365-1.729-6.636-.34-3.134-.586-6.284-.7-9.434-.066-1.749,1.254-3.062,1.926-4.581.408-.921,1.894-1.959.771-2.811-1.325-1-3.009-.148-4.372.586-.481.259-.688,1.026-1.237,1.544-.045-1.762-3.256-2.339-.8-4.963-1.865.317-1.977,3.01-3.586,1.485-1.415-1.342-2.469-2.994-2.016-5.079.689-3.175,1.424-6.334.912-9.815-.613.988-1.165,2.02-1.852,2.953-1.052,1.43-2.973,1.548-3.692-.042-1.19-2.632-2.592-1.674-4.385-.514a4.512,4.512,0,0,1,1.758-3.622c1.46-.863,1.783-2.5,3.013-3.443.637-.491.533-1.95,1.692-1.72,1.245.248.549,1.618.989,2.593a3.765,3.765,0,0,0,1.4-4.024c-.168-.845-.234-1.741.539-2.18.98-.557,1.511.592,2.246.954.663.327,1.572.6,1.207,1.744-.318.991-.553,2.009-.822,3.016-.339,1.273.273,1.588,1.234.982,1.223-.772,2.988-1.053,3.149-2.978a.745.745,0,0,1,.992-.745c3.518,1.019,7.165-.689,10.674.535,1.051.366,2.148.6,3.223.9-.188.812.069,1.147.958,1.063.482-.045,1,.268.84.859-.165.613-.668.447-1.16.305a4.188,4.188,0,0,0-5.175,1.946l-.3.059c.047.017.106.061.139.046a.641.641,0,0,0,.156-.132c1.3,1.07,2.785,1.694,4.4,1.008,2.631-1.119,5.245.93,7.995-.267-1.024-.949-.864-1.852.373-2.54.395-.758,1.287.127,1.715-.52l5.957,1.978a2.252,2.252,0,0,1-2.88.565c-.711-.273-1.7-.918-2.362.175-.309.509-1.394.607-.982,1.425.322.638.7,1.4,1.837,1.087a1.638,1.638,0,0,1,2.262,1.189c.248.967.617,1.882-.824,2.257-.581.151-.6.7-.341,1.185a1.213,1.213,0,0,0,1.223.588c.806-.009,1.27-.6,1.863-.994a1.243,1.243,0,0,1,1.561.183c.506.429.2.741-.112,1.186-2,2.842-1.969,3.053.447,6.149.27-2.289,2.81-2.4,3.57-4.244a1.452,1.452,0,0,1,1.693-.524c.65.4.306,1.229.016,1.73-.664,1.145-1.371,2.419-2.915,2.45-.853.017-1.11.5-1.377,1.079a.77.77,0,0,0,.345,1.026c.63.433.974.012,1.426-.378.838-.724,1.23-.482,1.3.647.17,2.623,1.789,4.025,4.3,3.8.4-.036.908-.279,1.12.088,1.427,2.475,3.108.208,4.629.2.962-.007.717-.924.03-1.3-2.143-1.16-3.81-3.19-6.443-3.472-.775-.083-2.059-3.11-1.493-3.567,1.287-1.041.78-1.756-.061-2.733-.672-.781-1.253-2.009-.382-2.806.7-.639,2.033-.192,2.811.226a7.01,7.01,0,0,1,2.3,1.595,1.617,1.617,0,0,0,2.552-.119c.79-1.053-.554-1.18-1.056-1.678a2.218,2.218,0,0,0-2.415-.853,2.371,2.371,0,0,1-2.928-1.465c-.618-1.636-2.413-1.306-3.713-1.729-.829-.269-1.8-.134-1.895-1.422a8.093,8.093,0,0,1,4.046,1.3c2.027,1.3,4.413,1.261,6.581,2,.7.241,1.171-.325,1.771-.419-.122,1.223.9,1.169,1.6,1.342,7.124,1.743,12.972,5.827,18.84,9.976,3.92,2.772,8.144,5.114,12.106,7.57.022-.13-.438-.992.2-1.279,2.592-1.169.721-2.122-.514-3.41,3.819-.1,7.045,1.081,10.588,1.486-.728-1.577-2.061-1.112-3.008-1.484-.706-.278-1.805-.128-1.623-1.307a1.564,1.564,0,0,1,1.89-1.145c2.482.5,4.224-1.194,6.3-1.878.963-.318.965-.759.271-1.556-1.29-1.483-3.753-2.056-3.634-4.7.022-.485-.8-.367-1.248-.221a13.954,13.954,0,0,1-2.024.742c-.863.135-2.005,1.068-2.573-.181-.45-.992-1.315-2.117-.327-3.361a6.785,6.785,0,0,0,1.128-2.223c-2.319,2.7-5.049,2.853-8.112,1.807-.7-.237-1.618.243-2.361.071-.938-.217-2.377-.51-.805-1.932,1.338-1.211.174-2.587.023-3.79-.336-2.693,1.64-4.461,2.333-6.719.331-1.076,4.905.738,5.785,1.486,1.817,1.543,1.993,3.739,3.034,5.443,1.127,1.845,4.287,2.049,6.135,3.744.176.162.822-.007,1.134-.2,1.8-1.137,3.558-2.326,5.326-3.507.31-.207.818-.381.541-.885a.989.989,0,0,0-1.041-.451c-2.907.369-4.132-2.187-6.06-3.513a.939.939,0,0,1-.319-1.278c.723-1.419-.544-1.4-1.141-1.238-1.336.37-2.508-.189-3.753-.288-2.286-.183-3.121-1.491-3.327-3.638-.122-1.271.372-3.027-1.922-3.29-.8-.091-.411-1.241-.3-1.917.08-.484.372-.99.977-.768,1.046.384,1.7,2.452,3.357.51.242-.282,2.793,1.293,3.356,2.938,1.048,3.059,5.258,4.911,8.016,3.489,1.074-.554.609-1.57.8-2.354.195-.8.366-1.173,1.3-1.269,1.119-.114.858.595,1.009,1.16a3.187,3.187,0,0,0,3.229,2.6c2.681.226,5.3,1.478,8.043.526a49.386,49.386,0,0,0,9.244-3.792c-.409-1.06-1-.615-1.513-.6-1.427.027-2.941.418-2.615-2.118.183-1.413-1.077-1.831-2.367-1.025a3.29,3.29,0,0,1-4.708-1.172c-3.078-4.652-6.3-9.207-8.713-14.269a13.15,13.15,0,0,1-1.078-4.974c-.114-1.99,1.891-2.81,3.919-1.684,1.889,1.048,3.989.866,5.971,1.335.722.17.967-.41,1.3-.845.671.053,1.343.535,2.036.012-.988-.754-.988-.754-2.025.031-1.677.014-1.89-1.2-1.774-2.391.1-1.032.033-1.937-1.107-1.94-1.478,0-.706,1.042-.559,1.737a1.333,1.333,0,0,1-.915,1.715c-.854.216-.912-.543-1.3-1.181-1-1.655-.64-3.928-2.778-5.163a2.192,2.192,0,0,0-2.534-.057c.607-2.233,1.427-3.513,3.6-4.015,1.673-.386,1.114,1.292,2.023,1.5.922-1.122,1.831-2.271,2.789-3.378.442-.51,1.393-.867.525-1.689a2.285,2.285,0,0,0-2.36-.859c-3.335.573-4.955,3.074-6.942,5.191-1.07,1.14-2,1.714-3.289.433-.306-.306-.655-.519-1.032-.17a1,1,0,0,0-.184.589c.757.349,1.064.822.275,1.393-.634.458-1.329,1.254-2.108.973-1.251-.451-2.343-1.045-2.3-2.88a2.871,2.871,0,0,0-2.409-3.215,5.872,5.872,0,0,1-2.415-1.026,3.519,3.519,0,0,0-4.02.175c-.555.342-.827,1.054-1.455.183a1.214,1.214,0,0,1,.177-1.849,21.586,21.586,0,0,0,3.79-4.61,3.583,3.583,0,0,0-.83-4.948c-.992-.894-.114-1.754.21-2.606l.4-.014c-.159-.363-.281-.221-.395.029-2.866-.705-1.952-2.432-1.067-4.047-.652-1.215-1.905,2.2-2.388-.427-.053-.287-.511.348-.767.581-2.193,2-2.639,4.719-2.926,7.439-.148,1.406-.605,1.509-1.856,1.191-1.324-.336-2.686-1.539-4.143.058-.157-1.295.662-1.859,1-2.629.183-.416.683-.8.317-1.291-.346-.465-.968-.307-1.336-.132-1.662.79-3.7.482-5.165,1.93a2.445,2.445,0,0,1-2.879.567c-1.051-.556-.514-1.569-.43-2.4.121-1.184.112-2.435,1.26-3.242.938-.659.384-1.628.429-2.456a.842.842,0,0,0-.836-.978c-.572-.007-.833.393-.952.906-.158.675.08,1.463-.726,2.175-.655-1.178-2.3-1.058-2.879-2.026-.681-1.145,1.668-1.616,1.143-3.3-.852,1.1-2.524.955-2.719,2.692a.664.664,0,0,1-1.247.292c-.7-1.569-2.553-.572-3.442-1.762-.309-.413-1.01.267-1.3.72-.371.579-.31,1.43-1.041,1.73-2.475-2.73-.745-4.971.531-7.554,3.109-6.3,8.69-9.227,14.677-11.91,2.132-.955,3.878-2.755,6.285-3.285.775-.171,1.514-.556,2.293-.656,3.963-.5,6.8-5.581,5.066-9.26a2.415,2.415,0,0,0-2.22-1.182,9.739,9.739,0,0,1-4.463-1.425c-1.172-.594-1.868-2.147-3.729-1.345-.85.367-.777-1.207-1.314-1.691-1.459-1.315-2.543-2.491-1.695-4.809.45-1.228-1.307-2.144-2.308-2.653-1.242-.633-.871.885-1.173,1.481-.188.371-.368.722-.81.81-2.781.557-1.791,3.035-2.114,4.645-.217,1.078,1.272,1.1,2.26.978.641-.082,1.653-.183.758.792-1.055,1.15,1.607,2.16.042,2.8-.8.327-1.4-1.429-2.518-1.411s-2.235-.361-3.259-.378c-2.828-.048-4.162-3.612-7.3-2.823-.5.125-.717-1.363-.358-1.811,1.184-1.478.989-3.539,2.307-4.947a1.631,1.631,0,0,0-.137-2.555c-1.261-1.087-1.047-2.6-1.17-4-.038-.444-.137-1.057.546-1.134.561-.063.8.393,1.016.85,1,2.146,3.388,2.934,4.719,4.825.583.828,1.883.892,2.447-.541.419-1.066,1.416-2.2-.542-2.822-.446-.141-1.341-3.6-1.108-4.022.637-1.146,1.422-.655,2.239-.245,2.377,1.193,2.387,1.182,3.739-1.389-.629-.883-1.5.563-2.128-.224.66-2.027,1.521-4.073.049-6.13-.27-.376-.377-.752.017-1.042s.745.046,1.081.241c1.217.7,1.06,2.252,2.053,3.477.7-2.191.276-4.159.019-6.022s-2.715-2.734-4.651-1.876a16.324,16.324,0,0,0-2.529,1.354c-1.478,1-2.33.555-2.86-1.3-.83,2.624-2.164,3.286-4.189,1.362-.32-.3-.713-.1-1.1-.09-1.655.061-3.267-.075-3.512-2.263-.063-.559-.682-.663-.921-1.043-1.019-1.62-2.753-3.007-1.732-5.328.336-.762-.246-1.3-.909-1.4-.788-.116-1.685-.932-2.41.093-.259.366-.871.847.36.929,1.112.075,1.251,1.291.987,2.1-.419,1.285-1.245.215-1.941.151-3.592-.328-4.351-3.352-5.491-5.879-.22-.49-1.244-2.459,1.14-2.408,1.013.022.8-1.272.917-1.9a1.494,1.494,0,0,0-1.333-1.7c-.742-.119-1.524.106-1.506.792.061,2.386-2.206,3.906-2.152,6.276.027,1.173-.745,1.318-1.632.765a9.449,9.449,0,0,1-1.922-1.439c-.635-.676-1.087-1.114-1.9-.2-.267.3-1.179.52-1.311.365-1.818-2.142-4.058-.724-6.119-.878-2.626-.2-3.3-1.748-1.99-4.021.839-1.449,2.1-2.637,2.54-4.34.177-.682.851-.861,1.545-.936a1.39,1.39,0,0,0,1.366-1.634c-.4-1.431-1.255.256-1.9-.065-.573-.637.841-1.556-.311-2.086a2.243,2.243,0,0,1,.947-1.335,83.56,83.56,0,0,1,11.551-7.715,14.751,14.751,0,0,1,6.158-1.755,39.233,39.233,0,0,1,17.878,2.506c7.366,2.706,11.965,7.685,14.318,15.111,1.53,4.828,1.095,10.153,3.99,14.671.579.9,1.848,2.386,1.179,3.528-.929,1.586-.467,3.131-.342,4.575a3.057,3.057,0,0,0,3.388,2.955c.819-.09.814.232.65.5-1.226,2.045.535,2.533,2.286,3.68a15.8,15.8,0,0,0-1.849-.517c-.7,1.593-1.319,3.219-1.953,4.84,2.632,1.274,1.279,3.355.962,5.149-.253,1.435-.523,3.094.366,4.066a51.659,51.659,0,0,1,5,6.193c1.227,1.851,1.879.691,2.883.158.663-.352.157-2.083,1.369-1.44a2.98,2.98,0,0,1,1.268,3.167c-.119.941-.658,1.445-1.421.881-1.729-1.278-1.473.012-1.708,1.078-.63,2.857,1.576,3.872,3.245,5.26,1.213,1.009,2.019.61,2.563-.727l-.028.007c1,1.245-.667,2.755.574,4.194.527-2.113,2.71-3.189,2.775-5.58.009-.337-.15-4.093,2.8-1.921.523.384,1.656-.376,1.442-1.593-.145-.823-.783-1.635-.1-2.5-1.207-.682-.8-3.015-2.88-2.808l.036-.011c-1.115-.474-2.115-1.915-3.461-.256-.3.367-1.468.2-1.474-.179-.033-2.07-.7-1.938-1.941-.76-.108.1-.721-.064-.811-.247-.423-.864-.8-1.432-1.954-.895-.51.238-.793-.506-.635-.965a13.911,13.911,0,0,1,.973-1.9,1.946,1.946,0,0,1,1.323,1.5.679.679,0,0,0,.894.518.651.651,0,0,0,.572-.631.889.889,0,0,0-.531-.957,21.374,21.374,0,0,0-2.254-.4c-.354-.288-.955-.426-.864-1.015.069-.456.557-.6.943-.6,2.213-.02,4.3-.2,6.126,1.807a82.478,82.478,0,0,0,14.87,13.06,24.683,24.683,0,0,1,7.55,7.842c2.756,4.627,3.875,9.732,5.37,14.753l.032-.008a4.45,4.45,0,0,1-2.984-4.43c-.035-.853-.638-1.464-1.067-1.124a3.685,3.685,0,0,1-3.054.526c-.674-.068-.732.257-.121,1,.143.174.407.271.256.525-1.245,2.095-.02,3.656.919,5.436.517.98.276,2.291,2.039,1.788.134-.038,1.428,0,1.249,1.171-.092.594.28,1.422,1.153,1.036.627-.277.672-.882.367-1.629-.717-1.758-.171-2.992,1.813-3.377l-.025.009a11.124,11.124,0,0,0,.864,2.728c2.621,4.142,4.015,8.894,6.408,13.1,3.442,6.05,4.55,12.845,6.978,19.2.059.155-.12.4-.215.683a4.114,4.114,0,0,1-.619-.392c-.343-.325-.226-1.411-1.012-.912-.693.44-.007.923.394,1.3.95.9.489,1.764-.162,2.539-2.317,2.758-1.643,6.235-2.306,9.39-.156.743.384.975.868,1.249.82.462,1.137-.195,1.519-.7C162.6-252.893,163.054-252.725,163.293-253.307ZM78.961-38.024l0-.19c.543-2.36,1.693-.923,3.03-.214-.582-1.192-.944-2.044-2.118-2.213a1.436,1.436,0,0,0-1.534.89c-.5.834.172,1.133.651,1.531Zm-14.7-3.044c1.4-2.287,3.787-1.182,5.825-1.676-.664-.934-.755-2.193-2.67-1.31-.63.291-2.7-.56-4.086-1,.116-.284.333-.578.012-.847a.393.393,0,0,0-.367.086c-.165.384.161.55.391.753-.32.414-.559.579-1.162.234-2.241-1.28-4.335-.444-4.983,2-.158.593-2.341,1.1-.214,1.918.359.138,1.363.922.778-.592-.083-.213,2.218-1.015,2.65-.472,1.176,1.477,2.571.717,3.864.9-.651,1.54.168,2.155,1.525,2.116a29.693,29.693,0,0,0,3.73-.557c.245.166.606.279.713.509.265.573.375,1.441,1.058,1.442.794,0,.9-.967,1.24-1.553.42-.734.615-1.473-.294-2.068s-1.276.254-1.783.652a7.56,7.56,0,0,0-.928,1.044A6.274,6.274,0,0,0,64.258-41.068Zm41.478-36.414a26,26,0,0,0-3.617-1.23c-2.8-.528-3.825.779-2.756,3.449.26.65.969,1.185.189,1.871-.754.663-1.042-.226-1.56-.48-.982-.481-1.209.363-.93.941a11.207,11.207,0,0,1,.87,7.315.528.528,0,0,0,.531.65c1.54.026,1.365,1.284,1.664,2.216.131.409-.272,1.088.435,1.2.868.132.762-.743.882-1.178.427-1.55-.359-2.9-1.082-4.143-.541-.933-.7-1.86.192-2.267,1.052-.478,1.138.707,1.4,1.411.139.37.225.97.476,1.057,3.154,1.09,1.712,3.518,1.6,5.51a1.945,1.945,0,0,0,.359,1.288c1.571,2.5,1.558,2.512-.991,3.308l.043-.01c-.612-.077-1.263-1.286-1.772-.216-.36.757.573,1.26,1.223,1.525,1.176.478,2.458.579,3.667,1.061,1.061.422,1.026-.957,1.312-1.522.625-1.23.562-2.89,2.428-3.2a.572.572,0,0,0,.363-.778.989.989,0,0,0-1.346-.659c-1.625.794-2.282-.475-3.213-1.311a1.055,1.055,0,0,1,.012-1.813,1.639,1.639,0,0,0,.769-1.608c-.133-.917.255-1.345,1.26-1.141a1.27,1.27,0,0,0,1.537-.856c.232-.741-.358-1.175-.93-1.5a13.89,13.89,0,0,0-1.713-.845c-1.992-.791-2.207-2.069-.465-3.373.581-.435.038-.645-.01-.929-.208-1.245-1.379-2.273-.829-3.693,1.179.538,2.68.725,2.657,2.542-.007.509.389.651.828.564a.645.645,0,0,0,.476-.917c-.6-1.357-.626-3.1-2.377-3.723-.479-.271-.727-.649-.367-1.152a3.575,3.575,0,0,1,.853-.834c1.143-.8,1.894-1.789,1.426-3.235-.5-1.554-1.937.223-2.68-.729-.006-.08-.08-.271-.015-.371.5-.766,2.237-.6,1.858-1.8-.3-.951-1.672-.3-2.554-.543a4.328,4.328,0,0,0-4.124,1.118c-.535.5-1.413,1.758-.811,1.952,2.3.74,1.094,2.626,1.477,3.895.273.906.807.827,1.309,1.047.866.38,1.761.691,2.643,1.03ZM37.747-23.921c-1.034,1.609-2.227.484-2.056-.366.537-2.663-2.157-3.28-2.724-5.327-.755.536.075,2.774-1.852,1.666-.252-.145-.64.116-.7.475-.114.655.384.807.864.889.77.132,1.441.351,1.372,1.317-.084,1.168-.962.661-1.6.8-1.641.347-2.018,1.728-.72,2.919.807.741.813,2.662,2.69,2.03a1.4,1.4,0,0,1,.34.773c-.11.68-.646,1.576.428,1.718.46.061,1.219-.682,1.53-1.235.8-1.421,1.387-2.917,2.909-3.836.885-.535.013-1.692.473-2.471.284.111.578.318.847.012a.387.387,0,0,0-.083-.358c-.374-.15-.553.152-.754.385A1.109,1.109,0,0,0,37.747-23.921Zm62.874-166.571c-.146.546-1.022,1.142-.242,1.636a1.808,1.808,0,0,0,2-.359c.741-.653-.074-1.331-.339-1.879-.249-.513-.908-.827-1.386-1.229.465-.822,1.183-1.535,1-2.623-.1-.6.035-1.221.768-1.231.583-.007.983.349,1.061,1.057q.356,3.227.842,6.439a8.619,8.619,0,0,0,.562,1.553c.279.775.613,1.7,1.606,1.372.909-.3.826-1.242.6-2.07-.122-.454-.459-1.112-.276-1.348,2.37-3.044-.457-5.165-1.619-7.244-.771-1.379-2.826-2.179-3.63-3.883-.843.6-.482,1.109-.529,1.55-.044.412-.135.835-.609.911-.588.094-.807-.27-.939-.813-.262-1.08-.064-2.927-1.979-.825-.525.578-2.464-.132-3.783-.254-.07.855,1.022,1.291.631,2.241a.746.746,0,0,0,.783.964c3.528-.772,4.177,2.172,5.544,4.194C100.252-191.738,100.786-191.11,100.621-190.492Zm28.626-112.964c.883-.475,1.626-1.028,1.3-2.127a2.2,2.2,0,0,0-.292-2.416c-1.39-1-.337-1.668.23-2.6a2.434,2.434,0,0,1-3.221-.578c-1.119-1.163.578-1.975.359-3.146-.985,2.153-3.863,2.791-4.139,5.524-.05.491-.255.917.242,1.266a1.027,1.027,0,0,0,1.307-.067,4.432,4.432,0,0,1,1.52-.632.989.989,0,0,1,1.241.848c.185.938-.542.731-1.068.8-1.028.137-2.049.329-3.078.466a3.348,3.348,0,0,0-2.657,4.357,1.872,1.872,0,0,1-.147,1.806,2.092,2.092,0,0,0,.311,2.616,3.647,3.647,0,0,1,4.006-1.679c1.55.269,2.575-.112,1.757-2.239-.658-1.71,1.216-2.945,1.719-4.5.223-.691,1.283-.131,1.931.174ZM81.134,9.556c.686-2.139-.2-3.086-2.379-2.927a2.373,2.373,0,0,1-2.616-1.185c-.43-1.033-1.36-1.261-2.107-1.8-.974.541.058,1.914-1.068,2.21-1,.263-1.581-.609-2.335-1-.993-.513-1.946-1.106-2.95-1.6-.288-.141-.634-.548-1.151-.031.964,1,2.224,1.652,2.561,3.353.2,1,.989,1.546-.443,2.027-.4.133-.4.454-.22.759.215.366.521.282.814.089a8.01,8.01,0,0,1,1.406-.914c1.09-.419,2.276-.876,2.283,1.1,0,.385.1,1.041.313,1.11,1.677.557,3.236,1.044,2,3.377-.158.3.63.163.984.233a7.31,7.31,0,0,1,3.542,2.311c.386.369.909,1.754,1.794.46.629-.919,1.527-2.03.335-3.009a2.158,2.158,0,0,1-.745-2.717,4.622,4.622,0,0,1,3.7,1.821c-.129-1.776-.349-2.851-1.706-3.315-1.443-.494-1.427.883-1.979,1.534C80.306,10.818,80.918,10.227,81.134,9.556ZM70.8-383.574c2.343-.839,2.879-2.173,1.823-4.5-.116-.507-.989-1.493.086-1.387,1.514.149,1.58-.967,2.291-1.6,1.842-1.63.629-2.387-.82-2.627-2.022-.334-4.052-1.2-6.165.421-1.08.827-3.007,1.066-3.385-1.384-.165-1.069-1.109-.761-1.267-.157-.516,1.975-2.231,1.267-3.392,1.809-1.676.781-3.449-.288-5.091.56a2.516,2.516,0,0,0-1.653,2.171c.04,1.684-.6,1.525-1.754,1s-2.04.139-1.35,1.143c1.25,1.819.022,2.95-.586,4.345-.271.62-1.494,1.382-.346,1.956,1,.5.845-.867,1.13-1.383.9-1.63,1.579-3.444,3.957-3.2.676.07.762-.281.807-.846.176-2.223.515-2.566,1.926-1.254,1.7,1.583,2.346.068,3.478-.231-.253-.9-.863-.67-1.272-.838-.737-.3-1.035-.783-.579-1.491.472-.733,1.039-.638,1.547-.011,1.575,1.946,3.47,2.037,5.508.884.914-.517,2.073-.446,2.421.177,1.083,1.938,2.659,2.195,4.559,1.932C72.2-386.52,70.771-385.354,70.8-383.574ZM61.484-91.325c-.332.423-.894.779-.617,1.441.389.926-.03,1.412-.885,1.526-1.185.158-1.191-.788-1.244-1.562a15.533,15.533,0,0,1,.085-1.866,1.16,1.16,0,0,0-1.591.987,19.6,19.6,0,0,1-2.048,5.59.833.833,0,0,0,.416,1.352c1.64.766.509,1.849.382,2.852-.094.743-3.185.5-.668,2.048-.194.241-.412.707-.579.689-2.827-.3-2.178,2.479-3.192,3.731-.753.929.473,1.719,1.3,1.642,1.643-.153,2.643.654,3.735,1.636a2.684,2.684,0,0,0,2.085.989c1.268-.166,1.733.406,1.729,1.636a1.349,1.349,0,0,0,1.2,1.327c.981.157.974-.854,1.032-1.315.293-2.322,2.642-3.6,2.929-5.924-1.05.029-1.479.9-2.133,1.5-.506-3.752.729-5.593,3.344-5.082-.161.334-.435.7.042.969a.59.59,0,0,0,.553-.169c.27-.471-.138-.647-.457-.842.453-.6.048-1.117-.252-1.534-.723-1.007-.255-1.585.7-1.643a1.176,1.176,0,0,0,1.073-1.832c-1.067-1.575.11-2.051,1.076-2.357,2.361-.748,2.058-2.644,1.889-4.312-.124-1.216-1.007-.93-1.691-.243a24.529,24.529,0,0,0-4.541,6.353c-.793-.954-.248-1.778-.451-2.473-.106-.36.151-1-.3-1.06-2.855-.405-.864-1.733-.777-2.786.733.144.725.578.826.957.1.363.066.881.615.877.46,0,.644-.356.743-.792.277-1.235.13-2.579.928-3.682-1.19-.525-.658-1.418-.1-1.772,1.021-.646,1.132-1.668,1.512-2.588.4-.96.665-1.975,1.1-2.911.129-.274.634-.438,1-.525A2.406,2.406,0,0,0,72.2-102.9c-.157-2.581.664-4.94,1.08-7.4.106-.625.843-2.049-.5-2.208-1.149-.137-1.5,1.154-1.825,2.111-.111.33.6,1.052-.352.946-.72-.081-.752-.717-.5-1.312.062-.144.223-.249.271-.394.354-1.051,1.649-2.426.094-3.08-1.046-.44-2.088,1.057-2.417,2.127-1.266,4.114-3.55,7.873-4.234,12.18a8.525,8.525,0,0,1-3.31,5.388l-.176.012.166-.052C62.6-94.025,62.7-92.877,61.484-91.325Zm40.4,60.441c-.527-.567-.711-1.073-.373-1.689a2.133,2.133,0,0,0,.091-2.6c-.6-.915.829-2.245,3.042-2.956-.56-.864-2.186-1.644-.271-2.765.464-.272-.165-.757-.394-1.159-.861-1.512-2.049-2.993-.951-4.925.159-.28.1-1.025-.06-1.092-1.782-.759-2.222-2.708-3.487-3.94C98.7-52.765,97.021-53.8,98.2-55.53a1.447,1.447,0,0,0-.064-1.964c-.7-.83-1.207-1.694-.135-2.7.634-.6.165-1.156-.361-1.6a7.015,7.015,0,0,0-3.052-1.3,2.913,2.913,0,0,0-2.582.938c-.579.507.13,1.6.684,2.089,2.007,1.779.855,4.216,1.411,6.287.156.58-.579,1.782-1.11,1.64-2.459-.661-2.358.963-2.606,2.5-.122.758-.908.926-1.546.788-1.982-.428-1.869.524-1.2,1.776.506.944-.021,1.495-.592,2.08-.417-.129-.616-.8-1.209-.492,1.148.858-1.008,1.893.058,2.583,1.178.762.428-1.119,1.215-1.067.656.487.983,1.012.4,1.811-1.16,1.589-1.251,3.487-1.432,5.345-.083.853,1.837,2.6-1.044,2.186-.309-.044-.226.781.086.986,2.839,1.868-.342,2.841-.728,4.12-.455,1.508-1.349.488-2.134-.139-.969-.773-1.339.128-1.292.846a2.389,2.389,0,0,0,.865,1.657c2.606,1.705,3.054,3.843,2,6.715-.4,1.078.435,2.4,1.414,3.788-1.942-.345-3.029-1.515-4.592-2.155-.029.865.806,1.251.595,2-.153.547,2.908,3.5,3.453,3.446a.725.725,0,0,0,.537-.375c.244-.877.55-1.972,1.609-1.64.882.277-.041,1.58.409,2.148,1.131,1.429.416,2.5-.427,3.624-.349.466-.754.956-1.373.714-.646-.252-.214-.785-.15-1.23.226-1.555-.986-2.015-2.251-2.734-.144,2-1.113,2.209-2.576,1.21-.381-.262-.866-.589-1.268-.061a.929.929,0,0,0,.107,1.293c.574.593.284,1.391.285,2.018.01,3.348-.053,3.34,3.226,3.4a7.628,7.628,0,0,0,5.829-2.231c.944-.929.112-2.3.852-2.9,2.322-1.859,2.014-5.181,4.175-7.073,1-.874.087-1.405-.452-1.888-.695-.624-1.182-1.627-.395-2.013,2.431-1.193,2.37-4.923,5.685-5.224,1.225-.111-.131-1.426.111-2.118,1.553.028.953,1.389,1.692,2.116.909-2.635,5.034-.341,5.43-3.807l.19,0-.183.024A3.105,3.105,0,0,1,101.881-30.884Zm31.013-289.991c.842.334.28.926.021,1.376a14.589,14.589,0,0,0-1.606,2.949c-.45,1.468-.915,2.74.424,4.139,1.3,1.357.778,3.081.15,4.671-.136.345-.46.779.033,1.045a.914.914,0,0,0,.859-.1c1.026-1.623,2.945-1.555,4.388-2.371,2.219-1.255,2.309-2.31.231-3.737-1.625-1.117-1.465-1.811.775-3.351-.024-.532-.451-.577-.826-.693-1.423-.442-3.2-.652-1.522-2.828a1.361,1.361,0,0,0-.221-1.791c-1.724-1.154-2.937-3.6-6.018-2.306C131-323,131.443-321.451,132.894-320.875ZM46.818-37.738c.288-.129.686-.34.909-.239,2.547,1.155,3.885-.433,5.323-2.128.652-.769,1.635-1.636.966-2.392a4.57,4.57,0,0,0-3.177-1.431,5.222,5.222,0,0,1-2.481-.159c-.143-.064-.407-.163-.444-.115-1.37,1.79-3.394,1.282-5.294,1.622.769.477,1.561.922,2.3,1.441.678.475,1.96.809,1.456,1.857s-1.319-.466-2.261-.093C44.263-37.488,45.174-37,46.818-37.738Zm46.9-316.174c-.3,1,.188,1.442,1.1,1.208,1.735-.444,2.913.576,4.154,1.427.654.449,1.687.785.332,1.837-.936.725.262,1.365.645,1.967a.954.954,0,0,0,1.447.271c.792-.445.617-.789.282-1.507a2.891,2.891,0,0,1-.05-2.292c1.357-2.4-1.165-3.956-1.164-6.046,0-.461-.773-.939-1.35-.715-1.37.532-2.634,1.4-4.231,1.04-.109-.024-.3.332-.413.461C94.205-355.433,93.946-354.677,93.718-353.912ZM55.949-133.369c-.046-.644-.191-1.069-.771-1.322-1.391-.608-3.015,1.051-4.4-.437-.1-.108-.566.944-.53,1.612.144,2.69-.294,5.395.244,8.058C54.506-127.054,56.224-129.576,55.949-133.369Zm-.984-4.834c1.924-2.634.446-5.314.569-7.958.015-.316-.179-.7-.054-.935.155-.29.543-.454.83-.672-.1-.1-.188-.24-.31-.287-.443-.172-.939-.5-1.341-.422-.685.142-.633.832-.559,1.393.263,1.992-1.094,3.439-1.71,5.134-.408,1.123-.909,2.213-1.308,3.339A1.575,1.575,0,0,0,51.4-136.9C52.676-136.068,54.085-137,54.965-138.2Zm103.374-91.663a6.81,6.81,0,0,1,1.32,4.238,6.543,6.543,0,0,0,1.4,3.6c.335.519.694,1.2,1.5.77a1.432,1.432,0,0,0,.66-2.046c-1.331-2.6-2.039-5.487-3.662-7.948-.383-.581-.773-1.392-1.509-.456A1.469,1.469,0,0,0,158.339-229.866Zm-63-142.466c-1.312-.089-3.317,2.343-2.863,3.341,1.132,2.483,3.456,1.927,6.09,1.985C96.984-368.889,98.662-372.108,95.342-372.332ZM90.381-298.5a2.835,2.835,0,0,0,3.3-1.074c.971-1.3.232-2.869-.084-4.313-1.5.6-3.342.695-3.968,2.881C87.474-299.731,89.566-298.895,90.381-298.5Zm30.541-17.67c-1.592-1.506-2.966.222-4.463.018-.494-.067-.115,1.421.109,2.108.2.625.728.405,1.088-.057.9-1.153,1.724-.859,2.57.093,1.188,1.335,2.922.854,4.261.782,1.408-.076.009-1.933.9-2.738C123.766-315.027,122.124-315.034,120.922-316.171Zm-2.83,228.363c1-.112,2.139-.718,2-1.943-.144-1.31-1.356-1.429-2.431-1.313-.779.084-1.533.385-2.308.535-.6.117-1.476-.025-1.536.751-.052.673.8.882,1.331,1.2A3.979,3.979,0,0,0,118.092-87.808Zm-3.059-86.028c.7.168,1.21.379,1.579-.372.4-.816-.012-1.363-.678-1.792a6.352,6.352,0,0,0-2.721-.777c-.389-.052-.791,0-1.183-.039-.93-.089-1.872-1.864-2.562-.623-.55.988,1.441,1.1,1.964,2.033A15.106,15.106,0,0,0,115.033-173.836ZM110.108-36.264c-1.676.709-.974,2.3-1.128,3.552-.051.41.767.629.724.422-.46-2.214,1.813-1.973,2.666-2.611,1.461-1.09.934-1.5.08-2.316-.384-.366-.733-.768-1.283-1.349C111.116-37.48,111.081-36.677,110.108-36.264Zm46.2-230.452c-1.374,1.732-1.214,5.349.449,7.794A7.409,7.409,0,0,0,156.307-266.716Zm-26.192,64.624c-3.178-1.23-6.473-.422-9.716-.475A18.729,18.729,0,0,0,130.115-202.092ZM59.739-212.186c-.163-1.366-2.067-1.584-3.01-1.176-1.99.86.56,2.424-.881,4.1C57.757-210.375,59.989-210.1,59.739-212.186Zm87.188,37.5a10.828,10.828,0,0,1-3.935,3.491c-.3.152-.548.381-.373.743.2.41.572.466,1,.4A3.218,3.218,0,0,0,146-171.472a9.09,9.09,0,0,1,3.585-3.572C148.518-175.51,147.565-175.58,146.927-174.691ZM52.6-121.118c.577.567,1.3-.169,1.349-.778.112-1.243,1.9-2.407.524-3.615-.806-.71-1.737.168-2.364.835A3.265,3.265,0,0,0,52.6-121.118Zm54.226,99.8c-.313,1.122.927,1.228.505,1.973-.279.492-1.6.813-.467,1.527a1.942,1.942,0,0,0,2.406-.173c.567-.492,1.479-.579,1.839-1.687C109.6-20.117,107.909-19.558,106.823-21.317ZM91.683-4.576c-.291.465-1.343.636-.724,1.48a1.6,1.6,0,0,0,1.476.656c.82-.1,1.191-.757,1.462-1.433.353-.876-.61-1.637-.151-2.664A3.638,3.638,0,0,0,91.683-4.576Zm12.979-92.885c-.776-3.11-2.292-3.789-5.268-2.325C101.4-99.642,102.908-98.409,104.662-97.461ZM83.529-367.973c-.039-.392.144-.8-.332-.984a1.451,1.451,0,0,0-.649.033c.055,1.845-3.294,2.462-1.678,4.83C81.874-365.263,83.743-365.852,83.529-367.973Zm5.029,28c.157.314-.049.915.526.871a.606.606,0,0,0,.466-.911c-.8-1.83,2.069-1.973,1.521-4.017C89.855-342.775,87.217-342.666,88.558-339.974ZM50.178-54.438a.976.976,0,0,0,.427-1.441c-.756-.948-.629.535-1.109.491-1.73-.162-1.917,1.655-2.973,2.414C48.014-52.9,49.033-53.826,50.178-54.438Zm54.045,35.086a.748.748,0,0,0,1.269-.482c.063-.911.88-1.973-.057-2.719a1.16,1.16,0,0,0-1.874.552C103.46-21.148,103.276-20.075,104.223-19.352ZM66.384-116.987c-.009-.582-.046-1.408-.656-1.323-1.557.215-.993,1.922-2.13,3.045C65.415-115.249,66.408-115.417,66.384-116.987ZM58.337-54.538a.559.559,0,0,0,.195.969c.429.147.734-.138.888-.565.425-1.185.858-2.367,1.487-4.1C59.355-57,59.408-55.426,58.337-54.538Zm8.622-323.343c-.253.489-1.161,1.076-.334,1.588.613.38,1.138-.371,1.52-.883a2.126,2.126,0,0,0,.208-2.724A19.9,19.9,0,0,0,66.959-377.881ZM62.741-4.155c.156-.947,1.056-1.893.09-2.839-.1-.1-.747.092-.8.263-.36,1.061-1.1,2.205.33,3.148C62.494-3.779,62.708-3.952,62.741-4.155Zm54.869-98.586c-.545.429-.246.975.28,1.01.689.045,1.563.912,2.091-.181a1.6,1.6,0,0,0-.385-1.778C118.625-104.053,118.184-103.194,117.61-102.741ZM57.156-157.458a.809.809,0,0,0-.612.1c-.33.305-.392.853-.044,1.043.969.528.877,1.616,1.366,2.558C59.33-155.475,57.683-156.355,57.156-157.458ZM88.008-65.719c-2.052-.491-2.052-.491-1.893,2.733C86.789-64.323,87.159-65.155,88.008-65.719Zm.237-306.867c.409.33.847-.123,1.066-.576s.859-.942.247-1.452c-.482-.4-1.054-.187-1.5.268A1.469,1.469,0,0,0,88.245-372.586Zm-7.893-2.2c-.429-.334-.762-1.375-1.426-.42-.465.667.31.969.789,1.164.781.319,1.4,1.076,2.71.884C81.6-373.8,80.978-374.3,80.352-374.786ZM60.558-109.513c-.28.508-.545,1.172.147,1.448,1.1.439,1.39-.829,2.084-1.259.524-.324.207-.835-.338-1.135C61.532-110.8,60.977-110.275,60.558-109.513ZM82.04-125.227a.521.521,0,0,0,.951-.067c.511-1.12-.774-1.357-1.135-2.062-.162-.316-.624-.468-1.024-.012C80.776-126.424,81.643-125.944,82.04-125.227Zm-42.462-5.815c-1.536.05-1.938.912-1.73,2.205Zm52.29-214.125a.645.645,0,0,0-.446-.932,1,1,0,0,0-.846.163c-.377.388-.077.7.294.922S91.649-344.716,91.868-345.167ZM48.469-80.284c-.026.071.308.4.41.37a1.082,1.082,0,0,0,.815-1.178A1.074,1.074,0,0,0,48.469-80.284Z" style="fill: #9bb0aa"/>
        <path d="M57.922,4.945c-1.686-.676-1.819,1.191-2.781,1.7L51.984,4.587c.629-1.368,1.1-3.026,3.16-1.569A1.07,1.07,0,0,0,56,2.95c.373-1.742,2.093-1.924,3.188-2.815.551-.448.853-1.834,1.7-1.095.767.668.668,1.872.07,2.969a9.52,9.52,0,0,1-3.084,2.957ZM56.7,3.253c-.037.062.085.218.136.331.114-.076.274-.13.326-.237.04-.08-.059-.228-.1-.358C56.924,3.079,56.763,3.138,56.7,3.253Z" style="fill: #1c2d28"/>
        <path d="M66.622,13.747c.266-1.565-1.9-4.682-3.445-4.833a2.884,2.884,0,0,1-1.453-.74c-1.4-1.015-2.191-.639-2.472,1.018Z" style="fill: #1c2d28"/>
        <path d="M48.552,2.473c.516-1.118,1.837-2.169.456-3.489C47.449-2.5,47.037-2.309,45.526.471A9.39,9.39,0,0,0,48.552,2.473Z" style="fill: #1c2d28"/>
        <path d="M58.418,8.66c1.378-.686,1.435-1.8,1.129-3.135-.284-1.233-1.126-.359-1.673-.559l.048-.021Q57.184,6.174,56.445,7.4Z" style="fill: #1c2d28"/>
        <path d="M71.529,16.731c-.263-2.186-2.471-2.442-3.715-3.649-.213-.207-.66.479-.762.946Z" style="fill: #1c2d28"/>
        <path d="M85.058,25.09a22.072,22.072,0,0,0-1.366-2.165c-.624-.785-1.286-.87-1.73.225Z" style="fill: #1c2d28"/>
        <path d="M56.445,7.4q.739-1.228,1.477-2.457c-1.686-.676-1.819,1.191-2.781,1.7Z" style="fill: #9bb0aa"/>
        <path d="M81.161,11.441c-.855-.623-.243-1.214-.027-1.885.686-2.139-.2-3.086-2.379-2.927a2.373,2.373,0,0,1-2.616-1.185c-.43-1.033-1.36-1.261-2.107-1.8-.974.541.058,1.914-1.068,2.21-1,.263-1.581-.609-2.335-1-.993-.513-1.946-1.106-2.95-1.6-.288-.141-.634-.548-1.151-.031.964,1,2.224,1.652,2.561,3.353.2,1,.989,1.546-.443,2.027-.4.133-.4.454-.22.759.215.366.521.282.814.089a8.01,8.01,0,0,1,1.406-.914c1.09-.419,2.276-.876,2.283,1.1,0,.385.1,1.041.313,1.11,1.677.557,3.236,1.044,2,3.377-.158.3.63.163.984.233a7.31,7.31,0,0,1,3.542,2.311c.386.369.909,1.754,1.794.46.629-.919,1.527-2.03.335-3.009a2.158,2.158,0,0,1-.745-2.717Z" style="fill: #fefefe"/>
        <path d="M101.081,14.131c-.587-.222-1.515-1.146-1.73-.218-.478,2.06-3.561,1.893-3.37,4.256.061.75.707,1.514,1.472,1.149.977-.466,2.556-.52,2.5-2.142-.039-1.218-.068-2.342,1.12-3.074Z" style="fill: #fefefe"/>
        <path d="M81.151,11.4a4.622,4.622,0,0,1,3.7,1.821c-.129-1.776-.349-2.851-1.706-3.315-1.443-.494-1.427.883-1.979,1.534Z" style="fill: #fefefe"/>
        <path d="M57.058,2.989c-.134.09-.3.149-.361.264-.037.062.085.218.136.331.114-.076.274-.13.326-.237C57.2,3.267,57.1,3.119,57.058,2.989Z" style="fill: #9bb0aa"/>
      </g>
    </g>
  </g>
</svg>
