<svg id="e2dc925b-92c2-4016-a7a7-80cca420b7dd" data-name="Layer 1" xmlns="http://www.w3.org/2000/svg" xmlns:xlink="http://www.w3.org/1999/xlink" width="1344.293" height="194.648" viewBox="0 0 1344.293 194.648">
  <defs>
    <clipPath id="b225c4ed-fc9e-4f00-98b2-b3123aa9fa1d">
      <rect x="9.315" y="35.525" width="167.335" height="138.99" style="fill: none"/>
    </clipPath>
  </defs>
  <title>banner-9</title>
  <g style="clip-path: url(#b225c4ed-fc9e-4f00-98b2-b3123aa9fa1d)">
    <g>
      <path d="M175.4,90.7c-2.456-3.093-7.094-6.276-10.641-6.549a31.742,31.742,0,0,0-15.59,2.954c-5.965,2.867-11.513,9.143-16.7,8.506s-6,1.092-15.825-8.185-29.1-29.014-35.107-31.469-9.914-8.732-30.1-7c0,0-8.458,1.547-12.005,4.093,0,0-.9-.4-.307-1.143a1.543,1.543,0,0,0-.569-2.347s.921-.75.716-1.569-1.023-1.33-1.466-1.842.375-.921.579-1.432a4.636,4.636,0,0,0,.069-2.217C38,40.638,30.5,41.883,30.5,41.883c-2.456.341-5.014,1.637-4.946,2.456s1.433,2.251,1.638,2.455-.614.205-.819,1.023a3.283,3.283,0,0,0,.409,2.252c.273.409-.546,1.091-.068,2.387a10.077,10.077,0,0,0,.886,1.91l4.912,36.767a4.148,4.148,0,0,0,0,2.524,4.733,4.733,0,0,0,1.023,1.569c.41.477,1.092,1.181.751,1.75a7.356,7.356,0,0,0-.682,1.842c-.148.552-.478,1.728-.069,2.138a3.824,3.824,0,0,1,.843,1.3l.249.545,18.349,138.61s-2.183-.342-1.3,1.432,2.524,1.774,2.456,2.592.422,1.187-.3,1.685-1.064.7-1.133,1.521-.273,1.774.41,2.251,1.637,1.3,1.637,1.3l3.342,33.493s-2.66.409-3,1.569a7.013,7.013,0,0,1-.751,1.773s-2.251,1.365-2.114,2.8-.409,3.752.887,4.366,4.229,1.3,4.979,2.183,3.07,2.114,4.093,3.547,2.387,3.615,2.387,3.615-4.3,1.228-5.116,2.456-2.469,2.478-1.644,4.309,1.3,3.7,3.691,3.467,9.55-2.319,10.709-2.319,4.025-.478,5.048-.614,6.753.409,6.958-.887a31.029,31.029,0,0,0,.2-3.615s2.528-1.948,4.5-1.842,6.275-.75,8.594-.955,1.979-1.023,4.571-.2a20.448,20.448,0,0,1,5.457,2.523c1.637,1.023.955,1.842,2.728,2.047s3.138.136,3.82-.478.273-.477,1.3-1.091,2.183-.478,2.047-1.637-2.456-4.571-3.411-5.253-3.411-1.159-3.479-1.705,2.115-2.592,2.115-3.411-.682-3.137.409-3.547,2.319-.2,1.637-1.023-1.569-2.729-2.046-3.07a3.04,3.04,0,0,0-.877-.448l59.79-172.245,4.366-13.733S177.852,93.793,175.4,90.7ZM153.75,113.439,70.067,277.171l-1.2.32s-4.434-25.784-4.707-26.466.046-.819.318-1.3.478-.409.751-1.386-.41-1.41-.591-1.842-1.365-1.092-1.683-1.273,0-.614,0-.683a10.781,10.781,0,0,1,.682-.909,3.961,3.961,0,0,0,.773-1.978c.068-.842-1.3-2.388-1.655-2.736s-.346-1.289-.346-1.289S45.561,106.352,45.394,105.6a44.367,44.367,0,0,1-.408-4.508c-.088-1.547.53-1.326.84-2.387a2.4,2.4,0,0,0-1.282-2.564,2.654,2.654,0,0,1-1.238-1.282c-.4-.619,0-.707.486-1.194a14.168,14.168,0,0,0,1.6-1.768c.628-.839-1.292-1.989-1.822-2.342s2.121-2.829,3.713-3.758a37.276,37.276,0,0,1,12.422-5.01c7.958-1.819,18.69,4.821,18.69,4.821,2.865,1.227,23.738,18.235,23.738,18.235,11.142,8.868,20.6,10.5,26.74,11.233s12.6-2.911,12.6-2.911a123.677,123.677,0,0,0,11.551-6.73c1.365-1.137,3.411-2.592,4.42-2.761s.628.169.855.987S153.75,113.439,153.75,113.439Z" style="fill: #b17840"/>
      <path d="M49.314,63.408l1.9,15.991S67.87,73.385,83.552,87c14.379,12.478,26.132,22.637,40.874,26.431,4.187,1.077,11.978-.322,16.357-2.585a74.12,74.12,0,0,0,7.108-4.128s-11.936,5.111-20.047,5.309c-8.863.217-22.3-10.962-28.768-18.387S73.013,70.19,63.844,66.517C55.233,63.067,49.314,63.408,49.314,63.408Z" style="fill: #8c5521"/>
      <circle cx="142.434" cy="105.918" r="2.064" style="fill: #ebcab7"/>
      <circle cx="147.891" cy="103.465" r="2.064" style="fill: #ebcab7"/>
      <circle cx="137.068" cy="107.982" r="2.064" style="fill: #ebcab7"/>
      <circle cx="125.781" cy="107.982" r="2.064" style="fill: #ebcab7"/>
      <circle cx="131.539" cy="108.777" r="2.064" style="fill: #ebcab7"/>
      <circle cx="114.829" cy="103.207" r="2.064" style="fill: #ebcab7"/>
      <circle cx="120.443" cy="105.918" r="2.064" style="fill: #ebcab7"/>
      <circle cx="105.612" cy="95.698" r="2.064" style="fill: #ebcab7"/>
      <circle cx="96.849" cy="87.444" r="2.064" style="fill: #ebcab7"/>
      <circle cx="101.101" cy="91.571" r="2.064" style="fill: #ebcab7"/>
      <circle cx="110.054" cy="99.826" r="2.064" style="fill: #ebcab7"/>
      <circle cx="84.434" cy="75.624" r="2.064" style="fill: #ebcab7"/>
      <circle cx="89.009" cy="78.943" r="2.064" style="fill: #ebcab7"/>
      <circle cx="93.136" cy="83.07" r="2.064" style="fill: #ebcab7"/>
      <circle cx="79.596" cy="70.973" r="2.064" style="fill: #ebcab7"/>
      <circle cx="74.208" cy="67.948" r="2.064" style="fill: #ebcab7"/>
      <circle cx="69.18" cy="64.453" r="2.064" style="fill: #ebcab7"/>
      <circle cx="51.733" cy="60.326" r="2.064" style="fill: #ebcab7"/>
      <circle cx="58.2" cy="60.69" r="2.064" style="fill: #ebcab7"/>
      <circle cx="64.438" cy="61.926" r="2.064" style="fill: #ebcab7"/>
      <path d="M154.816,110.736c-.958.219-1.684,1.556-1.26,1.913s2.65,2.95,3.45,3.15,14.8.6,15.353,0,1.072-2.453.061-2.426-14.115.176-14.115.176Z" style="fill: #4b2d15"/>
      <polygon points="38.604 53.957 37.042 54.375 42.574 86.785 37.854 54.815 38.604 53.957" style="fill: #8c5521"/>
      <path d="M167.558,86.249c1.824,1.931,3.219,2.038.966,6.651s-5.364,8.578-6.008,10.565-1.609,4.517-1.609,4.517.107-5.375.751-6.581,1.5-1.358,2.789-4.286,3.111-5.422,3-7.608a3.194,3.194,0,0,0-2.682-3.258Z" style="fill: #8c5521"/>
      <line x1="147.891" y1="103.465" x2="152.46" y2="121.54" style="fill: none;stroke: #292929;stroke-miterlimit: 10;stroke-width: 0.621498259523723px"/>
      <line x1="142.434" y1="105.918" x2="148.361" y2="130.347" style="fill: none;stroke: #292929;stroke-miterlimit: 10;stroke-width: 0.621498259523723px"/>
      <line x1="137.068" y1="107.982" x2="145.132" y2="136.56" style="fill: none;stroke: #292929;stroke-miterlimit: 10;stroke-width: 0.621498259523723px"/>
      <line x1="131.539" y1="108.777" x2="140.826" y2="144.767" style="fill: none;stroke: #292929;stroke-miterlimit: 10;stroke-width: 0.621498259523723px"/>
      <line x1="125.781" y1="107.982" x2="137.417" y2="151.408" style="fill: none;stroke: #292929;stroke-miterlimit: 10;stroke-width: 0.621498259523723px"/>
      <line x1="120.443" y1="105.918" x2="134.252" y2="157.973" style="fill: none;stroke: #292929;stroke-miterlimit: 10;stroke-width: 0.621498259523723px"/>
      <line x1="114.829" y1="103.207" x2="130.966" y2="164.998" style="fill: none;stroke: #292929;stroke-miterlimit: 10;stroke-width: 0.621498259523723px"/>
      <line x1="110.054" y1="99.826" x2="127.024" y2="172.013" style="fill: none;stroke: #292929;stroke-miterlimit: 10;stroke-width: 0.621498259523723px"/>
      <line x1="105.612" y1="95.698" x2="121.542" y2="182.738" style="fill: none;stroke: #292929;stroke-miterlimit: 10;stroke-width: 0.621498259523723px"/>
      <line x1="101.101" y1="91.571" x2="117.544" y2="190.918" style="fill: none;stroke: #292929;stroke-miterlimit: 10;stroke-width: 0.621498259523723px"/>
      <line x1="96.849" y1="87.444" x2="112.118" y2="199.67" style="fill: none;stroke: #292929;stroke-miterlimit: 10;stroke-width: 0.621498259523723px"/>
      <line x1="93.136" y1="83.07" x2="107.99" y2="207.45" style="fill: none;stroke: #292929;stroke-miterlimit: 10;stroke-width: 0.621498259523723px"/>
      <line x1="89.009" y1="78.943" x2="103.165" y2="217.507" style="fill: none;stroke: #292929;stroke-miterlimit: 10;stroke-width: 0.621498259523723px"/>
      <line x1="84.434" y1="75.624" x2="97.931" y2="230.791" style="fill: none;stroke: #292929;stroke-miterlimit: 10;stroke-width: 0.621498259523723px"/>
      <line x1="79.596" y1="70.973" x2="92.012" y2="241.446" style="fill: none;stroke: #292929;stroke-miterlimit: 10;stroke-width: 0.621498259523723px"/>
      <line x1="74.208" y1="67.948" x2="86.768" y2="252.271" style="fill: none;stroke: #292929;stroke-miterlimit: 10;stroke-width: 0.621498259523723px"/>
      <line x1="69.18" y1="64.453" x2="81.575" y2="265.02" style="fill: none;stroke: #292929;stroke-miterlimit: 10;stroke-width: 0.621498259523723px"/>
      <line x1="64.438" y1="61.926" x2="77.973" y2="270.538" style="fill: none;stroke: #292929;stroke-miterlimit: 10;stroke-width: 0.621498259523723px"/>
      <line x1="58.2" y1="60.69" x2="75.378" y2="275.105" style="fill: none;stroke: #292929;stroke-miterlimit: 10;stroke-width: 0.621498259523723px"/>
      <line x1="51.733" y1="60.326" x2="73.407" y2="279.671" style="fill: none;stroke: #292929;stroke-miterlimit: 10;stroke-width: 0.621498259523723px"/>
      <polygon points="154.477 116.116 72.144 281.243 74.208 281.243 156.115 117.165 154.477 116.116" style="fill: #8c5521"/>
    </g>
  </g>
  <polygon points="204.411 104.462 162.931 172.476 0 172.476 0 194.648 279.306 194.648 1344.293 194.648 1344.293 104.462 204.411 104.462" style="fill: #212026"/>
  <g>
    <path d="M215.907,144.064l.157-.137q4.844.158,5.586.156.663,0,5.6-.156l.156.137v.977l-.156.136q-1.347.041-2.08.117a2.526,2.526,0,0,0-1.064.293,1.382,1.382,0,0,0-.44,1.006,17.256,17.256,0,0,0-.107,2.2l-.039,4.492v8.633q0,3.242.039,4.531l.1,3.379h3.985q4.764,0,5.947-.118a8.019,8.019,0,0,0,2.275-.566,16.037,16.037,0,0,0,.616-2.246q.4-1.758.42-2.031l.175-.157h.957l.137.157a29.92,29.92,0,0,0-.322,3.027q-.166,2.246-.166,3.633l-.156.156q-3.712-.117-9.747-.117l-5.7-.039q-1.953,0-3.984.156l-.156-.156v-.645l.156-.195a8.3,8.3,0,0,0,1.328-.762,12.522,12.522,0,0,0,.244-2.519q.128-2.383.127-5.742v-8.379l-.039-3.809q-.019-2.226-.107-2.871a1.767,1.767,0,0,0-.274-.859,1.408,1.408,0,0,0-.713-.352,16.733,16.733,0,0,0-2.6-.215l-.157-.136Z" style="fill: #fff"/>
    <path d="M240.771,143.927l2.441.078q2.4.078,3.145.078.663,0,5.6-.156l.156.137v.977l-.156.136q-1.347.041-2.08.117a2.526,2.526,0,0,0-1.064.293,1.382,1.382,0,0,0-.44,1.006,17.256,17.256,0,0,0-.107,2.2l-.039,4.492v9.043l.019,3.808a26.571,26.571,0,0,0,.117,2.852,1.815,1.815,0,0,0,.284.859,1.459,1.459,0,0,0,.712.362,15.588,15.588,0,0,0,2.6.224l.156.117v.977l-.156.156q-.1,0-3.437-.117-1.388-.039-2.168-.039-.606,0-5.586.156l-.157-.156v-.977l.157-.117a20.391,20.391,0,0,0,2.422-.2,1.782,1.782,0,0,0,.81-.3,1.537,1.537,0,0,0,.332-.791,18.025,18.025,0,0,0,.147-2.695l.019-4.121v-9.043l-.039-3.809q-.019-2.226-.107-2.871a1.767,1.767,0,0,0-.274-.859,1.408,1.408,0,0,0-.713-.352,16.733,16.733,0,0,0-2.6-.215l-.157-.136v-.977Z" style="fill: #fff"/>
    <path d="M253.8,145.177l-.156-.136v-.977l.156-.137q3.34.158,5.156.156.684,0,5.41-.156,1.524-.039,2.208-.039a13.316,13.316,0,0,1,4.179.528,4.883,4.883,0,0,1,2.481,1.865,5.161,5.161,0,0,1,.937,3.037,6.127,6.127,0,0,1-1.562,4.023A9.061,9.061,0,0,1,267.529,156a20.936,20.936,0,0,1,3.476.566,6.644,6.644,0,0,1,2.363,1.143,5.361,5.361,0,0,1,1.573,2,6.677,6.677,0,0,1,.576,2.852,8.991,8.991,0,0,1-.391,2.578,7.649,7.649,0,0,1-1.435,2.6,9.99,9.99,0,0,1-2.53,2.207,11.187,11.187,0,0,1-3.037,1.328,15.392,15.392,0,0,1-3.857.41q-.469,0-2.813-.1-2.6-.058-2.812-.058-1.329,0-3.262.156l-.156-.156v-.645l.156-.195a5.582,5.582,0,0,0,1.309-.7,15.336,15.336,0,0,0,.283-3.457q.107-3.263.107-4.981v-7.168l-.019-4.433q0-1.446-.039-2.354a11.442,11.442,0,0,0-.108-1.3,1.026,1.026,0,0,0-.224-.547,1.219,1.219,0,0,0-.44-.264,4.511,4.511,0,0,0-.967-.186Zm7.012,10.254q.977.078,2.207.078,4.042,0,5.625-1.445a5.1,5.1,0,0,0,1.582-3.965,4.813,4.813,0,0,0-.606-2.49,3.846,3.846,0,0,0-1.9-1.572,9.274,9.274,0,0,0-3.525-.547,15.561,15.561,0,0,0-3.2.293q-.177,1.758-.176,6.133Zm.039,14.238a13.472,13.472,0,0,0,3.086.352,8.92,8.92,0,0,0,4.375-.9,5.534,5.534,0,0,0,2.334-2.491,8.013,8.013,0,0,0,.752-3.466,6.3,6.3,0,0,0-1.592-4.5q-1.593-1.689-6.885-1.69-.879,0-2.109.078v6.66Z" style="fill: #fff"/>
    <path d="M278.954,144.064l.157-.137q6.7.117,8.574.117,6.4,0,11.406-.117l.1.137a33.215,33.215,0,0,0-.723,5.879l-.117.156h-.957l-.176-.156a2.888,2.888,0,0,0,.02-.313,19.031,19.031,0,0,0-.254-3.164,10.643,10.643,0,0,0-3.409-.713q-2.178-.165-3.271-.166-1.543,0-3.945.215l-.078,3.125-.059,3.574-.059,3.965q2.11.117,3.887.117,1.8,0,3.008-.117a5.057,5.057,0,0,0,1.416-.244.815.815,0,0,0,.312-.488,7.284,7.284,0,0,0,.186-1.279l.078-1.211.156-.157h.9l.156.157q-.039,2.129-.1,4.277l.1,4.4-.156.156h-.9l-.156-.156-.137-1.172q-.175-1.367-.254-1.631a.858.858,0,0,0-.361-.459,3.9,3.9,0,0,0-1.455-.313q-1.172-.117-3.223-.117-1.132,0-3.457.1-.1,1.641-.1,5.469,0,4.1.1,6.035h3.594q4.746,0,5.938-.118a7.8,7.8,0,0,0,2.265-.566q.175-.45.576-2.08t.459-2.041l.2-.137h.937l.156.137a26.838,26.838,0,0,0-.341,2.93q-.166,2.09-.166,3.574l-.137.156q-3.73-.117-9.766-.117l-5.312-.039q-1.857,0-3.867.156l-.157-.156v-.645l.157-.195a10.685,10.685,0,0,0,1.318-.732,15.275,15.275,0,0,0,.273-3.418q.108-3.271.108-4.991v-7.168l-.02-4.433q0-1.446-.039-2.354a7.422,7.422,0,0,0-.136-1.3,1.5,1.5,0,0,0-.225-.547.946.946,0,0,0-.41-.264,4.511,4.511,0,0,0-.967-.186l-1.484-.117-.157-.136Z" style="fill: #fff"/>
    <path d="M302.782,144.064l.157-.137q3.575.158,5.566.156,2.207,0,5.957-.136,1.386-.041,2.012-.039,4.941,0,6.7,1.8a5.882,5.882,0,0,1,1.758,4.257,6.692,6.692,0,0,1-.859,3.223,7.662,7.662,0,0,1-2.54,2.7,12.668,12.668,0,0,1-4.628,1.69q.546.76,1.972,2.636l2.774,3.672q1.347,1.816,2.89,3.838a12.4,12.4,0,0,0,1.992,2.285,2.472,2.472,0,0,0,.772.322,6.246,6.246,0,0,0,1.025.059l.157.156v.918l-.176.176a18.281,18.281,0,0,0-2.227-.117q-1.387,0-3.027.117-1.349-1.641-4.238-5.684-3.36-4.687-6.875-8.691l.195-.6q1.016.058,1.582.058a7.938,7.938,0,0,0,5.293-1.621,5.57,5.57,0,0,0,1.914-4.492,4.607,4.607,0,0,0-1.719-3.9,7.458,7.458,0,0,0-4.648-1.318,12.939,12.939,0,0,0-3.867.566q-.294.431-.293,7.325v9.043l.019,3.808a26.571,26.571,0,0,0,.117,2.852,1.815,1.815,0,0,0,.284.859,1.459,1.459,0,0,0,.712.362,15.588,15.588,0,0,0,2.6.224l.156.117v.977l-.156.156q-.1,0-3.437-.117-1.388-.039-2.168-.039-.606,0-5.586.156l-.157-.156v-.977l.157-.117a20.391,20.391,0,0,0,2.422-.2,1.782,1.782,0,0,0,.81-.3,1.537,1.537,0,0,0,.332-.791,18.025,18.025,0,0,0,.147-2.695l.019-4.121v-9.043l-.039-3.809q-.019-2.226-.107-2.871a1.767,1.767,0,0,0-.274-.859,1.408,1.408,0,0,0-.713-.352,16.733,16.733,0,0,0-2.6-.215l-.157-.136Z" style="fill: #fff"/>
    <path d="M329.54,171.681l-.176-.156v-1.016l.176-.156a8.439,8.439,0,0,0,1.836-.146,1.567,1.567,0,0,0,.733-.508,16.2,16.2,0,0,0,1.3-2.491l2.051-4.453,5.313-12.031q1.5-3.534,2.988-7.07h1.27l8.339,19.609,1.114,2.617q.488,1.114,1.123,2.422a7.387,7.387,0,0,0,.879,1.543,1.65,1.65,0,0,0,.605.362,6.539,6.539,0,0,0,1.611.146l.157.156v1.016l-.157.156q-2.07-.176-3.73-.176-3.243.1-6.484.176l-.157-.156v-1.016l.157-.156a15.661,15.661,0,0,0,2.734-.186.649.649,0,0,0,.547-.673,3.317,3.317,0,0,0-.274-1.133l-2.4-5.957H337.782l-2.128,5a5.878,5.878,0,0,0-.567,1.972.765.765,0,0,0,.527.723,8.941,8.941,0,0,0,2.657.254l.176.156v1.016l-.157.156q-2.519-.156-4.414-.156Q331.728,171.525,329.54,171.681Zm8.907-10.957h9.882l-4.9-11.777Z" style="fill: #fff"/>
    <path d="M380.4,143.927l.175.176q-.175,1.758-.175,6.133l-.157.156h-.918l-.156-.176-.215-1.8a16.569,16.569,0,0,0-.244-1.767.836.836,0,0,0-.283-.469,3.508,3.508,0,0,0-1.27-.244q-1.074-.1-2.4-.1h-3.691q-.158,4.414-.157,5.1v11.387l.04,3.808q.018,2.208.107,2.862a1.721,1.721,0,0,0,.273.859,1.535,1.535,0,0,0,.713.352,15.742,15.742,0,0,0,2.617.224l.137.117v.977l-.137.156q-5-.156-5.585-.156-.626,0-5.567.156l-.156-.156v-.977l.156-.117a20.227,20.227,0,0,0,2.432-.2,1.767,1.767,0,0,0,.8-.3,1.59,1.59,0,0,0,.341-.791,15.941,15.941,0,0,0,.137-2.695l.039-4.121V150.939q0-.312-.156-5.1h-2.91q-1.8,0-3.106.078t-1.513.4a7.038,7.038,0,0,0-.381,2.1l-.2,1.8-.175.176h-.9l-.156-.156q-.039-4.707-.176-6.133l.176-.176q3.4.158,11.309.156Q377.138,144.083,380.4,143.927Z" style="fill: #fff"/>
    <path d="M382.489,143.927l2.442.078q2.4.078,3.144.078.664,0,5.606-.156l.156.137v.977l-.156.136q-1.349.041-2.08.117a2.536,2.536,0,0,0-1.065.293,1.386,1.386,0,0,0-.439,1.006,17.222,17.222,0,0,0-.108,2.2l-.039,4.492v9.043l.02,3.808a26.571,26.571,0,0,0,.117,2.852,1.816,1.816,0,0,0,.283.859,1.468,1.468,0,0,0,.713.362,15.588,15.588,0,0,0,2.6.224l.156.117v.977l-.156.156q-.1,0-3.438-.117-1.386-.039-2.168-.039-.6,0-5.586.156l-.156-.156v-.977l.156-.117a20.37,20.37,0,0,0,2.422-.2,1.782,1.782,0,0,0,.811-.3,1.537,1.537,0,0,0,.332-.791,18.077,18.077,0,0,0,.146-2.695l.02-4.121v-9.043l-.039-3.809q-.019-2.226-.108-2.871a1.758,1.758,0,0,0-.273-.859,1.408,1.408,0,0,0-.713-.352,16.752,16.752,0,0,0-2.6-.215l-.156-.136v-.977Z" style="fill: #fff"/>
    <path d="M396.1,171.662l-.176-.176v-.9l.176-.156a13.512,13.512,0,0,0,1.9-.137,1.441,1.441,0,0,0,.918-.39,1.833,1.833,0,0,0,.273-.879c.046-.4.091-1.316.137-2.734s.069-2.435.069-3.047V147.462a2.443,2.443,0,0,0-.362-1.474,1.584,1.584,0,0,0-.986-.606,13.032,13.032,0,0,0-2.129-.146l-.156-.156v-.918l.156-.176q2.7.1,3.535.1,1.972,0,3.242-.1l6.231,8.086,9.16,11.484q1.659,2.091,3.379,3.965V152.4q0-.7-.069-3t-.166-2.91a1.4,1.4,0,0,0-.341-.83,1.9,1.9,0,0,0-.918-.323,13.759,13.759,0,0,0-1.826-.127L418,145.06v-.9l.157-.176q1.581.1,4.511.1,2.676,0,3.887-.1l.176.176v.9l-.156.156a12.981,12.981,0,0,0-1.993.147,1.258,1.258,0,0,0-.879.42,2.231,2.231,0,0,0-.244.859q-.069.567-.136,2.695t-.069,3.067v9.277l.02,5.371q.039,2.637.078,5.293a31.427,31.427,0,0,0-3.379-.82l-1.387-1.641-4.16-5.078-13.242-16.543v14.981q0,.9.068,3.2a25.743,25.743,0,0,0,.166,2.793,1.579,1.579,0,0,0,.254.674,1.465,1.465,0,0,0,.674.341,9.481,9.481,0,0,0,2.139.176l.156.156v.918l-.156.157a27.406,27.406,0,0,0-3.282-.137Q398.29,171.525,396.1,171.662Z" style="fill: #fff"/>
    <path d="M457.314,160.88v.586l-.078.235-.957.566a1.213,1.213,0,0,0-.411.332,6.651,6.651,0,0,0-.146,1.162q-.088,1.046-.088,2.549a34.377,34.377,0,0,0,.215,3.691l-.117.2a30.493,30.493,0,0,1-11,2.051,18.206,18.206,0,0,1-7.832-1.641,12.964,12.964,0,0,1-5.547-4.863,13.954,13.954,0,0,1-2.051-7.657,13.46,13.46,0,0,1,4.619-10.742q4.618-3.984,12.061-3.984a24.845,24.845,0,0,1,9.824,1.855l.137.215a46.559,46.559,0,0,0-.821,5.488l-.156.137h-.9l-.157-.156-.1-2.07a6.463,6.463,0,0,0-.127-1.192,1.383,1.383,0,0,0-.42-.459,9.77,9.77,0,0,0-1.807-.9,14.626,14.626,0,0,0-2.92-.9,16.626,16.626,0,0,0-3.144-.283,13.131,13.131,0,0,0-6.328,1.484,9.606,9.606,0,0,0-4.151,4.327,14.13,14.13,0,0,0-1.4,6.318,15.094,15.094,0,0,0,1.5,6.689,11.4,11.4,0,0,0,4.316,4.834,12.18,12.18,0,0,0,6.543,1.739,17.632,17.632,0,0,0,3.31-.323,9.809,9.809,0,0,0,2.784-.908,11.417,11.417,0,0,0,.175-2.519v-2.168a5.535,5.535,0,0,0-.195-1.924,1.3,1.3,0,0,0-.967-.537,23.227,23.227,0,0,0-3.33-.195l-.176-.176v-.86l.176-.175,1.192.039q3.066.1,5,.1,1.113,0,3.261-.117Z" style="fill: #fff"/>
    <path d="M505.322,143.986l.175.156v.957l-.156.137a14.17,14.17,0,0,0-2.666.215,1.209,1.209,0,0,0-.732.517,3.291,3.291,0,0,0-.245,1.416q-.029,1.054-.107,5.957v9q0,1.953.059,4.414a11.977,11.977,0,0,0,.244,2.862,1.149,1.149,0,0,0,.674.586,12.271,12.271,0,0,0,2.773.244l.156.136v.957l-.175.157q-3.184-.177-5.547-.176-1.6,0-5.45.176l-.175-.157v-.937l.156-.156a14.273,14.273,0,0,0,2.666-.215,1.214,1.214,0,0,0,.732-.518,3.427,3.427,0,0,0,.254-1.435q.039-1.074.1-5.938V148.009l-6.738,14.1q-2.539,5.292-4.434,9.961h-.762q-1.094-2.52-1.8-4.024l-9.336-19.394v13.652q0,1.915.049,4.4a11.339,11.339,0,0,0,.244,2.881,1.231,1.231,0,0,0,.684.586,11.422,11.422,0,0,0,2.773.235l.157.156v.937l-.176.176-1.25-.058q-1.934-.1-3.32-.1-.625,0-4.668.156l-.157-.156v-.938l.157-.175a13.585,13.585,0,0,0,2.656-.2,1.239,1.239,0,0,0,.732-.527,3.11,3.11,0,0,0,.254-1.387q.03-1.016.088-6v-8.945q0-1.778-.049-4.326a12.5,12.5,0,0,0-.234-2.95,1.188,1.188,0,0,0-.674-.595,11.429,11.429,0,0,0-2.773-.235l-.157-.156v-.937l.176-.176q1.349.1,3.633.1,2.148,0,3.75-.1,1.641,3.789,3.145,6.855l7.4,15.2,6.68-13.926q2.714-5.644,3.652-8.125,1.875.1,3.691.1Q503.1,144.083,505.322,143.986Z" style="fill: #fff"/>
    <path d="M507,144.064l.156-.137q4.844.158,5.586.156.664,0,5.606-.156l.156.137v.977l-.156.136q-1.348.041-2.08.117a2.532,2.532,0,0,0-1.065.293,1.386,1.386,0,0,0-.439,1.006,17.222,17.222,0,0,0-.108,2.2l-.039,4.492v6.211q0,3.066.127,4.5a8.014,8.014,0,0,0,.547,2.421,4.448,4.448,0,0,0,1.28,1.7,6.675,6.675,0,0,0,2.46,1.162,13.45,13.45,0,0,0,3.633.449,13.1,13.1,0,0,0,4.014-.6,6.1,6.1,0,0,0,2.842-1.728,5.928,5.928,0,0,0,1.279-2.979,33.461,33.461,0,0,0,.3-5.127v-6.015q0-1.524-.049-4.19a13.385,13.385,0,0,0-.234-3.066,1.224,1.224,0,0,0-.684-.606,10.941,10.941,0,0,0-2.764-.244l-.156-.156V144.1l.156-.176q2.891.158,4.629.156,1.484,0,4.61-.156l.175.156v.938l-.175.156a18.326,18.326,0,0,0-2.393.147,1.555,1.555,0,0,0-.781.322,1.321,1.321,0,0,0-.332.664,18.174,18.174,0,0,0-.147,2.578l-.058,4.395v5.937a44.762,44.762,0,0,1-.274,5.606,7.345,7.345,0,0,1-1.221,3.369,9.033,9.033,0,0,1-2.246,2.207,9.875,9.875,0,0,1-3.33,1.367,18.389,18.389,0,0,1-4.218.479,17.5,17.5,0,0,1-4.834-.606,9.17,9.17,0,0,1-3.311-1.6,6.292,6.292,0,0,1-1.738-2.1,7.891,7.891,0,0,1-.684-2.6q-.156-1.494-.156-4.56v-7.5l-.039-3.809q-.019-2.226-.108-2.871a1.758,1.758,0,0,0-.273-.859,1.408,1.408,0,0,0-.713-.352,16.752,16.752,0,0,0-2.6-.215l-.156-.136Z" style="fill: #fff"/>
    <path d="M539.072,164.806l.156-.156h.957l.156.156a18.008,18.008,0,0,0,.264,3.057,2.488,2.488,0,0,0,1.054,1.172,7.578,7.578,0,0,0,2.364,1.006,11.6,11.6,0,0,0,2.978.39,8.78,8.78,0,0,0,3.721-.762,5.815,5.815,0,0,0,2.568-2.236,6.136,6.136,0,0,0,.918-3.31,5.34,5.34,0,0,0-.439-2.247,3.834,3.834,0,0,0-1.231-1.533,5.575,5.575,0,0,0-1.806-.859,30.85,30.85,0,0,0-3.028-.615q-1.953-.312-3.056-.567a10.407,10.407,0,0,1-2.2-.781,5.871,5.871,0,0,1-1.826-1.338,6.107,6.107,0,0,1-1.172-1.992,7.2,7.2,0,0,1-.439-2.529,7.767,7.767,0,0,1,2.539-5.987,9.683,9.683,0,0,1,6.816-2.334,18.122,18.122,0,0,1,3.7.42,15.04,15.04,0,0,1,3.642,1.24l.137.235a26.566,26.566,0,0,0-.527,5.117l-.176.156H554.13l-.156-.136q-.041-2.344-.117-2.95t-1.778-1.5a7.784,7.784,0,0,0-3.691-.9,7.362,7.362,0,0,0-3.106.664,4.546,4.546,0,0,0-2.187,2.09,6.233,6.233,0,0,0-.742,2.91,4.456,4.456,0,0,0,.449,2.041,3.82,3.82,0,0,0,1.162,1.406,4.986,4.986,0,0,0,1.66.772q.948.254,3.467.625a20.639,20.639,0,0,1,5.029,1.181,5.6,5.6,0,0,1,2.52,2.2,6.686,6.686,0,0,1,.947,3.633,8.606,8.606,0,0,1-3.389,6.933,12.548,12.548,0,0,1-8.212,2.774,16.379,16.379,0,0,1-7.09-1.446l-.117-.254Q538.973,169.318,539.072,164.806Z" style="fill: #fff"/>
    <path d="M559.677,143.927l2.441.078q2.4.078,3.145.078.663,0,5.605-.156l.157.137v.977l-.157.136q-1.347.041-2.08.117a2.526,2.526,0,0,0-1.064.293,1.386,1.386,0,0,0-.44,1.006,17.445,17.445,0,0,0-.107,2.2l-.039,4.492v9.043l.019,3.808a26.2,26.2,0,0,0,.118,2.852,1.816,1.816,0,0,0,.283.859,1.458,1.458,0,0,0,.713.362,15.558,15.558,0,0,0,2.6.224l.157.117v.977l-.157.156q-.1,0-3.437-.117-1.388-.039-2.168-.039-.606,0-5.586.156l-.156-.156v-.977l.156-.117a20.391,20.391,0,0,0,2.422-.2,1.777,1.777,0,0,0,.81-.3,1.537,1.537,0,0,0,.332-.791,17.883,17.883,0,0,0,.147-2.695l.019-4.121v-9.043l-.039-3.809q-.019-2.226-.107-2.871a1.779,1.779,0,0,0-.273-.859,1.412,1.412,0,0,0-.713-.352,16.766,16.766,0,0,0-2.6-.215l-.156-.136v-.977Z" style="fill: #fff"/>
    <path d="M599.247,168.224l-.742,1.817a20.129,20.129,0,0,1-9.258,2.207q-7.05,0-11.455-4a13.485,13.485,0,0,1-4.4-10.469,13.8,13.8,0,0,1,2.2-7.783,13.627,13.627,0,0,1,5.8-4.981,19.227,19.227,0,0,1,8.1-1.65,24.294,24.294,0,0,1,5.136.547,21.578,21.578,0,0,1,4.239,1.308l.136.2a24.954,24.954,0,0,0-.839,5.41l-.137.156H597.1l-.156-.156-.2-3.321a10.578,10.578,0,0,0-3.447-1.767,13.975,13.975,0,0,0-4.209-.635,12.234,12.234,0,0,0-5.918,1.416,9.867,9.867,0,0,0-4.062,4.1,13.709,13.709,0,0,0-1.446,6.572,13.492,13.492,0,0,0,1.7,6.855A11.633,11.633,0,0,0,584,168.576a14.279,14.279,0,0,0,6.865,1.582,16.444,16.444,0,0,0,3.34-.332,12.618,12.618,0,0,0,2.666-.821,12.107,12.107,0,0,0,2.041-1.191Z" style="fill: #fff"/>
  </g>
  <g>
    <g>
      <path d="M1273.131,128.736c-.093,8.209-3.717,14.919-9.049,20.826-8.1,8.968-18.212,15.043-29.092,19.981a6.793,6.793,0,0,1-.856.314c-.5.15-1.152.513-1.484.026-.447-.655.275-1.1.686-1.477,3.638-3.355,7.819-6.019,11.65-9.132,8.85-7.191,15.15-15.94,16.811-27.5a25.921,25.921,0,0,0-1.234-13.468c-1.666-4.2-4.6-7.173-9.263-7.339-4.805-.171-9.436.737-12.5,5.114-.632.9-1.136,1.9-.543,2.967.624,1.121,1.734,1,2.833.855,2.2-.29,4.434-.557,6.356.918a6.43,6.43,0,0,1,2.75,5.934,6.723,6.723,0,0,1-4.309,5.72,8.9,8.9,0,0,1-12.056-5.655,11.124,11.124,0,0,1,1.41-9.829c5.012-7.261,12.255-9.484,20.582-8.056,7.992,1.371,14.161,5.405,16.561,13.706A19.725,19.725,0,0,1,1273.131,128.736Z" style="fill: #fff"/>
      <path d="M1282.962,135.833a4.241,4.241,0,0,1-8.48-.2,4.242,4.242,0,0,1,8.48.2Z" style="fill: #fff"/>
      <path d="M1278.969,114.593a4.176,4.176,0,0,1,3.942,4.407,4.345,4.345,0,0,1-4.483,3.94,4.422,4.422,0,0,1-3.971-4.484A4.268,4.268,0,0,1,1278.969,114.593Z" style="fill: #fff"/>
    </g>
    <path d="M1332.476,156.544c0,7.2.019,14.41-.01,21.616a7.028,7.028,0,0,1-3.041,5.644c-4.943,3.829-13.954,3.845-18.988.083-4.063-3.035-3.767-8.137.708-10.763a17.081,17.081,0,0,1,14.43-1.461c1.411.455,1.808.268,1.8-1.253q-.064-16.317.005-32.633a2.3,2.3,0,0,0-2.065-2.57c-7.918-2.009-15.82-4.081-23.725-6.145-1.6-.417-2.429-.338-2.408,1.812.115,11.639.054,23.28.056,34.92,0,4.739-1.285,6.93-5.681,8.592a17.273,17.273,0,0,1-15.6-1.112c-4.663-2.775-4.628-8.234.021-11.077a16.984,16.984,0,0,1,14.023-1.641c2.044.58,2.191-.142,2.184-1.786-.038-9.977-.018-19.954-.018-29.931,0-.624-.011-1.248,0-1.871.094-3.749,1.163-4.6,4.771-3.666q14.883,3.855,29.748,7.776c3.449.908,3.724,1.313,3.726,4.888q.006,10.288,0,20.578Z" style="fill: #fff"/>
  </g>
</svg>
