<svg id="Layer_1" data-name="Layer 1" xmlns="http://www.w3.org/2000/svg" xmlns:xlink="http://www.w3.org/1999/xlink" viewBox="0 0 1344.29 194.65">
  <defs>
    <clipPath id="clip-path">
      <rect x="5.06" y="-211.94" width="311.08" height="180.63" fill="none"/>
    </clipPath>
    <clipPath id="clip-path-2">
      <rect x="3.16" y="-168.27" width="164.31" height="137.68" fill="none"/>
    </clipPath>
    <clipPath id="clip-path-3">
      <rect x="83.47" y="-168.27" width="164.31" height="137.68" fill="none"/>
    </clipPath>
    <clipPath id="clip-path-4">
      <rect x="1220.21" y="103.51" width="115.45" height="91.14" fill="none"/>
    </clipPath>
    <clipPath id="clip-path-5">
      <rect x="22.38" y="37.18" width="161.76" height="135.54" fill="none"/>
    </clipPath>
  </defs>
  <title>banner-6a</title>
  <g clip-path="url(#clip-path)">
    <g clip-path="url(#clip-path-2)">
      <path d="M187.25-9c-14.91-9.43-40.75-63.08-71.07-63.53S24.17-68-1-24.1C-17,3.79-46.8,13.28,41.14,8.65S187.25-9,187.25-9Z" fill="#090302"/>
    </g>
    <g clip-path="url(#clip-path-3)">
      <g>
        <path d="M136.58-57.19c-2,3-1.19,4.46-3.58,5.65s-1.72.56-4.9,1.6-4.23.52-6.22,3-3.18,5.16-5,7.94-1.06,1.06-6.23,4.37-6.62,3.31-8.6,5.3.26,1.46-4.11,3.84-.53,1.32-9.8,4.5-8.47,1.19-13.24,4.37S69.18-14.19,66.53-11,59.78-4.13,55.8,2.09s-13,23.84-13,23.84H281.18s-4.9-19.34-15.63-28.08S254-11.55,249.26-12.34s-4.23.13-10.32-5.7S225.3-30.88,221.59-31s-2.25,1.19-5-1.19-3.05-2.25-5.83-4.51-4-1.58-7.55-4.37,4.24-1.4-8-6.62S136.58-57.19,136.58-57.19Z" fill="#441716"/>
        <path d="M76.53.29c2.64,1.44,2.4-11,6.24.72s6.48,21.35,6.72,14.64-2.4-9.36-1.2-13.92,2.88.59,7.68-5.47,4.56-6.53,6.24-9.53-1.44-12.36,2.88-4.44,7.44,5,8.16,10.08S113-2.83,113,4.61s1.2,15.36,2.16,10.08.24-13,.48-19.44.72-7.92,2.64-.72,5.65,15.6,5.7,19.68,1.15,9.16,1.29.48S126,3.38,132.84,2.56,162.4,4.5,167.33,7.49c3,1.82-18.9-36.35-36.29-58.22a26.85,26.85,0,0,0-2.94.79c-3.17,1-4.23.52-6.22,3l-.4.54h0c-1.48,2-2.55,4.07-3.88,6.23a1.3,1.3,0,0,1-.1.15c-.21.34-.42.68-.65,1-.93,1.39-1.19,1.66-1.87,2l-.28.13a24.28,24.28,0,0,0-2.4,1.23c-.48.27-1,.61-1.68,1-3.22,2.07-5,2.85-6.37,3.62A9.6,9.6,0,0,0,102-29.29a4.46,4.46,0,0,0-.81,1,2.13,2.13,0,0,0-.18.38l-.06.16a1.6,1.6,0,0,1-.46.65,4,4,0,0,1-.57.45l-.42.28c-.4.25-.92.55-1.61.92s-1.16.66-1.53.89-.5.34-.68.47l-.25.19-.23.16a1.43,1.43,0,0,1-.24.16c-.72.45-1.94.94-6.87,2.63-9.27,3.18-8.47,1.19-13.24,4.37-.89.6-1.65,1-2.31,1.42-.44.25-.84.46-1.2.64l-1,.5c-.46.23-.87.44-1.27.68-.14.09-.27.17-.4.27a8.51,8.51,0,0,0-.81.63A14.76,14.76,0,0,0,66.53-11c-.83,1-1.8,2-2.86,3.2L62.35-6.38c-.9,1-1.86,2.1-2.83,3.31C58.79-2.16,58-1.18,57.3-.13Q56.93.39,56.55,1T55.8,2.09c-.87,1.36-2,3.27-3.18,5.42-.17.3-.34.62-.52.93L51,10.38l-1.08,2c-.72,1.33-1.44,2.68-2.12,4-2.75,5.18-5,9.59-5,9.59H54.46c1.2-6.44,5-8.84,10.55-16.28S73.89-1.15,76.53.29Z" fill="#270c06"/>
        <path d="M170.93,25.32,162-39.35,139.33-56.93l-2.75-.26c-2,3-1.19,4.46-3.58,5.65-2.15,1.08-1.83.67-4.07,1.34l-.56,1.84c-2,5.56-5,12.18-4.24,19.86s-.26,12.19-.13,21.19.66,15.89,6.22,21.45a109.17,109.17,0,0,1,9.5,11.79h29.82Z" fill="#433128"/>
        <path d="M190.92-44.84c.31.91,2.53,1.51,7,8.13s7.91,4.51,7.38,11.52S205-14.33,203.05-8.63s-3.18,6.22-4,11.65.66,7.68-3.18,14.17-13.24,16-13.77,20-4.77-55.88-4.77-55.88Z" fill="#433128"/>
        <path d="M187.69-57.19c-3.13,2.72-3.43,3-5.86,5.45s-3.65,2.73-4.56,4.86-.3,2-2.73,3a29.89,29.89,0,0,0-6.38,3.94c-1.72,1.32-2.63,1.62-2.63,3.75s.1,3.08-.71,4.56-2.43,4.55-1.41,6.68,1.56,4.45,2.65,3.64,1-2.83,2.51-1,3.24,3.84,3.34,4.86-.2,1.51-.31,5.16,0,7.69,0,7.69-3.13-3.84-3.44-7.19,0-5.85-.45-7.33-2.18-12.61-5.82-15.34-3.75-1.72-5.27-3.44-1.28-3-3.34-4.23-4.16-2.51-2.89,0,2.39.89,1.27,2.51-4.75-.31-3.13,2.73a30.71,30.71,0,0,1,2.83,7.69c.91,3.24-.57,2.85,1.39,5s.53,1.56-.38,2.07-1.31-.71-.4,2,1.11,1.62,1.72,5.67a31.41,31.41,0,0,0,2.73,9.82C158-1,157.23-1.63,158.65,2s1.52,4.25,3,6.07,10.23,19.74,11.75,21.56-.71,1.42,2.22-3.13,6.79-8.91,8.1-17,1.2-6.58,3.94-13.87,3.65-11.74,6.39-15.79,5-2.43,3.23-8.5-2.22-4.66-4.45-10.73a85,85,0,0,1-3-9C189.37-50.18,187.69-57.19,187.69-57.19Z" fill="#e0c3a2"/>
        <path d="M273.33,25.81h3.15c.47-2,.59-3-2.94-7-5-5.76-12-13.44-9.6-6.24C266.11,19,273.93,21.8,273.33,25.81Z" fill="#270c06"/>
        <path d="M225-13.27c1.71,3.72-.45,4.44,2.43,11.64s7.44,12.72,8.88,17c1.05,3.16,1.59,6.34,2.94,10.4h14.09V22.6c0-6.47-.48-12.71-1.67-14.39S245-4.9,246-.39s0,10.76,1,12.92,2.64,11.75-1.68-.72-5.52-6.37-8.4-15.55.24-4.85-2.88-14.21c-2.25-6.74-5.28-8-7.23-10.7-2-1.41-3.82-2.32-5.13-2.36-3.71-.13-2.25,1.19-5-1.19s-3.05-2.25-5.83-4.51-4-1.58-7.55-4.37c-1.19-.92-1.11-1.39-.94-1.79l-1.65.69c-.24,4.55,8.16,13,13.2,16.55S223.33-17,225-13.27Z" fill="#270c06"/>
      </g>
    </g>
  </g>
  <polygon points="1209.32 104.46 1167.84 172.48 0 172.48 0 194.65 279.31 194.65 1344.29 194.65 1344.29 104.46 1209.32 104.46" fill="#212026"/>
  <g>
    <path d="M223.34,85.24h-8.2v-3h20v3h-8.24v24h-3.52Z" fill="#212026"/>
    <path d="M241.58,82.28V93.56h13V82.28h3.52v27h-3.52V96.6h-13v12.64H238.1v-27Z" fill="#212026"/>
    <path d="M287.22,95.48c0,9.28-5.64,14.2-12.52,14.2-7.12,0-12.12-5.52-12.12-13.68,0-8.56,5.32-14.16,12.52-14.16C282.46,81.84,287.22,87.48,287.22,95.48Zm-20.92.44c0,5.76,3.12,10.92,8.6,10.92s8.64-5.08,8.64-11.2c0-5.36-2.8-11-8.6-11S266.3,90,266.3,95.92Z" fill="#212026"/>
    <path d="M314.46,97.4c-.2-3.76-.44-8.28-.4-11.64h-.12c-.92,3.16-2,6.52-3.4,10.24l-4.76,13.08h-2.64l-4.36-12.84c-1.28-3.8-2.36-7.28-3.12-10.48h-.08c-.08,3.36-.28,7.88-.52,11.92l-.72,11.56H291l1.88-27h4.44l4.6,13c1.12,3.32,2,6.28,2.72,9.08h.12c.68-2.72,1.64-5.68,2.84-9.08l4.8-13h4.44l1.68,27h-3.4Z" fill="#212026"/>
    <path d="M327.86,100.76l-2.8,8.48h-3.6l9.16-27h4.2l9.2,27H340.3l-2.88-8.48ZM336.7,98l-2.64-7.76c-.6-1.76-1-3.36-1.4-4.92h-.08c-.4,1.6-.84,3.24-1.36,4.88L328.58,98Z" fill="#212026"/>
    <path d="M347.5,105a12.33,12.33,0,0,0,6.24,1.76c3.56,0,5.64-1.88,5.64-4.6,0-2.52-1.44-4-5.08-5.36-4.4-1.56-7.12-3.84-7.12-7.64,0-4.2,3.48-7.32,8.72-7.32a12.25,12.25,0,0,1,6,1.32l-1,2.84a10.74,10.74,0,0,0-5.12-1.28c-3.68,0-5.08,2.2-5.08,4,0,2.52,1.64,3.76,5.36,5.2,4.56,1.76,6.88,4,6.88,7.92,0,4.16-3.08,7.76-9.44,7.76a13.93,13.93,0,0,1-6.88-1.72Z" fill="#212026"/>
    <path d="M379.66,82.28V93.56h13V82.28h3.52v27H392.7V96.6h-13v12.64h-3.48v-27Z" fill="#212026"/>
    <path d="M425.3,95.48c0,9.28-5.64,14.2-12.52,14.2-7.12,0-12.12-5.52-12.12-13.68,0-8.56,5.32-14.16,12.52-14.16C420.54,81.84,425.3,87.48,425.3,95.48Zm-20.92.44c0,5.76,3.12,10.92,8.6,10.92s8.64-5.08,8.64-11.2c0-5.36-2.8-11-8.6-11S404.38,90,404.38,95.92Z" fill="#212026"/>
    <path d="M429.82,82.64a33.72,33.72,0,0,1,6.36-.56c3.48,0,5.72.6,7.4,2a5.65,5.65,0,0,1,2.24,4.76,6.4,6.4,0,0,1-4.56,5.92v.08a7,7,0,0,1,5.56,6.76,7.27,7.27,0,0,1-2.28,5.4c-1.88,1.72-4.92,2.52-9.32,2.52a40.68,40.68,0,0,1-5.4-.32Zm3.48,11h3.16c3.68,0,5.84-1.92,5.84-4.52,0-3.16-2.4-4.4-5.92-4.4a14.93,14.93,0,0,0-3.08.24Zm0,12.92a18.6,18.6,0,0,0,2.92.16c3.6,0,6.92-1.32,6.92-5.24,0-3.68-3.16-5.2-7-5.2H433.3Z" fill="#212026"/>
    <path d="M451.5,82.64a33.72,33.72,0,0,1,6.36-.56c3.48,0,5.72.6,7.4,2a5.65,5.65,0,0,1,2.24,4.76,6.4,6.4,0,0,1-4.56,5.92v.08a7,7,0,0,1,5.56,6.76,7.27,7.27,0,0,1-2.28,5.4c-1.88,1.72-4.92,2.52-9.32,2.52a40.68,40.68,0,0,1-5.4-.32Zm3.48,11h3.16c3.68,0,5.84-1.92,5.84-4.52,0-3.16-2.4-4.4-5.92-4.4A14.93,14.93,0,0,0,455,85Zm0,12.92a18.6,18.6,0,0,0,2.92.16c3.6,0,6.92-1.32,6.92-5.24,0-3.68-3.16-5.2-7-5.2H455Z" fill="#212026"/>
    <path d="M487.14,96.6H476.66v9.72h11.68v2.92H473.18v-27h14.56V85.2H476.66v8.52h10.48Z" fill="#212026"/>
    <path d="M492.38,105a12.33,12.33,0,0,0,6.24,1.76c3.56,0,5.64-1.88,5.64-4.6,0-2.52-1.44-4-5.08-5.36-4.4-1.56-7.12-3.84-7.12-7.64,0-4.2,3.48-7.32,8.72-7.32a12.25,12.25,0,0,1,6,1.32l-1,2.84a10.74,10.74,0,0,0-5.12-1.28c-3.68,0-5.08,2.2-5.08,4,0,2.52,1.64,3.76,5.36,5.2,4.56,1.76,6.88,4,6.88,7.92,0,4.16-3.08,7.76-9.44,7.76a13.93,13.93,0,0,1-6.88-1.72Z" fill="#212026"/>
    <path d="M221.56,130.28h3.31l-4.59,24.07h10.87l-.55,2.89H216.43Z" fill="#212026"/>
    <path d="M246.91,156.13a13.64,13.64,0,0,1-6.4,1.53c-5.14,0-7.35-3.51-7.35-7.79,0-5.82,4.32-12.42,10.55-12.42,3.68,0,5.67,2.2,5.68,5,0,5.08-5.73,6.41-12.88,6.28a8,8,0,0,0,.4,3.68,4.37,4.37,0,0,0,4.3,2.6,10.66,10.66,0,0,0,5.21-1.33ZM243.24,140c-3.16,0-5.54,3.08-6.35,6.11,5.21.06,9.29-.64,9.29-3.65C246.18,140.91,245,140,243.24,140Z" fill="#212026"/>
    <path d="M255.5,137.9l1.67,11c.29,2.2.54,3.69.62,4.75h.11c.42-1,.94-2.3,2.06-4.51l5.9-11.25h3.64l-10.77,19.34h-3.27l-3.34-19.34Z" fill="#212026"/>
    <path d="M269.4,157.24l3.69-19.34h3.31l-3.69,19.34Zm4.3-24.75a2.21,2.21,0,0,1,2.19-2.24,1.93,1.93,0,0,1,2,2.08,2.19,2.19,0,0,1-2.25,2.23A1.89,1.89,0,0,1,273.7,132.49Z" fill="#212026"/>
    <path d="M291.38,157.24a44,44,0,0,1,.43-5h-.08c-2.09,4-4.76,5.44-7.49,5.44-3.43,0-5.56-2.73-5.56-6.39,0-6.74,4.95-13.84,13.37-13.84a19,19,0,0,1,5.22.74l-2,10.08a43.42,43.42,0,0,0-.81,9Zm2.15-16.87a7.62,7.62,0,0,0-2.3-.27c-5,0-9.09,5.2-9.11,10.59,0,2.16.74,4.26,3.3,4.26,2.77,0,6-3.6,7-8.74Z" fill="#212026"/>
    <path d="M308.13,132.7l-1,5.2h4.62l-.52,2.59h-4.62l-1.78,9.4a16.33,16.33,0,0,0-.39,3.09,1.65,1.65,0,0,0,1.83,1.88,6.6,6.6,0,0,0,1.57-.16l-.16,2.61a8,8,0,0,1-2.57.35c-2.92,0-4.07-1.77-4.07-3.75a17.36,17.36,0,0,1,.43-3.63l1.88-9.79H300.6l.5-2.59h2.77l.82-4.36Z" fill="#212026"/>
    <path d="M312,157.24l5.39-28.4h3.32l-2.42,12.46h.08a8.31,8.31,0,0,1,6.91-3.86c2.2,0,4.82,1.33,4.82,5.19a18.59,18.59,0,0,1-.32,3.27l-2.15,11.33h-3.31l2.12-11.18a13.59,13.59,0,0,0,.26-2.67c0-1.78-.85-3.17-3-3.17-2.57,0-5.78,3-6.59,7.33l-1.8,9.69Z" fill="#212026"/>
    <path d="M346.18,157.24a44,44,0,0,1,.43-5h-.08c-2.09,4-4.76,5.44-7.49,5.44-3.43,0-5.56-2.73-5.56-6.39,0-6.74,4.95-13.84,13.37-13.84a19,19,0,0,1,5.22.74l-2,10.08a44.24,44.24,0,0,0-.82,9Zm2.15-16.87a7.62,7.62,0,0,0-2.3-.27c-5,0-9.09,5.2-9.12,10.59,0,2.16.75,4.26,3.31,4.26,2.77,0,6-3.6,7-8.74Z" fill="#212026"/>
    <path d="M354.32,157.24l2.58-13.72c.43-2.15.69-4,.92-5.62h3l-.49,3.8h.07a8.52,8.52,0,0,1,7.18-4.25c2.3,0,4.89,1.33,4.89,5.37a20.56,20.56,0,0,1-.34,3.13L370,157.24h-3.31l2.11-11.18a14,14,0,0,0,.27-2.47c0-1.94-.75-3.37-3-3.37s-5.73,2.83-6.61,7.61l-1.75,9.41Z" fill="#212026"/>
  </g>
  <g clip-path="url(#clip-path-4)">
    <g>
      <g>
        <rect x="1293.83" y="143.27" width="5.3" height="70.14" transform="translate(84.53 672.13) rotate(-30)" fill="#fff"/>
        <rect x="1272.98" y="144.21" width="10.72" height="5.43" rx="2.34" transform="matrix(0.87, -0.5, 0.5, 0.87, 97.8, 658.86)" fill="#fff"/>
        <rect x="1267.7" y="125.21" width="8.19" height="20.76" transform="translate(102.59 654.06) rotate(-30)" fill="#fff"/>
        <rect x="1269.41" y="129.1" width="1.81" height="15.51" rx="0.78" transform="translate(101.77 653.49) rotate(-30)" fill="#fff"/>
        <rect x="1272.72" y="127.19" width="1.81" height="15.51" rx="0.78" transform="translate(103.16 654.89) rotate(-30)" fill="#fff"/>
        <path d="M1266.31,122.28l-3,1.73c-2.83,1.55-5.32,3-3,3.33a3.8,3.8,0,0,1,2.76,1.31l2.2-1.27.48-.27,1.74-1,.78-.45,1.89-1.09a3.84,3.84,0,0,1,.24-3C1271.27,119.35,1269.07,120.61,1266.31,122.28Z" fill="#fff"/>
        <g>
          <path d="M1260.83,125.92c-2,.74-4.57-1.31-5-2.11s-2-5-3.57-5.4-3.48-.42-3.67-.64.6-1.22,1.82-1.1a11.41,11.41,0,0,1,3.15,1.17l-.55-1.47s-.12-.87-1.76-1.7-4.3-1.86-6.57-1.31-2.29,1.46-3.22,1.8a9.38,9.38,0,0,1-2.49.32c-.47,0-.37.72-.74,1.83s-.89,1.89-1.71,2.09-.71-.29-1.21.24-.1,1.14-1,.72-1.07-.27-1.26-1,.38-1-.23-1.1-.8,0-1.1-.21-.32-.41-.38-1a3.64,3.64,0,0,0-.09-1c-.12-.43-.17-.14-.07-.73s.73-.7,1-1.17-.8-.65-.42-1,2.64-.38,2.61-.65-.81-.16-1-.83-.55-.72,0-1.26a3,3,0,0,1,.9-.7,2.81,2.81,0,0,1,.59-2.1c.78-1,1.45-2.26,2.38-2.56a18,18,0,0,1,2.6-.45c.59-.1,0-1,.68-.67s1.26-.16,1.64-.08-.37-.56-.43-.8,3.38-.57,3.77-.61-.29-.85.47-.49a3.59,3.59,0,0,0,1.71.52c1.22.2,1.1.76,2.27.89s1.2.13,1.94.25l1.87.31a7.27,7.27,0,0,1,3.08,1.52,15.9,15.9,0,0,1,2.62,2.3c.54.62,2.56,2.42,2.56,2.42a9.61,9.61,0,0,0-.48-2.79c-.38-.68.49-.4.82.52a5.2,5.2,0,0,0,1.66,2.71c.85.52,4.47,4,4.65,5.3s.74,3.53.27,4.41a6.64,6.64,0,0,1-1.28,1.61s-1.12,1.15-2.1.53-2.29-1.26-2.29-1.26a3.87,3.87,0,0,1,.21,2.06A7.12,7.12,0,0,1,1260.83,125.92Z" fill="#fff"/>
          <path d="M1234.52,120.44a2.42,2.42,0,0,0-1.68,2.65,5.89,5.89,0,0,0,1.19,3.16c1,1.11.59,1.54,1.88,2.41s2.57,4.63,1.58,4.72-1.39.46-.93.7,1.36.62,1.77.1a4.76,4.76,0,0,0,.77-2.31l-.15-1.51c0-.24.46.52,1.43,1.1s5.54,2.26,6.88,2a34.07,34.07,0,0,0,5.81-.74,18.53,18.53,0,0,1,6.51-.8c1.86.18,3.37,1.31,3.57,2.13s1,1.26-.09,1.48-2.66.55-3.13.31-1.85-.58-2.24.38-1.09,1.87-.52,2.78a5.66,5.66,0,0,0,1.74,1.82c.64.46.26,1,.11,1.55s-.07.86.49.47-.89-.91,1.33-1,4.27-1,4.75-1.71,1-.94,1-2.25.28-.83.14-2.26-.94-3.78-2.09-4.51a15.58,15.58,0,0,1-2.64-1.62c-1-.89-2.24-.45-2.69-1.33s.31-1.75-.67-2-1.42-.14-1.8-.38-.09-.56-1.14-.17a6.28,6.28,0,0,1-2.11.49,1.91,1.91,0,0,0-1,.22c-.34.15-.65.3-.44-.11a5.27,5.27,0,0,0,.4-1.56c.11-.64,1.46.65,1.31-1.74s-.61-3.53-1.63-4l-1-.46s2.08,2.43,1.53,3.36-.19,1.7-1.35.86-2,0-1.69-1.28.63-1.26.5-2.2.71-.64-.5-1a12.13,12.13,0,0,0-1.68-.48l-1.63-.27a5.94,5.94,0,0,1-2.06-.6c-.26-.22-.43-.24-.71.55s-.89,1.25-.49,1.88.51,1.07.16,1.63-1.09.71-1.23,1.32a1.49,1.49,0,0,0,.84,1.6c.58.22.73.52,1.25,1s.17.9,1.55.73,2.43-1,2.71-.59.47.32.31.73-1.13,1.11-.78,1.08.06.51.84-.09,1.4-1.54,1.76-1.57a1.09,1.09,0,0,1,1,1c0,.6-1.08,2-2.6,2.42s-2.46,1-3.87.9a7.39,7.39,0,0,1-2.82-.6c-.59-.34.38-1,.68-1.27s1-.38.92-1.21-.08-1.23-.45-.47-.52,1.17-1.44,1.22-1.17.24-1.57-.16-1.66-5-2.67-5.58S1235.57,120.19,1234.52,120.44Z" fill="#fff"/>
        </g>
      </g>
      <g>
        <polygon points="1320.45 96.81 1304.25 114.53 1264 188.07 1266.82 189.7 1269.64 191.33 1313.21 119.7 1320.45 96.81" fill="#fff"/>
        <polygon points="1264.41 193.88 1261.38 192.13 1253.02 206.61 1256.05 208.36 1259.08 210.11 1267.44 195.63 1264.41 193.88" fill="#fff"/>
        <polygon points="1279.87 195.44 1276.1 194.56 1270.87 191.53 1267.04 189.32 1267.04 189.32 1264.88 188.08 1257.98 184.09 1255.33 181.27 1250.21 182.64 1251.58 187.76 1255.35 188.65 1262.25 192.63 1264.41 193.88 1264.41 193.88 1268.24 196.09 1273.47 199.11 1276.13 201.93 1281.24 200.56 1279.87 195.44" fill="#fff"/>
      </g>
    </g>
  </g>
  <g>
    <g clip-path="url(#clip-path-5)">
      <g>
        <path d="M203.6,194c-14.68-9.28-40.11-62.1-70-62.54s-90.58,4.45-115.39,47.66c-15.76,27.45-45.06,36.79,41.52,32.23S203.6,194,203.6,194Z" fill="#090302"/>
        <polygon points="136.13 157.69 112.02 170.45 113.11 153.1 133.01 152.24 136.13 157.69" fill="#886a69"/>
        <path d="M64.39,150.09a66.3,66.3,0,0,0,6.23-12.68c.72,1,6.42,10.3,11.57,10.14s5.62-.79,8.79-1.66,7.85-2.22,10.7-3.8,9.67-8.88,11.25-13.31c0,0,6.2-4.76,6-8.64a18.49,18.49,0,0,0-.23-1.86.88.88,0,0,1,.55-.21c1.88,0,13.49,14,14.94,19s5.64,14.34,2,20.66c0,0-3.28.5-10.87-2.91,0,0-10.06,15.64-15,16.41s-6.83-2-8.71-2.73-9.91-5.76-12.13-6.3S81.5,159.92,78.79,161s-9.53,5.29-11.75,5.55-9.91-.77-12.21-5.3-2.4-4.86-2.4-4.86h1.71C56,156.42,60.72,155.56,64.39,150.09Z" fill="#9e7e74"/>
        <path d="M75.94,43.72c-4.27.35-9.85-4.16-14.84,1.42s-15.79,8.42-16.5,13,.48,12,.24,16.15-3.68,9.74-3.68,15.2S44,100.22,42.7,107.35s-4.27,9.49-5.1,14.24-.72,7,1.42,11.52a85.23,85.23,0,0,0,4.75,8.43c.24.47,2.61,14.24,7.12,15.67s10.93-.36,13.78-4.63,7.83-13.77,6.76-19.71-5.34-21.61-5.34-21.61l12.7-61.73Z" fill="gray"/>
        <path d="M115.94,52.61c-2.72-3-8.85-9.48-15.84-10.35s-24.64-1.61-30.27,5.36S57.55,61.67,57.15,70s.48,24.72,1.11,27.57,0,6.58.48,11.09.31,10.94,1.66,14.5a45.08,45.08,0,0,0,5.23,9.11c.71.87,4.28,4.2,5,5.15s6.42,10.3,11.57,10.14,5.62-.79,8.79-1.66,7.85-2.22,10.7-3.8,9.67-8.88,11.25-13.31c0,0,6.2-4.76,6-8.64s-2.48-9.59-.11-10.38,6.34-2,7.45-6,2.14-7,1.82-9.51-.79-3.88-2-5.07S119.89,57,115.94,52.61Z" fill="#d79d79"/>
        <path d="M88.57,122.59c-1.43-2.08-4.45-1.66-7.9-1.62s-6.44-.49-6.36,1.22,7.32.83,10,.75A37.6,37.6,0,0,0,88.57,122.59Z" fill="#540b06"/>
        <path d="M101.89,43.37c-15.74-3.1-.9-2.39,4.57-3.1s8.78-2,11-2,10.68,3.68,11.39,6.53,2.14,7.83,4.52,11.4.35,7,4.39,10.92,7.48,3.2,8.9,7.12,3.44,8.55,1.9,11.76,2.61-2.62,1.9,7.47-.83,7,.59,13.3.72,7.84.84,13.18-.36,4.16-3.21,4.51-3.32-1.66-4.16,1.54-2,3.09-4.27,3.45-1.19-.12-3.32,1.9.23,2.73-3.92,2-3.33.59-6.41-.84S123,129.66,122,126.1s-1.19-5.46-2.85-6.29-3.74,1-3.46-.44-2.36-9.06-2.48-11.79a13.65,13.65,0,0,1,2.61-8.9c2.14-2.73,4.75-4.39,5-7.48s1.43.83.12-6.29-4.27-21.67-3.8-25.41S113,45.55,101.89,43.37Z" fill="gray"/>
        <path d="M103.49,41.1c-3.33-1.07-9.14-3-12.94-2.85S84,39.67,80.22,40.39s-6.53-.88-8.19,1.94,2.85,5.18,3.8,5.18,13.5,5.22,19,2.26A24,24,0,0,0,103.49,41.1Z" fill="gray"/>
        <path d="M89.13,148c0,.24-2.4,12.15-3.62,11.91-1.85-.36,1.77-9.35,3.62-11.67" fill="#886a69"/>
        <path d="M104.62,84.81c-5.5-2.34-7.44-2-10.2-1.35s-7,2.82-5.51,3.77,2.47.1,3.71-.22a31,31,0,0,1,6.84-.55c2.61.08,5.57.57,7,.62S105.31,85.11,104.62,84.81Z" fill="#260d0b"/>
        <path d="M73.55,86.49c.74.47-.29,2.08-1.66,1.54a11.45,11.45,0,0,0-6.71.24c-2.5.83-3.21,1.84-3.93,1.43s1.31-3,3.75-3.77C66.75,85.36,68.68,83.4,73.55,86.49Z" fill="#260d0b"/>
        <path d="M98,89.76c-2.54-.09-4.71-.06-5.21,1.08s.71,2.94,2.76,2.94,5.73-.16,7.09-.94c.32-.18,0-.59,0-.74C102.41,90.94,100.27,89.83,98,89.76Z" fill="#fae1d7"/>
        <path d="M73.33,93.64c.59-.19.86-.49.47-1s-1.33-2.18-2.25-2.28a16.78,16.78,0,0,0-3.61.08A8.38,8.38,0,0,0,64.5,91.9c-.55.65-1.45,1.22-.51,1.55a11.3,11.3,0,0,0,3.62.79c1-.07,4.62-.46,5.06-.47A1.56,1.56,0,0,0,73.33,93.64Z" fill="#fae1d7"/>
        <path d="M73.63,105.58A16.06,16.06,0,0,0,72.16,108a7.6,7.6,0,0,0-.48,1.3,2.37,2.37,0,0,0-.08.63l0,.73a4.91,4.91,0,0,0,.14,1.32c.13.41.24.38.73.87s.62.84.87,1.11.14.22.32.29a2.44,2.44,0,0,0,.68.12l0,.1a1.37,1.37,0,0,1-.71.47,1,1,0,0,1-.55,0,2,2,0,0,1-.43-.25c-.46-.38-.73-.76-1-1-.15-.17-.27-.23-.54-.55a1.83,1.83,0,0,1-.36-.89,8,8,0,0,1,0-1.56l.07-.72a3.26,3.26,0,0,1,.18-.79,6.3,6.3,0,0,1,.67-1.35,13.09,13.09,0,0,1,1.82-2.29Z" fill="#b25f40"/>
        <path d="M83.83,115.71c1.81-2,3.22-3.48,3.44-2.17s.22.57,1.4.35.87,1.53,2,.83A4.74,4.74,0,0,0,92.59,113c.8-1,2-2.35,1.58-1.34S92.6,113.1,93,114s-.06,1.74,1.3,1,.84-.22,1.89-.09.39-.39,1.31-.79.66-.26,1.57.42.88,1.2,1.62.59,2.19-2.45,2-.88-.79,2.4-.51,2.64,1.82-.54.73.9-1.66,1.88-.48,2.15,2,.3.87,1.83-1.44,1.36-2,2.23,0,.72-1.53,1.14-2.31.92-4.28-.26-1.85-2.36-2.85-2.41.18-.7-1.83-.39-2.09,1-4.06.48-3.23-2-4.2-2-1.35.74-2.66,1.22-3.85,0-4.94-.17-2.4-1.29-2.89.17-.21,2.93-1.44,3.11.57-.14-2.49-.4-1.88-.39-2.32-1a5.53,5.53,0,0,1-1-1.57c-.22-.7,1.31.22.13-1s-1.22-.13-.78-1.31.3-.88.08-1.66.35-.83.88-1.23,1.22,0,.79-.74-.66-.87-.49-1.42,1.1-.15,1.62-.81.83-2.67,1.62-1.4-.57,2,1.27,2.71a15,15,0,0,1,2.79,1c2,1,2.41,1.66,3.41,1.22s1.31-.56,2.89-1.35S83.18,116.45,83.83,115.71Z" fill="gray"/>
        <path d="M88.65,122.29c.67,1,.68,2.35-1.81,2.61a45.11,45.11,0,0,1-7.77-.07c-1.88-.17-3.86-.64-4.69-2.1-.38-.68,6.22-.63,8.6-.86A19.83,19.83,0,0,1,88.65,122.29Z" fill="#af5945"/>
        <path d="M86,126.74a1.5,1.5,0,0,1,.92,2.23c-.35.57-.61.48-.4,1.48s2.61,4.9,2,6.82a14.32,14.32,0,0,1-2.26,5c-1.1,1.4-2.25,2.58-1.71,3.85s-1-.26-1.35-.35-.79-.48-.79.44-.17,1.61-.52.7,0-2.28-.5-1.58-.07,2.1-1,.88-.74-2.76-1.4-1.93-.38,1.83-.69.68a9.81,9.81,0,0,0-.49-2c-.39-.91-.77-.26-1.39-1.44s-1.84,0-1.88-1.79-.62-3.5,0-4.59,1.1-.44.88-2,0-1.18.13-2.62-1.09-1.27-.44-2.45,1.14-.61,1.18-1.31,2-2.23,2-2.23l7.56.52S85.39,126.58,86,126.74Z" fill="gray"/>
        <path d="M69.48,90.29a18.73,18.73,0,0,1,2.07,0c.92.1,1.86,1.76,2.25,2.28s.12.83-.47,1a1.56,1.56,0,0,1-.66.13c-.32,0-2.4.23-3.86.37a2.16,2.16,0,0,1-1-1.75A2.42,2.42,0,0,1,69.48,90.29Z" fill="#190c0a"/>
        <path d="M98.07,89.76c2.23.1,4.34,1.19,4.58,2.34,0,.15.32.56,0,.74a13.19,13.19,0,0,1-4.67.87c-1.09-.41-1.82-1.13-1.82-2S96.93,90.16,98.07,89.76Z" fill="#190c0a"/>
        <path d="M77.26,88.77c-.08,2,.1,4,.21,6a37.53,37.53,0,0,1,0,6.09c0,.5-.11,1-.19,1.52a7,7,0,0,1-.16.77,2.2,2.2,0,0,1-.37.77,20.15,20.15,0,0,0-1.63,2.5,5.11,5.11,0,0,0-.69,2.7A11.63,11.63,0,0,0,75,112a8.52,8.52,0,0,0,1.27,2.56,3.63,3.63,0,0,0,.45.5l.58.45c.41.32.82.81,1.08,1a.58.58,0,0,0,.38.13,4.53,4.53,0,0,0,.65-.07,9.76,9.76,0,0,0,1.39-.29,3.28,3.28,0,0,0,2-1.64,6.54,6.54,0,0,1,2.4-2.18,6.12,6.12,0,0,1,1.52-.53,5.16,5.16,0,0,0,1.29-.48,1.67,1.67,0,0,0,.73-1,12,12,0,0,0,.28-1.43,7.84,7.84,0,0,0-.46-2.91l.1,0a7.22,7.22,0,0,1,.86,3,9.94,9.94,0,0,1-.18,1.55,2.3,2.3,0,0,1-.9,1.48,4.79,4.79,0,0,1-1.48.68,5.36,5.36,0,0,0-1.31.53,5.57,5.57,0,0,0-1.94,2,5.21,5.21,0,0,1-1,1.31,4.61,4.61,0,0,1-1.51.81,9.42,9.42,0,0,1-1.58.32,4.52,4.52,0,0,1-.86.05,1.64,1.64,0,0,1-1-.39c-.47-.46-.68-.78-1.05-1.09l-.6-.5a5.57,5.57,0,0,1-.55-.65,9.86,9.86,0,0,1-1.32-2.88,12.74,12.74,0,0,1-.53-3.08,5.88,5.88,0,0,1,.85-3.07,19.21,19.21,0,0,1,1.75-2.53,1.67,1.67,0,0,0,.29-.58,7.16,7.16,0,0,0,.17-.7c.09-.49.16-1,.22-1.48a37.75,37.75,0,0,0,.27-6,58.53,58.53,0,0,1,0-6.07Z" fill="#b25f40"/>
      </g>
    </g>
    <path d="M77.66,115.34c0,.36.39,1,.45,1.1s.43.4,1.31.23,2.49-.52,2.93-1.33-1.45-1.67-2.65-1.21A7.41,7.41,0,0,0,77.66,115.34Z" fill="#d79d79"/>
  </g>
</svg>
