<svg id="b251da95-746c-4b92-9068-5905d670a57a" data-name="Layer 1" xmlns="http://www.w3.org/2000/svg" xmlns:xlink="http://www.w3.org/1999/xlink" width="1344.293" height="194.648" viewBox="0 0 1344.293 194.648">
  <defs>
    <clipPath id="ba887e82-d63c-46ba-bb0e-90f2b122cd22">
      <rect x="5.063" width="311.083" height="180.627" style="fill: none"/>
    </clipPath>
    <clipPath id="b89c03fe-4aef-4a34-bd6d-2382fe3d5a18">
      <rect x="3.164" y="43.665" width="164.314" height="137.683" style="fill: none"/>
    </clipPath>
    <clipPath id="fbb0131d-1de4-469d-baeb-fe544ced2e24">
      <rect x="83.466" y="43.665" width="164.314" height="137.683" style="fill: none"/>
    </clipPath>
    <clipPath id="e66f6974-1a3c-429e-9854-8a3c96052f97">
      <rect x="180.71" y="43.665" width="164.314" height="137.683" style="fill: none"/>
    </clipPath>
    <clipPath id="bc0e3564-9e71-404b-bf1f-b2712f78c24a">
      <rect x="1164.528" y="-144.27" width="179.85" height="89.798" style="fill: none"/>
    </clipPath>
  </defs>
  <title>banner-6</title>
  <g style="clip-path: url(#ba887e82-d63c-46ba-bb0e-90f2b122cd22)">
    <g style="clip-path: url(#b89c03fe-4aef-4a34-bd6d-2382fe3d5a18)">
      <g>
        <path d="M187.251,202.96c-14.915-9.429-40.75-63.083-71.068-63.532S24.17,143.956-1.031,187.843c-16.01,27.883-45.773,37.373,42.174,32.745S187.251,202.96,187.251,202.96Z" style="fill: #090302"/>
        <polygon points="118.71 166.078 94.222 179.043 95.333 161.418 115.547 160.54 118.71 166.078" style="fill: #886a69"/>
        <path d="M45.84,158.361a67.433,67.433,0,0,0,6.33-12.881c.724.965,6.519,10.462,11.75,10.3s5.714-.805,8.933-1.69,7.968-2.253,10.865-3.863,9.819-9.014,11.429-13.521c0,0,6.3-4.831,6.059-8.775-.036-.595-.122-1.235-.228-1.891a.937.937,0,0,1,.555-.211c1.909,0,13.707,14.227,15.182,19.259s5.725,14.566,1.995,20.989c0,0-3.331.5-11.035-2.957,0,0-10.219,15.887-15.25,16.668s-6.94-2-8.849-2.776-10.063-5.847-12.318-6.394-8.043-2.281-10.788-1.154-9.685,5.379-11.941,5.639-10.063-.781-12.4-5.378-2.435-4.944-2.435-4.944H35.43C37.339,164.782,42.11,163.913,45.84,158.361Z" style="fill: #9e7e74"/>
        <path d="M57.571,50.311c-4.337.347-10-4.235-15.07,1.433s-16.04,8.562-16.763,13.265.482,12.181.241,16.4S22.241,91.3,22.241,96.847s2.894,10.854,1.567,18.09-4.341,9.647-5.185,14.471-.724,7.116,1.447,11.7a85.6,85.6,0,0,0,4.824,8.563c.241.482,2.653,14.471,7.236,15.918s11.094-.361,13.989-4.7,7.959-13.989,6.874-20.019-5.427-21.949-5.427-21.949l12.9-62.71Z" style="fill: gray"/>
        <path d="M98.2,59.333c-2.766-3.041-8.994-9.627-16.087-10.514s-25.029-1.634-30.756,5.453S38.89,68.54,38.488,76.99,38.971,102.1,39.615,105s0,6.68.482,11.267.322,11.106,1.691,14.728a45.692,45.692,0,0,0,5.311,9.255c.725.886,4.346,4.266,5.071,5.232s6.519,10.462,11.75,10.3,5.714-.805,8.933-1.69,7.968-2.253,10.865-3.863,9.819-9.014,11.429-13.521c0,0,6.3-4.831,6.059-8.775s-2.518-9.736-.1-10.54,6.439-2.012,7.565-6.117,2.173-7.163,1.851-9.658-.8-3.943-2.012-5.15S102.22,63.747,98.2,59.333Z" style="fill: #d79d79"/>
        <path d="M70.4,130.422c-1.453-2.11-4.518-1.691-8.025-1.647s-6.539-.494-6.46,1.239c.077,1.686,7.437.848,10.145.759A37.917,37.917,0,0,0,70.4,130.422Z" style="fill: #540b06"/>
        <path d="M83.927,49.951c-15.98-3.152-.905-2.428,4.642-3.152s8.924-2.05,11.216-2.05,10.853,3.739,11.577,6.633,2.171,7.959,4.583,11.577.361,7.115,4.462,11.1,7.6,3.256,9.044,7.236,3.5,8.683,1.93,11.939,2.653-2.653,1.93,7.6-.845,7.115.6,13.507.723,7.959.844,13.386-.362,4.221-3.256,4.583-3.377-1.689-4.221,1.567-2.05,3.136-4.342,3.5-1.206-.121-3.377,1.929.242,2.774-3.979,2.05-3.377.6-6.512-.844-3.739-2.894-4.7-6.512-1.206-5.547-2.894-6.392-3.8.988-3.514-.447-2.4-9.2-2.516-11.974a13.845,13.845,0,0,1,2.653-9.045c2.171-2.774,4.824-4.462,5.065-7.6s1.447.845.121-6.391S98.94,70.139,99.423,66.336,95.172,52.169,83.927,49.951Z" style="fill: gray"/>
        <path d="M85.554,47.643c-3.377-1.085-9.286-3.015-13.145-2.894S65.776,46.2,61.917,46.92s-6.633-.886-8.321,1.969,2.894,5.267,3.859,5.267,13.713,5.306,19.338,2.291A24.33,24.33,0,0,0,85.554,47.643Z" style="fill: gray"/>
        <path d="M70.974,156.206c0,.241-2.44,12.339-3.685,12.1-1.878-.366,1.806-9.5,3.685-11.856" style="fill: #886a69"/>
        <path d="M86.7,92.05c-5.589-2.383-7.558-2.012-10.362-1.371s-7.119,2.861-5.6,3.822,2.514.1,3.775-.218a31.212,31.212,0,0,1,6.949-.56c2.644.08,5.649.574,7.091.627S87.4,92.348,86.7,92.05Z" style="fill: #260d0b"/>
        <path d="M55.147,93.75c.753.478-.3,2.113-1.69,1.57a11.585,11.585,0,0,0-6.821.241c-2.535.845-3.259,1.871-3.983,1.449s1.328-3.018,3.8-3.825C48.234,92.605,50.2,90.612,55.147,93.75Z" style="fill: #260d0b"/>
        <path d="M79.993,97.072c-2.587-.087-4.789-.058-5.294,1.1s.716,2.981,2.8,2.981,5.823-.159,7.211-.95c.317-.181.025-.6-.007-.755C84.456,98.27,82.281,97.149,79.993,97.072Z" style="fill: #fae1d7"/>
        <path d="M54.924,101.011c.594-.188.869-.495.474-1.029s-1.355-2.218-2.286-2.317a16.166,16.166,0,0,0-3.663.08,8.348,8.348,0,0,0-3.494,1.5c-.565.654-1.475,1.238-.525,1.574a11.5,11.5,0,0,0,3.683.8c1.029-.069,4.692-.465,5.138-.475A1.538,1.538,0,0,0,54.924,101.011Z" style="fill: #fae1d7"/>
        <path d="M55.233,113.146a15.141,15.141,0,0,0-1.476,2.5,7.375,7.375,0,0,0-.482,1.316,2.5,2.5,0,0,0-.077.629l.022.739a5.224,5.224,0,0,0,.15,1.336c.142.408.232.338.739.849.385.406.629.862.877,1.137.175.16.114.21.291.3a2.311,2.311,0,0,0,.686.144l.055.107a1.337,1.337,0,0,1-.726.513,1.027,1.027,0,0,1-.572-.012,1.649,1.649,0,0,1-.447-.253,13.509,13.509,0,0,1-1.063-1.067,7.288,7.288,0,0,1-.556-.552,1.931,1.931,0,0,1-.367-.937,7.227,7.227,0,0,1,.038-1.595l.071-.73a3.293,3.293,0,0,1,.187-.812,6.8,6.8,0,0,1,.691-1.374,13.543,13.543,0,0,1,1.869-2.319Z" style="fill: #b25f40"/>
        <path d="M65.59,123.435c1.831-2.073,3.266-3.539,3.488-2.207s.222.577,1.421.355.888,1.554,2.042.844a4.767,4.767,0,0,0,1.941-1.743c.812-1.054,2.01-2.386,1.611-1.365s-1.6,1.465-1.243,2.353-.064,1.776,1.322.977.853-.222,1.919-.089.4-.4,1.331-.8.666-.266,1.6.422.888,1.22,1.642.6,2.22-2.486,2-.888-.8,2.432-.512,2.681,1.844-.55.734.915S83.2,127.4,84.4,127.666s2.077.31.883,1.864-1.46,1.377-1.993,2.264.041.735-1.555,1.162-2.352.925-4.35-.274-1.881-2.395-2.9-2.441.19-.711-1.852-.4-2.131.977-4.129.488-3.286-2.042-4.262-2.042-1.377.755-2.708,1.243-3.907-.044-5.017-.177-2.438-1.305-2.93.177-.222,2.975-1.466,3.152.578-.133-2.53-.4-1.909-.4-2.353-1.066a5.541,5.541,0,0,1-.977-1.6c-.222-.71,1.332.222.133-.977s-1.243-.133-.8-1.332.311-.888.089-1.687.355-.843.888-1.243,1.243-.044.8-.755-.666-.887-.488-1.442,1.11-.156,1.642-.822.844-2.708,1.643-1.42-.577,2.042,1.287,2.752a15.1,15.1,0,0,1,2.842,1.066c2,.976,2.442,1.686,3.463,1.243s1.332-.577,2.93-1.377S64.93,124.182,65.59,123.435Z" style="fill: gray"/>
        <path d="M70.485,130.121c.677.974.688,2.381-1.842,2.648a46.176,46.176,0,0,1-7.9-.067c-1.909-.178-3.914-.651-4.757-2.135-.393-.692,6.311-.638,8.733-.874A20.044,20.044,0,0,1,70.485,130.121Z" style="fill: #af5945"/>
        <path d="M67.791,134.636a1.521,1.521,0,0,1,.932,2.264c-.355.577-.622.488-.4,1.51s2.643,4.972,2.076,6.925a14.511,14.511,0,0,1-2.3,5.062c-1.11,1.42-2.284,2.62-1.731,3.907s-.977-.267-1.376-.356-.8-.488-.8.444-.177,1.643-.532.711.055-2.309-.505-1.6-.073,2.132-.96.888-.755-2.8-1.421-1.953-.4,1.854-.708.686a10.214,10.214,0,0,0-.491-2.018c-.4-.932-.785-.266-1.414-1.465s-1.871-.044-1.916-1.82-.621-3.552-.044-4.662,1.11-.444.888-2.042.044-1.2.133-2.664-1.11-1.288-.444-2.486,1.154-.622,1.2-1.332,2.042-2.264,2.042-2.264l7.681.532S67.174,134.471,67.791,134.636Z" style="fill: gray"/>
        <path d="M51.006,97.609a17.213,17.213,0,0,1,2.106.056c.931.1,1.891,1.782,2.286,2.317s.12.841-.474,1.029a1.538,1.538,0,0,1-.673.139c-.331.007-2.435.227-3.918.369a2.2,2.2,0,0,1-1.061-1.775A2.462,2.462,0,0,1,51.006,97.609Z" style="fill: #190c0a"/>
        <path d="M80.055,97.076c2.265.094,4.4,1.205,4.646,2.371.032.154.324.574.007.755a13.248,13.248,0,0,1-4.751.881c-1.106-.411-1.846-1.145-1.846-1.986C78.111,98.232,78.9,97.478,80.055,97.076Z" style="fill: #190c0a"/>
        <path d="M58.921,96.068c-.082,2.041.1,4.091.223,6.136a38.121,38.121,0,0,1-.046,6.184c-.044.516-.1,1.032-.185,1.551-.043.26-.095.521-.166.788a2.334,2.334,0,0,1-.379.792,20.057,20.057,0,0,0-1.649,2.533,5.157,5.157,0,0,0-.691,2.731,11.852,11.852,0,0,0,.583,2.893,8.985,8.985,0,0,0,1.291,2.585,3.979,3.979,0,0,0,.452.493l.586.458c.427.326.849.838,1.107,1.066a.473.473,0,0,0,.349.115,3.887,3.887,0,0,0,.65-.062,9.385,9.385,0,0,0,1.4-.3,3.2,3.2,0,0,0,1.994-1.636,6.745,6.745,0,0,1,2.465-2.227,6.462,6.462,0,0,1,1.553-.544,4.9,4.9,0,0,0,1.3-.477,1.606,1.606,0,0,0,.728-.987,10.738,10.738,0,0,0,.3-1.453,7.785,7.785,0,0,0-.453-2.946l.112-.043a7.363,7.363,0,0,1,.89,3.014,10.749,10.749,0,0,1-.169,1.585,2.387,2.387,0,0,1-.924,1.517,4.759,4.759,0,0,1-1.521.709,5.357,5.357,0,0,0-1.319.538,5.609,5.609,0,0,0-1.95,1.967,5.031,5.031,0,0,1-1.073,1.338,4.551,4.551,0,0,1-1.554.837,9.123,9.123,0,0,1-1.609.324,4.96,4.96,0,0,1-.881.056,1.705,1.705,0,0,1-1.06-.414c-.484-.477-.688-.792-1.067-1.108l-.606-.514a5.089,5.089,0,0,1-.564-.659,10,10,0,0,1-1.347-2.943,12.818,12.818,0,0,1-.536-3.141,5.984,5.984,0,0,1,.873-3.138,20.759,20.759,0,0,1,1.778-2.57,1.579,1.579,0,0,0,.3-.577c.067-.227.124-.467.171-.713.092-.491.165-.992.223-1.5a37.744,37.744,0,0,0,.285-6.106c-.041-2.051-.147-4.106.017-6.163Z" style="fill: #b25f40"/>
      </g>
    </g>
    <g style="clip-path: url(#fbb0131d-1de4-469d-baeb-fe544ced2e24)">
      <g>
        <path d="M136.578,154.746c-1.986,2.992-1.192,4.464-3.575,5.656s-1.722.554-4.9,1.6-4.237.518-6.223,3.034-3.177,5.164-5.032,7.945-1.059,1.059-6.224,4.369-6.62,3.311-8.607,5.3.265,1.457-4.1,3.84-.529,1.324-9.8,4.5-8.475,1.192-13.242,4.37-5.694,2.383-8.342,5.562-6.754,6.885-10.726,13.109-12.977,23.835-12.977,23.835h238.35s-4.9-19.333-15.625-28.073-11.52-9.4-16.287-10.2-4.238.133-10.329-5.694S225.3,181.059,221.59,180.927s-2.251,1.191-5.032-1.192-3.046-2.251-5.827-4.5-3.972-1.589-7.547-4.37,4.241-1.4-7.969-6.621S136.578,154.746,136.578,154.746Z" style="fill: #441716"/>
        <path d="M76.532,212.227c2.64,1.439,2.4-11.039,6.239.72S89.25,234.3,89.49,227.584s-2.4-9.358-1.2-13.918,2.88.591,7.679-5.464,4.56-6.53,6.239-9.531-1.439-12.36,2.88-4.442,7.439,5.04,8.159,10.079-.24,4.8-.24,12.238,1.2,15.358,2.159,10.078.24-12.958.48-19.437.72-7.918,2.64-.719,5.65,15.6,5.7,19.676,1.154,9.168,1.292.48.751-11.3,7.556-12.13,29.562,1.949,34.5,4.932c3.009,1.819-18.9-36.35-36.294-58.214A24.893,24.893,0,0,0,128.1,162c-3.178,1.047-4.237.518-6.223,3.034-.141.178-.27.358-.4.538h0c-1.482,2-2.543,4.076-3.881,6.237-.031.05-.06.1-.091.15-.211.338-.428.678-.657,1.02-.927,1.39-1.192,1.655-1.87,1.986q-.127.061-.276.129a24.555,24.555,0,0,0-2.4,1.23c-.476.275-1.028.61-1.674,1.024-3.227,2.069-5.007,2.845-6.372,3.621a9.742,9.742,0,0,0-2.235,1.676,4.833,4.833,0,0,0-.809,1,2.991,2.991,0,0,0-.178.378l-.063.162a1.607,1.607,0,0,1-.454.655,5.02,5.02,0,0,1-.57.443c-.124.086-.265.178-.426.278-.4.251-.922.553-1.6.925s-1.165.661-1.528.894c-.291.187-.5.339-.685.471l-.249.185c-.077.057-.152.112-.228.165s-.154.106-.239.158c-.721.448-1.945.941-6.869,2.629-9.27,3.178-8.475,1.192-13.242,4.37-.894.6-1.653,1.052-2.313,1.421-.441.246-.837.453-1.2.637s-.7.345-1,.5c-.463.23-.877.441-1.278.688-.134.082-.266.169-.4.26a8.29,8.29,0,0,0-.8.638,13.329,13.329,0,0,0-1.344,1.42c-.828.994-1.8,2.038-2.861,3.2-.426.463-.866.943-1.319,1.446-.9,1.006-1.857,2.1-2.832,3.31-.731.908-1.475,1.883-2.221,2.938q-.373.528-.747,1.082t-.746,1.138c-.869,1.361-1.979,3.268-3.183,5.415q-.258.46-.521.935c-.35.631-.707,1.279-1.066,1.936s-.721,1.322-1.082,1.99c-.721,1.336-1.439,2.68-2.126,3.975-2.748,5.181-5,9.584-5,9.584H54.456c1.2-6.442,5.039-8.842,10.558-16.281S73.893,210.787,76.532,212.227Z" style="fill: #270c06"/>
        <path d="M170.93,237.263,162,172.584l-22.669-17.571c-1.748-.174-2.755-.267-2.755-.267-1.986,2.992-1.192,4.464-3.575,5.656-2.148,1.074-1.832.666-4.072,1.341l-.563,1.837c-1.986,5.561-5.032,12.182-4.237,19.862s-.259,12.183-.129,21.187.659,15.89,6.22,21.452a109.721,109.721,0,0,1,9.5,11.785h29.816C170.414,237.492,170.93,237.263,170.93,237.263Z" style="fill: #433128"/>
        <path d="M190.918,167.094c.312.914,2.532,1.518,7,8.139s7.913,4.5,7.383,11.52-.265,10.858-2.251,16.552-3.178,6.224-3.972,11.653.662,7.68-3.178,14.168-13.242,16.023-13.772,20-4.767-55.88-4.767-55.88Z" style="fill: #433128"/>
        <path d="M166.9,185.737c-7.63,13.182-.21,32.664,7.283,23.527s6.569-20.906,6.569-20.906Z" style="fill: #a67437"/>
        <path d="M149.582,166.393c2.085,1.359,7.57,15.369,7.57,15.369l22.468.2,15.6-24.649-3.27-25.83-45.3,29.069Z" style="fill: #d29f6e"/>
        <path d="M189.715,136.318a5.843,5.843,0,0,1,1.638-.7c-1.1-1.576-.923-2.264-.105-5.316.848-3.164,3.8-5.369,5.192-10.334s2.482-4.344,1.4-9.619-1.862-7.912-5.585-11.635-6.826-2.327-8.533-6.982-2.017-3.878-3.1-9-.31-8.067-5.119-9.774-9.8-2.017-15.915-3.1-11.7-1.086-15.424,1.552-6.981,2.948-9.309,6.516-8.041,3.793-8.507,7.982c-.232,2.088-2.048,10.88-1.458,15.685.594,4.836,4.613,8.515,4.691,11.4.155,5.74,3.568,9,.465,11.791-.9.809-1.585,1.434-2.1,1.973,1.162,3.232,3.062,7.24,4.114,9.668,1.295,2.987,0,7.17,0,9.958a14.2,14.2,0,0,0,3.287,8.564c2.091,2.59,1.493,1.893,2.091,3.884s2.29,3.984,3.585,5.677,4.68,2.191,8.564,1.892,2.092-1.195,5.378-2.39,5.477-1.494,10.158-2.888,4.78-2.689,8.166-4.88a86.149,86.149,0,0,0,7.966-6.274,20.5,20.5,0,0,0,4.581-6.473C186.429,142.094,188.421,137.214,189.715,136.318Z" style="fill: #ffc680"/>
        <path d="M120.575,90.18c.621-5.9-.931-10.394,2.793-13.808s4.344-9.308,8.533-14.428,4.344-7.447,9.308-11.17,5.275-6.981,10.55-5.74,4.809,2.947,9.463,2.947,11.171-3.568,15.36-2.947,15.2,2.327,19.392,9.463.466,7.6,7.913,10.395,11.325,0,14.117,6.981S220.952,81.8,223.59,89.4s1.086,7.447,0,15.359.31,7.757-.931,12.567-3.879,4.189-2.483,9.308,3.258,5.43,2.483,8.843.465,7.913-3.413,10.705-3.414.776-1.242,5.12,1.552,8.222-1.706,11.325-5.9,6.516-8.223,6.516-6.671,1.552-9.463,0-4.965.155-6.361-2.637-2.636-1.02-3.878-3.458-1.862-1.507-1.242-4.765.621-2.792.621-8.377-.466-5.275,1.4-8.533,3.568-3.879,2.327-5.585-1.075-2.327-.227-5.491,3.8-5.369,5.192-10.334,2.482-4.344,1.4-9.619-1.862-7.912-5.585-11.635-6.826-2.327-8.533-6.982-2.017-3.878-3.1-9-.31-8.067-5.119-9.774-9.8-2.017-15.915-3.1-11.7-1.086-15.424,1.552-6.981,2.948-9.309,6.516-6.4,5.344-6.863,9.533c-.168,1.511-1.236,9.014-.981,12.5.451,6.17,2.47,9.361,2.57,13.03.155,5.74,3.568,9,.465,11.791s-3.723,3.413-3.1,5.74-2.017-4.344-4.964-6.671-4.5-3.258-4.655-8.843-1.4-3.569.931-9,4.81-6.05,3.568-9.308A20.591,20.591,0,0,1,120.575,90.18Z" style="fill: #d1b077"/>
        <path d="M157.919,96.534c-1.834.188-4.956,2.643-2.445,2.577s5.643-1.336,9.608-.146,5.491,1.052,6.549,1.977,1.188-1.643-1.752-2.568S167.567,95.543,157.919,96.534Z" style="fill: #d1b077"/>
        <path d="M135.422,96.26c4.493-.1,7.964,1.519,7.663,2.465s-1.421.365-3.053.363-3.149-.763-5.063-.592-7.538,2.3-7.119.688S132.342,96.328,135.422,96.26Z" style="fill: #d1b077"/>
        <path d="M161.584,106.584c2.125-1.166,5.958-.75,6.833,0s4.416,2.708,3.374,3.291a27.123,27.123,0,0,1-7,2.25c-1.436.235-5.714-1.371-5.749-2.208C158.96,107.959,161.584,106.584,161.584,106.584Z" style="fill: #fae1d7"/>
        <path d="M130.314,107.959a6.545,6.545,0,0,1,4.958-2.541c1.458,0,5.708,1.333,5.958,2.208s.874,2.041-.75,2.583-7.231,1.436-8.541.875C131.064,110.709,129.231,109.75,130.314,107.959Z" style="fill: #fae1d7"/>
        <path d="M141.236,142.955c-.173-1.219,1.73-2.4,2.87-2.856s1.425.661,2.941.354,1.529-1.287,3.408-.424,2.138,1.216,4.577,2.208,4.935,1.1,4.549,1.847,1.6.91-5.129.521-10.158.165-11.113-.6S141.458,144.523,141.236,142.955Z" style="fill: #c05a1d"/>
        <path d="M142.02,142.9c-.426.048-1.2.022-1.075,1.1s.258,1.671,1.69,1.776c2.649.195,3.372-.518,6.646-.024s5.385.7,7.036.4,3.419-.388,3.112-1.06-1.475-1.5-4.721-1.888-3.856-.476-5.759-.584-1.337-.6-3.618-.278S142.02,142.9,142.02,142.9Z" style="fill: #992f00"/>
        <path d="M147.236,100.37a11.2,11.2,0,0,0-.184,3.562,9.21,9.21,0,0,1,.079,1.8,8.745,8.745,0,0,1-.089,1.007,5.133,5.133,0,0,1-.332,1.014c-.512,1.18-1.106,2.226-1.664,3.3a24.47,24.47,0,0,0-1.484,3.167l-.109.373-.054.336c-.021.277-.034.563-.038.856l0,1.8c0,.612,0,1.232-.053,1.877a4.541,4.541,0,0,1-.572,2.08,33.505,33.505,0,0,0-1.636,3.123c-.253.539-.5,1.082-.719,1.621a5.477,5.477,0,0,0-.261.742,6.144,6.144,0,0,0-.116.8,14.687,14.687,0,0,0,.111,3.42,4.089,4.089,0,0,0,.181.718c.018.052.032.055.042.088s.082.131.12.193l.24.394a5.015,5.015,0,0,0,.953,1.235,1.046,1.046,0,0,0,1.02.269,13.732,13.732,0,0,0,1.566-.617c1.094-.483,2.2-.995,3.337-1.465a13,13,0,0,1,3.722-1.079,6.728,6.728,0,0,1,1.016.068l.877.094a4.4,4.4,0,0,0,1.395-.106,1.472,1.472,0,0,0,.545-.338,4.77,4.77,0,0,0,.542-.641c.409-.508.865-.92,1.211-1.355a1.6,1.6,0,0,0,.4-1.455,4.49,4.49,0,0,0-.822-1.555,4.675,4.675,0,0,1,1.2,1.424,2.157,2.157,0,0,1-.147,1.984c-.311.582-.68,1.064-.943,1.561a3.607,3.607,0,0,1-1.344,1.641,3.286,3.286,0,0,1-2.154.34l-.926-.1a5.451,5.451,0,0,0-.79-.06,12.16,12.16,0,0,0-3.2.967c-1.1.454-2.187.957-3.3,1.451a14.14,14.14,0,0,1-1.808.7,2.585,2.585,0,0,1-2.349-.575,6.365,6.365,0,0,1-1.273-1.606l-.232-.381-.119-.191a2.615,2.615,0,0,1-.159-.318,5.392,5.392,0,0,1-.272-1.034,16.124,16.124,0,0,1-.126-3.811,7.585,7.585,0,0,1,.149-1,6.832,6.832,0,0,1,.333-.969c.238-.578.49-1.137.751-1.693a34.281,34.281,0,0,1,1.731-3.3,3.23,3.23,0,0,0,.339-1.393c.045-.56.049-1.15.047-1.747v-1.829c0-.311.017-.629.042-.954.017-.171.057-.375.089-.559l.145-.5a25.6,25.6,0,0,1,1.581-3.4c.562-1.072,1.158-2.136,1.607-3.175a3.03,3.03,0,0,0,.294-1.5,7.28,7.28,0,0,1,.247-1.823A9.082,9.082,0,0,1,147.236,100.37Z" style="fill: #efae76"/>
        <path d="M187.69,154.746c-3.129,2.721-3.433,3.025-5.862,5.454s-3.644,2.733-4.555,4.859-.3,2.024-2.733,3.037a29.743,29.743,0,0,0-6.377,3.947c-1.721,1.316-2.632,1.62-2.632,3.746s.1,3.076-.709,4.555-2.429,4.555-1.417,6.68,1.57,4.454,2.658,3.644.986-2.834,2.505-1.012,3.239,3.846,3.34,4.859-.2,1.518-.3,5.162,0,7.693,0,7.693-3.138-3.846-3.441-7.187-.054-5.856-.449-7.33-2.183-12.611-5.827-15.344-3.745-1.72-5.264-3.441-1.286-3.013-3.34-4.231-4.166-2.51-2.893,0,2.387.89,1.274,2.51-4.758-.3-3.138,2.733a30.653,30.653,0,0,1,2.834,7.693c.911,3.239-.567,2.843,1.387,5.015s.536,1.564-.375,2.07-1.316-.708-.405,2.025,1.114,1.619,1.721,5.668a31.352,31.352,0,0,0,2.733,9.819c1.62,3.543.81,2.935,2.227,6.579s1.518,4.252,3.037,6.074,10.223,19.738,11.741,21.56-.708,1.417,2.227-3.138,6.782-8.907,8.1-17,1.2-6.58,3.939-13.868,3.653-11.741,6.386-15.79,4.96-2.43,3.239-8.5-2.227-4.656-4.454-10.73a87.772,87.772,0,0,1-3.015-9.014C189.37,161.759,187.69,154.746,187.69,154.746Z" style="fill: #e0c3a2"/>
        <path d="M133.088,105.883a4.121,4.121,0,0,0-.25,1.418c0,1.924,1.287,3.484,2.874,3.484s2.874-1.56,2.874-3.484a4.118,4.118,0,0,0-.181-1.206,12.352,12.352,0,0,0-3.133-.677A6.433,6.433,0,0,0,133.088,105.883Z" style="fill: #673d40"/>
        <path d="M167.333,108.115a4.544,4.544,0,0,0-.5-2.1,8.943,8.943,0,0,0-5.128.515,4.665,4.665,0,0,0-.276,1.589c0,2.088,1.321,3.78,2.952,3.78S167.333,110.2,167.333,108.115Z" style="fill: #673d40"/>
        <path d="M225.042,198.671c1.707,3.717-.453,4.437,2.427,11.636s7.439,12.718,8.878,17.037c1.054,3.162,1.6,6.342,2.941,10.4h14.094c0-.986,0-2.042,0-3.2,0-6.479-.48-12.718-1.68-14.4s-6.719-13.109-5.759-8.594,0,10.754.96,12.914,2.639,11.758-1.68-.72-5.519-6.369-8.4-15.543.24-4.854-2.879-14.212c-2.249-6.746-5.273-8.007-7.226-10.7-2.034-1.409-3.823-2.317-5.132-2.363-3.708-.133-2.251,1.191-5.032-1.192s-3.046-2.251-5.827-4.5-3.972-1.589-7.547-4.37c-1.191-.926-1.118-1.391-.942-1.792l-1.65.692c-.239,4.55,8.16,12.948,13.2,16.548S223.335,194.953,225.042,198.671Z" style="fill: #270c06"/>
      </g>
    </g>
    <g style="clip-path: url(#e66f6974-1a3c-429e-9854-8a3c96052f97)">
      <g>
        <path d="M289.783,151.322c.758-.2,11.262,1.752,15.125,4.649s23.5,17.706,27.364,21.569S341.447,188,341.447,188H186.44s8.437-11.267,10.576-11.589,2.784.8,6.325-1.771,13.383-5.418,13.383-5.418l51.968-20.014Z" style="fill: #8e5e33"/>
        <path d="M197.016,176.413c2.14-.322,2.784.8,6.325-1.77s13.383-5.419,13.383-5.419l7.589-2.922,2.523,1.932,2.332,19.1L227.9,188H210.817c.185-.333.421-.7.7-1.172a15.037,15.037,0,0,1,2.311-2.773c.988-1.072.589-2.27,1.156-3.405a11.763,11.763,0,0,0,1.387-5.106c-.126-1.639-.819-.693-1.387-.693s-1.7,2.08-3.341,5.295c-1.3,2.551-3.431,5.734-4.7,7.854h-5.652c.419-1.166,1.2-1.87,1.714-3.252.567-1.513-.883.126-3.089.5s-2.27,1.7-3.593,2.748H186.44S194.877,176.735,197.016,176.413Z" style="fill: #543128"/>
        <path d="M228.947,178.355l24.11-4.234,3.556,1.138.419,1.564-.154.47a1.484,1.484,0,0,0,.154-.47,1.866,1.866,0,0,1-.078.95,7.284,7.284,0,0,1-.331.9,14.576,14.576,0,0,1-.9,1.662,25.7,25.7,0,0,1-2.217,3.018,26.547,26.547,0,0,1-2.619,2.674,15.981,15.981,0,0,1-1.482,1.164A4.7,4.7,0,0,1,247.7,188a3.686,3.686,0,0,0,.46-.339l-.46.339H225.654Z" style="fill: #72543d"/>
        <path d="M322.152,184.687a25.989,25.989,0,0,1-3.215-3.845c-1.513-2.081-2.27-1.892-4.854-4.019a28.067,28.067,0,0,1-5.3-5.374c-2.837-3.341-5.736-3.594-10.023-5.863s-5.863-3.656-9.267-5.548a41.189,41.189,0,0,0-8.888-3.971c-4.161-1.387-4.657-.819-4.278-1.387l-1.144-.587,2.475-3.984,12.121,1.213c.758-.2,11.262,1.752,15.125,4.649s23.5,17.706,27.364,21.569S341.447,188,341.447,188H328.59s-1.08-.289-2.593-.541S323.286,185.822,322.152,184.687Z" style="fill: #543128"/>
        <path d="M276.537,154.093c-.453,1.691-6.826,14.938-9.272,16.612a90.126,90.126,0,0,1-9.787,5.924c-2.318,1.03-6.181,2.318-9.658,3.863a41.784,41.784,0,0,1-9.916,3.477c-5.022,1.159-10.688,1.8-11.59,3.735s-9.787,19.831-9.787,19.831-2.318-3.863-2.318-7.469-.644-4.893-.257-8.5a9.767,9.767,0,0,1,2.833-5.8s-2.576-1.416,0-4.249,3.863-2.834,4.249-5.151-.641-1.006-2.575-2.318-2.576-2.576-2.318-3.735.386-.9,2.06-2.06,4.25-3.091,5.023-4.25a3.7,3.7,0,0,1,1.918-1.466,11.864,11.864,0,0,1,0-5.848,19.182,19.182,0,0,1,3.1-6.207l49.268-26.647Z" style="fill: #eddeda"/>
        <path d="M275.426,128.265c-.95,5.353-6.874,17.973-10.866,20.034s-15.839,7.468-20.475,8.241-16.1-1.545-17.384-2.447-5.233-5.666-6.7-10.044a9.023,9.023,0,0,0-5.792-5.537l-5.669-35.542,13.908-41.724,52.975,3.606,10.382,55.76Z" style="fill: #e1b89d"/>
        <path d="M279.5,55.58a20.772,20.772,0,0,1,8.757,5.8c2.318,2.833,2.06,3.348,3.735,6.31s2.446,4.507,3.219,5.666,2.189,1.8,3.348,4.25,3.126,3.606,1.159,6.7c0,0-2.684,3.577-1.342,5.008s3.918-1.4,4.433,3.363.128,7.34-.387,8.885-.772,1.03,0,3.992,1.646,5.409.63,7.34-2.819,2.447-2.69,5.023,3.219,4.635.515,8.5-4.019,2.11-3.665,4.121.7,2.961-.327,5.151-1.674.386-1.545,3.863,1.674,2.189.257,4.507-1.287,2.575-1.287,3.992-3.606,3.477-6.7,3.863.387-.129-4.249,1.03-4.508,1.159-6.825,1.159-3.22-3.219-2.7-5.923,1.932-2.054.515-5.022-1.7-.129-.655-3.864,2.072-5.666,1.814-8.37.515-1.288-1.03-5.924-2.318-1.288-2.318-8.5a125.248,125.248,0,0,1,.644-15.324s-2.06-4.507-2.06-7.727a14.17,14.17,0,0,1,1.287-6.7c1.031-2.7,2.19-2.318,1.417-5.409s-.386-5.151-1.545-6.953.128-2.962-3.091-4.894-4.893-2.318-7.855-2.318-.515-1.416-5.666-.9-4.121.9-7.727,1.287-4.507,1.159-6.31.516a25.782,25.782,0,0,0-7.984-1.288c-3.091,0-4.893-.9-6.7.515a14.755,14.755,0,0,0-4.121,4.507c-.773,1.545-2.189,2.189-2.833,4.765s-1.03,3.219-1.03,5.28a14.043,14.043,0,0,1-1.159,6.7c-1.288,3.09-.9,7.082-1.674,8.885s-.773,2.7-1.159,5.409a36.66,36.66,0,0,0-.387,5.408,55.013,55.013,0,0,1,0,6.568c-.257,1.8.52,4.7,1.327,7.716s-.425,6.578.219,9.282,4.636,12.234,4.249,12.234-1.288,0-4.121-1.932-4.12-1.931-4.12-4.249-3.992-3.091-3.992-3.091c-1.181-4.407-2.962-5.924-3.864-7.6s-1.674-1.931-1.674-3.605a6.767,6.767,0,0,0-.315-2.852c-.387-1.442,2.646-.11,0-2.171s-3.29-2.446-3.934-4.378-1.417-1.674-.644-3.734a10.684,10.684,0,0,1,2.06-3.606c.387-.386,1,1.8,1.417-2s-.334-4.824,1.056-6.179,3.193-.582,3.193-2.127-.9-1.8,0-3.477,1.546-1.03,1.546-2.447-.387-1.931,0-3.477,1.674-2.06,1.674-3.09a17.773,17.773,0,0,1,0-3.735c.257-1.674.128-.257.772-2.833s.773-2.447.773-3.863a10.4,10.4,0,0,1,.429-3.019,10.361,10.361,0,0,1,.6-2.647c.773-2.447,1.15-.387,1.734-2.7s-1.219-.129,1.872-4.379,4.893-3.348,6.052-5.28,5.924-5.923,7.856-6.31,3.219-1.416,5.794-2.189,3.993-2.06,5.667-1.545a14.181,14.181,0,0,0,5.408.9c2.833,0,5.28-1.524,7.855-1.019s3.606-.011,7.727,1.406,3.992,1.416,6.181,2.189a33.307,33.307,0,0,1,5.666,2.7c1.546.9,3.091,1.674,3.864,2.061S279.5,55.58,279.5,55.58Z" style="fill: #b7a7a3"/>
        <path d="M264.291,98.223a21.227,21.227,0,0,0-5.741-1.98,34.47,34.47,0,0,0-5.464-.712c-1.979-.119-5.662-.4-6.849,0s-2.534.871-1.426,1.346a14.585,14.585,0,0,0,4.791.752c1.069-.079,3.128-.079,4.831-.079s4.355-.079,5.345.277a13.178,13.178,0,0,0,3.128,1.069C264.173,99.054,264.9,98.514,264.291,98.223Z" style="fill: #201d16"/>
        <path d="M231.389,94.739c.95.712,1.267,2.059.2,1.663a12.75,12.75,0,0,0-2.692-.792,9.445,9.445,0,0,0-2.772-.285c-1.431,0-1.9-.086-3.088,0s-1.7-.166-2.693,0-1.464-.7-.356-.943,1.663-.763,2.648-.65a18.863,18.863,0,0,0,4.457-.113A25.7,25.7,0,0,1,231.389,94.739Z" style="fill: #201d16"/>
        <path d="M256.965,101.979c.673.4,2.971,1.55,2.733,2.421s-1.472,1.75-3.325,1.861c-1.786.106-4.028.434-5.583-.159-1.231-.47-2.692-1.063-2.415-1.858s1.623-2.418,2.93-2.537S256.965,101.979,256.965,101.979Z" style="fill: #fae1d7"/>
        <path d="M232.257,102.143c-.449-1.21-2.214-1.782-3.917-2.138s-6.018.113-6.3,1.68,4.355,2.6,5.939,2.381S233.126,104.479,232.257,102.143Z" style="fill: #fae1d7"/>
        <path d="M236.774,100.084a10.062,10.062,0,0,0,.387,1.1,2.934,2.934,0,0,1,.075,1.246,8.2,8.2,0,0,1-.3,1.174l-.278,1.095c-.52,1.413-.952,2.878-1.385,4.343a17.526,17.526,0,0,1-.754,2.249c-.325.743-.687,1.4-.994,2.087a18.867,18.867,0,0,0-1.421,4.227,16.23,16.23,0,0,0-.346,2.184,3.066,3.066,0,0,0,.025.9,1.151,1.151,0,0,0,.182.175c.129.105.269.212.419.316a21.254,21.254,0,0,0,1.9,1.173c.327.18.657.355.988.513a5.241,5.241,0,0,0,.913.367s0,.007.013,0a1.378,1.378,0,0,0,.17-.072,4.583,4.583,0,0,0,.436-.251c.3-.2.611-.416.926-.637s.634-.447.987-.662a3.18,3.18,0,0,1,1.258-.509,7.423,7.423,0,0,1,2.449.309,6.615,6.615,0,0,1,2.138.995,7.967,7.967,0,0,0-2.233-.373,6.511,6.511,0,0,0-2.129.252,5.113,5.113,0,0,0-1.777.973c-.313.22-.628.446-.97.666a5.881,5.881,0,0,1-.56.321,2.593,2.593,0,0,1-.362.145,1.185,1.185,0,0,1-.555.027,5.685,5.685,0,0,1-1.224-.467c-.361-.172-.708-.356-1.051-.546a22.336,22.336,0,0,1-2.013-1.244c-.164-.114-.329-.24-.5-.377a1.615,1.615,0,0,1-.542-.7,3.733,3.733,0,0,1-.09-1.384,17.283,17.283,0,0,1,.37-2.355,20.234,20.234,0,0,1,1.5-4.471c.322-.715.7-1.4.983-2.064a16.293,16.293,0,0,0,.705-2.109c.432-1.475.879-2.949,1.4-4.42.323-.707.821-1.4,1.095-2.013a2.476,2.476,0,0,0,.2-1.031A9.3,9.3,0,0,1,236.774,100.084Z" style="fill: #d79f62"/>
        <path d="M229.81,116.476a4.872,4.872,0,0,0-.4.94,9.2,9.2,0,0,0-.512.836,9.926,9.926,0,0,0-.78,1.791,3.367,3.367,0,0,0-.163.906,1.014,1.014,0,0,0,.284.744,5.785,5.785,0,0,0,.62.733c.165.271.319.607.632.7-.166.111-.386.027-.552-.03a3.531,3.531,0,0,1-.5-.243,6.351,6.351,0,0,1-.684-.807,2.188,2.188,0,0,1-.3-.492,1.438,1.438,0,0,1-.1-.609,3.916,3.916,0,0,1,.189-1.076,10.57,10.57,0,0,1,.828-1.908c.166-.3.345-.6.539-.888A3.07,3.07,0,0,1,229.81,116.476Z" style="fill: #be8257"/>
        <path d="M247.905,133.637c1.194-1.729-5.784-.707-7.282-1a19.86,19.86,0,0,0-4.66-.083c-.707.083-2.913-.749-4.577-.582a8.8,8.8,0,0,0-3.745,1.04c-.749.5,7.115,3.412,7.115,3.412l6.658-.541S247.525,134.188,247.905,133.637Z" style="fill: #9b643e"/>
        <path d="M246.366,134.209c-.13-.484-4-.332-5.368-.457a16,16,0,0,0-4.286.229,11.973,11.973,0,0,1-3.745-.279c-1.332-.2-4.161-.083-4.244.254s2.966,1.621,4.089,2.2,6.6,1.03,8.727.516C243.71,136.152,246.668,135.338,246.366,134.209Z" style="fill: #bb784e"/>
        <path d="M253.6,106.439a2.957,2.957,0,0,1-1.033-4.744c1.785.05,4.394.284,4.394.284.082.048.188.107.309.176a2.931,2.931,0,0,1-1.067,4.117C255.389,106.326,254.489,106.414,253.6,106.439Z" style="fill: #191915"/>
        <path d="M228.34,100.005a9.145,9.145,0,0,1,2.938,1.03c0,.027,0,.053,0,.08A3.244,3.244,0,0,1,229.633,104a15.843,15.843,0,0,0-1.649.069,4.363,4.363,0,0,1-.732.025,3.219,3.219,0,0,1-1.838-2.976,3.475,3.475,0,0,1,.194-1.14A9.428,9.428,0,0,1,228.34,100.005Z" style="fill: #191915"/>
      </g>
    </g>
  </g>
  <polygon points="365.562 104.462 324.083 172.476 0 172.476 0 194.648 279.306 194.648 1344.293 194.648 1344.293 104.462 365.562 104.462" style="fill: #212026"/>
  <g>
    <path d="M374.423,164.805l.156-.156h.957l.157.156a18.054,18.054,0,0,0,.263,3.057,2.492,2.492,0,0,0,1.055,1.172,7.571,7.571,0,0,0,2.363,1.006,11.6,11.6,0,0,0,2.979.39,8.787,8.787,0,0,0,3.72-.761,5.814,5.814,0,0,0,2.569-2.237,6.136,6.136,0,0,0,.918-3.31,5.332,5.332,0,0,0-.44-2.246,3.837,3.837,0,0,0-1.23-1.534,5.612,5.612,0,0,0-1.807-.859q-1.016-.282-3.027-.615-1.953-.312-3.057-.567a10.343,10.343,0,0,1-2.2-.781,5.832,5.832,0,0,1-1.826-1.338,6.107,6.107,0,0,1-1.172-1.992,7.2,7.2,0,0,1-.44-2.529,7.764,7.764,0,0,1,2.54-5.986,9.676,9.676,0,0,1,6.816-2.334,18.108,18.108,0,0,1,3.7.419A15.034,15.034,0,0,1,391.064,145l.136.234a26.728,26.728,0,0,0-.527,5.117l-.176.156h-1.015l-.157-.136q-.039-2.345-.117-2.949t-1.777-1.5a7.777,7.777,0,0,0-3.692-.9,7.358,7.358,0,0,0-3.1.664,4.542,4.542,0,0,0-2.187,2.09,6.223,6.223,0,0,0-.743,2.91,4.454,4.454,0,0,0,.45,2.041,3.822,3.822,0,0,0,1.162,1.407,5,5,0,0,0,1.66.771q.947.254,3.467.625a20.6,20.6,0,0,1,5.029,1.182,5.589,5.589,0,0,1,2.519,2.2,6.677,6.677,0,0,1,.948,3.633,8.6,8.6,0,0,1-3.389,6.933,12.549,12.549,0,0,1-8.213,2.774,16.385,16.385,0,0,1-7.09-1.446l-.117-.253A57.487,57.487,0,0,0,374.423,164.805Z" style="fill: #fff"/>
    <path d="M394.814,158.067a17.284,17.284,0,0,1,.84-5.469,12.66,12.66,0,0,1,2.861-4.7,13.864,13.864,0,0,1,4.873-3.34,16.694,16.694,0,0,1,6.445-1.181q6.66,0,10.606,3.623t3.945,9.892a16.18,16.18,0,0,1-1.934,7.93,13.531,13.531,0,0,1-5.537,5.469,16.722,16.722,0,0,1-8.1,1.953,15.728,15.728,0,0,1-5.86-1.065,11.94,11.94,0,0,1-4.56-3.174,12.913,12.913,0,0,1-2.735-4.882A17.421,17.421,0,0,1,394.814,158.067Zm4.062-1.289a18.974,18.974,0,0,0,.772,5.127,13.479,13.479,0,0,0,2.3,4.707,9.906,9.906,0,0,0,3.536,2.92,11.248,11.248,0,0,0,9.951-.43,8.715,8.715,0,0,0,3.593-4.306,16.713,16.713,0,0,0,1.231-6.553,17.468,17.468,0,0,0-1.406-7.129,9.437,9.437,0,0,0-4-4.629,11.646,11.646,0,0,0-5.762-1.445,9.665,9.665,0,0,0-7.48,2.968Q398.875,150.978,398.876,156.778Z" style="fill: #fff"/>
    <path d="M452.568,168.223l-.743,1.817a20.125,20.125,0,0,1-9.257,2.207q-7.051,0-11.455-4a13.481,13.481,0,0,1-4.4-10.469,13.811,13.811,0,0,1,2.2-7.783,13.627,13.627,0,0,1,5.8-4.981,19.23,19.23,0,0,1,8.1-1.65,24.376,24.376,0,0,1,5.137.547,21.583,21.583,0,0,1,4.238,1.309l.137.195a24.864,24.864,0,0,0-.84,5.41l-.137.156h-.918l-.156-.156-.195-3.32a10.575,10.575,0,0,0-3.448-1.768,13.97,13.97,0,0,0-4.209-.635,12.237,12.237,0,0,0-5.918,1.416,9.873,9.873,0,0,0-4.062,4.1,13.709,13.709,0,0,0-1.445,6.572,13.485,13.485,0,0,0,1.7,6.856,11.64,11.64,0,0,0,4.638,4.531,14.272,14.272,0,0,0,6.866,1.582,16.38,16.38,0,0,0,3.34-.332,12.7,12.7,0,0,0,2.666-.82,12.261,12.261,0,0,0,2.041-1.192Z" style="fill: #fff"/>
    <path d="M454.833,143.926l2.442.079q2.4.077,3.144.078.665,0,5.606-.157l.156.137v.977l-.156.136q-1.349.041-2.08.118a2.5,2.5,0,0,0-1.065.293,1.377,1.377,0,0,0-.439,1.005,17.222,17.222,0,0,0-.108,2.2l-.039,4.492v9.043l.02,3.808a26.023,26.023,0,0,0,.117,2.852,1.816,1.816,0,0,0,.283.859,1.463,1.463,0,0,0,.713.362,15.46,15.46,0,0,0,2.6.224l.156.118v.976l-.156.156q-.1,0-3.438-.117-1.388-.039-2.168-.039-.606,0-5.586.156l-.156-.156v-.976l.156-.118a20.17,20.17,0,0,0,2.422-.195,1.787,1.787,0,0,0,.811-.3,1.542,1.542,0,0,0,.332-.791,18.066,18.066,0,0,0,.146-2.695l.02-4.121v-9.043l-.039-3.809q-.021-2.226-.108-2.871a1.772,1.772,0,0,0-.273-.859,1.412,1.412,0,0,0-.713-.352,16.766,16.766,0,0,0-2.6-.215l-.156-.136v-.977Z" style="fill: #fff"/>
    <path d="M468.017,171.68l-.176-.156v-1.016l.176-.156a8.314,8.314,0,0,0,1.836-.146,1.569,1.569,0,0,0,.732-.508,16.091,16.091,0,0,0,1.3-2.49l2.051-4.453,5.312-12.032q1.5-3.534,2.989-7.07h1.269l8.34,19.609,1.113,2.618q.488,1.113,1.123,2.421a7.357,7.357,0,0,0,.879,1.543,1.641,1.641,0,0,0,.606.362,6.425,6.425,0,0,0,1.611.146l.156.156v1.016l-.156.156q-2.07-.176-3.73-.175-3.243.1-6.485.175l-.156-.156v-1.016l.156-.156a15.826,15.826,0,0,0,2.735-.185.65.65,0,0,0,.546-.674,3.335,3.335,0,0,0-.273-1.133l-2.4-5.957H476.259l-2.129,5a5.873,5.873,0,0,0-.566,1.973.764.764,0,0,0,.527.722,8.866,8.866,0,0,0,2.656.254l.176.156v1.016l-.156.156q-2.52-.156-4.414-.156Q470.2,171.524,468.017,171.68Zm8.906-10.957h9.883l-4.9-11.777Z" style="fill: #fff"/>
    <path d="M498.993,144.063l.157-.137q4.844.158,5.586.157.663,0,5.605-.157l.156.137v.977l-.156.136q-1.347.041-2.08.118a2.5,2.5,0,0,0-1.064.293,1.377,1.377,0,0,0-.44,1.005,17.256,17.256,0,0,0-.107,2.2l-.039,4.492v8.633q0,3.242.039,4.531l.1,3.379h3.985q4.764,0,5.947-.117a8.021,8.021,0,0,0,2.275-.567,16.185,16.185,0,0,0,.616-2.246q.4-1.758.419-2.031l.176-.156h.957l.137.156a29.92,29.92,0,0,0-.322,3.027q-.166,2.246-.166,3.633l-.157.156q-3.711-.117-9.746-.117l-5.7-.039q-1.953,0-3.984.156l-.156-.156v-.644l.156-.2a8.433,8.433,0,0,0,1.328-.761,12.552,12.552,0,0,0,.244-2.52q.128-2.383.127-5.742v-8.379l-.039-3.809q-.02-2.226-.107-2.871a1.771,1.771,0,0,0-.274-.859,1.408,1.408,0,0,0-.713-.352,16.733,16.733,0,0,0-2.6-.215l-.157-.136Z" style="fill: #fff"/>
    <path d="M559.95,168.223l-.742,1.817a20.126,20.126,0,0,1-9.258,2.207q-7.05,0-11.455-4a13.483,13.483,0,0,1-4.4-10.469,13.8,13.8,0,0,1,2.2-7.783,13.627,13.627,0,0,1,5.8-4.981,19.227,19.227,0,0,1,8.1-1.65,24.376,24.376,0,0,1,5.137.547,21.583,21.583,0,0,1,4.238,1.309l.137.195a24.864,24.864,0,0,0-.84,5.41l-.137.156H557.8l-.156-.156-.2-3.32A10.56,10.56,0,0,0,554,145.733a13.975,13.975,0,0,0-4.209-.635,12.234,12.234,0,0,0-5.918,1.416,9.873,9.873,0,0,0-4.062,4.1,13.709,13.709,0,0,0-1.446,6.572,13.486,13.486,0,0,0,1.7,6.856,11.628,11.628,0,0,0,4.638,4.531,14.269,14.269,0,0,0,6.866,1.582,16.37,16.37,0,0,0,3.339-.332,12.681,12.681,0,0,0,2.666-.82,12.18,12.18,0,0,0,2.041-1.192Z" style="fill: #fff"/>
    <path d="M562,158.067a17.312,17.312,0,0,1,.84-5.469,12.686,12.686,0,0,1,2.861-4.7,13.864,13.864,0,0,1,4.873-3.34,16.7,16.7,0,0,1,6.446-1.181q6.66,0,10.605,3.623t3.946,9.892a16.18,16.18,0,0,1-1.934,7.93,13.537,13.537,0,0,1-5.537,5.469,16.726,16.726,0,0,1-8.1,1.953,15.722,15.722,0,0,1-5.859-1.065,11.951,11.951,0,0,1-4.561-3.174,12.9,12.9,0,0,1-2.734-4.882A17.391,17.391,0,0,1,562,158.067Zm4.063-1.289a19.009,19.009,0,0,0,.771,5.127,13.463,13.463,0,0,0,2.3,4.707,9.9,9.9,0,0,0,3.535,2.92,11.248,11.248,0,0,0,9.951-.43,8.717,8.717,0,0,0,3.594-4.306,16.731,16.731,0,0,0,1.23-6.553,17.452,17.452,0,0,0-1.406-7.129,9.427,9.427,0,0,0-4-4.629,11.642,11.642,0,0,0-5.761-1.445,9.667,9.667,0,0,0-7.481,2.968Q566.064,150.978,566.064,156.778Z" style="fill: #fff"/>
    <path d="M593.8,171.661l-.176-.176v-.9l.176-.157a13.524,13.524,0,0,0,1.9-.136,1.433,1.433,0,0,0,.918-.391,1.843,1.843,0,0,0,.274-.879q.067-.6.136-2.734t.069-3.047V147.462a2.454,2.454,0,0,0-.361-1.475,1.585,1.585,0,0,0-.987-.6,12.992,12.992,0,0,0-2.129-.147l-.156-.156v-.918l.156-.176q2.7.1,3.535.1,1.972,0,3.243-.1l6.23,8.086,9.16,11.484q1.661,2.091,3.379,3.965V152.4q0-.7-.068-3t-.166-2.91a1.4,1.4,0,0,0-.342-.83,1.9,1.9,0,0,0-.918-.323,13.6,13.6,0,0,0-1.826-.126l-.156-.157v-.9l.156-.176q1.582.1,4.512.1,2.674,0,3.886-.1l.176.176v.9l-.156.157a12.852,12.852,0,0,0-1.992.146,1.257,1.257,0,0,0-.879.42,2.213,2.213,0,0,0-.244.859q-.069.567-.137,2.7t-.068,3.066v9.277l.019,5.371q.039,2.637.078,5.293a31.364,31.364,0,0,0-3.379-.82l-1.386-1.641-4.161-5.078-13.242-16.543v14.981q0,.9.069,3.2a25.191,25.191,0,0,0,.166,2.793,1.581,1.581,0,0,0,.253.674,1.474,1.474,0,0,0,.674.342,9.5,9.5,0,0,0,2.139.175l.156.157v.918l-.156.156a27.387,27.387,0,0,0-3.281-.137Q595.985,171.524,593.8,171.661Z" style="fill: #fff"/>
    <path d="M649.325,143.926l.176.176q-.175,1.758-.176,6.133l-.156.156h-.918l-.156-.175-.215-1.8a16.562,16.562,0,0,0-.244-1.768.842.842,0,0,0-.283-.469,3.561,3.561,0,0,0-1.27-.244q-1.074-.1-2.4-.1h-3.692q-.156,4.413-.156,5.1v11.387l.039,3.808q.019,2.208.108,2.862a1.711,1.711,0,0,0,.273.859,1.53,1.53,0,0,0,.713.352,15.626,15.626,0,0,0,2.617.224l.137.118v.976l-.137.156q-5-.156-5.586-.156-.625,0-5.566.156l-.156-.156v-.976l.156-.118a20.011,20.011,0,0,0,2.432-.195,1.756,1.756,0,0,0,.8-.3,1.576,1.576,0,0,0,.342-.791,15.933,15.933,0,0,0,.137-2.695l.039-4.121V150.938q0-.312-.156-5.1h-2.911q-1.8,0-3.105.078t-1.514.4a7.111,7.111,0,0,0-.381,2.1l-.2,1.8-.176.175h-.9l-.156-.156q-.04-4.707-.176-6.133l.176-.176q3.4.158,11.308.157Q646.064,144.083,649.325,143.926Z" style="fill: #fff"/>
    <path d="M651.083,144.063l.156-.137q3.574.158,5.567.157,2.207,0,5.957-.137,1.386-.039,2.012-.039,4.941,0,6.7,1.8a5.883,5.883,0,0,1,1.758,4.258,6.678,6.678,0,0,1-.86,3.222,7.65,7.65,0,0,1-2.539,2.705,12.666,12.666,0,0,1-4.629,1.69q.548.762,1.973,2.637l2.773,3.671q1.349,1.817,2.891,3.838a12.279,12.279,0,0,0,1.992,2.285,2.478,2.478,0,0,0,.772.323,6.381,6.381,0,0,0,1.025.058l.156.157v.918l-.175.175a18.292,18.292,0,0,0-2.227-.117q-1.388,0-3.027.117-1.349-1.639-4.239-5.683-3.359-4.687-6.875-8.692l.2-.6q1.014.058,1.582.058a7.94,7.94,0,0,0,5.293-1.621,5.57,5.57,0,0,0,1.914-4.492,4.605,4.605,0,0,0-1.719-3.9,7.452,7.452,0,0,0-4.648-1.319,12.909,12.909,0,0,0-3.868.567q-.293.429-.293,7.324v9.043l.02,3.808a26.571,26.571,0,0,0,.117,2.852,1.816,1.816,0,0,0,.283.859,1.468,1.468,0,0,0,.713.362,15.473,15.473,0,0,0,2.6.224l.156.118v.976l-.156.156q-.1,0-3.438-.117-1.386-.039-2.168-.039-.6,0-5.586.156l-.156-.156v-.976l.156-.118a20.149,20.149,0,0,0,2.422-.195,1.782,1.782,0,0,0,.811-.3,1.533,1.533,0,0,0,.332-.791,18.066,18.066,0,0,0,.146-2.695l.02-4.121v-9.043l-.039-3.809q-.02-2.226-.108-2.871a1.762,1.762,0,0,0-.273-.859,1.408,1.408,0,0,0-.713-.352,16.752,16.752,0,0,0-2.6-.215l-.156-.136Z" style="fill: #fff"/>
    <path d="M677.841,171.68l-.176-.156v-1.016l.176-.156a8.307,8.307,0,0,0,1.836-.146,1.564,1.564,0,0,0,.732-.508,16.091,16.091,0,0,0,1.3-2.49l2.051-4.453,5.313-12.032q1.5-3.534,2.988-7.07h1.269l8.34,19.609,1.113,2.618q.489,1.113,1.123,2.421a7.357,7.357,0,0,0,.879,1.543,1.649,1.649,0,0,0,.606.362,6.437,6.437,0,0,0,1.611.146l.156.156v1.016l-.156.156q-2.07-.176-3.73-.175-3.243.1-6.485.175l-.156-.156v-1.016l.156-.156a15.826,15.826,0,0,0,2.735-.185.651.651,0,0,0,.547-.674,3.341,3.341,0,0,0-.274-1.133l-2.4-5.957H686.083l-2.129,5a5.873,5.873,0,0,0-.566,1.973.765.765,0,0,0,.527.722,8.87,8.87,0,0,0,2.657.254l.175.156v1.016l-.156.156q-2.52-.156-4.414-.156Q680.028,171.524,677.841,171.68Zm8.906-10.957h9.883l-4.9-11.777Z" style="fill: #fff"/>
    <path d="M735.341,168.223l-.742,1.817a20.132,20.132,0,0,1-9.258,2.207q-7.052,0-11.455-4a13.48,13.48,0,0,1-4.4-10.469,13.8,13.8,0,0,1,2.2-7.783,13.621,13.621,0,0,1,5.8-4.981,19.222,19.222,0,0,1,8.1-1.65,24.369,24.369,0,0,1,5.137.547,21.54,21.54,0,0,1,4.238,1.309l.137.195a24.93,24.93,0,0,0-.84,5.41l-.136.156h-.918l-.157-.156-.195-3.32a10.58,10.58,0,0,0-3.447-1.768,13.975,13.975,0,0,0-4.209-.635,12.231,12.231,0,0,0-5.918,1.416,9.881,9.881,0,0,0-4.063,4.1,13.709,13.709,0,0,0-1.445,6.572,13.485,13.485,0,0,0,1.7,6.856,11.637,11.637,0,0,0,4.639,4.531,14.265,14.265,0,0,0,6.865,1.582,16.373,16.373,0,0,0,3.34-.332,12.7,12.7,0,0,0,2.666-.82,12.22,12.22,0,0,0,2.041-1.192Z" style="fill: #fff"/>
    <path d="M760.029,143.926l.175.176q-.175,1.758-.175,6.133l-.157.156h-.918l-.156-.175-.215-1.8a16.562,16.562,0,0,0-.244-1.768.842.842,0,0,0-.283-.469,3.555,3.555,0,0,0-1.27-.244q-1.074-.1-2.4-.1h-3.691q-.158,4.413-.157,5.1v11.387l.039,3.808q.019,2.208.108,2.862a1.711,1.711,0,0,0,.273.859,1.535,1.535,0,0,0,.713.352,15.626,15.626,0,0,0,2.617.224l.137.118v.976l-.137.156q-5-.156-5.586-.156-.626,0-5.566.156l-.156-.156v-.976l.156-.118a20.011,20.011,0,0,0,2.432-.195,1.756,1.756,0,0,0,.8-.3,1.576,1.576,0,0,0,.342-.791,15.933,15.933,0,0,0,.137-2.695l.039-4.121V150.938q0-.312-.156-5.1h-2.91q-1.8,0-3.106.078t-1.514.4a7.09,7.09,0,0,0-.38,2.1l-.2,1.8-.175.175h-.9l-.156-.156q-.041-4.707-.176-6.133l.176-.176q3.4.158,11.308.157Q756.767,144.083,760.029,143.926Z" style="fill: #fff"/>
    <path d="M772.118,143.926q4.923.158,6.27.157,1.836,0,4.121-.1,2.421-.078,2.988-.078a15.215,15.215,0,0,1,4.522.566,5.96,5.96,0,0,1,2.959,2.071,5.734,5.734,0,0,1,1.172,3.632,7.512,7.512,0,0,1-.821,3.4,8.16,8.16,0,0,1-2.285,2.793,9.442,9.442,0,0,1-6.094,2.148,15.015,15.015,0,0,1-2.7-.273l-.332-1.192.176-.195a11.23,11.23,0,0,0,2.383.332,5.318,5.318,0,0,0,4.111-1.689,6.145,6.145,0,0,0,1.553-4.326,5.669,5.669,0,0,0-1.612-4.239,6.7,6.7,0,0,0-4.873-1.582,13.227,13.227,0,0,0-3.906.664q-.175,1.5-.176,7.266v9.043l.02,3.808a26.571,26.571,0,0,0,.117,2.852,1.816,1.816,0,0,0,.283.859,1.468,1.468,0,0,0,.713.362,15.46,15.46,0,0,0,2.6.224l.156.118v.976l-.156.156q-4.981-.156-5.606-.156-.664,0-5.586.156l-.156-.156v-.976l.156-.118a20.17,20.17,0,0,0,2.422-.195,1.782,1.782,0,0,0,.811-.3,1.533,1.533,0,0,0,.332-.791,18.066,18.066,0,0,0,.146-2.695l.02-4.121v-9.043l-.039-3.809q-.019-2.226-.108-2.871a1.772,1.772,0,0,0-.273-.859,1.408,1.408,0,0,0-.713-.352,16.766,16.766,0,0,0-2.6-.215l-.156-.136v-.977Z" style="fill: #fff"/>
    <path d="M796.552,144.063l.156-.137q6.7.119,8.574.118,6.406,0,11.407-.118l.1.137a33.333,33.333,0,0,0-.722,5.879l-.117.156h-.958l-.175-.156c.012-.117.019-.222.019-.312a19.014,19.014,0,0,0-.254-3.164,10.576,10.576,0,0,0-3.408-.713q-2.178-.166-3.271-.166-1.543,0-3.946.214l-.078,3.125-.058,3.575-.059,3.965q2.109.117,3.887.117,1.8,0,3.008-.117a5.08,5.08,0,0,0,1.416-.245.825.825,0,0,0,.312-.488,7.485,7.485,0,0,0,.186-1.279l.078-1.211.156-.156h.9l.157.156q-.04,2.129-.1,4.277l.1,4.395-.157.156h-.9l-.156-.156-.137-1.172q-.175-1.367-.254-1.631a.862.862,0,0,0-.361-.459,3.912,3.912,0,0,0-1.455-.312q-1.173-.119-3.223-.118-1.133,0-3.457.1-.1,1.641-.1,5.469,0,4.1.1,6.035h3.594q4.746,0,5.937-.117a7.806,7.806,0,0,0,2.266-.567q.175-.45.576-2.08t.459-2.041l.195-.137h.938l.156.137a27.027,27.027,0,0,0-.342,2.93q-.167,2.089-.166,3.574l-.136.156q-3.732-.117-9.766-.117l-5.313-.039q-1.856,0-3.867.156l-.156-.156v-.644l.156-.2a10.448,10.448,0,0,0,1.319-.732,15.339,15.339,0,0,0,.273-3.418q.106-3.271.107-4.99v-7.168l-.019-4.434q0-1.446-.039-2.353a7.3,7.3,0,0,0-.137-1.3,1.48,1.48,0,0,0-.224-.547.944.944,0,0,0-.411-.264,4.464,4.464,0,0,0-.966-.185l-1.485-.118-.156-.136Z" style="fill: #fff"/>
    <path d="M820.38,144.063l.156-.137q3.575.158,5.567.157,2.207,0,5.957-.137,1.388-.039,2.012-.039,4.94,0,6.7,1.8a5.883,5.883,0,0,1,1.758,4.258,6.678,6.678,0,0,1-.86,3.222,7.65,7.65,0,0,1-2.539,2.705,12.666,12.666,0,0,1-4.629,1.69q.546.762,1.973,2.637l2.773,3.671q1.348,1.817,2.891,3.838a12.279,12.279,0,0,0,1.992,2.285,2.478,2.478,0,0,0,.772.323,6.373,6.373,0,0,0,1.025.058l.156.157v.918l-.176.175a18.275,18.275,0,0,0-2.226-.117q-1.388,0-3.027.117-1.349-1.639-4.239-5.683-3.358-4.687-6.875-8.692l.2-.6q1.014.058,1.582.058a7.938,7.938,0,0,0,5.293-1.621,5.57,5.57,0,0,0,1.914-4.492,4.608,4.608,0,0,0-1.719-3.9,7.453,7.453,0,0,0-4.649-1.319,12.907,12.907,0,0,0-3.867.567q-.292.429-.293,7.324v9.043l.02,3.808a26.571,26.571,0,0,0,.117,2.852,1.816,1.816,0,0,0,.283.859,1.468,1.468,0,0,0,.713.362,15.473,15.473,0,0,0,2.6.224l.156.118v.976l-.156.156q-.1,0-3.438-.117-1.387-.039-2.168-.039-.6,0-5.586.156l-.156-.156v-.976l.156-.118a20.149,20.149,0,0,0,2.422-.195,1.782,1.782,0,0,0,.811-.3,1.542,1.542,0,0,0,.332-.791,17.782,17.782,0,0,0,.146-2.695l.02-4.121v-9.043l-.039-3.809q-.019-2.226-.108-2.871a1.762,1.762,0,0,0-.273-.859,1.408,1.408,0,0,0-.713-.352,16.766,16.766,0,0,0-2.6-.215l-.156-.136Z" style="fill: #fff"/>
    <path d="M847.822,164.805l.156-.156h.957l.156.156a18.008,18.008,0,0,0,.264,3.057,2.488,2.488,0,0,0,1.054,1.172,7.578,7.578,0,0,0,2.364,1.006,11.6,11.6,0,0,0,2.978.39,8.8,8.8,0,0,0,3.721-.761,5.817,5.817,0,0,0,2.568-2.237,6.127,6.127,0,0,0,.918-3.31,5.332,5.332,0,0,0-.439-2.246,3.83,3.83,0,0,0-1.231-1.534,5.616,5.616,0,0,0-1.806-.859q-1.015-.282-3.028-.615-1.951-.312-3.056-.567a10.371,10.371,0,0,1-2.2-.781,5.855,5.855,0,0,1-1.826-1.338,6.107,6.107,0,0,1-1.172-1.992,7.2,7.2,0,0,1-.439-2.529,7.767,7.767,0,0,1,2.539-5.986,9.678,9.678,0,0,1,6.816-2.334,18.117,18.117,0,0,1,3.7.419A15.026,15.026,0,0,1,864.462,145l.137.234a26.728,26.728,0,0,0-.527,5.117l-.176.156H862.88l-.156-.136q-.041-2.345-.117-2.949t-1.778-1.5a7.773,7.773,0,0,0-3.691-.9,7.362,7.362,0,0,0-3.106.664,4.551,4.551,0,0,0-2.187,2.09,6.233,6.233,0,0,0-.742,2.91,4.453,4.453,0,0,0,.449,2.041,3.841,3.841,0,0,0,1.162,1.407,5.014,5.014,0,0,0,1.66.771q.948.254,3.467.625a20.583,20.583,0,0,1,5.029,1.182,5.6,5.6,0,0,1,2.52,2.2,6.677,6.677,0,0,1,.947,3.633,8.6,8.6,0,0,1-3.389,6.933,12.546,12.546,0,0,1-8.212,2.774,16.379,16.379,0,0,1-7.09-1.446l-.117-.253Q847.723,169.317,847.822,164.805Z" style="fill: #fff"/>
    <path d="M868.427,143.926q4.921.158,6.27.157,1.834,0,4.121-.1,2.421-.078,2.988-.078a15.2,15.2,0,0,1,4.521.566,5.955,5.955,0,0,1,2.959,2.071,5.728,5.728,0,0,1,1.172,3.632,7.511,7.511,0,0,1-.82,3.4,8.171,8.171,0,0,1-2.285,2.793,9.442,9.442,0,0,1-6.094,2.148,15.006,15.006,0,0,1-2.7-.273l-.332-1.192.175-.195a11.246,11.246,0,0,0,2.383.332A5.32,5.32,0,0,0,884.9,155.5a6.144,6.144,0,0,0,1.552-4.326,5.672,5.672,0,0,0-1.611-4.239,6.7,6.7,0,0,0-4.873-1.582,13.227,13.227,0,0,0-3.906.664q-.175,1.5-.176,7.266v9.043l.019,3.808a26.2,26.2,0,0,0,.118,2.852,1.816,1.816,0,0,0,.283.859,1.463,1.463,0,0,0,.713.362,15.456,15.456,0,0,0,2.6.224l.157.118v.976l-.157.156q-4.98-.156-5.605-.156-.663,0-5.586.156l-.156-.156v-.976l.156-.118a20.149,20.149,0,0,0,2.422-.195,1.777,1.777,0,0,0,.81-.3,1.533,1.533,0,0,0,.332-.791,17.872,17.872,0,0,0,.147-2.695l.019-4.121v-9.043l-.039-3.809q-.018-2.226-.107-2.871a1.772,1.772,0,0,0-.273-.859,1.412,1.412,0,0,0-.713-.352,16.766,16.766,0,0,0-2.6-.215l-.156-.136v-.977Z" style="fill: #fff"/>
    <path d="M892.861,144.063l.156-.137q6.7.119,8.574.118,6.406,0,11.406-.118l.1.137a33.408,33.408,0,0,0-.723,5.879l-.117.156H911.3l-.176-.156a2.886,2.886,0,0,0,.02-.312,19.014,19.014,0,0,0-.254-3.164,10.576,10.576,0,0,0-3.408-.713q-2.178-.166-3.272-.166-1.542,0-3.945.214l-.078,3.125-.059,3.575-.058,3.965q2.109.117,3.886.117,1.8,0,3.008-.117a5.071,5.071,0,0,0,1.416-.245.821.821,0,0,0,.313-.488,7.409,7.409,0,0,0,.185-1.279l.078-1.211.157-.156h.9l.156.156q-.039,2.129-.1,4.277l.1,4.395-.156.156h-.9l-.157-.156-.136-1.172q-.177-1.367-.254-1.631a.86.86,0,0,0-.362-.459,3.9,3.9,0,0,0-1.455-.312q-1.171-.119-3.222-.118-1.133,0-3.457.1-.1,1.641-.1,5.469,0,4.1.1,6.035h3.593q4.746,0,5.938-.117a7.792,7.792,0,0,0,2.265-.567,21.478,21.478,0,0,0,.577-2.08q.4-1.631.459-2.041l.2-.137h.937l.157.137a26.769,26.769,0,0,0-.342,2.93q-.165,2.089-.166,3.574l-.137.156q-3.731-.117-9.765-.117l-5.313-.039q-1.856,0-3.867.156l-.156-.156v-.644l.156-.2a10.314,10.314,0,0,0,1.318-.732,15.222,15.222,0,0,0,.274-3.418q.106-3.271.107-4.99v-7.168l-.019-4.434q0-1.446-.04-2.353a7.326,7.326,0,0,0-.136-1.3,1.478,1.478,0,0,0-.225-.547.946.946,0,0,0-.41-.264,4.449,4.449,0,0,0-.967-.185l-1.484-.118-.156-.136Z" style="fill: #fff"/>
    <path d="M943.114,168.223l-.742,1.817a20.126,20.126,0,0,1-9.258,2.207q-7.05,0-11.455-4a13.483,13.483,0,0,1-4.4-10.469,13.811,13.811,0,0,1,2.2-7.783,13.627,13.627,0,0,1,5.8-4.981,19.227,19.227,0,0,1,8.1-1.65,24.376,24.376,0,0,1,5.137.547,21.583,21.583,0,0,1,4.238,1.309l.137.195a24.864,24.864,0,0,0-.84,5.41l-.137.156h-.918l-.156-.156-.2-3.32a10.56,10.56,0,0,0-3.447-1.768,13.97,13.97,0,0,0-4.209-.635,12.237,12.237,0,0,0-5.918,1.416,9.879,9.879,0,0,0-4.062,4.1,13.709,13.709,0,0,0-1.446,6.572,13.486,13.486,0,0,0,1.7,6.856,11.628,11.628,0,0,0,4.638,4.531,14.269,14.269,0,0,0,6.866,1.582,16.356,16.356,0,0,0,3.339-.332,12.681,12.681,0,0,0,2.666-.82,12.18,12.18,0,0,0,2.041-1.192Z" style="fill: #fff"/>
    <path d="M967.8,143.926l.176.176q-.175,1.758-.176,6.133l-.156.156h-.918l-.156-.175-.215-1.8a17.147,17.147,0,0,0-.244-1.768.843.843,0,0,0-.284-.469,3.547,3.547,0,0,0-1.269-.244q-1.074-.1-2.4-.1h-3.691q-.156,4.413-.156,5.1v11.387l.039,3.808q.019,2.208.107,2.862a1.719,1.719,0,0,0,.274.859,1.53,1.53,0,0,0,.713.352,15.6,15.6,0,0,0,2.617.224l.137.118v.976l-.137.156q-5-.156-5.586-.156-.625,0-5.567.156l-.156-.156v-.976l.156-.118a19.99,19.99,0,0,0,2.432-.195,1.762,1.762,0,0,0,.8-.3,1.576,1.576,0,0,0,.342-.791,16.087,16.087,0,0,0,.136-2.695l.039-4.121V150.938q0-.312-.156-5.1h-2.91q-1.8,0-3.105.078t-1.514.4a7.04,7.04,0,0,0-.381,2.1l-.2,1.8-.176.175h-.9l-.157-.156q-.039-4.707-.176-6.133l.176-.176q3.4.158,11.309.157Q964.541,144.083,967.8,143.926Z" style="fill: #fff"/>
    <path d="M969.892,143.926l2.441.079q2.4.077,3.145.078.663,0,5.605-.157l.156.137v.977l-.156.136q-1.347.041-2.08.118a2.5,2.5,0,0,0-1.064.293,1.381,1.381,0,0,0-.44,1.005,17.445,17.445,0,0,0-.107,2.2l-.039,4.492v9.043l.019,3.808a26.571,26.571,0,0,0,.117,2.852,1.826,1.826,0,0,0,.284.859,1.463,1.463,0,0,0,.713.362,15.443,15.443,0,0,0,2.6.224l.156.118v.976l-.156.156q-.1,0-3.437-.117-1.387-.039-2.168-.039-.606,0-5.586.156l-.156-.156v-.976l.156-.118a20.17,20.17,0,0,0,2.422-.195,1.777,1.777,0,0,0,.81-.3,1.533,1.533,0,0,0,.332-.791,17.872,17.872,0,0,0,.147-2.695l.019-4.121v-9.043l-.039-3.809q-.018-2.226-.107-2.871a1.771,1.771,0,0,0-.274-.859,1.408,1.408,0,0,0-.713-.352,16.733,16.733,0,0,0-2.6-.215l-.156-.136v-.977Z" style="fill: #fff"/>
    <path d="M995.654,171.876q-.294-.861-2.442-6.563l-6.64-16.426a23.612,23.612,0,0,0-1.426-3.193q-.294-.381-2.344-.518l-.176-.175v-.9l.176-.176q2.988.158,5.078.157,1.953,0,5.176-.157l.156.157v1.074l-.156.156a14.45,14.45,0,0,0-2.822.147.562.562,0,0,0-.459.556,14.655,14.655,0,0,0,.625,2.08q.625,1.846,1.113,3.116l6.113,15.449,5.1-12.813q.527-1.308,1.543-4.218a17.9,17.9,0,0,0,1.015-3.5.6.6,0,0,0-.478-.625,23.161,23.161,0,0,0-2.861-.332l-.176-.156v-.937l.176-.157q3.417.158,4.355.157.762,0,3.945-.157l.157.157v.937l-.157.156a5.642,5.642,0,0,0-1.7.215,1.324,1.324,0,0,0-.517.606q-.225.45-1.4,3.086l-6.094,15q-2.05,5.019-2.91,7.793Z" style="fill: #fff"/>
    <path d="M1012.529,144.063l.156-.137q6.7.119,8.574.118,6.407,0,11.406-.118l.1.137a33.408,33.408,0,0,0-.723,5.879l-.117.156h-.957l-.176-.156a2.886,2.886,0,0,0,.02-.312,19.014,19.014,0,0,0-.254-3.164,10.576,10.576,0,0,0-3.408-.713q-2.178-.166-3.272-.166-1.542,0-3.945.214l-.078,3.125-.059,3.575-.058,3.965q2.109.117,3.886.117,1.8,0,3.008-.117a5.071,5.071,0,0,0,1.416-.245.821.821,0,0,0,.313-.488,7.409,7.409,0,0,0,.185-1.279l.078-1.211.157-.156h.9l.156.156q-.039,2.129-.1,4.277l.1,4.395-.156.156h-.9l-.157-.156-.136-1.172q-.177-1.367-.254-1.631a.86.86,0,0,0-.362-.459,3.9,3.9,0,0,0-1.455-.312q-1.171-.119-3.222-.118-1.132,0-3.457.1-.1,1.641-.1,5.469,0,4.1.1,6.035h3.593q4.746,0,5.938-.117a7.792,7.792,0,0,0,2.265-.567,21.478,21.478,0,0,0,.577-2.08q.4-1.631.459-2.041l.195-.137h.937l.157.137a26.515,26.515,0,0,0-.342,2.93q-.165,2.089-.166,3.574l-.137.156q-3.731-.117-9.765-.117l-5.313-.039q-1.855,0-3.867.156l-.156-.156v-.644l.156-.2a10.314,10.314,0,0,0,1.318-.732,15.222,15.222,0,0,0,.274-3.418q.106-3.271.107-4.99v-7.168l-.019-4.434q0-1.446-.04-2.353a7.326,7.326,0,0,0-.136-1.3,1.478,1.478,0,0,0-.225-.547.946.946,0,0,0-.41-.264,4.463,4.463,0,0,0-.967-.185l-1.484-.118-.156-.136Z" style="fill: #fff"/>
    <path d="M1037.079,164.805l.157-.156h.957l.156.156a18.008,18.008,0,0,0,.264,3.057,2.483,2.483,0,0,0,1.054,1.172,7.582,7.582,0,0,0,2.363,1.006,11.609,11.609,0,0,0,2.979.39,8.8,8.8,0,0,0,3.721-.761,5.817,5.817,0,0,0,2.568-2.237,6.136,6.136,0,0,0,.918-3.31,5.332,5.332,0,0,0-.439-2.246,3.839,3.839,0,0,0-1.231-1.534,5.612,5.612,0,0,0-1.807-.859q-1.014-.282-3.027-.615-1.953-.312-3.057-.567a10.382,10.382,0,0,1-2.2-.781,5.843,5.843,0,0,1-1.826-1.338,6.107,6.107,0,0,1-1.172-1.992,7.2,7.2,0,0,1-.439-2.529,7.763,7.763,0,0,1,2.539-5.986,9.678,9.678,0,0,1,6.816-2.334,18.108,18.108,0,0,1,3.7.419A15.034,15.034,0,0,1,1053.72,145l.137.234a26.8,26.8,0,0,0-.528,5.117l-.175.156h-1.016l-.156-.136q-.041-2.345-.118-2.949t-1.777-1.5a7.776,7.776,0,0,0-3.691-.9,7.362,7.362,0,0,0-3.106.664,4.547,4.547,0,0,0-2.187,2.09,6.233,6.233,0,0,0-.742,2.91,4.453,4.453,0,0,0,.449,2.041,3.831,3.831,0,0,0,1.162,1.407,5,5,0,0,0,1.66.771q.948.254,3.467.625a20.583,20.583,0,0,1,5.029,1.182,5.6,5.6,0,0,1,2.52,2.2,6.677,6.677,0,0,1,.947,3.633,8.6,8.6,0,0,1-3.389,6.933,12.549,12.549,0,0,1-8.213,2.774,16.378,16.378,0,0,1-7.089-1.446l-.118-.253A57.487,57.487,0,0,0,1037.079,164.805Z" style="fill: #fff"/>
  </g>
  <g style="clip-path: url(#bc0e3564-9e71-404b-bf1f-b2712f78c24a)">
    <path d="M1348.249-58.272a38.929,38.929,0,0,0-10.564-5.947,37.294,37.294,0,0,1-8.4-4.676c-1.62-3.951-3.426-9.271-4.029-9.616-1.492-.85.267-2.964-.158-4.568-2.122-8.014-1.784-16.471-4.416-24.407a94.1,94.1,0,0,0-4.609-10.455,4.35,4.35,0,0,0-2.534-2.261c-1.944-.719-3.893-1.424-5.834-2.152-3.829-1.436-4.736-5.767-1.672-8.479,1.113-.985.85-1.738.03-2.453-3.59-3.13-7.949-4.754-12.475-5.834-1.783-.426-2.865,1.233-2.239,3.4a4.972,4.972,0,0,1-.561,4.7,1.43,1.43,0,0,0-.038,2.016,1.745,1.745,0,0,1,.412,1.363c-.982,3.194,1.249,5.251,2.748,7.452.672.987.214,1.211-.354,1.365-5.319,1.45-6.007,6.032-6.719,10.322-.832,5.025-1.569,10.066-2.374,15.1a7.71,7.71,0,0,1-.675-.544,3.682,3.682,0,0,1-1.8-3.4,7.926,7.926,0,0,1-.038-1.851,19.819,19.819,0,0,0-2.528-8.466h0a6.917,6.917,0,0,1-.616-1.216c-2.954-7.586-8.764-12.106-16.067-14.944-5.268-2.048-10.626-1.614-15.829.288-2.034.744-3.111.686-3.354-1.731-.086-.854-.21-2.033-1.267-2.209-.985-.164-1.2.986-1.619,1.639a71.554,71.554,0,0,1-5.423,8.026,7.438,7.438,0,0,0-1.367,7.708,20.029,20.029,0,0,1,.047,13.657,15.609,15.609,0,0,0-.6,2.665c-.511,3.168.817,5.125,3.947,6a1.514,1.514,0,0,0,1.734-.584c.861-1,1.731-1.989,2.583-2.967.744.14.813.825,1.162,1.257,1.588,1.968,3.382,1.766,4.265-.554a75.225,75.225,0,0,1,3.914-9.129,1.7,1.7,0,0,1,1.225-1.144,9.749,9.749,0,0,1-.591,6.614,8.845,8.845,0,0,1-1.678,2.749c-3.9,3.813-6.228,8.528-8.022,13.563-.585,1.642-1.494,1.145-2.491.507a24.78,24.78,0,0,0-7.149-3.406,5.048,5.048,0,0,0-5.067,1.116,98.862,98.862,0,0,0-18.563,22.9c-.907,1.539-.271,2.045,1.2,2.3,2.963.513,5.211-.4,6.214-3.253,2.02-5.744,6.583-9.473,10.5-13.674,2.518-2.7,4.117-2.577,6.732-.615,2.855,2.142,4.172,5.315,2.845,7.737-4.294,7.84-8.2,15.914-13.6,23.1a25.391,25.391,0,0,1-7.272,6.33c-1.361.83-1.137,1.259-.024,2.058,4.494,3.225,4.518,3.284,7.724-.414,8.488-9.794,18.107-18.456,27.359-27.485,3.829-3.737,4-3.731,8.7-.519-2.827,1.777-2.873,2.27-.424,4.59a5.053,5.053,0,0,0,2.963,1.727c5.233.268,9.108,3.022,12.77,6.431a18.426,18.426,0,0,0,11.552,4.621c1.531.116,2.239.24,1.485,2.192a6.835,6.835,0,0,0,5.418,8.5c1.846.287,2.006,1.137,2,2.65-.022,6.656-2.669,11.454-9.162,13.881-2.788,1.042-5.438,2.461-8.126,3.761a26.96,26.96,0,0,0-10.1,9.012c-.637.89-1.685,2.041-.227,2.979,1.348.866,2.6,2.693,4.586,1.273a6.782,6.782,0,0,0,1.939-1.9c1.964-3.329,5.03-5.2,8.442-6.65a122.9,122.9,0,0,1,20.671-7.132,2.41,2.41,0,0,0,2.116-2.313,24.119,24.119,0,0,0-.146-6.448,10.953,10.953,0,0,1,.757-5.843c.371-.831.674-1.881,1.751-1.866,1,.013,1.183,1.074,1.409,1.827,2.717,9.05,3.726,18.2,1.112,27.447-1.624,5.748-3.263,11.524-7.608,15.992a28.628,28.628,0,0,0-2.084,2.128c-.669.849-2.7.974-1.817,2.646s4.5,2.743,5.826,1.919c4.033-2.514,6.05-6.575,7.684-10.736,2.223-5.657,5.241-10.895,7.981-16.279,1.128-2.217,1.8-4.344,1.088-6.89-1.912-6.862,1.693-11.98,5.63-16.947a118.4,118.4,0,0,0,8.4-11.086c2.862-4.633,4.4-9.446,2.907-14.9-.212-.772-.6-1.83.347-2.226s1.424.69,1.857,1.323c2.4,3.518,2.428,7.562,2.054,11.525A64.911,64.911,0,0,1,1330.47-14.71c-.174.251-.323.52-.484.781l.486.41a92.138,92.138,0,0,0,15.6-13.312c3.181-3.405,6.09-7.029,7.82-11.424C1357.088-46.384,1355.159-52.838,1348.249-58.272Z" style="fill: #fff"/>
  </g>
</svg>
