<svg id="Layer_1" data-name="Layer 1" xmlns="http://www.w3.org/2000/svg" xmlns:xlink="http://www.w3.org/1999/xlink" viewBox="0 0 1344.29 194.65">
  <defs>
    <clipPath id="clip-path">
      <rect x="9.31" y="35.53" width="167.33" height="138.99" fill="none"/>
    </clipPath>
  </defs>
  <title>banner-9</title>
  <g clip-path="url(#clip-path)">
    <g>
      <path d="M175.4,90.7c-2.46-3.09-7.1-6.27-10.65-6.55a31.73,31.73,0,0,0-15.58,3c-6,2.86-11.52,9.14-16.7,8.5s-6,1.09-15.83-8.18S87.54,58.41,81.53,56s-9.91-8.73-30.1-7c0,0-8.46,1.55-12,4.1a.71.71,0,0,1-.3-1.15,1.54,1.54,0,0,0-.57-2.34s.92-.75.72-1.57-1-1.33-1.47-1.84.37-.92.58-1.44a4.67,4.67,0,0,0,.07-2.21c-.45-1.86-8-.62-8-.62-2.46.34-5,1.64-4.95,2.46s1.44,2.25,1.64,2.45-.61.21-.82,1a3.32,3.32,0,0,0,.41,2.25c.28.41-.54,1.09-.07,2.39a10.3,10.3,0,0,0,.89,1.91l4.91,36.76a4.14,4.14,0,0,0,0,2.53,4.8,4.8,0,0,0,1,1.57c.4.47,1.09,1.18.75,1.75a7,7,0,0,0-.69,1.84c-.14.55-.47,1.73-.06,2.14a4,4,0,0,1,.84,1.29l.25.55L53,241.41s-2.19-.34-1.3,1.43,2.52,1.77,2.46,2.59.42,1.19-.3,1.69-1.07.7-1.14,1.52-.27,1.77.41,2.25,1.64,1.29,1.64,1.29l3.34,33.5s-2.66.41-3,1.57a6.93,6.93,0,0,1-.75,1.77s-2.25,1.36-2.11,2.8-.41,3.75.88,4.36,4.23,1.3,5,2.18,3.07,2.12,4.09,3.55,2.39,3.62,2.39,3.62-4.29,1.22-5.11,2.45-2.47,2.48-1.65,4.31,1.3,3.7,3.69,3.47,9.55-2.32,10.71-2.32,4-.48,5.05-.61,6.75.41,7-.89a31.75,31.75,0,0,0,.2-3.62s2.53-1.94,4.5-1.84,6.28-.75,8.6-1,2-1,4.57-.21a20.38,20.38,0,0,1,5.46,2.53c1.63,1,1,1.84,2.73,2s3.13.14,3.82-.47.27-.48,1.29-1.1,2.18-.47,2-1.63-2.46-4.57-3.41-5.26-3.41-1.16-3.48-1.7,2.11-2.59,2.11-3.41-.68-3.14.41-3.55,2.32-.2,1.64-1-1.57-2.73-2-3.07a3,3,0,0,0-.87-.45L171.58,116l4.36-13.74S177.85,93.79,175.4,90.7Zm-21.65,22.74L70.07,277.17l-1.2.32S64.44,251.71,64.16,251s0-.81.32-1.29.48-.41.75-1.39-.41-1.41-.59-1.84-1.36-1.09-1.68-1.27,0-.62,0-.69.36-.47.68-.91a3.93,3.93,0,0,0,.77-2c.07-.84-1.29-2.39-1.65-2.74a2.25,2.25,0,0,1-.35-1.29s-16.85-131.28-17-132a44.7,44.7,0,0,1-.4-4.51c-.09-1.55.53-1.32.84-2.39a2.39,2.39,0,0,0-1.29-2.56,2.61,2.61,0,0,1-1.23-1.28c-.4-.62,0-.71.48-1.19a14.35,14.35,0,0,0,1.6-1.77c.63-.84-1.29-2-1.82-2.35s2.12-2.82,3.71-3.75a37.39,37.39,0,0,1,12.43-5C67.66,79,78.4,85.61,78.4,85.61c2.86,1.23,23.74,18.23,23.74,18.23,11.14,8.87,20.6,10.51,26.73,11.24s12.6-2.91,12.6-2.91A123.94,123.94,0,0,0,153,105.43c1.37-1.13,3.41-2.59,4.42-2.76s.63.17.86,1S153.75,113.44,153.75,113.44Z" fill="#b17840"/>
      <path d="M49.31,63.41l1.91,16s16.65-6,32.33,7.59c14.38,12.48,26.13,22.64,40.88,26.44,4.18,1.07,12-.33,16.35-2.59a73.28,73.28,0,0,0,7.11-4.13s-11.94,5.11-20,5.31c-8.86.22-22.29-11-28.76-18.39S73,70.19,63.84,66.52C55.23,63.07,49.31,63.41,49.31,63.41Z" fill="#8c5521"/>
      <circle cx="142.43" cy="105.92" r="2.06" fill="#ebcab7"/>
      <circle cx="147.89" cy="103.47" r="2.06" fill="#ebcab7"/>
      <circle cx="137.07" cy="107.98" r="2.06" fill="#ebcab7"/>
      <circle cx="125.78" cy="107.98" r="2.06" fill="#ebcab7"/>
      <circle cx="131.54" cy="108.78" r="2.06" fill="#ebcab7"/>
      <circle cx="114.83" cy="103.21" r="2.06" fill="#ebcab7"/>
      <circle cx="120.44" cy="105.92" r="2.06" fill="#ebcab7"/>
      <circle cx="105.61" cy="95.7" r="2.06" fill="#ebcab7"/>
      <circle cx="96.85" cy="87.44" r="2.06" fill="#ebcab7"/>
      <circle cx="101.1" cy="91.57" r="2.06" fill="#ebcab7"/>
      <circle cx="110.05" cy="99.83" r="2.06" fill="#ebcab7"/>
      <circle cx="84.43" cy="75.62" r="2.06" fill="#ebcab7"/>
      <circle cx="89.01" cy="78.94" r="2.06" fill="#ebcab7"/>
      <circle cx="93.14" cy="83.07" r="2.06" fill="#ebcab7"/>
      <circle cx="79.6" cy="70.97" r="2.06" fill="#ebcab7"/>
      <circle cx="74.21" cy="67.95" r="2.06" fill="#ebcab7"/>
      <circle cx="69.18" cy="64.45" r="2.06" fill="#ebcab7"/>
      <circle cx="51.73" cy="60.33" r="2.06" fill="#ebcab7"/>
      <circle cx="58.2" cy="60.69" r="2.06" fill="#ebcab7"/>
      <circle cx="64.44" cy="61.93" r="2.06" fill="#ebcab7"/>
      <path d="M154.82,110.74c-1,.21-1.69,1.55-1.26,1.91s2.65,2.95,3.45,3.15,14.8.6,15.35,0,1.07-2.45.06-2.43-14.11.18-14.11.18Z" fill="#4b2d15"/>
      <polygon points="38.6 53.96 37.04 54.38 42.57 86.78 37.85 54.81 38.6 53.96" fill="#8c5521"/>
      <path d="M167.56,86.25c1.82,1.93,3.22,2,1,6.65s-5.36,8.58-6,10.57-1.61,4.51-1.61,4.51.1-5.37.75-6.58,1.5-1.36,2.79-4.28,3.11-5.43,3-7.61a3.19,3.19,0,0,0-2.68-3.26Z" fill="#8c5521"/>
      <line x1="147.89" y1="103.47" x2="152.46" y2="121.54" fill="none" stroke="#292929" stroke-miterlimit="10" stroke-width="0.62"/>
      <line x1="142.43" y1="105.92" x2="148.36" y2="130.35" fill="none" stroke="#292929" stroke-miterlimit="10" stroke-width="0.62"/>
      <line x1="137.07" y1="107.98" x2="145.13" y2="136.56" fill="none" stroke="#292929" stroke-miterlimit="10" stroke-width="0.62"/>
      <line x1="131.54" y1="108.78" x2="140.83" y2="144.77" fill="none" stroke="#292929" stroke-miterlimit="10" stroke-width="0.62"/>
      <line x1="125.78" y1="107.98" x2="137.42" y2="151.41" fill="none" stroke="#292929" stroke-miterlimit="10" stroke-width="0.62"/>
      <line x1="120.44" y1="105.92" x2="134.25" y2="157.97" fill="none" stroke="#292929" stroke-miterlimit="10" stroke-width="0.62"/>
      <line x1="114.83" y1="103.21" x2="130.97" y2="165" fill="none" stroke="#292929" stroke-miterlimit="10" stroke-width="0.62"/>
      <line x1="110.05" y1="99.83" x2="127.02" y2="172.01" fill="none" stroke="#292929" stroke-miterlimit="10" stroke-width="0.62"/>
      <line x1="105.61" y1="95.7" x2="121.54" y2="182.74" fill="none" stroke="#292929" stroke-miterlimit="10" stroke-width="0.62"/>
      <line x1="101.1" y1="91.57" x2="117.54" y2="190.92" fill="none" stroke="#292929" stroke-miterlimit="10" stroke-width="0.62"/>
      <line x1="96.85" y1="87.44" x2="112.12" y2="199.67" fill="none" stroke="#292929" stroke-miterlimit="10" stroke-width="0.62"/>
      <line x1="93.14" y1="83.07" x2="107.99" y2="207.45" fill="none" stroke="#292929" stroke-miterlimit="10" stroke-width="0.62"/>
      <line x1="89.01" y1="78.94" x2="103.16" y2="217.51" fill="none" stroke="#292929" stroke-miterlimit="10" stroke-width="0.62"/>
      <line x1="84.43" y1="75.62" x2="97.93" y2="230.79" fill="none" stroke="#292929" stroke-miterlimit="10" stroke-width="0.62"/>
      <line x1="79.6" y1="70.97" x2="92.01" y2="241.45" fill="none" stroke="#292929" stroke-miterlimit="10" stroke-width="0.62"/>
      <line x1="74.21" y1="67.95" x2="86.77" y2="252.27" fill="none" stroke="#292929" stroke-miterlimit="10" stroke-width="0.62"/>
      <line x1="69.18" y1="64.45" x2="81.58" y2="265.02" fill="none" stroke="#292929" stroke-miterlimit="10" stroke-width="0.62"/>
      <line x1="64.44" y1="61.93" x2="77.97" y2="270.54" fill="none" stroke="#292929" stroke-miterlimit="10" stroke-width="0.62"/>
      <line x1="58.2" y1="60.69" x2="75.38" y2="275.1" fill="none" stroke="#292929" stroke-miterlimit="10" stroke-width="0.62"/>
      <line x1="51.73" y1="60.33" x2="73.41" y2="279.67" fill="none" stroke="#292929" stroke-miterlimit="10" stroke-width="0.62"/>
      <polygon points="154.48 116.12 72.14 281.24 74.21 281.24 156.12 117.17 154.48 116.12" fill="#8c5521"/>
    </g>
  </g>
  <polygon points="204.41 104.46 162.93 172.48 0 172.48 0 194.65 279.31 194.65 1344.29 194.65 1344.29 104.46 204.41 104.46" fill="#212026"/>
  <g>
    <path d="M215.91,144.06l.15-.13c3.23.1,5.09.15,5.59.15s2.31-.05,5.61-.15l.15.13v1l-.15.14c-.9,0-1.6.06-2.08.11a2.55,2.55,0,0,0-1.07.3,1.38,1.38,0,0,0-.44,1,17.57,17.57,0,0,0-.11,2.2l0,4.49v8.64c0,2.16,0,3.67,0,4.53l.1,3.38h4q4.75,0,5.94-.12a8.12,8.12,0,0,0,2.28-.57,15.46,15.46,0,0,0,.61-2.24c.27-1.18.41-1.85.42-2l.18-.15h1l.13.15c-.1.53-.21,1.54-.32,3s-.17,2.71-.17,3.63l-.15.16c-2.48-.08-5.72-.12-9.75-.12l-5.7,0c-1.3,0-2.63.06-4,.16l-.15-.16v-.64l.15-.19a8.35,8.35,0,0,0,1.33-.77,12.49,12.49,0,0,0,.25-2.52c.08-1.59.12-3.5.12-5.74v-8.38l0-3.81c0-1.48,0-2.44-.11-2.87a1.74,1.74,0,0,0-.28-.86,1.41,1.41,0,0,0-.71-.35,16.9,16.9,0,0,0-2.6-.21l-.15-.14Z" fill="#fff"/>
    <path d="M240.77,143.93l2.44.08c1.6.05,2.65.07,3.15.07s2.31-.05,5.6-.15l.16.13v1l-.16.14c-.9,0-1.59.06-2.08.11a2.49,2.49,0,0,0-1.06.3,1.38,1.38,0,0,0-.44,1,17.57,17.57,0,0,0-.11,2.2l0,4.49v9.05l0,3.8a24.32,24.32,0,0,0,.12,2.86,1.85,1.85,0,0,0,.28.86,1.55,1.55,0,0,0,.71.36,16.53,16.53,0,0,0,2.6.22l.16.12v1l-.16.16-3.44-.12-2.16,0c-.41,0-2.27.06-5.59.16l-.16-.16v-1l.16-.12a22.12,22.12,0,0,0,2.42-.19,1.66,1.66,0,0,0,.81-.31,1.5,1.5,0,0,0,.34-.79,18.46,18.46,0,0,0,.14-2.69l0-4.12v-9.05l0-3.81a28.23,28.23,0,0,0-.11-2.87,1.75,1.75,0,0,0-.27-.86,1.41,1.41,0,0,0-.71-.35,16.9,16.9,0,0,0-2.6-.21l-.16-.14v-1Z" fill="#fff"/>
    <path d="M253.8,145.18l-.16-.14v-1l.16-.13c2.22.1,3.94.15,5.15.15.46,0,2.26-.05,5.41-.15,1,0,1.76,0,2.21,0a13.08,13.08,0,0,1,4.18.53,4.85,4.85,0,0,1,2.48,1.86,5.14,5.14,0,0,1,.94,3,6.14,6.14,0,0,1-1.56,4,9.13,9.13,0,0,1-5.08,2.66,22.23,22.23,0,0,1,3.48.56,6.66,6.66,0,0,1,2.36,1.15,5.31,5.31,0,0,1,1.57,2,6.71,6.71,0,0,1,.58,2.85,9,9,0,0,1-.39,2.58,7.61,7.61,0,0,1-1.44,2.6,10,10,0,0,1-2.53,2.2,10.83,10.83,0,0,1-3,1.33,15.48,15.48,0,0,1-3.85.41c-.32,0-1.25,0-2.82-.1l-2.81-.06c-.88,0-2,.06-3.26.16l-.16-.16v-.64l.16-.19a5.74,5.74,0,0,0,1.31-.71,15.1,15.1,0,0,0,.28-3.46c.07-2.17.11-3.83.11-5v-7.16l0-4.44c0-1,0-1.75,0-2.35a11,11,0,0,0-.11-1.3,1,1,0,0,0-.22-.55,1.31,1.31,0,0,0-.44-.26,5.08,5.08,0,0,0-1-.19Zm7,10.25c.65,0,1.39.08,2.21.08,2.69,0,4.57-.48,5.62-1.45a5.07,5.07,0,0,0,1.58-4,4.83,4.83,0,0,0-.6-2.49,3.87,3.87,0,0,0-1.91-1.57,9.14,9.14,0,0,0-3.52-.55,16,16,0,0,0-3.2.29q-.18,1.75-.18,6.14Zm0,14.24a13.72,13.72,0,0,0,3.08.35,8.88,8.88,0,0,0,4.38-.9,5.55,5.55,0,0,0,2.33-2.49,8,8,0,0,0,.76-3.46,6.32,6.32,0,0,0-1.6-4.51c-1.06-1.12-3.35-1.69-6.88-1.69-.59,0-1.29,0-2.11.08v6.66Z" fill="#fff"/>
    <path d="M279,144.06l.16-.13c4.47.08,7.32.11,8.57.11,4.28,0,8.08,0,11.41-.11l.1.13a32.34,32.34,0,0,0-.72,5.88l-.12.16h-1l-.17-.16c0-.11,0-.22,0-.31a18.8,18.8,0,0,0-.26-3.16,10.39,10.39,0,0,0-3.41-.72c-1.45-.11-2.54-.16-3.27-.16-1,0-2.34.07-3.94.21l-.08,3.13-.06,3.57-.06,4c1.41.07,2.7.11,3.89.11s2.2,0,3-.11a4.78,4.78,0,0,0,1.41-.25.76.76,0,0,0,.31-.49,6.25,6.25,0,0,0,.19-1.28l.08-1.21.15-.15h.9l.16.15c0,1.42-.06,2.85-.1,4.28l.1,4.4-.16.15h-.9l-.15-.15-.14-1.18c-.12-.91-.2-1.45-.25-1.63a.92.92,0,0,0-.36-.46,4,4,0,0,0-1.46-.31c-.78-.08-1.85-.12-3.22-.12-.76,0-1.91,0-3.46.1-.06,1.1-.1,2.92-.1,5.47,0,2.73,0,4.75.1,6h3.6q4.74,0,5.93-.12a7.88,7.88,0,0,0,2.27-.57,19.41,19.41,0,0,0,.57-2.08c.27-1.08.42-1.77.46-2l.2-.14h.94l.15.14a29,29,0,0,0-.34,2.93c-.11,1.39-.17,2.59-.17,3.57l-.13.16c-2.49-.08-5.74-.12-9.77-.12l-5.31,0c-1.24,0-2.53.06-3.87.16l-.15-.16v-.64l.15-.19A10.91,10.91,0,0,0,282,170a15.28,15.28,0,0,0,.27-3.42c.08-2.18.11-3.84.11-5v-7.16l0-4.44c0-1,0-1.75,0-2.35a7.34,7.34,0,0,0-.13-1.3,1.53,1.53,0,0,0-.23-.55.94.94,0,0,0-.41-.26,5.08,5.08,0,0,0-1-.19l-1.48-.11L279,145Z" fill="#fff"/>
    <path d="M302.78,144.06l.16-.13c2.38.1,4.24.15,5.57.15s3.45,0,5.95-.13c.93,0,1.6,0,2,0q4.95,0,6.7,1.79a5.9,5.9,0,0,1,1.76,4.26,6.74,6.74,0,0,1-.86,3.23,7.66,7.66,0,0,1-2.54,2.7,12.66,12.66,0,0,1-4.63,1.69q.56.76,2,2.64l2.77,3.67q1.35,1.81,2.89,3.84a12.38,12.38,0,0,0,2,2.28,2.43,2.43,0,0,0,.77.32,6.31,6.31,0,0,0,1,.06l.16.16v.92l-.18.17a17.94,17.94,0,0,0-2.23-.12c-.92,0-1.93,0-3,.12-.9-1.09-2.32-3-4.24-5.68a110.17,110.17,0,0,0-6.88-8.69l.2-.61c.67,0,1.2.06,1.58.06A7.93,7.93,0,0,0,319,155.1a5.56,5.56,0,0,0,1.92-4.49,4.63,4.63,0,0,0-1.72-3.9,7.47,7.47,0,0,0-4.65-1.32,12.85,12.85,0,0,0-3.87.57c-.19.28-.29,2.73-.29,7.32v9.05l0,3.8a24.32,24.32,0,0,0,.12,2.86,1.85,1.85,0,0,0,.28.86,1.49,1.49,0,0,0,.71.36,16.39,16.39,0,0,0,2.6.22l.16.12v1l-.16.16-3.44-.12-2.17,0c-.4,0-2.26.06-5.58.16l-.16-.16v-1l.16-.12a22.12,22.12,0,0,0,2.42-.19,1.76,1.76,0,0,0,.81-.31,1.43,1.43,0,0,0,.33-.79,16.61,16.61,0,0,0,.15-2.69l0-4.12v-9.05l0-3.81a28.23,28.23,0,0,0-.11-2.87,1.87,1.87,0,0,0-.27-.86,1.41,1.41,0,0,0-.71-.35,17,17,0,0,0-2.6-.21l-.16-.14Z" fill="#fff"/>
    <path d="M329.54,171.68l-.18-.16v-1l.18-.16a8.75,8.75,0,0,0,1.84-.14,1.68,1.68,0,0,0,.73-.51,17.14,17.14,0,0,0,1.3-2.49l2-4.45,5.31-12q1.5-3.53,3-7.07H345l8.34,19.61,1.11,2.62c.33.74.7,1.55,1.12,2.42a8.26,8.26,0,0,0,.88,1.55,1.93,1.93,0,0,0,.61.36,6.7,6.7,0,0,0,1.61.14l.16.16v1l-.16.16c-1.38-.12-2.62-.17-3.73-.17l-6.48.17-.16-.16v-1l.16-.16a15,15,0,0,0,2.73-.18.66.66,0,0,0,.55-.68,3.21,3.21,0,0,0-.28-1.13l-2.4-6H337.78l-2.13,5a6,6,0,0,0-.56,2,.77.77,0,0,0,.52.72,8.81,8.81,0,0,0,2.66.25l.18.16v1l-.16.16c-1.68-.1-3.15-.16-4.41-.16C332.44,171.52,331,171.58,329.54,171.68Zm8.91-11h9.88L343.43,149Z" fill="#fff"/>
    <path d="M380.4,143.93l.18.17q-.18,1.76-.18,6.14l-.16.15h-.91l-.16-.17-.22-1.8a16.09,16.09,0,0,0-.24-1.77.87.87,0,0,0-.28-.47,3.66,3.66,0,0,0-1.27-.24c-.72-.07-1.52-.1-2.4-.1h-3.7q-.15,4.41-.15,5.1v11.39l0,3.8c0,1.48.05,2.43.1,2.87a1.62,1.62,0,0,0,.28.85,1.49,1.49,0,0,0,.71.36,16.47,16.47,0,0,0,2.62.22l.13.12v1l-.13.16c-3.34-.1-5.2-.16-5.59-.16s-2.27.06-5.56.16l-.16-.16v-1l.16-.12a22.14,22.14,0,0,0,2.43-.19,1.76,1.76,0,0,0,.8-.31,1.58,1.58,0,0,0,.34-.79,15.86,15.86,0,0,0,.14-2.69l0-4.12V150.94c0-.21-.06-1.91-.16-5.1h-2.91c-1.2,0-2.23,0-3.11.08s-1.37.18-1.51.4a7,7,0,0,0-.38,2.1l-.2,1.8-.17.17h-.9l-.16-.15q0-4.71-.17-6.14l.17-.17q3.4.15,11.31.15C374.45,144.08,378.22,144,380.4,143.93Z" fill="#fff"/>
    <path d="M382.49,143.93l2.44.08c1.6.05,2.65.07,3.15.07s2.31-.05,5.6-.15l.16.13v1l-.16.14c-.9,0-1.59.06-2.08.11a2.49,2.49,0,0,0-1.06.3,1.34,1.34,0,0,0-.44,1,17.57,17.57,0,0,0-.11,2.2l0,4.49v9.05l0,3.8a24.32,24.32,0,0,0,.12,2.86,1.85,1.85,0,0,0,.28.86,1.49,1.49,0,0,0,.71.36,16.39,16.39,0,0,0,2.6.22l.16.12v1l-.16.16-3.44-.12-2.16,0c-.41,0-2.27.06-5.59.16l-.16-.16v-1l.16-.12a22.12,22.12,0,0,0,2.42-.19,1.71,1.71,0,0,0,.81-.31,1.43,1.43,0,0,0,.33-.79,16.61,16.61,0,0,0,.15-2.69l0-4.12v-9.05l0-3.81a28.23,28.23,0,0,0-.11-2.87,1.87,1.87,0,0,0-.27-.86,1.41,1.41,0,0,0-.71-.35,16.9,16.9,0,0,0-2.6-.21l-.16-.14v-1Z" fill="#fff"/>
    <path d="M396.1,171.66l-.17-.17v-.9l.17-.16a12.94,12.94,0,0,0,1.91-.14,1.39,1.39,0,0,0,.92-.39,1.94,1.94,0,0,0,.27-.88c0-.4.09-1.31.14-2.73s.06-2.43.06-3V147.46A2.45,2.45,0,0,0,399,146a1.61,1.61,0,0,0-1-.61,13.53,13.53,0,0,0-2.13-.14l-.16-.16v-.92l.16-.17c1.79.06,3,.09,3.53.09q2,0,3.24-.09l6.23,8.08,9.16,11.49q1.67,2.08,3.38,4V152.4c0-.46,0-1.46-.06-3s-.11-2.5-.17-2.91a1.43,1.43,0,0,0-.34-.83,1.85,1.85,0,0,0-.92-.33,13.66,13.66,0,0,0-1.83-.12l-.15-.16v-.9l.15-.17c1.06.06,2.56.09,4.52.09,1.78,0,3.07,0,3.88-.09l.18.17v.9l-.16.16a13.38,13.38,0,0,0-2,.14,1.31,1.31,0,0,0-.88.42,2.11,2.11,0,0,0-.24.86c0,.38-.1,1.28-.14,2.7s-.07,2.44-.07,3.06v9.28l0,5.37c0,1.76.05,3.52.08,5.3a29.92,29.92,0,0,0-3.38-.83l-1.39-1.64-4.16-5.07-13.24-16.55v15c0,.6,0,1.67.07,3.21a22.72,22.72,0,0,0,.17,2.79,1,1,0,0,0,.92,1,9.78,9.78,0,0,0,2.14.17l.16.16v.92l-.16.15a27.68,27.68,0,0,0-3.28-.14C399.26,171.52,397.56,171.57,396.1,171.66Z" fill="#fff"/>
    <path d="M457.31,160.88v.59l-.07.23-1,.57a1.1,1.1,0,0,0-.41.33,6.46,6.46,0,0,0-.15,1.16q-.09,1.05-.09,2.55a35.59,35.59,0,0,0,.22,3.69l-.12.2a30.63,30.63,0,0,1-11,2.05,18.27,18.27,0,0,1-7.84-1.64,13,13,0,0,1-5.54-4.87,13.91,13.91,0,0,1-2.05-7.65,13.44,13.44,0,0,1,4.62-10.74q4.6-4,12.06-4a24.78,24.78,0,0,1,9.82,1.86l.14.21a44.76,44.76,0,0,0-.82,5.49l-.16.14h-.9l-.15-.16-.1-2.07a6,6,0,0,0-.13-1.19,1.34,1.34,0,0,0-.42-.46,9.49,9.49,0,0,0-1.81-.9,14.64,14.64,0,0,0-2.92-.9,16.37,16.37,0,0,0-3.14-.28,13.15,13.15,0,0,0-6.33,1.48,9.66,9.66,0,0,0-4.15,4.33,14.13,14.13,0,0,0-1.4,6.32,15.19,15.19,0,0,0,1.51,6.69,11.42,11.42,0,0,0,4.31,4.83,12.21,12.21,0,0,0,6.55,1.74,18.08,18.08,0,0,0,3.31-.32,10.07,10.07,0,0,0,2.78-.91,11.17,11.17,0,0,0,.18-2.52v-2.17a5.44,5.44,0,0,0-.2-1.92c-.13-.26-.45-.43-1-.54a23.49,23.49,0,0,0-3.33-.19l-.18-.18v-.86l.18-.18,1.19,0c2,.07,3.71.1,5,.1.74,0,1.83,0,3.26-.12Z" fill="#fff"/>
    <path d="M505.32,144l.18.15v1l-.16.14a13.88,13.88,0,0,0-2.66.21,1.27,1.27,0,0,0-.74.52,3.35,3.35,0,0,0-.24,1.41c0,.71-.06,2.69-.11,6v9q0,2,.06,4.41a12.4,12.4,0,0,0,.24,2.86,1.18,1.18,0,0,0,.68.59,12.66,12.66,0,0,0,2.77.24l.16.14v.95l-.18.16q-3.18-.18-5.55-.18c-1.06,0-2.88.06-5.44.18l-.18-.16v-.93l.16-.16a14.83,14.83,0,0,0,2.66-.21,1.21,1.21,0,0,0,.73-.52,3.36,3.36,0,0,0,.26-1.44c0-.71.06-2.69.1-5.93V148l-6.74,14.1c-1.7,3.53-3.17,6.85-4.44,10h-.76c-.73-1.68-1.33-3-1.79-4L475,148.65v13.66c0,1.27,0,2.74.05,4.4a11.28,11.28,0,0,0,.24,2.88,1.24,1.24,0,0,0,.69.59,11.11,11.11,0,0,0,2.77.23l.16.16v.94l-.18.17-1.25-.06c-1.29-.06-2.4-.1-3.32-.1-.42,0-2,.06-4.67.16l-.15-.16v-.93l.15-.18a13.7,13.7,0,0,0,2.66-.19,1.24,1.24,0,0,0,.73-.53,3.15,3.15,0,0,0,.25-1.39q0-1,.09-6v-8.95c0-1.18,0-2.63,0-4.33a12.58,12.58,0,0,0-.23-2.94,1.21,1.21,0,0,0-.67-.6,11.22,11.22,0,0,0-2.78-.23l-.15-.16v-.94l.17-.17q1.35.09,3.63.09t3.75-.09c1.1,2.52,2.15,4.81,3.15,6.85l7.4,15.2,6.68-13.93q2.72-5.64,3.65-8.12,1.88.09,3.69.09Q503.1,144.08,505.32,144Z" fill="#fff"/>
    <path d="M507,144.06l.16-.13q4.84.15,5.58.15c.45,0,2.31-.05,5.61-.15l.16.13v1l-.16.14c-.9,0-1.59.06-2.08.11a2.59,2.59,0,0,0-1.07.3,1.42,1.42,0,0,0-.44,1,17.93,17.93,0,0,0-.1,2.2l0,4.49v6.21c0,2,0,3.55.13,4.51a7.94,7.94,0,0,0,.54,2.42,4.58,4.58,0,0,0,1.28,1.7,6.72,6.72,0,0,0,2.46,1.16,13.48,13.48,0,0,0,3.64.45,13,13,0,0,0,4-.6,6.09,6.09,0,0,0,2.84-1.73,5.87,5.87,0,0,0,1.28-3,33.91,33.91,0,0,0,.3-5.13v-6c0-1,0-2.41-.05-4.19a13.44,13.44,0,0,0-.23-3.06,1.21,1.21,0,0,0-.68-.61,10.6,10.6,0,0,0-2.77-.24l-.15-.16v-.92l.15-.17c1.93.1,3.47.15,4.63.15,1,0,2.53-.05,4.61-.15l.18.15V145l-.18.16a17.85,17.85,0,0,0-2.39.14,1.58,1.58,0,0,0-.78.33,1.37,1.37,0,0,0-.34.66,18,18,0,0,0-.14,2.58l-.06,4.39v5.94a45.38,45.38,0,0,1-.27,5.61,7.41,7.41,0,0,1-1.22,3.36,9.08,9.08,0,0,1-2.25,2.21,10,10,0,0,1-3.33,1.37,18.32,18.32,0,0,1-4.22.48,17.23,17.23,0,0,1-4.83-.61,9.12,9.12,0,0,1-3.31-1.6,6.17,6.17,0,0,1-1.74-2.1,8,8,0,0,1-.69-2.6q-.15-1.49-.15-4.56v-7.5l0-3.81a28.23,28.23,0,0,0-.11-2.87,1.87,1.87,0,0,0-.27-.86,1.46,1.46,0,0,0-.71-.35,17,17,0,0,0-2.6-.21L507,145Z" fill="#fff"/>
    <path d="M539.07,164.81l.16-.16h.95l.16.16a18.87,18.87,0,0,0,.26,3.05,2.58,2.58,0,0,0,1.06,1.17,7.54,7.54,0,0,0,2.36,1,11.67,11.67,0,0,0,3,.39,8.74,8.74,0,0,0,3.72-.76,5.79,5.79,0,0,0,2.57-2.24,6.13,6.13,0,0,0,.92-3.31,5.33,5.33,0,0,0-.44-2.24,3.83,3.83,0,0,0-1.23-1.54,5.71,5.71,0,0,0-1.81-.86c-.68-.18-1.68-.39-3-.61s-2.32-.4-3.05-.57a10.53,10.53,0,0,1-2.2-.78,5.86,5.86,0,0,1-1.83-1.34,6.34,6.34,0,0,1-1.17-2,7.27,7.27,0,0,1-.44-2.53,7.76,7.76,0,0,1,2.54-6,9.67,9.67,0,0,1,6.82-2.34,18.17,18.17,0,0,1,3.7.42,14.85,14.85,0,0,1,3.64,1.24l.14.24a26.64,26.64,0,0,0-.53,5.11l-.17.16h-1l-.16-.14c0-1.56-.06-2.54-.11-3s-.65-.9-1.78-1.5a7.75,7.75,0,0,0-3.69-.9,7.27,7.27,0,0,0-3.11.67,4.56,4.56,0,0,0-2.19,2.08,6.36,6.36,0,0,0-.74,2.92,4.5,4.5,0,0,0,.45,2,3.84,3.84,0,0,0,1.16,1.4,5,5,0,0,0,1.66.77c.64.17,1.79.38,3.47.63a20.43,20.43,0,0,1,5,1.18,5.53,5.53,0,0,1,2.52,2.2,6.68,6.68,0,0,1,1,3.63,8.59,8.59,0,0,1-3.39,6.93,12.55,12.55,0,0,1-8.21,2.78,16.26,16.26,0,0,1-7.09-1.45l-.12-.25A56.32,56.32,0,0,0,539.07,164.81Z" fill="#fff"/>
    <path d="M559.68,143.93l2.44.08c1.6.05,2.65.07,3.14.07s2.31-.05,5.61-.15l.15.13v1l-.15.14c-.9,0-1.59.06-2.08.11a2.59,2.59,0,0,0-1.07.3,1.42,1.42,0,0,0-.44,1,17.93,17.93,0,0,0-.1,2.2l0,4.49v9.05l0,3.8a28,28,0,0,0,.11,2.86,1.83,1.83,0,0,0,.29.86,1.49,1.49,0,0,0,.71.36,16.39,16.39,0,0,0,2.6.22l.15.12v1l-.15.16-3.44-.12-2.17,0c-.4,0-2.26.06-5.58.16l-.16-.16v-1l.16-.12a22.12,22.12,0,0,0,2.42-.19,1.76,1.76,0,0,0,.81-.31,1.43,1.43,0,0,0,.33-.79,17.93,17.93,0,0,0,.15-2.69l0-4.12v-9.05l0-3.81a28.23,28.23,0,0,0-.11-2.87,1.87,1.87,0,0,0-.27-.86,1.45,1.45,0,0,0-.72-.35,16.71,16.71,0,0,0-2.59-.21l-.16-.14v-1Z" fill="#fff"/>
    <path d="M599.25,168.22l-.74,1.82a20.19,20.19,0,0,1-9.26,2.21q-7.05,0-11.46-4a13.5,13.5,0,0,1-4.4-10.47,13.78,13.78,0,0,1,2.2-7.78,13.54,13.54,0,0,1,5.8-5,19.21,19.21,0,0,1,8.09-1.65,24,24,0,0,1,5.14.55,21.39,21.39,0,0,1,4.24,1.31l.13.19a24.85,24.85,0,0,0-.84,5.41L598,151h-.92l-.16-.16-.19-3.32a10.8,10.8,0,0,0-3.45-1.77,14.07,14.07,0,0,0-4.21-.63,12.19,12.19,0,0,0-5.92,1.42,9.85,9.85,0,0,0-4.06,4.1,13.75,13.75,0,0,0-1.44,6.57,13.49,13.49,0,0,0,1.69,6.85,11.71,11.71,0,0,0,4.64,4.54,14.34,14.34,0,0,0,6.87,1.58,16.52,16.52,0,0,0,3.34-.33,13.39,13.39,0,0,0,2.66-.82,12.9,12.9,0,0,0,2-1.2Z" fill="#fff"/>
  </g>
  <g>
    <g>
      <path d="M1273.13,128.74c-.09,8.21-3.72,14.92-9.05,20.82-8.09,9-18.21,15.05-29.09,20a6.32,6.32,0,0,1-.86.32c-.5.15-1.15.51-1.48,0-.45-.65.28-1.1.69-1.47,3.63-3.36,7.81-6,11.65-9.14,8.85-7.19,15.15-15.94,16.81-27.49a26,26,0,0,0-1.24-13.47c-1.66-4.2-4.59-7.17-9.26-7.34s-9.44.74-12.5,5.12c-.63.9-1.14,1.9-.55,3s1.74,1,2.84.86c2.2-.29,4.43-.56,6.35.91a6.43,6.43,0,0,1,2.75,5.94,6.71,6.71,0,0,1-4.31,5.72,8.89,8.89,0,0,1-12.05-5.66,11.09,11.09,0,0,1,1.41-9.82c5-7.27,12.25-9.49,20.58-8.06,8,1.37,14.16,5.4,16.56,13.7A19.83,19.83,0,0,1,1273.13,128.74Z" fill="#fff"/>
      <path d="M1283,135.83a4.24,4.24,0,1,1-4.15-4.28A4.29,4.29,0,0,1,1283,135.83Z" fill="#fff"/>
      <path d="M1279,114.59a4.18,4.18,0,0,1,3.94,4.41,4.34,4.34,0,0,1-4.48,3.94,4.42,4.42,0,0,1-4-4.48A4.27,4.27,0,0,1,1279,114.59Z" fill="#fff"/>
    </g>
    <path d="M1332.48,156.54c0,7.21,0,14.41,0,21.62a7,7,0,0,1-3,5.64c-5,3.83-14,3.85-19,.09-4.07-3-3.77-8.14.71-10.77a17.09,17.09,0,0,1,14.42-1.46c1.42.46,1.81.27,1.81-1.25q-.08-16.32,0-32.63a2.29,2.29,0,0,0-2.06-2.57c-7.92-2-15.82-4.08-23.73-6.15-1.59-.41-2.43-.34-2.41,1.81.12,11.64.06,23.28.06,34.92,0,4.74-1.29,6.93-5.68,8.6-5.31,2-10.6,1.86-15.6-1.12-4.66-2.77-4.63-8.23,0-11.07a17,17,0,0,1,14-1.64c2,.58,2.19-.15,2.18-1.79,0-10,0-20,0-29.93,0-.62,0-1.25,0-1.87.09-3.75,1.16-4.6,4.77-3.67q14.88,3.86,29.74,7.78c3.45.91,3.73,1.31,3.73,4.89v20.57Z" fill="#fff"/>
  </g>
</svg>
