<svg id="Layer_1" data-name="Layer 1" xmlns="http://www.w3.org/2000/svg" xmlns:xlink="http://www.w3.org/1999/xlink" viewBox="0 0 1344.29 194.65">
  <defs>
    <clipPath id="clip-path">
      <rect y="43.79" width="172.4" height="132.49" fill="none"/>
    </clipPath>
  </defs>
  <title>banner-7</title>
  <g clip-path="url(#clip-path)">
    <g>
      <polygon points="78.84 72.16 78.84 122.68 35.56 170.99 30.74 113.68 78.84 72.16" fill="#62472f"/>
      <polygon points="35.56 170.99 97.11 198.47 134.79 143.06 78.84 122.68 35.56 170.99" fill="#412f1f"/>
      <polygon points="78.84 122.68 134.79 143.06 139.79 91.43 78.84 72.16 78.84 122.68" fill="#825e3e"/>
      <polygon points="5.88 117.19 53.54 77.42 78.84 72.16 30.74 113.68 5.88 117.19" fill="#ae906c"/>
      <polygon points="78.84 72.16 94.47 69.11 149.34 86.19 139.79 91.43 78.84 72.16" fill="#d7c3a8"/>
      <polygon points="30.74 113.68 35.56 170.99 97.11 198.47 126.94 154.61 102.27 140.92 30.74 113.68" fill="#583316"/>
      <polygon points="139.79 91.43 102.27 140.92 138.31 168.62 170.18 114.83 139.79 91.43" fill="#d7c3a8"/>
      <polygon points="30.74 113.68 12.84 149.93 85.06 179.38 102.27 140.92 30.74 113.68" fill="#ae906c"/>
    </g>
  </g>
  <polygon points="204.41 104.46 162.93 172.48 0 172.48 0 194.65 279.31 194.65 1344.29 194.65 1344.29 104.46 204.41 104.46" fill="#212026"/>
  <g>
    <path d="M216.61,144.06l.16-.13q6.69.1,8.57.11,6.41,0,11.41-.11l.09.13a34.27,34.27,0,0,0-.72,5.88l-.11.16h-1l-.18-.16c0-.11,0-.22,0-.31a18.82,18.82,0,0,0-.25-3.16,10.45,10.45,0,0,0-3.41-.72c-1.45-.11-2.54-.16-3.27-.16-1,0-2.35.07-4,.21l-.08,3.13-.05,3.57-.06,4c1.4.07,2.7.11,3.88.11s2.2,0,3-.11a4.88,4.88,0,0,0,1.42-.25.83.83,0,0,0,.31-.49,8.11,8.11,0,0,0,.19-1.28l.07-1.21.16-.15h.9l.16.15c0,1.42-.06,2.85-.1,4.28l.1,4.39-.16.16h-.9l-.16-.16-.13-1.17a14.51,14.51,0,0,0-.26-1.63.86.86,0,0,0-.36-.46,3.94,3.94,0,0,0-1.45-.31c-.78-.08-1.86-.12-3.23-.12-.75,0-1.9,0-3.45.1-.07,1.09-.1,2.92-.1,5.47,0,2.73,0,4.75.1,6h3.59c3.17,0,5.14,0,5.94-.12a7.82,7.82,0,0,0,2.26-.57,21.19,21.19,0,0,0,.58-2.08c.27-1.09.42-1.77.46-2l.19-.14h.94l.16.14a26.28,26.28,0,0,0-.34,2.93c-.11,1.39-.17,2.58-.17,3.57l-.14.16c-2.48-.08-5.74-.12-9.76-.12l-5.31,0c-1.24,0-2.53.06-3.87.16l-.16-.16v-.64l.16-.2a10.1,10.1,0,0,0,1.32-.73,15.38,15.38,0,0,0,.27-3.42c.07-2.18.11-3.84.11-5v-7.16l0-4.44c0-1,0-1.75,0-2.35a7.11,7.11,0,0,0-.14-1.3,1.55,1.55,0,0,0-.22-.55,1,1,0,0,0-.41-.26,5.08,5.08,0,0,0-1-.19l-1.48-.11-.16-.14Z" fill="#fff"/>
    <path d="M253.06,171.88c-.2-.58-1-2.76-2.45-6.57L244,148.89a24.4,24.4,0,0,0-1.42-3.2c-.2-.25-1-.42-2.35-.51L240,145v-.9l.17-.17c2,.1,3.69.15,5.08.15s3-.05,5.18-.15l.15.15v1.08l-.15.15a14.07,14.07,0,0,0-2.82.15.56.56,0,0,0-.46.56,14.07,14.07,0,0,0,.62,2.08c.42,1.23.79,2.27,1.12,3.11L255,166.66l5.1-12.81c.35-.87.86-2.28,1.54-4.22a17.48,17.48,0,0,0,1-3.5.59.59,0,0,0-.47-.62,23.58,23.58,0,0,0-2.87-.33l-.17-.16v-.94l.17-.15c2.28.1,3.74.15,4.36.15s1.82-.05,3.95-.15l.15.15V145l-.15.16a5.82,5.82,0,0,0-1.7.21,1.34,1.34,0,0,0-.52.61c-.15.3-.62,1.33-1.4,3.08l-6.09,15q-2.06,5-2.91,7.8Z" fill="#fff"/>
    <path d="M269.93,144.06l.16-.13q6.69.1,8.57.11,6.4,0,11.41-.11l.1.13a33.07,33.07,0,0,0-.73,5.88l-.11.16h-1l-.18-.16a1.72,1.72,0,0,0,0-.31,18.82,18.82,0,0,0-.25-3.16,10.45,10.45,0,0,0-3.41-.72c-1.45-.11-2.54-.16-3.27-.16-1,0-2.35.07-3.95.21l-.07,3.13-.06,3.57-.06,4c1.4.07,2.7.11,3.88.11s2.2,0,3-.11a4.88,4.88,0,0,0,1.42-.25.79.79,0,0,0,.31-.49,8.11,8.11,0,0,0,.19-1.28l.07-1.21.16-.15h.9l.16.15c0,1.42-.06,2.85-.1,4.28l.1,4.39-.16.16h-.9l-.16-.16-.13-1.17a14.51,14.51,0,0,0-.26-1.63.86.86,0,0,0-.36-.46,3.94,3.94,0,0,0-1.45-.31c-.78-.08-1.86-.12-3.23-.12-.75,0-1.9,0-3.45.1-.07,1.09-.1,2.92-.1,5.47,0,2.73,0,4.75.1,6h3.59c3.17,0,5.14,0,5.94-.12a7.82,7.82,0,0,0,2.26-.57,21.19,21.19,0,0,0,.58-2.08c.27-1.09.42-1.77.46-2l.2-.14h.93l.16.14a26.28,26.28,0,0,0-.34,2.93c-.11,1.39-.17,2.58-.17,3.57l-.14.16c-2.48-.08-5.74-.12-9.76-.12l-5.31,0c-1.24,0-2.53.06-3.87.16l-.16-.16v-.64l.16-.2A10.1,10.1,0,0,0,273,170a15.38,15.38,0,0,0,.27-3.42c.07-2.18.11-3.84.11-5v-7.16l0-4.44c0-1,0-1.75,0-2.35a7.11,7.11,0,0,0-.14-1.3,1.55,1.55,0,0,0-.22-.55,1,1,0,0,0-.41-.26,5.08,5.08,0,0,0-1-.19l-1.48-.11-.16-.14Z" fill="#fff"/>
    <path d="M293.76,144.06l.16-.13c2.38.1,4.23.15,5.56.15s3.46,0,6-.13c.92,0,1.59,0,2,0,3.29,0,5.53.6,6.7,1.79a5.9,5.9,0,0,1,1.76,4.26,6.67,6.67,0,0,1-.86,3.22,7.7,7.7,0,0,1-2.54,2.71,12.66,12.66,0,0,1-4.63,1.69c.36.51,1,1.39,2,2.64l2.78,3.67c.89,1.21,1.86,2.49,2.89,3.84a12.78,12.78,0,0,0,2,2.28,2.43,2.43,0,0,0,.77.32,6.31,6.31,0,0,0,1,.06l.15.16v.92l-.17.17a17.94,17.94,0,0,0-2.23-.12c-.93,0-1.93,0-3,.12-.9-1.09-2.31-3-4.24-5.68q-3.36-4.69-6.87-8.69l.19-.61q1,.06,1.59.06A8,8,0,0,0,310,155.1a5.56,5.56,0,0,0,1.91-4.49,4.6,4.6,0,0,0-1.72-3.9,7.42,7.42,0,0,0-4.64-1.32,12.85,12.85,0,0,0-3.87.57c-.2.28-.29,2.73-.29,7.32v9.05l0,3.8a28,28,0,0,0,.11,2.86,1.78,1.78,0,0,0,.29.85,1.41,1.41,0,0,0,.71.37,16.39,16.39,0,0,0,2.6.22l.15.12v1l-.15.16-3.44-.12-2.17,0c-.4,0-2.26.06-5.58.16l-.16-.16v-1l.16-.12a22.37,22.37,0,0,0,2.42-.19,1.76,1.76,0,0,0,.81-.31,1.64,1.64,0,0,0,.33-.79,19.48,19.48,0,0,0,.15-2.69l0-4.12v-9.05l0-3.81c0-1.48-.05-2.44-.11-2.87a1.87,1.87,0,0,0-.27-.86,1.5,1.5,0,0,0-.72-.35,16.71,16.71,0,0,0-2.59-.21l-.16-.14Z" fill="#fff"/>
    <path d="M319.17,145.76l-.18-.17v-.82l.18-.18,5.53-.92a6.8,6.8,0,0,1,1.14,1,18.68,18.68,0,0,1,1.62,2.33q1.07,1.71,2.74,4.77t3.23,6.12l2-3.16,2.25-3.75,4.14-7.09c.5,0,1,.07,1.48.07.3,0,.76,0,1.37-.07l.15.15v.37q-1,1.08-3,3.9t-3.06,4.41c-.67,1.07-1.49,2.4-2.47,4a20,20,0,0,0-1.6,2.9,4.31,4.31,0,0,0-.14,1.15v2.87l0,2.93a18.34,18.34,0,0,0,.13,2.37,1.86,1.86,0,0,0,.29.88,1.5,1.5,0,0,0,.7.35,16.71,16.71,0,0,0,2.59.21l.16.12v1l-.16.16-3.44-.12-2.16,0c-.42,0-2.28.06-5.59.16l-.16-.16v-1l.16-.12a21.69,21.69,0,0,0,2.44-.19,1.66,1.66,0,0,0,.79-.31,1.27,1.27,0,0,0,.32-.72,12.93,12.93,0,0,0,.14-2.2l0-3.34V160a52.83,52.83,0,0,0-2.87-5.06l-1.72-2.79c-.55-.89-1.23-1.92-2.06-3.1a17.62,17.62,0,0,0-1.92-2.4,3.22,3.22,0,0,0-1.06-.74A10.37,10.37,0,0,0,319.17,145.76Z" fill="#fff"/>
    <path d="M346.14,144.06l.16-.13c2.25.1,3.79.15,4.61.15l9.14-.19a23.18,23.18,0,0,1,6.4.73,11,11,0,0,1,4.45,2.54,12,12,0,0,1,3,4.2,13,13,0,0,1,1,5.11,15.75,15.75,0,0,1-3.52,9.83,14.26,14.26,0,0,1-3.85,3.29,14,14,0,0,1-4.33,1.67,23.18,23.18,0,0,1-4.43.42c-1,0-2.93,0-5.74-.12l-1.84,0c-.9,0-2,.06-3.26.16l-.16-.16v-.64l.16-.2a10.1,10.1,0,0,0,1.32-.73,15.38,15.38,0,0,0,.27-3.42c.07-2.18.11-3.84.11-5v-7.16l0-4.44c0-1,0-1.75,0-2.35a7.11,7.11,0,0,0-.14-1.3,1.55,1.55,0,0,0-.22-.55,1,1,0,0,0-.41-.26,5.08,5.08,0,0,0-1-.19l-1.48-.11-.16-.14Zm7.23,25.49a24.11,24.11,0,0,0,4.59.39,14.94,14.94,0,0,0,7.27-1.52,9.5,9.5,0,0,0,4.08-4.51,16.38,16.38,0,0,0,1.34-6.74c0-3.69-1-6.54-2.95-8.58s-5.06-3-9.29-3a31.59,31.59,0,0,0-5,.39q-.17,3.19-.16,7.22v6.14l0,5.74C353.25,166.16,353.29,167.66,353.37,169.55Z" fill="#fff"/>
    <path d="M377.37,171.68l-.17-.16v-1l.17-.16a8.75,8.75,0,0,0,1.84-.14,1.63,1.63,0,0,0,.73-.51,16.12,16.12,0,0,0,1.3-2.49l2.05-4.46,5.31-12c1-2.35,2-4.71,3-7.07h1.27l8.34,19.61,1.11,2.62c.33.74.7,1.55,1.13,2.42a6.76,6.76,0,0,0,.88,1.54,1.65,1.65,0,0,0,.6.37,6.7,6.7,0,0,0,1.61.14l.16.16v1l-.16.16c-1.38-.12-2.62-.18-3.73-.18l-6.48.18-.16-.16v-1l.16-.16a16,16,0,0,0,2.73-.18.66.66,0,0,0,.55-.68,3.39,3.39,0,0,0-.27-1.13l-2.41-6H385.61l-2.12,5a5.88,5.88,0,0,0-.57,2,.76.76,0,0,0,.53.72,9,9,0,0,0,2.65.25l.18.16v1l-.16.16c-1.68-.1-3.15-.16-4.41-.16C380.28,171.52,378.83,171.58,377.37,171.68Zm8.91-11h9.88L391.26,149Z" fill="#fff"/>
    <path d="M403.52,145.76l-.17-.17v-.82l.17-.18,5.53-.92a6.8,6.8,0,0,1,1.14,1,17.45,17.45,0,0,1,1.63,2.33q1.06,1.71,2.74,4.77t3.22,6.12l2-3.16L422,151l4.14-7.09c.51,0,1,.07,1.49.07.3,0,.75,0,1.36-.07l.16.15v.37q-1,1.08-3,3.9c-1.37,1.88-2.38,3.35-3.05,4.41s-1.5,2.4-2.48,4a21.12,21.12,0,0,0-1.6,2.9,4.34,4.34,0,0,0-.13,1.15v2.87l0,2.93A18.89,18.89,0,0,0,419,169a1.74,1.74,0,0,0,.3.88,1.45,1.45,0,0,0,.7.35,16.58,16.58,0,0,0,2.59.21l.15.12v1l-.15.16-3.44-.12-2.17,0c-.42,0-2.28.06-5.58.16l-.16-.16v-1l.16-.12a21.93,21.93,0,0,0,2.44-.19,1.71,1.71,0,0,0,.79-.31,1.42,1.42,0,0,0,.32-.72,14.12,14.12,0,0,0,.14-2.2l0-3.34V160a53.92,53.92,0,0,0-2.88-5.06l-1.71-2.79c-.55-.89-1.24-1.92-2.06-3.1a16.75,16.75,0,0,0-1.93-2.4,3.21,3.21,0,0,0-1.05-.74A10.43,10.43,0,0,0,403.52,145.76Z" fill="#fff"/>
    <path d="M441.06,143.93q4.92.15,6.27.15c1.23,0,2.6,0,4.12-.09s2.61-.08,3-.08a15.45,15.45,0,0,1,4.52.56,6,6,0,0,1,3,2.07,5.77,5.77,0,0,1,1.17,3.64,7.5,7.5,0,0,1-.82,3.4,8.07,8.07,0,0,1-2.28,2.79,9.46,9.46,0,0,1-6.09,2.15,14.4,14.4,0,0,1-2.7-.28l-.33-1.19.17-.19a11.37,11.37,0,0,0,2.39.33,5.35,5.35,0,0,0,4.11-1.69,6.18,6.18,0,0,0,1.55-4.33,5.7,5.7,0,0,0-1.61-4.24,6.71,6.71,0,0,0-4.87-1.58,13,13,0,0,0-3.91.67q-.18,1.5-.18,7.26v9.05l0,3.8c0,1.48.06,2.43.12,2.86a1.92,1.92,0,0,0,.28.85,1.5,1.5,0,0,0,.72.37,16.25,16.25,0,0,0,2.6.22l.15.12v1l-.15.16c-3.33-.1-5.19-.16-5.61-.16s-2.31.06-5.59.16l-.15-.16v-1l.15-.12a22.64,22.64,0,0,0,2.43-.19,1.76,1.76,0,0,0,.81-.31,1.64,1.64,0,0,0,.33-.79,18.46,18.46,0,0,0,.14-2.69l0-4.12v-9.05l0-3.81c0-1.48-.05-2.44-.11-2.87a1.74,1.74,0,0,0-.28-.86,1.41,1.41,0,0,0-.71-.35,16.9,16.9,0,0,0-2.6-.21l-.15-.14v-1Z" fill="#fff"/>
    <path d="M464.89,144.06l.16-.13c2.38.1,4.24.15,5.56.15,1.48,0,3.46,0,6-.13.93,0,1.6,0,2,0q4.95,0,6.7,1.79A5.9,5.9,0,0,1,487,150a6.67,6.67,0,0,1-.86,3.22,7.61,7.61,0,0,1-2.54,2.71,12.66,12.66,0,0,1-4.63,1.69c.37.51,1,1.39,2,2.64l2.77,3.67q1.35,1.81,2.89,3.84a12.78,12.78,0,0,0,2,2.28,2.43,2.43,0,0,0,.77.32,6.31,6.31,0,0,0,1,.06l.15.16v.92l-.17.17a17.94,17.94,0,0,0-2.23-.12c-.92,0-1.93,0-3,.12-.9-1.09-2.32-3-4.24-5.68a110.17,110.17,0,0,0-6.88-8.69l.2-.61c.67,0,1.2.06,1.58.06a7.93,7.93,0,0,0,5.29-1.62,5.56,5.56,0,0,0,1.92-4.49,4.63,4.63,0,0,0-1.72-3.9,7.47,7.47,0,0,0-4.65-1.32,12.85,12.85,0,0,0-3.87.57c-.19.28-.29,2.73-.29,7.32v9.05l0,3.8a24.32,24.32,0,0,0,.12,2.86,1.69,1.69,0,0,0,.28.85,1.41,1.41,0,0,0,.71.37,16.39,16.39,0,0,0,2.6.22l.16.12v1l-.16.16-3.44-.12-2.17,0c-.4,0-2.26.06-5.58.16l-.16-.16v-1l.16-.12a22.12,22.12,0,0,0,2.42-.19,1.76,1.76,0,0,0,.81-.31,1.47,1.47,0,0,0,.33-.79,16.61,16.61,0,0,0,.15-2.69l0-4.12v-9.05l0-3.81a28.23,28.23,0,0,0-.11-2.87,1.87,1.87,0,0,0-.27-.86,1.46,1.46,0,0,0-.71-.35,17,17,0,0,0-2.6-.21l-.16-.14Z" fill="#fff"/>
    <path d="M491.73,158.07a17.27,17.27,0,0,1,.84-5.47,12.68,12.68,0,0,1,2.86-4.7,13.88,13.88,0,0,1,4.87-3.34,16.67,16.67,0,0,1,6.45-1.18q6.66,0,10.6,3.62t3.95,9.9a16.2,16.2,0,0,1-1.94,7.93,13.47,13.47,0,0,1-5.53,5.46,16.62,16.62,0,0,1-8.1,2,15.74,15.74,0,0,1-5.86-1.07,12.07,12.07,0,0,1-4.56-3.17,12.85,12.85,0,0,1-2.73-4.88A17.32,17.32,0,0,1,491.73,158.07Zm4.06-1.29a19.19,19.19,0,0,0,.77,5.13,13.51,13.51,0,0,0,2.31,4.7,9.92,9.92,0,0,0,3.53,2.92,11.22,11.22,0,0,0,10-.43,8.69,8.69,0,0,0,3.6-4.3,16.78,16.78,0,0,0,1.23-6.56,17.45,17.45,0,0,0-1.41-7.13,9.41,9.41,0,0,0-4-4.62A11.62,11.62,0,0,0,506,145a9.69,9.69,0,0,0-7.49,3Q495.79,151,495.79,156.78Z" fill="#fff"/>
    <path d="M522.82,144.06l.16-.13c2.25.1,3.79.15,4.61.15l9.14-.19a23.18,23.18,0,0,1,6.4.73,11,11,0,0,1,4.45,2.54,12,12,0,0,1,2.95,4.2,13,13,0,0,1,1,5.11A15.75,15.75,0,0,1,548,166.3a14.26,14.26,0,0,1-3.85,3.29,14,14,0,0,1-4.33,1.67,23.18,23.18,0,0,1-4.43.42c-1,0-2.93,0-5.74-.12l-1.84,0c-.9,0-2,.06-3.26.16l-.16-.16v-.64l.16-.2a10.1,10.1,0,0,0,1.32-.73,15.38,15.38,0,0,0,.27-3.42c.07-2.18.11-3.84.11-5v-7.16l0-4.44c0-1,0-1.75,0-2.35a7.11,7.11,0,0,0-.14-1.3,1.55,1.55,0,0,0-.22-.55,1,1,0,0,0-.41-.26,5.08,5.08,0,0,0-1-.19l-1.48-.11-.16-.14Zm7.23,25.49a24.11,24.11,0,0,0,4.59.39,14.94,14.94,0,0,0,7.27-1.52,9.5,9.5,0,0,0,4.08-4.51,16.38,16.38,0,0,0,1.34-6.74c0-3.69-1-6.54-3-8.58s-5.06-3-9.29-3a31.59,31.59,0,0,0-5,.39q-.16,3.19-.16,7.22v6.14l0,5.74C529.93,166.16,530,167.66,530.05,169.55Z" fill="#fff"/>
    <path d="M553.78,144.06l.15-.13c3.23.1,5.1.15,5.59.15s2.31-.05,5.61-.15l.15.13v1l-.15.14c-.9,0-1.6.06-2.08.11a2.55,2.55,0,0,0-1.07.3,1.38,1.38,0,0,0-.44,1,17.57,17.57,0,0,0-.11,2.2l0,4.49v6.21q0,3.07.12,4.5a8.23,8.23,0,0,0,.55,2.43,4.58,4.58,0,0,0,1.28,1.7,6.72,6.72,0,0,0,2.46,1.16,13.46,13.46,0,0,0,3.63.45,13.12,13.12,0,0,0,4-.6,6.09,6.09,0,0,0,2.84-1.73,5.87,5.87,0,0,0,1.28-3,33.67,33.67,0,0,0,.3-5.12v-6c0-1,0-2.41,0-4.19a13.44,13.44,0,0,0-.23-3.06,1.24,1.24,0,0,0-.69-.61,10.44,10.44,0,0,0-2.76-.24L574,145v-.92l.16-.17c1.93.1,3.47.15,4.63.15,1,0,2.52-.05,4.61-.15l.17.15V145l-.17.16a17.72,17.72,0,0,0-2.39.14,1.5,1.5,0,0,0-.79.33,1.28,1.28,0,0,0-.33.66,18,18,0,0,0-.14,2.58l-.06,4.39v5.94a43.17,43.17,0,0,1-.28,5.61,7.3,7.3,0,0,1-1.22,3.36,9,9,0,0,1-2.24,2.21,10,10,0,0,1-3.33,1.37,18.32,18.32,0,0,1-4.22.48,17.63,17.63,0,0,1-4.84-.61,9.21,9.21,0,0,1-3.31-1.6,6.25,6.25,0,0,1-1.73-2.1,7.86,7.86,0,0,1-.69-2.6q-.15-1.49-.15-4.56v-7.5l0-3.81c0-1.48,0-2.44-.11-2.87a1.87,1.87,0,0,0-.27-.86,1.5,1.5,0,0,0-.72-.35,16.9,16.9,0,0,0-2.6-.21l-.15-.14Z" fill="#fff"/>
    <path d="M611.55,168.22l-.74,1.82a20.16,20.16,0,0,1-9.26,2.21q-7,0-11.45-4a13.48,13.48,0,0,1-4.41-10.47,13.86,13.86,0,0,1,2.2-7.78,13.6,13.6,0,0,1,5.8-5,19.22,19.22,0,0,1,8.1-1.65,23.91,23.91,0,0,1,5.13.55,21,21,0,0,1,4.24,1.31l.14.19a24.85,24.85,0,0,0-.84,5.41l-.14.16h-.92l-.15-.16-.2-3.32a10.8,10.8,0,0,0-3.45-1.77,14,14,0,0,0-4.2-.63,12.27,12.27,0,0,0-5.92,1.41,9.87,9.87,0,0,0-4.06,4.11,13.63,13.63,0,0,0-1.45,6.57,13.49,13.49,0,0,0,1.7,6.85,11.64,11.64,0,0,0,4.64,4.54,14.32,14.32,0,0,0,6.86,1.58,16.45,16.45,0,0,0,3.34-.33,12.82,12.82,0,0,0,2.67-.83,11.66,11.66,0,0,0,2-1.19Z" fill="#fff"/>
    <path d="M636.24,143.93l.18.17q-.18,1.76-.18,6.14l-.16.15h-.91l-.16-.17-.22-1.8a15.69,15.69,0,0,0-.24-1.77.87.87,0,0,0-.28-.47,3.42,3.42,0,0,0-1.27-.24c-.72-.07-1.52-.1-2.41-.1H626.9q-.15,4.41-.15,5.1v11.39l0,3.8c0,1.48.05,2.43.1,2.86a1.63,1.63,0,0,0,.28.86,1.49,1.49,0,0,0,.71.36,16.47,16.47,0,0,0,2.62.22l.13.12v1l-.13.16c-3.34-.1-5.2-.16-5.59-.16s-2.27.06-5.57.16l-.15-.16v-1l.15-.12a22.16,22.16,0,0,0,2.44-.19,1.76,1.76,0,0,0,.8-.31,1.63,1.63,0,0,0,.34-.79,15.86,15.86,0,0,0,.14-2.69l0-4.12V150.94q0-.31-.15-5.1H620c-1.2,0-2.23,0-3.11.08s-1.37.18-1.51.4a7,7,0,0,0-.38,2.1l-.2,1.8-.17.17h-.9l-.16-.15q0-4.71-.17-6.14l.17-.17q3.4.15,11.31.15C630.29,144.08,634.06,144,636.24,143.93Z" fill="#fff"/>
    <path d="M638.72,164.81l.16-.16h1l.16.16a17.7,17.7,0,0,0,.26,3.05,2.52,2.52,0,0,0,1.06,1.17,7.54,7.54,0,0,0,2.36,1,11.61,11.61,0,0,0,3,.39,8.74,8.74,0,0,0,3.72-.76,5.79,5.79,0,0,0,2.57-2.24,6.13,6.13,0,0,0,.92-3.31,5.33,5.33,0,0,0-.44-2.24,4,4,0,0,0-1.23-1.54,5.71,5.71,0,0,0-1.81-.86,30.8,30.8,0,0,0-3-.61c-1.3-.21-2.32-.4-3.05-.57a10.53,10.53,0,0,1-2.2-.78,5.86,5.86,0,0,1-1.83-1.34,6,6,0,0,1-1.17-2,7.27,7.27,0,0,1-.44-2.53,7.8,7.8,0,0,1,2.54-6,9.71,9.71,0,0,1,6.82-2.33,18.17,18.17,0,0,1,3.7.42,14.85,14.85,0,0,1,3.64,1.24l.14.24a25.85,25.85,0,0,0-.53,5.11l-.18.16h-1l-.16-.14c0-1.56-.06-2.54-.11-3s-.65-.9-1.78-1.5A7.8,7.8,0,0,0,648,145a7.39,7.39,0,0,0-3.11.66,4.62,4.62,0,0,0-2.19,2.09,6.32,6.32,0,0,0-.74,2.91,4.51,4.51,0,0,0,.45,2,3.84,3.84,0,0,0,1.16,1.4,5,5,0,0,0,1.66.77c.63.17,1.79.38,3.47.63a20.55,20.55,0,0,1,5,1.18,5.53,5.53,0,0,1,2.52,2.2,6.68,6.68,0,0,1,1,3.63,8.6,8.6,0,0,1-3.39,6.93,12.56,12.56,0,0,1-8.22,2.78,16.32,16.32,0,0,1-7.09-1.45l-.11-.25C638.56,169.73,638.65,167.81,638.72,164.81Z" fill="#fff"/>
  </g>
  <g>
    <g>
      <path d="M1304.35,113.45l.15-2.5a2.67,2.67,0,0,0-3.45-2.88L1221,125.4c-2.72.59-4.94,3-4.94,5.31v2.88Z" fill="#fff"/>
      <path d="M1216,138.39v36.83c0,2.2,2.14,3.33,4.77,2.53l77.67-23.53a5.55,5.55,0,0,0,3.78-4.56l1.85-32.06Z" fill="#fff"/>
    </g>
    <path d="M1303.42,156.19c-17.73,3.91-31,12.13-29.61,18.35l1.4,6.34c1.37,6.22,16.85,8.1,34.58,4.18s31-12.13,29.61-18.35l-1.4-6.34C1336.63,154.15,1321.14,152.28,1303.42,156.19Z" fill="#fff"/>
  </g>
</svg>
