<svg id="Layer_1" data-name="Layer 1" xmlns="http://www.w3.org/2000/svg" xmlns:xlink="http://www.w3.org/1999/xlink" viewBox="0 0 1344.29 194.65">
  <defs>
    <clipPath id="clip-path">
      <rect x="9.54" y="46.48" width="151.78" height="127.18" fill="none"/>
    </clipPath>
    <clipPath id="clip-path-2">
      <rect x="-14.44" y="48.36" width="181.22" height="181.22" transform="translate(67.7 297.22) rotate(-148.2)" fill="none"/>
    </clipPath>
    <clipPath id="clip-path-3">
      <rect x="1188.58" y="104.46" width="153.09" height="90.19" fill="none"/>
    </clipPath>
  </defs>
  <title>banner-1</title>
  <g clip-path="url(#clip-path)">
    <g clip-path="url(#clip-path-2)">
      <g>
        <path d="M120.28,109.88a45,45,0,0,0-3.89-4.41,17,17,0,0,0-3-2.4c-.92-.57-2.73-3.65-2.73-3.65a5.92,5.92,0,0,0-4.21-2.64c-2.93-.4-4.08,8-4.08,8s1.53,19.58,1.93,19.83,17.7,7,17.7,7l5.92-7.45,1.16-5-1.5-2.07-6.87-4.26Z" fill="#fefefe"/>
        <path d="M163.29,195.13c.06-.14-.09-.51-.17-.52-.56-.05-.66.49-1,.8a1.75,1.75,0,0,1-1-2.3c.56-2.28,1.41-4.22,3.82-5h0a1.51,1.51,0,0,1,.87,1.08c1.07,6.1,2.48,12.15,1.76,18.44a43.89,43.89,0,0,0-.16,8.88,21.41,21.41,0,0,1-.37,7.41c-.85,3.08-2.42,6-3.09,9.07-.63,2.91-1.92,5.83-1.57,8.83.51,4.27,1.71,8.44.15,12.77a12,12,0,0,0-.38,4.53,27.39,27.39,0,0,1-.71,8.07,32,32,0,0,0-1,9.51,47.15,47.15,0,0,1-8,28.66c-3,4.67-6.9,8.68-10.43,12.95a4.72,4.72,0,0,0-4-2.95c-1.58-.23-2.51-1.17-3.7-1.85a6.2,6.2,0,0,0-2.93-1c-2.65-.21-5.87.07-7.51-3.14-.51-1-1.84-1-2.86-.66a2.89,2.89,0,0,1-3-.61,6.08,6.08,0,0,0-4.16-.94c-1.79.06-3.75-1.57-5.44-2.75-1-.72-2.31-1.56-2.3-3.17-1.69,0-1.48-3.37-3.85-2.14-.3.16-.83.09-.62-.29.78-1.4-2.38-2-.66-3.45.91-.75,1-1.28.74-2.57s1-2,2.69-2c2.88.07,5.75-.06,8.48,1.27l.35-.57a35.66,35.66,0,0,0-4-4.74c-1-.85-2.41,0-3.61.54s-2.92,1.51-2.85-1.24c0-.22-.12-.61-.25-.64-3.23-.78-2.85-5.11-6.06-6.06A4.18,4.18,0,0,1,93.86,276c-.07-.36-.65-.7-.61-1,.41-2.64-3.84.83-3-2.38.5-2-2.13-2.37-2.41-4.05-.32-1.9-2.37-2.23-3.32-3.61a3,3,0,0,0-2.32-1.15A10.61,10.61,0,0,1,74,259.39c-1.74-2.35-4.55-2.49-6.86-3.67a.59.59,0,0,0-.92.42c-.32,1.26-1,.71-1.6.29a1.8,1.8,0,0,0-2-.05c-.7.32-1.94,0-2.06.91-.16,1.19,1.21.93,1.9,1.35,1.77,1.1,2.4,3.12,3.32,4.8a11.68,11.68,0,0,1,1,7.83c-.21,1.12-.27,1.49-1.57,1.25-2.28-.41-3.09.5-2.73,2.83.89,6,2.54,11.79,2.87,17.86.28,5.13.13,10.19-3.05,14.4-3.48,4.59-4.14,9.87-4.76,15.25-.23,2,.06,4.05-2.38,5.17-.6.27-1.06,2.29-.67,3,.9,1.6.16,3.05.33,4.67,1.24-1.87,3.83-2.46,4-5.43.07-1.64,1.92-2.84,3.43-3.78a.86.86,0,0,1,1.41.7c.2,2.05,1.13,1,1.77.41a15.56,15.56,0,0,1,5.5-3.32c1.86-.61,1.74-2.49,2.23-3.95,0-.17-.12-.47-.28-.63-1.23-1.19-1.22-1.74.64-2.26,1.63-.46,1.75-1.09.84-2.46,1.6,1.28,3.12-.26,4.56.28-2.47.89-2.45,3.51-3.72,5.15A14.67,14.67,0,0,0,73,324.51c-.68,1.82.18,4.87,1.76,5.85.62.39,1.22.95,2.06,0,1.1-1.23.89-3.65,3.29-3.69a3,3,0,0,0-1-2.55c-1.84-1.36-1.79-2.71-.29-4.35,2.32-2.55,2.27-3.2,0-4.54,2-.33,3.49,1.21,5.36,1.43.42.05.47.8.43,1.28s-.33.33-.67.25c-2.25-.51-1.86.84-1.15,1.92a3.82,3.82,0,0,1,.83,3.54c-.43,1.67,1.45,2.88,2.26,4.33.36.64,1,.06,1.23-.5s-.16-1.12-.11-1.62c.1-1,.29-2.21,1.24-2.59s1,1,1.49,1.5,1,1.23,1.75,2.27c-.59-3.35-1.18-6-4.45-6.95a.86.86,0,0,1-.24-1.56c2.44-1.7,1.14-2.66-.6-3.62-.16-.08-.21-.36-.38-.67,1.1-.53,1.72.33,2.42.67,1.74.83,3.41,1.8,5.15,2.62s2.16,1.84.74,3.3c-.31.33-1,.54-.45,1.09a2.8,2.8,0,0,0,1.38.9c.64.12.64-.59.73-1a59.07,59.07,0,0,0,.58-6.65c.1-1-1.94-2.31-3.07-3.38-2-1.88-3.67-4-6.23-5.38-1.91-1-4-2.32-4.86-4.65-.23-.61-.93-1.05-1.77-1.95A20.67,20.67,0,0,1,87,303.22c8,5.25,16.23,10.13,23.72,16.09,4,3.19,8.84,5.14,12.6,8.78,1.12,1.08,3.45,1.51,5.41,1.62,2.48.12,3.76-1.27,4.51-3.4a18.66,18.66,0,0,0,1.28,1.38c3.67,3.26,6.82,6.79,7.33,12a32.68,32.68,0,0,0,1.19,4.09c.45,2,1.57,3.89.63,6h0c-.79-.43-.81-2-2.41-1.43,1.1,1.5-.3,2.86-.36,4.39s.89,3.14-.51,4.5c-.39.39.25.88.54,1.21,1.59,1.8,1.08,3.76.09,5.46-1.2,2.09-2.08,4.33-3.31,6.37-3,4.89-6,9.71-9.07,14.52a10.12,10.12,0,0,0-1.7,4.68,14.58,14.58,0,0,1-2.21,6.28A50,50,0,0,0,119,412.19c-.8,4.48-.89,9.1-2.58,13.41-.29-.24-.61-.71-.87-.68-1.51.18-4,4.45-3.67,6.19a15.8,15.8,0,0,1-4.1,4.95c-.77-.54-1.8.83-2.49-.34-.17.44-.36.87-.52,1.31-.4,1.11.53,1.32,1.17,1.72-.94,1.44-2.53,2.56-2.64,4.42a38.48,38.48,0,0,1-1.22,5.58c-.71,3.47-2.08,6.91-.75,10.58a3.31,3.31,0,0,1-.29,3.23c-.59-.22-1.51-1.14-1.73-.21-.48,2.06-3.56,1.89-3.37,4.25.06.75.71,1.52,1.47,1.15,1-.47,2.56-.52,2.51-2.14,0-1.22-.07-2.34,1.12-3.07a8,8,0,0,1,1.09,7.6c-1.11,3.14-2.87,6.12-3.07,9.53-.13,2.2-1.06,2.18-2.58,1.2l-11.46-7.35a21.89,21.89,0,0,0-1.37-2.16c-.62-.79-1.28-.87-1.73.22a116.25,116.25,0,0,1-10.43-6.42c-.26-2.18-2.47-2.44-3.72-3.65-.21-.2-.66.48-.76.95l-.43-.28c.27-1.56-1.9-4.68-3.44-4.83a3,3,0,0,1-1.46-.74c-1.4-1-2.19-.64-2.47,1l-.83-.54c1.38-.68,1.43-1.8,1.13-3.13s-1.13-.36-1.68-.56a9.49,9.49,0,0,0,3.09-3c.6-1.1.7-2.3-.07-3s-1.15.65-1.7,1.1c-1.1.89-2.82,1.07-3.19,2.81a1.09,1.09,0,0,1-.86.07c-2.06-1.46-2.53.2-3.16,1.57l-3.43-2.11c.52-1.12,1.84-2.17.46-3.49-1.56-1.49-2-1.3-3.48,1.48-2.28-.79-3.61-3.12-6-3.71,1.52-1.35,1-2.55-.36-3.75l-2,2.43c-2.06-.89-1.69-2.29-.67-3.67.89-1.21.7-2-.63-2.61a13.76,13.76,0,0,1-5.32-4.35c-1.2-1.67-3.67-1.5-4.6-3.44.29-.36.39-1.4,1.06-.26.51.88,1.24.7,1.79.15,1-1-.18-1.69-.47-2.51-.36-1-1-.38-1.26-.07-.55.67-1.43,1.05-1.67,2a1.76,1.76,0,0,1-1.45-1c2.6-1.41.36-3.3.78-5.42a9.75,9.75,0,0,0-3.27,3.48c-3.2-.23-4.17-3.23-6.17-5,2.65-.78,1.62-2.69,1.3-4.34-.12-.63-.8-.57-1.19-.49-1.52.33-2.57-.49-3.65-1.31-2.49-1.91-2.49-1.91-3.29,1.15a3.11,3.11,0,0,1-.85-.36c-3.52-3-3.52-3-5.87.74a12.34,12.34,0,0,0-1.35,2.53c-.42,1.21-1.08,1.28-2,.71l-24.11-15c-.64-3.14-.34-3.42,2.77-2.4,1.37.44,2.69,1.06,4.05,1.53s2.44,1.19,3.94-.1c1.25-1.07,3.87.25,4.37,2A2.21,2.21,0,0,0-9,407.71a38.05,38.05,0,0,1,8,2.78,28.22,28.22,0,0,1-.81-5.87c6.5-1.23,13-2.17,18.91-5.34.53.74-.77,1.47.07,1.93.69.38,1.11-.39,1.64-.69,2.73-1.54,4.71-4.14,7.89-5.18a20,20,0,0,1,3.07-.54c3.36-.5,6.81-1.76,10.14.2-.49,1.39-1.58.63-2.42.63-.65,0-1.36-.19-1.42.75-.06.73.44,1,1.1,1.29a7.53,7.53,0,0,0,6.37.39c.58-.24,1.83.7,1.7-.7a1.75,1.75,0,0,0-2.3-1.47A2.55,2.55,0,0,1,40,395c.57-1.09,1.68-1.11,2.67-1.31a3.64,3.64,0,0,0,2.14-1c.76-.85,1.66-7.25,1.15-8.23a3,3,0,0,0-.24-.38c-2.19,1-1.88-1.72-3.13-2.06-1.8-.5-1.59-2.43-2.55-3.52a.76.76,0,0,1,.27-1.06c.51-.31.87,0,1.17.43.77,1.22,1.76,1.95,3,1.15,1.16.86-1.63,1.7.25,2.26.57.17,1.3,1.37,2,.23.56-.88,1.2-1.84-.1-2.68v.05c.39-.41.47-1.39,1.37-.9.66.36,1.23,1,.81,1.79-1.2,2.13.73,4.36-.32,6.51a1.15,1.15,0,0,0,1,1.61c1.06.17,1.13-.76,1.21-1.42.39-3.52,1-7.1-2-10-.76-.71-.15-1.88-.85-2.66-.27-.3-.46-.73-.9-.54-.21.08-.38.51-.38.79,0,.86.32,2.34-.32,2.41a5.51,5.51,0,0,1-3.84-.84c-1-.87-1.69-.58-2.75-.26,1.81-1.29.64-4.53,3.58-4.89.31,0,.4-.51.23-.82a.75.75,0,0,0-1.2-.26c-.72.53-1.28,1.64-2.4.62-.94-.87-.57-1.79-.29-2.85s-.45-2.46,1.83-2.07c.89.15,1.59-1.69,1.73-2.9.42-3.59,2.45-6.77,2.57-10.43,0-.41.1-.86.64-.79s.54.54.46.93c-.56,2.92.95,6.26-2,8.71-1.31,1.09.16,3-.73,4.31,1.66-.39,2.2,1.28,3.35,1.8a.49.49,0,0,0,.64-.67c-1.24-2.08,1.74-3.11,1.19-5-.07-.25.39-.47.75-.37a.53.53,0,0,1,.37.75c-.27.84-.59,1.66-.92,2.48-.21.51-.62,1.07.07,1.46a1.26,1.26,0,0,0,1.55-.31,6.68,6.68,0,0,0,1.34-2.24c.47-1.57.87-3.11,2.6-3.79.55-.21.53-.68.59-1.18.42-3.51,1-7.08,2.69-10.15.89-1.58.49-3.27,1.34-4.71a.68.68,0,0,0-.31-1c-.47-.23-.72.1-1,.4-.9,1-.9,2.39-1.61,3.46-.32.48-.73,1-1.36.67a.83.83,0,0,1-.19-1.42c1-.89,1.7-1.65,1.16-3.25-.35-1,1.22-2.06.7-3.51-2,.25-2.13,2-2.66,3.4s-.51,1.44-2.33,1.62c-.31-.88.81-.83.94-1.45a1.84,1.84,0,0,0-.59-1.95c-.8-.58-1.09.27-1.44.75-.56.74-1.08,1.5-1.57,2.19-1.66-2-.14-3.45.55-5.25a10.57,10.57,0,0,0,.36-5.25c-.21-1.38-3-1.41-4.32-.09a4.3,4.3,0,0,0-1.55,2.25c-1-.45-.47-.88-.31-1.26s.7-1.14.6-1.23c-2.56-2.46.8-5.46-.72-7.87a2.37,2.37,0,0,1,.25-3.21c.09-.1.14-.41.1-.43-3-1.77.56-4.63-1.1-6.67-.19-.24-.19-1.56.76-1.77.67-.15.91.5,1.1,1,.37,1.05,1.15.67,1.8.47.95-.29,2.7-4.3,2.12-5.07-1.69-2.26-1.43-4.75-1.7-7.35-.2-1.93,1-4.47-1.08-6.13l0,.05c-.24-1.63.34-3.32-.35-4.9-.14-.32-.31-.66-.05-.86,2.49-1.91.82-4.49,1.15-6.92l-2,1.08c.76-1.84,2-3.26,1.34-5-2.28,1.17-3.17,3.92-3.52,6.41-.43,3.08.34,6.09-.42,9.24-.59,2.46-1.31,5.51-.67,7.86.55,2.05-.41,4.51,1.52,6.32.82.77.38,2.15-.57,3-.5.44-1.19,1-1.08,1.51.56,2.91-1.4,5.46-1.06,8.29.11.93-.75,1.28-1,2.09-1,4-.77,8.25-2.14,12.2-.56,1.6,1.33,2.07,1.51,3.63.25,2.28-.89,2.09-2,1.79-.9-.25-1.48-.42-1.94.36-.06-1.26,2.1-1.51,1.56-3-.21-.6-1,0-1.67.16.58-1.58,1.85-2.49,1.92-4.06.05-1.05.33-1.84-.4-3s0-2.58.53-3.85c.4-.92,1.32-2.13-.81-2.31-.71-.06-.9-.62-.68-1.45a14.87,14.87,0,0,0,.73-5.58c-.5-2.91-.15-5.87-.9-8.72A2.64,2.64,0,0,1,37.11,306a2.29,2.29,0,0,0,1.73-2.61A3.16,3.16,0,0,0,36,304.59c-.26.32-.62.61-1,.35s-.27-.82-.06-1.26.47-1,.7-1.52c1.07-2.31,1.07-2.31-.21-4.31-.86-.06-.72,1.7-1.64,1.14s.2-1.35.23-2c0-1.22.34-2,1.7-2.3.68-.15.86-1.09,1-1.81-.7-.55-1.38.41-2.05,0s-1.64-.76-.85-2,2.32-2.71.5-3.63-2,1.53-2.85,2.55c-.14.16-.2.39-.42.54,1.26-2.47,2.59-4.91,2.91-7.73a1.14,1.14,0,0,1,.54-.73c3-1.73,3.58-4.18,1.5-6.74-.52-.64-.61-1.25,0-1.66a1.94,1.94,0,0,0,.56-2.91c-1-1.25-1.6.76-2.61.74-.42-.86.3-1.3.63-1.87s.93-1.46.25-2c-2.4-1.78-1.49-4.36-1.73-6.63-.34-3.14-.59-6.29-.71-9.44-.06-1.74,1.26-3.06,1.93-4.58.41-.92,1.89-2,.77-2.81-1.32-1-3-.15-4.37.59-.48.26-.69,1-1.24,1.54,0-1.76-3.26-2.34-.79-5-1.87.32-2,3-3.59,1.48-1.42-1.34-2.47-3-2-5.07.69-3.18,1.43-6.34.91-9.82-.61,1-1.16,2-1.85,2.95-1,1.43-3,1.55-3.69,0-1.19-2.63-2.59-1.67-4.38-.51a4.51,4.51,0,0,1,1.75-3.62c1.46-.87,1.79-2.5,3-3.45.63-.49.53-1.95,1.69-1.72s.55,1.62,1,2.59a3.76,3.76,0,0,0,1.4-4c-.17-.84-.23-1.74.54-2.18,1-.56,1.51.59,2.25,1s1.57.6,1.2,1.74-.55,2-.82,3c-.34,1.27.27,1.58,1.23,1,1.23-.77,3-1.06,3.15-3a.75.75,0,0,1,1-.75c3.51,1,7.16-.69,10.67.54,1,.37,2.15.6,3.22.9-.18.81.07,1.15,1,1.06.48,0,1,.27.84.86s-.67.45-1.16.31a4.17,4.17,0,0,0-5.17,1.94l-.3.06s.1.06.13.05a1,1,0,0,0,.16-.13c1.3,1.07,2.79,1.69,4.4,1,2.63-1.12,5.24.93,8-.26-1-.95-.86-1.86.38-2.54.39-.76,1.28.12,1.71-.52l6,2a2.25,2.25,0,0,1-2.88.57c-.71-.27-1.7-.92-2.37.17-.3.51-1.39.61-1,1.43.33.64.7,1.4,1.84,1.09a1.63,1.63,0,0,1,2.26,1.18c.25,1,.62,1.89-.82,2.26-.58.15-.6.7-.34,1.19a1.19,1.19,0,0,0,1.22.58c.81,0,1.27-.6,1.86-1a1.25,1.25,0,0,1,1.56.18c.51.43.2.75-.11,1.19-2,2.84-2,3,.45,6.15.27-2.29,2.81-2.4,3.57-4.24a1.44,1.44,0,0,1,1.69-.53c.65.4.31,1.23,0,1.73-.67,1.15-1.37,2.42-2.92,2.45-.85,0-1.11.5-1.37,1.08a.77.77,0,0,0,.34,1c.63.43,1,0,1.43-.38.84-.73,1.23-.48,1.3.65.17,2.62,1.79,4,4.31,3.79.39,0,.9-.28,1.12.09,1.42,2.47,3.1.21,4.62.19,1,0,.72-.92,0-1.29-2.14-1.16-3.81-3.19-6.44-3.47-.77-.09-2.06-3.11-1.49-3.57,1.28-1,.78-1.76-.06-2.73-.68-.79-1.26-2-.38-2.81.69-.64,2-.19,2.81.23a6.91,6.91,0,0,1,2.3,1.59,1.61,1.61,0,0,0,2.55-.12c.79-1-.55-1.18-1.06-1.68a2.23,2.23,0,0,0-2.41-.85,2.37,2.37,0,0,1-2.93-1.46c-.62-1.64-2.41-1.31-3.71-1.73-.83-.27-1.8-.14-1.9-1.43a8.19,8.19,0,0,1,4,1.3c2,1.31,4.41,1.26,6.58,2,.7.24,1.17-.32,1.77-.42-.12,1.23.9,1.17,1.6,1.35,7.13,1.74,13,5.82,18.84,10,3.92,2.77,8.15,5.12,12.11,7.57,0-.13-.44-1,.2-1.28,2.59-1.17.72-2.12-.52-3.41,3.82-.1,7,1.08,10.59,1.49-.73-1.58-2.06-1.11-3-1.49-.7-.27-1.8-.12-1.62-1.3a1.57,1.57,0,0,1,1.89-1.15c2.48.5,4.22-1.19,6.3-1.88,1-.31,1-.75.27-1.55-1.29-1.48-3.76-2.06-3.64-4.7,0-.49-.8-.37-1.25-.22a14,14,0,0,1-2,.74c-.86.13-2,1.07-2.57-.18-.45-1-1.32-2.12-.33-3.36a6.78,6.78,0,0,0,1.13-2.23c-2.32,2.71-5,2.86-8.11,1.81-.7-.24-1.62.24-2.37.07-.93-.22-2.37-.51-.8-1.93,1.34-1.21.17-2.59,0-3.79-.33-2.69,1.64-4.46,2.34-6.72.33-1.07,4.9.74,5.78,1.49,1.82,1.54,2,3.74,3,5.44,1.12,1.85,4.28,2.05,6.13,3.74.18.17.82,0,1.13-.2,1.8-1.14,3.56-2.33,5.33-3.51.31-.21.82-.38.54-.88a1,1,0,0,0-1-.45c-2.91.37-4.13-2.19-6.06-3.52a.94.94,0,0,1-.32-1.28c.72-1.41-.54-1.4-1.14-1.23-1.34.37-2.51-.19-3.75-.29-2.29-.18-3.12-1.49-3.33-3.64-.12-1.27.37-3-1.92-3.29-.8-.09-.41-1.24-.3-1.92.08-.48.37-1,1-.76,1,.38,1.69,2.45,3.35.51.24-.29,2.8,1.29,3.36,2.93,1,3.06,5.26,4.92,8,3.49,1.07-.55.6-1.57.79-2.35s.37-1.17,1.3-1.27c1.12-.11.86.59,1,1.16a3.19,3.19,0,0,0,3.23,2.61c2.68.22,5.3,1.47,8,.52a49.39,49.39,0,0,0,9.25-3.79c-.41-1.06-1-.62-1.52-.61-1.42,0-2.94.42-2.61-2.11.18-1.42-1.08-1.83-2.37-1A3.29,3.29,0,0,1,138,206.8c-3.07-4.65-6.3-9.21-8.71-14.27a13.23,13.23,0,0,1-1.08-5c-.11-2,1.89-2.81,3.92-1.69s4,.87,6,1.34c.72.17,1-.41,1.3-.85.68,0,1.35.54,2,0-1-.75-1-.75-2,0-1.68,0-1.89-1.2-1.78-2.4.1-1,0-1.93-1.11-1.94-1.47,0-.7,1.05-.55,1.74a1.34,1.34,0,0,1-.92,1.72c-.85.21-.91-.55-1.3-1.18-1-1.66-.64-3.93-2.77-5.17a2.21,2.21,0,0,0-2.54-.05c.61-2.24,1.43-3.52,3.6-4,1.67-.39,1.12,1.29,2,1.5.92-1.13,1.83-2.27,2.78-3.38.45-.51,1.4-.87.53-1.69a2.3,2.3,0,0,0-2.36-.86c-3.34.57-5,3.08-6.94,5.19-1.07,1.14-2,1.72-3.29.43-.31-.3-.66-.51-1-.17a1,1,0,0,0-.19.59c.76.35,1.07.83.28,1.4s-1.33,1.25-2.11,1c-1.25-.45-2.34-1-2.31-2.88A2.87,2.87,0,0,0,117,173a5.73,5.73,0,0,1-2.42-1,3.52,3.52,0,0,0-4,.17c-.56.35-.83,1.06-1.45.19a1.21,1.21,0,0,1,.17-1.85,21.57,21.57,0,0,0,3.79-4.61,3.57,3.57,0,0,0-.83-5c-1-.89-.11-1.75.21-2.61h.4c-.16-.36-.28-.22-.39,0-2.87-.71-2-2.43-1.07-4.05-.65-1.21-1.91,2.2-2.39-.42,0-.29-.51.34-.77.58-2.19,2-2.63,4.71-2.92,7.44-.15,1.4-.61,1.5-1.86,1.19s-2.68-1.54-4.14.05c-.16-1.29.66-1.86,1-2.62.18-.42.68-.81.32-1.3s-1-.3-1.34-.13c-1.66.79-3.7.48-5.17,1.93a2.44,2.44,0,0,1-2.88.57c-1-.56-.51-1.57-.42-2.4.12-1.18.11-2.43,1.25-3.24.94-.66.39-1.63.43-2.46a.83.83,0,0,0-.83-1c-.57,0-.83.39-1,.9-.16.68.08,1.46-.73,2.18-.66-1.18-2.3-1.06-2.88-2-.68-1.14,1.67-1.62,1.14-3.3-.85,1.1-2.52,1-2.71,2.69a.67.67,0,0,1-1.25.3c-.7-1.57-2.55-.58-3.44-1.77-.31-.41-1,.27-1.3.72s-.31,1.43-1.05,1.73c-2.47-2.73-.74-5,.54-7.55,3.11-6.3,8.69-9.23,14.67-11.91,2.14-1,3.88-2.76,6.29-3.28a23.79,23.79,0,0,1,2.29-.66c4-.51,6.8-5.58,5.07-9.26a2.41,2.41,0,0,0-2.22-1.18,9.7,9.7,0,0,1-4.47-1.43c-1.17-.59-1.86-2.14-3.73-1.34-.85.36-.77-1.21-1.31-1.69-1.46-1.32-2.54-2.49-1.69-4.81.45-1.23-1.31-2.15-2.31-2.66-1.24-.63-.87.89-1.17,1.49-.19.37-.37.72-.81.81-2.79.55-1.8,3-2.12,4.64-.22,1.08,1.27,1.1,2.26,1,.64-.08,1.65-.19.76.79-1.06,1.15,1.61,2.16,0,2.8-.79.33-1.4-1.43-2.52-1.41s-2.23-.36-3.26-.38c-2.82,0-4.16-3.61-7.3-2.82-.49.13-.71-1.36-.35-1.81,1.18-1.48,1-3.54,2.3-4.95a1.63,1.63,0,0,0-.13-2.55c-1.27-1.09-1-2.6-1.17-4,0-.45-.14-1.06.54-1.14s.81.4,1,.85c1,2.15,3.39,2.94,4.72,4.83.58.83,1.88.89,2.44-.54.42-1.07,1.42-2.21-.54-2.83-.44-.14-1.34-3.6-1.11-4,.64-1.14,1.43-.65,2.24-.24,2.38,1.19,2.39,1.18,3.74-1.39-.63-.88-1.5.56-2.13-.23.66-2,1.53-4.07.05-6.13-.27-.37-.37-.75,0-1s.74,0,1.08.24c1.22.71,1.06,2.25,2,3.48.7-2.19.28-4.16,0-6s-2.71-2.74-4.65-1.88A16.21,16.21,0,0,0,85.11,87c-1.47,1-2.33.55-2.86-1.3-.83,2.62-2.16,3.29-4.19,1.36-.32-.3-.71-.1-1.1-.09-1.65.06-3.27-.07-3.51-2.26-.06-.56-.68-.67-.92-1-1-1.62-2.75-3-1.73-5.33.33-.77-.25-1.3-.91-1.4s-1.69-.93-2.41.09c-.26.37-.87.85.36.93s1.25,1.29,1,2.1c-.41,1.29-1.24.22-1.94.15-3.59-.32-4.35-3.35-5.49-5.88-.22-.48-1.24-2.45,1.14-2.4,1,0,.8-1.27.92-1.9a1.49,1.49,0,0,0-1.33-1.7c-.75-.12-1.53.11-1.51.79.06,2.39-2.21,3.91-2.15,6.28,0,1.17-.75,1.32-1.63.76a9.16,9.16,0,0,1-1.93-1.44c-.63-.67-1.08-1.11-1.89-.2-.27.3-1.18.52-1.32.36-1.81-2.14-4-.72-6.12-.87-2.62-.2-3.3-1.75-2-4,.83-1.45,2.09-2.64,2.54-4.34.17-.69.85-.87,1.54-.94A1.39,1.39,0,0,0,49,63.12c-.4-1.43-1.26.25-1.9-.07-.57-.64.84-1.55-.31-2.08a2.22,2.22,0,0,1,.94-1.34c3.54-3,7.59-5.32,11.55-7.71a14.73,14.73,0,0,1,6.16-1.76,39.14,39.14,0,0,1,17.88,2.51c7.37,2.7,12,7.68,14.32,15.11,1.53,4.83,1.09,10.15,4,14.67.58.9,1.85,2.38,1.18,3.53-.93,1.58-.47,3.13-.34,4.57a3.06,3.06,0,0,0,3.38,3c.82-.09.82.23.65.5-1.22,2,.54,2.53,2.29,3.68a18.13,18.13,0,0,0-1.85-.52c-.7,1.6-1.32,3.22-2,4.84,2.63,1.28,1.28,3.36,1,5.15-.25,1.44-.52,3.1.37,4.07a52.29,52.29,0,0,1,5,6.19c1.22,1.85,1.88.69,2.88.16.66-.35.16-2.08,1.37-1.44a3,3,0,0,1,1.27,3.17c-.12.94-.66,1.44-1.43.88-1.72-1.28-1.47,0-1.7,1.07-.63,2.86,1.57,3.88,3.24,5.26,1.21,1,2,.61,2.56-.72h0c1,1.24-.67,2.75.57,4.19.53-2.11,2.71-3.19,2.78-5.58,0-.34-.15-4.09,2.8-1.92.52.38,1.66-.38,1.44-1.59-.14-.83-.78-1.64-.1-2.5-1.21-.68-.81-3-2.88-2.81h0c-1.11-.47-2.11-1.91-3.46-.25-.3.36-1.47.19-1.47-.18,0-2.07-.71-1.94-1.94-.76-.11.1-.72-.07-.81-.25-.43-.86-.8-1.43-2-.9-.51.24-.79-.5-.63-1a14.16,14.16,0,0,1,1-1.9,1.93,1.93,0,0,1,1.32,1.5.68.68,0,0,0,.9.52.65.65,0,0,0,.57-.63.9.9,0,0,0-.53-1,18.73,18.73,0,0,0-2.26-.4c-.35-.29-1-.43-.86-1s.56-.59.94-.6c2.22,0,4.3-.2,6.13,1.81A82.37,82.37,0,0,0,136,123.67a24.63,24.63,0,0,1,7.55,7.84c2.75,4.63,3.87,9.73,5.37,14.75h0a4.45,4.45,0,0,1-3-4.43c0-.86-.64-1.47-1.07-1.13a3.68,3.68,0,0,1-3,.53c-.68-.07-.74.25-.13,1,.15.17.41.27.26.52-1.24,2.1,0,3.66.92,5.44.52,1,.28,2.29,2,1.79.13,0,1.43,0,1.25,1.17-.09.59.28,1.42,1.15,1,.63-.28.67-.89.37-1.63-.72-1.76-.17-3,1.81-3.38h0a11,11,0,0,0,.86,2.73c2.62,4.14,4,8.89,6.41,13.1,3.44,6,4.55,12.84,7,19.2.06.15-.12.4-.22.68a4.25,4.25,0,0,1-.62-.39c-.34-.33-.22-1.41-1-.91s0,.92.39,1.3c.95.9.49,1.77-.16,2.54-2.32,2.76-1.64,6.24-2.3,9.39-.16.74.38,1,.86,1.25.82.46,1.14-.2,1.52-.7C162.6,195.54,163.05,195.71,163.29,195.13ZM79,410.41v-.19c.54-2.36,1.69-.92,3-.22-.59-1.19-1-2-2.12-2.21a1.45,1.45,0,0,0-1.54.89c-.5.84.18,1.14.66,1.53Zm-14.7-3.05c1.4-2.28,3.79-1.18,5.82-1.67-.66-.93-.75-2.19-2.67-1.31-.63.29-2.7-.56-4.08-1,.11-.29.33-.58,0-.85a.41.41,0,0,0-.37.08c-.16.39.16.56.39.76-.32.41-.56.58-1.16.23-2.24-1.28-4.33-.44-5,2-.16.59-2.34,1.1-.22,1.92.36.13,1.37.92.78-.59-.08-.22,2.22-1,2.65-.48,1.18,1.48,2.57.72,3.87.9-.66,1.54.16,2.16,1.52,2.12a29.72,29.72,0,0,0,3.73-.56c.25.17.61.28.71.51.27.57.38,1.44,1.06,1.44s.91-1,1.24-1.55.62-1.47-.29-2.07-1.28.26-1.78.65a7.13,7.13,0,0,0-.93,1.05A6.29,6.29,0,0,0,64.26,407.36ZM105.74,371a27.09,27.09,0,0,0-3.62-1.23c-2.8-.53-3.83.78-2.76,3.45.26.65,1,1.19.19,1.87s-1-.23-1.56-.48c-1-.48-1.21.36-.93.94a11.22,11.22,0,0,1,.87,7.32.53.53,0,0,0,.53.65c1.54,0,1.37,1.28,1.67,2.21.13.41-.28,1.09.43,1.2.87.13.76-.74.88-1.18.43-1.55-.36-2.9-1.08-4.14-.54-.93-.7-1.86.19-2.27,1.06-.48,1.14.71,1.41,1.41.14.37.22,1,.47,1.06,3.16,1.09,1.72,3.52,1.6,5.51a2,2,0,0,0,.36,1.29c1.57,2.5,1.56,2.51-1,3.3h0c-.61-.07-1.26-1.28-1.77-.21-.36.76.58,1.26,1.23,1.52,1.17.48,2.45.58,3.66,1.06,1.06.43,1-1,1.32-1.52.62-1.23.56-2.89,2.42-3.2a.57.57,0,0,0,.37-.77,1,1,0,0,0-1.35-.66c-1.62.79-2.28-.48-3.21-1.31a1.06,1.06,0,0,1,0-1.82,1.64,1.64,0,0,0,.77-1.6c-.14-.92.25-1.35,1.26-1.14a1.28,1.28,0,0,0,1.54-.86c.23-.74-.36-1.18-.94-1.5A15.12,15.12,0,0,0,107,379c-2-.79-2.21-2.06-.46-3.37.58-.43,0-.64,0-.93-.21-1.24-1.38-2.27-.83-3.69,1.18.54,2.68.72,2.65,2.54,0,.51.39.65.83.57a.65.65,0,0,0,.48-.92c-.6-1.36-.63-3.1-2.38-3.72-.48-.28-.73-.65-.37-1.16a3.39,3.39,0,0,1,.86-.83c1.14-.8,1.89-1.79,1.42-3.24s-1.93.23-2.68-.72c0-.08-.08-.28,0-.38.5-.76,2.24-.6,1.86-1.8-.3-.95-1.68-.3-2.56-.54a4.31,4.31,0,0,0-4.12,1.12c-.54.49-1.41,1.75-.81,1.95,2.29.74,1.09,2.63,1.47,3.89.28.91.81.83,1.31,1.05.87.38,1.76.69,2.65,1Zm-68,53.56c-1,1.61-2.23.49-2.06-.36.54-2.67-2.16-3.28-2.72-5.33-.76.53.07,2.77-1.85,1.67-.26-.15-.64.11-.71.47-.11.65.39.81.87.89.77.13,1.44.35,1.37,1.32-.09,1.16-1,.66-1.6.79-1.65.35-2,1.73-.72,2.92.8.74.81,2.66,2.69,2a1.42,1.42,0,0,1,.34.77c-.11.68-.65,1.58.42,1.72.46.06,1.22-.68,1.53-1.23.8-1.42,1.39-2.92,2.91-3.84.89-.53,0-1.69.48-2.47.28.11.57.32.84,0a.39.39,0,0,0-.08-.36c-.37-.15-.55.16-.75.39A1.1,1.1,0,0,0,37.75,424.51Zm62.87-166.57c-.14.55-1,1.14-.24,1.64a1.81,1.81,0,0,0,2-.36c.74-.65-.07-1.33-.34-1.88s-.91-.83-1.39-1.23c.47-.82,1.19-1.53,1-2.62-.1-.6,0-1.22.77-1.23s1,.34,1.06,1.05q.36,3.23.85,6.44a8.32,8.32,0,0,0,.56,1.56c.28.77.61,1.7,1.6,1.37s.83-1.25.61-2.07c-.13-.46-.46-1.11-.28-1.35,2.37-3-.46-5.17-1.62-7.24-.77-1.38-2.82-2.18-3.63-3.89-.84.61-.48,1.11-.53,1.55s-.13.84-.61.91-.8-.27-.94-.81c-.26-1.08-.06-2.93-2-.82-.53.57-2.47-.14-3.79-.26-.07.86,1,1.29.63,2.24a.76.76,0,0,0,.79,1c3.52-.78,4.17,2.17,5.54,4.19C100.25,256.69,100.79,257.32,100.62,257.94Zm28.63-113c.88-.48,1.62-1,1.3-2.13a2.2,2.2,0,0,0-.3-2.42c-1.39-1-.33-1.66.23-2.6a2.43,2.43,0,0,1-3.22-.58c-1.12-1.16.58-2,.36-3.14-1,2.15-3.86,2.79-4.14,5.52,0,.49-.25.92.24,1.27a1,1,0,0,0,1.31-.07,4.42,4.42,0,0,1,1.52-.63,1,1,0,0,1,1.24.85c.19.94-.54.73-1.07.8-1,.14-2,.33-3.07.47a3.34,3.34,0,0,0-2.66,4.35,1.87,1.87,0,0,1-.15,1.81,2.1,2.1,0,0,0,.31,2.61,3.65,3.65,0,0,1,4-1.67c1.55.26,2.58-.12,1.76-2.24-.66-1.71,1.21-3,1.72-4.51.22-.69,1.28-.13,1.93.18ZM81.13,458c.69-2.14-.19-3.09-2.37-2.93a2.37,2.37,0,0,1-2.62-1.18c-.43-1-1.36-1.26-2.11-1.81-1,.54.06,1.92-1.07,2.21s-1.58-.6-2.33-1c-1-.52-1.95-1.11-2.95-1.6-.29-.14-.63-.55-1.15,0,1,1,2.22,1.65,2.56,3.35.2,1,1,1.55-.44,2-.4.13-.4.45-.22.76s.52.28.81.09a8.31,8.31,0,0,1,1.41-.92c1.09-.42,2.27-.87,2.28,1.1,0,.38.1,1,.31,1.11,1.68.56,3.24,1,2,3.38-.16.3.63.16,1,.23a7.26,7.26,0,0,1,3.54,2.31c.38.37.91,1.75,1.79.46.63-.92,1.53-2,.34-3a2.16,2.16,0,0,1-.75-2.72,4.67,4.67,0,0,1,3.7,1.83c-.13-1.78-.35-2.86-1.71-3.32s-1.43.88-2,1.53C80.31,459.25,80.92,458.66,81.13,458ZM70.8,64.86c2.34-.84,2.88-2.17,1.82-4.5-.11-.51-1-1.49.09-1.39,1.51.15,1.58-1,2.29-1.59,1.84-1.64.63-2.39-.82-2.63-2-.34-4.05-1.2-6.16.42-1.08.83-3,1.07-3.39-1.39-.17-1.06-1.11-.76-1.27-.15-.51,2-2.23,1.27-3.39,1.81-1.67.78-3.45-.29-5.09.56a2.51,2.51,0,0,0-1.65,2.17c0,1.68-.61,1.52-1.76,1s-2,.13-1.35,1.14c1.25,1.82,0,2.95-.58,4.34-.27.62-1.5,1.39-.35,2s.85-.87,1.13-1.38c.9-1.63,1.58-3.45,4-3.2.67.07.76-.28.8-.85.18-2.22.52-2.56,1.93-1.25,1.7,1.58,2.35.07,3.48-.23-.25-.9-.86-.67-1.27-.84-.74-.3-1-.78-.58-1.49s1-.64,1.55,0c1.57,1.94,3.46,2,5.5.88.92-.52,2.08-.44,2.42.18,1.09,1.94,2.66,2.19,4.56,1.93C72.2,61.91,70.77,63.08,70.8,64.86ZM61.48,357.11c-.33.42-.89.78-.61,1.44.39.93,0,1.41-.89,1.53-1.18.15-1.19-.79-1.24-1.57a17,17,0,0,1,.08-1.86,1.16,1.16,0,0,0-1.59,1,19.35,19.35,0,0,1-2,5.59.84.84,0,0,0,.42,1.36c1.64.76.51,1.84.38,2.85-.09.74-3.18.5-.67,2.05-.19.24-.41.7-.57.69-2.83-.3-2.18,2.47-3.2,3.73-.75.93.48,1.72,1.31,1.64,1.64-.15,2.64.65,3.73,1.63a2.67,2.67,0,0,0,2.09,1c1.26-.16,1.73.41,1.72,1.64a1.36,1.36,0,0,0,1.2,1.33c1,.15,1-.86,1-1.32.3-2.32,2.65-3.6,2.93-5.92-1,0-1.48.9-2.13,1.5-.51-3.75.73-5.59,3.34-5.08-.16.33-.43.7,0,1a.58.58,0,0,0,.55-.17c.27-.47-.14-.65-.46-.84.45-.6,0-1.12-.25-1.54-.72-1-.25-1.58.7-1.64a1.18,1.18,0,0,0,1.07-1.83c-1.07-1.58.11-2.05,1.08-2.36,2.36-.75,2-2.64,1.89-4.31-.13-1.22-1-.93-1.69-.24a24.47,24.47,0,0,0-4.55,6.35c-.79-1-.24-1.78-.45-2.47-.1-.36.15-1-.3-1.06-2.85-.41-.86-1.74-.78-2.79.74.14.73.58.83,1s.06.88.61.87.65-.35.75-.79c.27-1.23.13-2.58.93-3.68-1.2-.53-.66-1.42-.1-1.77,1-.65,1.13-1.67,1.51-2.59s.66-2,1.1-2.91c.13-.28.64-.44,1-.53a2.4,2.4,0,0,0,2-2.4c-.16-2.58.66-4.94,1.08-7.4.1-.62.84-2.05-.5-2.21-1.15-.13-1.5,1.16-1.82,2.11-.11.33.6,1.06-.36.95-.72-.08-.75-.72-.49-1.31.06-.15.22-.25.27-.4.35-1,1.65-2.42.09-3.08-1-.44-2.08,1.06-2.41,2.13-1.27,4.12-3.55,7.87-4.24,12.18a8.53,8.53,0,0,1-3.31,5.39h-.17l.16-.05C62.6,354.41,62.7,355.56,61.48,357.11Zm40.4,60.44c-.53-.57-.71-1.07-.37-1.69a2.14,2.14,0,0,0,.09-2.6c-.6-.91.83-2.24,3-2.95-.56-.87-2.18-1.65-.27-2.77.46-.27-.16-.76-.39-1.16-.87-1.51-2-3-1-4.92.16-.28.1-1,0-1.1-1.79-.75-2.23-2.7-3.49-3.94-.78-.75-2.46-1.79-1.28-3.52a1.44,1.44,0,0,0-.06-2c-.7-.83-1.21-1.69-.14-2.71.64-.59.17-1.15-.36-1.6a6.91,6.91,0,0,0-3-1.29,2.9,2.9,0,0,0-2.58.93c-.58.51.13,1.6.68,2.09,2,1.78.86,4.22,1.42,6.29.15.58-.58,1.78-1.12,1.64-2.45-.66-2.35,1-2.6,2.5-.12.75-.91.92-1.55.78-2-.42-1.87.53-1.19,1.78.5.94,0,1.5-.6,2.08-.41-.13-.61-.8-1.21-.49,1.15.86-1,1.89.06,2.58s.43-1.12,1.22-1.07c.65.49,1,1,.4,1.82-1.16,1.58-1.25,3.48-1.43,5.34-.09.85,1.83,2.6-1,2.19-.31-.05-.23.78.09,1,2.84,1.87-.34,2.84-.73,4.12-.46,1.51-1.35.49-2.14-.14-1-.77-1.33.13-1.29.85a2.41,2.41,0,0,0,.87,1.66c2.6,1.7,3,3.84,2,6.71-.4,1.08.43,2.41,1.41,3.79-1.94-.35-3-1.52-4.59-2.16,0,.87.81,1.25.6,2-.16.54,2.9,3.5,3.45,3.44a.74.74,0,0,0,.54-.37c.24-.88.55-2,1.61-1.64.88.27,0,1.58.4,2.15,1.14,1.42.42,2.49-.42,3.62-.35.46-.76.95-1.38.71s-.21-.78-.15-1.23c.23-1.55-1-2-2.25-2.73-.14,2-1.11,2.21-2.57,1.21-.38-.26-.87-.59-1.27-.06a.92.92,0,0,0,.11,1.29c.57.59.28,1.39.28,2,0,3.35,0,3.34,3.23,3.4a7.61,7.61,0,0,0,5.83-2.23c.94-.93.11-2.3.85-2.89,2.32-1.86,2-5.18,4.17-7.08,1-.87.09-1.4-.45-1.88-.69-.63-1.18-1.63-.39-2,2.43-1.19,2.37-4.92,5.68-5.22,1.23-.11-.13-1.43.11-2.12,1.56,0,1,1.39,1.69,2.12.91-2.64,5-.34,5.43-3.81H106l-.18,0A3.11,3.11,0,0,1,101.88,417.55Zm31-290c.85.33.28.92,0,1.37a14.52,14.52,0,0,0-1.61,2.95c-.45,1.47-.92,2.74.42,4.14s.78,3.08.15,4.67c-.13.35-.46.78,0,1.05a.89.89,0,0,0,.85-.1c1-1.62,2.95-1.55,4.39-2.37,2.22-1.25,2.31-2.31.23-3.74-1.62-1.11-1.46-1.81.78-3.35,0-.53-.45-.57-.83-.69-1.42-.44-3.2-.65-1.52-2.83a1.35,1.35,0,0,0-.22-1.79c-1.72-1.15-2.94-3.6-6-2.3C131,125.44,131.44,127,132.89,127.56ZM46.82,410.69c.29-.12.68-.33.91-.23,2.54,1.15,3.88-.44,5.32-2.13.65-.77,1.63-1.64,1-2.39a4.56,4.56,0,0,0-3.18-1.43,5.2,5.2,0,0,1-2.48-.16c-.14-.07-.41-.17-.45-.12-1.37,1.79-3.39,1.28-5.29,1.62.77.48,1.56.92,2.3,1.44s2,.81,1.46,1.86-1.32-.46-2.26-.09C44.26,410.94,45.17,411.43,46.82,410.69ZM93.72,94.52c-.3,1,.19,1.44,1.1,1.21,1.73-.44,2.91.57,4.15,1.43.66.45,1.69.78.34,1.83-.94.73.26,1.37.64,2s.82.62,1.45.27c.79-.44.61-.79.28-1.51a2.9,2.9,0,0,1-.05-2.29c1.36-2.4-1.17-4-1.16-6,0-.46-.78-.94-1.35-.72-1.37.53-2.64,1.4-4.24,1-.1,0-.3.33-.41.46C94.2,93,94,93.76,93.72,94.52ZM56,315.06a1.32,1.32,0,0,0-.77-1.32c-1.39-.61-3,1.05-4.4-.43-.1-.11-.57.94-.53,1.61.14,2.69-.3,5.39.24,8.05C54.51,321.38,56.22,318.86,56,315.06Zm-1-4.83c1.92-2.63.44-5.31.56-8,0-.31-.18-.7-.05-.93s.54-.46.83-.68c-.1-.09-.19-.23-.31-.28-.44-.17-.94-.51-1.34-.42-.69.14-.63.83-.56,1.39.26,2-1.09,3.44-1.71,5.13-.41,1.13-.91,2.22-1.31,3.34a1.59,1.59,0,0,0,.32,1.71C52.68,312.37,54.08,311.44,55,310.23Zm103.37-91.66a6.79,6.79,0,0,1,1.32,4.23,6.61,6.61,0,0,0,1.4,3.61c.34.52.7,1.19,1.5.77a1.44,1.44,0,0,0,.66-2.05c-1.33-2.6-2-5.49-3.66-7.95-.38-.58-.77-1.39-1.51-.45A1.46,1.46,0,0,0,158.34,218.57ZM95.34,76.1C94,76,92,78.44,92.48,79.44c1.13,2.49,3.46,1.93,6.09,2C97,79.54,98.66,76.33,95.34,76.1Zm-5,73.83a2.84,2.84,0,0,0,3.31-1.07c1-1.3.23-2.87-.09-4.31-1.5.6-3.34.69-4,2.88C87.47,148.7,89.57,149.54,90.38,149.93Zm30.54-17.67c-1.59-1.5-3,.22-4.46,0-.5-.07-.12,1.42.11,2.11s.73.4,1.09-.06c.89-1.15,1.72-.86,2.57.09,1.18,1.34,2.92.86,4.26.79s0-1.94.9-2.74C123.77,133.41,122.12,133.4,120.92,132.26Zm-2.83,228.37c1-.12,2.14-.72,2-1.95s-1.36-1.43-2.44-1.31c-.78.08-1.53.38-2.3.53-.61.12-1.48,0-1.54.75s.79.89,1.33,1.2A4,4,0,0,0,118.09,360.63Zm-3.06-86c.7.17,1.21.38,1.58-.38s0-1.36-.68-1.79a6.28,6.28,0,0,0-2.72-.77c-.39-.06-.79,0-1.18,0-.93-.09-1.87-1.87-2.56-.63-.55,1,1.44,1.11,2,2A15.52,15.52,0,0,0,115,274.6Zm-4.92,137.57c-1.68.71-1,2.3-1.13,3.55,0,.41.77.63.72.42-.46-2.21,1.82-2,2.67-2.61,1.46-1.09.93-1.5.08-2.31-.38-.37-.73-.77-1.28-1.35C111.12,411,111.08,411.76,110.11,412.17Zm46.2-230.45c-1.38,1.73-1.22,5.35.45,7.79A7.42,7.42,0,0,0,156.31,181.72Zm-26.19,64.62c-3.18-1.23-6.48-.42-9.72-.47A18.76,18.76,0,0,0,130.12,246.34ZM59.74,236.25c-.16-1.37-2.07-1.59-3-1.18-2,.86.56,2.43-.88,4.1C57.76,238.06,60,238.33,59.74,236.25Zm87.19,37.49a10.83,10.83,0,0,1-3.94,3.49c-.3.16-.55.38-.37.75s.57.46,1,.4A3.23,3.23,0,0,0,146,277a9,9,0,0,1,3.59-3.57C148.52,272.92,147.56,272.85,146.93,273.74ZM52.6,327.31c.57.57,1.29-.16,1.35-.77.11-1.25,1.89-2.41.52-3.62-.81-.71-1.74.17-2.36.84A3.24,3.24,0,0,0,52.6,327.31Zm54.22,99.81c-.31,1.12.93,1.22.51,2-.28.49-1.6.81-.47,1.53a2,2,0,0,0,2.41-.18c.56-.49,1.48-.58,1.84-1.68C109.6,428.32,107.91,428.87,106.82,427.12ZM91.68,443.86c-.29.46-1.34.63-.72,1.48a1.61,1.61,0,0,0,1.48.65c.82-.1,1.19-.75,1.46-1.43.35-.88-.61-1.64-.15-2.66A3.64,3.64,0,0,0,91.68,443.86Zm13-92.89c-.77-3.11-2.29-3.79-5.27-2.32C101.4,348.79,102.91,350,104.66,351ZM83.53,80.46c0-.39.14-.8-.33-1a1.37,1.37,0,0,0-.65,0c0,1.84-3.3,2.46-1.68,4.83C81.87,83.17,83.74,82.58,83.53,80.46Zm5,28c.15.31,0,.91.52.87a.61.61,0,0,0,.47-.91c-.8-1.83,2.07-2,1.52-4C89.85,105.66,87.22,105.77,88.56,108.46ZM50.18,394a1,1,0,0,0,.42-1.44c-.75-.94-.62.54-1.1.49-1.73-.16-1.92,1.66-3,2.42C48,395.53,49,394.61,50.18,394Zm54,35.09a.75.75,0,0,0,1.27-.48c.06-.91.88-2-.06-2.72a1.15,1.15,0,0,0-1.87.55C103.46,427.28,103.28,428.36,104.22,429.08ZM66.38,331.45c0-.59,0-1.41-.65-1.33-1.56.22-1,1.93-2.13,3.05C65.41,333.18,66.41,333,66.38,331.45Zm-8,62.44a.56.56,0,0,0,.19,1c.43.15.74-.13.89-.56.42-1.19.86-2.37,1.49-4.1C59.35,391.43,59.41,393,58.34,393.89ZM67,70.55c-.25.49-1.16,1.08-.33,1.59.61.38,1.13-.37,1.52-.88a2.13,2.13,0,0,0,.2-2.73A19.21,19.21,0,0,0,67,70.55ZM62.74,444.28c.16-.95,1.06-1.89.09-2.84-.1-.1-.75.09-.8.26-.36,1.06-1.1,2.21.33,3.15C62.49,444.65,62.71,444.48,62.74,444.28Zm54.87-98.59c-.55.43-.25,1,.28,1,.69.05,1.56.91,2.09-.18a1.59,1.59,0,0,0-.38-1.78C118.62,344.38,118.18,345.24,117.61,345.69ZM57.16,291a.9.9,0,0,0-.62.11c-.33.3-.39.85,0,1,1,.53.88,1.62,1.37,2.56C59.33,293,57.68,292.08,57.16,291ZM88,382.71c-2.05-.49-2.05-.49-1.9,2.74A6.42,6.42,0,0,1,88,382.71Zm.24-306.86c.4.33.84-.13,1.06-.58s.86-.94.25-1.45-1.06-.19-1.51.27A1.47,1.47,0,0,0,88.25,75.85Zm-7.9-2.2c-.43-.34-.76-1.38-1.42-.42-.47.66.31,1,.79,1.16.78.32,1.4,1.08,2.71.88ZM60.56,338.92c-.28.51-.55,1.17.14,1.45,1.1.44,1.39-.83,2.09-1.26.52-.32.21-.84-.34-1.14C61.53,337.64,61,338.16,60.56,338.92ZM82,323.21a.52.52,0,0,0,.95-.07c.51-1.12-.77-1.36-1.13-2.06a.6.6,0,0,0-1,0C80.78,322,81.64,322.49,82,323.21Zm-42.46-5.82c-1.54.05-1.94.91-1.73,2.21ZM91.87,103.27a.65.65,0,0,0-.45-.94,1,1,0,0,0-.84.17c-.38.39-.08.69.29.92S91.65,103.72,91.87,103.27ZM48.47,368.15c0,.07.31.4.41.37a1.08,1.08,0,0,0,.81-1.18A1.08,1.08,0,0,0,48.47,368.15Z" fill="#9bb0aa"/>
        <path d="M139.35,186.36c-.33.44-.58,1-1.3.85-2-.47-4.08-.29-6-1.34s-4-.3-3.92,1.69a13.23,13.23,0,0,0,1.08,5c2.41,5.06,5.64,9.62,8.71,14.27a3.29,3.29,0,0,0,4.71,1.17c1.29-.8,2.55-.39,2.37,1-.33,2.53,1.19,2.14,2.61,2.11.52,0,1.11-.45,1.52.61a49.39,49.39,0,0,1-9.25,3.79c-2.74,1-5.36-.3-8-.52a3.19,3.19,0,0,1-3.23-2.61c-.15-.57.11-1.27-1-1.16-.93.1-1.1.47-1.3,1.27s.28,1.8-.79,2.35c-2.76,1.43-7-.43-8-3.49-.56-1.64-3.12-3.22-3.36-2.93-1.66,1.94-2.31-.13-3.35-.51-.61-.23-.9.28-1,.76-.11.68-.5,1.83.3,1.92,2.29.26,1.8,2,1.92,3.29.21,2.15,1,3.46,3.33,3.64,1.24.1,2.41.66,3.75.29.6-.17,1.86-.18,1.14,1.23a.94.94,0,0,0,.32,1.28c1.93,1.33,3.15,3.89,6.06,3.52a1,1,0,0,1,1,.45c.28.5-.23.67-.54.88-1.77,1.18-3.53,2.37-5.33,3.51-.31.2-.95.37-1.13.2-1.85-1.69-5-1.89-6.13-3.74-1-1.7-1.22-3.9-3-5.44-.88-.75-5.45-2.56-5.78-1.49-.7,2.26-2.67,4-2.34,6.72.15,1.2,1.32,2.58,0,3.79-1.57,1.42-.13,1.71.8,1.93.75.17,1.67-.31,2.37-.07,3.06,1,5.79.9,8.11-1.81a6.78,6.78,0,0,1-1.13,2.23c-1,1.24-.12,2.37.33,3.36.57,1.25,1.71.31,2.57.18a14,14,0,0,0,2-.74c.45-.15,1.27-.27,1.25.22-.12,2.64,2.35,3.22,3.64,4.7.69.8.69,1.24-.27,1.55-2.08.69-3.82,2.38-6.3,1.88a1.57,1.57,0,0,0-1.89,1.15c-.18,1.18.92,1,1.62,1.3,1,.38,2.28-.09,3,1.49-3.54-.41-6.77-1.59-10.59-1.49,1.24,1.29,3.11,2.24.52,3.41-.64.29-.18,1.15-.2,1.28-4-2.45-8.19-4.8-12.11-7.57-5.86-4.15-11.71-8.23-18.84-10-.7-.18-1.72-.12-1.6-1.35.18-4.87-.67-9.59-1.51-14.38-.51-2.88-.68-5.91-1.2-8.85-.2-1.12-.55-1.4-1.67-1-2.93.9-5.79,2-8.65,3.09-5.65,2.14-11.36,4.1-17,6.13-.8.28-1.81.46-1.9,1.41s1.06,1.28,1.76,1.73c2.9,1.87,5.83,3.69,8.75,5.53-.43.64-1.32-.24-1.71.52-2.5-1.65-5.43-1.77-8.23-2.35-1.07-.3-2.17-.53-3.22-.9-3.51-1.23-7.16.48-10.67-.54a.75.75,0,0,0-1,.75c-.16,1.92-1.92,2.21-3.15,3-1,.6-1.57.29-1.23-1,.27-1,.51-2,.82-3s-.54-1.42-1.2-1.74-1.27-1.52-2.25-1c-.77.44-.71,1.34-.54,2.18a3.76,3.76,0,0,1-1.4,4c-.44-1,.25-2.34-1-2.59s-1.06,1.23-1.69,1.72c-1.23,1-1.56,2.58-3,3.45A4.51,4.51,0,0,0,14,230.17c1.79-1.16,3.19-2.12,4.38.51.72,1.59,2.64,1.47,3.69,0,.69-.93,1.24-2,1.85-2.95.52,3.48-.22,6.64-.91,9.82-.45,2.08.6,3.73,2,5.07,1.61,1.53,1.72-1.16,3.59-1.48-2.47,2.62.75,3.2.79,5,.55-.52.76-1.28,1.24-1.54,1.36-.74,3-1.59,4.37-.59,1.12.85-.36,1.89-.77,2.81-.67,1.52-2,2.84-1.93,4.58.12,3.15.37,6.3.71,9.44.24,2.27-.67,4.85,1.73,6.63.68.51.12,1.34-.25,2s-1,1-.63,1.87c1,0,1.61-2,2.61-.74a1.94,1.94,0,0,1-.56,2.91c-.58.41-.49,1,0,1.66,2.08,2.56,1.5,5-1.5,6.74a1.14,1.14,0,0,0-.54.73c-.32,2.82-1.65,5.26-2.91,7.73.22-.15.28-.38.42-.54.85-1,1.11-3.43,2.85-2.55s.22,2.51-.5,3.63.08,1.54.85,2,1.35-.57,2.05,0c-.16.72-.34,1.66-1,1.81-1.36.3-1.66,1.08-1.7,2.3,0,.69-1.3,1.39-.23,2s.78-1.2,1.64-1.14c1.28,2,1.28,2,.21,4.31-.23.51-.46,1-.7,1.52s-.49.92.06,1.26.77,0,1-.35a3.16,3.16,0,0,1,2.88-1.21A2.29,2.29,0,0,1,37.11,306a2.64,2.64,0,0,0-1.67,3.44c.75,2.85.4,5.81.9,8.72a14.87,14.87,0,0,1-.73,5.58c-.22.83,0,1.39.68,1.45,2.13.18,1.21,1.39.81,2.31-.55,1.27-1.16,2.87-.53,3.85s.45,1.91.4,3c-.07,1.57-1.34,2.48-1.92,4.06.69-.2,1.46-.76,1.67-.16.54,1.51-1.62,1.76-1.56,3,.46-.78,1-.61,1.94-.36,1.1.3,2.24.49,2-1.79-.18-1.56-2.07-2-1.51-3.63,1.37-3.95,1.11-8.18,2.14-12.2.2-.81,1.06-1.16,1-2.09-.34-2.83,1.62-5.38,1.06-8.29-.11-.52.58-1.07,1.08-1.51.95-.82,1.39-2.2.57-3-1.93-1.81-1-4.27-1.52-6.32-.64-2.35.08-5.4.67-7.86.76-3.15,0-6.16.42-9.24.35-2.49,1.24-5.24,3.52-6.41.67,1.76-.58,3.18-1.34,5l2-1.08c-.33,2.43,1.34,5-1.15,6.92-.26.2-.09.54.05.86.69,1.58.11,3.27.35,4.9H46c.19.42.27.11.37-.05,2.12,1.66.88,4.2,1.08,6.13.27,2.6,0,5.09,1.7,7.35.58.77-1.17,4.78-2.12,5.07-.65.2-1.43.58-1.8-.47-.19-.54-.43-1.19-1.1-1-.95.21-.95,1.53-.76,1.77,1.66,2-1.85,4.9,1.1,6.67,0,0,0,.33-.1.43a2.37,2.37,0,0,0-.25,3.21c1.52,2.41-1.84,5.41.72,7.87.1.09-.41.8-.6,1.23s-.69.81.31,1.26a4.3,4.3,0,0,1,1.55-2.25c1.34-1.32,4.11-1.29,4.32.09a10.57,10.57,0,0,1-.36,5.25c-.69,1.8-2.21,3.28-.55,5.25.49-.69,1-1.45,1.57-2.19.35-.48.64-1.33,1.44-.75A1.84,1.84,0,0,1,53.1,342c-.13.62-1.25.57-.94,1.45,1.82-.18,1.78-.19,2.33-1.62s.66-3.15,2.66-3.4c.52,1.45-1,2.49-.7,3.51.54,1.6-.12,2.36-1.16,3.25a.83.83,0,0,0,.19,1.42c.63.3,1-.19,1.36-.67.71-1.07.71-2.47,1.61-3.46.27-.3.52-.63,1-.4a.68.68,0,0,1,.31,1c-.85,1.44-.45,3.13-1.34,4.71-1.73,3.07-2.27,6.64-2.69,10.15-.06.5,0,1-.59,1.18-1.73.68-2.13,2.22-2.6,3.79a6.68,6.68,0,0,1-1.34,2.24,1.26,1.26,0,0,1-1.55.31c-.69-.39-.28-.95-.07-1.46.33-.82.65-1.64.92-2.48a.53.53,0,0,0-.37-.75c-.36-.1-.82.12-.75.37.55,1.91-2.43,2.94-1.19,5a.49.49,0,0,1-.64.67c-1.15-.52-1.69-2.19-3.35-1.8.89-1.34-.58-3.22.73-4.31,2.95-2.45,1.44-5.79,2-8.71.08-.39.08-.87-.46-.93s-.63.38-.64.79c-.12,3.66-2.15,6.84-2.57,10.43-.14,1.21-.84,3.05-1.73,2.9-2.28-.39-1.55,1-1.83,2.07s-.65,2,.29,2.85c1.12,1,1.68-.09,2.4-.62a.75.75,0,0,1,1.2.26c.17.31.08.78-.23.82-2.94.36-1.77,3.6-3.58,4.89,1.06-.32,1.73-.61,2.75.26a5.51,5.51,0,0,0,3.84.84c.64-.07.31-1.55.32-2.41,0-.28.17-.71.38-.79.44-.19.63.24.9.54.7.78.09,1.95.85,2.66,3,2.85,2.38,6.43,2,10-.08.66-.15,1.59-1.21,1.42a1.15,1.15,0,0,1-1-1.61c1-2.15-.88-4.38.32-6.51.42-.76-.15-1.43-.81-1.79-.9-.49-1,.49-1.37.9l-.55-.09c.1.16.21.32.32.47a1.09,1.09,0,0,0-.42,1,.31.31,0,0,0,.22,0c.45-.29.29-.67.15-1l.27-.44c1.3.84.66,1.8.1,2.68-.72,1.14-1.45-.06-2-.23-1.88-.56.91-1.4-.25-2.26-1.27.8-2.26.07-3-1.15-.3-.47-.66-.74-1.17-.43a.76.76,0,0,0-.27,1.06c1,1.09.75,3,2.55,3.52,1.25.34.94,3.09,3.13,2.06a3,3,0,0,1,.24.38c.51,1-.39,7.38-1.15,8.23a3.64,3.64,0,0,1-2.14,1c-1,.2-2.1.22-2.67,1.31l-.11,0c-3.33-2-6.78-.7-10.14-.2a20,20,0,0,0-3.07.54c-3.18,1-5.16,3.64-7.89,5.18-.53.3-.95,1.07-1.64.69-.84-.46.46-1.19-.07-1.93-5.94,3.17-12.41,4.11-18.91,5.34A28.22,28.22,0,0,0-1,410.49a38.05,38.05,0,0,0-8-2.78,2.21,2.21,0,0,1-1.59-1.85c-.5-1.78-3.12-3.1-4.37-2-1.5,1.29-2.64.56-3.94.1s-2.68-1.09-4.05-1.53c-3.11-1-3.41-.74-2.77,2.4l-3.14-1.88c.05-.83.91-2.07.25-2.33s-1.88.44-2.85.73c-3.62-2.22-7.25-4.43-10.87-6.66-4.93-3-9.86-6.07-14.76-9.16-.53-.33-2-.72-.9-1.59,1.61-1.24,2.16-3.23,3.88-4.42a43.89,43.89,0,0,0,7.14-5.9c1.47-1.55,3.36-3.13,5.77-3.39,2.72-.3,3.59-2.27,4.09-4.52.24-1,.39-2.14,1.45-2.59,2.7-1.16,5.23-3.09,8.52-1.65.71.31,1.79-.14,2.76-.51,1.68-.63,2-2.1,2.84-3.18,2.43-3.08,5.47-5.85,6-10.11.08-.67.69-1.16,1.24-1.67,3.4-3.13,5.54-6.77,4.66-11.69a16.71,16.71,0,0,1,.37-5.39,31.3,31.3,0,0,0-.46-11.7c-2.14-9.36-6.19-18.13-8.63-27.44-1.53-5.87-3.93-11.54-5.12-17.53-.86-4.34-2.23-8.59-2.56-13-.27-3.55-1-7-.12-10.71.53-2.37-.9-5.45-2-8.11-.77-1.9-1.54-3.83-1-6.19.3-1.26.64-3.29-.17-4.39-1.54-2.11-3.06-4.47-5.37-5.77s-3.24-2.9-3-5.35a9.79,9.79,0,0,0-.33-2.81c-.63-3.39-.86-6.71,1.52-9.64.38-.48.44-1.2.78-1.72,2.62-4,3.46-8.91,6.63-12.57a28.1,28.1,0,0,0,2.68-3.68,4.08,4.08,0,0,1-.47,4,14.93,14.93,0,0,0-2.36,4.65c3.32-1,3.27-5.08,6.5-5.86a11.33,11.33,0,0,1-2.43,6.68c-.54.68-1.22,1.56-.09,1.84.79.2,2,1.68,2.84-.08.3-.59.44-1.73,1.32-1.39s0,1.26.06,1.92c.09,1.56-.65,2.48-1.76,3.62-2.12,2.18-4.31,4.43-5.34,7.47-.38,1.13-.29,1.88,1,1.61.89-.19,1.25.05,1.38.76.57,3,2.37,5.59,2.36,8.71A6.42,6.42,0,0,0-21.12,227c.45.43.84.92,1.65.68,2.77-.83,4.54.69,6,2.74.27.38.48,1,1,.65s.2-.84,0-1.32a17.45,17.45,0,0,0-2.78-4.95c-2.22-3-2.48-6.52-2.52-9.85,0-2.45,1.4-5,2.48-7.35.35-.78,1.16-1.05,2.74-.67,2.94.7,1.88,2.32,2,3.8.23,4.63,3.67,7.91,8.17,9.36,2.39.78,4.9.58,7.14,1.65-.38-2.54-.19-2.7,2.56-2a1.57,1.57,0,0,0,1.49-.6A6.42,6.42,0,0,0,10,216.76c.89-1.91,1.21-2.9-1.19-4.52a45.71,45.71,0,0,0-6.22-3.73c-1.51-.71-2.08.45-3.08.2-.17,1.23,1.89,1.13,1.09,2.49-.31.53-.75.48-1.25.45-1.72-.1-.78-1.48-1-2.21-.71-2.68.94-5.26.53-8-.07-.45,1.07-.75,1.64-.63,1.25.26-.55,1.21.41,1.74.83-1.16,1.21-3.12,3.42-2.46a4.89,4.89,0,0,0,.87-2.31c-.29-4.22-.82-8.39-3.59-11.89a9.58,9.58,0,0,0-3.72-2.58c3.78-1,7.51-2.31,11.35-2.89,2.29-.35,2.44-1.17,2.35-3.07-.22-5-.64-10,.2-14.87A159.4,159.4,0,0,0,14,137.94a19.1,19.1,0,0,1,11.1-17.18c1.73-.82,3.52-1.44,5.27-2.11,3.77-1.45,7.1-3.78,11-4.93,3.36-1,3.69-2.7,1.71-5.77a4.47,4.47,0,0,1-.47-1.33,18.34,18.34,0,0,1,.29-10.88c.65-1.82.35-2.54-1.18-3.41C39,90.74,39,90.32,40,87.26c.65-2,1.28-4.31,0-6a19.19,19.19,0,0,0-3.24-3.4c-1.2-1-1.34-1.89-.38-3.18,3-4,5.84-8,8.74-12,.62.19,1.09.17.94-.69l.75-1.1c1.15.53-.26,1.44.31,2.08.64.32,1.5-1.36,1.9.07a1.39,1.39,0,0,1-1.37,1.63c-.69.07-1.37.25-1.54.94-.45,1.7-1.71,2.89-2.54,4.34-1.32,2.27-.64,3.82,2,4,2.07.15,4.31-1.27,6.12.87.14.16,1.05-.06,1.32-.36.81-.91,1.26-.47,1.89.2a9.16,9.16,0,0,0,1.93,1.44c.88.56,1.66.41,1.63-.76-.06-2.37,2.21-3.89,2.15-6.28,0-.68.76-.91,1.51-.79a1.49,1.49,0,0,1,1.33,1.7c-.12.63.09,1.92-.92,1.9-2.38,0-1.36,1.92-1.14,2.4,1.14,2.53,1.9,5.56,5.49,5.88.7.07,1.53,1.14,1.94-.15.27-.81.13-2-1-2.1s-.62-.56-.36-.93c.72-1,1.62-.21,2.41-.09s1.24.63.91,1.4c-1,2.32.71,3.71,1.73,5.33.24.37.86.48.92,1,.24,2.19,1.86,2.32,3.51,2.26.39,0,.78-.21,1.1.09,2,1.93,3.36,1.26,4.19-1.36.53,1.85,1.39,2.29,2.86,1.3a16.21,16.21,0,0,1,2.53-1.36c1.94-.86,4.4,0,4.65,1.88s.68,3.83,0,6c-1-1.23-.83-2.77-2-3.48-.34-.19-.69-.53-1.08-.24s-.29.67,0,1C90.6,93,89.73,95,89.07,97c.63.79,1.5-.65,2.13.23-1.35,2.57-1.36,2.58-3.74,1.39-.81-.41-1.6-.9-2.24.24-.23.42.67,3.88,1.11,4,2,.62,1,1.76.54,2.83-.56,1.43-1.86,1.37-2.44.54-1.33-1.89-3.72-2.68-4.72-4.83-.21-.45-.46-.91-1-.85s-.58.69-.54,1.14c.12,1.4-.1,2.91,1.17,4a1.63,1.63,0,0,1,.13,2.55c-1.31,1.41-1.12,3.47-2.3,4.95-.36.45-.14,1.94.35,1.81,3.14-.79,4.48,2.78,7.3,2.82,1,0,2.14.4,3.26.38s1.73,1.74,2.52,1.41c1.57-.64-1.1-1.65,0-2.8.89-1-.12-.87-.76-.79-1,.12-2.48.1-2.26-1,.32-1.61-.67-4.09,2.12-4.64.44-.09.62-.44.81-.81.3-.6-.07-2.12,1.17-1.49,1,.51,2.76,1.43,2.31,2.66-.85,2.32.23,3.49,1.69,4.81.54.48.46,2,1.31,1.69,1.87-.8,2.56.75,3.73,1.34a9.7,9.7,0,0,0,4.47,1.43,2.41,2.41,0,0,1,2.22,1.18c1.73,3.68-1.11,8.75-5.07,9.26a23.79,23.79,0,0,0-2.29.66c-2.41.52-4.15,2.32-6.29,3.28-6,2.68-11.56,5.61-14.67,11.91-1.28,2.58-3,4.82-.54,7.55.74-.3.68-1.15,1.05-1.73s1-1.13,1.3-.72c.89,1.19,2.74.2,3.44,1.77a.67.67,0,0,0,1.25-.3c.19-1.73,1.86-1.59,2.71-2.69.53,1.68-1.82,2.16-1.14,3.3.58,1,2.22.85,2.88,2,.81-.72.57-1.5.73-2.18.12-.51.38-.91,1-.9a.83.83,0,0,1,.83,1c0,.83.51,1.8-.43,2.46-1.14.81-1.13,2.06-1.25,3.24-.09.83-.63,1.84.42,2.4a2.44,2.44,0,0,0,2.88-.57c1.47-1.45,3.51-1.14,5.17-1.93.37-.17,1-.33,1.34.13s-.14.88-.32,1.3c-.34.76-1.16,1.33-1,2.62,1.46-1.59,2.82-.39,4.14-.05s1.71.21,1.86-1.19c.29-2.73.73-5.44,2.92-7.44.26-.24.72-.87.77-.58.48,2.62,1.74-.79,2.39.42-.89,1.62-1.8,3.34,1.07,4.05v0c-.32.86-1.2,1.72-.21,2.61a3.57,3.57,0,0,1,.83,5,21.57,21.57,0,0,1-3.79,4.61,1.21,1.21,0,0,0-.17,1.85c.62.87.89.16,1.45-.19a3.52,3.52,0,0,1,4-.17,5.73,5.73,0,0,0,2.42,1,2.87,2.87,0,0,1,2.4,3.22c0,1.84,1.06,2.43,2.31,2.88.78.28,1.47-.51,2.11-1s.48-1.05-.28-1.4a1,1,0,0,1,.19-.59c.37-.34.72-.13,1,.17,1.29,1.29,2.22.71,3.29-.43,2-2.11,3.6-4.62,6.94-5.19a2.3,2.3,0,0,1,2.36.86c.87.82-.08,1.18-.53,1.69-.95,1.11-1.86,2.25-2.78,3.38-.91-.21-.36-1.89-2-1.5-2.17.5-3,1.78-3.6,4a2.21,2.21,0,0,1,2.54.05c2.13,1.24,1.78,3.51,2.77,5.17.39.63.45,1.39,1.3,1.18a1.34,1.34,0,0,0,.92-1.72c-.15-.69-.92-1.74.55-1.74,1.14,0,1.21.91,1.11,1.94-.11,1.2.1,2.41,1.78,2.4ZM70,150.5l-.17-.42a13.91,13.91,0,0,0-3-4.55c-1.1.28.58,2.12-1.24,1.91-.28,0,.08,1,.17.9,2.29-1.54,2.75,1.15,4.09,1.73Zm-6.38-29.45a2.23,2.23,0,0,0-1.66-1.24c-.33-.1-1.15-.25-.74.59.78,1.59-.81,1-1.24,1.26-.72.5-1.06-.19-1.31-.85a6.91,6.91,0,0,0-1.11-2.37c-.7-.71-1.26-2-2.91-.8-.76.57-2.52,0-3.73-.34-.71-.2-.7-1,0-1.5.53-.39,1.32.07,2-.94-1.15-.22-1.79-1.15-3.18-.3s-2.78-.16-4-.64-1.09-.38-1.11.75c0,.83,1.07,2.61-1.51,2.35-.65-.07-1.55,2.34-2.45,3.79.22-1.73-.89-1.36-1.69-1.08-1.11.39-2.49.94-2.32,2.31.12,1-.57,3.14,2.18,2.41,1.24-.32,1.13,1.18.69,2.14-1.08,2.39-.67,2.89,2,3.43.95.19,3.86-.5,2.09,2.44-.25.41.52.68.91.93a43.16,43.16,0,0,1,4.17,2.71,1.75,1.75,0,0,0,2,.4c3.16-1.34,5.52.8,8.12,1.85.77.31.16.94-.1,1.4h-.18l.17,0c1.5,1.56,3.36.49,4.92.38,2.47-.18,4.84-.42,7.23.41.8.27.85-.46,1-1,.48-2.14-.94-5.21-3-5.88-2.73-.88-5.13-2.94-8.27-2.45l-3.24.06a.77.77,0,0,0-1.13-.22l-.75-.47a10.42,10.42,0,0,1-5-5.12c-.6-1.42-.3-2.83.76-3.42s2.19-.14,3.12,1.24c1.26,1.88,3.11,3.38,5.73,3.07.72-.08,1.57-.23,2,.45,1.79,2.86,4.58,4.56,7.44,5.88,2.56,1.18,2.87,4.05,5,5.42,1.32.84,2.21,2.25,3.68,2.95.8.38,1.53,1.08,2.31.1s.83-2.36.19-2.85c-3.12-2.39-5.13-5.79-8-8.35-1.34-1.63-3.61-2.11-4.8-3.91,2.08-1,.28-2.36.39-3.54-1.34-.08-2.09-2.11-3.75-1.14ZM-14.82,378.26c-.36-.41-1.21,0-1.6.62s-.07,1.05.47,1.55c2.11,2,4.38,1.8,6.82-.73a1.81,1.81,0,0,0-2.13.14h0C-12.15,378.74-13.82,379.4-14.82,378.26ZM76.72,92.53c-1.32.64-2.14-.58-3.41-1.71.25,1.93-.64,3.32,0,4.84a1.1,1.1,0,0,1,0,.88c-1.86,2.62,1.16,2.76,2.1,3.53s2.2-.4,2.3-1.56c.15-1.7,1.18-2.93,1.75-4.39a3.69,3.69,0,0,0,.72,1.67c.64.74,1.33,2.1,2.21,1.37,1.27-1-.4-2.06-.82-3-.56-1.28-1.42-1-2.11.05C79.53,91.64,79,91.4,76.72,92.53ZM28,139a2,2,0,0,0,.37,2.82c1.21,1,.45,1.65.14,2.63-.39,1.28-2.33,2.91.46,4,.45.18.31,1.25-.17,1.72s-.54,1.59-.81,1.8c-2.35,1.88,0,5.37-2.53,7.08a.77.77,0,0,0-.21.38c2.46,1.9-.32,3.41-.5,5.08-.2,1.92.2,3.83-.19,5.72-.21,1-.64,1.89.9,2.47,1.17.43.51,2.11,1.27,3.66,1.05-2.12,2.83-3.33,2.56-5.64a.71.71,0,0,1,.32-.58c3.17-.69.07-2.82.93-4.05.06-.08-.12-.52-.45-.29-1.93,1.34-1.4-.49-1.51-1.25s-.35-2,.6-1.92c.79.11,2.71-.54,2.38,1.69,2.29-2.67,2.1-3.33.57-7.44-.52-1.38,0-3.27-.74-4.82,2.45.06,1-2.69,2.4-3.35.39,5,1.92,9.76,2.27,14.74,0,.5-.28,1.4.9,1.63s1.21-.58,1.53-1.1c1.17-1.89,2.29-3.83,4.29-5,1.68-1,2-2.69,2.66-4.29,1.7-4.14,3.53-8.22,5.32-12.32.18-.43.62-.89,0-1.21-.8-.4-1.43-1.5-2.46-1.08-3.38,1.4-6.79.9-10.24.41-3.61-.51-4.84.64-4.76,4.25a2.28,2.28,0,0,1-.21.69c-1.76-1-1.39-2.77-1-4.09.76-2.55-1-3.63-2.19-5.44-.75,1.68.22,2.69.35,3.83h0C29.43,139.68,28.86,138.14,28,139Zm28.55,45.2c.56,1-.31,1.59-.66,2.35-.15.33-.16.67.19.82.59.27.7-.18.69-.59,0-.57-.12-1.14.31-1.6.66-.71,1.52-1.15,2.33-.52a1.31,1.31,0,0,1,0,2.25,6.77,6.77,0,0,0-1.87,2.51,4.54,4.54,0,0,0,3.08-1.94,6.76,6.76,0,0,1,2.14-2.25,1.49,1.49,0,0,1,1.78.07c.77.56.35,1.09,0,1.65a7.08,7.08,0,0,1-2.51,2.84c-1.82,1-3.06,2.65-4.84,4.76,2.59-.38,4.42-.75,5.78-2.38.46-.55.76-1.43,1.34-1.66,3.21-1.24,5-3.37,5.24-6.92.05-.87.72-1.69,1.73-.36.72,1,2,.29,3,.4.65.06,1-.76.73-1.47a1.5,1.5,0,0,0-.76-.87c-3.21-.89-4-4.44-6.68-6-1-.57-1-1.09-2.07-.22-2,1.62-3.42,1.18-4.88-1.14A7.45,7.45,0,0,0,60,173c-2.09,1.07-2.38-.66-3-1.88a.55.55,0,0,0-.4-.24c-1.07-.05-1.54,1.94-2.93.87a13.8,13.8,0,0,0-.23,2.66c-.1,1.93.86,3.84.07,5.78-1.06,2.62-.86,2.84,1.94,2.63a6.58,6.58,0,0,1-1.65,3.37c-.37.07-.93-1.17-1.08.07-.09.73.47,1.58-.57,2.06-.86-.49-.39-1.31-.51-2a2.18,2.18,0,0,0-3.43-1.67,3.67,3.67,0,0,1-1.28.64c-.93.1-1.82-.16-1.24,1.46.32.9-.82,1.37-2.08.88-.58-.23-.9,0-1.21.45-1.77,2.32-3.81,4.45-4.68,7.35-.3,1-.52,2,.47,2.59.84.5,1.58-.22,2-.88,1-1.64,3.41-.43,4.46-2.19.23-.39.55.43.65.89.19.82,0,2,1.13,2.16s.79-1.16,1.32-1.71c2.12-2.24,4.54-4.24,5.4-7.47a25,25,0,0,0,.64-2.72C55.29,186.36,54.93,183.84,56.55,184.2ZM15.85,366.06c-1.28,1.68-3.61,2.61-4.08,4.71s-2,3.7-2.94,5.57C7.55,379,5.46,379.83,3,380.18a3.9,3.9,0,0,0-3.27,2c-.64,1.09-1.91,1.06-3.28,1.26-2.9.42-5.78-1.07-8.61.22a3,3,0,0,1-2.83-.29,1.27,1.27,0,0,0,1,1.58c1.36.11,1.93.46,1.33,1.91-.24.59.14.82.8.6A9.81,9.81,0,0,1-9.8,387a1.74,1.74,0,0,1,1.85,1.24,1.27,1.27,0,0,1-.85,1.9c-2.1.7-1.54,2.56-1.82,4-.06.33.35.46.68.53,2.16.46,3.37,3.63,6.22,2.13,1.41-.74,2.84-1.62,4,.54.2.36,1.27.51,2.18.08.51-.25,2.05-2,2.61.28.46-.18,1.09-.24,1.35-.58s0-.9-.58-.83c-.46.05-.8,0-1-.45s-.12-1.37.38-1.51c1.75-.51,1.27-3.62,3.46-3.14a8.1,8.1,0,0,1,3.76,2.32c.88.91-.69,1.77-.7,2.74,2.29-1,3-4.86,1.14-6.57-1.09-1-1.76-2.72-3.92-1.73-.71.32-.62-.79-.45-1.42.8-3.05,2-6,2.51-9.12a8.1,8.1,0,0,1,4-5.44c.73-.43,1.66-.55,2.07-1.48.17-.38,1-.44.94-.17-.35,2,2.33.91,2.45,2.45,0,.45.51.14.75,0a11.27,11.27,0,0,1,2.42-.76c2.71-.69,2.95-1.53.55-3-.17-.1.4-1.2-.6-.42s-2.45,1.83-4.15.8c-2.35-1.45-2.74-2.72-1.35-5.11a4.31,4.31,0,0,0,1-2.48C17.31,362.91,16.86,364.72,15.85,366.06ZM.23,252.33c-1.88.24-1.34,2.22-1.33,3.61a.88.88,0,0,0,.87,1c3.05,0,1.23,1.3.54,2.19-.48.62-1.28,1-1.65,1.71s.34,1.51.71,2.08a1.39,1.39,0,0,0,1.94.27c1.23-1.26,2.2-1,3.24.51.94-2,.32-3.42-.63-4.84-.39-.6-.94-1.36-.15-1.92.95-.67,1.14.44,1.55.94,1.47,1.77,2.3,4,3.9,5.66.78.82.33,1.81,0,2.72-.35,1.12-.1,2.29,1,2.5s2.36.08,2.3-1.8c0-1.31.9-2.58.56-4-.28-1.16.16-2.67-2-2.82-.93-.07-1.08-1.59-1.23-2.57-.44-3-2.74-5.05-3.59-7.81a.69.69,0,0,0-.94-.49c-.79.27-1,.9-1.11,1.68-.22,1.72-.55,3.41-2.43,4.74C1.74,254,1.86,252.13.23,252.33Zm16.52-33.68c.19-1,.18-1.47-.81-1.8a4.45,4.45,0,0,1-2.13-1c-.89-1.22-1.74-1-2.6-.22a2.22,2.22,0,0,0-.2,3c.42.65.84,1.33,1.31,2s.62.93-.37,1.22c-.6.18-.69,3.74-.13,4.08,1.1.66,1.55-.25,2.26-1.24C13.43,222.21,16.31,221,16.75,218.65Zm54.37-55.23c-2.93-2,.07-4.64-1.36-6.54-2.56,1-3.43,3-2.44,5.45.68,1.68,1.09,3.48,1.81,5.14.28.65,1.08,1.06,1.73,1.67C72,167.13,71.94,164,71.12,163.42Zm-56,79.07a1.48,1.48,0,0,0,.54-1.72c-.7-2,.07-2.85,1.91-3.29a1.18,1.18,0,0,0,.91-1.49c-.28-.87-.43-1.93-1.6-2.21-.79-.18-1.16.29-1.54.85-.89,1.3-1.57,2.66-3.19,3.44-1.38.67-.65,3,1.14,4.12A2,2,0,0,0,15.08,242.49ZM60.57,114.66c.64,0,.81.52.54,1-.63,1.18.37,1.52,1,1.63a1.62,1.62,0,0,0,1.94-1.3c.41-2.33-1-4.41-1.08-6.69,0-.45-.69-.46-1-.2-.83.71-1.59,1.51-2.49,2.39C59.81,112.54,57.49,114.37,60.57,114.66Zm8-20.92a6.62,6.62,0,0,1,3.21-3.89c-.65-1.29-2-1.11-2.91-1.58a.85.85,0,0,0-1.25.71c-.24,1.66-1.39,4-1.06,4.7,1.31,2.94-1.71,3.63-2.17,5.68C67.81,98.9,68,95.71,68.56,93.74ZM52.24,86.18a42.87,42.87,0,0,0,5.39.86c.67,0,2.11.09,2-.75S59.13,84,57.67,84A6.72,6.72,0,0,1,54,83.12c-1.3-.74-1.54,1.07-2.44,1.26C50.85,85.39,51.29,86,52.24,86.18ZM33.82,193.26c-.84.37-1.12,1.63-2.49,1.39-.71-.12-.64.65-.37,1.25.48,1,.87,2.14,1.3,3.22,1.64-2.12,3.86-3.87,4.17-6.85C35.07,191.39,34.66,192.9,33.82,193.26Zm14.4-25.51c.52-.93.68-1.14-.42-1.65a4.27,4.27,0,0,0-3.84.29c-.25.12-.61.65-.56.71,2,2.61-1.86,2.61-1.87,4.82C44.15,170.89,46.74,170.38,48.22,167.75Zm63.12,12.67c1.87.16,3.56-.91,5.45-.67a.69.69,0,0,0,.65-1c-.57-.94-1.37-2.4-2.4-2-1.45.61-3.49.42-4.29,2.4C109.69,180.1,110.2,180.33,111.34,180.42Zm-159.44,202c-.87.1-1.74.43-1.7,1.62,0,1,.79,1.17,1.56,1.48,1.72.7,3.25-.46,5.38-.14C-44.4,383.14-46,382.14-48.1,382.39ZM19.38,267.81c-.27-.22-.46-.43-.75-.19s-.33.66-.43,1.05c-.36,1.45.7,2.52.9,3.82a26.54,26.54,0,0,0,1.22,3.88C22,273.8,21.4,269.49,19.38,267.81Zm-6.12,3.57c0,.06.11.18.15.17.3,0,.67,0,.87-.19,1.42-1.25,2.88-2.52,2-4.72-.34-.82-1.16-.77-1.86-.75-.26,0-.51.31-.78.49C13.47,268.09,13.36,269.74,13.26,271.38ZM52.93,356c-1-1.92-2.06-2-3.43-.4-.21.24-.39.79-.14.76,1.64-.21.14,2.84,2,2a7,7,0,0,1,3.42-.61C54.08,356.92,53.32,356.79,52.93,356ZM-31.24,202.43c-.07.78-.36,1.6.42,2.21a.64.64,0,0,0,1-.13c.47-.77,2-.9,1.55-2.14a25.84,25.84,0,0,1-.72-3.9A6.23,6.23,0,0,0-31.24,202.43Zm43.37,165.3c-1.69-.92-4.25.93-7,5.18A34.23,34.23,0,0,0,12.13,367.73Zm22.56,17.49c.4.82,1.62.73,2.38.55s2.46-.68.64-2c-.57-.41-.41-.82.08-1.09.79-.44,1.1-1.29.56-1.75-.74-.63-1.42.13-1.9.79-.28.39-.54.78-.9,1.3S34.29,384.41,34.69,385.22Zm-63.83-19.63c0-.5-.2-1.29-.88-1.22-.92.09-.73,1.11-.56,1.52.42,1-.16,2.2.68,3.17.38.46-.2,1.68.78,1.75,1.25.08.46-1.09.65-1.65.29-.82,1.25-.25,1.59-1.3C-28.34,367.69-29.24,367.13-29.14,365.59Zm49.27-8.24a1.75,1.75,0,0,0,.45,2.19c.5.35.91-.16,1.22-.48.63-.65,1.22-1.36.58-2.32a9.58,9.58,0,0,1-1.08-3.42C19.8,354.39,20.62,356.05,20.13,357.35ZM72.39,176.52a1.34,1.34,0,0,0,.06.91c.32.48.65.11,1-.11a10.92,10.92,0,0,1,3.68-1.16C74.61,174.05,72.88,174.28,72.39,176.52Zm-82.66,42.65c-.4-.3-1.51.38-1.82,1.2a.9.9,0,0,0,.69,1.3,3.24,3.24,0,0,1,2.53,1.14A3.2,3.2,0,0,0-10.27,219.17ZM29.4,124.79a1.68,1.68,0,0,0,2.55-.18c.61-.68.16-1.72-.53-2.28-1-.79-2-.2-2.86.2C27.85,123.7,28.86,124.2,29.4,124.79Zm-5.51,131.6a.81.81,0,0,0-.76-1,1.14,1.14,0,0,0-.77.78c-.14,1.46-.17,2.93-.24,4.4C23.51,259.37,23.38,257.78,23.89,256.39ZM18.21,242a.83.83,0,0,0-.79-1c-.48,0-.72.32-.77.73-.17,1.38-1.55,3.16,1.28,3.7C18,244.15,18.15,243.06,18.21,242Zm7.14,118.5c-.07-.44.23-1-.41-1.15s-.82.47-1,.88c-.41.93-.74,1.9-1.11,2.86C23.55,362.08,25.62,362.31,25.35,360.46ZM71.78,111.55c.15-.28-.41-.55-.68-.46-1.33.47-.46,1.76-1.21,2.58C71.85,113.82,71.37,112.31,71.78,111.55ZM51.52,195.41c.52-.53,1.6-.6,1.44-1.65,0-.2-.48-.45-.75-.46-1.05-.06-1.11,1-1.56,1.57-.18.23-.37.53.06,1.09A5,5,0,0,0,51.52,195.41Zm9.54-105.9c.28-.22.49-.55.24-.78-.94-.84-1.93.08-3.51-.27C59.16,89.59,59.92,90.37,61.06,89.51ZM18.23,375.1c.44.31.66-.16.86-.47.34-.55.05-.88-.46-1a.76.76,0,0,0-1,.33A1.25,1.25,0,0,0,18.23,375.1ZM8.13,392.42a1.52,1.52,0,0,0,.2-.06c-.05,0-.1-.12-.14-.12s-.12.06-.17.1S8.09,392.42,8.13,392.42Z" fill="#1c2d28"/>
        <path d="M-24.58,186.78c1.75-.94,3.74-1.56,5.28-2.76a9.08,9.08,0,0,1,7-1.9c3.43.38,6.84.8,10.26,1.2a9.58,9.58,0,0,1,3.72,2.58c2.77,3.5,3.3,7.67,3.59,11.89a4.89,4.89,0,0,1-.87,2.31c-2.21-.66-2.59,1.3-3.42,2.46-1-.53.84-1.48-.41-1.74-.57-.12-1.71.18-1.64.63.41,2.73-1.24,5.31-.53,8,.19.73-.75,2.11,1,2.21.5,0,.94.08,1.25-.45.8-1.36-1.26-1.26-1.09-2.49,1,.25,1.57-.91,3.08-.2a45.71,45.71,0,0,1,6.22,3.73c2.4,1.62,2.08,2.61,1.19,4.52a6.42,6.42,0,0,1-1.12,2.34,1.57,1.57,0,0,1-1.49.6c-2.75-.68-2.94-.52-2.56,2-2.24-1.07-4.75-.87-7.14-1.65-4.5-1.45-7.94-4.73-8.17-9.36-.08-1.48,1-3.1-2-3.8-1.58-.38-2.39-.11-2.74.67-1.08,2.36-2.52,4.9-2.48,7.35,0,3.33.3,6.87,2.52,9.85a17.45,17.45,0,0,1,2.78,4.95c.15.48.41,1,0,1.32s-.75-.27-1-.65c-1.48-2.05-3.25-3.57-6-2.74-.81.24-1.2-.25-1.65-.68a6.42,6.42,0,0,1-2.27-4.81c0-3.12-1.79-5.75-2.36-8.71-.13-.71-.49-1-1.38-.76-1.28.27-1.37-.48-1-1.61,1-3,3.22-5.29,5.34-7.47,1.11-1.14,1.85-2.06,1.76-3.62,0-.66.82-1.58-.06-1.92s-1,.8-1.32,1.39c-.87,1.76-2.05.28-2.84.08-1.13-.28-.45-1.16.09-1.84A11.33,11.33,0,0,0-22.72,191c-3.23.78-3.18,4.83-6.5,5.86a14.93,14.93,0,0,1,2.36-4.65,4.08,4.08,0,0,0,.47-4C-26.1,187.38-25.26,187.15-24.58,186.78Zm17.87-.58a11.54,11.54,0,0,0-.68,1.11c-.22.49.7,1.48-.42,1.5-.92,0-.91-.85-.74-1.64.11-.56.51-1.33-.44-1.59-.42-.12-.91-.36-1.35,0,1,.74-.63,1.73.23,2.48a8.92,8.92,0,0,1,1.25,1.11c1.16,1.48,2.92,2.74,1.75,5.11a1.37,1.37,0,0,0,.53,1.87c.7.29.92-.4,1.16-.9a1.74,1.74,0,0,1,.17-.45c.47-.58,1.8,1.38,1.81-.59,0-.95-.76-1.56-1.13-2.34-.55-1.16.14-2,.81-2.8a3.54,3.54,0,0,1,3.87-.73.85.85,0,0,0,1.25-.7c0-.6-.6-.59-1.08-.67-1.93-.33-3.72-1.32-6.08-1.1a4.11,4.11,0,0,1,2.06,3.24C-5.11,188.77-6.57,188.51-6.71,186.2Zm-.69-1.75c.14.07.37,0,.56,0-.07-.19-.1-.44-.23-.54s-.38,0-.72-.06C-7.61,184.14-7.55,184.37-7.4,184.45ZM1.1,200c.07,0,.17,0,.2-.09s0-.13-.05-.21l-.21.08Z" fill="#9bb0aa"/>
        <path d="M113.35,103.07c-1.69-1.74-2-3.88-4.22-4.52C110,100.33,110.81,102.06,113.35,103.07Z" fill="#9bb0aa"/>
        <path d="M113.6,103.75c.15,1.87,1.2,2.86,3.17,3.14C116.29,105.17,114.63,104.78,113.6,103.75Z" fill="#9bb0aa"/>
        <path d="M165,188.06c0-1.39,0-1.39-1.66-1.89l1.65,1.9Z" fill="#9bb0aa"/>
        <path d="M45.14,62.76c.62.19,1.09.17.94-.69A.84.84,0,0,0,45.14,62.76Z" fill="#9bb0aa"/>
        <path d="M149.45,147.19l-.58-.93h0c-.12.5.22.71.57.92Z" fill="#9bb0aa"/>
        <path d="M124.17,115.59l.24.6.21-.1-.48-.49Z" fill="#9bb0aa"/>
        <path d="M119.53,125.81l0-.21v.2Z" fill="#9bb0aa"/>
        <path d="M72.62,60.36c-.11-.51-1-1.49.09-1.39,1.51.15,1.58-1,2.29-1.59,1.84-1.64.63-2.39-.82-2.63-2-.34-4.05-1.2-6.16.42-1.08.83-3,1.07-3.39-1.39-.17-1.06-1.11-.76-1.27-.15-.51,2-2.23,1.27-3.39,1.81-1.67.78-3.45-.29-5.09.56a2.51,2.51,0,0,0-1.65,2.17c0,1.68-.61,1.52-1.76,1s-2,.13-1.35,1.14c1.25,1.82,0,2.95-.58,4.34-.27.62-1.5,1.39-.35,2s.85-.87,1.13-1.38c.9-1.63,1.58-3.45,4-3.2.67.07.76-.28.8-.85.18-2.22.52-2.56,1.93-1.25,1.7,1.58,2.35.07,3.48-.23-.25-.9-.86-.67-1.27-.84-.74-.3-1-.78-.58-1.49s1-.64,1.55,0c1.57,1.94,3.46,2,5.5.88.92-.52,2.08-.44,2.42.18,1.09,1.94,2.66,2.19,4.56,1.93Z" fill="#1c2d28"/>
        <path d="M130.55,142.85a2.2,2.2,0,0,0-.3-2.42c-1.39-1-.33-1.66.23-2.6a2.43,2.43,0,0,1-3.22-.58c-1.12-1.16.58-2,.36-3.14-1,2.15-3.86,2.79-4.14,5.52,0,.49-.25.92.24,1.27a1,1,0,0,0,1.31-.07,4.42,4.42,0,0,1,1.52-.63,1,1,0,0,1,1.24.85c.19.94-.54.73-1.07.8-1,.14-2,.33-3.07.47a3.34,3.34,0,0,0-2.66,4.35,1.87,1.87,0,0,1-.15,1.81,2.1,2.1,0,0,0,.31,2.61,3.65,3.65,0,0,1,4-1.67c1.55.26,2.58-.12,1.76-2.24-.66-1.71,1.21-3,1.72-4.51.22-.69,1.28-.13,1.93.18Z" fill="#fefefe"/>
        <path d="M135.6,126.87a1.35,1.35,0,0,1,.22,1.79c-1.68,2.18.1,2.39,1.52,2.83.38.12.81.16.83.7-2.24,1.53-2.4,2.23-.78,3.34,2.08,1.43,2,2.49-.23,3.74-1.44.82-3.36.75-4.39,2.37a.89.89,0,0,1-.85.1c-.5-.27-.17-.7,0-1.05.63-1.59,1.15-3.31-.15-4.67s-.87-2.67-.42-4.14a14.52,14.52,0,0,1,1.61-2.95c.25-.45.82-1,0-1.37-1.45-.58-1.89-2.12-3.31-3C132.66,123.27,133.88,125.72,135.6,126.87Zm-2.2,8.6c.41.88.5,2,1.52,2.45.05,0,.41-.32.39-.45a4.19,4.19,0,0,0-1.78-2.94C133.45,135.05,133.32,135.31,133.4,135.47Z" fill="#fefefe"/>
        <path d="M149.47,147.18c-.35-.21-.69-.42-.57-.92a4.45,4.45,0,0,1-3-4.43c0-.86-.64-1.47-1.07-1.13a3.68,3.68,0,0,1-3,.53c-.68-.07-.74.25-.13,1,.15.17.41.27.26.52-1.24,2.1,0,3.66.92,5.44.52,1,.28,2.29,2,1.79.13,0,1.43,0,1.25,1.17-.09.59.28,1.42,1.15,1,.63-.28.67-.89.37-1.63C146.94,148.8,147.49,147.56,149.47,147.18Z" fill="#fefefe"/>
        <path d="M94.47,92.17c-.27.83-.52,1.59-.75,2.35-.3,1,.19,1.44,1.1,1.21,1.73-.44,2.91.57,4.15,1.43.66.45,1.69.78.34,1.83-.94.73.26,1.37.64,2s.82.62,1.45.27c.79-.44.61-.79.28-1.51a2.9,2.9,0,0,1-.05-2.29c1.36-2.4-1.17-4-1.16-6,0-.46-.78-.94-1.35-.72-1.37.53-2.64,1.4-4.24,1C94.78,91.69,94.58,92,94.47,92.17Z" fill="#1c2d28"/>
        <path d="M98.57,81.43c-1.59-1.89.09-5.1-3.23-5.33C94,76,92,78.44,92.48,79.44,93.61,81.93,95.94,81.37,98.57,81.43Z" fill="#fefefe"/>
        <path d="M89.63,147.43c-2.16,1.27-.06,2.11.75,2.5a2.84,2.84,0,0,0,3.31-1.07c1-1.3.23-2.87-.09-4.31C92.1,145.15,90.26,145.24,89.63,147.43Z" fill="#1c2d28"/>
        <path d="M125.39,132.47c-1.62.94-3.27.93-4.47-.21-1.59-1.5-3,.22-4.46,0-.5-.07-.12,1.42.11,2.11s.73.4,1.09-.06c.89-1.15,1.72-.86,2.57.09,1.18,1.34,2.92.86,4.26.79S124.5,133.27,125.39,132.47Z" fill="#fefefe"/>
        <path d="M156.76,189.51a7.42,7.42,0,0,0-.45-7.79C154.93,183.45,155.09,187.07,156.76,189.51Z" fill="#fefefe"/>
        <path d="M80.87,84.34c1-1.17,2.87-1.76,2.66-3.88,0-.39.14-.8-.33-1a1.37,1.37,0,0,0-.65,0C82.6,81.35,79.25,82,80.87,84.34Z" fill="#1c2d28"/>
        <path d="M72.67,60.35c-.47,1.56-1.9,2.73-1.87,4.51,2.34-.84,2.88-2.17,1.82-4.5Z" fill="#1c2d28"/>
        <path d="M91.07,104.4c-1.22,1.26-3.85,1.37-2.51,4.06.15.31,0,.91.52.87a.61.61,0,0,0,.47-.91C88.75,106.59,91.62,106.45,91.07,104.4Z" fill="#1c2d28"/>
        <path d="M68.35,68.53a19.21,19.21,0,0,0-1.39,2c-.25.49-1.16,1.08-.33,1.59.61.38,1.13-.37,1.52-.88A2.13,2.13,0,0,0,68.35,68.53Z" fill="#1c2d28"/>
        <path d="M88.05,74.09a1.47,1.47,0,0,0,.2,1.76c.4.33.84-.13,1.06-.58s.86-.94.25-1.45S88.5,73.63,88.05,74.09Z" fill="#1c2d28"/>
        <path d="M82.43,75.27l-2.08-1.62c-.43-.34-.76-1.38-1.42-.42-.47.66.31,1,.79,1.16C80.5,74.71,81.12,75.47,82.43,75.27Z" fill="#1c2d28"/>
        <path d="M114.87,110.39a1.93,1.93,0,0,1,1.32,1.5.68.68,0,0,0,.9.52.65.65,0,0,0,.57-.63.9.9,0,0,0-.53-1,18.73,18.73,0,0,0-2.26-.4Z" fill="#fefefe"/>
        <path d="M90.87,103.42c.38.23.78.3,1-.15a.65.65,0,0,0-.45-.94,1,1,0,0,0-.84.17C90.2,102.89,90.5,103.19,90.87,103.42Z" fill="#1c2d28"/>
        <path d="M139.35,186.36c.68,0,1.35.54,2,0-1-.75-1-.75-2,0Z" fill="#1c2d28"/>
        <path d="M130.57,142.85,129.25,145c.88-.48,1.62-1,1.3-2.13Z" fill="#fefefe"/>
        <path d="M162.16,195.38c.44.16.89.33,1.13-.25.06-.14-.09-.51-.17-.52-.56-.05-.66.49-1,.8Z" fill="#fefefe"/>
        <path d="M112.44,158.31h.4c-.16-.36-.28-.22-.39,0Z" fill="#1c2d28"/>
        <path d="M63.59,121.05a2.23,2.23,0,0,0-1.66-1.24c-.33-.1-1.15-.25-.74.59.78,1.59-.81,1-1.24,1.26-.72.5-1.06-.19-1.31-.85a6.91,6.91,0,0,0-1.11-2.37c-.7-.71-1.26-2-2.91-.8-.76.57-2.52,0-3.73-.34-.71-.2-.7-1,0-1.5.53-.39,1.32.07,2-.94-1.15-.22-1.79-1.15-3.18-.3s-2.78-.16-4-.64-1.09-.38-1.11.75c0,.83,1.07,2.61-1.51,2.35-.65-.07-1.55,2.34-2.45,3.79.22-1.73-.89-1.36-1.69-1.08-1.11.39-2.49.94-2.32,2.31.12,1-.57,3.14,2.18,2.41,1.24-.32,1.13,1.18.69,2.14-1.08,2.39-.67,2.89,2,3.43.95.19,3.86-.5,2.09,2.44-.25.41.52.68.91.93a43.16,43.16,0,0,1,4.17,2.71,1.75,1.75,0,0,0,2,.4c3.16-1.34,5.52.8,8.12,1.85.77.31.16.94-.1,1.4v0c1.5,1.56,3.36.49,4.92.38,2.47-.18,4.84-.42,7.23.41.8.27.85-.46,1-1,.48-2.14-.94-5.21-3-5.88-2.73-.88-5.13-2.94-8.27-2.45-.65.9,1.34,3.33-1.2,2.84-1.82-.35-3.42.16-5.12.09s-3-.37-3.49-2.22c-.19-.78-.87-1.12-1.47-1.51-.35-.24-.67-.51-.48-1s.78-.47,1.25-.39c.8.12,1.12.86,1.6,1.37,1.24,1.34,2.46,1.6,3.79.16a10.42,10.42,0,0,1-5-5.12c-.6-1.42-.3-2.83.76-3.42s2.19-.14,3.12,1.24c1.26,1.88,3.11,3.38,5.73,3.07.72-.08,1.57-.23,2,.45,1.79,2.86,4.58,4.56,7.44,5.88,2.56,1.18,2.87,4.05,5,5.42,1.32.84,2.21,2.25,3.68,2.95.8.38,1.53,1.08,2.31.1s.83-2.36.19-2.85c-3.12-2.39-5.13-5.79-8-8.35-.32.76.09,2.72-1.66,1.34-2-1.54-4.18-2.74-5.92-4.6a3.38,3.38,0,0,1-.87-4v0C63.36,122.33,63,121.84,63.59,121.05Z" fill="#9bb0aa"/>
        <path d="M53.74,186.09c1.55.27,1.19-2.25,2.81-1.89.56,1-.31,1.59-.66,2.35-.15.33-.16.67.19.82.59.27.7-.18.69-.59,0-.57-.12-1.14.31-1.6.66-.71,1.52-1.15,2.33-.52a1.31,1.31,0,0,1,0,2.25,6.77,6.77,0,0,0-1.87,2.51,4.54,4.54,0,0,0,3.08-1.94,6.76,6.76,0,0,1,2.14-2.25,1.49,1.49,0,0,1,1.78.07c.77.56.35,1.09,0,1.65a7.08,7.08,0,0,1-2.51,2.84c-1.82,1-3.06,2.65-4.84,4.76,2.59-.38,4.42-.75,5.78-2.38.46-.55.76-1.43,1.34-1.66,3.21-1.24,5-3.37,5.24-6.92.05-.87.72-1.69,1.73-.36.72,1,2,.29,3,.4.65.06,1-.76.73-1.47a1.5,1.5,0,0,0-.76-.87c-3.21-.89-4-4.44-6.68-6-1-.57-1-1.09-2.07-.22-2,1.62-3.42,1.18-4.88-1.14A7.45,7.45,0,0,0,60,173c-2.09,1.07-2.38-.66-3-1.88a.55.55,0,0,0-.4-.24c-1.07-.05-1.54,1.94-2.93.87a13.8,13.8,0,0,0-.23,2.66c-.1,1.93.86,3.84.07,5.78-1.06,2.62-.86,2.84,1.94,2.63a6.58,6.58,0,0,1-1.65,3.37Z" fill="#9bb0aa"/>
        <path d="M30.27,139.72c-.84,0-1.41-1.58-2.27-.72a2,2,0,0,0,.37,2.82c1.21,1,.45,1.65.14,2.63-.39,1.28-2.33,2.91.46,4,.45.18.31,1.25-.17,1.72s-.54,1.59-.81,1.8c-2.35,1.88,0,5.37-2.53,7.08a.77.77,0,0,0-.21.38c2.46,1.9-.32,3.41-.5,5.08-.2,1.92.2,3.83-.19,5.72-.21,1-.64,1.89.9,2.47,1.17.43.51,2.11,1.27,3.66,1.05-2.12,2.83-3.33,2.56-5.64a.71.71,0,0,1,.32-.58c3.17-.69.07-2.82.93-4.05.06-.08-.12-.52-.45-.29-1.93,1.34-1.4-.49-1.51-1.25s-.35-2,.6-1.92c.79.11,2.71-.54,2.38,1.69,2.29-2.67,2.1-3.33.57-7.44-.52-1.38,0-3.27-.74-4.82,2.45.06,1-2.69,2.4-3.35v0c-1.58-1.15-1.69-1.63-.77-3.33l0,0c-1.76-1-1.39-2.77-1-4.09.76-2.55-1-3.63-2.19-5.44-.75,1.68.22,2.69.35,3.83,0,.07,0,.13,0,.19Z" fill="#9bb0aa"/>
        <path d="M53.75,186.14c-.37.07-.93-1.17-1.08.07-.09.73.47,1.58-.57,2.06-.86-.49-.39-1.31-.51-2a2.18,2.18,0,0,0-3.43-1.67,3.67,3.67,0,0,1-1.28.64c-.93.1-1.82-.16-1.24,1.46.32.9-.82,1.37-2.08.88-.58-.23-.9,0-1.21.45-1.77,2.32-3.81,4.45-4.68,7.35-.3,1-.52,2,.47,2.59.84.5,1.58-.22,2-.88,1-1.64,3.41-.43,4.46-2.19.23-.39.55.43.65.89.19.82,0,2,1.13,2.16s.79-1.16,1.32-1.71c2.12-2.24,4.54-4.24,5.4-7.47a25,25,0,0,0,.64-2.72Z" fill="#9bb0aa"/>
        <path d="M79.51,94.18c0-2.54-.48-2.78-2.79-1.65-1.32.64-2.14-.58-3.41-1.71.25,1.93-.64,3.32,0,4.84a1.1,1.1,0,0,1,0,.88c-1.86,2.62,1.16,2.76,2.1,3.53s2.2-.4,2.3-1.56c.15-1.7,1.18-2.93,1.75-4.39Z" fill="#9bb0aa"/>
        <path d="M70.86,169.14c1.17-2,1.08-5.16.26-5.72-2.93-2,.07-4.64-1.36-6.54-2.56,1-3.43,3-2.44,5.45.68,1.68,1.09,3.48,1.81,5.14C69.41,168.12,70.21,168.53,70.86,169.14Z" fill="#9bb0aa"/>
        <path d="M55.37,130.54c-1.33,1.44-2.55,1.18-3.79-.16-.48-.51-.8-1.25-1.6-1.37-.47-.08-1-.19-1.25.39s.13.73.48,1c.6.39,1.28.73,1.47,1.51.47,1.85,1.83,2.15,3.49,2.22s3.3-.44,5.12-.09c2.54.49.55-1.94,1.2-2.84l-3.24.06c-.49.48-.89.55-1.13-.22Z" fill="#fefefe"/>
        <path d="M59.51,111.52c.3,1-2,2.85,1.06,3.14.64,0,.81.52.54,1-.63,1.18.37,1.52,1,1.63a1.62,1.62,0,0,0,1.94-1.3c.41-2.33-1-4.41-1.08-6.69,0-.45-.69-.46-1-.2C61.17,109.84,60.41,110.64,59.51,111.52Z" fill="#9bb0aa"/>
        <path d="M64.38,99.36c3.43-.46,3.6-3.65,4.18-5.62a6.62,6.62,0,0,1,3.21-3.89c-.65-1.29-2-1.11-2.91-1.58a.85.85,0,0,0-1.25.71c-.24,1.66-1.39,4-1.06,4.7C67.86,96.62,64.84,97.31,64.38,99.36Z" fill="#9bb0aa"/>
        <path d="M51.6,84.38c-.75,1-.31,1.6.64,1.8a42.87,42.87,0,0,0,5.39.86c.67,0,2.11.09,2-.75S59.13,84,57.67,84A6.72,6.72,0,0,1,54,83.12C52.74,82.38,52.5,84.19,51.6,84.38Z" fill="#9bb0aa"/>
        <path d="M64.1,122.66a3.38,3.38,0,0,0,.87,4c1.74,1.86,4,3.06,5.92,4.6,1.75,1.38,1.34-.58,1.66-1.34-1.34-1.63-3.61-2.11-4.8-3.91-.68.4-1,.22-.83-.57-1-.31-1.22-1.21-1.62-2Z" fill="#fefefe"/>
        <path d="M36.43,192.27c-1.36-.88-1.77.63-2.61,1s-1.12,1.63-2.49,1.39c-.71-.12-.64.65-.37,1.25.48,1,.87,2.14,1.3,3.22C33.9,197,36.12,195.25,36.43,192.27Z" fill="#9bb0aa"/>
        <path d="M41.53,171.92c2.62-1,5.21-1.54,6.69-4.17.52-.93.68-1.14-.42-1.65a4.27,4.27,0,0,0-3.84.29c-.25.12-.61.65-.56.71C45.41,169.71,41.54,169.71,41.53,171.92Z" fill="#9bb0aa"/>
        <path d="M110.75,179.17c-1.06.93-.55,1.16.59,1.25,1.87.16,3.56-.91,5.45-.67a.69.69,0,0,0,.65-1c-.57-.94-1.37-2.4-2.4-2C113.59,177.38,111.55,177.19,110.75,179.17Z" fill="#9bb0aa"/>
        <path d="M66.92,125.43c-.13.79.15,1,.83.57,2.08-1,.28-2.36.39-3.54-1.34-.08-2.09-2.11-3.75-1.14-.09.46-.19.92-.28,1.37v0l1.2.78C67.09,123.08,67.06,124.21,66.92,125.43Z" fill="#9bb0aa"/>
        <path d="M77.1,176.16c-2.49-2.11-4.22-1.88-4.71.36a1.34,1.34,0,0,0,.06.91c.32.48.65.11,1-.11A10.92,10.92,0,0,1,77.1,176.16Z" fill="#9bb0aa"/>
        <path d="M28.56,122.53c-.71,1.17.3,1.67.84,2.26a1.68,1.68,0,0,0,2.55-.18c.61-.68.16-1.72-.53-2.28C30.45,121.54,29.46,122.13,28.56,122.53Z" fill="#9bb0aa"/>
        <path d="M79.51,94.12a3.69,3.69,0,0,0,.72,1.67c.64.74,1.33,2.1,2.21,1.37,1.27-1-.4-2.06-.82-3-.56-1.28-1.42-1-2.11.05Z" fill="#9bb0aa"/>
        <path d="M69.8,150.08a13.91,13.91,0,0,0-3-4.55c-1.1.28.58,2.12-1.24,1.91-.28,0,.08,1,.17.9,2.29-1.54,2.75,1.15,4.09,1.73Z" fill="#9bb0aa"/>
        <path d="M69.89,113.67c2,.15,1.48-1.36,1.89-2.12.15-.28-.41-.55-.68-.46C69.77,111.56,70.64,112.85,69.89,113.67Z" fill="#9bb0aa"/>
        <path d="M50.71,196a5,5,0,0,0,.81-.55c.52-.53,1.6-.6,1.44-1.65,0-.2-.48-.45-.75-.46-1.05-.06-1.11,1-1.56,1.57C50.47,195.1,50.28,195.4,50.71,196Z" fill="#9bb0aa"/>
        <path d="M57.79,88.46c1.37,1.13,2.13,1.91,3.27,1.05.28-.22.49-.55.24-.78C60.36,87.89,59.37,88.81,57.79,88.46Z" fill="#9bb0aa"/>
        <path d="M64.11,122.69c.09-.45.19-.91.28-1.37l-.8-.27C63,121.84,63.36,122.33,64.11,122.69Z" fill="#fefefe"/>
        <path d="M56.12,131c.24.77.64.7,1.13.22A.77.77,0,0,0,56.12,131Z" fill="#9bb0aa"/>
        <path d="M69.84,150.07l.13.43-.17-.42Z" fill="#9bb0aa"/>
        <path d="M58.66,139.75h-.18l.17,0Z" fill="#9bb0aa"/>
        <path d="M-3.76,189.11a3.54,3.54,0,0,1,3.87-.73.85.85,0,0,0,1.25-.7c0-.6-.6-.59-1.08-.67-1.93-.33-3.72-1.32-6.08-1.1a4.11,4.11,0,0,1,2.06,3.24Z" fill="#1c2d28"/>
        <path d="M133.53,134.53c-.08.52-.21.78-.13.94.41.88.5,2,1.52,2.45.05,0,.41-.32.39-.45A4.19,4.19,0,0,0,133.53,134.53Z" fill="#9bb0aa"/>
        <path d="M33,145.4c-.92,1.7-.81,2.18.77,3.33A10,10,0,0,0,33,145.4Z" fill="#1c2d28"/>
        <path d="M30.27,139.72l-.05.2c0-.06,0-.12,0-.19Z" fill="#1c2d28"/>
        <path d="M66.92,125.43c.14-1.22.17-2.35-1.62-2C65.7,124.22,66,125.12,66.92,125.43Z" fill="#1c2d28"/>
      </g>
    </g>
  </g>
  <polygon points="204.41 104.46 162.93 172.48 0 172.48 0 194.65 279.31 194.65 1344.29 194.65 1344.29 104.46 204.41 104.46" fill="#212026"/>
  <g>
    <path d="M242.43,168.22l-.74,1.82a20.16,20.16,0,0,1-9.26,2.21q-7.05,0-11.45-4a13.48,13.48,0,0,1-4.41-10.47,13.78,13.78,0,0,1,2.2-7.78,13.6,13.6,0,0,1,5.8-5,19.21,19.21,0,0,1,8.09-1.65,23.94,23.94,0,0,1,5.14.55,21.18,21.18,0,0,1,4.24,1.31l.14.19a24.85,24.85,0,0,0-.84,5.41l-.14.16h-.92l-.15-.16-.2-3.32a10.8,10.8,0,0,0-3.45-1.77,14,14,0,0,0-4.21-.63,12.23,12.23,0,0,0-5.91,1.41,10,10,0,0,0-4.07,4.11,13.75,13.75,0,0,0-1.44,6.57,13.39,13.39,0,0,0,1.7,6.85,11.64,11.64,0,0,0,4.64,4.54,14.3,14.3,0,0,0,6.86,1.58,16.52,16.52,0,0,0,3.34-.33,13.5,13.5,0,0,0,2.67-.82,12.39,12.39,0,0,0,2-1.2Z" fill="#fff"/>
    <path d="M244.36,144.06l.16-.13c2.38.1,4.24.15,5.57.15s3.45,0,6-.13c.93,0,1.6,0,2,0q4.94,0,6.69,1.79a5.86,5.86,0,0,1,1.76,4.26,6.56,6.56,0,0,1-.86,3.22,7.61,7.61,0,0,1-2.54,2.71,12.68,12.68,0,0,1-4.62,1.69c.36.51,1,1.39,2,2.64l2.77,3.67q1.35,1.81,2.89,3.84a12.38,12.38,0,0,0,2,2.28,2.38,2.38,0,0,0,.78.32,6.09,6.09,0,0,0,1,.06l.16.16v.92l-.18.17a17.82,17.82,0,0,0-2.23-.12c-.92,0-1.93,0-3,.12-.9-1.09-2.31-3-4.24-5.68a110.17,110.17,0,0,0-6.88-8.69l.2-.61c.68,0,1.2.06,1.58.06a7.93,7.93,0,0,0,5.29-1.62,5.56,5.56,0,0,0,1.92-4.49,4.6,4.6,0,0,0-1.72-3.9,7.47,7.47,0,0,0-4.65-1.32,12.89,12.89,0,0,0-3.87.57c-.19.28-.29,2.73-.29,7.32v9.05l0,3.8a24.32,24.32,0,0,0,.12,2.86,1.75,1.75,0,0,0,.28.85,1.45,1.45,0,0,0,.71.37,16.53,16.53,0,0,0,2.6.22l.16.12v1l-.16.16-3.44-.12-2.16,0c-.41,0-2.27.06-5.59.16l-.16-.16v-1l.16-.12a22.12,22.12,0,0,0,2.42-.19,1.66,1.66,0,0,0,.81-.31,1.43,1.43,0,0,0,.33-.79,16.61,16.61,0,0,0,.15-2.69l0-4.12v-9.05l0-3.81a28.23,28.23,0,0,0-.11-2.87,1.75,1.75,0,0,0-.27-.86,1.41,1.41,0,0,0-.71-.35,16.9,16.9,0,0,0-2.6-.21l-.16-.14Z" fill="#fff"/>
    <path d="M271.41,143.93l2.45.08c1.6.05,2.65.07,3.14.07s2.31-.05,5.61-.15l.15.13v1l-.15.14c-.9,0-1.6.06-2.08.11a2.55,2.55,0,0,0-1.07.3,1.38,1.38,0,0,0-.44,1,17.57,17.57,0,0,0-.11,2.2l0,4.49v9.05l0,3.8A28,28,0,0,0,279,169a1.74,1.74,0,0,0,.29.85,1.41,1.41,0,0,0,.71.37,16.39,16.39,0,0,0,2.6.22l.15.12v1l-.15.16-3.44-.12-2.17,0c-.4,0-2.26.06-5.59.16l-.15-.16v-1l.15-.12a22.39,22.39,0,0,0,2.43-.19,1.76,1.76,0,0,0,.81-.31,1.59,1.59,0,0,0,.33-.79,19.48,19.48,0,0,0,.15-2.69l0-4.12v-9.05l0-3.81c0-1.48-.05-2.44-.11-2.87a1.87,1.87,0,0,0-.27-.86,1.5,1.5,0,0,0-.72-.35,16.9,16.9,0,0,0-2.6-.21l-.15-.14v-1Z" fill="#fff"/>
    <path d="M307.31,143.93l.18.17q-.18,1.76-.18,6.14l-.15.15h-.92l-.16-.17-.21-1.8a17.84,17.84,0,0,0-.25-1.77.82.82,0,0,0-.28-.47,3.59,3.59,0,0,0-1.27-.24c-.71-.07-1.52-.1-2.4-.1H298c-.11,2.94-.16,4.64-.16,5.1v11.39l0,3.8A28.39,28.39,0,0,0,298,169a1.73,1.73,0,0,0,.27.85,1.49,1.49,0,0,0,.71.36,16.75,16.75,0,0,0,2.62.22l.14.12v1l-.14.16c-3.33-.1-5.19-.16-5.58-.16s-2.28.06-5.57.16l-.16-.16v-1l.16-.12a22.14,22.14,0,0,0,2.43-.19,1.71,1.71,0,0,0,.8-.31,1.5,1.5,0,0,0,.34-.79,15.86,15.86,0,0,0,.14-2.69l0-4.12V150.94c0-.21-.05-1.91-.16-5.1H291.1c-1.2,0-2.23,0-3.1.08s-1.38.18-1.52.4a7.34,7.34,0,0,0-.38,2.1l-.19,1.8-.18.17h-.9l-.15-.15q0-4.71-.18-6.14l.18-.17q3.39.15,11.31.15C301.36,144.08,305.14,144,307.31,143.93Z" fill="#fff"/>
    <path d="M309.4,143.93l2.44.08c1.61.05,2.65.07,3.15.07s2.31-.05,5.6-.15l.16.13v1l-.16.14c-.89,0-1.59.06-2.08.11a2.54,2.54,0,0,0-1.06.3,1.38,1.38,0,0,0-.44,1,17.57,17.57,0,0,0-.11,2.2l0,4.49v9.05l0,3.8c0,1.48.06,2.43.12,2.86a1.87,1.87,0,0,0,.28.85,1.5,1.5,0,0,0,.72.37,16.21,16.21,0,0,0,2.59.22l.16.12v1l-.16.16-3.43-.12-2.17,0c-.4,0-2.27.06-5.59.16l-.15-.16v-1l.15-.12a22.12,22.12,0,0,0,2.42-.19,1.76,1.76,0,0,0,.82-.31,1.59,1.59,0,0,0,.33-.79,18.46,18.46,0,0,0,.14-2.69l0-4.12v-9.05l0-3.81c0-1.48,0-2.44-.1-2.87a1.74,1.74,0,0,0-.28-.86,1.41,1.41,0,0,0-.71-.35,16.9,16.9,0,0,0-2.6-.21l-.15-.14v-1Z" fill="#fff"/>
    <path d="M349,168.22l-.74,1.82a20.16,20.16,0,0,1-9.26,2.21q-7.05,0-11.45-4a13.48,13.48,0,0,1-4.41-10.47,13.86,13.86,0,0,1,2.2-7.78,13.66,13.66,0,0,1,5.8-5,19.22,19.22,0,0,1,8.1-1.65,23.91,23.91,0,0,1,5.13.55,21,21,0,0,1,4.24,1.31l.14.19a24.85,24.85,0,0,0-.84,5.41l-.14.16h-.92l-.15-.16-.2-3.32a10.85,10.85,0,0,0-3.44-1.77,14.07,14.07,0,0,0-4.21-.63,12.27,12.27,0,0,0-5.92,1.41,9.87,9.87,0,0,0-4.06,4.11,13.63,13.63,0,0,0-1.45,6.57,13.49,13.49,0,0,0,1.7,6.85,11.64,11.64,0,0,0,4.64,4.54,14.32,14.32,0,0,0,6.86,1.58,16.45,16.45,0,0,0,3.34-.33,13.5,13.5,0,0,0,2.67-.82,12.39,12.39,0,0,0,2-1.2Z" fill="#fff"/>
    <path d="M351,171.68l-.18-.16v-1l.18-.16a8.56,8.56,0,0,0,1.83-.14,1.57,1.57,0,0,0,.73-.51,16.12,16.12,0,0,0,1.3-2.49l2.05-4.45,5.32-12c1-2.35,2-4.71,3-7.07h1.27l8.34,19.61,1.12,2.62c.32.74.7,1.55,1.12,2.42a7.2,7.2,0,0,0,.88,1.54,1.65,1.65,0,0,0,.6.37,6.81,6.81,0,0,0,1.62.14l.15.16v1l-.15.16c-1.38-.12-2.63-.17-3.73-.17l-6.49.17-.15-.16v-1l.15-.16a16.26,16.26,0,0,0,2.74-.18.66.66,0,0,0,.54-.68,3.39,3.39,0,0,0-.27-1.13l-2.4-6H359.19l-2.13,5a5.88,5.88,0,0,0-.57,2,.78.78,0,0,0,.53.72,8.76,8.76,0,0,0,2.66.25l.17.16v1l-.15.16c-1.68-.1-3.16-.16-4.42-.16C353.85,171.52,352.4,171.58,351,171.68Zm8.9-11h9.89L364.83,149Z" fill="#fff"/>
    <path d="M381.92,144.06l.16-.13q4.85.15,5.58.15t5.61-.15l.16.13v1l-.16.14c-.9,0-1.59.06-2.08.11a2.49,2.49,0,0,0-1.06.3,1.34,1.34,0,0,0-.44,1,15.83,15.83,0,0,0-.11,2.2l0,4.49v8.64c0,2.16,0,3.67,0,4.53l.1,3.38h4q4.77,0,5.95-.12a8.05,8.05,0,0,0,2.27-.57,15,15,0,0,0,.62-2.24c.27-1.18.41-1.85.42-2l.17-.15h1l.14.15a28.68,28.68,0,0,0-.32,3c-.11,1.5-.17,2.71-.17,3.63l-.16.16q-3.71-.12-9.74-.12l-5.71,0c-1.3,0-2.63.06-4,.16l-.16-.16v-.64l.16-.2a7.9,7.9,0,0,0,1.33-.76,12.12,12.12,0,0,0,.24-2.52c.09-1.58.13-3.5.13-5.74v-8.38l0-3.81a28.23,28.23,0,0,0-.11-2.87,1.87,1.87,0,0,0-.27-.86,1.41,1.41,0,0,0-.71-.35,17,17,0,0,0-2.6-.21l-.16-.14Z" fill="#fff"/>
    <path d="M416.92,171.66l-.17-.17v-.9l.17-.16a12.94,12.94,0,0,0,1.91-.14,1.33,1.33,0,0,0,.91-.39A1.81,1.81,0,0,0,420,169c0-.4.09-1.31.14-2.73s.06-2.43.06-3V147.46a2.45,2.45,0,0,0-.36-1.47,1.61,1.61,0,0,0-1-.61,13.53,13.53,0,0,0-2.13-.14l-.16-.16v-.92l.16-.17c1.79.06,3,.09,3.53.09q2,0,3.24-.09l6.23,8.08,9.16,11.49q1.66,2.08,3.38,4V152.4c0-.47,0-1.46-.06-3s-.11-2.5-.17-2.91a1.43,1.43,0,0,0-.34-.83,1.85,1.85,0,0,0-.92-.33,13.66,13.66,0,0,0-1.83-.12l-.15-.16v-.9L439,144c1.06.06,2.56.09,4.52.09,1.78,0,3.07,0,3.88-.09l.18.17v.9l-.16.16a13.38,13.38,0,0,0-2,.14,1.31,1.31,0,0,0-.88.42,2.11,2.11,0,0,0-.24.86c0,.38-.09,1.28-.14,2.7s-.07,2.44-.07,3.06v9.28l0,5.37c0,1.76.05,3.52.08,5.29a33,33,0,0,0-3.38-.82l-1.39-1.64-4.16-5.07L422,148.26v15c0,.6,0,1.67.07,3.21a22.72,22.72,0,0,0,.17,2.79,1.39,1.39,0,0,0,.25.67,1.44,1.44,0,0,0,.67.35,9.78,9.78,0,0,0,2.14.17l.16.16v.92l-.16.15a27.68,27.68,0,0,0-3.28-.14C420.08,171.52,418.38,171.57,416.92,171.66Z" fill="#fff"/>
    <path d="M450.3,144.06l.16-.13c4.46.08,7.32.11,8.57.11,4.27,0,8.08,0,11.41-.11l.1.13a33.07,33.07,0,0,0-.73,5.88l-.11.16h-1l-.18-.16a1.72,1.72,0,0,0,0-.31,18.82,18.82,0,0,0-.25-3.16,10.45,10.45,0,0,0-3.41-.72c-1.45-.11-2.54-.16-3.27-.16-1,0-2.34.07-3.95.21l-.07,3.13-.06,3.57-.06,4c1.4.07,2.7.11,3.89.11s2.2,0,3-.11a4.88,4.88,0,0,0,1.42-.25.79.79,0,0,0,.31-.49,7.06,7.06,0,0,0,.19-1.28l.08-1.21.15-.15h.9l.16.15c0,1.42-.06,2.85-.1,4.28l.1,4.4-.16.15h-.9l-.15-.15-.14-1.18a14.51,14.51,0,0,0-.26-1.63.86.86,0,0,0-.36-.46,3.94,3.94,0,0,0-1.45-.31c-.78-.08-1.86-.12-3.22-.12-.76,0-1.91,0-3.46.1-.07,1.1-.1,2.92-.1,5.47,0,2.73,0,4.75.1,6h3.59q4.75,0,5.94-.12a8,8,0,0,0,2.27-.57c.11-.3.3-1,.57-2.08s.42-1.77.46-2l.2-.14h.93l.16.14a26.28,26.28,0,0,0-.34,2.93c-.11,1.39-.17,2.59-.17,3.57l-.13.16q-3.74-.12-9.77-.12l-5.31,0c-1.24,0-2.53.06-3.87.16l-.16-.16v-.64l.16-.2a10.1,10.1,0,0,0,1.32-.73,15.28,15.28,0,0,0,.27-3.42c.07-2.18.11-3.84.11-5v-7.16l0-4.44c0-1,0-1.75,0-2.35a7.11,7.11,0,0,0-.14-1.3,1.55,1.55,0,0,0-.22-.55,1,1,0,0,0-.41-.26,5.08,5.08,0,0,0-1-.19l-1.48-.11-.16-.14Z" fill="#fff"/>
    <path d="M482.51,171.9l-1.78-8.15L477,147.68c-.3-1.28-.61-2-.94-2.14a8.49,8.49,0,0,0-2.11-.42l-.15-.16v-.86l.15-.17c1.88.1,3.54.15,5,.15,1.08,0,2.65-.05,4.72-.15l.18.17V145l-.16.16a15.6,15.6,0,0,0-2.61.21.61.61,0,0,0-.44.65,23.63,23.63,0,0,0,.4,2.59c.26,1.45.49,2.63.7,3.54l3.06,13.54,4.83-12q1.89-4.75,3.73-10h1.25q1.56,4.9,3.22,9.52l4.59,12.73,3.32-11.66q.51-1.83,1.25-4.82a26.56,26.56,0,0,0,.74-3.46.62.62,0,0,0-.48-.66,20.3,20.3,0,0,0-2.82-.18l-.15-.18v-.86l.15-.15c2.22.1,3.55.15,4,.15s1.77-.05,4.06-.15l.16.15V145l-.16.14a4.81,4.81,0,0,0-1.48.2,1.68,1.68,0,0,0-.65.51,8.39,8.39,0,0,0-.78,2l-1.13,3.64-2,6.58q-.43,1.42-1.59,5.78l-2.16,8.09h-2q-2-6.06-3.36-9.69l-4.45-12.05L489,159.81l-2.09,5.46c-.54,1.45-1,2.63-1.3,3.54l-1.08,3.09Z" fill="#fff"/>
    <path d="M514.85,164.81l.16-.16h1l.15.16a18.38,18.38,0,0,0,.27,3.05,2.49,2.49,0,0,0,1.05,1.17,7.54,7.54,0,0,0,2.36,1,11.67,11.67,0,0,0,3,.39,8.74,8.74,0,0,0,3.72-.76,5.79,5.79,0,0,0,2.57-2.24,6.13,6.13,0,0,0,.92-3.31,5.33,5.33,0,0,0-.44-2.24,3.83,3.83,0,0,0-1.23-1.54,5.71,5.71,0,0,0-1.81-.86c-.67-.18-1.68-.39-3-.61s-2.33-.4-3.06-.57a10.53,10.53,0,0,1-2.2-.78,5.7,5.7,0,0,1-1.82-1.34,6.18,6.18,0,0,1-1.18-2,7.27,7.27,0,0,1-.44-2.53,7.8,7.8,0,0,1,2.54-6,9.73,9.73,0,0,1,6.82-2.33,18.09,18.09,0,0,1,3.7.42,14.71,14.71,0,0,1,3.64,1.24l.14.24a26.64,26.64,0,0,0-.53,5.11l-.17.16h-1l-.16-.14c0-1.56-.06-2.54-.11-3s-.65-.9-1.78-1.5a7.75,7.75,0,0,0-3.69-.9,7.42,7.42,0,0,0-3.11.66,4.56,4.56,0,0,0-2.18,2.09,6.24,6.24,0,0,0-.75,2.91,4.51,4.51,0,0,0,.45,2,3.84,3.84,0,0,0,1.16,1.4,4.93,4.93,0,0,0,1.67.77c.63.17,1.78.38,3.46.63a20.43,20.43,0,0,1,5,1.18,5.53,5.53,0,0,1,2.52,2.2,6.68,6.68,0,0,1,1,3.63,8.59,8.59,0,0,1-3.39,6.93,12.55,12.55,0,0,1-8.21,2.78,16.26,16.26,0,0,1-7.09-1.45l-.12-.25A56.32,56.32,0,0,0,514.85,164.81Z" fill="#fff"/>
  </g>
  <g clip-path="url(#clip-path-3)">
    <g>
      <path d="M1270.37,177.61s-19.12-62.56-19.64-66.21-3-4.41-4.69-4.86a17.78,17.78,0,0,0-5.33,0s-38,9.59-42.43,10.87-5.11,7.78-5.11,7.78l7.46,27.6-1,.37,3.81,14.24h1.39s15.13,59.36,16.52,65a5.92,5.92,0,0,0,6.5,4.91s41.78-10.45,46.79-12.15,7-3.84,7.46-6.93S1270.37,177.61,1270.37,177.61Zm5.72,41.68s-43.38,11.31-47.75,12.38a5,5,0,0,1-6-2.77s-24.73-97.1-25.79-100.94-2.25-6.54.23-7.38c10.34-3.47,42.62-11.7,46.13-12.55s5.55,2.66,5.55,2.66S1276.2,203.63,1278,210,1276.09,219.29,1276.09,219.29Z" fill="#fff"/>
      <circle cx="1209.24" cy="137.2" r="6.91" fill="#fff"/>
      <polygon points="1216.63 128.42 1245.18 120.17 1246.69 125.8 1218.14 133.47 1216.63 128.42" fill="#fff"/>
      <circle cx="1226.22" cy="196.06" r="6.91" fill="#fff"/>
      <polygon points="1233.61 187.28 1262.16 179.03 1263.67 184.66 1235.12 192.33 1233.61 187.28" fill="#fff"/>
      <polygon points="1206.79 148.37 1251.23 136.15 1257.69 160.16 1212.73 172.76 1206.79 148.37" fill="#fff"/>
      <path d="M1321.83,148.65l17.34.71-15.49-10.26s10.52-4.67,11.09-4.81-14.5-2.84-14.5-3.27,3.41-8.24,3.41-8.24l-14.78,6.4-4.83-12.51-5.54,10.8-12.09-7.3,3.56,13.3-12.79,2.68,10.8,8.23-9.5,9,14.9-1.71-11.34,21.13-33.14-6.21,36.38,14.92,16.91-28.13,12.08,14.35-.85-14.21,14.64,8.1Zm-7.86-2-4.29,4.29-5.09-5.09-5.1,5.09-4.29-4.29,5.09-5.09-5.09-5.1,4.29-4.29,5.1,5.09,5.28-5.28,4.29,4.29-5.28,5.29Z" fill="#fff"/>
    </g>
  </g>
</svg>
