<svg id="Layer_1" data-name="Layer 1" xmlns="http://www.w3.org/2000/svg" xmlns:xlink="http://www.w3.org/1999/xlink" viewBox="0 0 1344.29 194.65">
  <defs>
    <clipPath id="clip-path">
      <rect x="12.75" y="38.65" width="171.58" height="133.87" fill="none"/>
    </clipPath>
    <clipPath id="clip-path-2">
      <rect x="1225.78" y="104.46" width="118.51" height="90.19" fill="none"/>
    </clipPath>
  </defs>
  <title>banner-8</title>
  <polygon points="204.41 104.46 162.93 172.48 0 172.48 0 194.65 279.31 194.65 1344.29 194.65 1344.29 104.46 204.41 104.46" fill="#212026"/>
  <g>
    <path d="M216.73,164.81l.15-.16h1l.16.16a17.7,17.7,0,0,0,.26,3.05,2.47,2.47,0,0,0,1.06,1.17,7.54,7.54,0,0,0,2.36,1,11.55,11.55,0,0,0,3,.39,8.74,8.74,0,0,0,3.72-.76,5.85,5.85,0,0,0,2.57-2.24,6.12,6.12,0,0,0,.91-3.31,5.33,5.33,0,0,0-.43-2.24,3.94,3.94,0,0,0-1.24-1.54,5.66,5.66,0,0,0-1.8-.86c-.68-.18-1.69-.39-3-.61s-2.32-.4-3.06-.57a10.65,10.65,0,0,1-2.19-.78,5.86,5.86,0,0,1-1.83-1.34,6,6,0,0,1-1.17-2,7.27,7.27,0,0,1-.44-2.53,7.76,7.76,0,0,1,2.54-6,9.65,9.65,0,0,1,6.81-2.34,18.18,18.18,0,0,1,3.71.42,15,15,0,0,1,3.64,1.24l.14.24a25.85,25.85,0,0,0-.53,5.11l-.18.16h-1l-.16-.14c0-1.56-.07-2.54-.12-3s-.64-.9-1.77-1.5a7.81,7.81,0,0,0-3.7-.9,7.23,7.23,0,0,0-3.1.67,4.51,4.51,0,0,0-2.19,2.08,6.36,6.36,0,0,0-.74,2.92,4.5,4.5,0,0,0,.45,2,3.75,3.75,0,0,0,1.16,1.4,5,5,0,0,0,1.66.77c.63.17,1.79.38,3.47.63a20.55,20.55,0,0,1,5,1.18,5.63,5.63,0,0,1,2.52,2.2,6.67,6.67,0,0,1,.94,3.63,8.59,8.59,0,0,1-3.39,6.93,12.52,12.52,0,0,1-8.21,2.78,16.29,16.29,0,0,1-7.09-1.45l-.12-.25C216.56,169.73,216.66,167.81,216.73,164.81Z" fill="#fff"/>
    <path d="M237.33,143.93c3.32.1,5.19.15,5.59.15s2.3-.05,5.6-.15l.16.13v1l-.16.14c-.89,0-1.59.06-2.08.11a2.54,2.54,0,0,0-1.06.3,1.38,1.38,0,0,0-.44,1,17.57,17.57,0,0,0-.11,2.2l0,4.49V156c2.86.08,5.56.11,8.11.11,3.49,0,6.15,0,8-.11v-2.74l0-3.81a24.54,24.54,0,0,0-.12-2.87,1.87,1.87,0,0,0-.27-.86,1.37,1.37,0,0,0-.7-.35,17.27,17.27,0,0,0-2.62-.21L257,145v-1l.14-.13c3.33.1,5.2.15,5.6.15s2.31-.05,5.61-.15l.16.13v1l-.16.14c-.91,0-1.61.06-2.1.11a2.49,2.49,0,0,0-1.06.3,1.3,1.3,0,0,0-.43,1,19.32,19.32,0,0,0-.12,2.2l0,4.49v9.05l0,3.8a24.32,24.32,0,0,0,.12,2.86,1.74,1.74,0,0,0,.28.86,1.5,1.5,0,0,0,.7.36,16.43,16.43,0,0,0,2.61.22l.16.12v1l-.16.16c-3.33-.1-5.2-.16-5.61-.16s-2.28.06-5.6.16l-.14-.16v-1l.14-.12a22.41,22.41,0,0,0,2.44-.19,1.66,1.66,0,0,0,.8-.31,1.59,1.59,0,0,0,.33-.79,15.86,15.86,0,0,0,.14-2.69l0-4.12v-4.46c-3.86-.08-6.56-.11-8.11-.11s-4.24,0-8,.11v4.46l0,3.8c0,1.48.06,2.43.12,2.86a2,2,0,0,0,.28.86,1.59,1.59,0,0,0,.72.36,16.21,16.21,0,0,0,2.59.22l.16.12v1l-.16.16c-3.32-.1-5.18-.16-5.6-.16s-2.27.06-5.59.16l-.15-.16v-1l.15-.12a22.64,22.64,0,0,0,2.43-.19,1.76,1.76,0,0,0,.81-.31,1.59,1.59,0,0,0,.33-.79,18.46,18.46,0,0,0,.14-2.69l0-4.12v-9.05l0-3.81c0-1.48,0-2.44-.1-2.87a1.74,1.74,0,0,0-.28-.86,1.41,1.41,0,0,0-.71-.35,16.9,16.9,0,0,0-2.6-.21l-.15-.14v-1Z" fill="#fff"/>
    <path d="M270.32,171.68l-.17-.16v-1l.17-.16a8.75,8.75,0,0,0,1.84-.14,1.63,1.63,0,0,0,.73-.51,17.14,17.14,0,0,0,1.3-2.49l2.05-4.45,5.31-12q1.5-3.53,3-7.07h1.27l8.34,19.61,1.11,2.62c.33.74.7,1.55,1.13,2.42a7.88,7.88,0,0,0,.87,1.55,1.93,1.93,0,0,0,.61.36,6.7,6.7,0,0,0,1.61.14l.16.16v1l-.16.16c-1.38-.12-2.62-.17-3.73-.17l-6.48.17-.16-.16v-1l.16-.16a15,15,0,0,0,2.73-.18.65.65,0,0,0,.55-.68,3.21,3.21,0,0,0-.28-1.13l-2.4-6H278.56l-2.13,5a6,6,0,0,0-.56,2,.76.76,0,0,0,.53.72,8.68,8.68,0,0,0,2.65.25l.18.16v1l-.16.16c-1.68-.1-3.15-.16-4.41-.16C273.22,171.52,271.78,171.58,270.32,171.68Zm8.91-11h9.88L284.21,149Z" fill="#fff"/>
    <path d="M301.4,144.06l.15-.13c2.38.1,4.24.15,5.57.15s3.46,0,6-.13c.92,0,1.59,0,2,0q4.94,0,6.7,1.79a5.89,5.89,0,0,1,1.75,4.26,6.63,6.63,0,0,1-.86,3.23,7.63,7.63,0,0,1-2.53,2.7,12.73,12.73,0,0,1-4.63,1.69c.36.51,1,1.39,2,2.64l2.77,3.67q1.35,1.81,2.89,3.84a12.26,12.26,0,0,0,2,2.28,2.34,2.34,0,0,0,.77.32,6.09,6.09,0,0,0,1,.06l.16.16v.92l-.18.17a17.65,17.65,0,0,0-2.22-.12q-1.4,0-3,.12c-.9-1.09-2.31-3-4.24-5.68q-3.36-4.69-6.87-8.69l.19-.61c.68,0,1.21.06,1.58.06a8,8,0,0,0,5.3-1.62,5.59,5.59,0,0,0,1.91-4.49,4.6,4.6,0,0,0-1.72-3.9,7.43,7.43,0,0,0-4.65-1.32,12.83,12.83,0,0,0-3.86.57c-.2.28-.3,2.73-.3,7.32v9.05l0,3.8a26.9,26.9,0,0,0,.12,2.86,1.85,1.85,0,0,0,.28.86,1.54,1.54,0,0,0,.72.36,16.21,16.21,0,0,0,2.59.22l.16.12v1l-.16.16-3.43-.12-2.17,0c-.41,0-2.27.06-5.59.16l-.15-.16v-1l.15-.12a22.12,22.12,0,0,0,2.42-.19,1.66,1.66,0,0,0,.81-.31,1.5,1.5,0,0,0,.34-.79,18.46,18.46,0,0,0,.14-2.69l0-4.12v-9.05l0-3.81c0-1.48-.05-2.44-.1-2.87a1.74,1.74,0,0,0-.28-.86,1.41,1.41,0,0,0-.71-.35,16.9,16.9,0,0,0-2.6-.21l-.15-.14Z" fill="#fff"/>
    <path d="M328.45,143.93l2.44.08c1.6.05,2.65.07,3.14.07s2.31-.05,5.61-.15l.15.13v1l-.15.14c-.9,0-1.59.06-2.08.11a2.55,2.55,0,0,0-1.07.3,1.42,1.42,0,0,0-.44,1,17.93,17.93,0,0,0-.1,2.2l0,4.49v9.05l0,3.8A28,28,0,0,0,336,169a1.83,1.83,0,0,0,.29.86,1.49,1.49,0,0,0,.71.36,16.39,16.39,0,0,0,2.6.22l.15.12v1l-.15.16-3.44-.12-2.17,0c-.4,0-2.26.06-5.58.16l-.16-.16v-1l.16-.12a22.37,22.37,0,0,0,2.42-.19,1.76,1.76,0,0,0,.81-.31,1.43,1.43,0,0,0,.33-.79,17.93,17.93,0,0,0,.15-2.69l0-4.12v-9.05l0-3.81c0-1.48-.05-2.44-.11-2.87a1.87,1.87,0,0,0-.27-.86,1.45,1.45,0,0,0-.72-.35,16.71,16.71,0,0,0-2.59-.21l-.16-.14v-1Z" fill="#fff"/>
    <path d="M342.06,171.66l-.18-.17v-.9l.18-.16a12.78,12.78,0,0,0,1.9-.14,1.34,1.34,0,0,0,.92-.39,1.81,1.81,0,0,0,.28-.88c0-.4.09-1.31.13-2.73s.07-2.43.07-3V147.46A2.45,2.45,0,0,0,345,146a1.61,1.61,0,0,0-1-.61,13.32,13.32,0,0,0-2.13-.14l-.15-.16v-.92l.15-.17q2.7.09,3.54.09,2,0,3.24-.09l6.23,8.08,9.16,11.49c1.11,1.39,2.23,2.71,3.38,4V152.4c0-.46,0-1.46-.07-3s-.1-2.5-.16-2.91a1.37,1.37,0,0,0-.35-.83,1.76,1.76,0,0,0-.91-.33,13.66,13.66,0,0,0-1.83-.12l-.16-.16v-.9l.16-.17c1.06.06,2.56.09,4.51.09,1.79,0,3.08,0,3.89-.09l.17.17v.9l-.15.16a13.38,13.38,0,0,0-2,.14,1.28,1.28,0,0,0-.88.42,2.26,2.26,0,0,0-.25.86c0,.38-.09,1.28-.13,2.7s-.07,2.44-.07,3.06v9.28l0,5.37c0,1.76,0,3.52.08,5.3a30.51,30.51,0,0,0-3.38-.83l-1.39-1.64-4.16-5.07-13.24-16.55v15c0,.6,0,1.67.07,3.21a26.35,26.35,0,0,0,.16,2.79,1.54,1.54,0,0,0,.26.67,1.39,1.39,0,0,0,.67.35,9.71,9.71,0,0,0,2.14.17l.15.16v.92l-.15.15a27.68,27.68,0,0,0-3.28-.14C345.22,171.52,343.52,171.57,342.06,171.66Z" fill="#fff"/>
    <path d="M403.27,160.88v.59l-.08.23-.95.57c-.24.14-.38.25-.41.33a6.46,6.46,0,0,0-.15,1.16q-.09,1.05-.09,2.55a33,33,0,0,0,.22,3.69l-.12.2a30.64,30.64,0,0,1-11,2.05,18.26,18.26,0,0,1-7.83-1.64,13,13,0,0,1-5.55-4.87,14,14,0,0,1-2.05-7.65,13.44,13.44,0,0,1,4.62-10.74q4.62-4,12.06-4a24.83,24.83,0,0,1,9.83,1.86l.13.21a49.29,49.29,0,0,0-.82,5.49l-.15.14H400l-.16-.16-.1-2.07a6.35,6.35,0,0,0-.12-1.19,1.46,1.46,0,0,0-.42-.46,9.84,9.84,0,0,0-1.81-.9,14.64,14.64,0,0,0-2.92-.9,16.45,16.45,0,0,0-3.14-.28,13.09,13.09,0,0,0-6.33,1.48,9.61,9.61,0,0,0-4.15,4.33,14.13,14.13,0,0,0-1.4,6.32,15,15,0,0,0,1.51,6.69,11.42,11.42,0,0,0,4.31,4.83,12.2,12.2,0,0,0,6.54,1.74,18.11,18.11,0,0,0,3.32-.32,10.07,10.07,0,0,0,2.78-.91,11.37,11.37,0,0,0,.17-2.52v-2.17a5.53,5.53,0,0,0-.19-1.92c-.13-.26-.45-.43-1-.54a23.25,23.25,0,0,0-3.33-.19l-.17-.18v-.86l.17-.18,1.19,0c2.05.07,3.71.1,5,.1.75,0,1.83,0,3.27-.12Z" fill="#fff"/>
    <path d="M414,171.68l-.17-.16v-1l.17-.16a8.68,8.68,0,0,0,1.84-.14,1.63,1.63,0,0,0,.73-.51,16.12,16.12,0,0,0,1.3-2.49l2.05-4.45,5.31-12c1-2.35,2-4.71,3-7.07h1.27l8.34,19.61,1.12,2.62c.32.74.7,1.55,1.12,2.42a7.21,7.21,0,0,0,.88,1.55,1.78,1.78,0,0,0,.6.36,6.7,6.7,0,0,0,1.61.14l.16.16v1l-.16.16c-1.38-.12-2.62-.17-3.73-.17l-6.48.17-.16-.16v-1l.16-.16a15,15,0,0,0,2.73-.18.65.65,0,0,0,.55-.68,3.39,3.39,0,0,0-.27-1.13l-2.4-6H422.2l-2.13,5a5.88,5.88,0,0,0-.57,2,.78.78,0,0,0,.53.72,8.73,8.73,0,0,0,2.65.25l.18.16v1l-.16.16c-1.68-.1-3.15-.16-4.41-.16C416.86,171.52,415.41,171.58,414,171.68Zm8.91-11h9.88L427.84,149Z" fill="#fff"/>
    <path d="M444.79,144.06l.16-.13c2.25.1,3.79.15,4.61.15l9.14-.19a23.31,23.31,0,0,1,6.41.73,11.12,11.12,0,0,1,4.44,2.54,11.92,11.92,0,0,1,2.95,4.2,13.05,13.05,0,0,1,1,5.11,15.51,15.51,0,0,1-.92,5.21A15.23,15.23,0,0,1,470,166.3a14.26,14.26,0,0,1-3.85,3.29,14,14,0,0,1-4.32,1.67,23.36,23.36,0,0,1-4.44.42c-1,0-2.93,0-5.74-.12l-1.84,0c-.89,0-2,.06-3.26.16l-.15-.16v-.64l.15-.19a10.91,10.91,0,0,0,1.32-.74,15.28,15.28,0,0,0,.27-3.42c.08-2.18.11-3.84.11-5v-7.16l0-4.44c0-1,0-1.75,0-2.35a7.34,7.34,0,0,0-.13-1.3,1.53,1.53,0,0,0-.23-.55.94.94,0,0,0-.41-.26,5.08,5.08,0,0,0-1-.19l-1.48-.11-.16-.14ZM452,169.55a24.11,24.11,0,0,0,4.59.39,14.89,14.89,0,0,0,7.28-1.52,9.53,9.53,0,0,0,4.07-4.51,16.19,16.19,0,0,0,1.35-6.74c0-3.69-1-6.54-2.95-8.57s-5.07-3-9.3-3a31.59,31.59,0,0,0-5,.39c-.1,2.13-.16,4.54-.16,7.23v6.13l0,5.74C451.9,166.16,451.94,167.66,452,169.55Z" fill="#fff"/>
    <path d="M488.6,171.88c-.19-.58-1-2.76-2.44-6.57l-6.64-16.42a22.4,22.4,0,0,0-1.43-3.2q-.29-.37-2.34-.51l-.17-.18v-.9l.17-.17c2,.1,3.69.15,5.08.15s3-.05,5.18-.15l.15.15v1.08l-.15.15a14.27,14.27,0,0,0-2.83.15.57.57,0,0,0-.46.56,14.92,14.92,0,0,0,.63,2.08c.42,1.23.79,2.27,1.11,3.11l6.12,15.45,5.09-12.81c.35-.87.87-2.28,1.55-4.22a18.26,18.26,0,0,0,1-3.5.59.59,0,0,0-.48-.62,23.29,23.29,0,0,0-2.86-.33l-.17-.16v-.94l.17-.15c2.28.1,3.73.15,4.36.15s1.82-.05,3.94-.15l.16.15V145l-.16.16a6,6,0,0,0-1.7.21,1.39,1.39,0,0,0-.51.61c-.15.3-.62,1.33-1.4,3.08l-6.09,15q-2.06,5-2.91,7.8Z" fill="#fff"/>
    <path d="M505,158.07a17.27,17.27,0,0,1,.84-5.47,12.68,12.68,0,0,1,2.86-4.7,13.88,13.88,0,0,1,4.87-3.34,16.67,16.67,0,0,1,6.45-1.18q6.66,0,10.6,3.62t3.95,9.9a16.19,16.19,0,0,1-1.93,7.93,13.55,13.55,0,0,1-5.54,5.46,16.62,16.62,0,0,1-8.1,2,15.74,15.74,0,0,1-5.86-1.07,12,12,0,0,1-4.56-3.17,13,13,0,0,1-2.73-4.88A17.32,17.32,0,0,1,505,158.07Zm4.06-1.29a19.19,19.19,0,0,0,.77,5.13,13.68,13.68,0,0,0,2.31,4.7,9.92,9.92,0,0,0,3.53,2.92,11.22,11.22,0,0,0,10-.43,8.69,8.69,0,0,0,3.6-4.3,16.75,16.75,0,0,0,1.23-6.56,17.45,17.45,0,0,0-1.41-7.13,9.41,9.41,0,0,0-4-4.62,11.57,11.57,0,0,0-5.76-1.45,9.65,9.65,0,0,0-7.48,3Q509,151,509.05,156.78Z" fill="#fff"/>
    <path d="M562.74,168.22,562,170a20.16,20.16,0,0,1-9.26,2.21q-7.05,0-11.45-4a13.48,13.48,0,0,1-4.41-10.47,13.86,13.86,0,0,1,2.2-7.78,13.66,13.66,0,0,1,5.8-5,19.22,19.22,0,0,1,8.1-1.65,23.91,23.91,0,0,1,5.13.55,21,21,0,0,1,4.24,1.31l.14.19a24.85,24.85,0,0,0-.84,5.41l-.14.16h-.92l-.15-.16-.2-3.32a10.85,10.85,0,0,0-3.44-1.77,14.07,14.07,0,0,0-4.21-.63,12.17,12.17,0,0,0-5.92,1.42,9.79,9.79,0,0,0-4.06,4.1,13.63,13.63,0,0,0-1.45,6.57,13.49,13.49,0,0,0,1.7,6.85,11.64,11.64,0,0,0,4.64,4.54,14.32,14.32,0,0,0,6.86,1.58,16.45,16.45,0,0,0,3.34-.33,13.5,13.5,0,0,0,2.67-.82,12.39,12.39,0,0,0,2-1.2Z" fill="#fff"/>
    <path d="M564.72,171.68l-.18-.16v-1l.18-.16a8.56,8.56,0,0,0,1.83-.14,1.57,1.57,0,0,0,.73-.51,16.12,16.12,0,0,0,1.3-2.49l2-4.45,5.32-12c1-2.35,2-4.71,3-7.07h1.27l8.34,19.61,1.12,2.62c.32.74.7,1.55,1.12,2.42a7.7,7.7,0,0,0,.88,1.55,1.78,1.78,0,0,0,.6.36,6.81,6.81,0,0,0,1.62.14l.15.16v1l-.15.16c-1.38-.12-2.63-.17-3.73-.17l-6.49.17-.15-.16v-1l.15-.16a15.2,15.2,0,0,0,2.74-.18.65.65,0,0,0,.54-.68,3.39,3.39,0,0,0-.27-1.13l-2.4-6H573l-2.13,5a5.88,5.88,0,0,0-.57,2,.78.78,0,0,0,.53.72,8.76,8.76,0,0,0,2.66.25l.17.16v1l-.15.16c-1.68-.1-3.16-.16-4.42-.16C567.62,171.52,566.17,171.58,564.72,171.68Zm8.9-11h9.89L578.6,149Z" fill="#fff"/>
    <path d="M622.22,168.22l-.75,1.82a20.11,20.11,0,0,1-9.25,2.21q-7.05,0-11.46-4a13.47,13.47,0,0,1-4.4-10.47,13.85,13.85,0,0,1,2.19-7.78,13.66,13.66,0,0,1,5.8-5,19.29,19.29,0,0,1,8.1-1.65,24.07,24.07,0,0,1,5.14.55,21.39,21.39,0,0,1,4.24,1.31l.13.19a24.85,24.85,0,0,0-.84,5.41L621,151h-.92l-.16-.16-.19-3.32a10.8,10.8,0,0,0-3.45-1.77,14.07,14.07,0,0,0-4.21-.63,12.19,12.19,0,0,0-5.92,1.42,9.85,9.85,0,0,0-4.06,4.1,13.75,13.75,0,0,0-1.45,6.57,13.49,13.49,0,0,0,1.7,6.85,11.71,11.71,0,0,0,4.64,4.54,14.34,14.34,0,0,0,6.87,1.58,16.52,16.52,0,0,0,3.34-.33,13.6,13.6,0,0,0,2.66-.82,12.39,12.39,0,0,0,2-1.2Z" fill="#fff"/>
    <path d="M624.48,143.93l2.44.08c1.6.05,2.65.07,3.15.07s2.31-.05,5.6-.15l.16.13v1l-.16.14c-.9,0-1.59.06-2.08.11a2.49,2.49,0,0,0-1.06.3,1.38,1.38,0,0,0-.44,1,17.57,17.57,0,0,0-.11,2.2l0,4.49v9.05l0,3.8a24.32,24.32,0,0,0,.12,2.86,1.85,1.85,0,0,0,.28.86,1.54,1.54,0,0,0,.72.36,16.21,16.21,0,0,0,2.59.22l.16.12v1l-.16.16-3.43-.12-2.17,0c-.41,0-2.27.06-5.59.16l-.15-.16v-1l.15-.12a22.12,22.12,0,0,0,2.42-.19,1.66,1.66,0,0,0,.81-.31,1.5,1.5,0,0,0,.34-.79,18.46,18.46,0,0,0,.14-2.69l0-4.12v-9.05l0-3.81c0-1.48,0-2.44-.1-2.87a1.74,1.74,0,0,0-.28-.86,1.41,1.41,0,0,0-.71-.35,16.9,16.9,0,0,0-2.6-.21l-.15-.14v-1Z" fill="#fff"/>
    <path d="M638.23,144.06l.16-.13c4.46.08,7.32.11,8.57.11,4.27,0,8.07,0,11.41-.11l.1.13a33.07,33.07,0,0,0-.73,5.88l-.11.16h-1l-.18-.16a1.72,1.72,0,0,0,0-.31,18.82,18.82,0,0,0-.25-3.16,10.45,10.45,0,0,0-3.41-.72c-1.45-.11-2.54-.16-3.27-.16-1,0-2.34.07-4,.21l-.07,3.13-.06,3.57-.06,4c1.4.07,2.7.11,3.89.11s2.2,0,3-.11a4.88,4.88,0,0,0,1.42-.25.76.76,0,0,0,.31-.49,7.06,7.06,0,0,0,.19-1.28l.08-1.21.15-.15h.9l.16.15c0,1.42-.06,2.85-.1,4.28l.1,4.4-.16.15h-.9l-.15-.15-.14-1.18a14.51,14.51,0,0,0-.26-1.63.86.86,0,0,0-.36-.46,3.94,3.94,0,0,0-1.45-.31c-.78-.08-1.86-.12-3.22-.12-.76,0-1.91,0-3.46.1-.07,1.1-.1,2.92-.1,5.47,0,2.73,0,4.75.1,6H649q4.76,0,5.94-.12a8,8,0,0,0,2.27-.57c.11-.3.3-1,.57-2.08s.42-1.77.46-2l.2-.14h.93l.16.14a26.28,26.28,0,0,0-.34,2.93c-.11,1.39-.17,2.59-.17,3.57l-.13.16q-3.74-.12-9.77-.12l-5.31,0c-1.24,0-2.53.06-3.87.16l-.16-.16v-.64l.16-.19a10.91,10.91,0,0,0,1.32-.74,15.28,15.28,0,0,0,.27-3.42c.07-2.18.11-3.84.11-5v-7.16l0-4.44c0-1,0-1.75,0-2.35a7.11,7.11,0,0,0-.14-1.3,1.55,1.55,0,0,0-.22-.55,1,1,0,0,0-.41-.26,5.08,5.08,0,0,0-1-.19l-1.48-.11-.16-.14Z" fill="#fff"/>
    <path d="M662.78,164.81l.16-.16h1l.15.16a17.26,17.26,0,0,0,.27,3.05,2.49,2.49,0,0,0,1,1.17,7.54,7.54,0,0,0,2.36,1,11.67,11.67,0,0,0,3,.39,8.74,8.74,0,0,0,3.72-.76,5.79,5.79,0,0,0,2.57-2.24,6.13,6.13,0,0,0,.92-3.31,5.33,5.33,0,0,0-.44-2.24,3.83,3.83,0,0,0-1.23-1.54,5.71,5.71,0,0,0-1.81-.86c-.67-.18-1.68-.39-3-.61s-2.33-.4-3.06-.57a10.53,10.53,0,0,1-2.2-.78,5.7,5.7,0,0,1-1.82-1.34,6.18,6.18,0,0,1-1.18-2,7.27,7.27,0,0,1-.44-2.53,7.76,7.76,0,0,1,2.54-6,9.69,9.69,0,0,1,6.82-2.34,18.09,18.09,0,0,1,3.7.42,14.71,14.71,0,0,1,3.64,1.24l.14.24a26.64,26.64,0,0,0-.53,5.11l-.17.16h-1l-.16-.14c0-1.56-.06-2.54-.11-3s-.65-.9-1.78-1.5a7.75,7.75,0,0,0-3.69-.9,7.27,7.27,0,0,0-3.11.67,4.49,4.49,0,0,0-2.18,2.08,6.25,6.25,0,0,0-.75,2.92,4.5,4.5,0,0,0,.45,2,3.77,3.77,0,0,0,1.17,1.4,4.79,4.79,0,0,0,1.66.77c.63.17,1.78.38,3.46.63a20.43,20.43,0,0,1,5,1.18,5.53,5.53,0,0,1,2.52,2.2,6.68,6.68,0,0,1,.95,3.63,8.59,8.59,0,0,1-3.39,6.93,12.55,12.55,0,0,1-8.21,2.78,16.26,16.26,0,0,1-7.09-1.45l-.12-.25A56.32,56.32,0,0,0,662.78,164.81Z" fill="#fff"/>
  </g>
  <g clip-path="url(#clip-path)">
    <g>
      <path d="M165.14,123.09s6.66,1.88,8.13,4.21,4.31,9.17-.26,19.47-10.15,11.74-13.15,11-10.92-3.13-10.92-3.13l.26-24.18Z" fill="#903d40"/>
      <path d="M52.39,148.4c38.43-18,62.14-5.64,63.54-2.55s3.69,5.65,1.65,6.25l-3.28,1s-5.46,14.08-8.46,18S93.67,183.26,95.52,187s.53,7.73,3.2,11.62,7.6,7.08,10,4.14.88-2.09,3.68-5,13.24-17.89,16-23.32,3.52-9.81,4.94-9.83,3.27,1.63,5.38-.32,0-3.07,3-3.84,3.81-2.49,3.81-2.49l3.38-2.59s11.18.67,16.19-12.53,0-19.79,0-19.79l2.15-2.43-6.31-3-4.83-.9-.62,1.29s-53-27.35-66.67-58.71L58,97.31S31.8,158.05,52.39,148.4Z" fill="#b3b3b3"/>
      <ellipse cx="55.54" cy="97.65" rx="58.05" ry="31.1" transform="translate(-55.37 115.56) rotate(-69.54)" fill="#903d40"/>
      <ellipse cx="54.76" cy="96.71" rx="51.99" ry="25.02" transform="translate(-54.98 114.22) rotate(-69.54)" fill="gray"/>
      <path d="M78.2,105.45A105.33,105.33,0,0,0,82,93.05h0s-12.65-5-16.72-6.16-10.66,3.36-10.66,3.36-3.37,5.94-4,9.27,4,10.67,5.23,12.89c.9,1.67,10.62,5.72,15.58,7.66A104.2,104.2,0,0,0,78.2,105.45Z" fill="#b3b3b3"/>
      <ellipse cx="55.76" cy="96.64" rx="8.06" ry="4.58" transform="translate(-54.27 115.1) rotate(-69.54)" fill="#740c10"/>
      <path d="M114.6,90.52s11.57,26-12.62,49.28h0a43.23,43.23,0,0,1,8.13,2.31h0c21.1-17.83,14.42-43.72,14.42-43.72-3.3-2.45-6.65-5.09-9.93-7.87Z" fill="#903d40"/>
    </g>
  </g>
  <g clip-path="url(#clip-path-2)">
    <path d="M1247.71,127.65a27.18,27.18,0,0,0-7.18.78,8.76,8.76,0,0,0-7,7.89,23.9,23.9,0,0,0,0,5.67,5.44,5.44,0,0,1,0,.57.73.73,0,0,1-.52.78.83.83,0,0,1-.9-.32,2.14,2.14,0,0,1-.2-.32c-1.38-2.9-2.82-5.81-3.17-9-.42-3.91,0-7.73,2.52-11a13.63,13.63,0,0,1,7.22-4.52,32.59,32.59,0,0,1,7.73-1.19c1.47-.08,3-.08,4.42-.07.52,0,.71-.18.71-.7,0-1.4,0-2.79,0-4.18,0-1.15.71-1.74,1.71-1.62a2,2,0,0,1,1.07.63l8.45,8.17c.69.66,1.39,1.3,2.06,2a1.37,1.37,0,0,1,0,2.2q-5.34,5.17-10.69,10.32a1.5,1.5,0,0,1-2.61-1.07c0-1.39,0-2.78,0-4.17,0-.61-.19-.83-.8-.8C1249.76,127.68,1248.94,127.65,1247.71,127.65Z" fill="#fff"/>
    <g>
      <polygon points="1280.56 106.85 1273.49 146.19 1330.78 176.6 1337.85 137.34 1280.56 106.85" fill="#fff"/>
      <polygon points="1284.36 106.25 1277.29 145.59 1334.58 176 1341.65 136.74 1284.36 106.25" fill="#fff"/>
      <path d="M1287.81,215.79a2.54,2.54,0,0,1-.61-.07,2.46,2.46,0,0,1-1.94-3l25.06-98.19a2.62,2.62,0,0,1,3.15-1.82,2.46,2.46,0,0,1,1.94,3l-25.06,98.19A2.58,2.58,0,0,1,1287.81,215.79Z" fill="#fff"/>
      <polygon points="1280.56 106.85 1284.36 106.25 1334.58 176 1330.78 176.6 1280.56 106.85" fill="#fff"/>
    </g>
    <g>
      <path d="M1272.43,179.06l2.6-2.6c.37-.37.37-.37.75,0,.71.71,1.41,1.42,2.13,2.12.21.21.23.34,0,.56q-3.6,3.59-7.19,7.18c-.17.17-.3.21-.5,0l-7.15-7.13c-.37-.37-.37-.37,0-.75.69-.7,1.39-1.38,2.06-2.08.24-.25.41-.27.66,0,.75.77,1.53,1.53,2.3,2.3.08.08.16.22.28.18s.09-.21.09-.32c0-5.93,0-11.86,0-17.79,0-1.25-.77-1.93-2.11-1.93-6.52,0-13,0-19.55,0a1.67,1.67,0,0,1-1.34-.55c-1-1-2-2-3-3-.09-.09-.26-.17-.19-.32s.24-.09.36-.09q12.07,0,24.13,0a5.79,5.79,0,0,1,5.65,5.67c0,6,0,12,0,18Z" fill="#fff"/>
      <path d="M1234.7,162.39c-.83.84-1.65,1.68-2.48,2.51-.39.4-.39.4-.78,0l-2.1-2.1c-.22-.21-.23-.36,0-.59q3.59-3.56,7.13-7.12c.24-.24.39-.22.62,0q3.59,3.6,7.19,7.17c.2.2.21.33,0,.52-.76.75-1.52,1.51-2.26,2.28-.2.2-.34.2-.53,0l-2.28-2.27-.34-.33c-.15.15-.1.31-.1.44v17.59a1.83,1.83,0,0,0,1.89,2.07c.25,0,.5,0,.76,0h19.27a1.24,1.24,0,0,1,1,.41c1,1.05,2.06,2.07,3.09,3.1.09.09.26.17.2.31s-.23.09-.36.09h-8c-5.26,0-10.52-.05-15.77,0a5.88,5.88,0,0,1-5.94-5.1,7.08,7.08,0,0,1,0-.92V162.45Z" fill="#fff"/>
    </g>
  </g>
</svg>
