<svg id="a131fb84-bc35-4841-8e5e-c943a6472ca6" data-name="Layer 1" xmlns="http://www.w3.org/2000/svg" xmlns:xlink="http://www.w3.org/1999/xlink" width="1344.293" height="194.648" viewBox="0 0 1344.293 194.648">
  <defs>
    <clipPath id="ae52b2d3-69de-4b02-9eaf-80ae5c67b537">
      <rect x="1220.214" y="-109.859" width="115.45" height="91.141" style="fill: none"/>
    </clipPath>
    <clipPath id="fac0d9e8-069c-4398-9962-3d8fa58f4788">
      <rect x="20.447" y="37.525" width="160.132" height="134.178" style="fill: none"/>
    </clipPath>
    <clipPath id="b0ca7d5b-9580-4978-8242-ceaf5b73b165">
      <rect x="1201.515" y="104.462" width="142.863" height="90.338" style="fill: none"/>
    </clipPath>
  </defs>
  <title>banner-6b</title>
  <g style="clip-path: url(#ae52b2d3-69de-4b02-9eaf-80ae5c67b537)">
    <circle cx="1255.024" cy="-3.231" r="4.864" style="fill: #fff"/>
  </g>
  <g style="clip-path: url(#fac0d9e8-069c-4398-9962-3d8fa58f4788)">
    <g>
      <path d="M72.207,145.778c-1.936,2.916-1.162,4.351-3.485,5.512s-1.677.54-4.774,1.561-4.13.5-6.065,2.956-3.1,5.032-4.9,7.742-1.033,1.033-6.065,4.259-6.453,3.226-8.388,5.162.258,1.419-4,3.742S34.009,178,24.976,181.1s-8.259,1.161-12.9,4.258-5.549,2.323-8.13,5.42-6.581,6.71-10.452,12.776-12.647,23.228-12.647,23.228H213.125s-4.775-18.841-15.228-27.358-11.227-9.162-15.872-9.936-4.13.129-10.066-5.549-13.292-12.518-16.9-12.647-2.194,1.162-4.9-1.161-2.968-2.194-5.678-4.388-3.871-1.548-7.355-4.258,4.133-1.368-7.766-6.453S72.207,145.778,72.207,145.778Z" style="fill: #441716"/>
      <path d="M13.689,201.8c2.573,1.4,2.339-10.757,6.081.7s6.314,20.813,6.548,14.265-2.339-9.12-1.17-13.563,2.807.575,7.484-5.325,4.443-6.364,6.08-9.289-1.4-12.046,2.806-4.329,7.25,4.911,7.951,9.822-.234,4.677-.234,11.927,1.17,14.966,2.105,9.822.234-12.628.468-18.942.7-7.718,2.572-.7,5.506,15.2,5.559,19.176,1.125,8.934,1.259.468.732-11.016,7.364-11.822,28.809,1.9,33.617,4.806c2.932,1.773-18.418-35.424-35.37-56.732a24.091,24.091,0,0,0-2.861.772c-3.1,1.02-4.13.5-6.065,2.956-.138.173-.263.349-.393.524h0c-1.444,1.946-2.478,3.973-3.782,6.079-.03.048-.059.1-.089.146-.206.329-.417.66-.64.993-.9,1.355-1.162,1.613-1.823,1.936-.083.04-.172.082-.269.126a23.764,23.764,0,0,0-2.342,1.2c-.464.268-1,.595-1.631,1-3.146,2.016-4.88,2.772-6.211,3.528a9.512,9.512,0,0,0-2.177,1.634,4.662,4.662,0,0,0-.789.973,2.774,2.774,0,0,0-.173.369c-.022.054-.042.107-.062.158a1.567,1.567,0,0,1-.443.638,4.814,4.814,0,0,1-.555.432q-.181.124-.415.271c-.391.244-.9.538-1.564.9s-1.135.644-1.489.872c-.283.182-.492.33-.667.458l-.243.18c-.076.056-.148.11-.222.162s-.151.1-.233.154c-.7.436-1.9.916-6.695,2.562-9.033,3.1-8.259,1.161-12.9,4.258-.871.581-1.61,1.025-2.254,1.385-.429.24-.816.442-1.17.621s-.677.336-.978.485c-.452.223-.855.429-1.246.67q-.2.12-.388.253a8.318,8.318,0,0,0-.783.621,13.046,13.046,0,0,0-1.311,1.385c-.806.968-1.751,1.986-2.788,3.114-.414.451-.844.92-1.285,1.41-.881.979-1.809,2.044-2.759,3.225-.713.885-1.438,1.835-2.166,2.863q-.363.515-.727,1.055t-.727,1.109c-.847,1.326-1.929,3.184-3.1,5.277q-.25.448-.508.911c-.341.615-.689,1.247-1.039,1.887s-.7,1.289-1.054,1.94c-.7,1.3-1.4,2.611-2.072,3.873-2.678,5.049-4.872,9.34-4.872,9.34H-7.825c1.169-6.278,4.911-8.617,10.289-15.866S11.117,200.392,13.689,201.8Z" style="fill: #270c06"/>
      <path d="M105.684,226.194l-8.7-63.032L74.891,146.038c-1.7-.169-2.684-.26-2.684-.26-1.936,2.916-1.162,4.351-3.485,5.512-2.093,1.047-1.785.649-3.968,1.307l-.548,1.79c-1.936,5.42-4.9,11.872-4.13,19.357s-.252,11.872-.126,20.647.642,15.486,6.062,20.906a106.7,106.7,0,0,1,9.259,11.485h29.057C105.181,226.418,105.684,226.194,105.684,226.194Z" style="fill: #433128"/>
      <path d="M125.163,157.812c.305.89,2.467,1.479,6.823,7.931s7.712,4.388,7.2,11.227-.258,10.582-2.193,16.131-3.1,6.065-3.872,11.356.646,7.485-3.1,13.808-12.9,15.614-13.421,19.486-4.645-54.458-4.645-54.458Z" style="fill: #433128"/>
      <path d="M101.758,175.98c-7.436,12.847-.2,31.832,7.1,22.928s6.4-20.374,6.4-20.374Z" style="fill: #a67437"/>
      <path d="M84.88,157.128c2.032,1.325,7.377,14.978,7.377,14.978l21.9.193,15.2-24.021-3.187-25.172L82.018,151.434Z" style="fill: #d29f6e"/>
      <path d="M123.991,127.819a5.679,5.679,0,0,1,1.6-.683c-1.074-1.536-.9-2.207-.1-5.181.826-3.083,3.7-5.232,5.059-10.07s2.42-4.234,1.361-9.374-1.814-7.711-5.443-11.34-6.652-2.268-8.315-6.8-1.966-3.78-3.024-8.77-.3-7.862-4.99-9.525-9.55-1.965-15.509-3.024-11.4-1.058-15.031,1.512-6.8,2.873-9.072,6.35-7.837,3.7-8.291,7.779c-.226,2.035-2,10.6-1.421,15.286.58,4.713,4.5,8.3,4.571,11.105.152,5.594,3.478,8.769.454,11.491-.877.789-1.545,1.4-2.044,1.923,1.132,3.149,2.984,7.055,4.009,9.421,1.262,2.912,0,6.988,0,9.705a13.852,13.852,0,0,0,3.2,8.347c2.038,2.523,1.455,1.844,2.038,3.785s2.232,3.882,3.493,5.531,4.562,2.135,8.347,1.844,2.038-1.164,5.24-2.329,5.338-1.456,9.9-2.814,4.658-2.621,7.958-4.756a84.09,84.09,0,0,0,7.764-6.114,20,20,0,0,0,4.464-6.308C120.788,133.448,122.729,128.693,123.991,127.819Z" style="fill: #ffc680"/>
      <path d="M56.611,82.856c.605-5.746-.907-10.13,2.722-13.456s4.233-9.072,8.315-14.061,4.234-7.258,9.072-10.886,5.14-6.8,10.281-5.594,4.687,2.872,9.223,2.872,10.886-3.477,14.968-2.872,14.817,2.268,18.9,9.222.453,7.409,7.711,10.13,11.037,0,13.758,6.8S154.433,74.691,157,82.1s1.058,7.257,0,14.968.3,7.559-.907,12.246-3.78,4.083-2.419,9.072,3.175,5.292,2.419,8.618.454,7.711-3.326,10.432-3.326.756-1.21,4.99,1.512,8.013-1.663,11.037-5.745,6.35-8.013,6.35-6.5,1.512-9.223,0-4.838.151-6.2-2.571-2.569-.993-3.779-3.369-1.815-1.469-1.21-4.644.605-2.721.605-8.164-.454-5.141,1.36-8.316,3.478-3.78,2.268-5.443-1.047-2.268-.221-5.351,3.7-5.232,5.059-10.07,2.42-4.234,1.361-9.374-1.814-7.711-5.443-11.34-6.652-2.268-8.315-6.8-1.966-3.78-3.024-8.77-.3-7.862-4.99-9.525-9.55-1.965-15.509-3.024-11.4-1.058-15.031,1.512-6.8,2.873-9.072,6.35-6.235,5.208-6.689,9.29c-.163,1.474-1.2,8.786-.956,12.182.44,6.013,2.408,9.123,2.5,12.7.152,5.594,3.478,8.769.454,11.491s-3.629,3.326-3.024,5.594-1.965-4.234-4.838-6.5-4.385-3.175-4.536-8.618-1.36-3.477.907-8.769,4.687-5.9,3.478-9.071A20.057,20.057,0,0,1,56.611,82.856Z" style="fill: #d1b077"/>
      <path d="M93,89.048c-1.787.183-4.83,2.576-2.383,2.511s5.5-1.3,9.364-.142,5.352,1.025,6.382,1.927,1.158-1.6-1.707-2.5S102.407,88.082,93,89.048Z" style="fill: #d1b077"/>
      <path d="M71.08,88.781c4.378-.1,7.761,1.48,7.468,2.4s-1.385.356-2.976.354-3.069-.744-4.933-.577-7.347,2.24-6.938.671S68.078,88.847,71.08,88.781Z" style="fill: #d1b077"/>
      <path d="M96.576,98.842c2.071-1.137,5.806-.731,6.659,0s4.3,2.639,3.288,3.208a26.5,26.5,0,0,1-6.821,2.192c-1.4.229-5.568-1.336-5.6-2.152C94.018,100.182,96.576,98.842,96.576,98.842Z" style="fill: #fae1d7"/>
      <path d="M66.1,100.182a6.378,6.378,0,0,1,4.832-2.477c1.421,0,5.562,1.3,5.806,2.152s.852,1.99-.731,2.518-7.047,1.4-8.323.852C66.833,102.862,65.047,101.928,66.1,100.182Z" style="fill: #fae1d7"/>
      <path d="M76.746,134.288c-.169-1.188,1.686-2.343,2.8-2.784s1.388.644,2.866.345a8.115,8.115,0,0,1,5.152.284c1.83.842.253.487,2.63,1.455s4.809,1.073,4.433,1.8,1.556.887-5,.508-9.9.161-10.83-.589S76.962,135.816,76.746,134.288Z" style="fill: #c05a1d"/>
      <path d="M77.511,134.228c-.416.047-1.172.023-1.049,1.071s.251,1.628,1.648,1.731c2.581.189,3.286-.5,6.476-.024s5.248.681,6.857.392,3.332-.379,3.033-1.033-1.438-1.467-4.6-1.84-3.759-.464-5.613-.57-1.3-.588-3.527-.27S77.511,134.228,77.511,134.228Z" style="fill: #992f00"/>
      <path d="M82.593,92.786a10.582,10.582,0,0,0-.236,3.468,9.57,9.57,0,0,1,.07,1.754,8.3,8.3,0,0,1-.085.972,4.966,4.966,0,0,1-.32.976c-.5,1.144-1.075,2.164-1.619,3.206a23.944,23.944,0,0,0-1.45,3.1l-.108.368c-.015.114-.04.209-.054.337-.021.273-.033.552-.037.839l0,1.753c0,.595,0,1.2-.051,1.823a4.384,4.384,0,0,1-.547,2,32.369,32.369,0,0,0-1.6,3.051c-.247.525-.486,1.056-.7,1.583a5.694,5.694,0,0,0-.257.733,6.187,6.187,0,0,0-.114.783,14.357,14.357,0,0,0,.109,3.349,4.015,4.015,0,0,0,.18.713c.018.052.034.061.046.1s.08.127.117.188l.233.383a4.944,4.944,0,0,0,.943,1.219,1.087,1.087,0,0,0,1.05.276,13.212,13.212,0,0,0,1.536-.606c1.067-.471,2.145-.97,3.251-1.426a12.582,12.582,0,0,1,3.605-1.047,6.384,6.384,0,0,1,.981.066l.857.091a4.021,4.021,0,0,0,1.391-.113,2.393,2.393,0,0,0,1.07-.982c.393-.495.833-.9,1.169-1.329a1.584,1.584,0,0,0,.376-1.441,4.418,4.418,0,0,0-.818-1.509,4.56,4.56,0,0,1,1.153,1.393,2.074,2.074,0,0,1-.154,1.911c-.3.561-.668,1.028-.93,1.513a3.493,3.493,0,0,1-1.3,1.571,3.185,3.185,0,0,1-2.068.321l-.9-.095a5.446,5.446,0,0,0-.78-.058,11.841,11.841,0,0,0-3.144.947c-1.073.443-2.133.933-3.221,1.414a13.686,13.686,0,0,1-1.752.679,2.454,2.454,0,0,1-2.234-.548,6.13,6.13,0,0,1-1.227-1.549l-.226-.372-.116-.186a2.619,2.619,0,0,1-.15-.3,5.123,5.123,0,0,1-.261-1,15.645,15.645,0,0,1-.122-3.7,7.5,7.5,0,0,1,.143-.963,6.706,6.706,0,0,1,.322-.935c.231-.562.477-1.106.73-1.647a33.275,33.275,0,0,1,1.684-3.2,3.2,3.2,0,0,0,.339-1.386c.045-.55.049-1.126.047-1.708l0-1.781c0-.3.018-.611.042-.926.016-.165.054-.359.085-.535l.139-.48a24.813,24.813,0,0,1,1.538-3.3c.546-1.044,1.127-2.081,1.568-3.1a3.031,3.031,0,0,0,.291-1.484,7.4,7.4,0,0,1,.235-1.775A9.046,9.046,0,0,1,82.593,92.786Z" style="fill: #efae76"/>
      <path d="M122.018,145.778c-3.05,2.652-3.346,2.948-5.713,5.315s-3.552,2.664-4.44,4.735-.3,1.973-2.663,2.96a29.023,29.023,0,0,0-6.215,3.847c-1.677,1.282-2.564,1.578-2.564,3.65s.1,3-.691,4.439-2.367,4.439-1.381,6.511,1.53,4.34,2.59,3.551.961-2.762,2.441-.987,3.157,3.749,3.255,4.735-.2,1.48-.3,5.031,0,7.5,0,7.5-3.058-3.748-3.354-7-.052-5.708-.437-7.144-2.127-12.29-5.679-14.953-3.65-1.677-5.129-3.354-1.254-2.936-3.256-4.123-4.059-2.447-2.819,0,2.326.868,1.241,2.446-4.636-.3-3.058,2.663a29.884,29.884,0,0,1,2.762,7.5c.888,3.157-.552,2.771,1.352,4.888S88.486,179.5,87.6,180s-1.283-.691-.4,1.973,1.085,1.578,1.677,5.524a30.573,30.573,0,0,0,2.663,9.568c1.579,3.453.79,2.861,2.171,6.412s1.479,4.143,2.959,5.919,9.963,19.236,11.443,21.012-.691,1.381,2.17-3.058,6.609-8.681,7.892-16.573,1.167-6.412,3.839-13.514,3.559-11.443,6.223-15.389,4.833-2.368,3.156-8.286-2.17-4.538-4.34-10.457a85.363,85.363,0,0,1-2.938-8.785C123.655,152.612,122.018,145.778,122.018,145.778Z" style="fill: #e0c3a2"/>
      <path d="M68.806,98.159a3.985,3.985,0,0,0-.244,1.382,2.853,2.853,0,1,0,5.6,0,4.024,4.024,0,0,0-.176-1.176,12.041,12.041,0,0,0-3.053-.66A6.251,6.251,0,0,0,68.806,98.159Z" style="fill: #673d40"/>
      <path d="M102.179,100.334a4.416,4.416,0,0,0-.487-2.05,8.716,8.716,0,0,0-5,.5,4.542,4.542,0,0,0-.269,1.549c0,2.035,1.288,3.684,2.876,3.684S102.179,102.369,102.179,100.334Z" style="fill: #673d40"/>
      <path d="M158.419,188.585c1.663,3.622-.442,4.324,2.365,11.34s7.249,12.394,8.652,16.6c1.027,3.082,1.557,6.181,2.866,10.136h13.735c0-.961,0-1.99,0-3.12,0-6.314-.468-12.394-1.637-14.031s-6.548-12.776-5.613-8.376,0,10.48.936,12.585,2.572,11.459-1.637-.7-5.379-6.206-8.185-15.146.234-4.731-2.806-13.851c-2.191-6.574-5.139-7.8-7.042-10.428-1.982-1.373-3.726-2.257-5-2.3-3.613-.129-2.194,1.162-4.9-1.161s-2.968-2.194-5.678-4.388-3.871-1.548-7.355-4.258c-1.161-.9-1.089-1.356-.918-1.746l-1.608.674c-.233,4.433,7.952,12.618,12.863,16.126S156.755,184.962,158.419,188.585Z" style="fill: #270c06"/>
    </g>
  </g>
  <polygon points="1209.322 104.462 1167.842 172.476 0 172.476 0 194.648 279.306 194.648 1344.293 194.648 1344.293 104.462 1209.322 104.462" style="fill: #212026"/>
  <g>
    <path d="M223.743,82.28h3.479v18.037c0,7.16-3.519,9.359-8.158,9.359a11.243,11.243,0,0,1-3.72-.64l.52-2.84a8.28,8.28,0,0,0,2.92.521c3.119,0,4.959-1.4,4.959-6.679Z" style="fill: #212026"/>
    <path d="M256.06,95.479c0,9.278-5.639,14.2-12.518,14.2-7.118,0-12.117-5.519-12.117-13.678,0-8.558,5.318-14.157,12.517-14.157C251.3,81.841,256.06,87.48,256.06,95.479Zm-20.917.439c0,5.76,3.12,10.919,8.6,10.919,5.519,0,8.639-5.079,8.639-11.2,0-5.36-2.8-10.958-8.6-10.958C238.023,84.681,235.143,90,235.143,95.918Z" style="fill: #212026"/>
    <path d="M264.063,82.28V93.559H277.1V82.28h3.52v26.956H277.1V96.6H264.063v12.637h-3.479V82.28Z" style="fill: #212026"/>
    <path d="M286.664,109.236V82.28h3.8L299.1,95.918a76.138,76.138,0,0,1,4.839,8.759l.08-.04c-.319-3.6-.4-6.879-.4-11.078V82.28H306.9v26.956h-3.519l-8.559-13.677a85.368,85.368,0,0,1-5.039-9l-.12.04c.2,3.4.28,6.638.28,11.118v11.518Z" style="fill: #212026"/>
    <path d="M321.463,82.28h3.479v24.037H336.46v2.919h-15Z" style="fill: #212026"/>
    <path d="M361.819,95.479c0,9.278-5.64,14.2-12.518,14.2-7.119,0-12.118-5.519-12.118-13.678,0-8.558,5.319-14.157,12.518-14.157C357.059,81.841,361.819,87.48,361.819,95.479Zm-20.917.439c0,5.76,3.12,10.919,8.6,10.919,5.519,0,8.638-5.079,8.638-11.2,0-5.36-2.8-10.958-8.6-10.958C343.782,84.681,340.9,90,340.9,95.918Z" style="fill: #212026"/>
    <path d="M385.179,108.357a17.289,17.289,0,0,1-7.119,1.279c-7.6,0-13.317-4.8-13.317-13.638,0-8.438,5.719-14.157,14.077-14.157a14.465,14.465,0,0,1,6.4,1.2l-.839,2.84a12.682,12.682,0,0,0-5.44-1.12c-6.319,0-10.518,4.04-10.518,11.118,0,6.6,3.8,10.839,10.358,10.839a13.941,13.941,0,0,0,5.679-1.12Z" style="fill: #212026"/>
    <path d="M389.542,82.28h3.479v13h.12c.72-1.04,1.44-2,2.119-2.879L403.5,82.28h4.319L398.06,93.719l10.519,15.517H404.46L395.581,96l-2.56,2.96v10.278h-3.479Z" style="fill: #212026"/>
    <path d="M425.179,96.6H414.7v9.718h11.678v2.919H411.221V82.28h14.558V85.2H414.7v8.519h10.478Z" style="fill: #212026"/>
    <path d="M225.666,133.164h-7.873l.568-2.884H237.45l-.56,2.884h-7.915l-4.561,24.072H221.1Z" style="fill: #212026"/>
    <path d="M238.541,137.9l.682,10.876a49.634,49.634,0,0,1,.092,5.2h.09a49.271,49.271,0,0,1,2.123-4.856l5.756-11.224h2.889l1.222,11.019a50.607,50.607,0,0,1,.306,5.061h.1c.515-1.559,1.044-3.057,1.828-4.908l5.221-11.172h3.378l-9.558,19.341h-3.08l-1.278-10.508a44.338,44.338,0,0,1-.282-5.149h-.083c-.81,1.863-1.367,3.335-2.244,5.05l-5.548,10.607h-3.1L235.267,137.9Z" style="fill: #212026"/>
    <path d="M280.48,145.5c0,5.975-4.242,12.177-10.746,12.177-4.844,0-7.552-3.591-7.552-7.942,0-6.39,4.436-12.279,10.728-12.279C278.126,137.455,280.48,141.4,280.48,145.5ZM265.606,149.6c0,3.142,1.746,5.444,4.584,5.444,3.9,0,6.866-5.059,6.866-9.556,0-2.259-1.044-5.408-4.507-5.408C268.369,140.084,265.6,145.17,265.606,149.6Z" style="fill: #212026"/>
    <path d="M299.425,133.164h-7.874l.569-2.884h19.09l-.56,2.884h-7.916l-4.561,24.072h-3.31Z" style="fill: #212026"/>
    <path d="M307,157.236l2.363-12.459c.475-2.521.768-5.088.981-6.882h2.922c-.156,1.344-.313,2.7-.538,4.2h.116c1.269-2.65,3.334-4.642,5.928-4.642a5.836,5.836,0,0,1,.948.072l-.644,3.274a4.756,4.756,0,0,0-.9-.069c-2.87,0-5.428,3.48-6.266,7.971l-1.6,8.533Z" style="fill: #212026"/>
    <path d="M333.427,156.127a13.623,13.623,0,0,1-6.394,1.529c-5.139,0-7.358-3.5-7.358-7.783,0-5.824,4.326-12.418,10.551-12.418,3.681,0,5.678,2.194,5.681,4.962,0,5.08-5.724,6.417-12.874,6.282a8.024,8.024,0,0,0,.392,3.681,4.372,4.372,0,0,0,4.3,2.6,10.738,10.738,0,0,0,5.21-1.326Zm-3.667-16.092c-3.16,0-5.544,3.084-6.353,6.112,5.212.061,9.294-.634,9.294-3.648C332.7,140.908,331.487,140.035,329.76,140.035Z" style="fill: #212026"/>
    <path d="M350.423,157.236a43.441,43.441,0,0,1,.431-5h-.086c-2.089,4.017-4.758,5.437-7.489,5.437-3.427,0-5.561-2.723-5.561-6.391,0-6.738,4.957-13.83,13.372-13.83a19.153,19.153,0,0,1,5.218.734l-1.973,10.081a43.569,43.569,0,0,0-.819,8.966Zm2.152-16.867a7.675,7.675,0,0,0-2.3-.273c-5.008,0-9.1,5.209-9.117,10.591-.014,2.162.748,4.267,3.3,4.267,2.776,0,6.027-3.605,6.991-8.748Z" style="fill: #212026"/>
    <path d="M367.175,132.7l-1,5.2H370.8l-.517,2.6h-4.626l-1.78,9.4a16.2,16.2,0,0,0-.384,3.086,1.65,1.65,0,0,0,1.83,1.876,6.309,6.309,0,0,0,1.561-.156l-.159,2.61a8.093,8.093,0,0,1-2.564.351c-2.923,0-4.071-1.773-4.071-3.752a17.972,17.972,0,0,1,.423-3.63l1.889-9.789h-2.768l.5-2.6h2.778l.815-4.359Z" style="fill: #212026"/>
    <path d="M371.037,157.236l3.694-19.341h3.31l-3.695,19.341Zm4.306-24.742a2.2,2.2,0,0,1,2.182-2.245,1.932,1.932,0,0,1,1.975,2.083,2.2,2.2,0,0,1-2.249,2.233A1.892,1.892,0,0,1,375.343,132.494Z" style="fill: #212026"/>
    <path d="M380.357,153.876a8.8,8.8,0,0,0,4.16,1.2c2.234,0,3.68-1.443,3.68-3.158,0-1.51-.68-2.455-2.686-3.567-2.239-1.239-3.5-2.949-3.5-4.932,0-3.377,2.931-5.967,7.01-5.967a7.919,7.919,0,0,1,4.027.96l-.931,2.5a6.891,6.891,0,0,0-3.335-.882c-2.023,0-3.449,1.26-3.449,2.905,0,1.424.928,2.285,2.658,3.257,2.154,1.219,3.611,2.908,3.611,5.082,0,4.066-3.306,6.374-7.386,6.374a8.594,8.594,0,0,1-4.811-1.326Z" style="fill: #212026"/>
    <path d="M409.064,156.127a13.629,13.629,0,0,1-6.394,1.529c-5.139,0-7.359-3.5-7.359-7.783,0-5.824,4.326-12.418,10.553-12.418,3.68,0,5.677,2.194,5.68,4.962,0,5.08-5.724,6.417-12.873,6.282a8.021,8.021,0,0,0,.39,3.681,4.375,4.375,0,0,0,4.3,2.6,10.742,10.742,0,0,0,5.211-1.326ZM405.4,140.035c-3.158,0-5.543,3.084-6.351,6.112,5.212.061,9.293-.634,9.293-3.648C408.338,140.908,407.125,140.035,405.4,140.035Z" style="fill: #212026"/>
    <path d="M413.4,153.876a8.8,8.8,0,0,0,4.16,1.2c2.234,0,3.68-1.443,3.68-3.158,0-1.51-.68-2.455-2.685-3.567-2.24-1.239-3.5-2.949-3.5-4.932,0-3.377,2.931-5.967,7.01-5.967a7.919,7.919,0,0,1,4.027.96l-.931,2.5a6.891,6.891,0,0,0-3.335-.882c-2.023,0-3.449,1.26-3.449,2.905,0,1.424.928,2.285,2.658,3.257,2.154,1.219,3.611,2.908,3.611,5.082,0,4.066-3.306,6.374-7.385,6.374a8.6,8.6,0,0,1-4.812-1.326Z" style="fill: #212026"/>
    <path d="M454,145.5c0,5.975-4.241,12.177-10.746,12.177-4.843,0-7.552-3.591-7.552-7.942,0-6.39,4.436-12.279,10.728-12.279C451.641,137.455,454,141.4,454,145.5ZM439.121,149.6c0,3.142,1.747,5.444,4.585,5.444,3.9,0,6.865-5.059,6.865-9.556,0-2.259-1.043-5.408-4.508-5.408C441.884,140.084,439.118,145.17,439.121,149.6Z" style="fill: #212026"/>
    <path d="M456.769,157.236l3.174-16.738h-2.576l.5-2.6h2.587l.186-1.032a11.77,11.77,0,0,1,3.168-6.749,6.937,6.937,0,0,1,4.59-1.713,5.53,5.53,0,0,1,2.657.518l-.721,2.655a4.58,4.58,0,0,0-1.943-.377c-2.636,0-3.92,2.575-4.483,5.77l-.169.928h4.313l-.508,2.6h-4.3l-3.181,16.738Z" style="fill: #212026"/>
    <path d="M494.861,156.082a21.778,21.778,0,0,1-7.6,1.424c-3.8,0-6.769-1.08-8.813-3.356a11.565,11.565,0,0,1-2.715-7.866,15.8,15.8,0,0,1,16.347-16.273,13.924,13.924,0,0,1,6.371,1.235l-1.1,2.8a12.362,12.362,0,0,0-5.669-1.17,12.144,12.144,0,0,0-8.348,3.277,13.949,13.949,0,0,0-4.041,9.869c0,5.2,2.619,8.652,8.6,8.652a10.689,10.689,0,0,0,4.1-.762l1.526-8.051h-5.457l.521-2.717H497.3Z" style="fill: #212026"/>
    <path d="M518.512,145.5c0,5.975-4.241,12.177-10.746,12.177-4.842,0-7.551-3.591-7.551-7.942,0-6.39,4.435-12.279,10.727-12.279C516.159,137.455,518.512,141.4,518.512,145.5ZM503.638,149.6c0,3.142,1.747,5.444,4.585,5.444,3.9,0,6.866-5.059,6.866-9.556,0-2.259-1.043-5.408-4.508-5.408C506.4,140.084,503.635,145.17,503.638,149.6Z" style="fill: #212026"/>
    <path d="M524.855,137.9l1.665,11.014c.292,2.2.541,3.691.619,4.75h.113c.424-1.024.941-2.3,2.061-4.506l5.9-11.258h3.635l-10.766,19.341h-3.267L521.476,137.9Z" style="fill: #212026"/>
    <path d="M552.381,156.127a13.631,13.631,0,0,1-6.395,1.529c-5.139,0-7.358-3.5-7.358-7.783,0-5.824,4.326-12.418,10.551-12.418,3.681,0,5.678,2.194,5.681,4.962,0,5.08-5.724,6.417-12.874,6.282a8.024,8.024,0,0,0,.392,3.681,4.372,4.372,0,0,0,4.3,2.6,10.738,10.738,0,0,0,5.21-1.326Zm-3.668-16.092c-3.16,0-5.544,3.084-6.353,6.112,5.212.061,9.294-.634,9.294-3.648C551.654,140.908,550.44,140.035,548.713,140.035Z" style="fill: #212026"/>
    <path d="M556.551,157.236l2.364-12.459c.474-2.521.767-5.088.981-6.882h2.922c-.156,1.344-.313,2.7-.538,4.2h.116c1.269-2.65,3.334-4.642,5.928-4.642a5.844,5.844,0,0,1,.948.072l-.644,3.274a4.775,4.775,0,0,0-.9-.069c-2.869,0-5.427,3.48-6.265,7.971l-1.6,8.533Z" style="fill: #212026"/>
    <path d="M569.231,157.236l2.587-13.711c.429-2.152.692-4.027.913-5.63h2.979l-.5,3.8h.079a8.52,8.52,0,0,1,7.175-4.239c2.295,0,4.89,1.324,4.89,5.37a19.479,19.479,0,0,1-.345,3.122l-2.148,11.289h-3.31l2.116-11.174a14.788,14.788,0,0,0,.262-2.476c0-1.94-.749-3.37-3.032-3.37-2.38,0-5.737,2.835-6.614,7.618l-1.744,9.4Z" style="fill: #212026"/>
    <path d="M590.592,157.236l2.568-13.711c.42-2.152.683-4.027.894-5.63h2.925l-.511,3.629h.093c1.811-2.7,4.243-4.069,6.814-4.069a4.2,4.2,0,0,1,4.518,4.314A8.3,8.3,0,0,1,615,137.455c2.241,0,4.7,1.429,4.7,5.073a20.543,20.543,0,0,1-.318,3.289l-2.16,11.419h-3.24l2.088-11.141a14.864,14.864,0,0,0,.281-2.527c0-2.048-.776-3.358-2.915-3.358-2.42,0-5.279,2.783-6.077,7.114l-1.845,9.912h-3.228l2.159-11.351a12.715,12.715,0,0,0,.26-2.361c0-1.629-.454-3.314-2.9-3.314-2.4,0-5.436,3.2-6.179,7.3l-1.788,9.722Z" style="fill: #212026"/>
    <path d="M636.86,156.127a13.629,13.629,0,0,1-6.394,1.529c-5.139,0-7.359-3.5-7.359-7.783,0-5.824,4.326-12.418,10.552-12.418,3.681,0,5.678,2.194,5.681,4.962,0,5.08-5.724,6.417-12.874,6.282a8.023,8.023,0,0,0,.391,3.681,4.374,4.374,0,0,0,4.3,2.6,10.741,10.741,0,0,0,5.21-1.326Zm-3.668-16.092c-3.159,0-5.544,3.084-6.352,6.112,5.211.061,9.294-.634,9.294-3.648C636.134,140.908,634.92,140.035,633.192,140.035Z" style="fill: #212026"/>
    <path d="M641.031,157.236l2.586-13.711c.43-2.152.693-4.027.913-5.63h2.98l-.5,3.8h.081a8.517,8.517,0,0,1,7.173-4.239c2.3,0,4.891,1.324,4.891,5.37a19.586,19.586,0,0,1-.344,3.122l-2.148,11.289h-3.31l2.115-11.174a14.788,14.788,0,0,0,.262-2.476c0-1.94-.748-3.37-3.031-3.37-2.38,0-5.737,2.835-6.615,7.618l-1.743,9.4Z" style="fill: #212026"/>
    <path d="M671.048,132.7l-1,5.2h4.623l-.518,2.6h-4.625l-1.781,9.4a16.2,16.2,0,0,0-.384,3.086,1.65,1.65,0,0,0,1.83,1.876,6.323,6.323,0,0,0,1.562-.156l-.16,2.61a8.089,8.089,0,0,1-2.564.351c-2.923,0-4.07-1.773-4.07-3.752a17.9,17.9,0,0,1,.423-3.63l1.888-9.789H663.51l.5-2.6h2.778l.815-4.359Z" style="fill: #212026"/>
  </g>
  <g style="clip-path: url(#b0ca7d5b-9580-4978-8242-ceaf5b73b165)">
    <g>
      <circle cx="1224.383" cy="143.318" r="15.832" style="fill: #fff"/>
      <path d="M1210.84,135.116c.7-1.654,11-15.058,13.082-16.651s5.751-3.76,7.786-3.893a17,17,0,0,1,6.812.973c2.92.929,7.035,3.937,8.229,5.884s2.61,5.663,2.61,7.388-1.283,5.432-1.5,6.3,1.283.16,1.5.868-1.236,1.048.327,1.1,2.5-1.013,4.893-.04,15.838,7.167,16.988,6.9.752-.752,2.477-.443a5.112,5.112,0,0,1,2.92,1.283c.531.487-1.15.4,2.832,1.327s9.29,1.947,11.148,2.345,41.267,9.326,43.527,9.958c5.241,1.466,3.966,11.013,0,12.826-1.32.6-15.9-1.832-17.664-2.931s-38.333-14-40.018-14.659-3.3,1.612-4.618.66-1.173-1.466-2.785-2.492-12.24-1.173-14.732-1.906-4.691-2.492-6.23-3.372-2.272.953-3.665-.366-2.126-.66-2.932,1.1-5.133,5.994-5.133,5.994Z" style="fill: #fff"/>
    </g>
    <path d="M1278.214,160.164c-1.6,2.449-2.9,5.061-4.284,7.631-1.925,3.587-3.785,7.209-5.614,10.846q-5.723,11.381-11,22.977c-.687,1.5-1.328,3.025-1.969,4.548a2.882,2.882,0,0,1-1.072,1.36c-.206.135-.427.28-.67.146-.352-.195-.144-.491-.066-.733a54.359,54.359,0,0,1,2.253-5.229q3.708-8.441,7.775-16.717c.592-1.2.515-1.34-.856-1.479a12.529,12.529,0,0,0-3.7.3c-.288.057-.7.224-.833-.141-.146-.394.335-.427.554-.613,1.038-.877,2.426-.847,3.673-1.438a18.131,18.131,0,0,1-2.251-1.913c-.137-.184-.438-.33-.243-.6.182-.251.436-.065.66.007.916.3,1.822.648,2.757.867.505.119.84.219.827-.786-.04-3.091-1.333-5.72-2.5-8.426-.113-.262-.381-.589-.012-.823.269-.171.542.042.735.236a13.3,13.3,0,0,1,1.861,1.934c.183.28.349.657.773.577s.451-.47.525-.808a72.259,72.259,0,0,1,5.451-15.5,105.384,105.384,0,0,1,9.214-15.7c1.818-2.557,3.488-5.23,5.441-7.678a175.038,175.038,0,0,1,16.739-18.882,49.442,49.442,0,0,1,7.011-5.808c2.293-1.468,4.217-1.183,6.048.839,1.994,2.2,2.417,4.8,2.166,7.6-.462,5.161-2.806,9.538-5.73,13.673a41.7,41.7,0,0,1-3.148,4.471c-1.438,1.547-2.858,3.206-4.909,4.05-.146.06-.336.115-.355.406a5.263,5.263,0,0,0,2.329-.64c.285-.1.556-.369.85-.089.25.239.074.524-.022.773a23.741,23.741,0,0,1-4.741,7.71,7.221,7.221,0,0,1-2.776,1.878c.606.135,1.088-.2,1.612-.354.281-.081.6-.358.835.006.17.266-.052.534-.22.747a14.289,14.289,0,0,1-5.2,4.481.681.681,0,0,0-.371.411c.39-.071.78-.139,1.169-.215.266-.052.57-.218.78.032.238.285.038.6-.1.87-.834,1.628-1.648,3.268-2.533,4.87a39.084,39.084,0,0,1-7.278,9.634,22.875,22.875,0,0,1-11.315,5.7,3.327,3.327,0,0,0-.869.258,11.318,11.318,0,0,0,7.92-.81c.562-.258,1.076-.619,1.621-.916.278-.151.567-.566.894-.189.282.326-.13.549-.293.782a14.925,14.925,0,0,1-7.274,5.582,6.164,6.164,0,0,0-.561.257c-.02.01-.022.059-.052.146a4.1,4.1,0,0,0,2.847-.469c.247-.093.492-.377.729-.072.224.288-.063.52-.22.723a10.36,10.36,0,0,1-6.61,3.728,19.821,19.821,0,0,1-6.62,0,9.418,9.418,0,0,1,1.062,2.714c.052.363.218.876-.189,1.02s-.471-.405-.63-.683a5.875,5.875,0,0,0-1.246-1.769c-.6-.486-.556-.991-.246-1.642,2.359-4.956,4.848-9.845,7.369-14.721q1.968-3.808,4.032-7.565a9.275,9.275,0,0,0,.4-.953q2.4-4.1,4.8-8.205a1.521,1.521,0,0,0,.126-1,.927.927,0,0,0,.783-.584c.811-1.5,1.852-2.876,2.551-4.444.227-.3.481-.586.678-.906.805-1.313,1.59-2.638,2.39-3.954a14.291,14.291,0,0,0,1.96-3.267c.23-.3.476-.588.687-.9,1.928-2.859,3.86-5.715,5.918-8.483.853-1.146,1.68-2.311,2.625-3.614-.251.106-.328.114-.362.156q-4.318,5.424-8.217,11.159a2.334,2.334,0,0,0-.643,1.7c-.414-.164-.542.171-.7.419q-2.153,3.308-4.3,6.621a.945.945,0,0,0-.19.865,13.753,13.753,0,0,0-3.172,5.244c-.61.244-.768.855-1.068,1.341q-.8,1.3-1.541,2.644A41.663,41.663,0,0,0,1278.214,160.164Z" style="fill: #fff"/>
  </g>
</svg>
