<svg id="Layer_1" data-name="Layer 1" xmlns="http://www.w3.org/2000/svg" xmlns:xlink="http://www.w3.org/1999/xlink" viewBox="0 0 1344.29 194.65">
  <defs>
    <clipPath id="clip-path">
      <rect x="21.39" y="40.31" width="158.8" height="133.06" fill="none"/>
    </clipPath>
    <clipPath id="clip-path-2">
      <rect x="1147.67" y="-122.07" width="180.63" height="90.19" fill="none"/>
    </clipPath>
    <clipPath id="clip-path-3">
      <rect x="1151.22" y="104.46" width="180.63" height="90.19" fill="none"/>
    </clipPath>
  </defs>
  <title>banner-4b</title>
  <polygon points="1209.32 104.46 1167.84 172.48 0 172.48 0 194.65 279.31 194.65 1344.29 194.65 1344.29 104.46 1209.32 104.46" fill="#212026"/>
  <g>
    <path d="M217.74,155.1a12.33,12.33,0,0,0,6.24,1.76c3.56,0,5.64-1.88,5.64-4.6,0-2.52-1.44-4-5.08-5.36-4.4-1.56-7.12-3.84-7.12-7.64,0-4.2,3.48-7.32,8.72-7.32a12.25,12.25,0,0,1,6,1.32l-1,2.84a10.74,10.74,0,0,0-5.12-1.28c-3.68,0-5.08,2.2-5.08,4,0,2.52,1.64,3.76,5.36,5.2,4.56,1.76,6.88,4,6.88,7.92,0,4.15-3.08,7.75-9.44,7.75a13.93,13.93,0,0,1-6.88-1.72Z" fill="#212026"/>
    <path d="M243.06,135.34h-8.2v-3h20v3h-8.24v24h-3.52Z" fill="#212026"/>
    <path d="M254.46,157.25a2.36,2.36,0,0,1,2.4-2.51,2.52,2.52,0,0,1,0,5A2.36,2.36,0,0,1,254.46,157.25Z" fill="#212026"/>
    <path d="M275.66,135.34h-8.2v-3h20v3h-8.24v24h-3.52Z" fill="#212026"/>
    <path d="M293.9,132.38v11.28h13V132.38h3.52v27h-3.52V146.7h-13v12.63h-3.48v-27Z" fill="#212026"/>
    <path d="M339.54,145.58c0,9.28-5.64,14.19-12.52,14.19-7.12,0-12.12-5.51-12.12-13.67,0-8.56,5.32-14.16,12.52-14.16C334.78,131.94,339.54,137.58,339.54,145.58Zm-20.92.44c0,5.76,3.12,10.92,8.6,10.92s8.64-5.08,8.64-11.2c0-5.36-2.8-11-8.6-11S318.62,140.1,318.62,146Z" fill="#212026"/>
    <path d="M366.78,147.5c-.2-3.76-.44-8.28-.4-11.64h-.12c-.92,3.16-2,6.52-3.4,10.24l-4.76,13.07h-2.64l-4.36-12.83c-1.28-3.8-2.36-7.28-3.12-10.48h-.08c-.08,3.36-.28,7.88-.52,11.92l-.72,11.55h-3.32l1.88-27h4.44l4.6,13c1.12,3.32,2,6.28,2.72,9.08h.12c.68-2.72,1.64-5.68,2.84-9.08l4.8-13h4.44l1.68,27h-3.4Z" fill="#212026"/>
    <path d="M380.18,150.86l-2.8,8.47h-3.6l9.16-27h4.2l9.2,27h-3.72l-2.88-8.47Zm8.84-2.72-2.64-7.76c-.6-1.76-1-3.36-1.4-4.92h-.08c-.4,1.6-.84,3.24-1.36,4.88l-2.64,7.8Z" fill="#212026"/>
    <path d="M399.82,155.1a12.33,12.33,0,0,0,6.24,1.76c3.56,0,5.64-1.88,5.64-4.6,0-2.52-1.44-4-5.08-5.36-4.4-1.56-7.12-3.84-7.12-7.64,0-4.2,3.48-7.32,8.72-7.32a12.25,12.25,0,0,1,6,1.32l-1,2.84a10.74,10.74,0,0,0-5.12-1.28c-3.68,0-5.08,2.2-5.08,4,0,2.52,1.64,3.76,5.36,5.2,4.56,1.76,6.88,4,6.88,7.92,0,4.15-3.08,7.75-9.44,7.75a13.93,13.93,0,0,1-6.88-1.72Z" fill="#212026"/>
    <path d="M451.54,145.58c0,9.28-5.64,14.19-12.52,14.19-7.12,0-12.12-5.51-12.12-13.67,0-8.56,5.32-14.16,12.52-14.16C446.78,131.94,451.54,137.58,451.54,145.58Zm-20.92.44c0,5.76,3.12,10.92,8.6,10.92s8.64-5.08,8.64-11.2c0-5.36-2.8-11-8.6-11S430.62,140.1,430.62,146Z" fill="#212026"/>
    <path d="M456.06,132.38h14.52v2.92h-11v9h10.2v2.88h-10.2v12.19h-3.48Z" fill="#212026"/>
    <path d="M488.38,150.86l-2.8,8.47H482l9.16-27h4.2l9.2,27h-3.72l-2.88-8.47Zm8.84-2.72-2.64-7.76c-.6-1.76-1-3.36-1.4-4.92h-.08c-.4,1.6-.84,3.24-1.36,4.88l-2.64,7.8Z" fill="#212026"/>
    <path d="M530.14,163.29c-3.64-1-7.2-2-10.32-3.12a5.17,5.17,0,0,0-1.64-.4c-6.4-.23-11.88-5-11.88-13.63s5.28-14.2,12.56-14.2,12.08,5.68,12.08,13.64c0,6.92-3.2,11.36-7.68,12.92v.16c2.68.67,5.6,1.31,7.88,1.71Zm-2.88-17.55c0-5.4-2.8-11-8.52-11-5.88,0-8.76,5.44-8.72,11.28s3.12,10.88,8.56,10.88S527.26,151.9,527.26,145.74Z" fill="#212026"/>
    <path d="M538.94,132.38v16c0,6,2.68,8.6,6.28,8.6,4,0,6.56-2.64,6.56-8.6v-16h3.52V148.1c0,8.27-4.36,11.67-10.2,11.67-5.52,0-9.68-3.15-9.68-11.51V132.38Z" fill="#212026"/>
    <path d="M564.82,132.38v27h-3.48v-27Z" fill="#212026"/>
    <path d="M570.9,159.33v-27h3.8L583.34,146a76.32,76.32,0,0,1,4.84,8.76l.08,0c-.32-3.6-.4-6.88-.4-11.08V132.38h3.28v27h-3.52l-8.56-13.67a85.57,85.57,0,0,1-5-9l-.12,0c.2,3.4.28,6.64.28,11.12v11.51Z" fill="#212026"/>
    <path d="M601.58,150.86l-2.8,8.47h-3.6l9.16-27h4.2l9.2,27H614l-2.88-8.47Zm8.84-2.72-2.64-7.76c-.6-1.76-1-3.36-1.4-4.92h-.08c-.4,1.6-.84,3.24-1.36,4.88l-2.64,7.8Z" fill="#212026"/>
    <path d="M621.22,155.1a12.33,12.33,0,0,0,6.24,1.76c3.56,0,5.64-1.88,5.64-4.6,0-2.52-1.44-4-5.08-5.36-4.4-1.56-7.12-3.84-7.12-7.64,0-4.2,3.48-7.32,8.72-7.32a12.25,12.25,0,0,1,6,1.32l-1,2.84a10.74,10.74,0,0,0-5.12-1.28c-3.68,0-5.08,2.2-5.08,4,0,2.52,1.64,3.76,5.36,5.2,4.56,1.76,6.88,4,6.88,7.92,0,4.15-3.08,7.75-9.44,7.75a13.93,13.93,0,0,1-6.88-1.72Z" fill="#212026"/>
  </g>
  <g clip-path="url(#clip-path)">
    <g>
      <path d="M130.51,113.6c2.14.58,0-.47,5.66,2.66s11.06,4.35,12.94,6.66,4.8,8.36,7.51,11.49,2.43,3.58,7.86,8,3.47,5.09,7.75,9.85c4.8,5.32,8.38,20.73,15.27,23.86s10.43-4.53,14.19-1.4,6.05,2.09,10,6.88,8.76,14,13.14,19.41,10.23,13.77,10.23,13.77-255.27.31-254.95,0,19.82-28.38,29-34,14.6-10.43,21.28-12.52a90.27,90.27,0,0,1,12.93-2.94s-2.92-3.73,4-14.79,9.34-11.72,11.24-12.23,2.94.13,3.57-3.21a29.64,29.64,0,0,1,3.09-8.18c1.29-2.67,27.16-20.79,27.16-20.79Z" fill="#0b0b13"/>
      <path d="M126.65,120.9c3.27.58,6.4-.14,8.9,3.87s2.5,5.45,3.75,11.62,3.55,7.41,3.55,13.05,1.5,11.89,1.48,16.89.44,8.14,0,13.77,1.23,5.64-2.31,10.64-2.3,7.1-6.68,9.6-1.68,4-7.2,3.13-6.78-.42-9.91-2.92-5.32,1.67-6.93-5.42.63-6-.29-10.64-.08-2.93-3.21-9-2.5-6.54-3.74-8.55-1.56-.81-2.93,4.33-6.46,4.22-6.47,10.9,1.72,21.91-6.44,22.53S73,206,70.68,202s-2.94-2.92-3.56-8.34-2.42-7.1-1.52-13.77,1.52-4.18,1.1-11.69-1.79-10.85-1.1-14,3-1,1.52-6-2.29-11.05-1.77-14.39a95.59,95.59,0,0,1,3.13-10.87l26.18-9.45Z" fill="#d8d0bb"/>
      <path d="M125.61,122.68c1.59,5.68,4.93,22.17-.28,25.09a40.59,40.59,0,0,0-11.9,10.43c-1.87,2.71-2.08,6.05-5.84,6.88s-9.25-1.25-12.34-3.13a54.79,54.79,0,0,1-7-5c-2.33-1.88-5.23-3.55-5.76-6.47s-1.58-7.77-2.44-8.68,37.38-34.3,37.38-34.3Z" fill="#d5bd8d"/>
      <path d="M129.21,55.85c-1.36-1.07-11.44-7.77-16.41-9a70.21,70.21,0,0,0-15.55-2.27c-5,0-25.06,6.48-25.06,6.48l-20.73,22,6.48,35.63,10.54,14.16s10.19,25.59,21.86,23.43,16.42-2.66,25.27-9.94c10-8.21,14.9-22.81,14.9-22.81l3.24-3.43,6.53-13.27,4.05-20.1S137.06,62,129.21,55.85Z" fill="#e2c8af"/>
      <path d="M129.21,55.85c-4.1.43-8.2-.44-12.52,0s-6.79-1.51-9.16.43-7.19,1.43-5.1,3.39c5.33,5,3.24,2.44,7.56,4.38s7.34,1.08,8.42,3.24.92,6.48.92,6.48,3.19,3.89,4,6.48,1.73,5.4,2.59,4.54.65-2.81,3.24-2.81,3.07-1,4.75,0,2.38.54,3,3,2.37,1.57,2.16,5.89.23,2.64-1.14,7.76a51.67,51.67,0,0,1-4.26,10.81A20.35,20.35,0,0,1,131,113c-.54.66-.48.88,1.16.3,3.58-1.27,4-3.64,4.88-4.07s-.18-1.08,2.18-1.08,5,.21,5.59-2,.44-3.67.87-6,0-4.32.65-5.61.86-1.08,1.94-2.16,0-.82,1.08-3,1.73-1.73,2.16-3.46,1.73-1.08,1.3-4.32,0-4.75-1.73-7.34-1.73-4.11-3-5-.43-2.16-1.29-4.75.86-2.81-2.16-4.54-3.56-3.43-6.21-2.58-2,1-4.07.47A36,36,0,0,1,129.21,55.85Z" fill="#1d160c"/>
      <path d="M88.39,50.23c4.54.87,7.78,1.3,8.42,2.38s2,1.51,2,5.18S99,62.54,96,63.62s-1.51.87-7.56,1.08-5.83-1.29-9.07.65-3,2.38-7.34,3.46a63.5,63.5,0,0,0-7.78,2.37c-4.54,1.51-6.05-.21-6.48,2.59s.65,2.16.86,4.76.65,2.55.65,6.13a28,28,0,0,0,.87,7.47c.43,1.73,1.29,2.81,1.29,4.32s1.08,3.24,1.73,5.19.65,1.94.65,5.18-1.51.22.21,5.4a38.63,38.63,0,0,0,3.89,8.42s3,4.11-.86,1.3-5.17-7.13-9.39-11.45-7.24-8.21-8.11-10.8-1.08-3.45-2.16-6-.11-6.2,0-6.62-1.51.32-2.37-2.36-.87-2.69-1.53-5.17-1.53-3.56,0-5.28S45,75.07,45,72.48s-1.3-3,0-6-.22-5.83,3.45-5.83,5,.65,7.56,0a14.37,14.37,0,0,0,6-3.24c1.08-1.08-.43,2.59,4.54-3.24s4.1-6,5.83-6.91,9.93.21,11.45.86S88.39,50.23,88.39,50.23Z" fill="#1d160c"/>
      <path d="M97.21,93.34c-.87-3.24,4.26-4.38,6.68-4.26s6,0,6.8,2.13.11,4.32-2.08,4.9-3.91,1-6,.46S97.8,95.58,97.21,93.34Z" fill="#fff"/>
      <path d="M71.74,95.55c3.69,0,6.11-.64,7.14,1.28s.69,3.54-1.84,4.46-3.19,1.22-6.36.46S66,101,65.63,99.36,67.59,95.6,71.74,95.55Z" fill="#fff"/>
      <path d="M81.19,93.8a26.75,26.75,0,0,1,2.85,9,11.3,11.3,0,0,1,.12,2.4,4.81,4.81,0,0,1-.21,1.22c-.12.37-.24.74-.33,1.11a22.63,22.63,0,0,0-.69,4.61,11.09,11.09,0,0,0,.1,2.31,3.63,3.63,0,0,0,.84,2,5.56,5.56,0,0,0,.91.69,10,10,0,0,0,1,.61,1.91,1.91,0,0,0,2,.13,7.41,7.41,0,0,0,1.54-1.69,7.19,7.19,0,0,1,1.78-1.61,6.1,6.1,0,0,1,2.26-.79,1.73,1.73,0,0,1,1.1.46,4.7,4.7,0,0,1,.79.88,2.61,2.61,0,0,0-1.88-1.21,6,6,0,0,0-2.13.88,7.2,7.2,0,0,0-1.66,1.6A7.29,7.29,0,0,1,88,118.21a1.94,1.94,0,0,1-1.26.33,3.16,3.16,0,0,1-1.19-.4,9.84,9.84,0,0,1-1-.62,6.9,6.9,0,0,1-1-.73,4.14,4.14,0,0,1-1-2.26,10.84,10.84,0,0,1-.13-2.41,22,22,0,0,1,.75-4.71c.1-.38.22-.77.36-1.15a4.78,4.78,0,0,0,.19-1.09,12.88,12.88,0,0,0-.06-2.32,28,28,0,0,0-.88-4.61A24.16,24.16,0,0,0,81.19,93.8Z" fill="#886d50"/>
      <path d="M80.37,112.11A6.38,6.38,0,0,0,78.83,114a2.42,2.42,0,0,0,0,2.19,7.16,7.16,0,0,0,1.46,1.88,1.13,1.13,0,0,0,1,.33,6.22,6.22,0,0,0,1.11-.53,4.22,4.22,0,0,1-1,.76,1.37,1.37,0,0,1-1.31-.25,5.74,5.74,0,0,1-1.7-2,3,3,0,0,1-.33-1.32,2.62,2.62,0,0,1,.38-1.29A4.72,4.72,0,0,1,80.37,112.11Z" fill="#886d50"/>
      <path d="M97.49,124.77a3.33,3.33,0,0,1-.21,2.09c-.43.77-1.44,2.49-2.3,2.6s-5.65.61-7.09,0S85.3,128,85.08,127s1.58-2.7,3.6-2.67S97.49,124.77,97.49,124.77Z" fill="#bc8b7d"/>
      <path d="M100.56,123.34c-.07-.64-5.31-.69-8-.42s-2.88-.85-4.84.27-4.56.6-5.16,2,.89,2,2.27,1.6,4.66-.81,6.65-1.15,2.34.48,4.76-.45S100.69,124.52,100.56,123.34Z" fill="#916751"/>
      <path d="M110.12,79.9c-3.9-1-6.37-1.1-9-.13s-8.27,2.7-5.86,3.11,4.2-.55,6.76-1.38,1.46-1.18,5.2-.76S112.59,80.57,110.12,79.9Z" fill="#1d160c"/>
      <path d="M73.53,86.35c-6.3.28-8.8.69-9.21,1.94s.34,1.73,2,1.11a22.78,22.78,0,0,1,5.82-1.66c1.87-.14,5.89.62,4.15-.42A5.35,5.35,0,0,0,73.53,86.35Z" fill="#1d160c"/>
      <path d="M103.89,89.08c1.66.08,3.85,0,5.33.7a8.1,8.1,0,0,1,.14,1.49,7.28,7.28,0,0,1-2,5.15,8.91,8.91,0,0,1-4.75.15c-.73-.2-1.54-.39-2.32-.64a7.51,7.51,0,0,1-1.54-4.66,7.62,7.62,0,0,1,.08-1.08A10.47,10.47,0,0,1,103.89,89.08Z" fill="#412c19"/>
      <path d="M69.76,95.75a10.13,10.13,0,0,1,2-.2c2.33,0,4.15-.28,5.44,0a7.71,7.71,0,0,1-.09,5.69l0,0c-2.54.93-3.19,1.22-6.36.46l-.61-.13a7.39,7.39,0,0,1-.75-3.3A7.57,7.57,0,0,1,69.76,95.75Z" fill="#412c19"/>
    </g>
  </g>
  <g clip-path="url(#clip-path-2)">
    <g>
      <path d="M1271,.74c.43-1.17.76-2.18,1.18-3.14a59.38,59.38,0,0,0,4.28-15.69c1.37-9.8,1.52-19.67,1.65-29.54,0-.44,0-.88,0-1.39h27.31c0,3.1,0,6.16,0,9.21a170.12,170.12,0,0,0,1.8,23.65,59.22,59.22,0,0,0,4.53,15.06c.25.56.39,1.16.62,1.84Z" fill="#fff"/>
      <path d="M1291.55,16.61h-25.77a4.43,4.43,0,0,1-4.68-4.39,4.52,4.52,0,0,1,4.66-4.67c6,0,12.1,0,18.14,0h33.41a4.71,4.71,0,0,1,4.59,2.84,4.49,4.49,0,0,1-4.25,6.23q-13.05,0-26.1,0Z" fill="#fff"/>
      <path d="M1291.55,6.43c-7.45,0-14.9,0-22.35,0a2.29,2.29,0,0,1-2.25-1.3,1.88,1.88,0,0,1,.33-2.34,3.47,3.47,0,0,1,2-.85c5-.07,10,0,15,0h23.89c2,0,3.91,0,5.86,0a2.3,2.3,0,0,1,2.51,2.22A2.39,2.39,0,0,1,1314,6.43Z" fill="#fff"/>
    </g>
  </g>
  <g clip-path="url(#clip-path-3)">
    <g>
      <path d="M1327.29,172.75s-38.77,8.8-41.88,14.74-.85,17,1.41,17,40.47-15.33,40.47-15.33v-1.87l-1-.43.13-11.62.92-.46Z" fill="#fff"/>
      <path d="M1327.29,172.75l-33.86-29.66s-35.66,8.69-37.67,10.14-1.08,6.28-.41,8.06,30.29,42.19,30.29,42.19" fill="#fff"/>
      <path d="M1291.52,147.56c1-2.1,1.91-4,6.42-3.68a41.44,41.44,0,0,1,9.5,2.06l-4.73.23,4,1s-8.4-1.37-9.8-.41a32.92,32.92,0,0,0-3.36,2.82" fill="#fff"/>
      <path d="M1271.44,134.82c.16-2,0-4.08.08-6.12,0-1.44,0-2.89-.11-4.32-.05-.36-.1-.72-.13-1.07a2.45,2.45,0,0,1,.07-.93c-.06-2.18-.13-4.37-.19-6.55,2.24-.88,2.71-3,1-4.7a1.2,1.2,0,0,1-.4-.68c0-.14.09-.29.14-.44s.16-.09.13-.24c-.47-2-.87-2.35-2.54-2a2.89,2.89,0,0,0-.73,1.42l.24,1c0,.27.14.56,0,.83h0a2.42,2.42,0,0,0-.71,3.5c.11.63.67.74,1.12,1h0c.47.27.81.58.44,1.16a5.83,5.83,0,0,0-.74,3.08,8.14,8.14,0,0,1-.4,2.18c-.7,3.43-1.16,6.9-1.67,10.37-.24,1.69-.32,1.68-1.84,1h0l-.42-.28a.29.29,0,0,0,0-.09c-.43-1.05-1.51-1.53-2.13-2.42a8.21,8.21,0,0,1-.58-.6c-.88-.88-1.61-1.89-2.43-2.81a6.15,6.15,0,0,0-1.76-1.76l-4.08-4.94a1,1,0,0,1-.47-.5c-.15-.37-.25-.8-.73-.86,0-.57-.58-1-.59-1.54l.06-.16a4,4,0,0,0,.45-1c-.07-.69.1-1.47-.68-1.91h0l-.54-.52h0a1,1,0,0,1-.38-1.19c.29-1.43-.69-2.47-1.86-2.1a1.7,1.7,0,0,0-.82,2.3,1.37,1.37,0,0,1-.19,1.71,3.15,3.15,0,0,0-.36.71,2.2,2.2,0,0,0,.37,1.84h0c.05.15.09.3.3.3a.51.51,0,0,0,.38.7c1,.31,1,1,.74,1.82a5.24,5.24,0,0,0-.15.79c-.38,1.52-.61,3.07-1,4.58,0,.73-.3,1.43-.42,2.16-.54,2.3-.9,4.64-1.48,6.94-.37,1.46-.71,2.92-1.09,4.37a6.15,6.15,0,0,1-.66,1.81,14.26,14.26,0,0,1-1.26,1.81c-.42-.13-.72.16-1,.41a.56.56,0,0,0,0,.12l-.72.11h0a2.92,2.92,0,0,1-2.35-1.13c-.2-.17-.44-.11-.68-.12a14.52,14.52,0,0,1-5.45-1.7c-1.88-.64-3.83-1.08-5.64-1.9a6.12,6.12,0,0,1-1.11-.32c-1.65-.47-3.24-1.12-4.89-1.6-.89-.26-1.61-.67-1.71-1.73a.86.86,0,0,0-.4-.67l-.22.06h0c-.45-.35-.84-.85-1.41-.93a2.71,2.71,0,0,1-1.88-1.13,1.28,1.28,0,0,0-1.86-.4,1.47,1.47,0,0,0-.23,2,2,2,0,0,0,.41.57,1.2,1.2,0,0,1,.35,1.36c-.32.49,0,.9.21,1.29a3,3,0,0,0,2.74,1.31l.09,0,.44.76h0l.22,1.2a51,51,0,0,0,1.3,6.13,1.26,1.26,0,0,0,.16.33,11.38,11.38,0,0,1,.64,2.57c.32.92.17,2,.95,2.77l.63,2.86a14.54,14.54,0,0,0,.24,1.59c0,.5-.26.61-.72.52s-.75-.24-1.08.06a.25.25,0,0,0,0-.07c-.29-.22-.67-.37-.64-.83.1-1.55-.86-2.39-2.08-3a3.55,3.55,0,0,0-1.65-.19.65.65,0,0,1-.34,0,1.72,1.72,0,0,0-2.74.22,1,1,0,0,0-.22.09c-.45.41-.32.9-.2,1.39a1.85,1.85,0,0,0,.21.45l.06.06c-.11.35.14.65.23,1,.3,1,.18,1.21-.93,1.26-2.21-.48-4.42-1-6.63-1.49a1.36,1.36,0,0,0-.29,0,6.72,6.72,0,0,1-1.1-.11c-1-.16-2-.26-2.23-1.5,0-.17-.21-.41-.46-.21h0a2.62,2.62,0,0,0-1.92-1.28h0a3.74,3.74,0,0,1-3.15-1,1.1,1.1,0,0,0-.77-.17c-.53.06-1.1.13-1.12.88h0l-.13.26a3.06,3.06,0,0,0,1.78,2.14c.8.42.32,1.91,1.41,2.35a1.28,1.28,0,0,1,.25.15.39.39,0,0,0,.07.23,2.26,2.26,0,0,0,1.82.39c.49-.19,1-.31,1.2-.89a.93.93,0,0,0,.39.29l.22.11a1.45,1.45,0,0,0,.44.45c2.62,1.75,5.1,3.7,7.72,5.47a27.9,27.9,0,0,1,4.4,3.17.54.54,0,0,1,.45.13,34.62,34.62,0,0,0,4.79,3.27,2.59,2.59,0,0,0,1,.57l.11.13a.61.61,0,0,0,.64.23l.11,0a.7.7,0,0,0,.31.41c.2.1.41.19.61,0,.38.53,1,.82,1.13,1.6a4.54,4.54,0,0,0,2.28,3.51,2.9,2.9,0,0,1,1.2,1.43c.12.28.21.61.5.73a4.19,4.19,0,0,1,1.73,1.88l.1,0a1,1,0,0,0,0,.79.4.4,0,0,0-.1.12c-.08.43.18.76.31,1.13a6.85,6.85,0,0,0,1.31,2,22.5,22.5,0,0,0,2.29,1c2.86.72,5.65.11,8.42-.42a51.62,51.62,0,0,0,7.67-2.21,1.14,1.14,0,0,0,1-.11c1.33-.58,2.66-1.17,3.94-1.85a53.15,53.15,0,0,0,6.33-3.67,97.22,97.22,0,0,0,10.54-7.61,48.26,48.26,0,0,0,7.5-7.82A9.82,9.82,0,0,0,1280,158a1.39,1.39,0,0,1,0-.4,6.64,6.64,0,0,0,.33-1.4.35.35,0,0,0,.26-.09c.66-1.56,0-3-.54-4.35a4.92,4.92,0,0,0-.71-.86,2.57,2.57,0,0,1-1.36-2.46,1.73,1.73,0,0,0-1.37-1.67,1.29,1.29,0,0,1-1-1.52,4.45,4.45,0,0,0-2.09-3.87,1.53,1.53,0,0,1-.62-.77,8.93,8.93,0,0,1-.42-1.45,16.61,16.61,0,0,0-.89-3.32.77.77,0,0,0-.19-.11s0,0,0,0C1271.6,135.4,1271.4,135.1,1271.44,134.82ZM1217.17,164l-.11-.05.09,0,0,.08Zm3.64.16a.61.61,0,0,1,0-.12l.05.09Zm15.26,11s0,0,0,0Zm-11.23-20.59,0,.13h-.13A.26.26,0,0,1,1224.84,154.61Zm1.46-9.28h0Zm-3.91,6.59,0-.09.07.06Zm45.75,2.79v0h0Zm-46.64-16h0Zm56.65,20h0Zm1.25-3-.06,0h0v0Zm-7.77-44.84Zm-66.06,45.74v0l0,0h0Zm-5.3-2.33h0l0-.06Z" fill="#fff"/>
    </g>
  </g>
</svg>
