<svg id="Layer_1" data-name="Layer 1" xmlns="http://www.w3.org/2000/svg" xmlns:xlink="http://www.w3.org/1999/xlink" viewBox="0 0 1344.29 194.65">
  <defs>
    <clipPath id="clip-path">
      <rect x="12.91" y="45.95" width="151.06" height="126.58" transform="translate(176.88 218.47) rotate(-180)" fill="none"/>
    </clipPath>
    <clipPath id="clip-path-2">
      <rect x="1147.67" y="104.46" width="180.63" height="90.19" fill="none"/>
    </clipPath>
  </defs>
  <title>banner-4a</title>
  <g clip-path="url(#clip-path)">
    <g>
      <path d="M140,151.74c5.12,3.33,5.61,3.78,8.61,7.44s2.44,3.77,5.55,5.88,3.77,3,6.1,3.66,2,.67,3,2.76,1.66,1.9-.55,2.9a21.57,21.57,0,0,1-5.89,2c-2.44.44-27.63,10.32-30.63,10.65s2.55.56-8.1,2.11a131.29,131.29,0,0,1-25.86,1.45c-7.1-.34-10-.89-17-.89s-11.73.33-16.18.33-6.35,1.16-7.46.69c0,0-30.72,2.08-40.1,1.56s-23.61.7-27.77-1.73,29.16-7.16,29.16-18c0-2.25,4.86-8.78,9.18-15.8,2.7-4.36,18.83-15.48,18.83-15.48l6.71-3.68s21.64-7.42,31.25-7.56c5-.07,15.41-14.88,25.25-19.29,8.17-3.66,18.49,34.18,18.49,34.18Z" fill="#e4ab8d"/>
      <path d="M119.05,60.1c0-.54-2.47-3.41-5.33-5.07s-4-3.32-10.72-5.45S92.66,46.44,82.13,48.2a32.63,32.63,0,0,0-17.27,9.23l-7,7.67L55.53,77.38,52.67,94.75l.46,8.86-1.57,7.86,1.2,8.68-2.87,3.42s-4.41,6.74-4.51,14.59,22.06,9,22.06,9L101.63,136l8.67-28L124,94.19l-1.11-28.54Z" fill="#e1bb94"/>
      <path d="M70.52,52.94c-.36,1.35-1.72,2.52-4.15,5.5s-5.51,5.24-6.23,7.49.36,2.62-.72,5.51S58.06,74.6,57.79,77A80.9,80.9,0,0,1,55,88.76c-.81,2.17.18,3.07,0,5.69s.55,5.68,0,8.12-1.71,4.51-1.89,5.87,2.07,6.13,2.07,7.85,1.45,2.16-.72,4.33-2.4,3-2.4,3-1.17,1.62-4.37,1.82c0,0-.28,1.08.52-1.92s1.67-3.74,1.89-7-.42-1.78.12-5.39,2-6.76,1.63-7.58-1.72-1.17-2.53-1.44-1.17-.45-1.08-2.35-1-2.07.63-4.42,2-.72,2.52-3.7,1.63-3.34.37-4.42-2.06.82-1.48-1.89,1.39-3.34,1.66-4.25,1.71-1.62.81-1.89-1.9,1.17-2.35,0,1.36-2.8,2.26-4.79.81-.27,1.62-2.88,3.25-2.62.81-2.62S51,70,52.3,67.6s2-1.31,3.33-3.65,2-1.72,3.45-3.43a11.5,11.5,0,0,1,2.32-2.44c1.27-1.08.72-.18,2.89-1.71s3.07-2.26,4-3A3,3,0,0,1,70.52,52.94Z" fill="#e9d3c8"/>
      <path d="M127.1,103.39c-.67,2.07-.17,3.73-1.37,5.4a13,13,0,0,1-2.77,3.32c-1.76,1.57-1.67,1.66-3,2.77s-1.39.65-2.5,2.5-1.29,2.58-1.94,3.6-1.75,1.75-4.8,1.38a14.28,14.28,0,0,1-5-1.47l9-29.93,11.37-.55,2.28,8.19Z" fill="#e1bb94"/>
      <path d="M70.52,90.67c1.44.74,2.14,2.52.59,1.82s-3.33-.93-4.8-1.82-2.87-2.17-4.65-1.82-2.47.39-4,.7-3.41-.31-1.32-1.24A17.9,17.9,0,0,1,62.59,87a26,26,0,0,1,5.19,1.94A12.48,12.48,0,0,1,70.52,90.67Z" fill="#e9d3c8"/>
      <path d="M97.67,92.6c2.24,1.08,4.72,1.55,5,2.71s-1.24,1.08-2.48.39a17.41,17.41,0,0,0-8.59-1.94c-4.26.08-4.84.18-5.94-.14-.58-.17-5.75-2.1-.93-2.1,1.91,0,4.39-.08,6.4,0A54.83,54.83,0,0,1,97.67,92.6Z" fill="#e9d3c8"/>
      <path d="M86.08,101.19c1-2,1.35-2.29,4.45-2s5.15-.15,6.39,1.72.89,1.3,1.12,2.23.46,1.31-1.16,1.7-5.35.77-7,.31-3.3-.74-3.87-1.94A2.9,2.9,0,0,1,86.08,101.19Z" fill="#fae1d7"/>
      <path d="M69.21,99.9c0-1.72-1.18-2.86-2.84-3.69A10.25,10.25,0,0,0,61.17,95c-1.56.25-3.56-.34-3.56,2s.23,3.87,3,4.42a12,12,0,0,0,4.94.28C67.21,101.52,69.21,101.39,69.21,99.9Z" fill="#fae1d7"/>
      <path d="M115.47,121.89A20.61,20.61,0,0,1,117,127c.85,3.67,1.29,5.33,2.73,7s4,3.33,7.33,6.66a71.83,71.83,0,0,0,7.55,6.48c2.44,2,6.43,2.18,5.1,6.51s-10,20.09-12,24.08-6.2,6.55-6.64,8.55-.64,1.29-.64,1.29-18.68-14.88-26.06-15.8-4.27-7.58-4.27-7.58l15.55-19.53s4.53-2.72,4.92-5,4.12-9.2,4.14-11-.69-4.69-.66-6.51.31-4.37.66-4.48S115.47,121.89,115.47,121.89Z" fill="#daac3d"/>
      <path d="M116.1,144.2c3.44.22,3.66-.56,5.22,0s-.78,2.29-.78,2.92a1.73,1.73,0,0,0,.78,1.63c.55.22-1.11-.12-1.44.55s2.06-1.22,2,2.44a43.45,43.45,0,0,0,0,5.61c.13.94,1.22,3.71,2.12-.72s1.23-5.22,1.9-5.44a2.86,2.86,0,0,1,2.51.34c.49.54-1.14,2.43,0,2.21s2.26-.92,2.93-1.07,5.43-2.26,2.66-.48-3.22,1-4.88,2.88-2.44,2-3.67,4-.68,3.55-1.45,3.66-1.65.33-2.87-1.22-.11-1.89-2-3.55-4.44-3.22-3.44,1.11,1.86,6.54,1.37,7.54,1,1-.48,1-5.44-2.77-5.44-2.77h-1.67s-3.66-.34,2.22,2.11,5.53,3.22,5.37,3.77a2.82,2.82,0,0,0,0,1.66c.18,1-.48.78.51,1.67s1.45.78,1.45.78-.22-4.55-.22-5.22.11-.78,1.11-1.11,1.88.22,2.33-.89,1.33-1.44,1.11-2.11,1.44-1.11-.23-.66,0-1-1.66.44-1,1.44-1.67,1.44.23.67-.66-1.77a17.59,17.59,0,0,1-1-3.44,5,5,0,0,0-1.07-2.1s2.51,1.1,3.18,2.21-.7.33,1.36,1.78,3.3,1.22,3.3,1.22l1.54-.42c.52-.14,2.9.19.35,1.86a24.94,24.94,0,0,0-4.66,3.66c-1,1-1.78,1.11-1.89,1.89a10.18,10.18,0,0,0-.11,1.77c0,.67.22.35,0,1.45s.22,1.91-.22,2.18.12.76-.66,1.07-1.25,2.25-2.19-.17-1.09-3.53-2.29-4.3-.19.22-2.86-1.78-1.69-2-3.56-3-2.51-1.11-2.64-1.88-1.12.44-.12-.78,2-2.22,2-2.22-.11-.67,1.44-1a15.67,15.67,0,0,0,2.66-.78c.67-.22,1.11,2.3,1-.62s-1.55-2.48,0-3.7,2.44-1.11,2.67-2.22,2.77,1.55,3.55-.23,2.11-1.88.33-4.21-2.22-2.11-3-3.22-1.94-2.78-1.47-3.44A1.2,1.2,0,0,1,116.1,144.2Z" fill="#ba7731"/>
      <path d="M119.05,60.1c3,2.81,5.51,5.53,6.54,7.3s4,10.92,5.76,13.58,3.62,3.88,3.24,5.31.45,3.84-1.62,5.46-3.33,1.46-2.7,4,.49,4.14,0,4.73.7.88-.75,1.77-2.15,0-3.13,1.34,1.82-2.52-1.28-6.35-5.17-3.1-7.53-1a11.06,11.06,0,0,0-3.54,6c0,.89.59,1.63,0,4.14s-.15,2.36-1,4.43.3,1.77-1.62,3.54-2.51,1.77-2.66,3.1-1.92,1.47-.88,3.54,2.51,1.48,1.92,3.39-1.48,1.85-1,3.59-.86,1.58.45,4.09,1.3,5.9,1.3,7.09,1.5,1.77,1.35,3.54-1.33,3.69-1.77,5.16-.29,1.63-.29,3.55,1.18,2.8-.15,4.13-1.83,1-2.09,3.1.17,2.8-1.6,4.28,0,1.18-1.77,3.1-4.28,2.51-7.38,4.13-8.6,7.66-13.88,6.79a79.65,79.65,0,0,1-9.36-2c-2.06-.55-1.37-2.32-3.92-2a88.23,88.23,0,0,1-8.86,1c-2.66,0-2.36,1-5.75-.44s-9-3.1-11.08-5.76-3-3-3-6.64-.29-6,.15-8.56-.29-3.1.89-5.76,1.62-1.48,1.62-3.54,2.8-7.68,4.72-10.48,5.46-4.87,7.24-5.76-1.33-2.36,2.21-3.39a26.27,26.27,0,0,1,7.53-1,6.89,6.89,0,0,1,2.49.39c1.35.37,3,1.53,4.89.35s1.33-1.18,3-1.18,2.21-1,4.43,0,2.8,1.62,4,2.21,1.63-.59,2.51,1.92a16.88,16.88,0,0,0,3.1,5.17c.45.44,2.07,4.28,4.14,4.13s1.91-.44,2.21-3.69-.31-4.67.88-5.43,2.07.12,3.4-2.1.19-2.92,1.72-3.67,2,0,2.41-1.34a7.76,7.76,0,0,1,1.18-2.22s-.1.4.87-3.22,2.23-2.68,1.94-7-2.07-4.58.29-6.2,3.29-.83,2.36-3a12.79,12.79,0,0,1-1.47-5.32c-.15-2.36.44-2.06-.44-4.43s-4-1.62-.89-3.69,2.75-.76,3.4-3.17-.49-1.41,1-3.77,3-1.47,3.71-4.57-.3-2.36.74-4.72,4.26-.23,1.92-4A3.53,3.53,0,0,1,119.05,60.1Z" fill="#f0e1cc"/>
      <path d="M86.28,141.78c-3.09-3.1-4.18-3.64-6.81-6.27s-3.79-4.18-5.19-4.42-4.26-.62-6.66-1-3.63.54-5.11,2.17A20.55,20.55,0,0,1,58,135.82c-.85.46-2.55,1.55.31,1.08s2.25-.7,3.8-.54a16.09,16.09,0,0,1,3.87.77c1.86.55.62,1.09,3.1,1.4s2.4-1.32,4-.31,1.43,1.47,3,1.7,1.4-.54,3.49.23a29.59,29.59,0,0,0,4.33,1.63c2.56.7,3.8,1.86,3.1.93Z" fill="#e1bb94"/>
      <path d="M76.41,136.53c-2.51-1.17-4.39-2.83-7.25-2.71s-6.49,0-7.32-.41a1.32,1.32,0,0,1-.29-.19q.51-.47,1-1c1.48-1.63,2.71-2.56,5.11-2.17s5.27.77,6.66,1,2.56,1.78,5.19,4.42c.51.5,1,.93,1.38,1.32C80.08,137.4,78.43,137.47,76.41,136.53Z" fill="#72382c"/>
      <path d="M59.78,134.66a37.49,37.49,0,0,0,2.89-2.58c3.51,0,11,2,12.75,2.31s4,1.46,5,2.86c.59.93,1,2.57.39,3.07a1.13,1.13,0,0,1-.32.18l-.89-.35c-2.09-.77-1.94,0-3.49-.23s-1.39-.7-3-1.7-1.52.62-4,.31-1.24-.85-3.1-1.4a16.09,16.09,0,0,0-3.87-.77,3.7,3.7,0,0,0-1.85.15A8,8,0,0,1,59.78,134.66Z" fill="#844234"/>
      <path d="M90.53,99.14c1,.07,1.88.08,2.67.13a4.65,4.65,0,0,1,.5,2.13,4.24,4.24,0,0,1-2.25,3.9,7,7,0,0,1-1.54-.2c-.79-.23-1.59-.41-2.27-.68a4.52,4.52,0,0,1-1.1-3,4.73,4.73,0,0,1,.2-1.37C87.4,99.1,88.18,99,90.53,99.14Z" fill="#503338"/>
      <path d="M60.61,101.41a4.88,4.88,0,0,1-1.4-.47,4.7,4.7,0,0,1,0-5.77c.62-.09,1.35,0,2-.15a8.32,8.32,0,0,1,3.48.49A4.66,4.66,0,0,1,65.37,98a4.32,4.32,0,0,1-2,3.79A19.77,19.77,0,0,1,60.61,101.41Z" fill="#503338"/>
      <path d="M73.09,101.69c-.29,1.8-1.19,3.46-1.53,5.14a10.79,10.79,0,0,0-.41,2.54,4,4,0,0,1-.38,1.48,3.15,3.15,0,0,1-.42.65c-.13.17-.26.33-.38.51-.24.34-.47.75-.77,1.13a9.74,9.74,0,0,1-1,1,11.2,11.2,0,0,0-1.75,1.91,6.89,6.89,0,0,0-1.12,2.21,1.45,1.45,0,0,0,0,1,1.4,1.4,0,0,0,.1.16l.24.24c.16.17.32.34.47.52a17.13,17.13,0,0,0,1.68,2A4.56,4.56,0,0,0,70,123.29a4.48,4.48,0,0,0,2.33-.5l1.22-.53c.22-.09.43-.18.67-.26s.44-.11.66-.17l2.62-.68.65-.17a2.28,2.28,0,0,1,.44-.09,1.87,1.87,0,0,1,.45,0,2.62,2.62,0,0,0,1.06.11c.21,0,.42-.27.6-.67a5.18,5.18,0,0,0,.39-1.21,3,3,0,0,0-.46-2.48,3.12,3.12,0,0,1,1,2.53,6.15,6.15,0,0,1-.2,1.41,1.87,1.87,0,0,1-1,1.38,2.87,2.87,0,0,1-1.59-.08l-.22,0h0l-.16,0-.65.17-2.59.67-.64.17c-.18.06-.39.15-.59.23l-1.24.54a10,10,0,0,1-1.34.46,3.56,3.56,0,0,1-1.53.09A5.49,5.49,0,0,1,67.22,123a15.36,15.36,0,0,1-1.77-2.11l-.44-.48-.23-.23a2.63,2.63,0,0,1-.28-.4,2.42,2.42,0,0,1-.11-1.66,7.75,7.75,0,0,1,1.28-2.57,11.85,11.85,0,0,1,1.87-2.05,9.29,9.29,0,0,0,.86-.93c.25-.32.47-.7.74-1.1.13-.19.28-.38.42-.56a2.8,2.8,0,0,0,.31-.48,2.88,2.88,0,0,0,.27-1.11,12.38,12.38,0,0,1,.44-2.76C71.32,104.77,72.4,103.36,73.09,101.69Z" fill="#e29d7c"/>
    </g>
  </g>
  <polygon points="1209.32 104.46 1167.84 172.48 0 172.48 0 194.65 279.31 194.65 1344.29 194.65 1344.29 104.46 1209.32 104.46" fill="#212026"/>
  <g>
    <path d="M217.74,155.1a12.33,12.33,0,0,0,6.24,1.75c3.56,0,5.64-1.87,5.64-4.59,0-2.52-1.44-4-5.08-5.36-4.4-1.56-7.12-3.84-7.12-7.64,0-4.2,3.48-7.32,8.72-7.32a12.25,12.25,0,0,1,6,1.32l-1,2.84a10.74,10.74,0,0,0-5.12-1.28c-3.68,0-5.08,2.2-5.08,4,0,2.52,1.64,3.76,5.36,5.2,4.56,1.76,6.88,4,6.88,7.92,0,4.16-3.08,7.75-9.44,7.75a13.94,13.94,0,0,1-6.88-1.71Z" fill="#212026"/>
    <path d="M243.06,135.34h-8.2v-3h20v3h-8.24v24h-3.52Z" fill="#212026"/>
    <path d="M254.46,157.26a2.36,2.36,0,0,1,2.4-2.52,2.52,2.52,0,0,1,0,5A2.35,2.35,0,0,1,254.46,157.26Z" fill="#212026"/>
    <path d="M276.54,150.86l-2.8,8.47h-3.6l9.16-27h4.2l9.2,27H289l-2.88-8.47Zm8.84-2.72-2.64-7.76c-.6-1.76-1-3.36-1.4-4.92h-.08c-.4,1.6-.84,3.24-1.36,4.88l-2.64,7.8Z" fill="#212026"/>
    <path d="M299,132.38v16c0,6,2.68,8.6,6.28,8.6,4,0,6.56-2.64,6.56-8.6v-16h3.52V148.1c0,8.28-4.36,11.67-10.2,11.67-5.52,0-9.68-3.16-9.68-11.51V132.38Z" fill="#212026"/>
    <path d="M341.94,158.14a25.44,25.44,0,0,1-8.28,1.47c-4.08,0-7.44-1-10.08-3.55a13.87,13.87,0,0,1-3.76-10c0-8,5.56-13.92,14.6-13.92a16.67,16.67,0,0,1,6.72,1.24l-.84,2.84a14,14,0,0,0-6-1.16c-6.56,0-10.84,4.08-10.84,10.84s4.12,10.87,10.4,10.87a11.39,11.39,0,0,0,4.64-.71v-8h-5.48v-2.8h8.88Z" fill="#212026"/>
    <path d="M350.74,132.38v16c0,6,2.68,8.6,6.28,8.6,4,0,6.56-2.64,6.56-8.6v-16h3.52V148.1c0,8.28-4.36,11.67-10.2,11.67-5.52,0-9.68-3.16-9.68-11.51V132.38Z" fill="#212026"/>
    <path d="M372.66,155.1a12.33,12.33,0,0,0,6.24,1.75c3.56,0,5.64-1.87,5.64-4.59,0-2.52-1.44-4-5.08-5.36-4.4-1.56-7.12-3.84-7.12-7.64,0-4.2,3.48-7.32,8.72-7.32a12.25,12.25,0,0,1,6,1.32l-1,2.84a10.74,10.74,0,0,0-5.12-1.28c-3.68,0-5.08,2.2-5.08,4,0,2.52,1.64,3.76,5.36,5.2,4.56,1.76,6.88,4,6.88,7.92,0,4.16-3.08,7.75-9.44,7.75a13.94,13.94,0,0,1-6.88-1.71Z" fill="#212026"/>
    <path d="M398,135.34h-8.2v-3h20v3H401.5v24H398Z" fill="#212026"/>
    <path d="M416.22,132.38v27h-3.48v-27Z" fill="#212026"/>
    <path d="M422.3,159.33v-27h3.8L434.74,146a76.32,76.32,0,0,1,4.84,8.76l.08,0c-.32-3.6-.4-6.88-.4-11.08V132.38h3.28v27H439l-8.56-13.67a85.57,85.57,0,0,1-5-9l-.12,0c.2,3.4.28,6.64.28,11.12v11.51Z" fill="#212026"/>
    <path d="M462.58,146.7H452.1v9.72h11.68v2.91H448.62v-27h14.56v2.92H452.1v8.52h10.48Z" fill="#212026"/>
    <path d="M499.82,145.58c0,9.28-5.64,14.19-12.52,14.19-7.12,0-12.12-5.51-12.12-13.67,0-8.56,5.32-14.16,12.52-14.16C495.06,131.94,499.82,137.58,499.82,145.58ZM478.9,146c0,5.76,3.12,10.92,8.6,10.92s8.64-5.08,8.64-11.2c0-5.36-2.8-11-8.6-11S478.9,140.1,478.9,146Z" fill="#212026"/>
    <path d="M504.34,132.38h14.52v2.92h-11v9H518v2.88h-10.2v12.19h-3.48Z" fill="#212026"/>
    <path d="M535.78,132.38v11.28h13V132.38h3.52v27h-3.52V146.7h-13v12.63H532.3v-27Z" fill="#212026"/>
    <path d="M561.86,132.38v27h-3.48v-27Z" fill="#212026"/>
    <path d="M567.94,132.7a40.33,40.33,0,0,1,6.68-.52c3.44,0,6,.8,7.56,2.24a7.25,7.25,0,0,1,2.36,5.64,7.94,7.94,0,0,1-2.08,5.76c-1.84,2-4.84,3-8.24,3a12,12,0,0,1-2.8-.24v10.79h-3.48Zm3.48,13a11.67,11.67,0,0,0,2.88.28c4.2,0,6.76-2,6.76-5.76,0-3.56-2.52-5.28-6.36-5.28a14.6,14.6,0,0,0-3.28.28Z" fill="#212026"/>
    <path d="M589.22,132.7a40.33,40.33,0,0,1,6.68-.52c3.44,0,6,.8,7.56,2.24a7.25,7.25,0,0,1,2.36,5.64,7.94,7.94,0,0,1-2.08,5.76c-1.84,2-4.84,3-8.24,3a12,12,0,0,1-2.8-.24v10.79h-3.48Zm3.48,13a11.67,11.67,0,0,0,2.88.28c4.2,0,6.76-2,6.76-5.76,0-3.56-2.52-5.28-6.36-5.28a14.6,14.6,0,0,0-3.28.28Z" fill="#212026"/>
    <path d="M633.53,145.58c0,9.28-5.63,14.19-12.51,14.19-7.12,0-12.12-5.51-12.12-13.67,0-8.56,5.32-14.16,12.52-14.16C628.78,131.94,633.53,137.58,633.53,145.58Zm-20.91.44c0,5.76,3.12,10.92,8.6,10.92s8.64-5.08,8.64-11.2c0-5.36-2.8-11-8.6-11S612.62,140.1,612.62,146Z" fill="#212026"/>
  </g>
  <g clip-path="url(#clip-path-2)">
    <g>
      <path d="M1270.11,136.49c-2-1.2-3.18-3.05-3.58-.67s2.65,8.49,9.54,7.69,9.41-3.44,10.87-6.63a26.6,26.6,0,0,0,2.39-10.33c0-3.18.26-11-3.32-14.71s-10.6-6.76-16.3-6-14.31,2.38-17.75,11.79a61,61,0,0,0-3.45,21.2v34.91s-6.44-.85-6.79,5.8c-.24,4.6,2.42,5.28,6.66,6.2v8.49h7.55v-8.74s6.76-.94,6.23-5.71-5.57-6.12-5.57-6.12V138.08s-.79-25.45,14.58-26.37,15.9,23.32,9.41,26S1270.11,136.49,1270.11,136.49Z" fill="#fff"/>
      <rect x="1241.34" y="172.93" width="22.22" height="12.74" rx="6.37" fill="#fff"/>
    </g>
    <g>
      <path d="M1271,227.28c.43-1.17.76-2.18,1.18-3.15a59.31,59.31,0,0,0,4.28-15.68c1.37-9.81,1.52-19.67,1.65-29.54,0-.44,0-.88,0-1.4h27.31c0,3.11,0,6.16,0,9.22a170.23,170.23,0,0,0,1.8,23.65,59.34,59.34,0,0,0,4.53,15.06c.25.55.39,1.16.62,1.84Z" fill="#fff"/>
      <path d="M1270.23,149.18h7.83v6.72h6.76v-6.7h13.62v6.69h6.79v-6.72h7.92v2.07c0,4.9,0,9.8,0,14.71a4.52,4.52,0,0,1-4.81,4.75h-32.4c-1.72,0-3.48,0-4.61-1.58a4.94,4.94,0,0,1-1.09-2.56c-.1-5.64-.07-11.28-.08-16.92A3.35,3.35,0,0,1,1270.23,149.18Z" fill="#fff"/>
      <path d="M1291.56,176.33H1275a2.28,2.28,0,0,1-2.58-2.23c0-1.39.94-2.25,2.55-2.26l32.48,0c.44,0,.88,0,1.32.06a2.17,2.17,0,0,1,2.14,2.32,2.21,2.21,0,0,1-2.32,2.14Z" fill="#fff"/>
    </g>
  </g>
</svg>
