<svg id="Layer_1" data-name="Layer 1" xmlns="http://www.w3.org/2000/svg" xmlns:xlink="http://www.w3.org/1999/xlink" viewBox="0 0 1344.29 194.65">
  <defs>
    <clipPath id="clip-path">
      <rect x="9.54" y="-168.83" width="151.78" height="127.18" fill="none"/>
    </clipPath>
    <clipPath id="clip-path-2">
      <rect x="-14.44" y="-166.95" width="181.22" height="181.22" transform="translate(181.14 -101.09) rotate(-148.2)" fill="none"/>
    </clipPath>
    <clipPath id="clip-path-3">
      <rect x="1188.58" y="-110.85" width="153.09" height="90.19" fill="none"/>
    </clipPath>
    <clipPath id="clip-path-4">
      <rect x="11.26" y="40.84" width="164.85" height="133.06" fill="none"/>
    </clipPath>
  </defs>
  <title>banner-2</title>
  <g clip-path="url(#clip-path)">
    <g clip-path="url(#clip-path-2)">
      <g>
        <path d="M163.29-20.19c.06-.13-.09-.5-.17-.51-.56-.05-.66.49-1,.8a1.75,1.75,0,0,1-1-2.3c.56-2.28,1.41-4.22,3.82-5.05h0a1.51,1.51,0,0,1,.87,1.08c1.07,6.1,2.48,12.15,1.76,18.44a43.89,43.89,0,0,0-.16,8.88,21.41,21.41,0,0,1-.37,7.41c-.85,3.08-2.42,6-3.09,9.07-.63,2.91-1.92,5.83-1.57,8.83.51,4.27,1.71,8.44.15,12.77a12,12,0,0,0-.38,4.53,27.3,27.3,0,0,1-.71,8.06,32.15,32.15,0,0,0-1,9.52,47.15,47.15,0,0,1-8,28.66c-3,4.67-6.9,8.68-10.43,13a4.72,4.72,0,0,0-4-3c-1.58-.23-2.51-1.17-3.7-1.86a6.19,6.19,0,0,0-2.93-1c-2.65-.21-5.87.06-7.51-3.14-.51-1-1.84-1-2.86-.66a2.89,2.89,0,0,1-3-.62A6.14,6.14,0,0,0,114,91.8c-1.79.06-3.75-1.57-5.44-2.75-1-.73-2.31-1.56-2.3-3.17-1.69,0-1.48-3.37-3.85-2.14-.3.16-.83.09-.62-.29.78-1.4-2.38-2-.66-3.45.91-.76,1-1.28.74-2.57s1-2.05,2.69-2c2.88.07,5.75,0,8.48,1.28l.35-.57a35,35,0,0,0-4-4.74c-1-.85-2.41,0-3.61.54s-2.92,1.51-2.85-1.24c0-.22-.12-.61-.25-.65-3.23-.77-2.85-5.1-6.06-6.05a4.18,4.18,0,0,1-2.77-3.28c-.07-.36-.65-.7-.61-1,.41-2.63-3.84.83-3-2.37.5-2-2.13-2.37-2.41-4.05-.32-1.9-2.37-2.24-3.32-3.61a3.05,3.05,0,0,0-2.32-1.16A10.6,10.6,0,0,1,74,44.08c-1.74-2.35-4.55-2.5-6.86-3.67a.58.58,0,0,0-.92.41c-.32,1.27-1,.72-1.6.3a1.8,1.8,0,0,0-2,0c-.7.32-1.94,0-2.06.91-.16,1.19,1.21.93,1.9,1.35,1.77,1.1,2.4,3.11,3.32,4.8a11.68,11.68,0,0,1,1,7.83c-.21,1.12-.27,1.49-1.57,1.25-2.28-.41-3.09.5-2.73,2.83.89,6,2.54,11.79,2.87,17.86.28,5.13.13,10.19-3.05,14.4-3.48,4.59-4.14,9.87-4.76,15.25-.23,2,.06,4-2.38,5.17-.6.27-1.06,2.29-.67,3,.9,1.6.16,3,.33,4.67,1.24-1.87,3.83-2.46,4-5.43.07-1.64,1.92-2.85,3.43-3.78a.86.86,0,0,1,1.41.7c.2,2,1.13,1,1.77.41a15.56,15.56,0,0,1,5.5-3.32c1.86-.61,1.74-2.49,2.23-4a.83.83,0,0,0-.28-.63c-1.23-1.2-1.22-1.74.64-2.26,1.63-.47,1.75-1.09.84-2.46,1.6,1.28,3.12-.26,4.56.27-2.47.9-2.45,3.52-3.72,5.16A14.67,14.67,0,0,0,73,109.2c-.68,1.82.18,4.87,1.76,5.85.62.39,1.22,1,2.06,0,1.1-1.23.89-3.65,3.29-3.69a3,3,0,0,0-1-2.56c-1.84-1.35-1.79-2.7-.29-4.34,2.32-2.55,2.27-3.2,0-4.54,2-.33,3.49,1.21,5.36,1.43.42,0,.47.79.43,1.28s-.33.33-.67.25c-2.25-.51-1.86.84-1.15,1.92a3.82,3.82,0,0,1,.83,3.54c-.43,1.67,1.45,2.88,2.26,4.32.36.65,1,.06,1.23-.49s-.16-1.12-.11-1.62c.1-1,.29-2.21,1.24-2.59s1,1,1.49,1.5,1,1.22,1.75,2.27c-.59-3.35-1.18-6-4.45-7a.86.86,0,0,1-.24-1.56c2.44-1.7,1.14-2.66-.6-3.62-.16-.09-.21-.37-.38-.67,1.1-.53,1.72.32,2.42.67,1.74.83,3.41,1.8,5.15,2.62s2.16,1.84.74,3.3c-.31.33-1,.54-.45,1.09a2.8,2.8,0,0,0,1.38.9c.64.12.64-.59.73-1a59.27,59.27,0,0,0,.58-6.65c.1-.95-1.94-2.31-3.07-3.39-2-1.87-3.67-4-6.23-5.37-1.91-1-4-2.32-4.86-4.65-.23-.61-.93-1-1.77-2A20.67,20.67,0,0,1,87,87.91C95,93.16,103.26,98,110.75,104c4,3.19,8.84,5.14,12.6,8.78,1.12,1.08,3.45,1.51,5.41,1.61,2.48.13,3.76-1.27,4.51-3.39a18.66,18.66,0,0,0,1.28,1.38c3.67,3.26,6.82,6.79,7.33,12,.13,1.39.87,2.7,1.19,4.09.45,2,1.57,3.89.63,6h0c-.79-.43-.81-2-2.41-1.43,1.1,1.5-.3,2.86-.36,4.39s.89,3.14-.51,4.5c-.39.39.25.88.54,1.21,1.59,1.8,1.08,3.75.09,5.46-1.2,2.08-2.08,4.33-3.31,6.37-3,4.89-6,9.71-9.07,14.52a10.08,10.08,0,0,0-1.7,4.68,14.58,14.58,0,0,1-2.21,6.28A50,50,0,0,0,119,196.88c-.8,4.48-.89,9.1-2.58,13.41-.29-.24-.61-.71-.87-.68-1.51.18-4,4.45-3.67,6.19a15.65,15.65,0,0,1-4.1,4.94c-.77-.53-1.8.84-2.49-.33-.17.44-.36.87-.52,1.31-.4,1.1.53,1.32,1.17,1.72-.94,1.44-2.53,2.56-2.64,4.42a38.48,38.48,0,0,1-1.22,5.58c-.71,3.46-2.08,6.91-.75,10.58a3.31,3.31,0,0,1-.29,3.23c-.59-.22-1.51-1.14-1.73-.22-.48,2.06-3.56,1.9-3.37,4.26.06.75.71,1.52,1.47,1.15,1-.47,2.56-.52,2.51-2.14,0-1.22-.07-2.34,1.12-3.08a8,8,0,0,1,1.09,7.61c-1.11,3.14-2.87,6.11-3.07,9.53-.13,2.2-1.06,2.18-2.58,1.2-3.82-2.47-7.64-4.9-11.46-7.35a21.89,21.89,0,0,0-1.37-2.16c-.62-.79-1.28-.87-1.73.22a116.25,116.25,0,0,1-10.43-6.42c-.26-2.18-2.47-2.44-3.72-3.65-.21-.2-.66.48-.76,1l-.43-.28c.27-1.57-1.9-4.68-3.44-4.83a3,3,0,0,1-1.46-.74c-1.4-1-2.19-.64-2.47,1l-.83-.53c1.38-.68,1.43-1.8,1.13-3.13s-1.13-.36-1.68-.56a9.49,9.49,0,0,0,3.09-3c.6-1.1.7-2.3-.07-3s-1.15.65-1.7,1.1c-1.1.89-2.82,1.07-3.19,2.81a1.09,1.09,0,0,1-.86.07c-2.06-1.46-2.53.2-3.16,1.57l-3.43-2.12c.52-1.11,1.84-2.16.46-3.48-1.56-1.49-2-1.3-3.48,1.48-2.28-.79-3.61-3.12-6-3.71,1.52-1.35,1-2.55-.36-3.75l-2,2.43c-2.06-.89-1.69-2.29-.67-3.67.89-1.21.7-2-.63-2.61a13.76,13.76,0,0,1-5.32-4.35c-1.2-1.67-3.67-1.5-4.6-3.44.29-.36.39-1.4,1.06-.26.51.88,1.24.7,1.79.15,1-1-.18-1.69-.47-2.51-.36-1-1-.38-1.26-.07-.55.67-1.43,1-1.67,2a1.8,1.8,0,0,1-1.45-1c2.6-1.41.36-3.3.78-5.42a9.75,9.75,0,0,0-3.27,3.48c-3.2-.23-4.17-3.23-6.17-5,2.65-.78,1.62-2.69,1.3-4.35-.12-.62-.8-.56-1.19-.48-1.52.33-2.57-.49-3.65-1.31-2.49-1.91-2.49-1.91-3.29,1.15a3.11,3.11,0,0,1-.85-.36c-3.52-3-3.52-3-5.87.73a12.41,12.41,0,0,0-1.35,2.54c-.42,1.21-1.08,1.28-2,.7l-24.11-15c-.64-3.14-.34-3.42,2.77-2.4,1.37.44,2.69,1,4.05,1.53s2.44,1.19,3.94-.1c1.25-1.07,3.87.24,4.37,2A2.21,2.21,0,0,0-9,192.4a38,38,0,0,1,8,2.77,28,28,0,0,1-.81-5.86c6.5-1.24,13-2.17,18.91-5.34.53.73-.77,1.47.07,1.93.69.38,1.11-.39,1.64-.69,2.73-1.54,4.71-4.14,7.89-5.18a17.87,17.87,0,0,1,3.07-.54c3.36-.5,6.81-1.76,10.14.2-.49,1.39-1.58.62-2.42.63-.65,0-1.36-.19-1.42.75-.06.73.44,1,1.1,1.29a7.53,7.53,0,0,0,6.37.39c.58-.24,1.83.69,1.7-.7a1.75,1.75,0,0,0-2.3-1.47,2.55,2.55,0,0,1-2.92-.91c.57-1.09,1.68-1.11,2.67-1.32a3.57,3.57,0,0,0,2.14-1c.76-.85,1.66-7.25,1.15-8.23a3,3,0,0,0-.24-.38c-2.19,1-1.88-1.72-3.13-2.07-1.8-.49-1.59-2.42-2.55-3.51a.76.76,0,0,1,.27-1.06c.51-.31.87,0,1.17.43.77,1.22,1.76,2,3,1.15,1.16.86-1.63,1.7.25,2.26.57.17,1.3,1.37,2,.23.56-.88,1.2-1.84-.1-2.68v.05c.39-.41.47-1.39,1.37-.9.66.36,1.23,1,.81,1.78-1.2,2.14.73,4.37-.32,6.52a1.15,1.15,0,0,0,1,1.61c1.06.17,1.13-.76,1.21-1.42.39-3.52,1-7.1-2-9.95-.76-.71-.15-1.88-.85-2.66-.27-.3-.46-.73-.9-.55a1,1,0,0,0-.38.8c0,.86.32,2.34-.32,2.41a5.51,5.51,0,0,1-3.84-.84c-1-.87-1.69-.58-2.75-.26,1.81-1.29.64-4.53,3.58-4.89.31,0,.4-.51.23-.82a.75.75,0,0,0-1.2-.26c-.72.53-1.28,1.64-2.4.62-.94-.87-.57-1.79-.29-2.85s-.45-2.46,1.83-2.07c.89.15,1.59-1.69,1.73-2.9.42-3.59,2.45-6.77,2.57-10.43,0-.41.1-.86.64-.79s.54.54.46.93c-.56,2.92.95,6.26-2,8.7-1.31,1.09.16,3-.73,4.32,1.66-.39,2.2,1.28,3.35,1.79a.48.48,0,0,0,.64-.66c-1.24-2.08,1.74-3.12,1.19-5-.07-.25.39-.47.75-.38a.54.54,0,0,1,.37.76c-.27.84-.59,1.66-.92,2.47-.21.52-.62,1.08.07,1.47a1.26,1.26,0,0,0,1.55-.31,6.68,6.68,0,0,0,1.34-2.24c.47-1.57.87-3.11,2.6-3.79.55-.21.53-.68.59-1.18.42-3.51,1-7.09,2.69-10.15.89-1.58.49-3.27,1.34-4.71a.68.68,0,0,0-.31-1c-.47-.23-.72.1-1,.4-.9,1-.9,2.39-1.61,3.46-.32.48-.73,1-1.36.67a.83.83,0,0,1-.19-1.42c1-.89,1.7-1.65,1.16-3.25-.35-1,1.22-2.06.7-3.51-2,.25-2.13,2-2.66,3.4s-.51,1.44-2.33,1.62c-.31-.88.81-.83.94-1.45a1.86,1.86,0,0,0-.59-2c-.8-.57-1.09.28-1.44.76-.56.74-1.08,1.5-1.57,2.19-1.66-2-.14-3.45.55-5.25a10.57,10.57,0,0,0,.36-5.25c-.21-1.38-3-1.41-4.32-.09a4.3,4.3,0,0,0-1.55,2.25c-1-.45-.47-.88-.31-1.26s.7-1.14.6-1.23c-2.56-2.46.8-5.47-.72-7.87a2.37,2.37,0,0,1,.25-3.21.62.62,0,0,0,.1-.44c-3-1.76.56-4.62-1.1-6.66-.19-.24-.19-1.56.76-1.78.67-.14.91.51,1.1,1,.37,1,1.15.67,1.8.47.95-.29,2.7-4.3,2.12-5.08-1.69-2.25-1.43-4.74-1.7-7.34-.2-1.93,1-4.47-1.08-6.14l0,.06c-.24-1.63.34-3.32-.35-4.9-.14-.32-.31-.67-.05-.87,2.49-1.9.82-4.48,1.15-6.91l-2,1.08c.76-1.84,2-3.26,1.34-5-2.28,1.18-3.17,3.92-3.52,6.42-.43,3.08.34,6.09-.42,9.24-.59,2.46-1.31,5.51-.67,7.86.55,2-.41,4.51,1.52,6.32.82.77.38,2.15-.57,3-.5.44-1.19,1-1.08,1.51.56,2.91-1.4,5.45-1.06,8.28.11.94-.75,1.29-1,2.1-1,4-.77,8.25-2.14,12.2-.56,1.6,1.33,2.07,1.51,3.63.25,2.28-.89,2.09-2,1.79-.9-.25-1.48-.42-1.94.36-.06-1.26,2.1-1.52,1.56-3-.21-.6-1,0-1.67.16.58-1.58,1.85-2.49,1.92-4.07.05-1,.33-1.83-.4-3-.63-1,0-2.57.53-3.84.4-.92,1.32-2.13-.81-2.31-.71-.06-.9-.62-.68-1.45a14.87,14.87,0,0,0,.73-5.58c-.5-2.91-.15-5.87-.9-8.72a2.64,2.64,0,0,1,1.67-3.44,2.29,2.29,0,0,0,1.73-2.61A3.16,3.16,0,0,0,36,89.28c-.26.32-.62.61-1,.35s-.27-.82-.06-1.26.47-1,.7-1.52c1.07-2.31,1.07-2.31-.21-4.31-.86-.06-.72,1.7-1.64,1.14s.2-1.35.23-2c0-1.22.34-2,1.7-2.3.68-.16.86-1.09,1-1.81-.7-.55-1.38.41-2.05,0s-1.64-.76-.85-2,2.32-2.7.5-3.62-2,1.53-2.85,2.55c-.14.16-.2.39-.42.54,1.26-2.47,2.59-4.91,2.91-7.73a1.18,1.18,0,0,1,.54-.74c3-1.72,3.58-4.17,1.5-6.73-.52-.64-.61-1.25,0-1.66a1.94,1.94,0,0,0,.56-2.91c-1-1.25-1.6.76-2.61.74-.42-.86.3-1.31.63-1.87s.93-1.46.25-2c-2.4-1.78-1.49-4.36-1.73-6.63-.34-3.14-.59-6.29-.71-9.44-.06-1.75,1.26-3.06,1.93-4.58.41-.92,1.89-2,.77-2.81-1.32-1-3-.15-4.37.59-.48.26-.69,1-1.24,1.54,0-1.76-3.26-2.34-.79-5-1.87.31-2,3-3.59,1.48-1.42-1.34-2.47-3-2-5.08.69-3.17,1.43-6.33.91-9.81-.61,1-1.16,2-1.85,2.95-1,1.43-3,1.55-3.69,0-1.19-2.63-2.59-1.67-4.38-.51a4.55,4.55,0,0,1,1.75-3.63c1.46-.86,1.79-2.49,3-3.44.63-.49.53-1.95,1.69-1.72s.55,1.62,1,2.59a3.76,3.76,0,0,0,1.4-4c-.17-.84-.23-1.74.54-2.18,1-.56,1.51.59,2.25,1s1.57.61,1.2,1.75c-.31,1-.55,2-.82,3-.34,1.28.27,1.59,1.23,1,1.23-.78,3-1.06,3.15-3a.75.75,0,0,1,1-.75c3.51,1,7.16-.69,10.67.54,1,.36,2.15.6,3.22.9-.18.81.07,1.14,1,1.06.48,0,1,.27.84.86s-.67.45-1.16.31A4.17,4.17,0,0,0,40.75,11l-.3.06s.1.06.13.05a.7.7,0,0,0,.16-.14c1.3,1.07,2.79,1.7,4.4,1,2.63-1.12,5.24.93,8-.26-1-.95-.86-1.86.38-2.55.39-.75,1.28.13,1.71-.52l6,2a2.25,2.25,0,0,1-2.88.57c-.71-.28-1.7-.92-2.37.17-.3.51-1.39.61-1,1.43.33.64.7,1.4,1.84,1.08a1.64,1.64,0,0,1,2.26,1.19c.25,1,.62,1.89-.82,2.26-.58.15-.6.7-.34,1.19a1.19,1.19,0,0,0,1.22.58c.81,0,1.27-.6,1.86-1a1.25,1.25,0,0,1,1.56.18c.51.43.2.74-.11,1.19-2,2.84-2,3.05.45,6.15.27-2.29,2.81-2.4,3.57-4.25a1.45,1.45,0,0,1,1.69-.52c.65.4.31,1.23,0,1.73-.67,1.15-1.37,2.42-2.92,2.45-.85,0-1.11.5-1.37,1.08a.77.77,0,0,0,.34,1c.63.43,1,0,1.43-.38.84-.73,1.23-.49,1.3.64.17,2.63,1.79,4,4.31,3.8.39,0,.9-.28,1.12.09,1.42,2.47,3.1.21,4.62.19,1,0,.72-.92,0-1.29-2.14-1.16-3.81-3.19-6.44-3.48-.77-.08-2.06-3.1-1.49-3.56,1.28-1,.78-1.76-.06-2.73-.68-.79-1.26-2-.38-2.81.69-.64,2-.19,2.81.22a7.09,7.09,0,0,1,2.3,1.6,1.61,1.61,0,0,0,2.55-.12c.79-1.05-.55-1.18-1.06-1.68a2.21,2.21,0,0,0-2.41-.85,2.37,2.37,0,0,1-2.93-1.46c-.62-1.64-2.41-1.31-3.71-1.73-.83-.27-1.8-.14-1.9-1.43a8.19,8.19,0,0,1,4,1.3c2,1.3,4.41,1.26,6.58,2,.7.24,1.17-.32,1.77-.42-.12,1.23.9,1.17,1.6,1.34,7.13,1.75,13,5.83,18.84,10,3.92,2.77,8.15,5.11,12.11,7.57,0-.13-.44-1,.2-1.28,2.59-1.17.72-2.12-.52-3.41,3.82-.1,7,1.08,10.59,1.49-.73-1.58-2.06-1.11-3-1.49-.7-.27-1.8-.12-1.62-1.3a1.57,1.57,0,0,1,1.89-1.15c2.48.5,4.22-1.19,6.3-1.88,1-.31,1-.75.27-1.55-1.29-1.48-3.76-2.06-3.64-4.7,0-.49-.8-.37-1.25-.22a14,14,0,0,1-2,.74c-.86.13-2,1.07-2.57-.18-.45-1-1.32-2.12-.33-3.36a6.78,6.78,0,0,0,1.13-2.23c-2.32,2.71-5,2.86-8.11,1.81-.7-.24-1.62.24-2.37.07-.93-.22-2.37-.51-.8-1.93,1.34-1.21.17-2.59,0-3.79-.33-2.69,1.64-4.46,2.34-6.72.33-1.08,4.9.74,5.78,1.49,1.82,1.54,2,3.73,3,5.44s4.28,2.05,6.13,3.74c.18.16.82,0,1.13-.2,1.8-1.14,3.56-2.33,5.33-3.51.31-.21.82-.38.54-.88a1,1,0,0,0-1-.46c-2.91.37-4.13-2.18-6.06-3.51a.94.94,0,0,1-.32-1.28c.72-1.41-.54-1.4-1.14-1.23-1.34.37-2.51-.19-3.75-.29-2.29-.18-3.12-1.49-3.33-3.64-.12-1.27.37-3-1.92-3.29-.8-.09-.41-1.24-.3-1.92.08-.48.37-1,1-.76,1,.38,1.69,2.45,3.35.51.24-.29,2.8,1.29,3.36,2.93,1,3.06,5.26,4.91,8,3.49,1.07-.55.6-1.57.79-2.35s.37-1.18,1.3-1.27c1.12-.12.86.59,1,1.16a3.18,3.18,0,0,0,3.23,2.6c2.68.23,5.3,1.48,8,.53a49.39,49.39,0,0,0,9.25-3.79c-.41-1.06-1-.62-1.52-.61-1.42,0-2.94.42-2.61-2.11.18-1.42-1.08-1.84-2.37-1A3.29,3.29,0,0,1,138-8.51c-3.07-4.65-6.3-9.21-8.71-14.27a13.28,13.28,0,0,1-1.08-5c-.11-2,1.89-2.81,3.92-1.68s4,.87,6,1.34c.72.17,1-.41,1.3-.85.68.05,1.35.54,2,0-1-.75-1-.75-2,0-1.68,0-1.89-1.19-1.78-2.39.1-1,0-1.93-1.11-1.94-1.47,0-.7,1-.55,1.74a1.33,1.33,0,0,1-.92,1.71c-.85.22-.91-.54-1.3-1.18-1-1.65-.64-3.92-2.77-5.16a2.22,2.22,0,0,0-2.54-.06c.61-2.23,1.43-3.51,3.6-4,1.67-.39,1.12,1.29,2,1.5.92-1.13,1.83-2.28,2.78-3.38.45-.51,1.4-.87.53-1.69a2.3,2.3,0,0,0-2.36-.86c-3.34.57-5,3.07-6.94,5.19-1.07,1.14-2,1.72-3.29.43-.31-.3-.66-.52-1-.17a1,1,0,0,0-.19.59c.76.35,1.07.83.28,1.4s-1.33,1.25-2.11,1c-1.25-.45-2.34-1.05-2.31-2.88a2.87,2.87,0,0,0-2.4-3.22,5.73,5.73,0,0,1-2.42-1,3.52,3.52,0,0,0-4,.17c-.56.35-.83,1.06-1.45.19a1.21,1.21,0,0,1,.17-1.85,21.57,21.57,0,0,0,3.79-4.61,3.57,3.57,0,0,0-.83-5c-1-.89-.11-1.76.21-2.61h.4c-.16-.36-.28-.22-.39,0-2.87-.71-2-2.43-1.07-4.05-.65-1.21-1.91,2.2-2.39-.43,0-.28-.51.35-.77.59-2.19,2-2.63,4.71-2.92,7.43-.15,1.41-.61,1.51-1.86,1.2s-2.68-1.54-4.14.05c-.16-1.29.66-1.86,1-2.63.18-.41.68-.8.32-1.29s-1-.3-1.34-.13c-1.66.79-3.7.48-5.17,1.93a2.45,2.45,0,0,1-2.88.57c-1-.56-.51-1.57-.42-2.4.12-1.18.11-2.44,1.25-3.24.94-.66.39-1.63.43-2.46a.84.84,0,0,0-.83-1c-.57,0-.83.4-1,.91-.16.67.08,1.46-.73,2.17-.66-1.17-2.3-1-2.88-2-.68-1.15,1.67-1.62,1.14-3.3-.85,1.1-2.52,1-2.71,2.69a.67.67,0,0,1-1.25.3c-.7-1.57-2.55-.58-3.44-1.77-.31-.41-1,.27-1.3.72s-.31,1.43-1.05,1.73c-2.47-2.73-.74-5,.54-7.55,3.11-6.3,8.69-9.23,14.67-11.91,2.14-1,3.88-2.76,6.29-3.29.77-.17,1.51-.55,2.29-.65,4-.51,6.8-5.58,5.07-9.26a2.41,2.41,0,0,0-2.22-1.18,9.7,9.7,0,0,1-4.47-1.43c-1.17-.59-1.86-2.15-3.73-1.34-.85.36-.77-1.21-1.31-1.7-1.46-1.31-2.54-2.49-1.69-4.8.45-1.23-1.31-2.15-2.31-2.66-1.24-.63-.87.89-1.17,1.48-.19.37-.37.73-.81.81-2.79.56-1.8,3-2.12,4.65-.22,1.08,1.27,1.1,2.26,1,.64-.08,1.65-.19.76.79-1.06,1.15,1.61,2.16,0,2.8-.79.33-1.4-1.43-2.52-1.41s-2.23-.36-3.26-.38c-2.82,0-4.16-3.61-7.3-2.82-.49.13-.71-1.36-.35-1.81,1.18-1.48,1-3.54,2.3-5a1.63,1.63,0,0,0-.13-2.55c-1.27-1.09-1-2.6-1.17-4,0-.45-.14-1.06.54-1.14s.81.39,1,.85c1,2.15,3.39,2.93,4.72,4.83.58.82,1.88.89,2.44-.54.42-1.07,1.42-2.21-.54-2.83-.44-.14-1.34-3.6-1.11-4,.64-1.15,1.43-.65,2.24-.24,2.38,1.19,2.39,1.18,3.74-1.39-.63-.89-1.5.56-2.13-.23.66-2,1.53-4.07.05-6.13-.27-.37-.37-.75,0-1s.74,0,1.08.24c1.22.71,1.06,2.25,2,3.48.7-2.19.28-4.16,0-6s-2.71-2.74-4.65-1.88a16.21,16.21,0,0,0-2.53,1.36c-1.47,1-2.33.55-2.86-1.3-.83,2.62-2.16,3.28-4.19,1.36-.32-.3-.71-.1-1.1-.09-1.65.06-3.27-.08-3.51-2.26-.06-.56-.68-.67-.92-1.05-1-1.62-2.75-3-1.73-5.32.33-.77-.25-1.3-.91-1.4s-1.69-.93-2.41.09c-.26.37-.87.85.36.93s1.25,1.29,1,2.1c-.41,1.29-1.24.22-1.94.15-3.59-.32-4.35-3.35-5.49-5.88-.22-.49-1.24-2.46,1.14-2.4,1,0,.8-1.28.92-1.9a1.49,1.49,0,0,0-1.33-1.7c-.75-.12-1.53.1-1.51.79.06,2.39-2.21,3.91-2.15,6.28,0,1.17-.75,1.32-1.63.76a9.16,9.16,0,0,1-1.93-1.44c-.63-.67-1.08-1.11-1.89-.2-.27.3-1.18.52-1.32.36-1.81-2.14-4-.72-6.12-.87-2.62-.2-3.3-1.75-2-4,.83-1.45,2.09-2.64,2.54-4.34.17-.69.85-.87,1.54-.94A1.4,1.4,0,0,0,49-152.2c-.4-1.43-1.26.26-1.9-.06-.57-.64.84-1.56-.31-2.09a2.23,2.23,0,0,1,.94-1.33,83.29,83.29,0,0,1,11.55-7.72,14.87,14.87,0,0,1,6.16-1.75,39.27,39.27,0,0,1,17.88,2.5c7.37,2.71,12,7.69,14.32,15.12,1.53,4.82,1.09,10.15,4,14.67.58.9,1.85,2.38,1.18,3.53-.93,1.58-.47,3.13-.34,4.57a3.06,3.06,0,0,0,3.38,3c.82-.09.82.23.65.5-1.22,2,.54,2.53,2.29,3.68a18.13,18.13,0,0,0-1.85-.52c-.7,1.6-1.32,3.22-2,4.84,2.63,1.28,1.28,3.36,1,5.15-.25,1.44-.52,3.1.37,4.07a52.29,52.29,0,0,1,5,6.19c1.22,1.85,1.88.69,2.88.16.66-.35.16-2.08,1.37-1.44A3,3,0,0,1,116.88-96c-.12,1-.66,1.45-1.43.89-1.72-1.28-1.47,0-1.7,1.07-.63,2.86,1.57,3.88,3.24,5.26,1.21,1,2,.61,2.56-.72h0c1,1.25-.67,2.76.57,4.2.53-2.12,2.71-3.19,2.78-5.58,0-.34-.15-4.1,2.8-1.92.52.38,1.66-.38,1.44-1.6-.14-.82-.78-1.63-.1-2.49-1.21-.68-.81-3-2.88-2.81h0c-1.11-.47-2.11-1.91-3.46-.26-.3.37-1.47.2-1.47-.18,0-2.06-.71-1.93-1.94-.75-.11.1-.72-.07-.81-.25-.43-.87-.8-1.43-2-.9-.51.24-.79-.5-.63-1a14.16,14.16,0,0,1,1-1.9,1.93,1.93,0,0,1,1.32,1.5.68.68,0,0,0,.9.52.66.66,0,0,0,.57-.64.89.89,0,0,0-.53-.95,18.73,18.73,0,0,0-2.26-.4c-.35-.29-1-.43-.86-1s.56-.6.94-.6c2.22,0,4.3-.2,6.13,1.81A82.37,82.37,0,0,0,136-91.64a24.63,24.63,0,0,1,7.55,7.84c2.75,4.63,3.87,9.73,5.37,14.75h0a4.43,4.43,0,0,1-3-4.42c0-.86-.64-1.47-1.07-1.13a3.68,3.68,0,0,1-3,.53c-.68-.07-.74.25-.13,1,.15.17.41.27.26.52-1.24,2.1,0,3.66.92,5.44.52,1,.28,2.29,2,1.79.13,0,1.43,0,1.25,1.17-.09.59.28,1.42,1.15,1,.63-.27.67-.88.37-1.63-.72-1.75-.17-3,1.81-3.37h0a10.81,10.81,0,0,0,.86,2.72c2.62,4.15,4,8.9,6.41,13.1,3.44,6,4.55,12.85,7,19.21.06.15-.12.4-.22.68a4.25,4.25,0,0,1-.62-.39c-.34-.33-.22-1.41-1-.91s0,.92.39,1.3c.95.9.49,1.76-.16,2.54-2.32,2.76-1.64,6.23-2.3,9.39-.16.74.38,1,.86,1.25.82.46,1.14-.2,1.52-.7C162.6-19.77,163.05-19.6,163.29-20.19ZM79,195.1v-.19c.54-2.36,1.69-.93,3-.22-.59-1.19-1-2-2.12-2.21a1.45,1.45,0,0,0-1.54.89c-.5.83.18,1.13.66,1.53Zm-14.7-3c1.4-2.28,3.79-1.18,5.82-1.67-.66-.94-.75-2.19-2.67-1.31-.63.29-2.7-.56-4.08-1,.11-.29.33-.58,0-.85a.41.41,0,0,0-.37.08c-.16.39.16.55.39.76-.32.41-.56.58-1.16.23-2.24-1.28-4.33-.44-5,2-.16.59-2.34,1.1-.22,1.92.36.13,1.37.92.78-.6-.08-.21,2.22-1,2.65-.47,1.18,1.48,2.57.72,3.87.9-.66,1.54.16,2.16,1.52,2.12a29.72,29.72,0,0,0,3.73-.56c.25.17.61.28.71.51.27.57.38,1.44,1.06,1.44s.91-1,1.24-1.55c.42-.74.62-1.47-.29-2.07s-1.28.26-1.78.65a6.66,6.66,0,0,0-.93,1A6.29,6.29,0,0,0,64.26,192.05Zm41.48-36.41a25.74,25.74,0,0,0-3.62-1.23c-2.8-.53-3.83.78-2.76,3.45.26.65,1,1.18.19,1.87s-1-.23-1.56-.48c-1-.48-1.21.36-.93.94a11.22,11.22,0,0,1,.87,7.32.53.53,0,0,0,.53.65c1.54,0,1.37,1.28,1.67,2.21.13.41-.28,1.09.43,1.2.87.13.76-.75.88-1.18.43-1.55-.36-2.9-1.08-4.14-.54-.94-.7-1.86.19-2.27,1.06-.48,1.14.71,1.41,1.41.14.37.22,1,.47,1.06,3.16,1.09,1.72,3.52,1.6,5.51a2,2,0,0,0,.36,1.29c1.57,2.5,1.56,2.51-1,3.3h0c-.61-.07-1.26-1.28-1.77-.21-.36.75.58,1.26,1.23,1.52,1.17.48,2.45.58,3.66,1.06,1.06.43,1-.95,1.32-1.52.62-1.23.56-2.89,2.42-3.2a.57.57,0,0,0,.37-.77,1,1,0,0,0-1.35-.66c-1.62.79-2.28-.48-3.21-1.31a1.06,1.06,0,0,1,0-1.82,1.64,1.64,0,0,0,.77-1.61c-.14-.91.25-1.34,1.26-1.14a1.26,1.26,0,0,0,1.54-.85c.23-.74-.36-1.18-.94-1.5a13.61,13.61,0,0,0-1.71-.85c-2-.79-2.21-2.07-.46-3.37.58-.43,0-.65,0-.93-.21-1.24-1.38-2.27-.83-3.69,1.18.54,2.68.72,2.65,2.54,0,.51.39.65.83.56a.64.64,0,0,0,.48-.91c-.6-1.36-.63-3.1-2.38-3.73-.48-.27-.73-.65-.37-1.15a3.39,3.39,0,0,1,.86-.83c1.14-.8,1.89-1.79,1.42-3.24s-1.93.23-2.68-.73c0-.08-.08-.27,0-.37.5-.76,2.24-.6,1.86-1.8-.3-.95-1.68-.3-2.56-.54a4.31,4.31,0,0,0-4.12,1.12c-.54.49-1.41,1.75-.81,1.95,2.29.74,1.09,2.62,1.47,3.89.28.91.81.83,1.31,1.05.87.38,1.76.69,2.65,1Zm-68,53.56c-1,1.61-2.23.49-2.06-.36.54-2.67-2.16-3.29-2.72-5.33-.76.53.07,2.77-1.85,1.66-.26-.14-.64.12-.71.48-.11.65.39.81.87.89.77.13,1.44.35,1.37,1.32-.09,1.16-1,.66-1.6.79-1.65.35-2,1.73-.72,2.92.8.74.81,2.66,2.69,2a1.42,1.42,0,0,1,.34.77c-.11.68-.65,1.58.42,1.72.46.06,1.22-.68,1.53-1.23.8-1.42,1.39-2.92,2.91-3.84.89-.53,0-1.69.48-2.47.28.11.57.32.84,0a.39.39,0,0,0-.08-.36c-.37-.15-.55.16-.75.39A1.1,1.1,0,0,0,37.75,209.2ZM100.62,42.63c-.14.55-1,1.14-.24,1.64a1.81,1.81,0,0,0,2-.36c.74-.66-.07-1.33-.34-1.88s-.91-.83-1.39-1.23c.47-.82,1.19-1.54,1-2.62-.1-.6,0-1.22.77-1.23s1,.34,1.06,1q.36,3.22.85,6.44a8.49,8.49,0,0,0,.56,1.55c.28.78.61,1.71,1.6,1.38s.83-1.25.61-2.07c-.13-.46-.46-1.12-.28-1.35,2.37-3.05-.46-5.17-1.62-7.25-.77-1.38-2.82-2.18-3.63-3.88-.84.6-.48,1.11-.53,1.55s-.13.84-.61.91-.8-.27-.94-.81c-.26-1.08-.06-2.93-2-.83-.53.58-2.47-.13-3.79-.25-.07.86,1,1.29.63,2.24a.75.75,0,0,0,.79,1c3.52-.77,4.17,2.18,5.54,4.2C100.25,41.38,100.79,42,100.62,42.63Zm28.63-113c.88-.48,1.62-1,1.3-2.13a2.2,2.2,0,0,0-.3-2.42c-1.39-1-.33-1.67.23-2.6a2.43,2.43,0,0,1-3.22-.58c-1.12-1.16.58-2,.36-3.14-1,2.15-3.86,2.79-4.14,5.52,0,.49-.25.92.24,1.27a1,1,0,0,0,1.31-.07,4.42,4.42,0,0,1,1.52-.63,1,1,0,0,1,1.24.85c.19.93-.54.73-1.07.8-1,.14-2,.33-3.07.46A3.35,3.35,0,0,0,121-68.64a1.87,1.87,0,0,1-.15,1.81,2.1,2.1,0,0,0,.31,2.61,3.67,3.67,0,0,1,4-1.68c1.55.27,2.58-.11,1.76-2.23-.66-1.71,1.21-3,1.72-4.51.22-.69,1.28-.13,1.93.18Zm-48.12,313c.69-2.14-.19-3.09-2.37-2.93a2.38,2.38,0,0,1-2.62-1.18c-.43-1-1.36-1.27-2.11-1.81-1,.54.06,1.92-1.07,2.21s-1.58-.61-2.33-1c-1-.51-1.95-1.1-2.95-1.59-.29-.14-.63-.55-1.15,0,1,1,2.22,1.65,2.56,3.35.2,1,1,1.55-.44,2-.4.13-.4.45-.22.76s.52.28.81.09a8.31,8.31,0,0,1,1.41-.92c1.09-.42,2.27-.87,2.28,1.1,0,.38.1,1,.31,1.11,1.68.55,3.24,1,2,3.38-.16.29.63.16,1,.23a7.26,7.26,0,0,1,3.54,2.31c.38.37.91,1.75,1.79.46.63-.92,1.53-2,.34-3a2.16,2.16,0,0,1-.75-2.72,4.65,4.65,0,0,1,3.7,1.82c-.13-1.77-.35-2.85-1.71-3.31s-1.43.88-2,1.53C80.31,243.94,80.92,243.35,81.13,242.68ZM70.8-150.45c2.34-.84,2.88-2.18,1.82-4.5-.11-.51-1-1.5.09-1.39,1.51.15,1.58-1,2.29-1.6,1.84-1.63.63-2.38-.82-2.62-2-.34-4.05-1.2-6.16.42-1.08.83-3,1.06-3.39-1.39-.17-1.06-1.11-.76-1.27-.15-.51,2-2.23,1.26-3.39,1.81-1.67.78-3.45-.29-5.09.56a2.51,2.51,0,0,0-1.65,2.17c0,1.68-.61,1.52-1.76,1s-2,.14-1.35,1.15c1.25,1.82,0,2.95-.58,4.34-.27.62-1.5,1.38-.35,2s.85-.87,1.13-1.39c.9-1.63,1.58-3.44,4-3.19.67.07.76-.28.8-.85.18-2.22.52-2.56,1.93-1.25,1.7,1.58,2.35.07,3.48-.23-.25-.9-.86-.67-1.27-.84-.74-.31-1-.78-.58-1.49s1-.64,1.55,0c1.57,1.94,3.46,2,5.5.88.92-.52,2.08-.45,2.42.18,1.09,1.93,2.66,2.19,4.56,1.93C72.2-153.4,70.77-152.23,70.8-150.45ZM61.48,141.8c-.33.42-.89.78-.61,1.44.39.92,0,1.41-.89,1.52-1.18.16-1.19-.78-1.24-1.56a16.94,16.94,0,0,1,.08-1.86,1.15,1.15,0,0,0-1.59,1,19.46,19.46,0,0,1-2,5.59.83.83,0,0,0,.42,1.35c1.64.77.51,1.85.38,2.86-.09.74-3.18.5-.67,2-.19.25-.41.71-.57.69-2.83-.29-2.18,2.48-3.2,3.74-.75.92.48,1.71,1.31,1.64,1.64-.16,2.64.65,3.73,1.63a2.67,2.67,0,0,0,2.09,1c1.26-.16,1.73.41,1.72,1.64a1.36,1.36,0,0,0,1.2,1.33c1,.15,1-.86,1-1.32.3-2.32,2.65-3.6,2.93-5.92-1,0-1.48.9-2.13,1.5-.51-3.75.73-5.59,3.34-5.08-.16.33-.43.7,0,1a.6.6,0,0,0,.55-.17c.27-.47-.14-.65-.46-.85.45-.59,0-1.11-.25-1.53-.72-1-.25-1.58.7-1.64A1.18,1.18,0,0,0,68.42,150c-1.07-1.58.11-2.06,1.08-2.36,2.36-.75,2-2.65,1.89-4.31-.13-1.22-1-.93-1.69-.25a24.69,24.69,0,0,0-4.55,6.36c-.79-1-.24-1.78-.45-2.48-.1-.36.15-1-.3-1.06-2.85-.4-.86-1.73-.78-2.78.74.14.73.58.83,1s.06.89.61.88.65-.35.75-.79c.27-1.23.13-2.58.93-3.68-1.2-.53-.66-1.42-.1-1.77,1-.65,1.13-1.67,1.51-2.59s.66-2,1.1-2.91c.13-.28.64-.44,1-.53a2.4,2.4,0,0,0,2-2.4c-.16-2.59.66-4.94,1.08-7.4.1-.62.84-2-.5-2.21-1.15-.14-1.5,1.16-1.82,2.11-.11.33.6,1.06-.36,1-.72-.08-.75-.72-.49-1.31.06-.15.22-.25.27-.4.35-1,1.65-2.42.09-3.08-1-.44-2.08,1.06-2.41,2.13-1.27,4.11-3.55,7.87-4.24,12.18a8.53,8.53,0,0,1-3.31,5.39h-.17l.16,0C62.6,139.1,62.7,140.24,61.48,141.8Zm40.4,60.44c-.53-.57-.71-1.08-.37-1.69a2.14,2.14,0,0,0,.09-2.6c-.6-.92.83-2.25,3-3-.56-.86-2.18-1.64-.27-2.76.46-.27-.16-.76-.39-1.16-.87-1.51-2-3-1-4.92.16-.28.1-1,0-1.1-1.79-.76-2.23-2.7-3.49-3.94-.78-.75-2.46-1.79-1.28-3.52a1.44,1.44,0,0,0-.06-2c-.7-.83-1.21-1.7-.14-2.71.64-.59.17-1.15-.36-1.6a7,7,0,0,0-3-1.3A2.93,2.93,0,0,0,92,171c-.58.51.13,1.6.68,2.09,2,1.78.86,4.22,1.42,6.29.15.58-.58,1.78-1.12,1.64-2.45-.66-2.35,1-2.6,2.49-.12.76-.91.93-1.55.79-2-.43-1.87.53-1.19,1.78.5.94,0,1.49-.6,2.08-.41-.13-.61-.8-1.21-.49,1.15.85-1,1.89.06,2.58s.43-1.12,1.22-1.07c.65.49,1,1,.4,1.81-1.16,1.59-1.25,3.49-1.43,5.35-.09.85,1.83,2.6-1,2.18-.31,0-.23.79.09,1,2.84,1.87-.34,2.84-.73,4.12-.46,1.51-1.35.49-2.14-.14-1-.77-1.33.13-1.29.85a2.41,2.41,0,0,0,.87,1.66c2.6,1.7,3,3.84,2,6.71-.4,1.08.43,2.4,1.41,3.79-1.94-.35-3-1.52-4.59-2.16,0,.87.81,1.25.6,2-.16.55,2.9,3.5,3.45,3.45a.77.77,0,0,0,.54-.37c.24-.88.55-2,1.61-1.64.88.27,0,1.58.4,2.14,1.14,1.43.42,2.5-.42,3.63-.35.46-.76,1-1.38.71s-.21-.78-.15-1.23c.23-1.55-1-2-2.25-2.73-.14,2-1.11,2.21-2.57,1.21-.38-.26-.87-.59-1.27-.06a.92.92,0,0,0,.11,1.29c.57.59.28,1.39.28,2,0,3.35,0,3.34,3.23,3.4a7.64,7.64,0,0,0,5.83-2.23c.94-.93.11-2.3.85-2.89,2.32-1.86,2-5.19,4.17-7.08,1-.87.09-1.4-.45-1.89s-1.18-1.62-.39-2c2.43-1.19,2.37-4.92,5.68-5.22,1.23-.11-.13-1.43.11-2.12,1.56,0,1,1.39,1.69,2.11.91-2.63,5-.34,5.43-3.8H106l-.18,0A3.11,3.11,0,0,1,101.88,202.24Zm31-290c.85.33.28.92,0,1.37a14.52,14.52,0,0,0-1.61,2.95c-.45,1.47-.92,2.74.42,4.14s.78,3.08.15,4.67c-.13.35-.46.78,0,1.05.21.11.75.06.85-.1,1-1.62,2.95-1.55,4.39-2.37,2.22-1.25,2.31-2.31.23-3.74-1.62-1.11-1.46-1.81.78-3.35,0-.53-.45-.57-.83-.69-1.42-.44-3.2-.65-1.52-2.83a1.35,1.35,0,0,0-.22-1.79c-1.72-1.15-2.94-3.6-6-2.3C131-89.87,131.44-88.33,132.89-87.75ZM46.82,195.38c.29-.13.68-.34.91-.23,2.54,1.15,3.88-.44,5.32-2.13.65-.77,1.63-1.64,1-2.39a4.61,4.61,0,0,0-3.18-1.44,5.2,5.2,0,0,1-2.48-.16c-.14-.06-.41-.16-.45-.11-1.37,1.79-3.39,1.28-5.29,1.62.77.48,1.56.92,2.3,1.44s2,.81,1.46,1.86-1.32-.47-2.26-.09C44.26,195.63,45.17,196.12,46.82,195.38Zm46.9-316.17c-.3,1,.19,1.44,1.1,1.21,1.73-.45,2.91.57,4.15,1.42.66.45,1.69.79.34,1.84-.94.73.26,1.37.64,2a1,1,0,0,0,1.45.27c.79-.44.61-.79.28-1.51a2.9,2.9,0,0,1-.05-2.29c1.36-2.4-1.17-4-1.16-6,0-.47-.78-.94-1.35-.72-1.37.53-2.64,1.4-4.24,1-.1,0-.3.33-.41.46C94.2-122.31,94-121.55,93.72-120.79ZM56,99.75c-.05-.64-.19-1.07-.77-1.32-1.39-.61-3,1-4.4-.44-.1-.1-.57,1-.53,1.62.14,2.69-.3,5.39.24,8C54.51,106.07,56.22,103.55,56,99.75Zm-1-4.83c1.92-2.63.44-5.32.56-8,0-.31-.18-.7-.05-.93s.54-.46.83-.68c-.1-.09-.19-.24-.31-.28-.44-.18-.94-.51-1.34-.42-.69.14-.63.83-.56,1.39.26,2-1.09,3.44-1.71,5.13-.41,1.13-.91,2.22-1.31,3.34a1.59,1.59,0,0,0,.32,1.71C52.68,97.05,54.08,96.12,55,94.92ZM158.34,3.26a6.79,6.79,0,0,1,1.32,4.23,6.54,6.54,0,0,0,1.4,3.6c.34.52.7,1.2,1.5.77a1.42,1.42,0,0,0,.66-2c-1.33-2.6-2-5.49-3.66-7.95-.38-.58-.77-1.39-1.51-.46A1.47,1.47,0,0,0,158.34,3.26Zm-63-142.47c-1.31-.09-3.32,2.34-2.86,3.34,1.13,2.48,3.46,1.93,6.09,2C97-135.77,98.66-139,95.34-139.21Zm-5,73.83a2.84,2.84,0,0,0,3.31-1.07c1-1.3.23-2.87-.09-4.32-1.5.61-3.34.7-4,2.88C87.47-66.61,89.57-65.77,90.38-65.38ZM120.92-83c-1.59-1.5-3,.22-4.46,0-.5-.07-.12,1.42.11,2.11s.73.4,1.09-.06c.89-1.15,1.72-.86,2.57.09,1.18,1.34,2.92.86,4.26.78s0-1.93.9-2.73C123.77-81.9,122.12-81.91,120.92-83Zm-2.83,228.36c1-.11,2.14-.71,2-1.94s-1.36-1.43-2.44-1.31c-.78.08-1.53.38-2.3.53-.61.12-1.48,0-1.54.75s.79.89,1.33,1.2A3.94,3.94,0,0,0,118.09,145.31Zm-3.06-86c.7.16,1.21.37,1.58-.38s0-1.36-.68-1.79a6.43,6.43,0,0,0-2.72-.78c-.39-.05-.79,0-1.18,0-.93-.09-1.87-1.87-2.56-.63-.55,1,1.44,1.1,2,2A15.52,15.52,0,0,0,115,59.29Zm-4.92,137.57c-1.68.71-1,2.3-1.13,3.55,0,.41.77.63.72.42-.46-2.21,1.82-2,2.67-2.61,1.46-1.09.93-1.5.08-2.32-.38-.36-.73-.76-1.28-1.34C111.12,195.64,111.08,196.45,110.11,196.86Zm46.2-230.45c-1.38,1.73-1.22,5.35.45,7.79A7.42,7.42,0,0,0,156.31-33.59ZM130.12,31c-3.18-1.23-6.48-.42-9.72-.48A18.66,18.66,0,0,0,130.12,31ZM59.74,20.94c-.16-1.37-2.07-1.59-3-1.18-2,.86.56,2.42-.88,4.1C57.76,22.75,60,23,59.74,20.94Zm87.19,37.49A10.83,10.83,0,0,1,143,61.92c-.3.15-.55.38-.37.74s.57.47,1,.4A3.19,3.19,0,0,0,146,61.65a9,9,0,0,1,3.59-3.57C148.52,57.61,147.56,57.54,146.93,58.43ZM52.6,112c.57.57,1.29-.16,1.35-.77.11-1.25,1.89-2.41.52-3.62-.81-.71-1.74.17-2.36.84A3.24,3.24,0,0,0,52.6,112Zm54.22,99.81c-.31,1.12.93,1.22.51,2-.28.49-1.6.81-.47,1.53a2,2,0,0,0,2.41-.18c.56-.49,1.48-.58,1.84-1.69C109.6,213,107.91,213.56,106.82,211.81ZM91.68,228.55c-.29.46-1.34.63-.72,1.48a1.61,1.61,0,0,0,1.48.65c.82-.1,1.19-.76,1.46-1.43.35-.88-.61-1.64-.15-2.67A3.66,3.66,0,0,0,91.68,228.55Zm13-92.89c-.77-3.11-2.29-3.79-5.27-2.32C101.4,133.48,102.91,134.71,104.66,135.66ZM83.53-134.85c0-.39.14-.8-.33-1a1.48,1.48,0,0,0-.65,0c0,1.84-3.3,2.46-1.68,4.83C81.87-132.14,83.74-132.73,83.53-134.85Zm5,28c.15.31,0,.91.52.87a.61.61,0,0,0,.47-.91c-.8-1.83,2.07-2,1.52-4C89.85-109.65,87.22-109.54,88.56-106.85ZM50.18,178.68a1,1,0,0,0,.42-1.44c-.75-.94-.62.54-1.1.49-1.73-.16-1.92,1.66-3,2.42C48,180.22,49,179.3,50.18,178.68Zm54,35.09a.75.75,0,0,0,1.27-.48c.06-.91.88-2-.06-2.72a1.15,1.15,0,0,0-1.87.55C103.46,212,103.28,213.05,104.22,213.77ZM66.38,116.13c0-.58,0-1.4-.65-1.32-1.56.22-1,1.92-2.13,3C65.41,117.87,66.41,117.7,66.38,116.13Zm-8,62.45a.56.56,0,0,0,.19,1c.43.15.74-.14.89-.56.42-1.19.86-2.37,1.49-4.1C59.35,176.12,59.41,177.7,58.34,178.58ZM67-144.76c-.25.49-1.16,1.08-.33,1.59.61.38,1.13-.37,1.52-.88a2.14,2.14,0,0,0,.2-2.73A19.21,19.21,0,0,0,67-144.76ZM62.74,229c.16-.95,1.06-1.9.09-2.84-.1-.1-.75.09-.8.26-.36,1.06-1.1,2.21.33,3.15C62.49,229.34,62.71,229.17,62.74,229Zm54.87-98.59c-.55.43-.25,1,.28,1,.69.05,1.56.91,2.09-.18a1.59,1.59,0,0,0-.38-1.78C118.62,129.07,118.18,129.93,117.61,130.38ZM57.16,75.66a.84.84,0,0,0-.62.11c-.33.3-.39.85,0,1,1,.53.88,1.62,1.37,2.56C59.33,77.65,57.68,76.77,57.16,75.66ZM88,167.4c-2.05-.49-2.05-.49-1.9,2.74A6.42,6.42,0,0,1,88,167.4Zm.24-306.86c.4.33.84-.13,1.06-.58s.86-.94.25-1.45-1.06-.19-1.51.27A1.47,1.47,0,0,0,88.25-139.46Zm-7.9-2.2c-.43-.34-.76-1.38-1.42-.42-.47.66.31,1,.79,1.16.78.32,1.4,1.08,2.71.88C81.6-140.68,81-141.18,80.35-141.66ZM60.56,123.61c-.28.51-.55,1.17.14,1.45,1.1.44,1.39-.83,2.09-1.26.52-.33.21-.84-.34-1.14C61.53,122.32,61,122.85,60.56,123.61ZM82,107.89a.52.52,0,0,0,.95-.06c.51-1.12-.77-1.36-1.13-2.06a.6.6,0,0,0-1,0C80.78,106.7,81.64,107.18,82,107.89Zm-42.46-5.81c-1.54,0-1.94.91-1.73,2.21ZM91.87-112a.65.65,0,0,0-.45-.94,1,1,0,0,0-.84.17c-.38.38-.08.69.29.92S91.65-111.59,91.87-112ZM48.47,152.84c0,.07.31.4.41.37a1.08,1.08,0,0,0,.81-1.18A1.06,1.06,0,0,0,48.47,152.84Z" fill="#9bb0aa"/>
        <path d="M139.35-28.95c-.33.44-.58,1-1.3.85-2-.47-4.08-.29-6-1.34s-4-.3-3.92,1.68a13.28,13.28,0,0,0,1.08,5c2.41,5.06,5.64,9.62,8.71,14.27a3.29,3.29,0,0,0,4.71,1.17c1.29-.81,2.55-.39,2.37,1-.33,2.53,1.19,2.14,2.61,2.11.52,0,1.11-.45,1.52.61A49.39,49.39,0,0,1,139.91.2c-2.74,1-5.36-.3-8-.53a3.18,3.18,0,0,1-3.23-2.6c-.15-.57.11-1.28-1-1.16-.93.09-1.1.47-1.3,1.27s.28,1.8-.79,2.35c-2.76,1.42-7-.43-8-3.49-.56-1.64-3.12-3.22-3.36-2.93-1.66,1.94-2.31-.13-3.35-.51-.61-.23-.9.28-1,.76-.11.68-.5,1.83.3,1.92,2.29.26,1.8,2,1.92,3.29.21,2.15,1,3.46,3.33,3.64,1.24.1,2.41.66,3.75.29.6-.17,1.86-.18,1.14,1.23A.94.94,0,0,0,120.59,5c1.93,1.33,3.15,3.88,6.06,3.51a1,1,0,0,1,1,.46c.28.5-.23.67-.54.88-1.77,1.18-3.53,2.37-5.33,3.51-.31.2-.95.36-1.13.2-1.85-1.69-5-1.9-6.13-3.74s-1.22-3.9-3-5.44c-.88-.75-5.45-2.57-5.78-1.49-.7,2.26-2.67,4-2.34,6.72.15,1.2,1.32,2.58,0,3.79-1.57,1.42-.13,1.71.8,1.93.75.17,1.67-.31,2.37-.07,3.06,1.05,5.79.9,8.11-1.81a6.78,6.78,0,0,1-1.13,2.23c-1,1.24-.12,2.37.33,3.36.57,1.25,1.71.31,2.57.18a14,14,0,0,0,2-.74c.45-.15,1.27-.27,1.25.22-.12,2.64,2.35,3.22,3.64,4.7.69.8.69,1.24-.27,1.55-2.08.69-3.82,2.38-6.3,1.88A1.57,1.57,0,0,0,114.88,28c-.18,1.18.92,1,1.62,1.3,1,.38,2.28-.09,3,1.49-3.54-.41-6.77-1.59-10.59-1.49,1.24,1.29,3.11,2.24.52,3.41-.64.29-.18,1.15-.2,1.28-4-2.46-8.19-4.8-12.11-7.57-5.86-4.15-11.71-8.23-18.84-10-.7-.17-1.72-.11-1.6-1.34C76.87,10.22,76,5.5,75.18.71,74.67-2.17,74.5-5.2,74-8.14c-.2-1.13-.55-1.4-1.67-1-2.93.9-5.79,2-8.65,3.09C58-4,52.3-2,46.61,0c-.8.28-1.81.46-1.9,1.41s1.06,1.28,1.76,1.73C49.37,5,52.3,6.86,55.22,8.69c-.43.65-1.32-.23-1.71.52C51,7.57,48.08,7.45,45.28,6.87c-1.07-.3-2.17-.54-3.22-.9-3.51-1.23-7.16.48-10.67-.54a.75.75,0,0,0-1,.75c-.16,1.92-1.92,2.2-3.15,3-1,.6-1.57.29-1.23-1,.27-1,.51-2,.82-3,.37-1.14-.54-1.42-1.2-1.75s-1.27-1.51-2.25-1c-.77.44-.71,1.34-.54,2.18a3.76,3.76,0,0,1-1.4,4c-.44-1,.25-2.34-1-2.59S19.39,7.3,18.76,7.79c-1.23,1-1.56,2.58-3,3.44A4.55,4.55,0,0,0,14,14.86c1.79-1.16,3.19-2.12,4.38.51.72,1.59,2.64,1.47,3.69,0,.69-.93,1.24-2,1.85-2.95.52,3.48-.22,6.64-.91,9.81-.45,2.09.6,3.74,2,5.08,1.61,1.53,1.72-1.17,3.59-1.48-2.47,2.62.75,3.2.79,5,.55-.52.76-1.28,1.24-1.54,1.36-.74,3-1.59,4.37-.59,1.12.85-.36,1.89-.77,2.81-.67,1.52-2,2.83-1.93,4.58.12,3.15.37,6.3.71,9.44.24,2.27-.67,4.85,1.73,6.63.68.51.12,1.34-.25,2s-1,1-.63,1.87c1,0,1.61-2,2.61-.74a1.94,1.94,0,0,1-.56,2.91c-.58.41-.49,1,0,1.66,2.08,2.56,1.5,5-1.5,6.73a1.18,1.18,0,0,0-.54.74C33.59,70.12,32.26,72.56,31,75c.22-.15.28-.38.42-.54.85-1,1.11-3.43,2.85-2.55s.22,2.51-.5,3.62.08,1.55.85,2,1.35-.57,2.05,0c-.16.72-.34,1.65-1,1.81-1.36.3-1.66,1.08-1.7,2.3,0,.69-1.3,1.39-.23,2s.78-1.2,1.64-1.14c1.28,2,1.28,2,.21,4.31-.23.51-.46,1-.7,1.52s-.49.92.06,1.26.77,0,1-.35a3.16,3.16,0,0,1,2.88-1.21,2.29,2.29,0,0,1-1.73,2.61,2.64,2.64,0,0,0-1.67,3.44c.75,2.85.4,5.81.9,8.72a14.87,14.87,0,0,1-.73,5.58c-.22.83,0,1.39.68,1.45,2.13.18,1.21,1.39.81,2.31-.55,1.27-1.16,2.87-.53,3.84.73,1.13.45,1.92.4,3-.07,1.58-1.34,2.49-1.92,4.07.69-.2,1.46-.76,1.67-.16.54,1.5-1.62,1.76-1.56,3,.46-.78,1-.61,1.94-.36,1.1.3,2.24.49,2-1.79-.18-1.56-2.07-2-1.51-3.63,1.37-3.95,1.11-8.18,2.14-12.2.2-.81,1.06-1.16,1-2.1-.34-2.83,1.62-5.37,1.06-8.28-.11-.52.58-1.07,1.08-1.51.95-.82,1.39-2.2.57-3-1.93-1.81-1-4.27-1.52-6.32-.64-2.35.08-5.4.67-7.86.76-3.15,0-6.16.42-9.24.35-2.5,1.24-5.24,3.52-6.42.67,1.77-.58,3.19-1.34,5l2-1.08c-.33,2.43,1.34,5-1.15,6.91-.26.2-.09.55.05.87.69,1.58.11,3.27.35,4.9H46c.19.42.27.11.37-.06,2.12,1.67.88,4.21,1.08,6.14.27,2.6,0,5.09,1.7,7.34.58.78-1.17,4.79-2.12,5.08-.65.2-1.43.58-1.8-.47-.19-.54-.43-1.19-1.1-1-.95.22-.95,1.54-.76,1.78,1.66,2-1.85,4.9,1.1,6.66a.62.62,0,0,1-.1.44,2.37,2.37,0,0,0-.25,3.21c1.52,2.4-1.84,5.41.72,7.87.1.09-.41.79-.6,1.23s-.69.81.31,1.26A4.3,4.3,0,0,1,46.09,117c1.34-1.32,4.11-1.29,4.32.09a10.57,10.57,0,0,1-.36,5.25c-.69,1.8-2.21,3.28-.55,5.25.49-.69,1-1.45,1.57-2.19.35-.48.64-1.33,1.44-.76a1.86,1.86,0,0,1,.59,2c-.13.62-1.25.57-.94,1.45,1.82-.18,1.78-.19,2.33-1.62s.66-3.15,2.66-3.4c.52,1.45-1,2.49-.7,3.51.54,1.6-.12,2.36-1.16,3.25a.83.83,0,0,0,.19,1.42c.63.3,1-.19,1.36-.67.71-1.07.71-2.47,1.61-3.46.27-.3.52-.63,1-.4a.68.68,0,0,1,.31,1c-.85,1.44-.45,3.13-1.34,4.71-1.73,3.06-2.27,6.64-2.69,10.15-.06.5,0,1-.59,1.18-1.73.68-2.13,2.22-2.6,3.79a6.68,6.68,0,0,1-1.34,2.24,1.26,1.26,0,0,1-1.55.31c-.69-.39-.28-1-.07-1.47.33-.81.65-1.63.92-2.47a.54.54,0,0,0-.37-.76c-.36-.09-.82.13-.75.38.55,1.9-2.43,2.94-1.19,5a.48.48,0,0,1-.64.66c-1.15-.51-1.69-2.18-3.35-1.79.89-1.34-.58-3.23.73-4.32,2.95-2.44,1.44-5.78,2-8.7.08-.39.08-.87-.46-.93s-.63.38-.64.79c-.12,3.66-2.15,6.84-2.57,10.43-.14,1.21-.84,3.05-1.73,2.9-2.28-.39-1.55,1-1.83,2.07s-.65,2,.29,2.85c1.12,1,1.68-.09,2.4-.62a.75.75,0,0,1,1.2.26c.17.31.08.78-.23.82-2.94.36-1.77,3.6-3.58,4.89,1.06-.32,1.73-.61,2.75.26a5.51,5.51,0,0,0,3.84.84c.64-.07.31-1.55.32-2.41a1,1,0,0,1,.38-.8c.44-.18.63.25.9.55.7.78.09,1.95.85,2.66,3,2.85,2.38,6.43,2,9.95-.08.66-.15,1.59-1.21,1.42a1.15,1.15,0,0,1-1-1.61c1-2.15-.88-4.38.32-6.52.42-.75-.15-1.42-.81-1.78-.9-.49-1,.49-1.37.9l-.55-.09c.1.16.21.31.32.47a1.08,1.08,0,0,0-.42,1,.31.31,0,0,0,.22,0c.45-.29.29-.67.15-1l.27-.44c1.3.84.66,1.8.1,2.68-.72,1.14-1.45-.06-2-.23-1.88-.56.91-1.4-.25-2.26-1.27.8-2.26.07-3-1.15-.3-.47-.66-.74-1.17-.43a.76.76,0,0,0-.27,1.06c1,1.09.75,3,2.55,3.51,1.25.35.94,3.1,3.13,2.07a3,3,0,0,1,.24.38c.51,1-.39,7.38-1.15,8.23a3.57,3.57,0,0,1-2.14,1c-1,.21-2.1.23-2.67,1.32l-.11,0c-3.33-2-6.78-.7-10.14-.2a17.87,17.87,0,0,0-3.07.54c-3.18,1-5.16,3.64-7.89,5.18-.53.3-.95,1.07-1.64.69-.84-.46.46-1.2-.07-1.93-5.94,3.17-12.41,4.1-18.91,5.34A28,28,0,0,0-1,195.17a38,38,0,0,0-8-2.77,2.21,2.21,0,0,1-1.59-1.85c-.5-1.79-3.12-3.1-4.37-2-1.5,1.29-2.64.56-3.94.1s-2.68-1.09-4.05-1.53c-3.11-1-3.41-.74-2.77,2.4l-3.14-1.88c.05-.83.91-2.07.25-2.33s-1.88.44-2.85.73c-3.62-2.22-7.25-4.43-10.87-6.66-4.93-3-9.86-6.08-14.76-9.16-.53-.33-2-.72-.9-1.59,1.61-1.24,2.16-3.23,3.88-4.42a43.89,43.89,0,0,0,7.14-5.9c1.47-1.55,3.36-3.13,5.77-3.39,2.72-.3,3.59-2.27,4.09-4.52.24-1,.39-2.14,1.45-2.6,2.7-1.15,5.23-3.09,8.52-1.64.71.31,1.79-.14,2.76-.51,1.68-.63,2-2.11,2.84-3.18,2.43-3.08,5.47-5.85,6-10.11.08-.67.69-1.16,1.24-1.67,3.4-3.13,5.54-6.78,4.66-11.69a16.71,16.71,0,0,1,.37-5.39,31.3,31.3,0,0,0-.46-11.7c-2.14-9.36-6.19-18.13-8.63-27.45-1.53-5.86-3.93-11.53-5.12-17.52-.86-4.34-2.23-8.59-2.56-13-.27-3.54-1-7-.12-10.7.53-2.37-.9-5.45-2-8.11-.77-1.9-1.54-3.84-1-6.19.3-1.26.64-3.29-.17-4.39-1.54-2.11-3.06-4.47-5.37-5.77s-3.24-2.91-3-5.35A9.79,9.79,0,0,0-38,.56c-.63-3.39-.86-6.71,1.52-9.65.38-.47.44-1.2.78-1.72,2.62-4,3.46-8.9,6.63-12.56A28.1,28.1,0,0,0-26.39-27a4.08,4.08,0,0,1-.47,4,15,15,0,0,0-2.36,4.64c3.32-1,3.27-5.07,6.5-5.85a11.33,11.33,0,0,1-2.43,6.68c-.54.68-1.22,1.56-.09,1.84.79.19,2,1.68,2.84-.08.3-.59.44-1.73,1.32-1.39s0,1.26.06,1.91c.09,1.57-.65,2.49-1.76,3.63-2.12,2.18-4.31,4.43-5.34,7.47-.38,1.13-.29,1.88,1,1.61.89-.19,1.25,0,1.38.76.57,3,2.37,5.59,2.36,8.71a6.42,6.42,0,0,0,2.27,4.81c.45.43.84.92,1.65.68,2.77-.83,4.54.69,6,2.74.27.38.48,1,1,.65s.2-.85,0-1.32a17.45,17.45,0,0,0-2.78-4.95c-2.22-3-2.48-6.52-2.52-9.85,0-2.45,1.4-5,2.48-7.35.35-.78,1.16-1,2.74-.68,2.94.71,1.88,2.33,2,3.81C-10.27,0-6.83,3.31-2.33,4.76c2.39.77,4.9.58,7.14,1.65-.38-2.54-.19-2.7,2.56-2a1.54,1.54,0,0,0,1.49-.59A6.42,6.42,0,0,0,10,1.45c.89-1.92,1.21-2.9-1.19-4.52A44.72,44.72,0,0,0,2.57-6.8c-1.51-.71-2.08.45-3.08.2C-.68-5.37,1.38-5.47.58-4.11c-.31.53-.75.48-1.25.45-1.72-.1-.78-1.48-1-2.22-.71-2.67.94-5.25.53-8-.07-.45,1.07-.75,1.64-.63,1.25.26-.55,1.21.41,1.74.83-1.16,1.21-3.12,3.42-2.46a4.89,4.89,0,0,0,.87-2.31c-.29-4.22-.82-8.39-3.59-11.89A9.58,9.58,0,0,0-2.08-32C1.7-33,5.43-34.3,9.27-34.88c2.29-.35,2.44-1.17,2.35-3.07-.22-5-.64-10,.2-14.87A159.42,159.42,0,0,0,14-77.38a19.1,19.1,0,0,1,11.1-17.17c1.73-.82,3.52-1.44,5.27-2.12,3.77-1.44,7.1-3.77,11-4.92,3.36-1,3.69-2.7,1.71-5.77a4.57,4.57,0,0,1-.47-1.33,18.33,18.33,0,0,1,.29-10.88c.65-1.82.35-2.54-1.18-3.41C39-124.57,39-125,40-128c.65-2,1.28-4.31,0-5.95a19.19,19.19,0,0,0-3.24-3.4c-1.2-.95-1.34-1.89-.38-3.18,3-3.95,5.84-8,8.74-12,.62.19,1.09.17.94-.69l.75-1.11c1.15.53-.26,1.45.31,2.09.64.32,1.5-1.37,1.9.06a1.4,1.4,0,0,1-1.37,1.64c-.69.07-1.37.25-1.54.94-.45,1.7-1.71,2.89-2.54,4.34-1.32,2.27-.64,3.82,2,4,2.07.15,4.31-1.27,6.12.87.14.16,1.05-.06,1.32-.36.81-.91,1.26-.47,1.89.2a9.16,9.16,0,0,0,1.93,1.44c.88.56,1.66.41,1.63-.76-.06-2.37,2.21-3.89,2.15-6.28,0-.69.76-.91,1.51-.79a1.49,1.49,0,0,1,1.33,1.7c-.12.62.09,1.92-.92,1.9-2.38-.06-1.36,1.91-1.14,2.4,1.14,2.53,1.9,5.56,5.49,5.88.7.07,1.53,1.14,1.94-.15.27-.81.13-2-1-2.1s-.62-.56-.36-.93c.72-1,1.62-.21,2.41-.09s1.24.63.91,1.4c-1,2.32.71,3.7,1.73,5.32.24.38.86.49.92,1.05.24,2.18,1.86,2.32,3.51,2.26.39,0,.78-.21,1.1.09,2,1.92,3.36,1.26,4.19-1.36.53,1.85,1.39,2.29,2.86,1.3a16.21,16.21,0,0,1,2.53-1.36c1.94-.86,4.4,0,4.65,1.88s.68,3.83,0,6c-1-1.23-.83-2.77-2-3.48-.34-.19-.69-.53-1.08-.24s-.29.67,0,1c1.48,2.06.61,4.11-.05,6.13.63.79,1.5-.66,2.13.23-1.35,2.57-1.36,2.58-3.74,1.39-.81-.41-1.6-.91-2.24.24-.23.42.67,3.88,1.11,4,2,.62,1,1.76.54,2.83-.56,1.43-1.86,1.36-2.44.54-1.33-1.9-3.72-2.68-4.72-4.83-.21-.46-.46-.91-1-.85s-.58.69-.54,1.14c.12,1.4-.1,2.91,1.17,4a1.63,1.63,0,0,1,.13,2.55c-1.31,1.41-1.12,3.47-2.3,5-.36.45-.14,1.94.35,1.81,3.14-.79,4.48,2.78,7.3,2.82,1,0,2.14.4,3.26.38s1.73,1.74,2.52,1.41c1.57-.64-1.1-1.65,0-2.8.89-1-.12-.87-.76-.79-1,.12-2.48.1-2.26-1,.32-1.61-.67-4.09,2.12-4.65.44-.08.62-.44.81-.81.3-.59-.07-2.11,1.17-1.48,1,.51,2.76,1.43,2.31,2.66-.85,2.31.23,3.49,1.69,4.8.54.49.46,2.06,1.31,1.7,1.87-.81,2.56.75,3.73,1.34a9.7,9.7,0,0,0,4.47,1.43A2.41,2.41,0,0,1,107.35-94c1.73,3.68-1.11,8.75-5.07,9.26-.78.1-1.52.48-2.29.65-2.41.53-4.15,2.33-6.29,3.29-6,2.68-11.56,5.61-14.67,11.91-1.28,2.58-3,4.82-.54,7.55.74-.3.68-1.15,1.05-1.73s1-1.13,1.3-.72c.89,1.19,2.74.2,3.44,1.77a.67.67,0,0,0,1.25-.3c.19-1.73,1.86-1.59,2.71-2.69.53,1.68-1.82,2.15-1.14,3.3.58,1,2.22.85,2.88,2,.81-.71.57-1.5.73-2.17.12-.51.38-.91,1-.91a.84.84,0,0,1,.83,1c0,.83.51,1.8-.43,2.46-1.14.8-1.13,2.06-1.25,3.24-.09.83-.63,1.84.42,2.4a2.45,2.45,0,0,0,2.88-.57c1.47-1.45,3.51-1.14,5.17-1.93.37-.17,1-.33,1.34.13s-.14.88-.32,1.29c-.34.77-1.16,1.34-1,2.63,1.46-1.59,2.82-.39,4.14-.05s1.71.21,1.86-1.2c.29-2.72.73-5.44,2.92-7.43.26-.24.72-.87.77-.59.48,2.63,1.74-.78,2.39.43-.89,1.62-1.8,3.34,1.07,4.05v0c-.32.85-1.2,1.72-.21,2.61a3.57,3.57,0,0,1,.83,5,21.57,21.57,0,0,1-3.79,4.61A1.21,1.21,0,0,0,109.1-43c.62.87.89.16,1.45-.19a3.52,3.52,0,0,1,4-.17,5.73,5.73,0,0,0,2.42,1,2.87,2.87,0,0,1,2.4,3.22c0,1.83,1.06,2.43,2.31,2.88.78.28,1.47-.52,2.11-1s.48-1.05-.28-1.4a1,1,0,0,1,.19-.59c.37-.35.72-.13,1,.17,1.29,1.29,2.22.71,3.29-.43,2-2.12,3.6-4.62,6.94-5.19a2.3,2.3,0,0,1,2.36.86c.87.82-.08,1.18-.53,1.69C135.86-41,135-39.83,134-38.7c-.91-.21-.36-1.89-2-1.5-2.17.5-3,1.78-3.6,4a2.22,2.22,0,0,1,2.54.06c2.13,1.24,1.78,3.51,2.77,5.16.39.64.45,1.4,1.3,1.18a1.33,1.33,0,0,0,.92-1.71c-.15-.7-.92-1.74.55-1.74,1.14,0,1.21.91,1.11,1.94-.11,1.2.1,2.41,1.78,2.39ZM70-64.81l-.17-.42a13.91,13.91,0,0,0-3-4.55c-1.1.28.58,2.12-1.24,1.91-.28,0,.08,1,.17.9,2.29-1.54,2.75,1.14,4.09,1.73ZM63.59-94.26a2.23,2.23,0,0,0-1.66-1.24c-.33-.1-1.15-.25-.74.59.78,1.59-.81,1-1.24,1.26-.72.5-1.06-.2-1.31-.85a6.91,6.91,0,0,0-1.11-2.37c-.7-.71-1.26-2-2.91-.8-.76.56-2.52,0-3.73-.34-.71-.21-.7-1,0-1.5.53-.39,1.32.07,2-.94-1.15-.22-1.79-1.15-3.18-.3s-2.78-.16-4-.64-1.09-.38-1.11.75c0,.83,1.07,2.61-1.51,2.35-.65-.07-1.55,2.34-2.45,3.79.22-1.73-.89-1.36-1.69-1.08-1.11.38-2.49.94-2.32,2.31.12,1-.57,3.14,2.18,2.41,1.24-.32,1.13,1.17.69,2.14-1.08,2.39-.67,2.89,2,3.43.95.19,3.86-.5,2.09,2.43-.25.42.52.69.91.94a43.16,43.16,0,0,1,4.17,2.71,1.77,1.77,0,0,0,2,.4c3.16-1.34,5.52.8,8.12,1.85.77.31.16.94-.1,1.4l-.18,0,.17,0c1.5,1.56,3.36.49,4.92.38,2.47-.18,4.84-.42,7.23.41.8.27.85-.46,1-1,.48-2.14-.94-5.21-3-5.88-2.73-.89-5.13-3-8.27-2.45l-3.24.06a.76.76,0,0,0-1.13-.23l-.75-.47a10.36,10.36,0,0,1-5-5.11c-.6-1.42-.3-2.84.76-3.42s2.19-.14,3.12,1.24c1.26,1.88,3.11,3.38,5.73,3.07.72-.08,1.57-.23,2,.44,1.79,2.86,4.58,4.56,7.44,5.89,2.56,1.18,2.87,4,5,5.42,1.32.84,2.21,2.25,3.68,3,.8.38,1.53,1.08,2.31.1s.83-2.36.19-2.86c-3.12-2.38-5.13-5.79-8-8.34-1.34-1.63-3.61-2.11-4.8-3.92,2.08-1,.28-2.35.39-3.53C66.8-92.93,66.05-95,64.39-94ZM-14.82,163c-.36-.41-1.21,0-1.6.62s-.07,1,.47,1.55c2.11,2,4.38,1.8,6.82-.74a1.83,1.83,0,0,0-2.13.15h0C-12.15,163.43-13.82,164.09-14.82,163ZM76.72-122.78c-1.32.64-2.14-.59-3.41-1.71.25,1.93-.64,3.32,0,4.84a1.1,1.1,0,0,1,0,.88c-1.86,2.62,1.16,2.76,2.1,3.53s2.2-.4,2.3-1.56c.15-1.7,1.18-2.93,1.75-4.39a3.74,3.74,0,0,0,.72,1.67c.64.73,1.33,2.1,2.21,1.37,1.27-1-.4-2.07-.82-3-.56-1.27-1.42-1-2.11,0C79.53-123.68,79-123.91,76.72-122.78ZM28-76.31a2,2,0,0,0,.37,2.82c1.21,1,.45,1.65.14,2.63-.39,1.27-2.33,2.91.46,4,.45.17.31,1.24-.17,1.72s-.54,1.59-.81,1.8c-2.35,1.88,0,5.37-2.53,7.08a.77.77,0,0,0-.21.38c2.46,1.9-.32,3.41-.5,5.08-.2,1.92.2,3.83-.19,5.72-.21,1-.64,1.89.9,2.47,1.17.43.51,2.11,1.27,3.66,1.05-2.12,2.83-3.33,2.56-5.65a.71.71,0,0,1,.32-.57c3.17-.69.07-2.82.93-4.05.06-.08-.12-.52-.45-.29-1.93,1.34-1.4-.49-1.51-1.25s-.35-2,.6-1.92c.79.11,2.71-.54,2.38,1.69,2.29-2.67,2.1-3.33.57-7.44-.52-1.39,0-3.27-.74-4.83,2.45.07,1-2.68,2.4-3.34.39,5,1.92,9.76,2.27,14.74,0,.5-.28,1.4.9,1.63s1.21-.58,1.53-1.1c1.17-1.89,2.29-3.83,4.29-5,1.68-1,2-2.7,2.66-4.29,1.7-4.14,3.53-8.22,5.32-12.33.18-.42.62-.88,0-1.2-.8-.4-1.43-1.51-2.46-1.08-3.38,1.4-6.79.9-10.24.41-3.61-.52-4.84.63-4.76,4.25a2.28,2.28,0,0,1-.21.69c-1.76-1-1.39-2.77-1-4.09.76-2.55-1-3.63-2.19-5.44-.75,1.67.22,2.69.35,3.83h0C29.43-75.63,28.86-77.17,28-76.31Zm28.55,45.2c.56,1-.31,1.59-.66,2.35-.15.33-.16.66.19.82.59.27.7-.18.69-.59,0-.57-.12-1.14.31-1.6.66-.71,1.52-1.15,2.33-.52a1.31,1.31,0,0,1,0,2.25,6.77,6.77,0,0,0-1.87,2.51,4.54,4.54,0,0,0,3.08-1.94,6.76,6.76,0,0,1,2.14-2.25,1.49,1.49,0,0,1,1.78.07c.77.56.35,1.09,0,1.65a7.08,7.08,0,0,1-2.51,2.84c-1.82,1-3.06,2.65-4.84,4.76,2.59-.38,4.42-.75,5.78-2.38.46-.55.76-1.43,1.34-1.66,3.21-1.24,5-3.37,5.24-6.92.05-.87.72-1.69,1.73-.36.72.95,2,.29,3,.4.65.06,1-.77.73-1.47a1.5,1.5,0,0,0-.76-.87c-3.21-.89-4-4.44-6.68-6-1-.58-1-1.09-2.07-.23-2,1.63-3.42,1.19-4.88-1.13a7.45,7.45,0,0,0-.63-.94c-2.09,1.07-2.38-.66-3-1.88a.59.59,0,0,0-.4-.25c-1.07,0-1.54,2-2.93.88a13.8,13.8,0,0,0-.23,2.66c-.1,1.93.86,3.84.07,5.78-1.06,2.62-.86,2.84,1.94,2.63a6.58,6.58,0,0,1-1.65,3.37c-.37.07-.93-1.17-1.08.07-.09.73.47,1.58-.57,2.06-.86-.49-.39-1.31-.51-2a2.18,2.18,0,0,0-3.43-1.67,3.85,3.85,0,0,1-1.28.64c-.93.1-1.82-.16-1.24,1.46.32.89-.82,1.37-2.08.88-.58-.23-.9.05-1.21.45-1.77,2.32-3.81,4.44-4.68,7.35-.3,1-.52,2,.47,2.58.84.51,1.58-.21,2-.87,1-1.64,3.41-.43,4.46-2.19.23-.39.55.43.65.89.19.82,0,2,1.13,2.16s.79-1.16,1.32-1.71c2.12-2.24,4.54-4.24,5.4-7.47a25.55,25.55,0,0,0,.64-2.72C55.29-29,54.93-31.47,56.55-31.11ZM15.85,150.74c-1.28,1.69-3.61,2.62-4.08,4.72s-2,3.7-2.94,5.57c-1.28,2.66-3.37,3.49-5.88,3.84a3.9,3.9,0,0,0-3.27,2c-.64,1.09-1.91,1.06-3.28,1.25-2.9.42-5.78-1.06-8.61.23A3,3,0,0,1-15,168a1.28,1.28,0,0,0,1,1.58c1.36.11,1.93.46,1.33,1.91-.24.59.14.82.8.6a9.22,9.22,0,0,1,2.08-.4A1.74,1.74,0,0,1-7.95,173a1.27,1.27,0,0,1-.85,1.9c-2.1.7-1.54,2.56-1.82,4-.06.33.35.46.68.53,2.16.46,3.37,3.62,6.22,2.13,1.41-.74,2.84-1.62,4,.54.2.36,1.27.51,2.18.07.51-.24,2.05-2,2.61.29.46-.18,1.09-.24,1.35-.58s0-.9-.58-.84c-.46.06-.8,0-1-.44s-.12-1.37.38-1.51c1.75-.51,1.27-3.62,3.46-3.14a8.1,8.1,0,0,1,3.76,2.32c.88.91-.69,1.77-.7,2.74,2.29-1,3-4.86,1.14-6.57-1.09-1-1.76-2.72-3.92-1.73-.71.32-.62-.79-.45-1.42.8-3,2-5.95,2.51-9.12a8.1,8.1,0,0,1,4-5.44c.73-.43,1.66-.56,2.07-1.48.17-.38,1-.44.94-.18-.35,2,2.33.92,2.45,2.46,0,.45.51.14.75,0a11.27,11.27,0,0,1,2.42-.76c2.71-.69,2.95-1.53.55-3-.17-.1.4-1.2-.6-.42s-2.45,1.83-4.15.8c-2.35-1.45-2.74-2.72-1.35-5.12a4.25,4.25,0,0,0,1-2.47C17.31,147.6,16.86,149.41,15.85,150.74ZM.23,37c-1.88.24-1.34,2.22-1.33,3.61a.87.87,0,0,0,.87,1c3.05,0,1.23,1.31.54,2.2-.48.62-1.28,1-1.65,1.71S-1,47-.63,47.58a1.39,1.39,0,0,0,1.94.27c1.23-1.26,2.2-1,3.24.51.94-2,.32-3.42-.63-4.85-.39-.59-.94-1.36-.15-1.91.95-.67,1.14.44,1.55.94,1.47,1.76,2.3,4,3.9,5.66.78.82.33,1.81,0,2.72-.35,1.12-.1,2.29,1,2.5s2.36.08,2.3-1.8c0-1.31.9-2.58.56-4-.28-1.16.16-2.67-2-2.82-.93-.07-1.08-1.59-1.23-2.58-.44-3-2.74-5-3.59-7.8A.69.69,0,0,0,5.36,34c-.79.26-1,.9-1.11,1.68C4,37.35,3.7,39,1.82,40.37,1.74,38.68,1.86,36.82.23,37ZM16.75,3.34c.19-1,.18-1.47-.81-1.8a4.45,4.45,0,0,1-2.13-1c-.89-1.22-1.74-1-2.6-.23A2.23,2.23,0,0,0,11,3.33c.42.65.84,1.33,1.31,2s.62.94-.37,1.23c-.6.18-.69,3.74-.13,4.08,1.1.66,1.55-.26,2.26-1.24C13.43,6.9,16.31,5.7,16.75,3.34ZM71.12-51.89c-2.93-2,.07-4.65-1.36-6.54-2.56,1-3.43,3-2.44,5.44.68,1.69,1.09,3.49,1.81,5.15.28.65,1.08,1.06,1.73,1.67C72-48.18,71.94-51.33,71.12-51.89Zm-56,79.07a1.48,1.48,0,0,0,.54-1.72c-.7-1.95.07-2.85,1.91-3.29a1.18,1.18,0,0,0,.91-1.49c-.28-.87-.43-1.93-1.6-2.21-.79-.19-1.16.29-1.54.85-.89,1.3-1.57,2.66-3.19,3.44-1.38.67-.65,3,1.14,4.12A2,2,0,0,0,15.08,27.18ZM60.57-100.66c.64.06.81.53.54,1-.63,1.18.37,1.52,1,1.63a1.62,1.62,0,0,0,1.94-1.3c.41-2.33-1-4.41-1.08-6.69,0-.45-.69-.47-1-.21-.83.72-1.59,1.52-2.49,2.4C59.81-102.78,57.49-100.94,60.57-100.66Zm8-20.91a6.62,6.62,0,0,1,3.21-3.89c-.65-1.29-2-1.11-2.91-1.58a.85.85,0,0,0-1.25.71c-.24,1.66-1.39,4-1.06,4.7,1.31,2.94-1.71,3.63-2.17,5.68C67.81-116.41,68-119.6,68.56-121.57Zm-16.32-7.56a42.87,42.87,0,0,0,5.39.86c.67.05,2.11.09,2-.75s-.47-2.34-1.93-2.32a6.81,6.81,0,0,1-3.63-.85c-1.3-.74-1.54,1.07-2.44,1.26C50.85-129.92,51.29-129.33,52.24-129.13ZM33.82-22c-.84.36-1.12,1.63-2.49,1.39-.71-.12-.64.65-.37,1.24.48,1.06.87,2.15,1.3,3.23,1.64-2.12,3.86-3.87,4.17-6.85C35.07-23.92,34.66-22.41,33.82-22Zm14.4-25.51c.52-.93.68-1.14-.42-1.65a4.27,4.27,0,0,0-3.84.29c-.25.12-.61.65-.56.71,2,2.61-1.86,2.61-1.87,4.82C44.15-44.42,46.74-44.93,48.22-47.56Zm63.12,12.67c1.87.16,3.56-.91,5.45-.67a.69.69,0,0,0,.65-1c-.57-.94-1.37-2.4-2.4-2-1.45.6-3.49.42-4.29,2.4C109.69-35.21,110.2-35,111.34-34.89Zm-159.44,202c-.87.1-1.74.43-1.7,1.62,0,1,.79,1.17,1.56,1.48,1.72.7,3.25-.47,5.38-.14C-44.4,167.83-46,166.83-48.1,167.08ZM19.38,52.5c-.27-.23-.46-.43-.75-.19s-.33.66-.43,1c-.36,1.44.7,2.52.9,3.82a26.54,26.54,0,0,0,1.22,3.88C22,58.49,21.4,54.18,19.38,52.5Zm-6.12,3.57c0,.06.11.18.15.17.3-.05.67,0,.87-.19,1.42-1.25,2.88-2.52,2-4.72-.34-.82-1.16-.77-1.86-.75-.26,0-.51.31-.78.49C13.47,52.78,13.36,54.43,13.26,56.07Zm39.67,84.62c-1-1.92-2.06-2-3.43-.41-.21.25-.39.8-.14.77,1.64-.22.14,2.84,2,2a7,7,0,0,1,3.42-.61C54.08,141.61,53.32,141.48,52.93,140.69ZM-31.24-12.88c-.07.78-.36,1.6.42,2.21a.64.64,0,0,0,1-.13c.47-.77,2-.9,1.55-2.14A25.74,25.74,0,0,1-29-16.85,6.27,6.27,0,0,0-31.24-12.88Zm43.37,165.3c-1.69-.92-4.25.93-7,5.18A34.6,34.6,0,0,0,12.13,152.42Zm22.56,17.49c.4.82,1.62.73,2.38.55s2.46-.68.64-2c-.57-.41-.41-.82.08-1.1.79-.43,1.1-1.28.56-1.74-.74-.63-1.42.13-1.9.79-.28.39-.54.78-.9,1.3S34.29,169.1,34.69,169.91Zm-63.83-19.63c0-.5-.2-1.3-.88-1.22-.92.09-.73,1.11-.56,1.52.42,1-.16,2.2.68,3.17.38.46-.2,1.68.78,1.74,1.25.09.46-1.09.65-1.64.29-.82,1.25-.25,1.59-1.3C-28.34,152.38-29.24,151.82-29.14,150.28ZM20.13,142a1.75,1.75,0,0,0,.45,2.19c.5.34.91-.16,1.22-.49.63-.64,1.22-1.36.58-2.31A9.58,9.58,0,0,1,21.3,138C19.8,139.08,20.62,140.74,20.13,142ZM72.39-38.79a1.3,1.3,0,0,0,.06.9c.32.49.65.12,1-.1a11.14,11.14,0,0,1,3.68-1.17C74.61-41.26,72.88-41,72.39-38.79ZM-10.27,3.86c-.4-.3-1.51.38-1.82,1.2a.9.9,0,0,0,.69,1.3A3.24,3.24,0,0,1-8.87,7.5,3.2,3.2,0,0,0-10.27,3.86ZM29.4-90.53A1.67,1.67,0,0,0,32-90.71c.61-.67.16-1.71-.53-2.27-1-.79-2-.2-2.86.2C27.85-91.61,28.86-91.11,29.4-90.53ZM23.89,41.08a.81.81,0,0,0-.76-1,1.14,1.14,0,0,0-.77.77c-.14,1.47-.17,2.94-.24,4.41C23.51,44.06,23.38,42.47,23.89,41.08ZM18.21,26.65a.83.83,0,0,0-.79-1c-.48,0-.72.32-.77.73-.17,1.38-1.55,3.16,1.28,3.7C18,28.84,18.15,27.75,18.21,26.65Zm7.14,118.5c-.07-.45.23-1-.41-1.15s-.82.46-1,.88c-.41.93-.74,1.9-1.11,2.85C23.55,146.77,25.62,147,25.35,145.15ZM71.78-103.77c.15-.27-.41-.55-.68-.45-1.33.47-.46,1.76-1.21,2.58C71.85-101.49,71.37-103,71.78-103.77ZM51.52-19.91c.52-.53,1.6-.59,1.44-1.65,0-.19-.48-.44-.75-.46-1.05-.05-1.11,1-1.56,1.58-.18.23-.37.53.06,1.09A4.41,4.41,0,0,0,51.52-19.91Zm9.54-105.9c.28-.21.49-.55.24-.77-.94-.84-1.93.08-3.51-.27C59.16-125.72,59.92-124.94,61.06-125.81ZM18.23,159.79c.44.3.66-.16.86-.47.34-.55.05-.88-.46-1a.76.76,0,0,0-1,.33A1.25,1.25,0,0,0,18.23,159.79ZM8.13,177.1a.73.73,0,0,0,.2,0c-.05,0-.1-.12-.14-.12s-.12.06-.17.1S8.09,177.11,8.13,177.1Z" fill="#1c2d28"/>
        <path d="M133.27,111c-.75,2.12-2,3.52-4.51,3.39-2-.1-4.29-.53-5.41-1.61-3.76-3.64-8.59-5.59-12.6-8.78C103.26,98,95,93.16,87,87.91a20.67,20.67,0,0,0-6.66-3.42c.84.9,1.54,1.34,1.77,2,.9,2.33,3,3.64,4.86,4.65,2.56,1.35,4.25,3.5,6.23,5.37,1.13,1.08,3.17,2.44,3.07,3.39a59.27,59.27,0,0,1-.58,6.65c-.09.44-.09,1.15-.73,1a2.8,2.8,0,0,1-1.38-.9c-.51-.55.14-.76.45-1.09,1.42-1.46,1-2.49-.74-3.3s-3.41-1.79-5.15-2.62c-.7-.35-1.32-1.2-2.42-.67.17.3.22.58.38.67,1.74,1,3,1.92.6,3.62A.86.86,0,0,0,87,104.8c3.27,1,3.86,3.6,4.45,7-.8-1-1.22-1.7-1.75-2.27s-.42-1.93-1.49-1.5-1.14,1.61-1.24,2.59c0,.5.38,1.05.11,1.62s-.87,1.14-1.23.49c-.81-1.44-2.69-2.65-2.26-4.32a3.82,3.82,0,0,0-.83-3.54c-.71-1.08-1.1-2.43,1.15-1.92.34.08.63.24.67-.25s0-1.23-.43-1.28c-1.87-.22-3.37-1.76-5.36-1.43l0,0c-1.44-.53-3,1-4.56-.27.91,1.37.79,2-.84,2.46-1.86.52-1.87,1.06-.64,2.26a.83.83,0,0,1,.28.63c-.49,1.46-.37,3.34-2.23,4a15.56,15.56,0,0,0-5.5,3.32c-.64.57-1.57,1.64-1.77-.41a.86.86,0,0,0-1.41-.7c-1.51.93-3.36,2.14-3.43,3.78-.12,3-2.71,3.56-4,5.43-.17-1.62.57-3.07-.33-4.67-.39-.69.07-2.71.67-3,2.44-1.12,2.15-3.21,2.38-5.17.62-5.38,1.28-10.66,4.76-15.25,3.18-4.21,3.33-9.27,3.05-14.4C65,71.83,63.31,66,62.42,60c-.36-2.33.45-3.24,2.73-2.83,1.3.24,1.36-.13,1.57-1.25a11.68,11.68,0,0,0-1-7.83c-.92-1.69-1.55-3.7-3.32-4.8-.69-.42-2.06-.16-1.9-1.35.12-.88,1.36-.59,2.06-.91a1.8,1.8,0,0,1,2,0c.58.42,1.28,1,1.6-.3a.58.58,0,0,1,.92-.41c2.31,1.17,5.12,1.32,6.86,3.67a10.6,10.6,0,0,0,8.22,4.45,3.05,3.05,0,0,1,2.32,1.16c1,1.37,3,1.71,3.32,3.61.28,1.68,2.91,2.05,2.41,4.05-.81,3.2,3.44-.26,3,2.37,0,.29.54.63.61,1A4.18,4.18,0,0,0,96.63,64c3.21.95,2.83,5.28,6.06,6.05.13,0,.25.43.25.65-.07,2.75,1.57,1.82,2.85,1.24s2.61-1.39,3.61-.54a35,35,0,0,1,4,4.74l-.35.57c-2.73-1.33-5.6-1.21-8.48-1.28-1.67,0-3,.61-2.69,2s.17,1.81-.74,2.57c-1.72,1.43,1.44,2,.66,3.45-.21.38.32.45.62.29,2.37-1.23,2.16,2.16,3.85,2.14,0,1.61,1.27,2.44,2.3,3.17,1.69,1.18,3.65,2.81,5.44,2.75a6.14,6.14,0,0,1,4.16.93,2.89,2.89,0,0,0,3,.62c1-.33,2.35-.34,2.86.66,1.64,3.2,4.86,2.93,7.51,3.14a6.19,6.19,0,0,1,2.93,1c1.19.69,2.12,1.63,3.7,1.86a4.72,4.72,0,0,1,4,3C139.5,106,135.86,107.91,133.27,111Zm-65.8-9.8c-.35,0-.63.12-.44.55s.3.82.77.81c1,0,2.26,0,2.36-1.16s-.48-2.22-1.86-2C67.47,100,70.53,101.58,67.47,101.2Z" fill="#1c2d28"/>
        <path d="M-24.58-28.53c1.75-.94,3.74-1.57,5.28-2.77a9.12,9.12,0,0,1,7-1.89c3.43.38,6.84.8,10.26,1.2a9.58,9.58,0,0,1,3.72,2.58c2.77,3.5,3.3,7.67,3.59,11.89a4.89,4.89,0,0,1-.87,2.31c-2.21-.66-2.59,1.3-3.42,2.46-1-.53.84-1.48-.41-1.74-.57-.12-1.71.18-1.64.63.41,2.73-1.24,5.31-.53,8,.19.74-.75,2.12,1,2.22.5,0,.94.08,1.25-.45C1.38-5.47-.68-5.37-.51-6.6c1,.25,1.57-.91,3.08-.2A44.72,44.72,0,0,1,8.79-3.07c2.4,1.62,2.08,2.6,1.19,4.52A6.42,6.42,0,0,1,8.86,3.79a1.54,1.54,0,0,1-1.49.59c-2.75-.67-2.94-.51-2.56,2C2.57,5.34.06,5.53-2.33,4.76-6.83,3.31-10.27,0-10.5-4.6c-.08-1.48,1-3.1-2-3.81-1.58-.37-2.39-.1-2.74.68-1.08,2.36-2.52,4.9-2.48,7.35,0,3.33.3,6.87,2.52,9.85a17.45,17.45,0,0,1,2.78,4.95c.15.47.41,1,0,1.32s-.75-.27-1-.65c-1.48-2.05-3.25-3.57-6-2.74-.81.24-1.2-.25-1.65-.68a6.42,6.42,0,0,1-2.27-4.81c0-3.12-1.79-5.75-2.36-8.71-.13-.72-.49-.95-1.38-.76-1.28.27-1.37-.48-1-1.61,1-3,3.22-5.29,5.34-7.47,1.11-1.14,1.85-2.06,1.76-3.63,0-.65.82-1.57-.06-1.91s-1,.8-1.32,1.39c-.87,1.76-2.05.27-2.84.08-1.13-.28-.45-1.16.09-1.84a11.33,11.33,0,0,0,2.43-6.68c-3.23.78-3.18,4.83-6.5,5.85a15,15,0,0,1,2.36-4.64,4.08,4.08,0,0,0,.47-4C-26.1-27.93-25.26-28.16-24.58-28.53Zm17.87-.58A11.54,11.54,0,0,0-7.39-28c-.22.49.7,1.48-.42,1.49-.92,0-.91-.84-.74-1.63.11-.56.51-1.33-.44-1.59-.42-.12-.91-.36-1.35,0,1,.74-.63,1.73.23,2.48A8.92,8.92,0,0,1-8.86-26.1C-7.7-24.62-5.94-23.36-7.11-21a1.37,1.37,0,0,0,.53,1.87c.7.29.92-.4,1.16-.9a1.74,1.74,0,0,1,.17-.45c.47-.58,1.8,1.38,1.81-.59,0-1-.76-1.56-1.13-2.34-.55-1.16.14-2,.81-2.8a3.56,3.56,0,0,1,3.87-.74.84.84,0,0,0,1.25-.69c0-.61-.6-.59-1.08-.67-1.93-.33-3.72-1.32-6.08-1.1a4.11,4.11,0,0,1,2.06,3.24C-5.11-26.54-6.57-26.8-6.71-29.11Zm-.69-1.76c.14.08.37,0,.56,0-.07-.18-.1-.43-.23-.53s-.38,0-.72-.06C-7.61-31.18-7.55-30.94-7.4-30.87ZM1.1-15.33c.07,0,.17,0,.2-.08s0-.14-.05-.21L1-15.54Z" fill="#9bb0aa"/>
        <path d="M143.7,134.49l-.27.58.33,0-.06-.61Z" fill="#9bb0aa"/>
        <path d="M143.37,141.52c0,.13,0,.25-.05.38s.18,0,.19,0a2.38,2.38,0,0,0,.06-.37Z" fill="#9bb0aa"/>
        <path d="M143.89,138.65l-.06.39.29,0-.13-.37Z" fill="#9bb0aa"/>
        <path d="M144,138.63l-.07-.39c-.37.11-.18.26,0,.41Z" fill="#9bb0aa"/>
        <path d="M143.81,140.21c.07,0,.18,0,.21-.07s0-.15-.05-.23-.19,0-.22.08S143.78,140.14,143.81,140.21Z" fill="#9bb0aa"/>
        <path d="M87.05,188.12c.57-.59,1.1-1.14.6-2.08-.68-1.25-.79-2.21,1.19-1.78.64.14,1.43,0,1.55-.79.25-1.53.15-3.15,2.6-2.49.54.14,1.27-1.06,1.12-1.64-.56-2.07.59-4.51-1.42-6.29-.55-.49-1.26-1.58-.68-2.09a2.93,2.93,0,0,1,2.58-.94,7,7,0,0,1,3,1.3c.53.45,1,1,.36,1.6-1.07,1-.56,1.88.14,2.71a1.44,1.44,0,0,1,.06,2c-1.18,1.73.5,2.77,1.28,3.52,1.26,1.24,1.7,3.18,3.49,3.94.15.07.21.82,0,1.1-1.09,1.93.09,3.41,1,4.92.23.4.85.89.39,1.16-1.91,1.12-.29,1.9.27,2.76-2.21.71-3.64,2-3,3a2.14,2.14,0,0,1-.09,2.6c-.34.61-.16,1.12.37,1.69a3.11,3.11,0,0,0,3.89.78v0c-.39,3.46-4.52,1.17-5.43,3.8-.73-.72-.13-2.08-1.69-2.11-.24.69,1.12,2-.11,2.12-3.31.3-3.25,4-5.68,5.22-.79.39-.3,1.39.39,2s1.45,1,.45,1.89c-2.16,1.89-1.85,5.22-4.17,7.08-.74.59.09,2-.85,2.89a7.64,7.64,0,0,1-5.83,2.23c-3.28-.06-3.22-.05-3.23-3.4,0-.63.29-1.43-.28-2a.92.92,0,0,1-.11-1.29c.4-.53.89-.2,1.27.06,1.46,1,2.43.79,2.57-1.21,1.27.72,2.48,1.18,2.25,2.73-.06.45-.49,1,.15,1.23s1-.25,1.38-.71c.84-1.13,1.56-2.2.42-3.63-.45-.56.48-1.87-.4-2.14-1.06-.34-1.37.76-1.61,1.64a.77.77,0,0,1-.54.37c-.55.05-3.61-2.9-3.45-3.45.21-.75-.63-1.13-.6-2,1.56.64,2.65,1.81,4.59,2.16-1-1.39-1.81-2.71-1.41-3.79,1-2.87.6-5-2-6.71A2.41,2.41,0,0,1,81,204.3c0-.72.33-1.62,1.29-.85.79.63,1.68,1.65,2.14.14.39-1.28,3.57-2.25.73-4.12-.32-.2-.4-1-.09-1,2.88.42,1-1.33,1-2.18.18-1.86.27-3.76,1.43-5.35.58-.79.25-1.32-.4-1.81A.92.92,0,0,0,87.05,188.12Zm9.76,6.4a5.38,5.38,0,0,1,.14,3.34c-.48,1.26-1.7.44-2.56.68-.65.19-2-.81-2.06.08,0,2.1-2.15,3.5-1.61,5.64.21.84.54.06.81,0,.77-.16,1.18.26.92.9-.47,1.15,0,1.58,1,1.91a2.09,2.09,0,0,0,2.44-.8c1-1,1.51-2.52,3.11-2.79.9-.16.19-.39.09-.68-.45-1.22-.85-2.46-1.23-3.7a.88.88,0,0,1,.07-.68c1.76-2.65,1.73-2.64.91-5.76-.44-1.7.94-2.59,2-3.16s.88-1,.38-1.58a4.52,4.52,0,0,1-1.09-2.1c-.15-.94-.54-1.69-1.68-1.69-.51,0-1.25.16-1.06.61.41,1-.94,2.2.35,3.1.53.37,1.4.47,1.44,1.57A4,4,0,0,1,96.57,188c-.36-.37-.74-.78-1.16-.29s0,.82.5,1a1.13,1.13,0,0,1,.21,2.17c-2,.89-1.44,2.7-2.13,4.1C95.18,195.08,96.51,193.54,96.81,194.52ZM90.2,212.11c.6.25,1-.05.92-.64-.14-1.34-.37-2.68-.61-4a1,1,0,0,0-.81-.79c-.52-.11-.67.31-.86.65C88.38,208.14,89.4,211.78,90.2,212.11Zm-2.27-13.39c-.43-.18-.71.59-.19,1a1.45,1.45,0,0,1,.54,1.67c2-.54,3.48-1.49,3.12-4.27C90.29,198,89.62,199.43,87.93,198.72Zm3.77-3.8a1,1,0,0,0,.12.86c.2.3.55.27.76-.07a.6.6,0,0,0-.09-.85C92.2,194.71,91.85,194.5,91.7,194.92Z" fill="#fefefe"/>
        <path d="M66.76,155c-2.61-.51-3.85,1.33-3.34,5.08.65-.6,1.08-1.47,2.13-1.5-.28,2.32-2.63,3.6-2.93,5.92,0,.46,0,1.47-1,1.32a1.36,1.36,0,0,1-1.2-1.33c0-1.23-.46-1.8-1.72-1.64a2.67,2.67,0,0,1-2.09-1c-1.09-1-2.09-1.79-3.73-1.63-.83.07-2.06-.72-1.31-1.64,1-1.26.37-4,3.2-3.74.16,0,.38-.44.57-.69-2.51-1.54.58-1.3.67-2,.13-1,1.26-2.09-.38-2.86a.83.83,0,0,1-.42-1.35,19.46,19.46,0,0,0,2-5.59,1.15,1.15,0,0,1,1.59-1,16.94,16.94,0,0,0-.08,1.86c0,.78.06,1.72,1.24,1.56.86-.11,1.28-.6.89-1.52-.28-.66.28-1,.61-1.44,1.22-1.56,1.12-2.7-1-3.25v0a8.53,8.53,0,0,0,3.31-5.39c.69-4.31,3-8.07,4.24-12.18.33-1.07,1.37-2.57,2.41-2.13,1.56.66.26,2-.09,3.08,0,.15-.21.25-.27.4-.26.59-.23,1.23.49,1.31,1,.11.25-.62.36-1,.32-1,.67-2.25,1.82-2.11,1.34.16.6,1.59.5,2.21-.42,2.46-1.24,4.81-1.08,7.4a2.4,2.4,0,0,1-2,2.4c-.36.09-.87.25-1,.53-.44.93-.7,2-1.1,2.91s-.49,1.94-1.51,2.59c-.56.35-1.1,1.24.1,1.77-.8,1.1-.66,2.45-.93,3.68-.1.44-.29.79-.75.79s-.51-.51-.61-.88-.09-.81-.83-1c-.08,1.05-2.07,2.38.78,2.78.45.07.2.7.3,1.06.21.7-.34,1.52.45,2.48A24.69,24.69,0,0,1,69.7,143c.68-.68,1.56-1,1.69.25.16,1.66.47,3.56-1.89,4.31-1,.3-2.15.78-1.08,2.36a1.18,1.18,0,0,1-1.07,1.83c-.95.06-1.42.63-.7,1.64.3.42.7.94.26,1.53Zm-3.28-1.41c0-1.66.36-3.38-.31-5-.15-.35-.49-1.14-1.2-1s-.59.92-.68,1.41c-.34,1.73-.57,3.47-.83,5.21-.13.84-.07,1.8,1,1.87,1.34.1.24-1.1.64-1.59a6.23,6.23,0,0,0,.57-1h-.05Zm5-22.73c-.23-2,.63-3.86,1.11-5.76.14-.56.48-1.14-.22-1.43s-1.13.33-1.24.82c-.73,3.05-2.6,6-1.08,9.59A3.39,3.39,0,0,0,68.46,130.86Zm-8.65,26.4c-1,.38-.5,1.76.64,1.6.55-.08,1,.55,1.8-.21C61.41,158,60.87,156.87,59.81,157.26Zm-3.66-1c-.13-.32-.6-.21-.8,0-.63.69-1.37,1.4-.24,2.58C55.65,157.93,56.56,157.34,56.15,156.26Zm2.18,4c1.72,2.21,1.75,2.2,3-.4C60.1,160.29,59.37,161.08,58.33,160.24Z" fill="#1c2d28"/>
        <path d="M103.48,176.83c0-.05.06-.1,0-.13s-.08-.1-.12-.15c2.55-.79,2.56-.8,1-3.3A2,2,0,0,1,104,172c.12-2,1.56-4.42-1.6-5.51-.25-.09-.33-.69-.47-1.06-.27-.7-.35-1.89-1.41-1.41-.89.41-.73,1.33-.19,2.27.72,1.24,1.51,2.59,1.08,4.14-.12.43,0,1.31-.88,1.18-.71-.11-.3-.79-.43-1.2-.3-.93-.13-2.19-1.67-2.21a.53.53,0,0,1-.53-.65,11.22,11.22,0,0,0-.87-7.32c-.28-.58,0-1.42.93-.94.52.25.81,1.14,1.56.48s.07-1.22-.19-1.87c-1.07-2.67,0-4,2.76-3.45a25.74,25.74,0,0,1,3.62,1.23v.05c-.55,1.42.62,2.45.83,3.69,0,.28.59.5,0,.93-1.75,1.3-1.53,2.58.46,3.37a13.61,13.61,0,0,1,1.71.85c.58.32,1.17.76.94,1.5a1.26,1.26,0,0,1-1.54.85c-1-.2-1.4.23-1.26,1.14a1.64,1.64,0,0,1-.77,1.61,1.06,1.06,0,0,0,0,1.82c.93.83,1.59,2.1,3.21,1.31a1,1,0,0,1,1.35.66.57.57,0,0,1-.37.77c-1.86.31-1.8,2-2.42,3.2-.29.57-.26,2-1.32,1.52-1.21-.48-2.49-.58-3.66-1.06-.65-.26-1.59-.77-1.23-1.52.51-1.07,1.16.14,1.77.21Zm.94-15.93c.25-1-1.64-1-1.71-2.15,0-.21-.58-.17-.75.18-.47,1,.16,1.47.92,1.94C103.39,161.1,104.21,161.8,104.42,160.9Z" fill="#fefefe"/>
        <path d="M100.65,40.8c.47-.82,1.19-1.54,1-2.62-.1-.6,0-1.22.77-1.23s1,.34,1.06,1q.36,3.22.85,6.44a8.49,8.49,0,0,0,.56,1.55c.28.78.61,1.71,1.6,1.38s.83-1.25.61-2.07c-.13-.46-.46-1.12-.28-1.35,2.37-3.05-.46-5.17-1.62-7.25-.77-1.38-2.82-2.18-3.63-3.88-.84.6-.48,1.11-.53,1.55s-.13.84-.61.91-.8-.27-.94-.81c-.26-1.08-.06-2.93-2-.83-.53.58-2.47-.13-3.79-.25-.07.86,1,1.29.63,2.24a.75.75,0,0,0,.79,1c3.52-.77,4.17,2.18,5.54,4.2Z" fill="#fefefe"/>
        <path d="M78.81,99.92c-2.47.9-2.45,3.52-3.72,5.16A14.67,14.67,0,0,0,73,109.2c-.68,1.82.18,4.87,1.76,5.85.62.39,1.22,1,2.06,0,1.1-1.23.89-3.65,3.29-3.69a3,3,0,0,0-1-2.56c-1.84-1.35-1.79-2.7-.29-4.34,2.32-2.55,2.27-3.2,0-4.54Z" fill="#1c2d28"/>
        <path d="M107.32,154.15c-.48-.27-.73-.65-.37-1.15a3.39,3.39,0,0,1,.86-.83c1.14-.8,1.89-1.79,1.42-3.24s-1.93.23-2.68-.73c0-.08-.08-.27,0-.37.5-.76,2.24-.6,1.86-1.8-.3-.95-1.68-.3-2.56-.54a4.31,4.31,0,0,0-4.12,1.12c-.54.49-1.41,1.75-.81,1.95,2.29.74,1.09,2.62,1.47,3.89.28.91.81.83,1.31,1.05.87.38,1.76.69,2.65,1Z" fill="#fefefe"/>
        <path d="M44.12,193.75c.14,1.88,1.05,2.37,2.7,1.63.29-.13.68-.34.91-.23,2.54,1.15,3.88-.44,5.32-2.13.65-.77,1.63-1.64,1-2.39a4.61,4.61,0,0,0-3.18-1.44,5.2,5.2,0,0,1-2.48-.16c-.14-.06-.41-.16-.45-.11-1.37,1.79-3.39,1.28-5.29,1.62.77.48,1.56.92,2.3,1.44s2,.81,1.46,1.86S45.06,193.37,44.12,193.75Z" fill="#fefefe"/>
        <path d="M50.49,107.66c4-1.59,5.73-4.11,5.46-7.91-.05-.64-.19-1.07-.77-1.32-1.39-.61-3,1-4.4-.44-.1-.1-.57,1-.53,1.62C50.39,102.3,50,105,50.49,107.66Z" fill="#1c2d28"/>
        <path d="M53.51,9.21C51,7.57,48.08,7.45,45.28,6.87c-.18.81.07,1.14,1,1.06.48,0,1,.27.84.86s-.67.45-1.16.31A4.17,4.17,0,0,0,40.75,11v0c1.3,1.07,2.79,1.7,4.4,1,2.63-1.12,5.24.93,8-.26C52.11,10.81,52.27,9.9,53.51,9.21Z" fill="#fefefe"/>
        <path d="M64.26,192.05c1.4-2.28,3.79-1.18,5.82-1.67-.66-.94-.75-2.19-2.67-1.31-.63.29-2.7-.56-4.08-1h0c-.32.41-.56.58-1.16.23-2.24-1.28-4.33-.44-5,2-.16.59-2.34,1.1-.22,1.92.36.13,1.37.92.78-.6-.08-.21,2.22-1,2.65-.47,1.18,1.48,2.57.72,3.87.9Z" fill="#fefefe"/>
        <path d="M51.4,96.22c1.28.83,2.68-.1,3.57-1.3,1.92-2.63.44-5.32.56-8,0-.31-.18-.7-.05-.93s.54-.46.83-.68c-.1-.09-.19-.24-.31-.28-.44-.18-.94-.51-1.34-.42-.69.14-.63.83-.56,1.39.26,2-1.09,3.44-1.71,5.13-.41,1.13-.91,2.22-1.31,3.34A1.59,1.59,0,0,0,51.4,96.22Z" fill="#1c2d28"/>
        <path d="M158.05,1.41a1.47,1.47,0,0,0,.29,1.85,6.79,6.79,0,0,1,1.32,4.23,6.54,6.54,0,0,0,1.4,3.6c.34.52.7,1.2,1.5.77a1.42,1.42,0,0,0,.66-2c-1.33-2.6-2-5.49-3.66-7.95C159.18,1.29,158.79.48,158.05,1.41Z" fill="#1c2d28"/>
        <path d="M39.93,179.69c-.49,1.39-1.58.62-2.42.63-.65,0-1.36-.19-1.42.75-.06.73.44,1,1.1,1.29a7.53,7.53,0,0,0,6.37.39c.58-.24,1.83.69,1.7-.7a1.75,1.75,0,0,0-2.3-1.47,2.55,2.55,0,0,1-2.92-.91Z" fill="#fefefe"/>
        <path d="M115.15,144.54a3.94,3.94,0,0,0,2.94.77c1-.11,2.14-.71,2-1.94s-1.36-1.43-2.44-1.31c-.78.08-1.53.38-2.3.53-.61.12-1.48,0-1.54.75S114.61,144.23,115.15,144.54Z" fill="#1c2d28"/>
        <path d="M111.43,57.72a15.52,15.52,0,0,0,3.6,1.57c.7.16,1.21.37,1.58-.38s0-1.36-.68-1.79a6.43,6.43,0,0,0-2.72-.78c-.39-.05-.79,0-1.18,0-.93-.09-1.87-1.87-2.56-.63C108.92,56.67,110.91,56.78,111.43,57.72Z" fill="#fefefe"/>
        <path d="M111.17,194.56c0,1.08-.09,1.89-1.06,2.3-1.68.71-1,2.3-1.13,3.55,0,.41.77.63.72.42-.46-2.21,1.82-2,2.67-2.61,1.46-1.09.93-1.5.08-2.32C112.07,195.54,111.72,195.14,111.17,194.56Z" fill="#fefefe"/>
        <path d="M107.32,154.15l-1,.38-.6,1.11v.05c1.18.54,2.68.72,2.65,2.54,0,.51.39.65.83.56a.64.64,0,0,0,.48-.91C109.1,156.52,109.07,154.78,107.32,154.15Z" fill="#1c2d28"/>
        <path d="M120.4,30.55a18.66,18.66,0,0,0,9.72.48C126.94,29.8,123.64,30.61,120.4,30.55Z" fill="#1c2d28"/>
        <path d="M55.85,23.86c1.91-1.11,4.14-.84,3.89-2.92-.16-1.37-2.07-1.59-3-1.18C54.74,20.62,57.29,22.18,55.85,23.86Z" fill="#fefefe"/>
        <path d="M149.59,58.08c-1.07-.47-2-.54-2.66.35A10.83,10.83,0,0,1,143,61.92c-.3.15-.55.38-.37.74s.57.47,1,.4A3.19,3.19,0,0,0,146,61.65,9,9,0,0,1,149.59,58.08Z" fill="#fefefe"/>
        <path d="M52.11,108.45A3.24,3.24,0,0,0,52.6,112c.57.57,1.29-.16,1.35-.77.11-1.25,1.89-2.41.52-3.62C53.66,106.9,52.73,107.78,52.11,108.45Z" fill="#1c2d28"/>
        <path d="M69.56,193.63a6.29,6.29,0,0,0-5.3-1.58h0c-.66,1.54.16,2.16,1.52,2.12a29.72,29.72,0,0,0,3.73-.56Z" fill="#fefefe"/>
        <path d="M69.55,193.6c.25.17.61.28.71.51.27.57.38,1.44,1.06,1.44s.91-1,1.24-1.55c.42-.74.62-1.47-.29-2.07s-1.28.26-1.78.65a6.66,6.66,0,0,0-.93,1Z" fill="#fefefe"/>
        <path d="M99.39,133.34c2,.14,3.52,1.37,5.27,2.32C103.89,132.55,102.37,131.87,99.39,133.34Z" fill="#1c2d28"/>
        <path d="M46.52,180.15c1.49.07,2.51-.85,3.66-1.47a1,1,0,0,0,.42-1.44c-.75-.94-.62.54-1.1.49C47.77,177.57,47.58,179.39,46.52,180.15Z" fill="#fefefe"/>
        <path d="M100.69,40.79c-.44.59.1,1.22-.07,1.84s-1,1.14-.24,1.64a1.81,1.81,0,0,0,2-.36c.74-.66-.07-1.33-.34-1.88s-.91-.83-1.39-1.23Z" fill="#fefefe"/>
        <path d="M63.6,117.86c1.81,0,2.81-.16,2.78-1.73,0-.58,0-1.4-.65-1.32C64.17,115,64.74,116.73,63.6,117.86Z" fill="#1c2d28"/>
        <path d="M60.91,174.89c-1.56,1.23-1.5,2.81-2.57,3.69a.56.56,0,0,0,.19,1c.43.15.74-.14.89-.56C59.84,177.8,60.28,176.62,60.91,174.89Z" fill="#1c2d28"/>
        <path d="M79,194.91c.54-2.36,1.69-.93,3-.22-.59-1.19-1-2-2.12-2.21a1.45,1.45,0,0,0-1.54.89c-.5.83.18,1.13.66,1.53Z" fill="#fefefe"/>
        <path d="M119.6,129.43c-1-.36-1.42.5-2,.95s-.25,1,.28,1c.69.05,1.56.91,2.09-.18A1.59,1.59,0,0,0,119.6,129.43Z" fill="#fefefe"/>
        <path d="M57.87,79.37c1.46-1.72-.19-2.6-.71-3.71a.84.84,0,0,0-.62.11c-.33.3-.39.85,0,1C57.47,77.34,57.38,78.43,57.87,79.37Z" fill="#1c2d28"/>
        <path d="M86.11,170.14A6.42,6.42,0,0,1,88,167.4C86,166.91,86,166.91,86.11,170.14Z" fill="#1c2d28"/>
        <path d="M87.12,189.14a.92.92,0,0,0-.07-1c-.41-.13-.61-.8-1.21-.49,1.15.85-1,1.89.06,2.58S86.33,189.09,87.12,189.14Z" fill="#1c2d28"/>
        <path d="M62.45,122.66c-.92-.34-1.47.19-1.89,1-.28.51-.55,1.17.14,1.45,1.1.44,1.39-.83,2.09-1.26C63.31,123.47,63,123,62.45,122.66Z" fill="#1c2d28"/>
        <path d="M80.83,105.75c0,1,.81,1.43,1.21,2.14a.52.52,0,0,0,.95-.06c.51-1.12-.77-1.36-1.13-2.06A.6.6,0,0,0,80.83,105.75Z" fill="#1c2d28"/>
        <path d="M37.85,104.29l1.73-2.21C38,102.13,37.64,103,37.85,104.29Z" fill="#1c2d28"/>
        <path d="M49.69,152a1.06,1.06,0,0,0-1.22.81c0,.07.31.4.41.37A1.08,1.08,0,0,0,49.69,152Z" fill="#1c2d28"/>
        <path d="M63.33,188.07c.11-.29.33-.58,0-.85a.41.41,0,0,0-.37.08c-.16.39.16.55.39.76Z" fill="#fefefe"/>
        <path d="M66.76,155c-.16.33-.43.7,0,1a.6.6,0,0,0,.55-.17c.27-.47-.14-.65-.46-.85Z" fill="#1c2d28"/>
        <path d="M40.75,11l-.3.06s.1.06.13.05a.7.7,0,0,0,.16-.14Z" fill="#fefefe"/>
        <path d="M60.51,138.59h-.17l.16,0Z" fill="#1c2d28"/>
        <path d="M18.13,149.08c-1.39,2.4-1,3.67,1.35,5.12,1.7,1,3,.09,4.15-.8s.43.32.6.42c2.4,1.43,2.16,2.27-.55,3a11.27,11.27,0,0,0-2.42.76c-.24.13-.72.44-.75,0-.12-1.54-2.8-.42-2.45-2.46.05-.26-.77-.2-.94.18-.41.92-1.34,1.05-2.07,1.48a8.1,8.1,0,0,0-4,5.44c-.51,3.17-1.71,6.07-2.51,9.12-.17.63-.26,1.74.45,1.42,2.16-1,2.83.75,3.92,1.73,1.88,1.71,1.15,5.58-1.14,6.57,0-1,1.58-1.83.7-2.74A8.1,8.1,0,0,0,8.71,176c-2.19-.48-1.71,2.63-3.46,3.14-.5.14-.57.93-.38,1.51s.5.5,1,.44c.62-.06.94.38.58.84s-.89.4-1.35.58c-.56-2.26-2.1-.53-2.61-.29-.91.44-2,.29-2.18-.07-1.15-2.16-2.58-1.28-4-.54-2.85,1.49-4.06-1.67-6.22-2.13-.33-.07-.74-.2-.68-.53.28-1.48-.28-3.34,1.82-4a1.27,1.27,0,0,0,.85-1.9,1.74,1.74,0,0,0-1.85-1.24,9.22,9.22,0,0,0-2.08.4c-.66.22-1,0-.8-.6.6-1.45,0-1.8-1.33-1.91A1.28,1.28,0,0,1-15,168a3,3,0,0,0,2.83.29c2.83-1.29,5.71.19,8.61-.23,1.37-.19,2.64-.16,3.28-1.25a3.9,3.9,0,0,1,3.27-2c2.51-.35,4.6-1.18,5.88-3.84.89-1.87,2.44-3.34,2.94-5.57s2.8-3,4.08-4.72c1-1.33,1.46-3.14,3.3-4.13A4.25,4.25,0,0,1,18.13,149.08ZM-.78,172.34c-.7,1.7.22,3.18,1.5,4.43,1.94-1-.11-4.5,3.17-4.82C2.23,172.54.29,169.73-.78,172.34Z" fill="#9bb0aa"/>
        <path d="M4.25,35.63c.1-.78.32-1.42,1.11-1.68a.69.69,0,0,1,.94.49c.85,2.76,3.15,4.85,3.59,7.8.15,1,.3,2.51,1.23,2.58,2.11.15,1.67,1.66,2,2.82.34,1.4-.6,2.67-.56,4,.06,1.88-1.29,2-2.3,1.8s-1.3-1.38-1-2.5c.29-.91.74-1.9,0-2.72-1.6-1.69-2.43-3.9-3.9-5.66-.41-.5-.6-1.61-1.55-.94-.79.55-.24,1.32.15,1.91,1,1.43,1.57,2.87.63,4.85-1-1.46-2-1.77-3.24-.51a1.39,1.39,0,0,1-1.94-.27C-1,47-1.75,46.26-1.34,45.5S-.17,44.41.31,43.79c.69-.89,2.51-2.18-.54-2.2a.87.87,0,0,1-.87-1c0-1.39-.55-3.37,1.33-3.61,1.63-.2,1.51,1.66,1.59,3.35C3.7,39,4,37.35,4.25,35.63Zm7.11,16.52a.74.74,0,0,0-.28-1c-.33-.21-.62-.15-.71.23a1,1,0,0,0,.25,1.08C11,52.68,11.23,52.42,11.36,52.15Z" fill="#9bb0aa"/>
        <path d="M14.08,9.35c-.65-2.45,2.23-3.65,2.67-6,.19-1,.18-1.47-.81-1.8a4.45,4.45,0,0,1-2.13-1c-.89-1.22-1.74-1-2.6-.23A2.23,2.23,0,0,0,11,3.33c.42.65.84,1.33,1.31,2s.62.94-.37,1.23c-.6.18-.69,3.74-.13,4.08C12.92,11.25,13.37,10.33,14.08,9.35Z" fill="#9bb0aa"/>
        <path d="M13.25,26.88a2,2,0,0,0,1.83.3,1.48,1.48,0,0,0,.54-1.72c-.7-1.95.07-2.85,1.91-3.29a1.18,1.18,0,0,0,.91-1.49c-.28-.87-.43-1.93-1.6-2.21-.79-.19-1.16.29-1.54.85-.89,1.3-1.57,2.66-3.19,3.44C10.73,23.43,11.46,25.78,13.25,26.88Z" fill="#9bb0aa"/>
        <path d="M20.32,61.06c1.63-2.57,1.08-6.88-.94-8.56-.27-.23-.46-.43-.75-.19s-.33.66-.43,1c-.36,1.44.7,2.52.9,3.82A26.54,26.54,0,0,0,20.32,61.06Z" fill="#fefefe"/>
        <path d="M13.59,51.07c-.12,1.71-.23,3.36-.33,5,0,.06.11.18.15.17.3-.05.67,0,.87-.19,1.42-1.25,2.88-2.52,2-4.72-.34-.82-1.16-.77-1.86-.75C14.11,50.59,13.86,50.89,13.59,51.07Z" fill="#9bb0aa"/>
        <path d="M54.8,142.42c-.72-.81-1.48-.94-1.87-1.73-1-1.92-2.06-2-3.43-.41-.21.25-.39.8-.14.77,1.64-.22.14,2.84,2,2A7,7,0,0,1,54.8,142.42Z" fill="#9bb0aa"/>
        <path d="M5.1,157.6a34.6,34.6,0,0,0,7-5.18C10.44,151.5,7.88,153.35,5.1,157.6Z" fill="#9bb0aa"/>
        <path d="M35.55,167.73c-.33.62-1.26,1.37-.86,2.18s1.62.73,2.38.55,2.46-.68.64-2c-.57-.41-.41-.82.08-1.1.79-.43,1.1-1.28.56-1.74-.74-.63-1.42.13-1.9.79C36.17,166.82,35.91,167.21,35.55,167.73Z" fill="#9bb0aa"/>
        <path d="M21.3,138c-1.5,1.07-.68,2.73-1.17,4a1.75,1.75,0,0,0,.45,2.19c.5.34.91-.16,1.22-.49.63-.64,1.22-1.36.58-2.31A9.58,9.58,0,0,1,21.3,138Z" fill="#9bb0aa"/>
        <path d="M22.12,45.25c1.39-1.19,1.26-2.78,1.77-4.17a.81.81,0,0,0-.76-1,1.14,1.14,0,0,0-.77.77C22.22,42.31,22.19,43.78,22.12,45.25Z" fill="#9bb0aa"/>
        <path d="M17.93,30.11c.11-1.27.22-2.36.28-3.46a.83.83,0,0,0-.79-1c-.48,0-.72.32-.77.73C16.48,27.79,15.1,29.57,17.93,30.11Z" fill="#9bb0aa"/>
        <path d="M22.83,147.73c.72-1,2.79-.73,2.52-2.58-.07-.45.23-1-.41-1.15s-.82.46-1,.88C23.53,145.81,23.2,146.78,22.83,147.73Z" fill="#9bb0aa"/>
        <path d="M17.64,158.61a1.25,1.25,0,0,0,.59,1.18c.44.3.66-.16.86-.47.34-.55.05-.88-.46-1A.76.76,0,0,0,17.64,158.61Z" fill="#9bb0aa"/>
        <path d="M46.5,164a1.08,1.08,0,0,0-.42,1,.31.31,0,0,0,.22,0c.45-.29.29-.67.15-1Z" fill="#9bb0aa"/>
        <path d="M8,177s.07.08.11.07a.73.73,0,0,0,.2,0c-.05,0-.1-.12-.14-.12S8.07,177,8,177Z" fill="#9bb0aa"/>
        <path d="M46.73,163.58l-.55-.09c.1.16.21.31.32.47h0l.27-.44Z" fill="#9bb0aa"/>
        <path d="M46.38,79.86H46c.19.42.27.11.37-.06Z" fill="#9bb0aa"/>
        <path d="M68.3,99.39c-.83.63,2.23,2.19-.83,1.81-.35,0-.63.12-.44.55s.3.82.77.81c1,0,2.26,0,2.36-1.16S69.68,99.18,68.3,99.39Z" fill="#9bb0aa"/>
        <path d="M62,13.76c.73,2.44,3.54,1.88,4,3.91.48-.11,1-.33,1-.83.08-.8-.05-1.64-1-1.94C64.88,14.52,63.67,14.22,62,13.76Z" fill="#9bb0aa"/>
        <path d="M94,195c1.19.12,2.52-1.42,2.82-.44a5.38,5.38,0,0,1,.14,3.34c-.48,1.26-1.7.44-2.56.68-.65.19-2-.81-2.06.08,0,2.1-2.15,3.5-1.61,5.64.21.84.54.06.81,0,.77-.16,1.18.26.92.9-.47,1.15,0,1.58,1,1.91a2.09,2.09,0,0,0,2.44-.8c1-1,1.51-2.52,3.11-2.79.9-.16.19-.39.09-.68-.45-1.22-.85-2.46-1.23-3.7a.88.88,0,0,1,.07-.68c1.76-2.65,1.73-2.64.91-5.76-.44-1.7.94-2.59,2-3.16s.88-1,.38-1.58a4.52,4.52,0,0,1-1.09-2.1c-.15-.94-.54-1.69-1.68-1.69-.51,0-1.25.16-1.06.61.41,1-.94,2.2.35,3.1.53.37,1.4.47,1.44,1.57A4,4,0,0,1,96.57,188c-.36-.37-.74-.78-1.16-.29s0,.82.5,1a1.13,1.13,0,0,1,.21,2.17C94.14,191.75,94.68,193.56,94,195Z" fill="#9bb0aa"/>
        <path d="M62.58,153.53l.9.06c0-1.66.36-3.38-.31-5-.15-.35-.49-1.14-1.2-1s-.59.92-.68,1.41c-.34,1.73-.57,3.47-.83,5.21-.13.84-.07,1.8,1,1.87,1.34.1.24-1.1.64-1.59a6.23,6.23,0,0,0,.57-1l-.37-.74.35-.07Z" fill="#9bb0aa"/>
        <path d="M67,134.08a3.39,3.39,0,0,0,1.43-3.22c-.23-2,.63-3.86,1.11-5.76.14-.56.48-1.14-.22-1.43s-1.13.33-1.24.82C67.38,127.54,65.51,130.46,67,134.08Z" fill="#9bb0aa"/>
        <path d="M62.25,158.65c-.84-.61-1.38-1.78-2.44-1.39s-.5,1.76.64,1.6C61,158.78,61.47,159.41,62.25,158.65Z" fill="#9bb0aa"/>
        <path d="M55.11,158.85c.54-.92,1.45-1.51,1-2.59-.13-.32-.6-.21-.8,0C54.72,157,54,157.67,55.11,158.85Z" fill="#9bb0aa"/>
        <path d="M61.29,159.84c-1.19.45-1.92,1.24-3,.4C60.05,162.45,60.08,162.44,61.29,159.84Z" fill="#9bb0aa"/>
        <path d="M102.88,160.87c.51.23,1.33.93,1.54,0s-1.64-1-1.71-2.15c0-.21-.58-.17-.75.18C101.49,159.91,102.12,160.4,102.88,160.87Z" fill="#9bb0aa"/>
        <path d="M103.44,176.54l0,.29c0-.05.06-.1,0-.13s-.08-.1-.12-.15Z" fill="#9bb0aa"/>
        <path d="M3.89,172c-1.66.59-3.6-2.22-4.67.39-.7,1.7.22,3.18,1.5,4.43C2.66,175.77.61,172.27,3.89,172Z" fill="#fefefe"/>
        <path d="M10.62,52.44c.38.24.61,0,.74-.29a.74.74,0,0,0-.28-1c-.33-.21-.62-.15-.71.23A1,1,0,0,0,10.62,52.44Z" fill="#1c2d28"/>
        <path d="M62.58,153.53l0-.82-.35.07.37.74Z" fill="#1c2d28"/>
      </g>
    </g>
  </g>
  <g clip-path="url(#clip-path-3)">
    <g>
      <path d="M1270.37-37.7s-19.12-62.56-19.64-66.21-3-4.41-4.69-4.86a17.78,17.78,0,0,0-5.33,0s-38,9.59-42.43,10.87-5.11,7.78-5.11,7.78l7.46,27.6-1,.37,3.81,14.23h1.39s15.13,59.37,16.52,65a5.92,5.92,0,0,0,6.5,4.91s41.78-10.45,46.79-12.16,7-3.83,7.46-6.92S1270.37-37.7,1270.37-37.7ZM1276.09,4s-43.38,11.31-47.75,12.38a5,5,0,0,1-6-2.78s-24.73-97.1-25.79-100.93-2.25-6.55.23-7.38c10.34-3.47,42.62-11.7,46.13-12.55s5.55,2.66,5.55,2.66S1276.2-11.68,1278-5.28,1276.09,4,1276.09,4Z" fill="#fff"/>
      <circle cx="1232.54" cy="1.21" r="6.91" fill="#fff"/>
    </g>
  </g>
  <g clip-path="url(#clip-path-4)">
    <g>
      <path d="M149.81,150.94l.82.36c2,.84,6.88,2.89,9.73,3.28,3.6.49,5.46-.9,10,1.87s14.7,8.62,16.67,11.08,7.22,9,8.69,11.32,3.12,8.69,3.12,8.69H46.56L40.51,165l64.92-40.38,43.12,18.69" fill="#ab8c77"/>
      <path d="M33.28,138.67c-3,1.81-.49,2.46-2.79,3.77s-7.21-.16-7.21-.16-1.64-3.67-4.92.71-3.94,6-5.9,6.34-2.3-1.64-6.73-1.15-3.77,0-6.88,2-1.15.82-6.56,4.43-7.38,4.43-9.35,5.9-.49,1.8-3.93,4.59-13,9-15.25,10.33-7.71,4.1-10.17,6.23a35.22,35.22,0,0,0-3.93,3.94H50.43l16.79-19.84L45.91,136.38Z" fill="#be6442"/>
      <path d="M97.65,45.81c-12.43-1.81-16.48-.83-21.6,0S56,52.46,53.14,59.69s-6.41,23.38-5.29,28.73S57,157.71,57,157.71l64.52-30,2.82-45.84L105.14,48.23Z" fill="#cca07d"/>
      <path d="M97.65,45.81c5,0,1.94-4.16,10.28,0s11.38,4.45,15.55,10.28,7.5,1.11,8.33,7.5.84,4.44,1.67,10.83.83-1.39.83,8.06-2.5,6.11,0,9.44,3.89,2.78,5,7.23,4.17,4.72,5.84,9.16-3.61,3.89,0,7.78a28.6,28.6,0,0,1,5.27,8.33s-6.66.28-3.88,3.89,6.11,7.5,6.11,7.5,3,4.45,3.61,6.11,3.05,2.78-1.11,5-4.17-1.39-4.17,2.22-6.67,1.67-9.17,0-1.11.57-2.5,2.05,1.54,4-6.77-1.9-9.34-10-11.7-6.76-4.86,4-3.19,8.66,1.94,3.51,3.61,6.57,6.94,4.44,1.67,8.05-6.12,4.72-7.78,5-7.5-7.22-8.34-7.78-4-.4-2.41,5.36,4,5.49.47,8.53-8.06,3.61-5.56,6.39,5,.56.84,4.44-7.5-1.11-10,3.89a28.4,28.4,0,0,0-2.78,7c-.55,1.66,0,7.78-2.5,0s1.39-7.78-2.5-7.78-4.41,1.27-7.48-2-4.46-3.55-3.35-8a30.07,30.07,0,0,0,1.11-6.11l-3.46.93s-.43-1.76-1.54,2.12-.56,2.5-1.67,5.84-2.22,2.78-3.33,5a9.6,9.6,0,0,0-1.11,3.89s-1.85,2-3.34.83-.5-1.09-2.33-4-2.11-3.2-4-3.48-3.34,1.11-2.78-3.33,3.61-5.84,2.78-6.67.26,1-.84-1.94a8.13,8.13,0,0,1,0-5.56l-2.58-3-1.95-7.27c-.47-1.77-2.13,2.19-2.13-2.53s2.5-5.27,0-5.83-2.78,2.22-3.62-.83,1.95-3.06.28-5.56a11.94,11.94,0,0,0-4.44-4.17,8.58,8.58,0,0,0-3.22-1.32c-1.82-.49-4.52,1.87-3.17-.49s4.17-2.91,3.33-4.85-1.67-1.28-2.5-1.95,2.78-5.49,2.78-7.33-1.75-1.43,0-4.89,4.83-2,3.89-5S34.87,108,36,103.87s3.53-4,4.6-7.94,3.64-1.74,3.18-6,1.39-10.28,1.39-14.45.55-8.88,2.5-11.38,5.83-5.56,6.67-.56-5.28,25.28-5,28.89,3,12.22,3.61,13.61-2.23,6.94,1.39,4.44S56,105,62.65,106.64,71.54,108,75.15,110s-.28,3.61,4.44,2.5,3.34-1.11,5.84-1.11,4.21,5.83,8.22,3,5.66-.55,6.5-5.55-5-5.89,4.16-8.34c3.69-1,4.94-1.44,3-3.39A10.71,10.71,0,0,1,104,90.53c-.56-3-1.67-2.77-.28-7.5a53,53,0,0,1,3-8s3.92,1.31.31-1.19-5-.75-3.61-4.17,5-6.39,5-7.22,1.39-3.89.56-5.83-.72-1.92-3.26-2.6-2.85-1.57-3.41-2.4.56,2.5-3.89-.84S97.65,45.81,97.65,45.81Z" fill="#b0a494"/>
      <path d="M79.12,86.65c3.71,0,6,2.5,4.3,3.75a9.68,9.68,0,0,1-6.5,1.25c-2.09-.28-7.1.09-6.26-3.48.33-1.39,1.85-1,3.59-1.52A13.22,13.22,0,0,1,79.12,86.65Z" fill="#fae1d7"/>
      <path d="M59.46,87a1.91,1.91,0,0,1,.35,2.72,7.14,7.14,0,0,1-4,1c-1.26-.14-3.77.27-3.77-1s.84-2,1.75-2.72S58.49,86.06,59.46,87Z" fill="#fae1d7"/>
      <path d="M83.17,82.63c-3.62-.19-6.41.26-8.29,0s-6.84,0-5.37.85,5.85,1,7.11,1,1.39-.07,4.67-.07,4.81,1.6,3.91,0a4.09,4.09,0,0,0-2.41-1.94" fill="#b0a494"/>
      <path d="M60.51,83.06a10.17,10.17,0,0,0-4.81.79c-1.47.68-1.61,1.34-2.72,1.32S49.84,85.9,51,86.4s3.1.85,4.31-.34,3.16-1.26,4.19-1.33S61.84,83.06,60.51,83.06Z" fill="#b0a494"/>
      <path d="M161.47,153.13c1.17,4.38-2.48,11.44-4.58,14.39s-2.93,8.54-6.37,11.65-7.71,7.22-11.48,10.5S109.2,192,109.2,192s22.26-12.13,26.13-16.72,11.91-11.48,12.4-14.92-.49-4,2-7.19S160.45,149.35,161.47,153.13Z" fill="#1c1210"/>
      <path d="M65.42,117.32c5.41.67,6.39.69,7.87,1.84s4.31,2.18,2.56,4-2.63,2.36-6.61,2.36-2.51-.17-5.95-.17H57.38s-4.79-1.47-2.56-3.93,2-3.12,4.39-3.28,3.35-1,4.87-1C64.24,117.19,65.42,117.32,65.42,117.32Z" fill="#cca07d"/>
      <g>
        <path d="M62.18,84.11a16.34,16.34,0,0,1-1.39,5.37c-.56,1.19-1.47,2.3-1.4,4s.42,2.17.07,3.49a40.17,40.17,0,0,1-1.74,4.6c-.63,1.54-2.09,2.65-.91,4.68s2.51,3.13,3.84,2.65S62,108.31,63,108s.91-.63,2.37.14,4.42,2.88,5.25.88,1.86-2.62.75-3.88a7.05,7.05,0,0,0-3.21-1.74" fill="#cca07d"/>
        <path d="M62.18,84.11a11.38,11.38,0,0,1-.32,3A15.32,15.32,0,0,1,61,90a9,9,0,0,0-1,2.63,10.78,10.78,0,0,0,.23,2.8,4.75,4.75,0,0,1-.1,1.68c-.12.51-.28,1-.44,1.48-.34,1-.71,1.87-1.07,2.79a9.12,9.12,0,0,1-.66,1.43,10.59,10.59,0,0,0-.65,1.22,2.05,2.05,0,0,0,.37,2.12A5.8,5.8,0,0,0,59.34,108a1.23,1.23,0,0,0,.9.19,5.9,5.9,0,0,0,.6-.2l.68-.26,1.37-.53a4.3,4.3,0,0,1,.87-.29,2.11,2.11,0,0,1,1.05.18,30.26,30.26,0,0,1,2.65,1.48,7.54,7.54,0,0,0,1.24.56,1.52,1.52,0,0,0,1.06,0,.41.41,0,0,0,.17-.12.44.44,0,0,0,.15-.2c.1-.13.22-.44.34-.64.24-.45.51-.88.75-1.29a1.48,1.48,0,0,0,.29-1.15,2.74,2.74,0,0,0-.8-1.06,8.11,8.11,0,0,0-2.55-1.4,7,7,0,0,1,2.79,1.08A3.12,3.12,0,0,1,72,105.62a2,2,0,0,1-.17,1.68c-.21.47-.44.89-.63,1.33-.11.24-.13.4-.29.7a1.22,1.22,0,0,1-.27.41,1.28,1.28,0,0,1-.39.34,2.42,2.42,0,0,1-1.83.14,8.52,8.52,0,0,1-1.49-.57c-.93-.43-1.78-1-2.58-1.29-.46-.13-.3-.12-.91.14l-1.38.59-.7.28a7.06,7.06,0,0,1-.8.28,2.78,2.78,0,0,1-1.94-.34,7,7,0,0,1-2.25-2.4,4.53,4.53,0,0,1-.69-1.62,3.47,3.47,0,0,1,.23-1.85,14.81,14.81,0,0,1,.75-1.4,8,8,0,0,0,.61-1.24c.4-.91.79-1.81,1.14-2.7.18-.45.33-.9.46-1.34A3.64,3.64,0,0,0,59,95.49a10.49,10.49,0,0,1,0-3.08,9.74,9.74,0,0,1,1.33-2.79A16.34,16.34,0,0,0,62.18,84.11Z" fill="#c09175"/>
      </g>
      <path d="M79.12,86.65a7.23,7.23,0,0,1,.95.06,5.67,5.67,0,0,1,.17,1.38,5.4,5.4,0,0,1-1.37,3.64,12.36,12.36,0,0,1-2-.08A23.16,23.16,0,0,1,72.29,91a5.45,5.45,0,0,1-.83-2.92,6.15,6.15,0,0,1,.07-.88c.68-.25,1.66-.23,2.72-.56A13.22,13.22,0,0,1,79.12,86.65Z" fill="#2f1e17"/>
      <path d="M52,89.69c0-1.33.84-2,1.75-2.72s4.08-.86,5.39-.21a5.18,5.18,0,0,1,.07.89,5.49,5.49,0,0,1-.68,2.67,7.29,7.29,0,0,1-2.76.42C54.51,90.6,52,91,52,89.69Z" fill="#2f1e17"/>
    </g>
  </g>
  <polygon points="204.41 104.46 162.93 172.48 0 172.48 0 194.65 279.31 194.65 1344.29 194.65 1344.29 104.46 204.41 104.46" fill="#212026"/>
  <g>
    <path d="M216.34,143.93q4.92.15,6.27.15c1.22,0,2.59,0,4.12-.09s2.61-.08,3-.08a15.49,15.49,0,0,1,4.52.56,6,6,0,0,1,3,2.07,5.77,5.77,0,0,1,1.17,3.64,7.63,7.63,0,0,1-.82,3.4,8.21,8.21,0,0,1-2.29,2.79,9.58,9.58,0,0,1-3,1.65,9.9,9.9,0,0,1-3.12.5,14.4,14.4,0,0,1-2.7-.28l-.33-1.19.18-.19a11.29,11.29,0,0,0,2.38.33,5.29,5.29,0,0,0,4.11-1.69,6.13,6.13,0,0,0,1.55-4.33,5.66,5.66,0,0,0-1.61-4.24,6.71,6.71,0,0,0-4.87-1.58A13,13,0,0,0,224,146q-.16,1.5-.17,7.26v9.05l0,3.8a28,28,0,0,0,.11,2.86,1.83,1.83,0,0,0,.29.86,1.49,1.49,0,0,0,.71.36,16.39,16.39,0,0,0,2.6.22l.15.12v1l-.15.16c-3.32-.1-5.19-.16-5.61-.16s-2.3.06-5.58.16l-.16-.16v-1l.16-.12a22.12,22.12,0,0,0,2.42-.19,1.76,1.76,0,0,0,.81-.31,1.43,1.43,0,0,0,.33-.79,17.93,17.93,0,0,0,.15-2.69l0-4.12v-9.05l0-3.81a28.23,28.23,0,0,0-.11-2.87,1.87,1.87,0,0,0-.27-.86,1.45,1.45,0,0,0-.72-.35,16.71,16.71,0,0,0-2.59-.21l-.16-.14v-1Z" fill="#fff"/>
    <path d="M240.07,144.06l.15-.13c3.23.1,5.09.15,5.59.15s2.31-.05,5.6-.15l.16.13v1l-.16.14c-.89,0-1.59.06-2.08.11a2.54,2.54,0,0,0-1.06.3,1.38,1.38,0,0,0-.44,1,17.57,17.57,0,0,0-.11,2.2l0,4.49v8.64c0,2.16,0,3.67,0,4.53l.1,3.38h4q4.75,0,5.94-.12a8.12,8.12,0,0,0,2.28-.57,15.46,15.46,0,0,0,.61-2.24c.27-1.18.41-1.85.42-2l.18-.15h1l.13.15c-.1.53-.21,1.53-.32,3s-.17,2.71-.17,3.63l-.15.16c-2.48-.08-5.72-.12-9.75-.12l-5.7,0c-1.3,0-2.63.06-4,.16l-.15-.16v-.64l.15-.19a8.35,8.35,0,0,0,1.33-.77,12.49,12.49,0,0,0,.25-2.52c.08-1.59.12-3.5.12-5.74v-8.38l0-3.81c0-1.48,0-2.44-.1-2.87a1.74,1.74,0,0,0-.28-.86,1.41,1.41,0,0,0-.71-.35,16.9,16.9,0,0,0-2.6-.21l-.15-.14Z" fill="#fff"/>
    <path d="M264.64,171.68l-.18-.16v-1l.18-.16a8.56,8.56,0,0,0,1.83-.14,1.65,1.65,0,0,0,.74-.51,17.57,17.57,0,0,0,1.29-2.49l2.06-4.46,5.31-12q1.5-3.53,3-7.07h1.27l8.34,19.61,1.11,2.62c.32.74.7,1.55,1.12,2.42a7.7,7.7,0,0,0,.88,1.55,1.83,1.83,0,0,0,.61.36,6.64,6.64,0,0,0,1.61.14l.15.16v1l-.15.16c-1.38-.12-2.63-.17-3.73-.17l-6.49.17-.15-.16v-1l.15-.16a15.2,15.2,0,0,0,2.74-.18.65.65,0,0,0,.54-.68,3.39,3.39,0,0,0-.27-1.13l-2.4-6H272.88l-2.13,5a5.88,5.88,0,0,0-.57,2,.78.78,0,0,0,.53.72,8.76,8.76,0,0,0,2.66.25l.17.16v1l-.15.16c-1.68-.1-3.15-.16-4.42-.16C267.54,171.52,266.1,171.58,264.64,171.68Zm8.9-11h9.89L278.52,149Z" fill="#fff"/>
    <path d="M315.5,143.93l.17.17q-.17,1.76-.17,6.14l-.16.15h-.92l-.15-.17-.22-1.8a16.09,16.09,0,0,0-.24-1.77.88.88,0,0,0-.29-.47,3.36,3.36,0,0,0-1.27-.24c-.71-.07-1.51-.1-2.4-.1h-3.69c-.1,2.94-.16,4.64-.16,5.1v11.39l0,3.8c0,1.48,0,2.43.11,2.87a1.82,1.82,0,0,0,.27.86,1.71,1.71,0,0,0,.72.35,16.43,16.43,0,0,0,2.61.22l.14.12v1l-.14.16c-3.33-.1-5.19-.16-5.58-.16s-2.27.06-5.57.16l-.15-.16v-1l.15-.12a21.67,21.67,0,0,0,2.43-.19,1.66,1.66,0,0,0,.8-.31,1.49,1.49,0,0,0,.35-.79,16.27,16.27,0,0,0,.13-2.69l0-4.12V150.94q0-.31-.15-5.1h-2.91c-1.2,0-2.24,0-3.11.08s-1.38.18-1.51.4a6.64,6.64,0,0,0-.38,2.1l-.2,1.8-.18.17H293l-.16-.15c0-3.14-.08-5.19-.18-6.14l.18-.17q3.4.15,11.31.15C309.55,144.08,313.32,144,315.5,143.93Z" fill="#fff"/>
    <path d="M317.37,158.07a17.27,17.27,0,0,1,.84-5.47,12.81,12.81,0,0,1,2.86-4.7,13.83,13.83,0,0,1,4.88-3.34,16.65,16.65,0,0,1,6.44-1.18q6.66,0,10.61,3.62t3.94,9.9a16.19,16.19,0,0,1-1.93,7.93,13.55,13.55,0,0,1-5.54,5.46,16.61,16.61,0,0,1-8.09,2,15.67,15.67,0,0,1-5.86-1.07A11.81,11.81,0,0,1,321,168a12.93,12.93,0,0,1-2.74-4.88A17.66,17.66,0,0,1,317.37,158.07Zm4.06-1.29a18.83,18.83,0,0,0,.78,5.13,13.49,13.49,0,0,0,2.3,4.7,9.77,9.77,0,0,0,3.54,2.92,11.22,11.22,0,0,0,9.95-.43,8.72,8.72,0,0,0,3.59-4.3,16.75,16.75,0,0,0,1.23-6.56,17.45,17.45,0,0,0-1.41-7.13,9.37,9.37,0,0,0-4-4.62,11.57,11.57,0,0,0-5.76-1.45,9.67,9.67,0,0,0-7.48,3C322.35,150,321.43,152.91,321.43,156.78Z" fill="#fff"/>
    <path d="M349.17,171.66l-.18-.17v-.9l.18-.16a12.78,12.78,0,0,0,1.9-.14,1.36,1.36,0,0,0,.92-.39,1.72,1.72,0,0,0,.27-.88c.05-.4.1-1.31.14-2.73s.07-2.43.07-3V147.46a2.45,2.45,0,0,0-.36-1.47,1.61,1.61,0,0,0-1-.61,13.43,13.43,0,0,0-2.13-.14l-.15-.16v-.92L349,144q2.7.09,3.54.09,2,0,3.24-.09l6.23,8.08,9.16,11.49c1.11,1.39,2.23,2.71,3.38,4V152.4c0-.47,0-1.46-.07-3s-.1-2.5-.16-2.91a1.34,1.34,0,0,0-.35-.83,1.8,1.8,0,0,0-.91-.33,13.66,13.66,0,0,0-1.83-.12l-.16-.16v-.9l.16-.17c1,.06,2.56.09,4.51.09,1.79,0,3.08,0,3.89-.09l.17.17v.9l-.15.16a13.27,13.27,0,0,0-2,.14,1.28,1.28,0,0,0-.88.42,2.26,2.26,0,0,0-.25.86c0,.38-.09,1.28-.13,2.7s-.07,2.44-.07,3.06v9.28l0,5.37c0,1.76.05,3.52.07,5.3a29.6,29.6,0,0,0-3.37-.83l-1.39-1.64-4.16-5.07-13.24-16.55v15c0,.6,0,1.67.07,3.21a26.35,26.35,0,0,0,.16,2.79,1.54,1.54,0,0,0,.26.67,1.39,1.39,0,0,0,.67.35,9.71,9.71,0,0,0,2.14.17l.15.16v.92l-.15.15a27.68,27.68,0,0,0-3.28-.14C352.33,171.52,350.63,171.57,349.17,171.66Z" fill="#fff"/>
    <path d="M382.27,143.93l2.45.07c1.6.06,2.64.08,3.14.08s2.31-.05,5.61-.15l.15.13v1l-.15.14c-.9,0-1.6.06-2.08.11a2.55,2.55,0,0,0-1.07.3,1.38,1.38,0,0,0-.44,1,17.57,17.57,0,0,0-.11,2.2l0,4.49v12.85c0,1.48.06,2.43.12,2.86a1.83,1.83,0,0,0,.29.86,1.49,1.49,0,0,0,.71.36,16.39,16.39,0,0,0,2.6.22l.15.12v1l-.15.16-3.44-.12-2.17,0c-.4,0-2.27.06-5.59.16l-.15-.16v-1l.15-.12a22.39,22.39,0,0,0,2.43-.19,1.76,1.76,0,0,0,.81-.31,1.59,1.59,0,0,0,.33-.79,19.48,19.48,0,0,0,.15-2.69V153.28l0-3.81c0-1.48-.05-2.44-.11-2.87a1.74,1.74,0,0,0-.28-.86,1.41,1.41,0,0,0-.71-.35,16.9,16.9,0,0,0-2.6-.21l-.15-.14v-1Z" fill="#fff"/>
    <path d="M421.84,168.22,421.1,170a20.13,20.13,0,0,1-9.26,2.21q-7.05,0-11.45-4a13.47,13.47,0,0,1-4.4-10.47,13.85,13.85,0,0,1,2.19-7.78,13.66,13.66,0,0,1,5.8-5,19.26,19.26,0,0,1,8.1-1.65,24.07,24.07,0,0,1,5.14.55,21.07,21.07,0,0,1,4.23,1.31l.14.19a24.85,24.85,0,0,0-.84,5.41l-.14.16h-.91l-.16-.16-.2-3.32a10.85,10.85,0,0,0-3.44-1.77,14.07,14.07,0,0,0-4.21-.63,12.3,12.3,0,0,0-5.92,1.41,9.93,9.93,0,0,0-4.06,4.11,13.63,13.63,0,0,0-1.45,6.57A13.49,13.49,0,0,0,402,164a11.64,11.64,0,0,0,4.64,4.54,14.34,14.34,0,0,0,6.87,1.58,16.6,16.6,0,0,0,3.34-.33,13.6,13.6,0,0,0,2.66-.82,12.39,12.39,0,0,0,2-1.2Z" fill="#fff"/>
    <path d="M446.4,171.88c-.2-.58-1-2.76-2.45-6.57l-6.64-16.42a24.4,24.4,0,0,0-1.42-3.2c-.2-.25-1-.42-2.35-.51l-.17-.18v-.9l.17-.17c2,.1,3.69.15,5.08.15s3-.05,5.18-.15l.15.15v1.08l-.15.15a14.07,14.07,0,0,0-2.82.15.56.56,0,0,0-.46.56,14.07,14.07,0,0,0,.62,2.08c.42,1.23.79,2.27,1.11,3.11l6.12,15.45,5.1-12.81c.35-.87.86-2.28,1.54-4.22a17.48,17.48,0,0,0,1-3.5.6.6,0,0,0-.47-.62,23.58,23.58,0,0,0-2.87-.33l-.17-.16v-.94l.17-.15c2.28.1,3.73.15,4.36.15s1.82-.05,3.95-.15l.15.15V145l-.15.16a5.82,5.82,0,0,0-1.7.21,1.34,1.34,0,0,0-.52.61c-.15.3-.62,1.33-1.4,3.08l-6.09,15q-2.05,5-2.91,7.8Z" fill="#fff"/>
    <path d="M458.9,171.68l-.18-.16v-1l.18-.16a8.56,8.56,0,0,0,1.83-.14,1.63,1.63,0,0,0,.73-.51,16.12,16.12,0,0,0,1.3-2.49l2.05-4.46,5.32-12q1.5-3.53,3-7.07h1.27l8.34,19.61,1.12,2.62c.32.74.7,1.55,1.12,2.42a7.7,7.7,0,0,0,.88,1.55,1.78,1.78,0,0,0,.6.36,6.81,6.81,0,0,0,1.62.14l.15.16v1l-.15.16c-1.38-.12-2.63-.17-3.74-.17l-6.48.17-.16-.16v-1l.16-.16a15,15,0,0,0,2.73-.18.65.65,0,0,0,.55-.68,3.39,3.39,0,0,0-.27-1.13l-2.4-6H467.14l-2.13,5a5.88,5.88,0,0,0-.57,2,.78.78,0,0,0,.53.72,8.76,8.76,0,0,0,2.66.25l.17.16v1l-.15.16c-1.68-.1-3.16-.16-4.42-.16C461.8,171.52,460.35,171.58,458.9,171.68Zm8.9-11h9.88L472.78,149Z" fill="#fff"/>
    <path d="M489.87,144.06l.16-.13q4.85.15,5.58.15t5.61-.15l.16.13v1l-.16.14c-.9,0-1.59.06-2.08.11a2.59,2.59,0,0,0-1.07.3,1.38,1.38,0,0,0-.43,1,15.83,15.83,0,0,0-.11,2.2l0,4.49v8.64c0,2.16,0,3.67,0,4.53l.1,3.38h4q4.77,0,5.95-.12a8.05,8.05,0,0,0,2.27-.57,15,15,0,0,0,.62-2.24c.26-1.18.41-1.85.42-2l.17-.15h1l.14.15a28.68,28.68,0,0,0-.32,3c-.12,1.5-.17,2.71-.17,3.63l-.16.16q-3.71-.12-9.74-.12l-5.71,0c-1.3,0-2.63.06-4,.16l-.16-.16v-.64l.16-.19a8.35,8.35,0,0,0,1.33-.77,12.12,12.12,0,0,0,.24-2.52c.09-1.59.13-3.5.13-5.74v-8.38l0-3.81a28.23,28.23,0,0,0-.11-2.87,1.87,1.87,0,0,0-.27-.86,1.46,1.46,0,0,0-.71-.35,17,17,0,0,0-2.6-.21l-.16-.14Z" fill="#fff"/>
    <path d="M514.17,144.06l.15-.13c3.23.1,5.1.15,5.59.15s2.31-.05,5.61-.15l.15.13v1l-.15.14c-.9,0-1.6.06-2.08.11a2.55,2.55,0,0,0-1.07.3,1.38,1.38,0,0,0-.44,1,17.57,17.57,0,0,0-.11,2.2l0,4.49v6.21c0,2,0,3.55.12,4.51a8.23,8.23,0,0,0,.55,2.42,4.58,4.58,0,0,0,1.28,1.7,6.72,6.72,0,0,0,2.46,1.16,13.46,13.46,0,0,0,3.63.45,13.07,13.07,0,0,0,4-.6,6.09,6.09,0,0,0,2.84-1.73,5.87,5.87,0,0,0,1.28-3,33.67,33.67,0,0,0,.3-5.12v-6c0-1,0-2.41,0-4.19A13.44,13.44,0,0,0,538,146a1.24,1.24,0,0,0-.69-.61,10.44,10.44,0,0,0-2.76-.24l-.16-.16v-.92l.16-.17c1.93.1,3.47.15,4.63.15,1,0,2.53-.05,4.61-.15l.17.15V145l-.17.16a17.72,17.72,0,0,0-2.39.14,1.58,1.58,0,0,0-.79.33,1.28,1.28,0,0,0-.33.66,18,18,0,0,0-.14,2.58l-.06,4.39v5.94a43.17,43.17,0,0,1-.28,5.61,7.3,7.3,0,0,1-1.22,3.36,9,9,0,0,1-2.24,2.21,10,10,0,0,1-3.33,1.37,18.32,18.32,0,0,1-4.22.48,17.25,17.25,0,0,1-4.84-.61,9.21,9.21,0,0,1-3.31-1.6,6.25,6.25,0,0,1-1.73-2.1,7.79,7.79,0,0,1-.69-2.6q-.15-1.49-.15-4.56v-7.5l0-3.81c0-1.48,0-2.44-.11-2.87a1.87,1.87,0,0,0-.27-.86,1.5,1.5,0,0,0-.72-.35,16.9,16.9,0,0,0-2.6-.21l-.15-.14Z" fill="#fff"/>
    <path d="M546.12,144.06l.16-.13q6.69.1,8.57.11c4.27,0,8.08,0,11.41-.11l.1.13a33.07,33.07,0,0,0-.73,5.88l-.11.16h-1l-.18-.16a1.72,1.72,0,0,0,0-.31,18.82,18.82,0,0,0-.25-3.16,10.45,10.45,0,0,0-3.41-.72c-1.45-.11-2.54-.16-3.27-.16-1,0-2.34.07-4,.21l-.07,3.13-.06,3.57-.06,4c1.41.07,2.7.11,3.89.11s2.2,0,3-.11a4.88,4.88,0,0,0,1.42-.25.79.79,0,0,0,.31-.49,7.06,7.06,0,0,0,.19-1.28l.08-1.21.15-.15h.9l.16.15c0,1.42-.06,2.85-.1,4.28l.1,4.4-.16.15h-.9l-.15-.15-.14-1.18a14.51,14.51,0,0,0-.26-1.63.86.86,0,0,0-.36-.46,3.89,3.89,0,0,0-1.45-.31c-.78-.08-1.86-.12-3.22-.12-.76,0-1.91,0-3.46.1-.07,1.1-.1,2.92-.1,5.47,0,2.73,0,4.75.1,6h3.59q4.76,0,5.94-.12a8,8,0,0,0,2.27-.57c.11-.3.31-1,.57-2.08s.42-1.77.46-2l.2-.14h.93l.16.14a26.28,26.28,0,0,0-.34,2.93c-.11,1.39-.17,2.59-.17,3.57l-.13.16q-3.73-.12-9.77-.12l-5.31,0c-1.24,0-2.53.06-3.87.16l-.16-.16v-.64l.16-.19a10.91,10.91,0,0,0,1.32-.74,15.19,15.19,0,0,0,.27-3.42c.07-2.18.11-3.84.11-5v-7.16l0-4.44c0-1,0-1.75,0-2.35a7.11,7.11,0,0,0-.14-1.3,1.55,1.55,0,0,0-.22-.55,1,1,0,0,0-.41-.26,5.08,5.08,0,0,0-1-.19l-1.48-.11-.16-.14Z" fill="#fff"/>
    <path d="M570.67,164.81l.16-.16h1l.15.16a18.38,18.38,0,0,0,.27,3.05,2.49,2.49,0,0,0,1,1.17,7.54,7.54,0,0,0,2.36,1,11.67,11.67,0,0,0,3,.39,8.74,8.74,0,0,0,3.72-.76,5.79,5.79,0,0,0,2.57-2.24,6.13,6.13,0,0,0,.92-3.31,5.33,5.33,0,0,0-.44-2.24,3.83,3.83,0,0,0-1.23-1.54,5.71,5.71,0,0,0-1.81-.86,29.87,29.87,0,0,0-3-.61q-2-.31-3.06-.57a10.53,10.53,0,0,1-2.2-.78,5.7,5.7,0,0,1-1.82-1.34,6.18,6.18,0,0,1-1.18-2,7.27,7.27,0,0,1-.44-2.53,7.8,7.8,0,0,1,2.54-6,9.73,9.73,0,0,1,6.82-2.33,18.09,18.09,0,0,1,3.7.42,14.71,14.71,0,0,1,3.64,1.24l.14.24a26.64,26.64,0,0,0-.53,5.11l-.17.16h-1l-.16-.14c0-1.56-.06-2.54-.11-3s-.65-.9-1.78-1.5A7.75,7.75,0,0,0,580,145a7.42,7.42,0,0,0-3.11.66,4.56,4.56,0,0,0-2.18,2.09,6.24,6.24,0,0,0-.75,2.91,4.51,4.51,0,0,0,.45,2,3.77,3.77,0,0,0,1.17,1.4,4.79,4.79,0,0,0,1.66.77c.63.17,1.78.38,3.46.63a20.43,20.43,0,0,1,5,1.18,5.53,5.53,0,0,1,2.52,2.2,6.68,6.68,0,0,1,1,3.63,8.59,8.59,0,0,1-3.39,6.93,12.55,12.55,0,0,1-8.21,2.78,16.26,16.26,0,0,1-7.09-1.45l-.12-.25A56.32,56.32,0,0,0,570.67,164.81Z" fill="#fff"/>
  </g>
  <g>
    <path d="M1238.79,168a1.73,1.73,0,0,1-1.61-.82c-5.69-6.16-11.35-12.34-17.09-18.46-1.09-1.17-1.27-2.11-.39-3.48,1.46-2.28,2.81-4.64,4.08-7a5.88,5.88,0,0,1,2.65-2.57q20.16-10.42,40.32-20.89c4.76-2.46,9.54-4.89,14.28-7.4a2.57,2.57,0,0,1,2.82.07q6.51,4.05,13,8a4.39,4.39,0,0,1,1.41,1.5c1.86,3,3.65,6,5.61,9,1,1.45.53,2.2-.78,3q-9.83,5.87-19.6,11.81-21.48,13.11-42.94,26.25C1240,167.38,1239.27,167.72,1238.79,168Z" fill="#fff"/>
    <path d="M1259.24,171.44a1.73,1.73,0,0,1-1.61-.82c-5.69-6.16-11.35-12.34-17.09-18.46a2.44,2.44,0,0,1-.39-3.48c1.46-2.28,2.81-4.64,4.08-7a5.88,5.88,0,0,1,2.65-2.57l40.32-20.88c4.76-2.47,9.54-4.9,14.28-7.41a2.57,2.57,0,0,1,2.82.07q6.51,4,13,8a4.39,4.39,0,0,1,1.41,1.5c1.86,3,3.65,6.06,5.61,9,1,1.45.53,2.2-.78,3q-9.82,5.87-19.6,11.81Q1282.5,157.3,1261,170.44C1260.4,170.83,1259.72,171.17,1259.24,171.44Z" fill="#fff"/>
    <path d="M1270.43,192.15a1.73,1.73,0,0,1-1.61-.82c-5.69-6.16-11.35-12.35-17.09-18.46-1.09-1.17-1.27-2.11-.39-3.48,1.46-2.28,2.81-4.64,4.08-7a5.83,5.83,0,0,1,2.65-2.57l40.32-20.89c4.76-2.46,9.54-4.89,14.28-7.4a2.57,2.57,0,0,1,2.82.07q6.51,4.05,13,8a4.39,4.39,0,0,1,1.41,1.5c1.86,3,3.65,6,5.61,9,1,1.45.53,2.2-.78,3q-9.82,5.88-19.6,11.82-21.48,13.11-42.94,26.25C1271.59,191.54,1270.91,191.88,1270.43,192.15Z" fill="#fff"/>
  </g>
</svg>
