<svg id="Layer_1" data-name="Layer 1" xmlns="http://www.w3.org/2000/svg" xmlns:xlink="http://www.w3.org/1999/xlink" viewBox="0 0 1344.29 194.65">
  <defs>
    <clipPath id="clip-path">
      <rect x="20.45" y="37.53" width="159.77" height="133.87" fill="none"/>
    </clipPath>
    <clipPath id="clip-path-2">
      <rect x="1195.18" y="100.36" width="149.11" height="94.29" fill="none"/>
    </clipPath>
  </defs>
  <title>banner-6c</title>
  <g clip-path="url(#clip-path)">
    <g>
      <path d="M126.5,142.2c.74-.19,10.95,1.71,14.71,4.52s22.85,17.22,26.61,21,8.92,10.17,8.92,10.17H26s8.2-11,10.28-11.27,2.71.78,6.15-1.72,13-5.27,13-5.27L106,140.15Z" fill="#8e5e33"/>
      <path d="M36.3,166.6c2.08-.31,2.71.78,6.15-1.72s13-5.27,13-5.27l7.38-2.84,2.46,1.88,2.26,18.57-1.23.65H49.72c.18-.33.41-.68.68-1.14a14.8,14.8,0,0,1,2.25-2.7c1-1,.57-2.2,1.12-3.31a11.35,11.35,0,0,0,1.35-5c-.12-1.6-.79-.68-1.35-.68s-1.65,2-3.25,5.15c-1.26,2.48-3.33,5.58-4.56,7.64h-5.5c.41-1.14,1.16-1.82,1.67-3.16s-.86.12-3,.49-2.2,1.65-3.49,2.67H26S34.22,166.91,36.3,166.6Z" fill="#543128"/>
      <path d="M67.35,168.49l23.44-4.12,3.46,1.11.41,1.52-.15.46a1.55,1.55,0,0,0,.15-.46,1.8,1.8,0,0,1-.08.92,6.45,6.45,0,0,1-.32.87,15.71,15.71,0,0,1-.87,1.62,25.64,25.64,0,0,1-4.7,5.53,15.66,15.66,0,0,1-1.44,1.14,4.79,4.79,0,0,1-1.66.79,3.61,3.61,0,0,0,.44-.33l-.44.33H64.15Z" fill="#72543d"/>
      <path d="M158,174.64a24.58,24.58,0,0,1-3.13-3.73c-1.47-2-2.21-1.84-4.72-3.91a27.46,27.46,0,0,1-5.15-5.23c-2.76-3.25-5.58-3.49-9.74-5.7s-5.71-3.55-9-5.39a39.92,39.92,0,0,0-8.64-3.86c-4-1.35-4.53-.8-4.16-1.35l-1.11-.57,2.41-3.88,11.78,1.18c.74-.19,10.95,1.71,14.71,4.52s22.85,17.22,26.61,21,8.92,10.17,8.92,10.17h-12.5s-1.05-.28-2.53-.53S159.08,175.75,158,174.64Z" fill="#543128"/>
      <path d="M113.62,144.9c-.44,1.64-6.63,14.52-9,16.15a87.5,87.5,0,0,1-9.52,5.76c-2.25,1-6,2.25-9.39,3.76A40.93,40.93,0,0,1,76.06,174c-4.88,1.12-10.39,1.75-11.27,3.63s-9.52,19.28-9.52,19.28S53,193.1,53,189.6s-.63-4.76-.25-8.27a9.54,9.54,0,0,1,2.75-5.63s-2.5-1.38,0-4.13,3.76-2.76,4.14-5-.63-1-2.51-2.25-2.5-2.51-2.25-3.64.37-.87,2-2,4.13-3,4.88-4.13a3.64,3.64,0,0,1,1.87-1.43,11.58,11.58,0,0,1,0-5.68,18.52,18.52,0,0,1,3-6l47.9-25.91Z" fill="#eddeda"/>
      <path d="M112.54,119.78c-.92,5.21-6.68,17.48-10.56,19.48s-15.4,7.27-19.91,8-15.65-1.51-16.9-2.38a25.94,25.94,0,0,1-6.52-9.77A8.74,8.74,0,0,0,53,129.75L47.51,95.19,61,54.62l51.51,3.51,10.1,54.21Z" fill="#e1b89d"/>
      <path d="M116.5,49.11A20.26,20.26,0,0,1,125,54.74c2.25,2.76,2,3.26,3.63,6.14s2.38,4.38,3.13,5.51,2.13,1.75,3.25,4.13,3,3.51,1.13,6.51c0,0-2.61,3.48-1.3,4.87s3.81-1.36,4.31,3.27.12,7.14-.38,8.64-.75,1,0,3.88,1.6,5.26.61,7.14-2.74,2.38-2.61,4.88,3.13,4.51.5,8.27-3.91,2-3.57,4,.69,2.88-.31,5-1.63.38-1.51,3.76,1.63,2.13.25,4.38-1.25,2.51-1.25,3.88-3.5,3.38-6.51,3.76.38-.13-4.13,1-4.38,1.13-6.64,1.13-3.13-3.13-2.63-5.76,1.88-2,.5-4.89-1.65-.12-.63-3.75,2-5.51,1.76-8.14.5-1.25-1-5.76-2.25-1.25-2.25-8.26a123.18,123.18,0,0,1,.62-14.9s-2-4.39-2-7.52a13.79,13.79,0,0,1,1.25-6.51c1-2.63,2.13-2.25,1.38-5.26s-.38-5-1.51-6.76.13-2.88-3-4.76-4.76-2.25-7.64-2.25S98,59,93,59.5s-4,.88-7.51,1.26-4.38,1.12-6.14.5A24.87,24.87,0,0,0,71.55,60c-3,0-4.76-.87-6.51.5a14.35,14.35,0,0,0-4,4.39c-.75,1.5-2.13,2.13-2.75,4.63s-1,3.13-1,5.13a13.66,13.66,0,0,1-1.13,6.51c-1.25,3-.88,6.89-1.63,8.64s-.75,2.63-1.12,5.26a35.33,35.33,0,0,0-.38,5.26,53.74,53.74,0,0,1,0,6.39c-.25,1.75.51,4.57,1.29,7.5s-.41,6.4.21,9,4.51,11.89,4.13,11.89-1.25,0-4-1.88-4-1.88-4-4.13-3.88-3-3.88-3c-1.15-4.29-2.88-5.76-3.76-7.39s-1.62-1.88-1.62-3.51a6.64,6.64,0,0,0-.31-2.77c-.38-1.4,2.57-.11,0-2.11s-3.2-2.38-3.83-4.26-1.37-1.63-.62-3.63a10.44,10.44,0,0,1,2-3.51c.38-.37,1,1.75,1.38-1.94s-.33-4.69,1-6,3.1-.57,3.1-2.07-.88-1.76,0-3.38,1.5-1,1.5-2.38-.37-1.88,0-3.38,1.63-2,1.63-3a17.32,17.32,0,0,1,0-3.63c.25-1.63.13-.25.75-2.75s.75-2.38.75-3.76a10,10,0,0,1,.42-2.94,10.17,10.17,0,0,1,.58-2.57c.76-2.38,1.12-.37,1.69-2.63s-1.18-.12,1.82-4.26S58,51,59.16,49.11s5.75-5.76,7.63-6.13,3.13-1.38,5.64-2.13,3.88-2,5.51-1.51a13.75,13.75,0,0,0,5.26.88c2.75,0,5.13-1.48,7.63-1s3.51,0,7.52,1.37,3.88,1.37,6,2.12a33.85,33.85,0,0,1,5.51,2.63c1.5.88,3,1.63,3.75,2S116.5,49.11,116.5,49.11Z" fill="#b7a7a3"/>
      <path d="M101.72,90.57a20.78,20.78,0,0,0-5.59-1.92A33,33,0,0,0,90.82,88c-1.92-.12-5.5-.39-6.66,0s-2.46.84-1.38,1.3a14.08,14.08,0,0,0,4.65.74c1-.08,3-.08,4.7-.08s4.23-.08,5.2.27a13.37,13.37,0,0,0,3,1C101.6,91.38,102.31,90.86,101.72,90.57Z" fill="#201d16"/>
      <path d="M69.72,87.19c.93.69,1.24,2,.2,1.61A12.66,12.66,0,0,0,67.3,88a9.46,9.46,0,0,0-2.7-.27c-1.39,0-1.84-.09-3,0a25.37,25.37,0,0,0-2.62,0c-1,.16-1.42-.69-.34-.92s1.61-.74,2.57-.63a18.45,18.45,0,0,0,4.33-.11A24.79,24.79,0,0,1,69.72,87.19Z" fill="#201d16"/>
      <path d="M94.59,94.23c.66.38,2.89,1.5,2.66,2.35s-1.43,1.7-3.23,1.81-3.92.42-5.43-.16c-1.2-.45-2.62-1-2.35-1.8A4.34,4.34,0,0,1,89.09,94C90.36,93.85,94.59,94.23,94.59,94.23Z" fill="#fae1d7"/>
      <path d="M70.57,94.38c-.44-1.17-2.15-1.73-3.81-2.07s-5.85.11-6.12,1.63,4.23,2.53,5.77,2.31S71.41,96.66,70.57,94.38Z" fill="#fae1d7"/>
      <path d="M75,92.38a9,9,0,0,0,.36,1.07,2.74,2.74,0,0,1,.06,1.21,7.16,7.16,0,0,1-.3,1.13l-.28,1.06c-.5,1.38-.92,2.8-1.35,4.23a16.41,16.41,0,0,1-.73,2.18c-.31.72-.66,1.36-1,2a18.69,18.69,0,0,0-1.39,4.12,17.78,17.78,0,0,0-.34,2.13,3,3,0,0,0,0,.89s.08.1.19.2l.41.31c.58.41,1.22.78,1.85,1.14.32.17.65.35,1,.5a5.24,5.24,0,0,0,.9.36s0,0,0,0a1.08,1.08,0,0,0,.18-.07l.43-.25.9-.62c.31-.21.61-.43,1-.64a3,3,0,0,1,1.2-.49,7.31,7.31,0,0,1,2.37.28,6.23,6.23,0,0,1,2.08.94,7.4,7.4,0,0,0-2.16-.39,6.43,6.43,0,0,0-2.09.22,5,5,0,0,0-1.75,1c-.3.21-.61.43-.94.64a4.52,4.52,0,0,1-.54.31,1.84,1.84,0,0,1-.34.14,1,1,0,0,1-.52,0,4.77,4.77,0,0,1-1.17-.45c-.35-.16-.69-.34-1-.53a21,21,0,0,1-2-1.2c-.16-.11-.31-.23-.48-.37a1.6,1.6,0,0,1-.51-.65,3.68,3.68,0,0,1-.08-1.33,16.93,16.93,0,0,1,.36-2.28,20,20,0,0,1,1.45-4.34c.32-.69.68-1.36,1-2a14.93,14.93,0,0,0,.69-2c.42-1.44.85-2.87,1.36-4.3.31-.69.78-1.36,1-2a2.34,2.34,0,0,0,.18-1A10.15,10.15,0,0,1,75,92.38Z" fill="#d79f62"/>
      <path d="M68.19,108.32a4.54,4.54,0,0,0-.41.9c-.18.26-.34.54-.5.82a10.31,10.31,0,0,0-.76,1.74,3.64,3.64,0,0,0-.16.89,1,1,0,0,0,.28.74,6,6,0,0,0,.61.71c.17.26.32.59.63.67a.62.62,0,0,1-.53,0,4.3,4.3,0,0,1-.48-.24,6.14,6.14,0,0,1-.66-.79,2.14,2.14,0,0,1-.29-.47,1.35,1.35,0,0,1-.09-.58,3.84,3.84,0,0,1,.18-1,10.13,10.13,0,0,1,.8-1.85,9.45,9.45,0,0,1,.53-.86A3,3,0,0,1,68.19,108.32Z" fill="#be8257"/>
      <path d="M85.78,125c1.16-1.68-5.62-.69-7.08-1a18.44,18.44,0,0,0-4.53-.08c-.69.08-2.83-.73-4.45-.57a8.61,8.61,0,0,0-3.64,1c-.73.49,6.92,3.32,6.92,3.32l6.47-.53S85.41,125.54,85.78,125Z" fill="#9b643e"/>
      <path d="M84.29,125.56c-.13-.47-3.89-.32-5.22-.44a15.75,15.75,0,0,0-4.17.22,11.53,11.53,0,0,1-3.64-.27c-1.3-.19-4.05-.08-4.13.25s2.89,1.57,4,2.14,6.41,1,8.48.5S84.58,126.66,84.29,125.56Z" fill="#bb784e"/>
      <path d="M91.32,98.56a2.87,2.87,0,0,1-1-4.61c1.74,0,4.27.28,4.27.28l.3.17a2.84,2.84,0,0,1,.44,1.5,2.88,2.88,0,0,1-1.47,2.5C93.06,98.45,92.18,98.54,91.32,98.56Z" fill="#191915"/>
      <path d="M66.76,92.31a8.63,8.63,0,0,1,2.86,1v.08a3.15,3.15,0,0,1-1.6,2.8,15.29,15.29,0,0,0-1.61.06,3.82,3.82,0,0,1-.71,0,3.12,3.12,0,0,1-1.79-2.89,3.31,3.31,0,0,1,.19-1.11A8.87,8.87,0,0,1,66.76,92.31Z" fill="#191915"/>
    </g>
  </g>
  <polygon points="1209.32 104.46 1167.84 172.48 0 172.48 0 194.65 279.31 194.65 1344.29 194.65 1344.29 104.46 1209.32 104.46" fill="#212026"/>
  <g>
    <path d="M223.74,82.28h3.48v18c0,7.16-3.52,9.36-8.16,9.36a11.27,11.27,0,0,1-3.72-.64l.52-2.84a8.3,8.3,0,0,0,2.92.52c3.12,0,5-1.4,5-6.68Z" fill="#212026"/>
    <path d="M247,96.6H236.5v9.72h11.68v2.92H233v-27h14.56V85.2H236.5v8.52H247Z" fill="#212026"/>
    <path d="M257.06,100.76l-2.8,8.48h-3.6l9.16-27H264l9.2,27H269.5l-2.88-8.48ZM265.9,98l-2.64-7.76c-.6-1.76-1-3.36-1.4-4.92h-.08c-.4,1.6-.84,3.24-1.36,4.88L257.78,98Z" fill="#212026"/>
    <path d="M277.18,109.24v-27H281l8.64,13.64a76.32,76.32,0,0,1,4.84,8.76l.08,0c-.32-3.6-.4-6.88-.4-11.08V82.28h3.28v27H293.9l-8.56-13.68a85.57,85.57,0,0,1-5-9l-.12,0c.2,3.4.28,6.64.28,11.12v11.52Z" fill="#212026"/>
    <path d="M311.54,97.12v2.6h-9.88v-2.6Z" fill="#212026"/>
    <path d="M320.5,82.28H324v18c0,7.16-3.52,9.36-8.16,9.36a11.27,11.27,0,0,1-3.72-.64l.52-2.84a8.3,8.3,0,0,0,2.92.52c3.12,0,5-1.4,5-6.68Z" fill="#212026"/>
    <path d="M334.14,100.76l-2.8,8.48h-3.6l9.16-27h4.2l9.2,27h-3.72l-2.88-8.48ZM343,98l-2.64-7.76c-.6-1.76-1-3.36-1.4-4.92h-.08c-.4,1.6-.84,3.24-1.36,4.88L334.86,98Z" fill="#212026"/>
    <path d="M372.5,108.36a17.27,17.27,0,0,1-7.12,1.28c-7.6,0-13.32-4.8-13.32-13.64,0-8.44,5.72-14.16,14.08-14.16a14.45,14.45,0,0,1,6.4,1.2l-.84,2.84a12.68,12.68,0,0,0-5.44-1.12c-6.32,0-10.52,4-10.52,11.12,0,6.6,3.8,10.84,10.36,10.84a13.93,13.93,0,0,0,5.68-1.12Z" fill="#212026"/>
    <path d="M398.26,113.2c-3.64-1-7.2-2-10.32-3.12a5.17,5.17,0,0,0-1.64-.4c-6.4-.24-11.88-5-11.88-13.64s5.28-14.2,12.56-14.2,12.08,5.68,12.08,13.64c0,6.92-3.2,11.36-7.68,12.92v.16c2.68.68,5.6,1.32,7.88,1.72Zm-2.88-17.56c0-5.4-2.8-11-8.52-11-5.88,0-8.76,5.44-8.72,11.28s3.12,10.88,8.56,10.88S395.38,101.8,395.38,95.64Z" fill="#212026"/>
    <path d="M407.06,82.28v16c0,6,2.68,8.6,6.28,8.6,4,0,6.56-2.64,6.56-8.6v-16h3.52V98c0,8.28-4.36,11.68-10.2,11.68-5.52,0-9.68-3.16-9.68-11.52V82.28Z" fill="#212026"/>
    <path d="M443.42,96.6H432.94v9.72h11.68v2.92H429.46v-27H444V85.2H432.94v8.52h10.48Z" fill="#212026"/>
    <path d="M448.66,105a12.33,12.33,0,0,0,6.24,1.76c3.56,0,5.64-1.88,5.64-4.6,0-2.52-1.44-4-5.08-5.36-4.4-1.56-7.12-3.84-7.12-7.64,0-4.2,3.48-7.32,8.72-7.32a12.25,12.25,0,0,1,6,1.32l-1,2.84a10.74,10.74,0,0,0-5.12-1.28c-3.68,0-5.08,2.2-5.08,4,0,2.52,1.64,3.76,5.36,5.2,4.56,1.76,6.88,4,6.88,7.92,0,4.16-3.08,7.76-9.44,7.76a13.93,13.93,0,0,1-6.88-1.72Z" fill="#212026"/>
    <path d="M477.34,82.64a36.25,36.25,0,0,1,6.68-.56c3.72,0,6.12.68,7.8,2.2a6.71,6.71,0,0,1,2.12,5.12,7.08,7.08,0,0,1-5.08,6.88v.12c2.08.72,3.32,2.64,4,5.44a42.91,42.91,0,0,0,2.08,7.4h-3.6a34.93,34.93,0,0,1-1.8-6.44c-.8-3.72-2.24-5.12-5.4-5.24h-3.28v11.68h-3.48Zm3.48,12.28h3.56c3.72,0,6.08-2,6.08-5.12,0-3.48-2.52-5-6.2-5a14.32,14.32,0,0,0-3.44.32Z" fill="#212026"/>
    <path d="M522,95.48c0,9.28-5.64,14.2-12.52,14.2-7.12,0-12.12-5.52-12.12-13.68,0-8.56,5.32-14.16,12.52-14.16C517.26,81.84,522,87.48,522,95.48Zm-20.92.44c0,5.76,3.12,10.92,8.6,10.92s8.64-5.08,8.64-11.2c0-5.36-2.8-11-8.6-11S501.1,90,501.1,95.92Z" fill="#212026"/>
    <path d="M530,82.28v16c0,6,2.68,8.6,6.28,8.6,4,0,6.56-2.64,6.56-8.6v-16h3.52V98c0,8.28-4.36,11.68-10.2,11.68-5.52,0-9.68-3.16-9.68-11.52V82.28Z" fill="#212026"/>
    <path d="M551.94,105a12.33,12.33,0,0,0,6.24,1.76c3.56,0,5.64-1.88,5.64-4.6,0-2.52-1.44-4-5.08-5.36-4.4-1.56-7.12-3.84-7.12-7.64,0-4.2,3.48-7.32,8.72-7.32a12.25,12.25,0,0,1,6,1.32l-1,2.84a10.74,10.74,0,0,0-5.12-1.28c-3.68,0-5.08,2.2-5.08,4,0,2.52,1.64,3.76,5.36,5.2,4.56,1.76,6.88,4,6.88,7.92,0,4.16-3.08,7.76-9.44,7.76a13.93,13.93,0,0,1-6.88-1.72Z" fill="#212026"/>
    <path d="M571.66,105a12.33,12.33,0,0,0,6.24,1.76c3.56,0,5.64-1.88,5.64-4.6,0-2.52-1.44-4-5.08-5.36-4.4-1.56-7.12-3.84-7.12-7.64,0-4.2,3.48-7.32,8.72-7.32a12.25,12.25,0,0,1,6,1.32l-1,2.84a10.74,10.74,0,0,0-5.12-1.28c-3.68,0-5.08,2.2-5.08,4,0,2.52,1.64,3.76,5.36,5.2,4.56,1.76,6.88,4,6.88,7.92,0,4.16-3.08,7.76-9.44,7.76a13.93,13.93,0,0,1-6.88-1.72Z" fill="#212026"/>
    <path d="M605.82,96.6H595.34v9.72H607v2.92H591.86v-27h14.56V85.2H595.34v8.52h10.48Z" fill="#212026"/>
    <path d="M615.9,100.76l-2.8,8.48h-3.6l9.16-27h4.2l9.2,27h-3.72l-2.88-8.48ZM624.74,98l-2.64-7.76c-.6-1.76-1-3.36-1.4-4.92h-.08c-.4,1.6-.84,3.24-1.36,4.88L616.62,98Z" fill="#212026"/>
    <path d="M638.38,82.28v16c0,6,2.68,8.6,6.28,8.6,4,0,6.56-2.64,6.56-8.6v-16h3.52V98c0,8.28-4.36,11.68-10.2,11.68-5.52,0-9.68-3.16-9.68-11.52V82.28Z" fill="#212026"/>
    <path d="M225.67,133.16h-7.88l.57-2.88h19.09l-.56,2.88H229l-4.57,24.08H221.1Z" fill="#212026"/>
    <path d="M235.16,157.24l5.4-28.4h3.31l-2.41,12.46h.08a8.3,8.3,0,0,1,6.91-3.85c2.2,0,4.81,1.32,4.81,5.18a17.68,17.68,0,0,1-.32,3.27l-2.15,11.33h-3.31l2.12-11.18a13.67,13.67,0,0,0,.26-2.67c0-1.78-.85-3.17-3-3.17-2.57,0-5.78,3-6.59,7.33l-1.8,9.69Z" fill="#212026"/>
    <path d="M270.47,156.13a13.64,13.64,0,0,1-6.4,1.53c-5.13,0-7.35-3.51-7.35-7.79,0-5.82,4.32-12.41,10.55-12.41,3.68,0,5.68,2.19,5.68,5,0,5.08-5.73,6.41-12.88,6.28a8,8,0,0,0,.4,3.68,4.37,4.37,0,0,0,4.3,2.6,10.66,10.66,0,0,0,5.21-1.33ZM266.8,140c-3.16,0-5.54,3.08-6.35,6.11,5.21.06,9.29-.64,9.29-3.65C269.74,140.91,268.53,140,266.8,140Z" fill="#212026"/>
    <path d="M282.45,153.07a10.34,10.34,0,0,0,5.73,1.72c3,0,5.83-1.81,5.83-5.06,0-2-1.13-3.5-3.94-5-3.44-1.86-5.37-4-5.37-6.92,0-4.82,4.15-7.91,9.1-7.91a10.16,10.16,0,0,1,5.52,1.4L298.15,134a9.11,9.11,0,0,0-4.68-1.26c-3.33,0-5.34,2.19-5.34,4.4s1.36,3.43,4.18,5c3.32,1.78,5.14,3.9,5.14,7.21,0,4.66-3.65,8.34-9.72,8.34a11,11,0,0,1-6.49-1.88Z" fill="#212026"/>
    <path d="M319.52,145.5c0,6-4.24,12.18-10.75,12.18-4.84,0-7.55-3.59-7.55-8,0-6.39,4.44-12.27,10.73-12.27C317.16,137.46,319.52,141.4,319.52,145.5Zm-14.88,4.1c0,3.15,1.75,5.45,4.59,5.45,3.9,0,6.86-5.06,6.86-9.56,0-2.26-1-5.41-4.5-5.41C307.41,140.08,304.64,145.17,304.64,149.6Z" fill="#212026"/>
    <path d="M335.26,156.47a13.08,13.08,0,0,1-5.62,1.19c-5,0-7.44-3.38-7.44-7.49,0-6.59,4.92-12.71,11.87-12.71a9.14,9.14,0,0,1,4,.88l-.95,2.63a7.38,7.38,0,0,0-3.29-.73c-5,0-8.2,4.95-8.2,9.51,0,3.15,1.65,5.18,4.82,5.18a10.2,10.2,0,0,0,4.47-1.08Z" fill="#212026"/>
    <path d="M338.92,157.24l3.69-19.35h3.31l-3.69,19.35Zm4.3-24.75a2.21,2.21,0,0,1,2.19-2.24,1.93,1.93,0,0,1,2,2.08,2.19,2.19,0,0,1-2.25,2.23A1.89,1.89,0,0,1,343.22,132.49Z" fill="#212026"/>
    <path d="M360.9,157.24a44,44,0,0,1,.43-5h-.08c-2.09,4-4.76,5.44-7.49,5.44-3.43,0-5.56-2.73-5.56-6.39,0-6.74,4.95-13.83,13.37-13.83a19,19,0,0,1,5.22.73l-2,10.08a44.24,44.24,0,0,0-.82,9Zm2.15-16.87a7.62,7.62,0,0,0-2.3-.27c-5,0-9.09,5.2-9.12,10.59,0,2.16.75,4.26,3.31,4.26,2.77,0,6-3.6,7-8.74Z" fill="#212026"/>
    <path d="M369,157.24l5.42-28.4h3.32l-5.43,28.4Z" fill="#212026"/>
    <path d="M404.14,156.36a17.53,17.53,0,0,1-7,1.3c-6.78,0-10.94-4.32-10.94-11.2a16.85,16.85,0,0,1,5.76-13,15.39,15.39,0,0,1,10.16-3.61c3,0,5.15.75,5.84,1.3l-1.07,2.67a11,11,0,0,0-5.29-1.11,11.54,11.54,0,0,0-7.73,3A14.18,14.18,0,0,0,389.74,146c0,4.82,2.21,8.8,8.2,8.8a13.83,13.83,0,0,0,5.76-1.15Z" fill="#212026"/>
    <path d="M425.88,145.5c0,6-4.25,12.18-10.75,12.18-4.84,0-7.55-3.59-7.55-8,0-6.39,4.43-12.27,10.73-12.27C423.52,137.46,425.88,141.4,425.88,145.5ZM411,149.6c0,3.15,1.75,5.45,4.59,5.45,3.9,0,6.86-5.06,6.86-9.56,0-2.26-1-5.41-4.51-5.41C413.76,140.08,411,145.17,411,149.6Z" fill="#212026"/>
    <path d="M428.19,157.24l2.59-13.72c.43-2.15.69-4,.91-5.63h3l-.5,3.8h.08a8.52,8.52,0,0,1,7.18-4.23c2.29,0,4.89,1.32,4.89,5.37A19.46,19.46,0,0,1,446,146l-2.14,11.29h-3.31l2.11-11.18a14.05,14.05,0,0,0,.26-2.47c0-1.94-.74-3.37-3-3.37s-5.74,2.83-6.61,7.61l-1.75,9.41Z" fill="#212026"/>
    <path d="M458.21,132.7l-1,5.19h4.62l-.52,2.6H456.7l-1.78,9.4a16.23,16.23,0,0,0-.39,3.09,1.65,1.65,0,0,0,1.83,1.88,6.45,6.45,0,0,0,1.56-.16l-.16,2.61a7.94,7.94,0,0,1-2.56.35c-2.92,0-4.07-1.77-4.07-3.75a18,18,0,0,1,.42-3.63l1.89-9.79h-2.77l.51-2.6H454l.82-4.35Z" fill="#212026"/>
    <path d="M462.07,157.24l2.37-12.46c.47-2.52.76-5.09,1-6.89h2.92c-.16,1.35-.31,2.7-.54,4.21h.12c1.27-2.65,3.33-4.64,5.93-4.64a5.53,5.53,0,0,1,.94.07l-.64,3.27a4.43,4.43,0,0,0-.9-.07c-2.87,0-5.43,3.48-6.27,8l-1.6,8.54Z" fill="#212026"/>
    <path d="M487,157.24a41.78,41.78,0,0,1,.43-5h-.09c-2.09,4-4.76,5.44-7.49,5.44-3.42,0-5.56-2.73-5.56-6.39,0-6.74,5-13.83,13.37-13.83a19,19,0,0,1,5.22.73l-2,10.08a43.53,43.53,0,0,0-.82,9Zm2.15-16.87a7.67,7.67,0,0,0-2.3-.27c-5,0-9.1,5.2-9.12,10.59,0,2.16.75,4.26,3.3,4.26,2.78,0,6-3.6,7-8.74Z" fill="#212026"/>
    <path d="M508.38,156.47a13.08,13.08,0,0,1-5.62,1.19c-5,0-7.44-3.38-7.44-7.49,0-6.59,4.91-12.71,11.86-12.71a9.06,9.06,0,0,1,4,.88l-.95,2.63a7.3,7.3,0,0,0-3.28-.73c-5,0-8.2,4.95-8.2,9.51,0,3.15,1.65,5.18,4.82,5.18a10.24,10.24,0,0,0,4.47-1.08Z" fill="#212026"/>
    <path d="M520.89,132.7l-1,5.19h4.62l-.52,2.6h-4.63l-1.78,9.4a16.19,16.19,0,0,0-.38,3.09,1.65,1.65,0,0,0,1.83,1.88,6.45,6.45,0,0,0,1.56-.16l-.16,2.61a8,8,0,0,1-2.56.35c-2.93,0-4.07-1.77-4.07-3.75a18,18,0,0,1,.42-3.63l1.89-9.79h-2.77l.5-2.6h2.78l.82-4.35Z" fill="#212026"/>
  </g>
  <g clip-path="url(#clip-path-2)">
    <g>
      <path d="M1246.45,129.74l2.41-1.86h0c-2.4-.11-4-1-4.85-3.5a6.93,6.93,0,0,0-5.13-4.32q-8.06-2.06-16.18-3.82a8.18,8.18,0,0,0-8.15,2.68,1.67,1.67,0,0,1-2.06.56,10.44,10.44,0,0,0-1.63-.47c-2.64-.55-4.78-1.42-5.38-4.61-.42-2.21-2.42-3.57-4.48-4.33-5.32-1.93-10.66-3.82-16.06-5.51a7.94,7.94,0,0,0-7.64,1.69,2.54,2.54,0,0,1-3.08.46,16.18,16.18,0,0,0-1.9-.73c-2-.67-3.49-1.55-3.77-4.07a7.28,7.28,0,0,0-4.48-5.64c-5-2.37-10.1-4.58-15.19-6.78a7.48,7.48,0,0,0-7.45.67c-1.38.92-2.58,1.08-3.89.16-1.09-.77-1.74-.44-2.21.67-.09.21-.22.4-.32.6-1.64,3.42-1.54,2.7,1.31,4.18a1.24,1.24,0,0,1,.81,1.26,8.84,8.84,0,0,0,5,8c4.9,2.49,10,4.61,15,6.83a6.67,6.67,0,0,0,3.54.5,7.88,7.88,0,0,0,5.39-2,1.6,1.6,0,0,1,2-.27,12.89,12.89,0,0,0,2.34,1c2.26.6,3.75,1.57,4.2,4.25s2.47,4.38,5,5.38c5.22,2.06,10.55,3.78,15.91,5.41a8.19,8.19,0,0,0,8.43-2.21,2,2,0,0,1,2.38-.58q2.55.92,5.16,1.62c.55.15.68.41.81.89a9.28,9.28,0,0,0,7.32,7.17c4.8,1.09,9.57,2.29,14.37,3.38,3.73.84,7,0,9.42-3.11a1.48,1.48,0,0,1,1.62-.56,23.23,23.23,0,0,0,2.85.48Zm-81.62-27.18c-.24.37-.6.06-.92,0-1.66-.25-3.15.42-3.48,1.69a2.76,2.76,0,0,0,1.61,3.36c.18.1.34.24.66.46a4.25,4.25,0,0,1-4.27.39c-4.92-2.16-9.8-4.39-14.69-6.62a4.75,4.75,0,0,1-2.61-3.52c1.88.6,3.59.8,4.52-1.15s-.53-3-2-4.07a4.39,4.39,0,0,1,4.21-.15c4.7,2.09,9.38,4.22,14.06,6.35a5.53,5.53,0,0,1,2.64,2.3C1164.76,101.92,1165,102.24,1164.83,102.56Zm37.48,13.68c-.72,0-1.33-.07-1.93,0a2.34,2.34,0,0,0-2.35,2.05,2.58,2.58,0,0,0,1.22,2.91c.36.23,1.06.19,1,.73s-.75.62-1.22.76a4,4,0,0,1-2.34,0c-5.41-1.8-10.9-3.36-16.17-5.59a4.91,4.91,0,0,1-2.47-3,12.23,12.23,0,0,0,1.81.35,2.64,2.64,0,0,0,2.57-1.61,2.49,2.49,0,0,0-.51-3c-.4-.43-1.36-.58-1.09-1.31s1.26-.55,2-.63a4.72,4.72,0,0,1,2.15.41c1.8.63,3.58,1.35,5.42,1.91,3,.92,6,2,9,3.06A4.44,4.44,0,0,1,1202.31,116.24Zm38.34,9.94c-2.46-.1-3.56.46-3.9,1.93s.45,2.73,2.83,3.72a4,4,0,0,1-4,1.17q-7.86-1.74-15.67-3.7c-1.41-.36-2.76-1-3.07-2.86a8.4,8.4,0,0,0,1.39,0,2.69,2.69,0,0,0,2.52-1.93,2.66,2.66,0,0,0-1.09-3c-.4-.36-1.4-.27-1.22-.92s1.13-.83,1.84-1a6.26,6.26,0,0,1,2.84.29l7.07,1.72c2.69.66,5.39,1.25,8,2A3.09,3.09,0,0,1,1240.65,126.18Z" fill="#fff"/>
      <path d="M1368.14,151.55c-2.31-1.39-5.13-1.07-7.77-.15-4.23,1.48-8.54,2.64-12.86,3.77a9,9,0,0,0-6.82,6.64,1.81,1.81,0,0,1-1.56,1.53,19.54,19.54,0,0,0-2,.55c-2.2.65-4.13,1.12-6.11-1s-4.73-2.44-7.59-1.87c-4.94,1-9.9,1.86-14.85,2.82a8.73,8.73,0,0,0-6.81,5.73,1.89,1.89,0,0,1-1.66,1.43c-.89.12-1.78.31-2.68.45-2,.33-3.74.33-5.28-1.73A7.6,7.6,0,0,0,1285,167c-5,.55-9.9,1-14.87,1.32a8.81,8.81,0,0,0-7.84,5.4,1.39,1.39,0,0,1-1.53,1,8.64,8.64,0,0,0-2,.14c-2.85.5-4.94-.11-6.51-2.94-1-1.73-3.25-2.41-5.33-2.46q-8.57-.18-17.11-.13a7.75,7.75,0,0,0-6.71,4,2.46,2.46,0,0,1-2.77,1.42,39.88,39.88,0,0,0-4.36.28l1.85,4.06,1.51,1.16c2.3-.15,2.76.22,4,2.53,1.32,2.49,4,3.52,6.77,3.59,5.43.14,10.86.18,16.29.08a8.2,8.2,0,0,0,7.62-4.83,1.86,1.86,0,0,1,2.12-1.23,11.73,11.73,0,0,0,1.18,0c2.55,0,5-.52,6.82,2.48,1.5,2.47,4.61,2.89,7.5,2.64,4.9-.41,9.81-.85,14.7-1.34,3.72-.37,6.54-2.1,8-5.7a1.83,1.83,0,0,1,1.61-1.28c1.23-.19,2.45-.43,3.68-.62a3.72,3.72,0,0,1,4.06,1.47c1.88,2.4,4.81,3.16,7.84,2.66,5.53-.9,11.06-1.8,16.49-3.21a8.11,8.11,0,0,0,5.92-5.73,2.32,2.32,0,0,1,1.87-1.88c1.67-.34,3.31-.76,5-1.15a1.65,1.65,0,0,1,1.79.6,8.17,8.17,0,0,0,8.76,2.61c5.35-1.43,10.73-2.79,15.94-4.68a8.21,8.21,0,0,0,5.66-6.64,2.9,2.9,0,0,1,.07-.34C1373,157,1371.52,154,1368.14,151.55Zm-118.59,23.24c-1.41.7-3.14,1-3.09,3s1.6,2.76,3.46,3.13c-1.1,1.74-2.74,2-4.37,2-3.67.07-7.34.12-11,0-2.29-.09-4.66.22-6.83-.88-.46-.24-1.06-.5-1-1,0-.67.77-.49,1.21-.63a2.72,2.72,0,0,0,1.7-4c-.65-1.08-1.77-1.27-3.15-1.42a5.26,5.26,0,0,1,4.57-2q7.62,0,15.23.16A3.75,3.75,0,0,1,1249.55,174.79Zm39.15-2.3c-1.54.55-2.61,1.45-2.25,3.26s1.75,2.18,3.34,2.22c.08,0,.16.13.32.26a4.48,4.48,0,0,1-3.42,2.16c-5.45.57-10.89,1.31-16.39,1.39a4.65,4.65,0,0,1-2.74-.74c-.32-.22-.81-.38-.77-.82s.61-.39,1-.45a2.45,2.45,0,0,0,2.2-2.43,2.62,2.62,0,0,0-1.5-2.64c-.62-.34-1.33-.13-2.26-.29a5.07,5.07,0,0,1,4.36-2.43c4.74-.3,9.47-.71,14.19-1.32a6.34,6.34,0,0,1,3.93.72C1289.17,171.65,1289.77,172.11,1288.7,172.49Zm41.4-1.22a4.86,4.86,0,0,1-3.22,2.63,104.36,104.36,0,0,1-16.63,3.12,3.77,3.77,0,0,1-3.57-1.41c2.48-.81,3.36-1.87,3-3.51s-1.5-2.13-4.1-2.06a5,5,0,0,1,3.41-2.62c5.27-1,10.54-2,15.83-3a4.06,4.06,0,0,1,4,1.31c-2.3.69-3.18,1.53-3,3.08C1326.12,171.28,1328,171.46,1330.1,171.27Zm38.81-10.41a4.79,4.79,0,0,1-3.09,2.93c-4.93,1.85-10,3.05-15.1,4.52a4.86,4.86,0,0,1-2.51.16c-.59-.14-1.4-.1-1.56-.8s.63-.68,1-1a2.66,2.66,0,0,0,1-3,2.51,2.51,0,0,0-2.49-1.93c-.43,0-.87,0-1.53,0a5.66,5.66,0,0,1,4.23-3.2c4.37-1.15,8.74-2.29,13-3.75a5.76,5.76,0,0,1,3.82-.2,2,2,0,0,1,.44.19C1369,156.15,1369.21,159.67,1368.91,160.86Z" fill="#fff"/>
      <g>
        <path d="M1243.83,205a2.35,2.35,0,0,1-.64-.09,2.47,2.47,0,0,1-1.76-3l23.64-88.22a2.48,2.48,0,1,1,4.79,1.29l-23.64,88.21A2.47,2.47,0,0,1,1243.83,205Z" fill="#fff"/>
        <path d="M1267.46,114c3.06-1.41,25.06-2.51,27.47-.4s3.82,7.53,16.78,5.93,17.78-3.62,27.73-1.21l-1.31,40.11s-27.22-.23-32.45,3.59-13.16-3.92-15.07-7.53-32.62.9-32.62.9Z" fill="#fff"/>
      </g>
    </g>
  </g>
</svg>
