<svg id="fcc437ba-0207-439a-9901-11927783b814" data-name="Layer 1" xmlns="http://www.w3.org/2000/svg" xmlns:xlink="http://www.w3.org/1999/xlink" width="1344.293" height="194.648" viewBox="0 0 1344.293 194.648">
  <defs>
    <clipPath id="aa27dc2a-6fb3-4489-9f7a-0d212956d4f7">
      <rect x="21.391" y="40.308" width="158.802" height="133.064" style="fill: none"/>
    </clipPath>
    <clipPath id="ef7631d4-9dc6-43e7-b623-6c080e2c7b3b">
      <rect x="1147.666" y="-122.075" width="180.626" height="90.186" style="fill: none"/>
    </clipPath>
    <clipPath id="e798fd36-58bb-408a-b934-5a09cddb9bbf">
      <rect x="1151.22" y="104.462" width="180.626" height="90.186" style="fill: none"/>
    </clipPath>
  </defs>
  <title>banner-4b</title>
  <polygon points="1209.322 104.462 1167.842 172.476 0 172.476 0 194.648 279.306 194.648 1344.293 194.648 1344.293 104.462 1209.322 104.462" style="fill: #212026"/>
  <g>
    <path d="M217.744,155.1a12.328,12.328,0,0,0,6.239,1.759c3.56,0,5.639-1.879,5.639-4.6,0-2.52-1.44-3.959-5.079-5.36-4.4-1.559-7.118-3.838-7.118-7.638,0-4.2,3.479-7.319,8.717-7.319a12.242,12.242,0,0,1,5.959,1.32l-.959,2.84a10.731,10.731,0,0,0-5.119-1.281c-3.68,0-5.08,2.2-5.08,4.04,0,2.52,1.641,3.759,5.359,5.2,4.56,1.759,6.879,3.959,6.879,7.918,0,4.159-3.079,7.758-9.438,7.758a13.929,13.929,0,0,1-6.879-1.719Z" style="fill: #212026"/>
    <path d="M243.063,135.339h-8.2v-2.96h19.957v2.96h-8.238v24h-3.52Z" style="fill: #212026"/>
    <path d="M254.464,157.255a2.365,2.365,0,0,1,2.4-2.52,2.524,2.524,0,1,1-2.4,2.52Z" style="fill: #212026"/>
    <path d="M275.663,135.339h-8.2v-2.96h19.957v2.96h-8.239v24h-3.519Z" style="fill: #212026"/>
    <path d="M293.9,132.379v11.278H306.94V132.379h3.52v26.956h-3.52V146.7H293.9v12.638h-3.479V132.379Z" style="fill: #212026"/>
    <path d="M339.539,145.577c0,9.278-5.639,14.2-12.518,14.2-7.119,0-12.118-5.518-12.118-13.677,0-8.559,5.319-14.158,12.518-14.158C334.78,131.939,339.539,137.578,339.539,145.577Zm-20.916.44c0,5.759,3.119,10.919,8.6,10.919,5.519,0,8.638-5.08,8.638-11.2,0-5.359-2.8-10.958-8.6-10.958C321.5,134.779,318.623,140.1,318.623,146.017Z" style="fill: #212026"/>
    <path d="M366.779,147.5c-.2-3.76-.439-8.279-.4-11.639h-.12c-.92,3.161-2.041,6.52-3.4,10.239l-4.76,13.078h-2.639l-4.36-12.838c-1.279-3.8-2.359-7.278-3.119-10.479h-.08c-.08,3.36-.279,7.879-.519,11.918l-.72,11.559h-3.32l1.879-26.956h4.44l4.6,13.038c1.12,3.319,2.04,6.279,2.72,9.078h.119c.681-2.719,1.64-5.679,2.84-9.078l4.8-13.038h4.439l1.68,26.956h-3.4Z" style="fill: #212026"/>
    <path d="M380.181,150.856l-2.8,8.479h-3.6l9.158-26.956h4.2l9.2,26.956h-3.72l-2.879-8.479Zm8.839-2.719-2.639-7.759c-.6-1.76-1-3.359-1.4-4.919H384.9c-.4,1.6-.84,3.239-1.36,4.879l-2.64,7.8Z" style="fill: #212026"/>
    <path d="M399.822,155.1a12.331,12.331,0,0,0,6.239,1.759c3.56,0,5.639-1.879,5.639-4.6,0-2.52-1.44-3.959-5.079-5.36-4.4-1.559-7.118-3.838-7.118-7.638,0-4.2,3.479-7.319,8.717-7.319a12.242,12.242,0,0,1,5.959,1.32l-.959,2.84a10.727,10.727,0,0,0-5.119-1.281c-3.679,0-5.08,2.2-5.08,4.04,0,2.52,1.641,3.759,5.36,5.2,4.559,1.759,6.879,3.959,6.879,7.918,0,4.159-3.08,7.758-9.439,7.758a13.932,13.932,0,0,1-6.879-1.719Z" style="fill: #212026"/>
    <path d="M451.538,145.577c0,9.278-5.639,14.2-12.518,14.2-7.119,0-12.118-5.518-12.118-13.677,0-8.559,5.319-14.158,12.518-14.158C446.779,131.939,451.538,137.578,451.538,145.577Zm-20.916.44c0,5.759,3.119,10.919,8.6,10.919,5.519,0,8.638-5.08,8.638-11.2,0-5.359-2.8-10.958-8.6-10.958C433.5,134.779,430.622,140.1,430.622,146.017Z" style="fill: #212026"/>
    <path d="M456.061,132.379h14.518v2.92H459.541v8.958h10.2v2.88h-10.2v12.2h-3.48Z" style="fill: #212026"/>
    <path d="M488.381,150.856l-2.8,8.479h-3.6l9.158-26.956h4.2l9.2,26.956h-3.72l-2.88-8.479Zm8.837-2.719-2.639-7.759c-.6-1.76-1-3.359-1.4-4.919h-.08c-.4,1.6-.839,3.239-1.359,4.879l-2.64,7.8Z" style="fill: #212026"/>
    <path d="M530.137,163.294c-3.639-.96-7.2-2.04-10.318-3.119a5.157,5.157,0,0,0-1.64-.4c-6.4-.239-11.878-4.959-11.878-13.637,0-8.639,5.28-14.2,12.558-14.2,7.319,0,12.078,5.679,12.078,13.638,0,6.919-3.2,11.359-7.678,12.918v.16c2.679.68,5.6,1.32,7.878,1.72Zm-2.879-17.557c0-5.4-2.8-10.958-8.519-10.958-5.879,0-8.758,5.439-8.718,11.278-.04,5.719,3.119,10.879,8.559,10.879C524.138,156.936,527.258,151.9,527.258,145.737Z" style="fill: #212026"/>
    <path d="M538.94,132.379v15.958c0,6.039,2.68,8.6,6.279,8.6,4,0,6.559-2.64,6.559-8.6V132.379h3.52V148.1c0,8.278-4.36,11.677-10.2,11.677-5.519,0-9.678-3.159-9.678-11.517V132.379Z" style="fill: #212026"/>
    <path d="M564.82,132.379v26.956h-3.479V132.379Z" style="fill: #212026"/>
    <path d="M570.9,159.335V132.379h3.8l8.639,13.638a76.5,76.5,0,0,1,4.838,8.758l.081-.04c-.321-3.6-.4-6.879-.4-11.078V132.379h3.279v26.956h-3.518l-8.559-13.678a85.548,85.548,0,0,1-5.039-9l-.12.04c.2,3.4.279,6.639.279,11.118v11.519Z" style="fill: #212026"/>
    <path d="M601.58,150.856l-2.8,8.479h-3.6l9.159-26.956h4.2l9.2,26.956h-3.72l-2.88-8.479Zm8.838-2.719-2.64-7.759c-.6-1.76-1-3.359-1.4-4.919h-.08c-.4,1.6-.84,3.239-1.36,4.879l-2.639,7.8Z" style="fill: #212026"/>
    <path d="M621.22,155.1a12.328,12.328,0,0,0,6.239,1.759c3.559,0,5.639-1.879,5.639-4.6,0-2.52-1.439-3.959-5.079-5.36-4.4-1.559-7.119-3.838-7.119-7.638,0-4.2,3.48-7.319,8.719-7.319a12.245,12.245,0,0,1,5.959,1.32l-.96,2.84a10.734,10.734,0,0,0-5.119-1.281c-3.68,0-5.079,2.2-5.079,4.04,0,2.52,1.639,3.759,5.359,5.2,4.559,1.759,6.879,3.959,6.879,7.918,0,4.159-3.08,7.758-9.439,7.758a13.925,13.925,0,0,1-6.878-1.719Z" style="fill: #212026"/>
  </g>
  <g style="clip-path: url(#aa27dc2a-6fb3-4489-9f7a-0d212956d4f7)">
    <g>
      <path d="M130.509,113.6c2.142.573.033-.47,5.666,2.66s11.058,4.346,12.935,6.659,4.8,8.362,7.511,11.492,2.432,3.578,7.856,7.959,3.47,5.091,7.756,9.844c4.8,5.323,8.381,20.734,15.266,23.863s10.431-4.529,14.187-1.4,6.05,2.086,10.014,6.885,8.763,13.978,13.144,19.4,10.223,13.77,10.223,13.77-255.262.312-254.949,0,19.82-28.375,29-34.008,14.6-10.431,21.28-12.518a89.485,89.485,0,0,1,12.935-2.94s-2.921-3.737,3.964-14.794,9.339-11.715,11.248-12.226,2.939.126,3.565-3.212a29.646,29.646,0,0,1,3.085-8.181c1.3-2.668,27.167-20.792,27.167-20.792Z" style="fill: #0b0b13"/>
      <path d="M126.646,120.9c3.27.576,6.4-.142,8.9,3.868s2.5,5.451,3.755,11.615,3.547,7.416,3.547,13.049,1.5,11.892,1.481,16.9.438,8.136,0,13.769,1.231,5.634-2.315,10.641-2.295,7.093-6.677,9.6-1.677,3.964-7.2,3.129-6.776-.417-9.905-2.921-5.322,1.67-6.938-5.424.637-6.05-.281-10.64-.084-2.921-3.213-8.971-2.5-6.542-3.74-8.554-1.557-.816-2.935,4.325-6.455,4.229-6.462,10.905,1.716,21.906-6.447,22.532-15.229,1.252-17.538-2.712-2.936-2.921-3.562-8.345S64.7,186.572,65.6,179.9s1.521-4.173,1.1-11.684-1.791-10.849-1.1-13.978,2.982-1.043,1.521-6.05-2.283-11.058-1.767-14.4a94.556,94.556,0,0,1,3.133-10.866l26.181-9.456Z" style="fill: #d8d0bb"/>
      <path d="M125.611,122.683c1.593,5.68,4.931,22.162-.285,25.083A40.56,40.56,0,0,0,113.434,158.2c-1.878,2.712-2.086,6.05-5.842,6.885s-9.253-1.252-12.346-3.13a55.317,55.317,0,0,1-7.029-5.007c-2.323-1.877-5.23-3.547-5.758-6.467s-1.575-7.772-2.434-8.684S117.4,107.5,117.4,107.5Z" style="fill: #d5bd8d"/>
      <path d="M129.213,55.847c-1.36-1.065-11.447-7.771-16.415-8.961a70.077,70.077,0,0,0-15.551-2.271c-4.968,0-25.055,6.48-25.055,6.48L51.457,73.126l6.48,35.638,10.546,14.158s10.189,25.584,21.852,23.424,16.428-2.653,25.271-9.935c9.967-8.208,14.9-22.808,14.9-22.808l3.24-3.438L140.284,96.9l4.048-20.1S137.063,61.993,129.213,55.847Z" style="fill: #e2c8af"/>
      <path d="M129.213,55.847c-4.1.432-8.207-.432-12.527,0s-6.781-1.507-9.157.436-7.187,1.43-5.1,3.387c5.333,5,3.239,2.441,7.559,4.384s7.344,1.08,8.424,3.24.912,6.48.912,6.48,3.192,3.888,4.056,6.48,1.727,5.4,2.591,4.535.648-2.808,3.24-2.808,3.068-1.029,4.752,0,2.376.535,3.024,2.968,2.376,1.568,2.16,5.888.234,2.639-1.138,7.76a51.516,51.516,0,0,1-4.262,10.815,20.316,20.316,0,0,1-2.8,3.559c-.538.657-.475.876,1.168.3,3.578-1.263,4.01-3.639,4.874-4.071s-.179-1.08,2.178-1.08,4.949.216,5.6-1.944.432-3.672.864-6.048,0-4.319.648-5.615.864-1.08,1.944-2.16-.033-.815,1.08-3.024,1.728-1.728,2.16-3.456,1.728-1.08,1.3-4.32,0-4.751-1.728-7.343S149.3,70.1,148,69.238s-.432-2.16-1.3-4.752.864-2.807-2.16-4.535-3.561-3.435-6.208-2.582-1.949,1.041-4.072.472A35.893,35.893,0,0,1,129.213,55.847Z" style="fill: #1d160c"/>
      <path d="M88.391,50.231c4.536.864,7.776,1.3,8.424,2.376s1.944,1.512,1.944,5.184.216,4.751-2.808,5.831-1.512.864-7.56,1.08-5.831-1.3-9.071.648-3.024,2.376-7.344,3.456A62.9,62.9,0,0,0,64.2,71.182c-4.536,1.512-6.048-.216-6.48,2.592s.648,2.16.864,4.752.648,2.554.648,6.136a28.546,28.546,0,0,0,.864,7.471c.432,1.728,1.3,2.808,1.3,4.32s1.08,3.24,1.728,5.183.648,1.944.648,5.184-1.512.216.216,5.4a38.556,38.556,0,0,0,3.887,8.423s3.024,4.1-.864,1.3-5.169-7.127-9.388-11.447-7.243-8.208-8.107-10.8-1.08-3.456-2.159-6.048-.112-6.2,0-6.622-1.512.32-2.376-2.361-.868-2.7-1.531-5.167-1.53-3.561,0-5.289,1.531.864,1.531-1.728-1.3-3.024,0-6.048S44.762,60.6,48.433,60.6s4.968.648,7.56,0a14.327,14.327,0,0,0,6.048-3.24c1.08-1.08-.432,2.592,4.536-3.24s4.1-6.048,5.831-6.912,9.936.216,11.448.864S88.391,50.231,88.391,50.231Z" style="fill: #1d160c"/>
      <path d="M97.205,93.342c-.869-3.246,4.264-4.379,6.684-4.264s5.992-.006,6.8,2.129.115,4.324-2.074,4.9-3.918,1.038-5.993.461S97.805,95.579,97.205,93.342Z" style="fill: #fff"/>
      <path d="M71.738,95.545c3.688-.048,6.107-.637,7.144,1.288s.692,3.538-1.844,4.46-3.186,1.216-6.359.461c-3.24-.771-4.7-.764-5.049-2.4S67.591,95.6,71.738,95.545Z" style="fill: #fff"/>
      <path d="M81.187,93.8a26.653,26.653,0,0,1,2.856,9,12.023,12.023,0,0,1,.119,2.4,5.034,5.034,0,0,1-.213,1.224c-.124.367-.236.734-.334,1.111a22.364,22.364,0,0,0-.687,4.61,10.9,10.9,0,0,0,.1,2.3,3.644,3.644,0,0,0,.844,2,6.188,6.188,0,0,0,.905.685,10.122,10.122,0,0,0,.983.606,1.894,1.894,0,0,0,2.018.133,7.178,7.178,0,0,0,1.541-1.689,7.3,7.3,0,0,1,1.782-1.606,6.162,6.162,0,0,1,2.258-.8,1.753,1.753,0,0,1,1.1.463,4.343,4.343,0,0,1,.787.883,2.612,2.612,0,0,0-1.881-1.216,6.028,6.028,0,0,0-2.124.886,7.068,7.068,0,0,0-1.66,1.6A7.4,7.4,0,0,1,88,118.212a1.939,1.939,0,0,1-1.257.33,3.356,3.356,0,0,1-1.194-.4,10.517,10.517,0,0,1-1.033-.623,6.441,6.441,0,0,1-.981-.731,4.107,4.107,0,0,1-1.006-2.258,11.336,11.336,0,0,1-.13-2.408,22.8,22.8,0,0,1,.752-4.713c.1-.384.225-.769.358-1.147a4.63,4.63,0,0,0,.2-1.1,13.752,13.752,0,0,0-.066-2.318,28.876,28.876,0,0,0-.874-4.611A23.843,23.843,0,0,0,81.187,93.8Z" style="fill: #886d50"/>
      <path d="M80.366,112.112A6.476,6.476,0,0,0,78.832,114a2.394,2.394,0,0,0,.053,2.188,6.878,6.878,0,0,0,1.458,1.882,1.092,1.092,0,0,0,1.006.328,6.038,6.038,0,0,0,1.11-.523,4.509,4.509,0,0,1-1.035.756,1.375,1.375,0,0,1-1.316-.251,5.685,5.685,0,0,1-1.7-1.96,2.98,2.98,0,0,1-.327-1.315,2.638,2.638,0,0,1,.38-1.3A4.717,4.717,0,0,1,80.366,112.112Z" style="fill: #886d50"/>
      <path d="M97.491,124.771a3.285,3.285,0,0,1-.208,2.088c-.432.768-1.44,2.5-2.3,2.6s-5.652.612-7.092,0-2.591-1.476-2.807-2.448,1.583-2.7,3.6-2.664S97.491,124.771,97.491,124.771Z" style="fill: #bc8b7d"/>
      <path d="M100.562,123.342c-.073-.641-5.316-.687-7.966-.42s-2.871-.848-4.84.266-4.559.6-5.161,1.97.9,1.949,2.28,1.6,4.652-.807,6.647-1.153,2.341.482,4.761-.45S100.694,124.517,100.562,123.342Z" style="fill: #916751"/>
      <path d="M110.121,79.905c-3.9-1.046-6.375-1.109-9.008-.139s-8.269,2.7-5.867,3.118,4.2-.554,6.768-1.386,1.455-1.178,5.2-.762S112.588,80.565,110.121,79.905Z" style="fill: #1d160c"/>
      <path d="M73.532,86.349c-6.306.277-8.8.693-9.216,1.941s.346,1.732,2.01,1.108a23.476,23.476,0,0,1,5.821-1.663c1.871-.138,5.89.624,4.157-.416A5.369,5.369,0,0,0,73.532,86.349Z" style="fill: #1d160c"/>
      <path d="M103.889,89.078c1.656.079,3.852.048,5.331.7a8.127,8.127,0,0,1,.14,1.488,7.294,7.294,0,0,1-1.988,5.154,8.914,8.914,0,0,1-4.751.144c-.731-.2-1.543-.389-2.317-.639a7.486,7.486,0,0,1-1.543-4.659,8.246,8.246,0,0,1,.076-1.076A10.513,10.513,0,0,1,103.889,89.078Z" style="fill: #412c19"/>
      <path d="M69.764,95.749a10.834,10.834,0,0,1,1.974-.2c2.332-.03,4.155-.275,5.444.034a7.724,7.724,0,0,1-.088,5.69c-.021.007-.035.017-.056.024-2.535.922-3.186,1.216-6.359.461-.218-.052-.407-.093-.609-.138a7.365,7.365,0,0,1-.747-3.294A7.585,7.585,0,0,1,69.764,95.749Z" style="fill: #412c19"/>
    </g>
  </g>
  <g style="clip-path: url(#ef7631d4-9dc6-43e7-b623-6c080e2c7b3b)">
    <g>
      <path d="M1270.947.739c.437-1.167.764-2.176,1.187-3.142a59.373,59.373,0,0,0,4.273-15.688c1.376-9.8,1.521-19.67,1.656-29.54.006-.44,0-.879,0-1.393h27.31c0,3.108-.035,6.162.007,9.216a171.547,171.547,0,0,0,1.8,23.649,59.246,59.246,0,0,0,4.535,15.06c.247.557.391,1.159.615,1.838Z" style="fill: #fff"/>
      <path d="M1291.545,16.606h-25.769a4.429,4.429,0,0,1-4.68-4.382,4.526,4.526,0,0,1,4.668-4.674c6.047-.02,12.093-.01,18.14-.01q16.7,0,33.4,0a4.721,4.721,0,0,1,4.6,2.831,4.5,4.5,0,0,1-4.256,6.236c-8.7.024-17.4.008-26.1.008Z" style="fill: #fff"/>
      <path d="M1291.548,6.431q-11.172,0-22.343.006a2.3,2.3,0,0,1-2.256-1.292,1.88,1.88,0,0,1,.331-2.342,3.458,3.458,0,0,1,2.031-.853c5.013-.071,10.028-.042,15.041-.041q11.944,0,23.889.01c1.954,0,3.908,0,5.861.026a2.294,2.294,0,0,1,2.5,2.22A2.378,2.378,0,0,1,1314,6.43Q1302.775,6.436,1291.548,6.431Z" style="fill: #fff"/>
    </g>
  </g>
  <g style="clip-path: url(#e798fd36-58bb-408a-b934-5a09cddb9bbf)">
    <g>
      <path d="M1327.285,172.748s-38.765,8.807-41.875,14.744-.848,16.964,1.414,16.964,40.461-15.324,40.461-15.324v-1.868l-1.041-.431.131-11.626.91-.461Z" style="fill: #fff"/>
      <path d="M1327.285,172.748l-33.859-29.657s-35.656,8.688-37.667,10.14-1.084,6.274-.413,8.062,30.291,42.19,30.291,42.19" style="fill: #fff"/>
      <path d="M1291.519,147.563c1.049-2.1,1.912-3.971,6.423-3.68a41.539,41.539,0,0,1,9.5,2.059l-4.738.229,3.967.975s-8.4-1.362-9.806-.409a33.506,33.506,0,0,0-3.355,2.818" style="fill: #fff"/>
      <path d="M1271.441,134.823c.161-2.04.032-4.084.077-6.126,0-1.442-.005-2.883-.108-4.32-.054-.357-.1-.714-.135-1.071a2.559,2.559,0,0,1,.073-.922q-.094-3.278-.188-6.555c2.238-.883,2.7-3.026,1.016-4.7a1.142,1.142,0,0,1-.391-.677q.066-.222.132-.441c.123-.009.162-.095.132-.245-.471-2.045-.868-2.35-2.544-1.958a2.952,2.952,0,0,0-.725,1.424l.24,1.013c-.008.277.144.559-.022.833h0a2.424,2.424,0,0,0-.707,3.5c.107.629.669.737,1.117.975h0c.472.261.814.572.441,1.156a5.834,5.834,0,0,0-.739,3.077,8.343,8.343,0,0,1-.4,2.177c-.7,3.436-1.16,6.909-1.668,10.375-.248,1.689-.329,1.677-1.841,1h0l-.42-.282a.56.56,0,0,0,.021-.083c-.431-1.053-1.513-1.532-2.132-2.42a8,8,0,0,1-.586-.607c-.877-.877-1.606-1.883-2.426-2.81a6.088,6.088,0,0,0-1.763-1.754l-4.08-4.942a.987.987,0,0,1-.466-.5c-.155-.372-.255-.8-.731-.857-.047-.571-.579-.959-.587-1.544.019-.052.037-.1.055-.156a3.869,3.869,0,0,0,.447-.984c-.066-.693.1-1.468-.672-1.913h0l-.544-.512h0a1.034,1.034,0,0,1-.381-1.192c.291-1.429-.69-2.47-1.857-2.1a1.692,1.692,0,0,0-.824,2.3,1.37,1.37,0,0,1-.185,1.706,3.387,3.387,0,0,0-.365.715,2.191,2.191,0,0,0,.375,1.835h0c.049.149.091.306.294.3a.523.523,0,0,0,.383.706c1.04.305,1.017.988.738,1.813a6.909,6.909,0,0,0-.153.8c-.37,1.518-.6,3.067-1.016,4.575-.052.737-.3,1.435-.423,2.157-.536,2.3-.894,4.649-1.476,6.945-.369,1.456-.71,2.919-1.094,4.372a5.923,5.923,0,0,1-.654,1.805,13.466,13.466,0,0,1-1.266,1.813c-.42-.135-.713.162-1.019.412a.52.52,0,0,0-.037.116l-.724.109h0a2.912,2.912,0,0,1-2.345-1.123c-.2-.171-.444-.113-.677-.126a14.591,14.591,0,0,1-5.455-1.7c-1.879-.64-3.824-1.08-5.642-1.9a5.737,5.737,0,0,1-1.105-.323c-1.651-.469-3.243-1.117-4.89-1.6-.9-.262-1.614-.675-1.716-1.728a.853.853,0,0,0-.4-.672l-.211.062h0l0-.009c-.446-.351-.838-.858-1.407-.93a2.734,2.734,0,0,1-1.883-1.13c-.468-.576-1.155-.947-1.858-.4a1.475,1.475,0,0,0-.226,2.008,1.888,1.888,0,0,0,.406.572,1.188,1.188,0,0,1,.348,1.361c-.319.49-.04.9.209,1.282a3.014,3.014,0,0,0,2.748,1.311c.029-.007.057-.016.085-.024l.437.751h0l.221,1.205a51.34,51.34,0,0,0,1.3,6.134,2.374,2.374,0,0,0,.155.331,11.057,11.057,0,0,1,.647,2.562c.315.923.164,2,.945,2.77q.318,1.429.637,2.859c.059.534.12,1.068.232,1.6-.009.494-.258.611-.716.518-.358-.073-.746-.24-1.084.059a.462.462,0,0,0-.034-.072c-.293-.213-.67-.362-.642-.825.1-1.554-.855-2.387-2.083-3.028a3.419,3.419,0,0,0-1.643-.194.75.75,0,0,1-.341-.015,1.713,1.713,0,0,0-2.738.212.71.71,0,0,0-.221.1c-.455.4-.326.9-.207,1.384a1.844,1.844,0,0,0,.21.447c.021.022.04.045.061.067-.106.347.141.649.231.967.3,1.042.178,1.211-.933,1.257-2.211-.477-4.413-1-6.622-1.489a2.476,2.476,0,0,0-.3-.024,6.905,6.905,0,0,1-1.1-.111c-.965-.166-1.961-.267-2.226-1.5-.038-.178-.209-.419-.455-.211h0a2.634,2.634,0,0,0-1.927-1.283h0a3.74,3.74,0,0,1-3.145-.993,1.1,1.1,0,0,0-.767-.163c-.532.054-1.1.129-1.122.871h0l-.13.269a3.028,3.028,0,0,0,1.777,2.135c.8.426.318,1.909,1.411,2.347a1.646,1.646,0,0,1,.253.159.361.361,0,0,0,.065.222,2.241,2.241,0,0,0,1.822.392c.486-.185,1.018-.308,1.2-.885a.936.936,0,0,0,.386.284c.074.035.145.074.218.11a1.455,1.455,0,0,0,.444.45c2.619,1.756,5.1,3.7,7.718,5.468a27.425,27.425,0,0,1,4.4,3.178.5.5,0,0,1,.454.13,35.921,35.921,0,0,0,4.784,3.269,2.7,2.7,0,0,0,1,.564,1.446,1.446,0,0,1,.108.137c.182.162.368.315.639.227a.781.781,0,0,1,.112-.047.691.691,0,0,0,.305.4c.206.1.411.189.608.054.385.526,1.046.824,1.131,1.6a4.555,4.555,0,0,0,2.279,3.5,2.893,2.893,0,0,1,1.2,1.436c.118.277.214.612.5.732a4.211,4.211,0,0,1,1.738,1.879.954.954,0,0,0,.1.019,1,1,0,0,0,.007.789.417.417,0,0,0-.1.122c-.088.427.18.758.3,1.127a6.823,6.823,0,0,0,1.316,2.038,21.615,21.615,0,0,0,2.287,1.033c2.858.718,5.647.113,8.418-.417a51.226,51.226,0,0,0,7.669-2.218,1.131,1.131,0,0,0,.973-.1c1.33-.581,2.658-1.17,3.944-1.847a54.92,54.92,0,0,0,6.323-3.672,97.917,97.917,0,0,0,10.545-7.613,48.83,48.83,0,0,0,7.5-7.814,9.812,9.812,0,0,0,1.9-3.756,1.311,1.311,0,0,1-.034-.4,7.211,7.211,0,0,0,.325-1.4.324.324,0,0,0,.265-.092c.657-1.552.026-2.946-.546-4.346a4.263,4.263,0,0,0-.71-.862,2.56,2.56,0,0,1-1.353-2.458,1.741,1.741,0,0,0-1.369-1.674,1.282,1.282,0,0,1-1.005-1.511,4.443,4.443,0,0,0-2.091-3.872,1.525,1.525,0,0,1-.614-.772,9.138,9.138,0,0,1-.427-1.453,16.743,16.743,0,0,0-.883-3.314.833.833,0,0,0-.192-.114c.006-.013.01-.025.017-.037C1271.6,135.4,1271.4,135.1,1271.441,134.823Zm-54.272,29.2a.57.57,0,0,1-.114-.054.661.661,0,0,0,.1-.025l.017.079Zm3.642.163a.6.6,0,0,1,.05-.126l.046.09Q1220.853,164.165,1220.811,164.183Zm15.264,11.012c-.021-.034,0-.027,0,0Zm-11.235-20.582c.009.041.02.082.032.123l-.129.006A.244.244,0,0,1,1224.84,154.613Zm1.464-9.28,0,.009-.014,0Zm-3.918,6.583-.02-.083a.612.612,0,0,1,.079.061A.537.537,0,0,0,1222.386,151.916Zm45.75,2.79.017-.035.01.012ZM1221.5,138.722l.013,0-.009.006,0-.011h0l-.012,0,.01,0,0,0Zm56.642,19.979-.011-.006.006-.007Zm1.253-2.99a.214.214,0,0,1-.058.035h0v-.029Zm-7.773-44.846.007.01-.027,0Zm-66.059,45.744,0,.021c-.013-.01-.027-.019-.04-.03h0Zm-5.3-2.332c-.013,0-.025,0-.038,0h0c.01-.019.016-.037.024-.056Z" style="fill: #fff"/>
    </g>
  </g>
</svg>
