<svg id="a6a2a64a-3a27-4122-b5e4-7356d0898b18" data-name="Layer 1" xmlns="http://www.w3.org/2000/svg" xmlns:xlink="http://www.w3.org/1999/xlink" width="1344.293" height="194.648" viewBox="0 0 1344.293 194.648">
  <defs>
    <clipPath id="b3a3c9ac-e78d-4cc7-963e-7990032126f9">
      <rect y="30.141" width="202.729" height="143.383" style="fill: none"/>
    </clipPath>
    <clipPath id="bfb330d9-0e9a-4324-b468-a4c7860f18d3">
      <rect x="9.315" y="-210.329" width="167.335" height="138.99" style="fill: none"/>
    </clipPath>
  </defs>
  <title>banner-10</title>
  <g style="clip-path: url(#b3a3c9ac-e78d-4cc7-963e-7990032126f9)">
    <g>
      <path d="M52.4,41.087c-4.357-1.568-6.275-4.009-9.76-3.834,0,0-6.8-.349-7.321,3.834s1.033,5.761-1.575,8.109-10.8,10.192-12.891,17.687-3.137,18.823-3.137,18.823S9.527,94.247,7.61,97.035s-1.14,11.165,0,12.194-1.2,1.763,1.513,2.425,2.245,1.316,3.461,2.532,2.9,1.5,5.145,1.5,6.361,0,7.483.561a5.118,5.118,0,0,1,2.619,2.245c1.123,1.59,1.5,2.058,1.593,3.367s1.557,17.206,0,23.853c-1.418,6.055-1.418,27.816-1.418,27.816H197.182s-15.1-31.183-15.1-34.551a15.456,15.456,0,0,0-8.418-12.628c-5.893-2.806-13.47-8.7-14.312-10.383s-1.964,2.245-3.648-5.051,1.029-7.576-3.18-10.757a90.932,90.932,0,0,1-9.167-7.67c-2.619-2.526-2.151-1.964-4.771-5.612s-4.209-2.9-6.08-9.448-2.619-5.238-3.741-7.577-.374-1.87-2.058-4.022-4.209-5.425-5.613-7.3a12.057,12.057,0,0,0-4.677-4.116c-2.619-1.5-4.676-2.432-6.454-4.583s-2.432-3.648-5.332-4.771-4.489-1.122-8.418-1.4-.655.468-7.109-.561a57.1,57.1,0,0,0-9.541-1.029c-2.245-.093-3.087-1.5-9.915-1.5s-7.764-.935-10.851,0A17.473,17.473,0,0,1,52.4,41.087Z" style="fill: #bca537"/>
      <path d="M127.288,173.525h69.894s-15.1-31.183-15.1-34.551a15.456,15.456,0,0,0-8.418-12.628c-5.893-2.806-13.47-8.7-14.312-10.383s-1.964,2.245-3.648-5.051,1.029-7.576-3.18-10.757a90.932,90.932,0,0,1-9.167-7.67c-2.619-2.526-2.151-1.964-4.771-5.613s-4.209-2.9-6.08-9.447-2.619-5.238-3.741-7.577-.374-1.871-2.058-4.022-4.209-5.425-5.613-7.3a12.06,12.06,0,0,0-4.676-4.116c-2.62-1.5-4.677-2.432-6.455-4.583s-2.432-3.648-5.332-4.771-4.489-1.122-8.418-1.4-.655.468-7.109-.561a57.1,57.1,0,0,0-9.541-1.029c-2.245-.093-3.087-1.5-9.915-1.5s-7.764-.935-10.851,0a17.473,17.473,0,0,1-6.39.517c-4.357-1.568-6.275-4.008-9.76-3.834,0,0-6.8-.349-7.321,3.834s1.033,5.761-1.575,8.11a66.34,66.34,0,0,0-7.608,8.121c4.842,2.7.961,3.1,1.629,4.606.71,1.6,1.954.177,2.953.177s1.132,1.6,3.8,4.618,3.908,1.954,6.395.889,2.842-4.263,4.42-6.449,2.507.232,5.633,0,5.577.409,5.091,4.836,1.552.724,7.329,5.174,3.282.879,6.123,4.076,5.151,2.842,5.862,5.06-.711,5.6-.711,5.6,3.73,2.132,11.013,2.309,9.591,1.066,7,4.8-4.864,3.019,1.708,3.012,5.329,2.316,5.359,4.271-2.517,2.131-9.977,4.973-2.487,2.486-.71,5.684.71,2.841.177,4.558-2.131,2.369-6.914,4.5-2.322,2.309-9.249,4.8-4.618,2.131-6.28,5.861,7.168,4.263,5.392,6.572-.355,1.6.888,4.8,3.552,2.659,7.282,2.837,7.638-1.066,28.775-2.487,2.486,1.776,1.776,4.263-.533,2.842-3.553,6.039-8.7,3.73-7.876,7.993,4.5-.178,11.784-.178,13.854,0,20.781,1.777c3.049.781-1.925,2.753-3.149,4.848C127.323,169.792,128.779,172.656,127.288,173.525Z" style="fill: #9b6503"/>
      <path d="M45.791,77.332c2.455-2.988,7.857-3.274,11.318-3.181s8.606-.374,9.541.374-3.367,5.332-6.454,5.426-6.347.462-9.44.323C49.046,80.2,43.756,79.808,45.791,77.332Z" style="fill: #292100"/>
      <path d="M84,55.63c1.071-3.568,4.163-7.018,5.71-7.85s2.854-2.022,6.066-2.141,5.71-.238,7.494,1.189a26.68,26.68,0,0,1,4.4,4.282c2.855,3.093,2.974,3.093,3.806,6.305s1.666,3.33,2.141,5.114,2.5,1.19.714,4.283a29.867,29.867,0,0,0-2.736,6.64c-.832,2.281,1.547,2.875-2.379,3.232a9.866,9.866,0,0,1-8.207-2.592,8.044,8.044,0,0,1-2.141-2.76l2.671.715c2.154.578,4.941,2.853,6.012.355s1.729-2.1,1.4-3.727-.092.278-.092-2.458.714-2.617,0-3.807-.951.119-.951-2.5.476-.237-.714-3.568-.119-2.974-2.26-4.4-2.907-1.9-5.2-3.212-3.721-2.855-5.862-.832-2.617,1.784-4.639,3.568a7.1,7.1,0,0,0-2.5,3.45c-.357.832.595-.357-1.428,1.427S84,55.63,84,55.63Z" style="fill: #5e3101"/>
      <path d="M95.894,54.084c-2.022,0-4.044-2.617-2.617,0s2.022,2.5,1.546,3.687-1.665.238-1.308,2.26S92.2,63.124,92.8,62.886a33.232,33.232,0,0,1,3.1-1.374c.871-.234,1.07-1.415,2.855,1.407s1.595,3.526,1.784,2.822a4.088,4.088,0,0,1,.476-1.665c.595-1.309.357-1.071,1.189-1.785s2.5,2.731,1.428-1.132-.91-4.185-2.12-5.273-2.041-1.8-2.041-1.8Z" style="fill: #654102"/>
      <path d="M13.409,96.221c1-3.128,2.964-7.2,6.191-9.021s3.876-3.648,7.41-5.612,1.71-.461,5.919-1.283,4.733-.962,6.409-1.411,1.87-2.414,2.571,0,1.123,3.956,0,5.78a23.38,23.38,0,0,1-4.49,4.631c-1.543,1.4.7.7-4.49,2.666s-6.594,1.122-8,2.385-1.974.28-2.671,2.666-.136,2.245-2.381,3.367-3.086,3.368-3.928.982A32.676,32.676,0,0,0,13.409,96.221Z" style="fill: #6a4502"/>
      <path d="M37.42,47.051c2.236-1.626,3.252-1.423,5.692-2.44s2.541-.3,5.184-1.524,4.473-1.22,2.643-1.22-1.627-1.321-4.066,0-3.406.836-5.082,2.3A27.8,27.8,0,0,1,37.42,47.051Z" style="fill: #5e3101"/>
      <path d="M26.889,74.092c.887-1.938-3.294-3.639-6.665-4.7h0c-.472,2.059-.878,4.258-1.217,6.356h0A26.6,26.6,0,0,1,22.581,77.2C25.115,78.368,26,76.029,26.889,74.092Z" style="fill: #292100"/>
      <path d="M9.667,97.143c3.821-1.146,6.958-1.726,9.619-.2s5.069,2.868,4.942,5.109-1.955,4.531-3.8,5.662a16.1,16.1,0,0,1-4.519,1.971,14.711,14.711,0,0,1-4.985.31c-2.028-.254-4.816-.507-5.323-2.028A17.775,17.775,0,0,1,4.46,103.1C4.666,100.487,5.3,98.452,9.667,97.143Z" style="fill: #342803"/>
      <path d="M11.871,113.312a10.986,10.986,0,0,1,3.8.687c2.526.935,11.506,1.4,15.434,1.5s5.145-.562,8.232-.842,4.116-1.4,5.995-2.806a21.385,21.385,0,0,0,4.855-5.893c1.31-2.152-.654-1.59-2.806,0s-2.338,2.058-5.238,4.957c0,0-3.648,1.59-5.893,2.432s-13.1-.654-15.836-2.023-10.7.473-12.03-1.011a.781.781,0,0,0-.45-.289c-.1.638-.771,1.155,1.189,1.633C11.1,112.136,11.389,112.616,11.871,113.312Z" style="fill: #3d2100"/>
    </g>
  </g>
  <polygon points="204.411 104.462 162.931 172.476 0 172.476 0 194.648 279.306 194.648 1344.293 194.648 1344.293 104.462 204.411 104.462" style="fill: #212026"/>
  <g>
    <path d="M251.923,143.986l.176.156v.957l-.156.137a14.16,14.16,0,0,0-2.666.215,1.209,1.209,0,0,0-.733.517,3.311,3.311,0,0,0-.244,1.416q-.03,1.054-.107,5.957v9q0,1.953.058,4.414a11.958,11.958,0,0,0,.244,2.861,1.148,1.148,0,0,0,.674.586,12.313,12.313,0,0,0,2.774.245l.156.136v.957l-.176.157q-3.183-.177-5.547-.176-1.6,0-5.449.176l-.176-.157v-.937l.156-.156a14.356,14.356,0,0,0,2.666-.215,1.22,1.22,0,0,0,.733-.518,3.447,3.447,0,0,0,.254-1.435q.039-1.074.1-5.938V148.009l-6.738,14.1q-2.54,5.292-4.433,9.961h-.762q-1.095-2.52-1.8-4.024l-9.336-19.394v13.652q0,1.914.049,4.4a11.3,11.3,0,0,0,.244,2.881,1.231,1.231,0,0,0,.684.586,11.39,11.39,0,0,0,2.773.234l.156.157v.937l-.175.176-1.25-.059q-1.935-.1-3.321-.1-.626,0-4.668.156l-.156-.156v-.938l.156-.176a13.525,13.525,0,0,0,2.656-.195,1.238,1.238,0,0,0,.733-.527,3.139,3.139,0,0,0,.254-1.387q.029-1.016.088-6v-8.945q0-1.778-.049-4.326a12.472,12.472,0,0,0-.235-2.95,1.182,1.182,0,0,0-.673-.595,11.433,11.433,0,0,0-2.774-.235l-.156-.156v-.938l.176-.175q1.347.1,3.633.1,2.148,0,3.75-.1,1.64,3.789,3.144,6.855l7.4,15.195,6.68-13.925q2.715-5.644,3.652-8.125,1.875.1,3.692.1Q249.7,144.083,251.923,143.986Z" style="fill: #fff"/>
    <path d="M254.443,144.064l.156-.137q6.7.117,8.574.117,6.407,0,11.406-.117l.1.137a33.311,33.311,0,0,0-.723,5.879l-.117.156h-.957l-.176-.156a2.888,2.888,0,0,0,.02-.313,19.031,19.031,0,0,0-.254-3.164,10.636,10.636,0,0,0-3.408-.713q-2.178-.165-3.272-.166-1.543,0-3.945.215l-.078,3.125-.059,3.574-.058,3.965q2.109.117,3.886.117,1.8,0,3.008-.117a5.057,5.057,0,0,0,1.416-.244.821.821,0,0,0,.313-.488,7.409,7.409,0,0,0,.185-1.28l.078-1.21.157-.157h.9l.156.157q-.039,2.127-.1,4.277l.1,4.394-.156.157h-.9l-.157-.157-.136-1.171q-.177-1.368-.254-1.631a.864.864,0,0,0-.362-.459,3.9,3.9,0,0,0-1.455-.313q-1.171-.117-3.222-.117-1.134,0-3.457.1-.1,1.639-.1,5.468,0,4.1.1,6.036h3.593q4.746,0,5.938-.118a7.813,7.813,0,0,0,2.266-.566q.176-.45.576-2.08t.459-2.041l.195-.137h.937l.157.137a26.736,26.736,0,0,0-.342,2.93q-.166,2.09-.166,3.574l-.137.156q-3.73-.117-9.765-.117l-5.313-.039q-1.856,0-3.867.156l-.156-.156v-.645l.156-.195a10.477,10.477,0,0,0,1.318-.733,15.207,15.207,0,0,0,.274-3.417q.106-3.271.107-4.991v-7.168l-.019-4.433q0-1.446-.039-2.354a7.424,7.424,0,0,0-.137-1.3,1.479,1.479,0,0,0-.225-.546.939.939,0,0,0-.41-.264,4.511,4.511,0,0,0-.967-.186l-1.484-.117-.156-.137Z" style="fill: #fff"/>
    <path d="M314.189,143.986l.175.156v.957l-.156.137a14.18,14.18,0,0,0-2.666.215,1.209,1.209,0,0,0-.732.517,3.28,3.28,0,0,0-.244,1.416q-.03,1.054-.108,5.957v9q0,1.953.059,4.414a11.958,11.958,0,0,0,.244,2.861,1.148,1.148,0,0,0,.674.586,12.309,12.309,0,0,0,2.773.245l.156.136v.957l-.175.157q-3.185-.177-5.547-.176-1.6,0-5.449.176l-.176-.157v-.937l.156-.156a14.366,14.366,0,0,0,2.666-.215,1.22,1.22,0,0,0,.733-.518,3.435,3.435,0,0,0,.253-1.435q.039-1.074.1-5.938V148.009l-6.738,14.1q-2.539,5.292-4.434,9.961h-.762q-1.094-2.52-1.8-4.024l-9.336-19.394v13.652q0,1.914.048,4.4a11.277,11.277,0,0,0,.245,2.881,1.232,1.232,0,0,0,.683.586,11.394,11.394,0,0,0,2.774.234l.156.157v.937l-.176.176-1.25-.059q-1.933-.1-3.32-.1-.625,0-4.668.156l-.156-.156v-.938l.156-.176a13.534,13.534,0,0,0,2.656-.195,1.242,1.242,0,0,0,.733-.527,3.127,3.127,0,0,0,.253-1.387q.03-1.016.088-6v-8.945q0-1.778-.049-4.326a12.44,12.44,0,0,0-.234-2.95,1.185,1.185,0,0,0-.674-.595,11.422,11.422,0,0,0-2.773-.235l-.156-.156v-.938l.175-.175q1.349.1,3.633.1,2.148,0,3.75-.1,1.641,3.789,3.145,6.855l7.4,15.195,6.68-13.925q2.713-5.644,3.652-8.125,1.875.1,3.692.1Q311.962,144.083,314.189,143.986Z" style="fill: #fff"/>
    <path d="M316.708,144.064l.156-.137q6.7.117,8.575.117,6.4,0,11.406-.117l.1.137a33.215,33.215,0,0,0-.723,5.879l-.117.156h-.957l-.176-.156a2.865,2.865,0,0,0,.019-.313,19.033,19.033,0,0,0-.253-3.164,10.643,10.643,0,0,0-3.409-.713q-2.178-.165-3.271-.166-1.543,0-3.945.215l-.079,3.125-.058,3.574-.059,3.965q2.11.117,3.887.117,1.8,0,3.008-.117a5.057,5.057,0,0,0,1.416-.244.815.815,0,0,0,.312-.488,7.283,7.283,0,0,0,.186-1.28l.078-1.21.156-.157h.9l.156.157q-.039,2.127-.1,4.277l.1,4.394-.156.157h-.9l-.156-.157-.137-1.171a16.4,16.4,0,0,0-.254-1.631.858.858,0,0,0-.361-.459,3.9,3.9,0,0,0-1.455-.313q-1.172-.117-3.223-.117-1.132,0-3.457.1-.1,1.639-.1,5.468,0,4.1.1,6.036h3.594q4.746,0,5.938-.118a7.806,7.806,0,0,0,2.265-.566q.176-.45.576-2.08t.459-2.041l.2-.137h.937l.156.137a26.806,26.806,0,0,0-.341,2.93q-.166,2.09-.166,3.574l-.137.156q-3.731-.117-9.766-.117l-5.312-.039q-1.857,0-3.867.156l-.157-.156v-.645l.157-.195a10.477,10.477,0,0,0,1.318-.733,15.25,15.25,0,0,0,.273-3.417q.108-3.271.108-4.991v-7.168l-.02-4.433q0-1.446-.039-2.354a7.326,7.326,0,0,0-.137-1.3,1.481,1.481,0,0,0-.224-.546.946.946,0,0,0-.41-.264,4.525,4.525,0,0,0-.967-.186l-1.485-.117-.156-.137Z" style="fill: #fff"/>
    <path d="M350.3,144.064l.156-.137q3.379.158,4.61.156l9.14-.195a23.309,23.309,0,0,1,6.406.732,10.99,10.99,0,0,1,4.444,2.54,12.072,12.072,0,0,1,2.949,4.2,13.051,13.051,0,0,1,1.006,5.107,15.447,15.447,0,0,1-.918,5.215,15.142,15.142,0,0,1-2.607,4.619,14.29,14.29,0,0,1-3.848,3.291,13.92,13.92,0,0,1-4.326,1.67,23.271,23.271,0,0,1-4.434.42q-1.524,0-5.742-.117-1.387-.04-1.836-.039-1.347,0-3.262.156l-.156-.156v-.645l.156-.195a10.53,10.53,0,0,0,1.319-.733,15.324,15.324,0,0,0,.273-3.417q.106-3.271.107-4.991v-7.168l-.019-4.433q0-1.446-.039-2.354a7.326,7.326,0,0,0-.137-1.3,1.481,1.481,0,0,0-.224-.546.944.944,0,0,0-.411-.264,4.512,4.512,0,0,0-.966-.186l-1.485-.117-.156-.137Zm7.227,25.488a23.984,23.984,0,0,0,4.589.391,14.9,14.9,0,0,0,7.276-1.524,9.462,9.462,0,0,0,4.072-4.511,16.229,16.229,0,0,0,1.348-6.739q0-5.526-2.95-8.574t-9.3-3.047a31.528,31.528,0,0,0-5.039.391q-.158,3.2-.157,7.226V159.3l.039,5.742Q357.411,166.72,357.529,169.552Z" style="fill: #fff"/>
    <path d="M381.825,143.927l2.442.078q2.4.078,3.144.078.664,0,5.606-.156l.156.137v.976l-.156.137q-1.349.039-2.08.117a2.527,2.527,0,0,0-1.065.293,1.386,1.386,0,0,0-.439,1.006,17.2,17.2,0,0,0-.108,2.2l-.039,4.493v9.043l.02,3.808a26.571,26.571,0,0,0,.117,2.852,1.821,1.821,0,0,0,.283.859,1.46,1.46,0,0,0,.713.361,15.416,15.416,0,0,0,2.6.225l.156.117v.977l-.156.156q-.1,0-3.438-.117-1.386-.04-2.168-.039-.6,0-5.586.156l-.156-.156v-.977l.156-.117a20.391,20.391,0,0,0,2.422-.2,1.782,1.782,0,0,0,.811-.3,1.537,1.537,0,0,0,.332-.791,18.077,18.077,0,0,0,.146-2.695l.02-4.121v-9.043l-.039-3.809q-.019-2.226-.108-2.871a1.758,1.758,0,0,0-.273-.859,1.408,1.408,0,0,0-.713-.352,16.752,16.752,0,0,0-2.6-.215l-.156-.137v-.976Z" style="fill: #fff"/>
    <path d="M395.693,164.806l.156-.156h.957l.156.156a18.008,18.008,0,0,0,.264,3.057,2.493,2.493,0,0,0,1.054,1.172,7.555,7.555,0,0,0,2.364,1,11.554,11.554,0,0,0,2.978.391,8.78,8.78,0,0,0,3.721-.762,5.821,5.821,0,0,0,2.568-2.236,6.137,6.137,0,0,0,.918-3.311,5.338,5.338,0,0,0-.439-2.246,3.834,3.834,0,0,0-1.231-1.533,5.565,5.565,0,0,0-1.806-.859,30.787,30.787,0,0,0-3.028-.615q-1.953-.314-3.056-.567a10.455,10.455,0,0,1-2.2-.781,5.864,5.864,0,0,1-1.827-1.338,6.107,6.107,0,0,1-1.172-1.992,7.2,7.2,0,0,1-.439-2.53,7.766,7.766,0,0,1,2.539-5.986,9.678,9.678,0,0,1,6.816-2.334,18.122,18.122,0,0,1,3.7.42,15,15,0,0,1,3.642,1.24l.137.235a26.647,26.647,0,0,0-.527,5.117l-.176.156h-1.016l-.156-.137q-.039-2.343-.117-2.949t-1.778-1.5a7.784,7.784,0,0,0-3.691-.9,7.355,7.355,0,0,0-3.105.664,4.544,4.544,0,0,0-2.188,2.09,6.233,6.233,0,0,0-.742,2.91,4.459,4.459,0,0,0,.449,2.041,3.828,3.828,0,0,0,1.162,1.406,5,5,0,0,0,1.66.772q.948.254,3.467.625a20.592,20.592,0,0,1,5.029,1.181,5.6,5.6,0,0,1,2.52,2.2,6.68,6.68,0,0,1,.947,3.632,8.608,8.608,0,0,1-3.388,6.934,12.552,12.552,0,0,1-8.213,2.773,16.365,16.365,0,0,1-7.09-1.445l-.117-.254Q395.6,169.318,395.693,164.806Z" style="fill: #fff"/>
    <path d="M442.392,168.224l-.742,1.816a20.119,20.119,0,0,1-9.258,2.207q-7.052,0-11.455-4a13.482,13.482,0,0,1-4.405-10.469,13.8,13.8,0,0,1,2.2-7.783,13.624,13.624,0,0,1,5.8-4.981,19.215,19.215,0,0,1,8.1-1.65,24.3,24.3,0,0,1,5.137.547A21.588,21.588,0,0,1,442,145.216l.137.195a24.89,24.89,0,0,0-.84,5.411l-.137.156h-.918l-.156-.156-.195-3.321a10.579,10.579,0,0,0-3.447-1.767,13.975,13.975,0,0,0-4.209-.635,12.231,12.231,0,0,0-5.918,1.416,9.864,9.864,0,0,0-4.063,4.1,13.709,13.709,0,0,0-1.445,6.572,13.484,13.484,0,0,0,1.7,6.855,11.633,11.633,0,0,0,4.639,4.532,14.277,14.277,0,0,0,6.865,1.582,16.444,16.444,0,0,0,3.34-.332,12.7,12.7,0,0,0,2.666-.821,12.186,12.186,0,0,0,2.041-1.191Z" style="fill: #fff"/>
    <path d="M444.443,158.068a17.307,17.307,0,0,1,.839-5.469,12.668,12.668,0,0,1,2.862-4.7,13.833,13.833,0,0,1,4.873-3.34,16.694,16.694,0,0,1,6.445-1.182q6.66,0,10.606,3.623t3.945,9.893a16.183,16.183,0,0,1-1.934,7.93,13.529,13.529,0,0,1-5.537,5.468,16.711,16.711,0,0,1-8.095,1.953,15.707,15.707,0,0,1-5.86-1.064,11.951,11.951,0,0,1-4.56-3.174,12.91,12.91,0,0,1-2.735-4.883A17.415,17.415,0,0,1,444.443,158.068Zm4.062-1.289a18.974,18.974,0,0,0,.772,5.127,13.479,13.479,0,0,0,2.3,4.707,9.914,9.914,0,0,0,3.535,2.92,11.25,11.25,0,0,0,9.952-.43,8.714,8.714,0,0,0,3.593-4.307,16.708,16.708,0,0,0,1.231-6.552,17.468,17.468,0,0,0-1.406-7.129,9.437,9.437,0,0,0-4-4.629,11.647,11.647,0,0,0-5.762-1.446,9.669,9.669,0,0,0-7.481,2.969Q448.5,150.979,448.505,156.779Z" style="fill: #fff"/>
    <path d="M475.536,144.064l.157-.137q4.844.158,5.586.156.663,0,5.605-.156l.156.137v.976l-.156.137q-1.347.039-2.08.117a2.536,2.536,0,0,0-1.065.293,1.386,1.386,0,0,0-.439,1.006,17.238,17.238,0,0,0-.107,2.2l-.039,4.493v6.211q0,3.065.126,4.5a8.021,8.021,0,0,0,.547,2.422,4.448,4.448,0,0,0,1.28,1.7,6.672,6.672,0,0,0,2.461,1.162,13.476,13.476,0,0,0,3.632.449,13.1,13.1,0,0,0,4.014-.6,6.1,6.1,0,0,0,2.842-1.728,5.928,5.928,0,0,0,1.279-2.979,33.461,33.461,0,0,0,.3-5.127v-6.015q0-1.524-.049-4.19a13.385,13.385,0,0,0-.234-3.066,1.224,1.224,0,0,0-.684-.606,10.891,10.891,0,0,0-2.764-.244l-.156-.156V144.1l.156-.176q2.891.158,4.629.156,1.485,0,4.61-.156l.176.156v.938l-.176.156a18.155,18.155,0,0,0-2.393.147,1.555,1.555,0,0,0-.781.322,1.316,1.316,0,0,0-.332.664,18.174,18.174,0,0,0-.147,2.578l-.058,4.395v5.937a44.762,44.762,0,0,1-.274,5.606,7.355,7.355,0,0,1-1.22,3.369A9.067,9.067,0,0,1,497.7,170.4a9.91,9.91,0,0,1-3.331,1.367,18.334,18.334,0,0,1-4.218.478,17.505,17.505,0,0,1-4.834-.605,9.17,9.17,0,0,1-3.311-1.6,6.292,6.292,0,0,1-1.738-2.1,7.9,7.9,0,0,1-.684-2.6q-.156-1.494-.156-4.56v-7.5l-.039-3.809q-.02-2.226-.107-2.871a1.767,1.767,0,0,0-.274-.859,1.408,1.408,0,0,0-.713-.352,16.748,16.748,0,0,0-2.6-.215l-.157-.137Z" style="fill: #fff"/>
    <path d="M506.884,144.064l.156-.137q3.575.158,5.567.156,2.207,0,5.957-.136,1.386-.041,2.011-.039,4.941,0,6.7,1.8a5.885,5.885,0,0,1,1.757,4.258,6.681,6.681,0,0,1-.859,3.223,7.65,7.65,0,0,1-2.539,2.7,12.649,12.649,0,0,1-4.629,1.689q.546.762,1.973,2.637l2.773,3.672q1.349,1.816,2.891,3.838a12.317,12.317,0,0,0,1.992,2.285,2.468,2.468,0,0,0,.771.322,6.368,6.368,0,0,0,1.026.059l.156.156v.918l-.176.176a18.275,18.275,0,0,0-2.226-.117q-1.387,0-3.028.117-1.347-1.641-4.238-5.684-3.36-4.687-6.875-8.691l.2-.606q1.015.06,1.583.059a7.936,7.936,0,0,0,5.292-1.621,5.571,5.571,0,0,0,1.915-4.492,4.61,4.61,0,0,0-1.719-3.9,7.455,7.455,0,0,0-4.649-1.318,12.907,12.907,0,0,0-3.867.566q-.292.429-.293,7.325v9.043l.02,3.808a26.023,26.023,0,0,0,.117,2.852,1.821,1.821,0,0,0,.283.859,1.455,1.455,0,0,0,.713.361,15.416,15.416,0,0,0,2.6.225l.156.117v.977l-.156.156q-.1,0-3.438-.117-1.387-.04-2.168-.039-.606,0-5.586.156l-.156-.156v-.977l.156-.117a20.391,20.391,0,0,0,2.422-.2,1.787,1.787,0,0,0,.811-.3,1.546,1.546,0,0,0,.332-.791,18.077,18.077,0,0,0,.146-2.695l.02-4.121v-9.043l-.039-3.809q-.021-2.226-.108-2.871a1.768,1.768,0,0,0-.273-.859,1.412,1.412,0,0,0-.713-.352,16.766,16.766,0,0,0-2.6-.215l-.156-.137Z" style="fill: #fff"/>
    <path d="M534.325,164.806l.157-.156h.957l.156.156a18.008,18.008,0,0,0,.264,3.057,2.493,2.493,0,0,0,1.054,1.172,7.555,7.555,0,0,0,2.364,1,11.554,11.554,0,0,0,2.978.391,8.78,8.78,0,0,0,3.721-.762,5.821,5.821,0,0,0,2.568-2.236,6.137,6.137,0,0,0,.918-3.311,5.338,5.338,0,0,0-.439-2.246,3.834,3.834,0,0,0-1.231-1.533,5.575,5.575,0,0,0-1.806-.859,30.85,30.85,0,0,0-3.028-.615q-1.953-.314-3.056-.567a10.463,10.463,0,0,1-2.2-.781,5.859,5.859,0,0,1-1.826-1.338,6.107,6.107,0,0,1-1.172-1.992,7.2,7.2,0,0,1-.439-2.53,7.766,7.766,0,0,1,2.539-5.986,9.678,9.678,0,0,1,6.816-2.334,18.106,18.106,0,0,1,3.7.42,14.99,14.99,0,0,1,3.643,1.24l.137.235a26.633,26.633,0,0,0-.528,5.117l-.175.156h-1.016l-.156-.137q-.04-2.343-.117-2.949t-1.778-1.5a7.786,7.786,0,0,0-3.691-.9,7.362,7.362,0,0,0-3.106.664,4.538,4.538,0,0,0-2.187,2.09,6.233,6.233,0,0,0-.742,2.91,4.459,4.459,0,0,0,.449,2.041,3.818,3.818,0,0,0,1.162,1.406,4.986,4.986,0,0,0,1.66.772q.948.254,3.467.625a20.592,20.592,0,0,1,5.029,1.181,5.6,5.6,0,0,1,2.52,2.2,6.68,6.68,0,0,1,.947,3.632,8.607,8.607,0,0,1-3.389,6.934,12.548,12.548,0,0,1-8.213,2.773,16.363,16.363,0,0,1-7.089-1.445l-.118-.254A57.438,57.438,0,0,0,534.325,164.806Z" style="fill: #fff"/>
    <path d="M555.2,144.064l.157-.137q6.7.117,8.574.117,6.405,0,11.406-.117l.1.137a33.215,33.215,0,0,0-.723,5.879l-.117.156h-.957l-.176-.156a2.888,2.888,0,0,0,.02-.313,19.031,19.031,0,0,0-.254-3.164,10.643,10.643,0,0,0-3.409-.713q-2.178-.165-3.271-.166-1.543,0-3.945.215l-.078,3.125-.059,3.574-.059,3.965q2.111.117,3.887.117,1.8,0,3.008-.117a5.057,5.057,0,0,0,1.416-.244.815.815,0,0,0,.312-.488,7.283,7.283,0,0,0,.186-1.28l.078-1.21.156-.157h.9l.156.157q-.039,2.127-.1,4.277l.1,4.394-.156.157h-.9l-.156-.157-.137-1.171a16.4,16.4,0,0,0-.254-1.631.858.858,0,0,0-.361-.459,3.9,3.9,0,0,0-1.455-.313q-1.172-.117-3.223-.117-1.133,0-3.457.1-.1,1.639-.1,5.468,0,4.1.1,6.036h3.594q4.746,0,5.938-.118a7.8,7.8,0,0,0,2.265-.566q.176-.45.576-2.08t.459-2.041l.2-.137h.937l.156.137a26.806,26.806,0,0,0-.341,2.93q-.167,2.09-.166,3.574l-.137.156q-3.731-.117-9.766-.117l-5.312-.039q-1.857,0-3.867.156l-.157-.156v-.645l.157-.195a10.477,10.477,0,0,0,1.318-.733,15.25,15.25,0,0,0,.273-3.417q.108-3.271.108-4.991v-7.168l-.02-4.433q0-1.446-.039-2.354a7.448,7.448,0,0,0-.136-1.3,1.5,1.5,0,0,0-.225-.546.946.946,0,0,0-.41-.264,4.511,4.511,0,0,0-.967-.186l-1.484-.117-.157-.137Z" style="fill: #fff"/>
  </g>
  <g style="clip-path: url(#bfb330d9-0e9a-4324-b468-a4c7860f18d3)">
    <g>
      <path d="M175.4-155.153c-2.456-3.092-7.094-6.275-10.641-6.548a31.742,31.742,0,0,0-15.59,2.954c-5.965,2.867-11.513,9.142-16.7,8.506s-6,1.091-15.825-8.186S87.538-187.44,81.535-189.9s-9.914-8.731-30.1-7c0,0-8.458,1.546-12.005,4.093,0,0-.9-.4-.307-1.144a1.543,1.543,0,0,0-.569-2.347s.921-.75.716-1.569-1.023-1.33-1.466-1.841.375-.921.579-1.433a4.635,4.635,0,0,0,.069-2.217c-.444-1.859-7.947-.614-7.947-.614-2.456.341-5.014,1.637-4.946,2.456s1.433,2.251,1.638,2.456-.614.2-.819,1.023a3.281,3.281,0,0,0,.409,2.251c.273.409-.546,1.091-.068,2.387a10.077,10.077,0,0,0,.886,1.91l4.912,36.767a4.148,4.148,0,0,0,0,2.524,4.733,4.733,0,0,0,1.023,1.569c.41.477,1.092,1.182.751,1.75a7.37,7.37,0,0,0-.682,1.842c-.148.553-.478,1.729-.069,2.138a3.824,3.824,0,0,1,.843,1.3l.249.546L52.976-4.447s-2.183-.341-1.3,1.433S54.2-1.241,54.136-.423s.422,1.187-.3,1.685-1.064.7-1.133,1.522-.273,1.773.41,2.251,1.637,1.3,1.637,1.3l3.342,33.492s-2.66.409-3,1.569a7.034,7.034,0,0,1-.751,1.774s-2.251,1.364-2.114,2.8-.409,3.751.887,4.365,4.229,1.3,4.979,2.183,3.07,2.115,4.093,3.547,2.387,3.615,2.387,3.615-4.3,1.228-5.116,2.456-2.469,2.479-1.644,4.309,1.3,3.7,3.691,3.467,9.55-2.319,10.709-2.319,4.025-.477,5.048-.614,6.753.409,6.958-.887a31.029,31.029,0,0,0,.2-3.615s2.528-1.948,4.5-1.842,6.275-.75,8.594-.955,1.979-1.023,4.571-.2a20.479,20.479,0,0,1,5.457,2.523c1.637,1.024.955,1.843,2.728,2.047s3.138.136,3.82-.478.273-.477,1.3-1.091,2.183-.478,2.047-1.637-2.456-4.57-3.411-5.252-3.411-1.16-3.479-1.706,2.115-2.592,2.115-3.411-.682-3.137.409-3.546,2.319-.2,1.637-1.024-1.569-2.728-2.046-3.069a3.04,3.04,0,0,0-.877-.448l59.79-172.245,4.366-13.734S177.852-152.061,175.4-155.153ZM153.75-132.415,70.067,31.317l-1.2.321S64.436,5.853,64.163,5.171s.046-.819.318-1.3.478-.409.751-1.387-.41-1.41-.591-1.842S63.276-.445,62.958-.627s0-.614,0-.682a10.552,10.552,0,0,1,.682-.91A3.961,3.961,0,0,0,64.413-4.2c.068-.841-1.3-2.387-1.655-2.736s-.346-1.289-.346-1.289S45.561-139.5,45.394-140.253a44.42,44.42,0,0,1-.408-4.509c-.088-1.547.53-1.326.84-2.387a2.4,2.4,0,0,0-1.282-2.564,2.654,2.654,0,0,1-1.238-1.282c-.4-.619,0-.707.486-1.193a14.168,14.168,0,0,0,1.6-1.768c.628-.84-1.292-1.989-1.822-2.343s2.121-2.829,3.713-3.757a37.25,37.25,0,0,1,12.422-5.01c7.958-1.819,18.69,4.82,18.69,4.82,2.865,1.228,23.738,18.236,23.738,18.236,11.142,8.867,20.6,10.5,26.74,11.232s12.6-2.91,12.6-2.91a123.894,123.894,0,0,0,11.551-6.731c1.365-1.137,3.411-2.592,4.42-2.76s.628.168.855.987S153.75-132.415,153.75-132.415Z" style="fill: #b17840"/>
      <line x1="74.208" y1="-177.906" x2="86.768" y2="6.418" style="fill: none;stroke: #292929;stroke-miterlimit: 10;stroke-width: 0.621498259523723px"/>
      <line x1="69.18" y1="-181.401" x2="81.575" y2="19.166" style="fill: none;stroke: #292929;stroke-miterlimit: 10;stroke-width: 0.621498259523723px"/>
      <line x1="64.438" y1="-183.928" x2="77.973" y2="24.684" style="fill: none;stroke: #292929;stroke-miterlimit: 10;stroke-width: 0.621498259523723px"/>
      <line x1="58.2" y1="-185.164" x2="75.378" y2="29.251" style="fill: none;stroke: #292929;stroke-miterlimit: 10;stroke-width: 0.621498259523723px"/>
      <line x1="51.733" y1="-185.528" x2="73.407" y2="33.818" style="fill: none;stroke: #292929;stroke-miterlimit: 10;stroke-width: 0.621498259523723px"/>
      <polygon points="154.477 -129.738 72.144 35.389 74.208 35.389 156.115 -128.689 154.477 -129.738" style="fill: #8c5521"/>
    </g>
  </g>
  <g>
    <path d="M1272.576,154.368q-1.929,2.493-3.857,4.988c-.336.435-.321.569.106.9l13.134,10.155q1.688,1.305,3.378,2.6a.3.3,0,0,1,.049.5c-1.894,2.322-3.681,4.726-5.521,7.089q-3.553,4.569-7.083,9.157c-.264.342-.277.331-.609.072a21.45,21.45,0,0,0-1.95-1.458c-.332-.2-.574-.515-.885-.742-1.032-.754-2.026-1.559-3.052-2.322-.933-.694-1.813-1.468-2.751-2.158-1.3-.957-2.539-1.988-3.818-2.968-.412-.316-.869-.571-1.257-.909-.743-.648-1.541-1.223-2.308-1.839-.2-.158-.41-.3-.6-.469s-.337-.159-.493.06c-.477.669-.989,1.314-1.495,1.961q-1.1,1.4-2.189,2.811-1.777,2.281-3.541,4.575c-.253.328-.5.664-.746,1-.061.081-.124.179-.242.146s-.1-.144-.114-.23c-.265-1.316-.524-2.633-.794-3.948-.258-1.26-.526-2.519-.788-3.779-.2-.945-.389-1.892-.59-2.837a1.138,1.138,0,0,0-.193-.53c-.091-.11.053-.243.024-.379-.092-.441-.133-.9-.265-1.325-.114-.371-.12-.752-.2-1.124-.191-.829-.341-1.669-.507-2.5q-.421-2.125-.844-4.252-.435-2.175-.876-4.349c-.261-1.292-.514-2.585-.785-3.875-.188-.892-.331-1.793-.547-2.681-.162-.669-.253-1.354-.4-2.027a14.893,14.893,0,0,0-.361-1.6,3.792,3.792,0,0,1-.11-.81c-.021-.2.107-.233.269-.242.77-.043,1.539-.087,2.309-.137.91-.058,1.819-.164,2.73-.171.749,0,1.485-.138,2.236-.132s1.513-.1,2.271-.142c.788-.047,1.578-.076,2.366-.125.717-.046,1.435-.083,2.152-.138,1.087-.083,2.179-.118,3.268-.173.788-.039,1.583-.075,2.371-.117,1.838-.1,3.678-.183,5.515-.294,1.164-.071,2.33-.114,3.492-.207,1.409-.112,2.823-.127,4.231-.264.994-.1,1.995-.111,2.992-.166.192-.01.382-.054.572-.051.12,0,.289-.052.351.107.052.134-.074.222-.144.316-.238.316-.481.629-.723.942l-3.168,4.1Z" style="fill: #fff"/>
    <path d="M1257.237,146.064A39.8,39.8,0,1,1,1297,185.849,39.889,39.889,0,0,1,1257.237,146.064Zm67.842,2.393c-1.164,0-2.338.095-3.491-.02-2.366-.238-3.6.5-3.682,3.129a69.415,69.415,0,0,1-.923,7.209c-.3,2.2-1.985,4.795-.906,6.416,1.176,1.766,4.333,1.04,6.488,1.883,1.728.675,2.711-.061,3.591-1.457a35.323,35.323,0,0,0,5.219-12.549c.834-4.6.83-4.605-3.967-4.612Q1326.244,148.455,1325.079,148.457Zm-56.073.024q-2.475,0-4.95,0c-1.343,0-1.945.615-1.769,2a35.253,35.253,0,0,0,6.174,15.842,2.086,2.086,0,0,0,2.507.911c1.875-.487,3.77-.937,5.682-1.237,1.565-.246,1.8-.944,1.468-2.4a82.672,82.672,0,0,1-1.537-8.293C1275.719,148.455,1275.773,148.448,1269.006,148.481Zm-.251-4.87a36.062,36.062,0,0,1,3.793.024c2.429.257,3.6-.6,3.64-3.185a41.58,41.58,0,0,1,.757-6.073c1.2-7.242,1.2-7.153-5.8-9.044-1.729-.467-2.518.119-3.335,1.357a35.364,35.364,0,0,0-4.559,10.06c-1.91,6.854-1.878,6.863,5.217,6.862Zm55.485.006c2.149,0,3.708-.048,5.262.012,1.959.076,2.542-.718,2.221-2.672a35.685,35.685,0,0,0-3.329-10.525c-2.8-5.5-2.769-5.52-8.645-4.291-.571.119-1.148.217-1.726.3-1.725.243-2.236,1.122-1.838,2.856.586,2.556,1.014,5.153,1.388,7.75C1318.665,144.642,1316.944,143.5,1324.24,143.617Zm-29.617,13c0-1.848-.056-3.7.016-5.544s-.661-2.682-2.559-2.633c-2.819.072-5.645.1-8.462-.011-2.17-.087-2.988.674-2.7,2.907.463,3.569.955,7.123,1.635,10.662.481,2.5,1.626,3.321,4.2,3.119C1294.62,164.5,1294.628,164.592,1294.623,156.616Zm11.824-8.16c-1.264,0-2.536.095-3.789-.02-2.38-.218-3.34.711-3.233,3.158.152,3.492.054,7,.044,10.5,0,1.384.213,2.564,1.971,2.6,10.6.213,8.871,2.892,11.12-8.062a13.173,13.173,0,0,0,.152-1.449C1313.32,148.454,1313.32,148.454,1306.447,148.456Zm-6.98-13.075c0,1.941.041,3.883-.013,5.823-.048,1.74.745,2.445,2.457,2.414q4.514-.081,9.027,0c1.789.031,2.46-.781,2.265-2.5-.395-3.469-.828-6.926-1.5-10.361-.505-2.557-1.7-3.458-4.369-3.35C1299.467,127.722,1299.462,127.615,1299.467,135.381Zm-4.826.211c-.006-8.083-.006-8.083-8.256-8.138a2.561,2.561,0,0,1-.291,0c-1.97-.249-3.08.518-3.462,2.559-.482,2.573-1.1,5.106-1.374,7.73-.7,6.737-1.01,5.826,5.454,5.871C1294.646,143.664,1294.647,143.633,1294.641,135.592Zm7.933-12.689c1.258-.073,2.9-.175,4.546-.261,1-.053,1.872-.273,1.257-1.538-1.626-3.346-3.627-6.419-6.775-8.565-1.457-.993-2.129-.478-2.13,1.187,0,2.327.052,4.655-.018,6.98C1299.394,122.714,1300.4,123.281,1302.574,122.9Zm-7.951-5.443c0-1.159-.015-2.318,0-3.477.03-2.023-.7-2.435-2.413-1.276a18.043,18.043,0,0,0-5.226,6.108c-2.032,3.435-1.91,3.565,2.093,3.908C1294.775,123.211,1294.676,124.071,1294.623,117.46Zm.017,57.784c.006-5.836.006-5.837-5.49-5.647-.485.017-.969.069-1.453.068-1.865,0-2.577.656-1.427,2.427a26.821,26.821,0,0,0,3.3,4.773c1.29,1.274,2.555,3.582,4.3,2.932C1295.572,179.161,1294.268,176.645,1294.64,175.244Zm4.818-.219c0,.87-.045,1.743.013,2.609.055.822-.342,1.941.678,2.314.891.325,1.6-.5,2.266-1.038a20.427,20.427,0,0,0,4.819-5.742c1.731-2.95,1.605-3.183-1.79-3.494C1299.458,169.126,1299.458,169.126,1299.458,175.025Zm-26.389-54.42c1.6,1.033,3.092,1.024,4.49,1.281,1.166.214,2.367.217,3.043-1.07,1.2-2.277,2.378-4.562,3.878-7.444A31.36,31.36,0,0,0,1273.069,120.605Zm36.487-7.144c1.146,2.088,1.972,3.5,2.716,4.963,1.952,3.824,3.181,4.286,7.368,2.926,1.328-.431,1.3-.9.386-1.723A29.456,29.456,0,0,0,1309.556,113.461Zm-25.641,64.925c.1-.269.185-.379.157-.433-.92-1.792-1.857-3.575-2.779-5.366-1-1.944-5.562-2.706-7.191-1.221-.731.667-.093,1.023.288,1.363A28.575,28.575,0,0,0,1283.915,178.386Zm25.6.406c4.538-1.935,8.051-3.828,11.258-7.2-2.862-.514-5.369-2.3-7.393.143C1311.871,173.551,1311.039,175.925,1309.511,178.792Z" style="fill: #fff"/>
  </g>
</svg>
