<svg id="a8af608e-8509-4aeb-b7d1-c5b0a9d83c87" data-name="Layer 1" xmlns="http://www.w3.org/2000/svg" xmlns:xlink="http://www.w3.org/1999/xlink" width="1344.293" height="194.648" viewBox="0 0 1344.293 194.648">
  <defs>
    <clipPath id="a9b56a3b-3c3d-4cca-b72d-0b34015a47b6">
      <rect x="12.755" y="38.65" width="171.584" height="133.874" style="fill: none"/>
    </clipPath>
    <clipPath id="e739fcba-180e-4599-89ec-55459fb239ce">
      <rect x="1225.779" y="104.462" width="118.514" height="90.186" style="fill: none"/>
    </clipPath>
  </defs>
  <title>banner-8</title>
  <polygon points="204.411 104.462 162.931 172.476 0 172.476 0 194.648 279.306 194.648 1344.293 194.648 1344.293 104.462 204.411 104.462" style="fill: #212026"/>
  <g>
    <path d="M216.728,164.806l.156-.156h.957l.156.156a18.008,18.008,0,0,0,.264,3.057,2.49,2.49,0,0,0,1.055,1.172,7.548,7.548,0,0,0,2.363,1,11.559,11.559,0,0,0,2.978.391,8.777,8.777,0,0,0,3.721-.762,5.823,5.823,0,0,0,2.569-2.236,6.144,6.144,0,0,0,.917-3.31,5.34,5.34,0,0,0-.439-2.247,3.84,3.84,0,0,0-1.23-1.533,5.58,5.58,0,0,0-1.807-.859,30.817,30.817,0,0,0-3.027-.615q-1.954-.312-3.057-.567a10.4,10.4,0,0,1-2.2-.781,5.864,5.864,0,0,1-1.827-1.338,6.1,6.1,0,0,1-1.171-1.992,7.2,7.2,0,0,1-.44-2.529,7.767,7.767,0,0,1,2.539-5.987,9.685,9.685,0,0,1,6.817-2.334,18.121,18.121,0,0,1,3.7.42,15.025,15.025,0,0,1,3.642,1.24l.137.235a26.647,26.647,0,0,0-.527,5.117l-.176.156h-1.016l-.156-.136q-.039-2.344-.117-2.95t-1.777-1.5a7.79,7.79,0,0,0-3.692-.9,7.355,7.355,0,0,0-3.105.664,4.544,4.544,0,0,0-2.188,2.09,6.233,6.233,0,0,0-.742,2.91,4.456,4.456,0,0,0,.449,2.041,3.829,3.829,0,0,0,1.162,1.406,5,5,0,0,0,1.66.772q.948.254,3.467.625a20.662,20.662,0,0,1,5.03,1.181,5.6,5.6,0,0,1,2.519,2.2,6.685,6.685,0,0,1,.947,3.632,8.606,8.606,0,0,1-3.388,6.934,12.551,12.551,0,0,1-8.213,2.774,16.382,16.382,0,0,1-7.09-1.446l-.117-.254Q216.63,169.318,216.728,164.806Z" style="fill: #fff"/>
    <path d="M237.333,143.927q4.982.158,5.586.156.645,0,5.606-.156l.156.137v.976l-.156.137q-1.349.041-2.08.117a2.527,2.527,0,0,0-1.065.293,1.382,1.382,0,0,0-.439,1.006,17.215,17.215,0,0,0-.108,2.2l-.039,4.493v2.734q4.278.117,8.106.117,5.234,0,7.968-.117v-2.734l-.039-3.809a26.846,26.846,0,0,0-.117-2.871,1.921,1.921,0,0,0-.273-.859,1.342,1.342,0,0,0-.7-.352,16.949,16.949,0,0,0-2.618-.215l-.136-.137v-.976l.136-.137q5,.158,5.606.156.663,0,5.605-.156l.157.137v.976l-.157.137q-1.367.041-2.1.117a2.527,2.527,0,0,0-1.065.293,1.363,1.363,0,0,0-.429,1.006,21.157,21.157,0,0,0-.118,2.2l-.039,4.493v9.043l.039,3.808a26.2,26.2,0,0,0,.118,2.852,1.821,1.821,0,0,0,.283.859,1.45,1.45,0,0,0,.7.362,15.484,15.484,0,0,0,2.607.224l.157.117v.977l-.157.156q-5-.156-5.605-.156-.625,0-5.606.156l-.136-.156v-.977l.136-.117a20.59,20.59,0,0,0,2.442-.2,1.708,1.708,0,0,0,.8-.3,1.678,1.678,0,0,0,.332-.791,16.1,16.1,0,0,0,.136-2.695l.039-4.121v-4.453q-5.781-.118-8.1-.118-2.383,0-7.969.118v4.453l.02,3.808a26.023,26.023,0,0,0,.117,2.852,1.821,1.821,0,0,0,.283.859,1.463,1.463,0,0,0,.713.362,15.575,15.575,0,0,0,2.6.224l.156.117v.977l-.156.156q-4.982-.156-5.606-.156-.606,0-5.586.156l-.156-.156v-.977l.156-.117a20.391,20.391,0,0,0,2.422-.2,1.787,1.787,0,0,0,.811-.3,1.546,1.546,0,0,0,.332-.791,18.077,18.077,0,0,0,.146-2.695l.02-4.121v-9.043l-.039-3.809q-.021-2.226-.108-2.871a1.768,1.768,0,0,0-.273-.859,1.412,1.412,0,0,0-.713-.352,16.766,16.766,0,0,0-2.6-.215l-.156-.137v-.976Z" style="fill: #fff"/>
    <path d="M270.322,171.681l-.176-.156v-1.016l.176-.156a8.427,8.427,0,0,0,1.835-.146,1.567,1.567,0,0,0,.733-.508,16.167,16.167,0,0,0,1.3-2.491l2.05-4.453,5.313-12.031q1.5-3.534,2.988-7.07h1.27l8.34,19.609,1.113,2.617q.488,1.114,1.123,2.422a7.387,7.387,0,0,0,.879,1.543,1.65,1.65,0,0,0,.605.362,6.543,6.543,0,0,0,1.612.146l.156.156v1.016l-.156.156q-2.072-.176-3.731-.176-3.241.1-6.484.176l-.156-.156v-1.016l.156-.156a15.661,15.661,0,0,0,2.734-.186.649.649,0,0,0,.547-.673,3.33,3.33,0,0,0-.273-1.133l-2.4-5.957H278.564l-2.129,5a5.878,5.878,0,0,0-.567,1.972.765.765,0,0,0,.528.723,8.932,8.932,0,0,0,2.656.254l.176.156v1.016l-.156.156q-2.52-.156-4.415-.156Q272.509,171.525,270.322,171.681Zm8.906-10.957h9.883l-4.9-11.777Z" style="fill: #fff"/>
    <path d="M301.4,144.064l.156-.137q3.574.158,5.566.156,2.208,0,5.957-.136,1.387-.041,2.012-.039,4.941,0,6.7,1.8a5.882,5.882,0,0,1,1.758,4.257,6.681,6.681,0,0,1-.859,3.223,7.659,7.659,0,0,1-2.539,2.7,12.666,12.666,0,0,1-4.629,1.69q.546.76,1.972,2.636l2.774,3.672q1.347,1.816,2.891,3.838a12.317,12.317,0,0,0,1.992,2.285,2.459,2.459,0,0,0,.771.322,6.252,6.252,0,0,0,1.026.059l.156.156v.918l-.176.176a18.275,18.275,0,0,0-2.226-.117q-1.388,0-3.028.117-1.347-1.641-4.238-5.684-3.36-4.687-6.875-8.691l.195-.6q1.016.058,1.582.058a7.937,7.937,0,0,0,5.293-1.621,5.57,5.57,0,0,0,1.914-4.492,4.609,4.609,0,0,0-1.718-3.9,7.461,7.461,0,0,0-4.649-1.318,12.939,12.939,0,0,0-3.867.566q-.292.431-.293,7.325v9.043l.019,3.808a26.2,26.2,0,0,0,.118,2.852,1.821,1.821,0,0,0,.283.859,1.458,1.458,0,0,0,.713.362,15.558,15.558,0,0,0,2.6.224l.157.117v.977l-.157.156q-.1,0-3.437-.117-1.387-.039-2.168-.039-.606,0-5.586.156l-.156-.156v-.977l.156-.117a20.391,20.391,0,0,0,2.422-.2,1.777,1.777,0,0,0,.81-.3,1.537,1.537,0,0,0,.332-.791,17.883,17.883,0,0,0,.147-2.695l.019-4.121v-9.043l-.039-3.809q-.019-2.226-.107-2.871a1.779,1.779,0,0,0-.273-.859,1.412,1.412,0,0,0-.713-.352,16.766,16.766,0,0,0-2.6-.215l-.156-.137Z" style="fill: #fff"/>
    <path d="M328.447,143.927l2.441.078q2.4.078,3.144.078.665,0,5.606-.156l.156.137v.976l-.156.137q-1.349.041-2.08.117a2.536,2.536,0,0,0-1.065.293,1.386,1.386,0,0,0-.439,1.006,17.249,17.249,0,0,0-.107,2.2l-.04,4.493v9.043l.02,3.808a26.571,26.571,0,0,0,.117,2.852,1.821,1.821,0,0,0,.283.859,1.468,1.468,0,0,0,.713.362,15.588,15.588,0,0,0,2.6.224l.156.117v.977l-.156.156q-.1,0-3.438-.117-1.386-.039-2.168-.039-.6,0-5.585.156l-.157-.156v-.977l.157-.117a20.368,20.368,0,0,0,2.421-.2,1.782,1.782,0,0,0,.811-.3,1.537,1.537,0,0,0,.332-.791,18.077,18.077,0,0,0,.146-2.695l.02-4.121v-9.043l-.039-3.809q-.019-2.226-.108-2.871a1.758,1.758,0,0,0-.273-.859,1.408,1.408,0,0,0-.713-.352,16.748,16.748,0,0,0-2.6-.215l-.157-.137v-.976Z" style="fill: #fff"/>
    <path d="M342.06,171.662l-.176-.176v-.9l.176-.156a13.5,13.5,0,0,0,1.9-.137,1.441,1.441,0,0,0,.918-.39,1.833,1.833,0,0,0,.273-.879q.069-.6.137-2.735t.069-3.046V147.462a2.443,2.443,0,0,0-.362-1.474,1.584,1.584,0,0,0-.986-.606,13.032,13.032,0,0,0-2.129-.146l-.156-.156v-.918l.156-.176q2.7.1,3.535.1,1.972,0,3.242-.1l6.231,8.086,9.16,11.484q1.659,2.091,3.379,3.965V152.4q0-.7-.068-3t-.166-2.91a1.408,1.408,0,0,0-.342-.831,1.914,1.914,0,0,0-.918-.322,13.745,13.745,0,0,0-1.826-.127l-.157-.156v-.9l.157-.176q1.581.1,4.511.1,2.676,0,3.887-.1l.176.176v.9l-.156.156a12.981,12.981,0,0,0-1.993.147,1.258,1.258,0,0,0-.879.42,2.231,2.231,0,0,0-.244.859q-.069.567-.136,2.695t-.069,3.067v9.277l.02,5.371q.039,2.637.078,5.293a31.364,31.364,0,0,0-3.379-.82l-1.387-1.641-4.16-5.078-13.242-16.543v14.981q0,.9.068,3.2a25.743,25.743,0,0,0,.166,2.793,1.579,1.579,0,0,0,.254.674,1.465,1.465,0,0,0,.674.341,9.481,9.481,0,0,0,2.139.176l.156.156v.918l-.156.157a27.406,27.406,0,0,0-3.282-.137Q344.247,171.525,342.06,171.662Z" style="fill: #fff"/>
    <path d="M403.271,160.88v.586l-.078.235-.957.566a1.213,1.213,0,0,0-.411.332,6.765,6.765,0,0,0-.146,1.162q-.088,1.044-.088,2.549a34.377,34.377,0,0,0,.215,3.691l-.117.2a30.493,30.493,0,0,1-11,2.051,18.206,18.206,0,0,1-7.832-1.641,12.97,12.97,0,0,1-5.547-4.863,13.962,13.962,0,0,1-2.051-7.657,13.459,13.459,0,0,1,4.619-10.742q4.618-3.984,12.061-3.984a24.845,24.845,0,0,1,9.824,1.855l.137.215a46.559,46.559,0,0,0-.821,5.488l-.156.137h-.9l-.157-.156-.1-2.07a6.463,6.463,0,0,0-.127-1.192,1.383,1.383,0,0,0-.42-.459,9.77,9.77,0,0,0-1.807-.9,14.626,14.626,0,0,0-2.92-.9,16.626,16.626,0,0,0-3.144-.283,13.131,13.131,0,0,0-6.328,1.484,9.606,9.606,0,0,0-4.151,4.327,14.13,14.13,0,0,0-1.4,6.318,15.094,15.094,0,0,0,1.5,6.689,11.4,11.4,0,0,0,4.316,4.834,12.18,12.18,0,0,0,6.543,1.739,17.624,17.624,0,0,0,3.31-.323,9.809,9.809,0,0,0,2.784-.908,11.417,11.417,0,0,0,.175-2.519v-2.168a5.535,5.535,0,0,0-.195-1.924,1.3,1.3,0,0,0-.967-.537,23.329,23.329,0,0,0-3.33-.2l-.175-.175v-.86l.175-.175,1.192.039q3.066.1,5,.1,1.113,0,3.261-.117Z" style="fill: #fff"/>
    <path d="M413.954,171.681l-.175-.156v-1.016l.175-.156a8.431,8.431,0,0,0,1.836-.146,1.567,1.567,0,0,0,.733-.508,16.167,16.167,0,0,0,1.3-2.491l2.05-4.453,5.313-12.031q1.5-3.534,2.988-7.07h1.27l8.339,19.609,1.114,2.617q.488,1.114,1.123,2.422a7.387,7.387,0,0,0,.879,1.543,1.65,1.65,0,0,0,.6.362,6.539,6.539,0,0,0,1.611.146l.157.156v1.016l-.157.156q-2.07-.176-3.73-.176-3.243.1-6.484.176l-.157-.156v-1.016l.157-.156a15.661,15.661,0,0,0,2.734-.186.649.649,0,0,0,.547-.673,3.312,3.312,0,0,0-.274-1.133l-2.4-5.957H422.2l-2.129,5a5.878,5.878,0,0,0-.567,1.972.765.765,0,0,0,.528.723,8.927,8.927,0,0,0,2.656.254l.176.156v1.016l-.157.156q-2.519-.156-4.414-.156Q416.142,171.525,413.954,171.681Zm8.907-10.957h9.882l-4.9-11.777Z" style="fill: #fff"/>
    <path d="M444.794,144.064l.156-.137q3.379.158,4.61.156l9.14-.195a23.274,23.274,0,0,1,6.407.733,10.991,10.991,0,0,1,4.443,2.539,12.072,12.072,0,0,1,2.949,4.2,13.037,13.037,0,0,1,1.006,5.107,15.447,15.447,0,0,1-.918,5.215,15.142,15.142,0,0,1-2.607,4.619,14.258,14.258,0,0,1-3.848,3.291,13.92,13.92,0,0,1-4.326,1.67,23.336,23.336,0,0,1-4.434.42q-1.522,0-5.742-.117-1.388-.039-1.836-.039-1.347,0-3.262.156l-.156-.156v-.645l.156-.195a10.651,10.651,0,0,0,1.319-.732,15.348,15.348,0,0,0,.273-3.418q.108-3.271.108-4.991v-7.168l-.02-4.433q0-1.446-.039-2.354a7.326,7.326,0,0,0-.137-1.3,1.481,1.481,0,0,0-.224-.546.946.946,0,0,0-.41-.264,4.525,4.525,0,0,0-.967-.186l-1.485-.117-.156-.137Zm7.227,25.488a24,24,0,0,0,4.59.391,14.9,14.9,0,0,0,7.275-1.524,9.462,9.462,0,0,0,4.072-4.511,16.214,16.214,0,0,0,1.348-6.739q0-5.526-2.949-8.574t-9.3-3.047a31.537,31.537,0,0,0-5.039.391q-.158,3.2-.157,7.226V159.3l.04,5.742Q451.9,166.722,452.021,169.552Z" style="fill: #fff"/>
    <path d="M488.6,171.876q-.294-.859-2.442-6.562l-6.64-16.426A23.754,23.754,0,0,0,478.1,145.7q-.293-.381-2.344-.518l-.176-.176v-.9l.176-.176q2.988.158,5.078.156,1.953,0,5.176-.156l.156.156v1.075l-.156.156a14.577,14.577,0,0,0-2.822.146.563.563,0,0,0-.459.557,14.7,14.7,0,0,0,.625,2.08q.624,1.846,1.113,3.115l6.113,15.45,5.1-12.813q.528-1.308,1.543-4.219a17.916,17.916,0,0,0,1.016-3.5.6.6,0,0,0-.479-.625,22.948,22.948,0,0,0-2.861-.332l-.176-.156v-.938l.176-.156q3.417.158,4.355.156.762,0,3.946-.156l.156.156v.938l-.156.156a5.616,5.616,0,0,0-1.7.215,1.324,1.324,0,0,0-.517.606q-.225.449-1.4,3.085l-6.093,15q-2.052,5.02-2.911,7.793Z" style="fill: #fff"/>
    <path d="M504.989,158.068a17.307,17.307,0,0,1,.84-5.469,12.668,12.668,0,0,1,2.862-4.7,13.833,13.833,0,0,1,4.873-3.34,16.694,16.694,0,0,1,6.445-1.182q6.66,0,10.605,3.623t3.946,9.893a16.183,16.183,0,0,1-1.934,7.93,13.535,13.535,0,0,1-5.537,5.468,16.713,16.713,0,0,1-8.1,1.954,15.726,15.726,0,0,1-5.859-1.065,11.962,11.962,0,0,1-4.561-3.174,12.908,12.908,0,0,1-2.734-4.883A17.419,17.419,0,0,1,504.989,158.068Zm4.063-1.289a19.009,19.009,0,0,0,.771,5.127,13.5,13.5,0,0,0,2.305,4.707,9.914,9.914,0,0,0,3.535,2.92,11.248,11.248,0,0,0,9.951-.43,8.71,8.71,0,0,0,3.594-4.307,16.708,16.708,0,0,0,1.231-6.552,17.452,17.452,0,0,0-1.407-7.129,9.431,9.431,0,0,0-4-4.629,11.647,11.647,0,0,0-5.762-1.446,9.669,9.669,0,0,0-7.481,2.969Q509.052,150.979,509.052,156.779Z" style="fill: #fff"/>
    <path d="M562.743,168.224,562,170.04a20.114,20.114,0,0,1-9.258,2.208q-7.05,0-11.455-4a13.485,13.485,0,0,1-4.4-10.469,13.8,13.8,0,0,1,2.2-7.783,13.627,13.627,0,0,1,5.8-4.981,19.227,19.227,0,0,1,8.1-1.65,24.294,24.294,0,0,1,5.136.547,21.578,21.578,0,0,1,4.239,1.308l.136.2a24.954,24.954,0,0,0-.839,5.41l-.137.156H560.6l-.156-.156-.2-3.321a10.578,10.578,0,0,0-3.447-1.767,13.975,13.975,0,0,0-4.209-.635,12.234,12.234,0,0,0-5.918,1.416,9.867,9.867,0,0,0-4.062,4.1,13.709,13.709,0,0,0-1.446,6.572,13.482,13.482,0,0,0,1.7,6.855,11.624,11.624,0,0,0,4.638,4.532,14.279,14.279,0,0,0,6.865,1.582,16.444,16.444,0,0,0,3.34-.332,12.618,12.618,0,0,0,2.666-.821,12.107,12.107,0,0,0,2.041-1.191Z" style="fill: #fff"/>
    <path d="M564.716,171.681l-.176-.156v-1.016l.176-.156a8.439,8.439,0,0,0,1.836-.146,1.564,1.564,0,0,0,.732-.508,16.071,16.071,0,0,0,1.3-2.491l2.051-4.453,5.313-12.031q1.5-3.534,2.988-7.07H580.2l8.34,19.609,1.113,2.617q.489,1.114,1.123,2.422a7.387,7.387,0,0,0,.879,1.543,1.662,1.662,0,0,0,.606.362,6.539,6.539,0,0,0,1.611.146l.156.156v1.016l-.156.156q-2.07-.176-3.73-.176-3.243.1-6.485.176l-.156-.156v-1.016l.156-.156a15.677,15.677,0,0,0,2.735-.186.649.649,0,0,0,.547-.673,3.336,3.336,0,0,0-.274-1.133l-2.4-5.957H572.958l-2.129,5a5.87,5.87,0,0,0-.566,1.972.765.765,0,0,0,.527.723,8.941,8.941,0,0,0,2.657.254l.175.156v1.016l-.156.156q-2.52-.156-4.414-.156Q566.9,171.525,564.716,171.681Zm8.906-10.957h9.883l-4.9-11.777Z" style="fill: #fff"/>
    <path d="M622.216,168.224l-.742,1.816a20.12,20.12,0,0,1-9.258,2.208q-7.052,0-11.455-4a13.481,13.481,0,0,1-4.4-10.469,13.8,13.8,0,0,1,2.2-7.783,13.621,13.621,0,0,1,5.8-4.981,19.222,19.222,0,0,1,8.1-1.65,24.3,24.3,0,0,1,5.137.547,21.545,21.545,0,0,1,4.238,1.308l.137.2a24.93,24.93,0,0,0-.84,5.41l-.136.156h-.918l-.157-.156-.195-3.321a10.6,10.6,0,0,0-3.447-1.767,13.975,13.975,0,0,0-4.209-.635,12.231,12.231,0,0,0-5.918,1.416,9.875,9.875,0,0,0-4.063,4.1,13.709,13.709,0,0,0-1.445,6.572,13.482,13.482,0,0,0,1.7,6.855,11.633,11.633,0,0,0,4.639,4.532,14.277,14.277,0,0,0,6.865,1.582,16.444,16.444,0,0,0,3.34-.332,12.637,12.637,0,0,0,2.666-.821,12.146,12.146,0,0,0,2.041-1.191Z" style="fill: #fff"/>
    <path d="M624.482,143.927l2.441.078q2.4.078,3.145.078.663,0,5.605-.156l.156.137v.976l-.156.137q-1.347.041-2.08.117a2.526,2.526,0,0,0-1.064.293,1.382,1.382,0,0,0-.44,1.006,17.249,17.249,0,0,0-.107,2.2l-.039,4.493v9.043l.019,3.808a26.571,26.571,0,0,0,.117,2.852,1.819,1.819,0,0,0,.284.859,1.459,1.459,0,0,0,.712.362,15.588,15.588,0,0,0,2.6.224l.156.117v.977l-.156.156q-.1,0-3.437-.117-1.387-.039-2.168-.039-.606,0-5.586.156l-.157-.156v-.977l.157-.117a20.391,20.391,0,0,0,2.422-.2,1.782,1.782,0,0,0,.81-.3,1.537,1.537,0,0,0,.332-.791,18.025,18.025,0,0,0,.147-2.695l.019-4.121v-9.043l-.039-3.809q-.02-2.226-.107-2.871a1.767,1.767,0,0,0-.274-.859,1.408,1.408,0,0,0-.713-.352,16.733,16.733,0,0,0-2.6-.215l-.157-.137v-.976Z" style="fill: #fff"/>
    <path d="M638.232,144.064l.156-.137q6.7.117,8.574.117,6.406,0,11.406-.117l.1.137a33.311,33.311,0,0,0-.723,5.879l-.117.156h-.957l-.176-.156a2.888,2.888,0,0,0,.02-.313,19.031,19.031,0,0,0-.254-3.164,10.636,10.636,0,0,0-3.408-.713q-2.178-.165-3.272-.166-1.542,0-3.945.215l-.078,3.125L645.5,152.5l-.058,3.965q2.109.117,3.886.117,1.8,0,3.008-.117a5.048,5.048,0,0,0,1.416-.244.821.821,0,0,0,.313-.488,7.409,7.409,0,0,0,.185-1.279l.078-1.211.157-.157h.9l.156.157q-.039,2.129-.1,4.277l.1,4.394-.156.157h-.9l-.157-.157-.136-1.171a16.457,16.457,0,0,0-.254-1.631.86.86,0,0,0-.362-.459,3.893,3.893,0,0,0-1.455-.313q-1.172-.117-3.222-.117-1.134,0-3.457.1-.1,1.639-.1,5.468,0,4.1.1,6.036h3.593q4.747,0,5.938-.118a7.813,7.813,0,0,0,2.266-.566q.175-.45.576-2.08t.459-2.041l.2-.137h.938l.156.137a26.769,26.769,0,0,0-.342,2.93q-.166,2.09-.166,3.574l-.137.156q-3.73-.117-9.765-.117l-5.313-.039q-1.855,0-3.867.156l-.156-.156v-.645l.156-.195a10.685,10.685,0,0,0,1.318-.732,15.231,15.231,0,0,0,.274-3.418q.106-3.271.107-4.991v-7.168l-.019-4.433q0-1.446-.039-2.354a7.424,7.424,0,0,0-.137-1.3,1.479,1.479,0,0,0-.225-.546.939.939,0,0,0-.41-.264,4.511,4.511,0,0,0-.967-.186l-1.484-.117-.156-.137Z" style="fill: #fff"/>
    <path d="M662.782,164.806l.157-.156h.957l.156.156a18.008,18.008,0,0,0,.264,3.057,2.493,2.493,0,0,0,1.054,1.172,7.555,7.555,0,0,0,2.364,1,11.554,11.554,0,0,0,2.978.391,8.78,8.78,0,0,0,3.721-.762A5.815,5.815,0,0,0,677,167.433a6.127,6.127,0,0,0,.918-3.31,5.34,5.34,0,0,0-.439-2.247,3.834,3.834,0,0,0-1.231-1.533,5.575,5.575,0,0,0-1.806-.859,30.787,30.787,0,0,0-3.028-.615q-1.951-.312-3.056-.567a10.426,10.426,0,0,1-2.2-.781,5.859,5.859,0,0,1-1.826-1.338,6.107,6.107,0,0,1-1.172-1.992,7.2,7.2,0,0,1-.439-2.529,7.767,7.767,0,0,1,2.539-5.987,9.683,9.683,0,0,1,6.816-2.334,18.106,18.106,0,0,1,3.7.42,15.033,15.033,0,0,1,3.643,1.24l.137.235a26.8,26.8,0,0,0-.528,5.117l-.175.156h-1.016l-.156-.136q-.04-2.344-.117-2.95t-1.778-1.5a7.786,7.786,0,0,0-3.691-.9,7.362,7.362,0,0,0-3.106.664,4.546,4.546,0,0,0-2.187,2.09,6.233,6.233,0,0,0-.742,2.91,4.456,4.456,0,0,0,.449,2.041,3.82,3.82,0,0,0,1.162,1.406,5,5,0,0,0,1.66.772q.948.254,3.467.625a20.639,20.639,0,0,1,5.029,1.181,5.6,5.6,0,0,1,2.52,2.2,6.676,6.676,0,0,1,.947,3.632,8.607,8.607,0,0,1-3.389,6.934,12.546,12.546,0,0,1-8.212,2.774,16.379,16.379,0,0,1-7.09-1.446l-.118-.254A57.438,57.438,0,0,0,662.782,164.806Z" style="fill: #fff"/>
  </g>
  <g style="clip-path: url(#a9b56a3b-3c3d-4cca-b72d-0b34015a47b6)">
    <g>
      <path d="M165.143,123.087s6.657,1.88,8.13,4.21,4.306,9.172-.261,19.475-10.153,11.736-13.148,10.966-10.921-3.132-10.921-3.132l.258-24.172Z" style="fill: #903d40"/>
      <path d="M52.392,148.4c38.43-18.015,62.135-5.643,63.537-2.553s3.692,5.647,1.647,6.249-3.279.975-3.279.975-5.457,14.074-8.46,18.037S93.671,183.26,95.517,187s.535,7.735,3.2,11.626,7.6,7.075,10.048,4.14.881-2.1,3.68-4.969,13.239-17.887,15.95-23.319,3.528-9.8,4.945-9.822,3.266,1.628,5.38-.324.033-3.065,3.02-3.842S145.548,158,145.548,158l3.378-2.593s11.185.675,16.2-12.528.021-19.791.021-19.791l2.15-2.426-6.314-3.023-4.83-.9-.617,1.289S102.553,90.683,88.864,59.317L57.977,97.307S31.8,158.054,52.392,148.4Z" style="fill: #b3b3b3"/>
      <ellipse cx="55.538" cy="97.652" rx="58.048" ry="31.096" transform="translate(-55.366 115.557) rotate(-69.543)" style="fill: #903d40"/>
      <ellipse cx="54.764" cy="96.706" rx="51.988" ry="25.018" transform="translate(-54.984 114.217) rotate(-69.543)" style="fill: gray"/>
      <path d="M78.2,105.45A105.89,105.89,0,0,0,82,93.048h0s-12.649-5.019-16.713-6.159-10.665,3.363-10.665,3.363-3.369,5.933-3.991,9.265,4.03,10.671,5.231,12.892c.906,1.674,10.625,5.726,15.588,7.662A104.324,104.324,0,0,0,78.2,105.45Z" style="fill: #b3b3b3"/>
      <ellipse cx="55.755" cy="96.637" rx="8.061" ry="4.575" transform="matrix(0.35, -0.937, 0.937, 0.35, -54.274, 115.101)" style="fill: #740c10"/>
      <path d="M114.6,90.524s11.574,26.038-12.622,49.273h0a42.537,42.537,0,0,1,8.129,2.318h0c21.1-17.833,14.427-43.726,14.427-43.726-3.3-2.453-6.655-5.085-9.934-7.865Z" style="fill: #903d40"/>
    </g>
  </g>
  <g style="clip-path: url(#e739fcba-180e-4599-89ec-55459fb239ce)">
    <path d="M1247.705,127.65a26.75,26.75,0,0,0-7.176.781,8.743,8.743,0,0,0-6.957,7.888,23.509,23.509,0,0,0-.031,5.673,5.119,5.119,0,0,1,.026.568.717.717,0,0,1-.52.775.794.794,0,0,1-.893-.32,1.82,1.82,0,0,1-.209-.316c-1.375-2.9-2.813-5.812-3.161-9.029-.423-3.91-.006-7.733,2.52-11a13.626,13.626,0,0,1,7.22-4.525,32.64,32.64,0,0,1,7.724-1.191c1.476-.075,2.949-.074,4.424-.068.516,0,.713-.183.706-.7-.018-1.391-.032-2.783.014-4.173.038-1.153.7-1.74,1.708-1.619a1.876,1.876,0,0,1,1.068.627q4.229,4.086,8.457,8.171c.682.659,1.382,1.3,2.055,1.967a1.381,1.381,0,0,1,0,2.207q-5.337,5.166-10.692,10.314a1.5,1.5,0,0,1-2.606-1.067c-.02-1.391-.035-2.782,0-4.173.014-.6-.192-.828-.8-.8C1249.76,127.68,1248.936,127.65,1247.705,127.65Z" style="fill: #fff"/>
    <g>
      <polygon points="1280.555 106.848 1273.487 146.186 1330.778 176.598 1337.847 137.336 1280.555 106.848" style="fill: #fff"/>
      <polygon points="1284.357 106.249 1277.289 145.587 1334.58 175.999 1341.648 136.736 1284.357 106.249" style="fill: #fff"/>
      <path d="M1287.809,215.788a2.8,2.8,0,0,1-.613-.068,2.459,2.459,0,0,1-1.938-2.968l25.058-98.191a2.632,2.632,0,0,1,3.159-1.82,2.46,2.46,0,0,1,1.938,2.968L1290.355,213.9A2.6,2.6,0,0,1,1287.809,215.788Z" style="fill: #fff"/>
      <polygon points="1280.555 106.848 1284.357 106.249 1334.58 175.999 1330.778 176.598 1280.555 106.848" style="fill: #fff"/>
    </g>
    <g>
      <path d="M1272.432,179.063l2.6-2.6c.375-.376.378-.376.75,0,.711.709,1.414,1.426,2.132,2.126.208.2.229.34.011.556q-3.6,3.579-7.189,7.175c-.171.171-.3.217-.5.019q-3.573-3.573-7.157-7.135c-.37-.369-.37-.371.01-.752.689-.693,1.388-1.376,2.066-2.079.238-.247.4-.267.653-.01.755.777,1.531,1.534,2.3,2.3.083.083.16.226.286.185.144-.045.085-.208.086-.319q0-8.893,0-17.786c0-1.256-.762-1.937-2.1-1.938q-9.777,0-19.553.01a1.652,1.652,0,0,1-1.335-.542c-.973-1.031-2-2.013-3-3.018-.088-.088-.258-.166-.193-.316s.237-.087.363-.087c8.044,0,16.087-.014,24.13.007a5.776,5.776,0,0,1,5.642,5.667c.018,6,.007,11.991.007,17.986Z" style="fill: #fff"/>
      <path d="M1234.7,162.391q-1.236,1.257-2.473,2.512c-.392.4-.395.4-.784.008-.7-.7-1.395-1.406-2.1-2.1-.218-.213-.232-.365,0-.592q3.574-3.55,7.128-7.121c.243-.244.386-.216.613.012q3.586,3.6,7.193,7.17c.2.2.215.324.014.522q-1.144,1.126-2.267,2.275c-.193.2-.334.2-.53,0-.75-.764-1.512-1.516-2.27-2.272-.111-.11-.228-.216-.346-.327-.152.147-.1.3-.1.44q0,8.793,0,17.584a1.829,1.829,0,0,0,1.887,2.072c.252.024.507.03.761.03q9.634,0,19.269-.006a1.25,1.25,0,0,1,.985.41c1.016,1.046,2.059,2.066,3.089,3.1.088.089.259.165.2.314s-.235.088-.361.088q-4.014.006-8.029,0c-5.259,0-10.518-.046-15.776.018a5.9,5.9,0,0,1-5.94-5.1,7.252,7.252,0,0,1-.036-.921q0-8.793,0-17.584v-.473Z" style="fill: #fff"/>
    </g>
  </g>
</svg>
