<svg id="a035faae-b783-415e-b5c1-7520e67f9053" data-name="Layer 1" xmlns="http://www.w3.org/2000/svg" xmlns:xlink="http://www.w3.org/1999/xlink" width="1344.293" height="194.648" viewBox="0 0 1344.293 194.648">
  <defs>
    <clipPath id="a389c5c9-14dc-4b18-bb7c-64193101954a">
      <rect x="3.718" y="-181.382" width="168.773" height="141.419" style="fill: none"/>
    </clipPath>
    <clipPath id="eac81b1a-7613-48a1-b247-da2c599ee4b0">
      <rect x="1188.582" y="-103.973" width="155.711" height="86.133" style="fill: none"/>
    </clipPath>
    <clipPath id="bd4f95fc-85f7-4d4a-b0b6-cb55a38fbed3">
      <rect x="3" y="38.98" width="160.944" height="134.859" transform="translate(166.944 212.82) rotate(-180)" style="fill: none"/>
    </clipPath>
    <clipPath id="f768ea21-3ca0-4a8f-a418-60c5ee0dfe7e">
      <rect x="107.227" y="38.98" width="160.944" height="134.859" style="fill: none"/>
    </clipPath>
  </defs>
  <title>banner-4</title>
  <g style="clip-path: url(#a389c5c9-14dc-4b18-bb7c-64193101954a)">
    <g>
      <path d="M127.46-61.269c4.387.738,1.514.14,12.648,2.773s10.3,1.489,14.727,3.8,5.387,2.668,8.979,5.541,3.768,2.471,6.824,6.106c3.951,4.7.644,3.393,7.109,6.626s5.7,2.234,12.646,4.987S215.176-7.613,216.971-.669,220.922,13.339,222,14.057s-146.255,0-146.255,0H-42.9A173.71,173.71,0,0,0-30.68-4.247a150.92,150.92,0,0,0,8.869-17.5c3.595-7.91,5.865-6.377,12.336-10.932s9.1-1.794,15.14-9.57C10.981-49.092,19.852-56.6,22.748-57.783c6.231-2.543,10.625-5.19,15.632-7.107s16.767-5.768,16.767-5.768Z" style="fill: #b5afb1"/>
      <path d="M113.769-101.817c.838-3.61.24-2.533,1.078-5.047s1.483-2.874,3.076-5.029,1.832-3.95,3.03-5.028a4,4,0,0,1,3.711-1.289c1.317.331,2.746,1,2.032,3s-1.949,1.937-2.482,3.926l-1.241,4.634c-.473,1.765-.943,1.383-.584,4.835a27.044,27.044,0,0,1,.24,6.925c-.24,3.353-.719,5.986-.12,8.261s-.509,2.195.239,4.989.6,1,1.916,5.547a25.253,25.253,0,0,1,1.317,8.5c0,2.155-1.063-.359.905,4.67s1.13,8.021,2.327,9.458.12.239,3.353,3.113,6.345,2.394,8.859,6.465,3.712,6.585,3.712,6.585,4.909,8.5,4.909,10.176-1.437,16.043-1.437,16.4S133.643,8.79,131.907,8.909,122.748-1.507,120.234-2.584s-5.866-2.395-6.944-4.43-2.275-1.676-5.627-10.3S99.522-30,93.3-34.311,78.69-45.206,74.978-48.2,67.2-53.826,64.922-55.742a41.287,41.287,0,0,0-5.508-3.711l39.764-45.855Z" style="fill: #c39a7e"/>
      <path d="M39.311-68.367c-3.116,1.559-4.029,1.8-5.131,4.915a109.053,109.053,0,0,0-3.258,11.266c-1.438,5.752-4.075,8.868-4.794,12.7s1.678,7.431,3.116,15.341,0,12.944,1.678,17.258S23.373.547,36.256,4.382s7.812,4.5,14.063,4.528,5.966-.214,14.258,1.225a88.013,88.013,0,0,0,13.574,1.438S85.093,13.73,96.6,7.258,111.46-1.371,113.857-2.09a23.655,23.655,0,0,1,6.377-.494v-8.375s-8.571,3.835-15.5,3.835S94.681-5.206,85.572-2.569,65.615,6.539,59.414,5.341,42.667,3.423,40.51-1.611s-5.274-11.745-5.274-17.977-.958-9.588-2.157-15.82-3.356-5.513-1.2-11.265a57.181,57.181,0,0,1,6.5-13.184c2.369-3.356,9.234-8.51,5.083-8.51Z" style="fill: #f0f3a6"/>
    </g>
  </g>
  <g style="clip-path: url(#eac81b1a-7613-48a1-b247-da2c599ee4b0)">
    <path d="M1271.359,17.372q-16.564,0-33.129-.008c-.447,0-1.059.215-1.3-.286s.245-.935.543-1.312a11.621,11.621,0,0,1,6-3.987,64.154,64.154,0,0,1,9.992-1.73c2.064-.262,4.125-.545,6.186-.833a9.738,9.738,0,0,0,2.619-.794,5.257,5.257,0,0,0,3.249-5.065c.147-3.822.4-7.639.611-11.458.127-2.352.245-4.7.374-7.058q.306-5.6.62-11.207c.128-2.325.249-4.65.378-6.974q.309-5.6.623-11.207c.132-2.436.244-4.873.378-7.308.2-3.653.414-7.3.616-10.958.132-2.38.25-4.76.381-7.141q.307-5.6.624-11.207c.058-1.051.106-2.1.177-3.154.05-.726-.42-.948-.992-1.116-2.343-.686-4.683-1.383-7.025-2.074l-34.8-10.276c-.106-.031-.211-.071-.32-.092-.289-.053-.619-.3-.861-.036s0,.582.1.859q4.518,13.5,9.047,26.99,3.906,11.64,7.813,23.278c.438,1.3.534,1.374,1.889,1.383.638.005,1.277-.012,1.914.009.786.026.9.228.485.908a10.955,10.955,0,0,1-3.789,3.556,25.792,25.792,0,0,1-10.7,3.418,56.235,56.235,0,0,1-20.986-1.031,21.854,21.854,0,0,1-8.878-4.392,8.274,8.274,0,0,1-1.43-1.5c-.152-.218-.424-.43-.256-.733.16-.286.489-.221.757-.223,1.36-.01,2.719,0,4.079-.01,1.22-.007,1.343-.092,1.728-1.246q3.954-11.842,7.9-23.688,4.449-13.3,8.9-26.6c.161-.483.735-1.07.032-1.56a1.838,1.838,0,0,0-2.405.13,1.912,1.912,0,0,1-1.48.636,1.839,1.839,0,0,1-1.746-1.611,1.823,1.823,0,0,1,1.208-1.966,1.614,1.614,0,0,1,2.139.76,2.38,2.38,0,0,0,2,1.359q22.2,4.448,44.389,8.931l.327.065c1.166.22,1.308.1,1.329-1.088a.763.763,0,0,1,0-.083,2.387,2.387,0,0,0-1.463-2.927,4.244,4.244,0,0,1-1.747-5.377,4.471,4.471,0,0,1,4.729-2.787,4.6,4.6,0,0,1,3.943,4.038,4.567,4.567,0,0,1-3.093,4.7c-1.209.405-1.281.515-1.172,1.784.2,2.3.19,2.321,2.354,2.962q16.24,4.807,32.488,9.591c3.619,1.068,7.243,2.12,10.854,3.213a1.784,1.784,0,0,0,1.839-.261,1.819,1.819,0,0,1,2.764.651,1.891,1.891,0,0,1-.859,2.479,1.722,1.722,0,0,1-2.485-1.06c-.306-1.255-1.216-1.279-2.137-1.417-.483-.072-.675.172-.556.643.062.242.142.479.221.715q7.054,21.075,14.111,42.149c.917,2.736,1.854,5.464,2.782,8.2.421,1.24.51,1.306,1.85,1.312,1.082.005,2.165-.009,3.247.009.37.006.856-.138,1.047.3.18.407-.2.72-.417,1.026a13.7,13.7,0,0,1-6.089,4.478,31.537,31.537,0,0,1-9.854,2.289,58.764,58.764,0,0,1-17.391-.793,24.463,24.463,0,0,1-10.425-4.585,10.412,10.412,0,0,1-1.988-2.115c-.3-.421-.273-.646.323-.628.86.026,1.72.023,2.58.021,1.427,0,1.509-.062,1.956-1.4q5.1-15.277,10.193-30.557,3.283-9.829,6.6-19.648c.1-.289.19-.58.275-.873a.684.684,0,0,0-.6-.972c-.218-.046-.434-.1-.651-.14q-19.994-4.019-39.987-8.033c-.217-.044-.437-.078-.653-.129-.667-.159-.946.141-.916.782q.1,2.077.213,4.152c.144,2.574.3,5.147.444,7.72q.314,5.562.622,11.124.192,3.486.377,6.974.312,5.688.625,11.374c.186,3.459.354,6.92.544,10.379.2,3.57.414,7.139.614,10.708.134,2.408.25,4.817.383,7.224q.3,5.563.621,11.124c.125,2.242.313,4.482.353,6.726a5,5,0,0,0,3.336,4.72,20.414,20.414,0,0,0,5.929,1.218c3.521.451,7.06.779,10.541,1.514a14.649,14.649,0,0,1,6.509,2.8,9.032,9.032,0,0,1,2.1,2.447c.362.623.224.846-.489.89-.3.019-.61.009-.916.009Zm44.22-40.129q7.614,0,15.23,0c1.256,0,1.372-.167.968-1.37-.379-1.131-.792-2.25-1.171-3.381q-4.5-13.411-9-26.825-2.8-8.365-5.592-16.734c-.081-.243-.071-.644-.418-.632-.27.008-.268.378-.365.6-.044.1-.072.209-.108.314q-3.43,10.216-6.86,20.434-4.382,13.1-8.742,26.21c-.425,1.277-.352,1.385.992,1.386Q1308.047-22.752,1315.579-22.757ZM1225.719-45.4q7.654,0,15.308,0c1.044,0,1.162-.135.847-1.111-.647-2.006-1.342-4-2.011-5.993q-6.855-20.471-13.714-40.939c-.108-.323-.1-.872-.489-.867s-.373.555-.481.88q-7.77,23.192-15.522,46.387a9.7,9.7,0,0,0-.284.956.482.482,0,0,0,.459.645,8.262,8.262,0,0,0,1,.045Q1218.273-45.4,1225.719-45.4Z" style="fill: #fff"/>
  </g>
  <g style="clip-path: url(#bd4f95fc-85f7-4d4a-b0b6-cb55a38fbed3)">
    <g>
      <path d="M138.412,151.7c5.454,3.547,5.985,4.02,9.177,7.922s2.6,4.02,5.912,6.267,4.021,3.193,6.5,3.9,2.18.71,3.193,2.943c.987,2.178,1.773,2.024-.592,3.088a23.083,23.083,0,0,1-6.267,2.128c-2.6.473-29.443,11-32.635,11.352s2.719.591-8.632,2.246a140.089,140.089,0,0,1-27.551,1.538c-7.568-.355-10.642-.946-18.092-.946s-12.494.354-17.244.354-6.76,1.231-7.942.734c0,0-32.736,2.219-42.724,1.664s-25.154.74-29.593-1.849S3,185.419,3,173.839c0-2.4,5.173-9.358,9.783-16.834,2.869-4.652,20.055-16.493,20.055-16.493L40,136.583s23.052-7.907,33.286-8.051c5.352-.075,16.422-15.851,26.906-20.548,8.7-3.9,19.7,36.412,19.7,36.412Z" style="fill: #e4ab8d"/>
      <path d="M116.086,54.06c0-.58-2.631-3.631-5.682-5.4s-4.231-3.543-11.415-5.806-11.022-3.346-22.24-1.477a34.807,34.807,0,0,0-18.4,9.841l-7.479,8.168-2.46,13.088-3.051,18.5.492,9.447-1.673,8.365,1.28,9.25L42.4,121.676s-4.7,7.187-4.81,15.55S61.1,146.771,61.1,146.771l36.422-11.833,9.239-29.794,14.564-14.761-1.18-30.408Z" style="fill: #e1bb94"/>
      <path d="M64.375,46.427c-.385,1.442-1.827,2.692-4.423,5.865s-5.865,5.576-6.634,7.98.384,2.788-.769,5.865S51.106,69.5,50.818,72.1a87.618,87.618,0,0,1-2.981,12.5c-.865,2.307.193,3.269,0,6.057s.577,6.058,0,8.654-1.826,4.807-2.019,6.249,2.212,6.538,2.212,8.365,1.538,2.308-.769,4.615-2.561,3.253-2.561,3.253-1.248,1.721-4.651,1.939c0,0-.307,1.149.55-2.052s1.782-3.98,2.01-7.5-.444-1.887.132-5.733,2.116-7.211,1.731-8.077-1.827-1.25-2.692-1.538-1.25-.481-1.154-2.5-1.057-2.211.673-4.711,2.116-.77,2.692-3.942,1.731-3.558.385-4.712-2.193.872-1.577-2.015,1.481-3.561,1.769-4.523,1.827-1.731.866-2.019-2.019,1.25-2.5,0,1.442-2.981,2.4-5.1.865-.288,1.73-3.077,3.462-2.788.866-2.788-4.4,1.16-2.97-1.394,2.1-1.394,3.546-3.894,2.158-1.827,3.675-3.654a12.456,12.456,0,0,1,2.479-2.6c1.346-1.154.769-.192,3.077-1.827s3.268-2.4,4.278-3.173A3.18,3.18,0,0,1,64.375,46.427Z" style="fill: #e9d3c8"/>
      <path d="M124.661,100.178c-.717,2.21-.185,3.982-1.464,5.753a13.765,13.765,0,0,1-2.952,3.543c-1.87,1.673-1.771,1.771-3.248,2.952s-1.476.689-2.657,2.657-1.377,2.756-2.066,3.838-1.87,1.87-5.117,1.476a15.339,15.339,0,0,1-5.314-1.574l9.644-31.885,12.1-.59,2.438,8.726Z" style="fill: #e1bb94"/>
      <path d="M64.375,86.629c1.538.785,2.281,2.682.631,1.939s-3.547-.991-5.115-1.939-3.057-2.311-4.949-1.938-2.64.412-4.29.742-3.629-.329-1.4-1.319a18.848,18.848,0,0,1,6.682-1.4,27.611,27.611,0,0,1,5.527,2.062A13.118,13.118,0,0,1,64.375,86.629Z" style="fill: #e9d3c8"/>
      <path d="M93.3,88.685c2.392,1.155,5.032,1.65,5.28,2.887s-1.32,1.155-2.64.413a18.658,18.658,0,0,0-9.157-2.063c-4.537.083-5.154.193-6.328-.151-.619-.181-6.128-2.241-.994-2.241,2.043,0,4.683-.082,6.827,0A59.98,59.98,0,0,1,93.3,88.685Z" style="fill: #e9d3c8"/>
      <path d="M80.962,97.834C82,95.744,82.4,95.4,85.7,95.65s5.494-.157,6.814,1.837.94,1.38,1.188,2.37.495,1.4-1.237,1.815-5.692.825-7.425.33-3.512-.793-4.116-2.061A3.1,3.1,0,0,1,80.962,97.834Z" style="fill: #fae1d7"/>
      <path d="M62.985,96.467c0-1.832-1.255-3.054-3.029-3.941a11.018,11.018,0,0,0-5.544-1.268c-1.652.272-3.784-.352-3.784,2.108s.237,4.115,3.193,4.707a12.868,12.868,0,0,0,5.262.3C60.856,98.191,62.985,98.054,62.985,96.467Z" style="fill: #fae1d7"/>
      <path d="M112.274,119.889a22.294,22.294,0,0,1,1.662,5.439c.9,3.9,1.372,5.676,2.909,7.449s4.257,3.548,7.805,7.1a75.95,75.95,0,0,0,8.049,6.9c2.593,2.088,6.849,2.324,5.431,6.936s-10.675,21.4-12.787,25.659-6.606,6.977-7.079,9.1-.674,1.378-.674,1.378S97.684,174,89.824,173.017s-4.55-8.077-4.55-8.077l16.569-20.811s4.823-2.894,5.242-5.341,4.384-9.794,4.412-11.686-.744-5-.713-6.934.331-4.654.713-4.773S112.274,119.889,112.274,119.889Z" style="fill: #daac3d"/>
      <path d="M112.943,143.656c3.666.237,3.9-.591,5.558,0s-.828,2.445-.828,3.115.237,1.5.828,1.733-1.183-.118-1.537.591,2.2-1.3,2.106,2.6a43.848,43.848,0,0,0,0,5.971c.137,1,1.3,3.961,2.254-.769s1.312-5.557,2.022-5.794a3.079,3.079,0,0,1,2.68.367c.513.579-1.222,2.59,0,2.353s2.4-.979,3.114-1.14,5.794-2.407,2.838-.515-3.429,1.064-5.2,3.074-2.6,2.138-3.9,4.262-.732,3.779-1.549,3.9-1.762.355-3.063-1.3-.118-2.01-2.128-3.784-4.73-3.429-3.666,1.183,1.985,6.976,1.466,8.041,1.017,1.064-.52,1.064-5.794-2.956-5.794-2.956h-1.773s-3.9-.355,2.365,2.246,5.886,3.429,5.722,4.021a2.905,2.905,0,0,0,0,1.773c.19,1.065-.52.828.545,1.774s1.537.828,1.537.828-.237-4.848-.237-5.558.118-.828,1.183-1.182,2.01.236,2.483-.946,1.419-1.537,1.182-2.247,1.537-1.184-.236-.709,0-1.06-1.773.475-1.065,1.535-1.775,1.535.237.709-.709-1.892a19.062,19.062,0,0,1-1.064-3.666,5.338,5.338,0,0,0-1.136-2.235s2.673,1.171,3.382,2.354-.747.354,1.454,1.891,3.513,1.3,3.513,1.3l1.641-.44c.551-.147,3.088.2.369,1.977a27.474,27.474,0,0,0-4.966,3.9c-1.065,1.065-1.892,1.183-2.011,2.011a10.836,10.836,0,0,0-.118,1.892c0,.709.237.364,0,1.541s.237,2.039-.236,2.318.129.819-.7,1.14-1.332,2.4-2.324-.176-1.166-3.759-2.439-4.587-.209.236-3.047-1.892-1.809-2.128-3.8-3.193-2.673-1.182-2.8-2.01-1.2.473-.133-.827,2.128-2.365,2.128-2.365-.118-.71,1.538-1.065a18.213,18.213,0,0,0,2.838-.827c.709-.237,1.182,2.449,1.064-.667s-1.656-2.644,0-3.945,2.6-1.182,2.838-2.365,2.956,1.656,3.783-.236,2.247-2.01.355-4.494-2.365-2.246-3.192-3.429S111,144.72,111.5,144.011A1.285,1.285,0,0,1,112.943,143.656Z" style="fill: #ba7731"/>
      <path d="M116.086,54.06c3.145,2.988,5.865,5.888,6.966,7.775S127.3,73.473,129.185,76.3s3.866,4.137,3.46,5.661.472,4.089-1.73,5.819-3.544,1.55-2.873,4.235.514,4.414.043,5.043.744.933-.808,1.882-2.284.017-3.333,1.426,1.939-2.679-1.364-6.767-5.5-3.3-8.02-1.1-3.774,5.5-3.774,6.447.629,1.73,0,4.4-.158,2.516-1.1,4.718.314,1.887-1.73,3.774-2.673,1.887-2.831,3.3-2.044,1.573-.943,3.775,2.673,1.572,2.044,3.617-1.578,1.97-1.1,3.816-.917,1.682.475,4.361,1.392,6.291,1.392,7.549,1.6,1.887,1.439,3.774-1.416,3.932-1.887,5.505-.315,1.729-.315,3.774,1.258,2.988-.157,4.4-1.944,1.1-2.23,3.3.185,2.988-1.7,4.56,0,1.258-1.887,3.3-4.561,2.673-7.863,4.4-9.158,8.155-14.783,7.234a86.279,86.279,0,0,1-9.98-2.088c-2.185-.585-1.458-2.47-4.173-2.158s-6.605,1.1-9.436,1.1-2.516,1.1-6.133-.472-9.593-3.3-11.8-6.133-3.145-3.145-3.145-7.077-.315-6.448.157-9.121-.315-3.3.944-6.133,1.729-1.573,1.729-3.775,2.988-8.177,5.033-11.165,5.819-5.19,7.706-6.133-1.416-2.517,2.359-3.617a28.175,28.175,0,0,1,8.02-1.1,7.3,7.3,0,0,1,2.657.417c1.439.385,3.162,1.627,5.206.369s1.416-1.258,3.145-1.258,2.359-1.1,4.718,0,2.988,1.73,4.246,2.359,1.73-.629,2.674,2.044a17.833,17.833,0,0,0,3.3,5.5c.472.472,2.2,4.561,4.4,4.4s2.044-.472,2.359-3.932-.325-4.973.938-5.789,2.207.128,3.622-2.231.2-3.113,1.833-3.916,2.1-.016,2.571-1.431a7.968,7.968,0,0,1,1.258-2.359s-.113.419.92-3.435,2.382-2.856,2.068-7.416-2.2-4.875.314-6.605,3.5-.882,2.516-3.145a13.465,13.465,0,0,1-1.572-5.662c-.157-2.516.472-2.2-.472-4.718s-4.246-1.73-.944-3.931,2.931-.813,3.62-3.386-.521-1.5,1.075-4.012,3.169-1.566,3.955-4.869-.315-2.516.786-5.032,4.541-.246,2.045-4.246A3.758,3.758,0,0,1,116.086,54.06Z" style="fill: #f0e1cc"/>
      <path d="M81.174,141.082c-3.3-3.3-4.455-3.877-7.259-6.682s-4.042-4.455-5.527-4.7-4.537-.66-7.094-1.073-3.877.578-5.445,2.31a21.763,21.763,0,0,1-4.784,3.795c-.908.5-2.722,1.65.33,1.155s2.392-.743,4.042-.578a17.343,17.343,0,0,1,4.124.825c1.98.578.66,1.155,3.3,1.485s2.563-1.4,4.251-.33,1.523,1.567,3.173,1.815,1.485-.578,3.712.247a32.1,32.1,0,0,0,4.617,1.733c2.725.742,4.045,1.979,3.3.99Z" style="fill: #e1bb94"/>
      <path d="M70.654,135.486c-2.678-1.245-4.68-3.013-7.722-2.883s-6.917-.026-7.8-.442a1.734,1.734,0,0,1-.314-.2c.362-.332.713-.677,1.032-1.03,1.568-1.732,2.887-2.722,5.445-2.31s5.609.825,7.094,1.073,2.722,1.9,5.527,4.7c.541.541,1.019,1,1.465,1.408C74.562,136.417,72.811,136.489,70.654,135.486Z" style="fill: #72382c"/>
      <path d="M52.934,133.5c.732-.539,2.356-2.044,3.085-2.752,3.739-.043,11.771,2.091,13.585,2.455s4.309,1.559,5.264,3.051c.635.99,1.04,2.737.422,3.275a1.4,1.4,0,0,1-.345.191c-.26-.109-.564-.231-.948-.373-2.227-.825-2.062,0-3.712-.247s-1.485-.743-3.173-1.815-1.611.66-4.251.33-1.32-.907-3.3-1.485a17.343,17.343,0,0,0-4.124-.825,3.956,3.956,0,0,0-1.971.163A8.817,8.817,0,0,1,52.934,133.5Z" style="fill: #844234"/>
      <path d="M85.7,95.65c1.062.08,2.007.092,2.848.139a5.041,5.041,0,0,1,.532,2.272,4.523,4.523,0,0,1-2.4,4.155A7.246,7.246,0,0,1,85.035,102c-.842-.241-1.694-.437-2.418-.718a4.861,4.861,0,0,1-1.172-3.223,5.165,5.165,0,0,1,.211-1.456C82.364,95.615,83.2,95.463,85.7,95.65Z" style="fill: #503338"/>
      <path d="M53.821,98.073a5.53,5.53,0,0,1-1.5-.5,5.037,5.037,0,0,1-.04-6.151c.666-.09,1.438-.049,2.127-.163a8.881,8.881,0,0,1,3.709.53,4.973,4.973,0,0,1,.766,2.683A4.583,4.583,0,0,1,56.718,98.5,20.557,20.557,0,0,1,53.821,98.073Z" style="fill: #503338"/>
      <path d="M67.112,98.373c-.3,1.914-1.259,3.684-1.63,5.47a11.65,11.65,0,0,0-.437,2.709,3.741,3.741,0,0,1-.845,2.267c-.143.184-.279.358-.407.546-.255.365-.5.8-.821,1.209a10.214,10.214,0,0,1-1.026,1.111,11.982,11.982,0,0,0-1.859,2.038,7.446,7.446,0,0,0-1.194,2.357,1.582,1.582,0,0,0,.025,1.025c.028.064.083.1.113.163l.254.26c.171.178.339.361.5.551a17.779,17.779,0,0,0,1.783,2.139,4.842,4.842,0,0,0,2.254,1.16,4.74,4.74,0,0,0,2.478-.522l1.308-.566c.226-.1.451-.192.706-.279s.468-.124.7-.188l2.791-.722.7-.181.174-.045a1.863,1.863,0,0,1,.294-.046,2.237,2.237,0,0,1,.478.046,2.781,2.781,0,0,0,1.132.123c.217-.013.447-.291.634-.72a5.618,5.618,0,0,0,.419-1.287,3.213,3.213,0,0,0-.489-2.636,3.309,3.309,0,0,1,1.049,2.69,6.313,6.313,0,0,1-.2,1.5,1.972,1.972,0,0,1-1.052,1.468,3,3,0,0,1-1.688-.082,1.4,1.4,0,0,0-.234-.028c-.027.01.01-.006-.059.011l-.172.044-.689.178-2.758.713c-.226.061-.468.116-.681.181-.2.067-.413.157-.626.248l-1.323.572a11.3,11.3,0,0,1-1.424.493,3.843,3.843,0,0,1-1.64.1,5.883,5.883,0,0,1-2.788-1.412,17.7,17.7,0,0,1-1.889-2.247q-.224-.256-.464-.506l-.246-.253a2.479,2.479,0,0,1-.3-.42,2.586,2.586,0,0,1-.117-1.774,8.454,8.454,0,0,1,1.365-2.734,13.8,13.8,0,0,1,.94-1.163c.335-.368.726-.724,1.052-1.027a9.222,9.222,0,0,0,.918-.991c.267-.338.5-.743.787-1.162.141-.207.3-.41.448-.6a2.682,2.682,0,0,0,.616-1.7,12.772,12.772,0,0,1,.474-2.935C65.227,101.653,66.381,100.153,67.112,98.373Z" style="fill: #e29d7c"/>
    </g>
  </g>
  <g style="clip-path: url(#f768ea21-3ca0-4a8f-a418-60c5ee0dfe7e)">
    <g>
      <path d="M217.817,113.263c2.17.582.033-.475,5.742,2.7s11.207,4.405,13.11,6.749,4.863,8.475,7.612,11.647,2.464,3.626,7.962,8.067,3.516,5.159,7.86,9.976c4.865,5.4,8.494,21.014,15.472,24.186s10.572-4.591,14.378-1.42,6.132,2.115,10.15,6.978,8.881,14.167,13.321,19.665,10.361,13.955,10.361,13.955-258.706.317-258.389,0S85.484,187.005,94.788,181.3s14.8-10.572,21.567-12.686a90.613,90.613,0,0,1,13.11-2.98s-2.96-3.788,4.017-14.994,9.465-11.873,11.4-12.391,2.979.128,3.613-3.256a30.045,30.045,0,0,1,3.127-8.291c1.314-2.7,27.533-21.072,27.533-21.072Z" style="fill: #0b0b13"/>
      <path d="M213.9,120.662c3.315.583,6.486-.144,9.024,3.92s2.537,5.524,3.806,11.772,3.594,7.516,3.594,13.225,1.522,12.053,1.5,17.128.444,8.246,0,13.955,1.248,5.709-2.347,10.784-2.325,7.189-6.766,9.726-1.7,4.018-7.3,3.172-6.868-.423-10.04-2.96-5.392,1.691-7.031-5.5.646-6.132-.285-10.784-.084-2.96-3.256-9.092-2.538-6.63-3.791-8.669-1.578-.827-2.974,4.384-6.542,4.285-6.549,11.052,1.74,22.2-6.534,22.836-15.434,1.268-17.775-2.749-2.975-2.96-3.609-8.458-2.45-7.189-1.542-13.955,1.542-4.229,1.119-11.841-1.816-11-1.119-14.167,3.022-1.058,1.542-6.132-2.314-11.207-1.792-14.59,3.176-11.013,3.176-11.013l26.534-9.583Z" style="fill: #d8d0bb"/>
      <path d="M212.852,122.466c1.615,5.757,5,22.461-.288,25.422a41.085,41.085,0,0,0-12.053,10.572c-1.9,2.749-2.114,6.132-5.92,6.978s-9.379-1.269-12.513-3.172a56.2,56.2,0,0,1-7.124-5.075c-2.354-1.9-5.3-3.594-5.836-6.554s-1.595-7.877-2.467-8.8,37.878-34.758,37.878-34.758Z" style="fill: #d5bd8d"/>
      <path d="M216.5,54.728c-1.379-1.079-11.6-7.875-16.636-9.082a71.094,71.094,0,0,0-15.761-2.3c-5.035,0-25.393,6.567-25.393,6.567L137.7,72.24l6.567,36.119,10.688,14.349s10.326,25.929,22.147,23.74,16.649-2.689,25.611-10.069c10.1-8.319,15.105-23.116,15.105-23.116l3.283-3.484,6.623-13.444,4.1-20.373S224.459,60.957,216.5,54.728Z" style="fill: #e2c8af"/>
      <path d="M216.5,54.728c-4.159.438-8.318-.437-12.7,0s-6.873-1.527-9.28.443-7.285,1.449-5.168,3.432c5.406,5.064,3.284,2.473,7.662,4.444s7.443,1.094,8.537,3.283.924,6.567.924,6.567,3.235,3.94,4.111,6.567,1.751,5.473,2.627,4.6.656-2.846,3.283-2.846,3.11-1.043,4.816,0,2.408.543,3.065,3.008,2.408,1.589,2.189,5.967.237,2.675-1.153,7.865a52.209,52.209,0,0,1-4.32,10.961,20.565,20.565,0,0,1-2.84,3.607c-.545.666-.481.888,1.184.3,3.626-1.28,4.064-3.688,4.94-4.126s-.182-1.094,2.208-1.094,5.015.219,5.672-1.971.438-3.721.876-6.129,0-4.378.656-5.691.876-1.1,1.971-2.189-.034-.826,1.094-3.065,1.751-1.751,2.189-3.5,1.751-1.095,1.314-4.378,0-4.816-1.752-7.443-1.751-4.159-3.064-5.035-.438-2.189-1.314-4.816.876-2.845-2.189-4.6-3.61-3.48-6.292-2.616-1.975,1.055-4.127.478A36.256,36.256,0,0,1,216.5,54.728Z" style="fill: #1d160c"/>
      <path d="M175.131,49.037c4.6.875,7.88,1.313,8.537,2.408s1.97,1.532,1.97,5.253.219,4.816-2.846,5.911-1.532.875-7.661,1.094-5.911-1.313-9.194.657-3.065,2.408-7.443,3.5a63.95,63.95,0,0,0-7.88,2.408c-4.6,1.533-6.13-.219-6.567,2.627s.656,2.189.875,4.816.657,2.588.657,6.22a28.914,28.914,0,0,0,.876,7.571c.437,1.751,1.313,2.846,1.313,4.378s1.095,3.283,1.751,5.254.657,1.97.657,5.253-1.532.219.219,5.473a39.079,39.079,0,0,0,3.94,8.537s3.065,4.159-.876,1.313-5.239-7.223-9.515-11.6-7.34-8.319-8.216-10.946-1.094-3.5-2.189-6.129-.113-6.288,0-6.711-1.532.325-2.408-2.392-.879-2.732-1.55-5.238-1.551-3.609,0-5.36,1.55.876,1.55-1.751-1.313-3.065,0-6.129-.218-5.911,3.5-5.911,5.035.657,7.661,0a14.533,14.533,0,0,0,6.13-3.283c1.094-1.1-.438,2.626,4.6-3.284s4.159-6.129,5.91-7,10.069.219,11.6.876S175.131,49.037,175.131,49.037Z" style="fill: #1d160c"/>
      <path d="M184.063,92.729c-.881-3.289,4.322-4.438,6.774-4.321s6.074-.007,6.891,2.157.117,4.383-2.1,4.967-3.971,1.051-6.073.467S184.671,95,184.063,92.729Z" style="fill: #fff"/>
      <path d="M158.252,94.962c3.739-.049,6.19-.645,7.241,1.306s.7,3.585-1.868,4.52-3.229,1.232-6.446.467c-3.284-.781-4.766-.775-5.117-2.431S154.05,95.018,158.252,94.962Z" style="fill: #fff"/>
      <path d="M167.829,93.2a27.008,27.008,0,0,1,2.894,9.121,12.134,12.134,0,0,1,.121,2.429,5.067,5.067,0,0,1-.215,1.24c-.126.372-.24.744-.338,1.127a22.549,22.549,0,0,0-.7,4.672,10.991,10.991,0,0,0,.1,2.333,3.688,3.688,0,0,0,.856,2.025,6.217,6.217,0,0,0,.916.694,10.528,10.528,0,0,0,1,.615,1.922,1.922,0,0,0,2.046.134,7.281,7.281,0,0,0,1.561-1.711,7.389,7.389,0,0,1,1.807-1.629,6.263,6.263,0,0,1,2.288-.807,1.778,1.778,0,0,1,1.115.469,4.406,4.406,0,0,1,.8.895,2.645,2.645,0,0,0-1.906-1.232,6.094,6.094,0,0,0-2.153.9,7.179,7.179,0,0,0-1.683,1.618,7.459,7.459,0,0,1-1.6,1.848,1.964,1.964,0,0,1-1.274.334,3.4,3.4,0,0,1-1.21-.4,11,11,0,0,1-1.047-.631,6.574,6.574,0,0,1-.994-.742,4.163,4.163,0,0,1-1.02-2.288,11.511,11.511,0,0,1-.131-2.441,23.133,23.133,0,0,1,.762-4.776c.1-.389.228-.78.362-1.162a4.656,4.656,0,0,0,.2-1.111,13.924,13.924,0,0,0-.067-2.35,29.284,29.284,0,0,0-.885-4.672A24.185,24.185,0,0,0,167.829,93.2Z" style="fill: #886d50"/>
      <path d="M167,111.752a6.578,6.578,0,0,0-1.555,1.913,2.425,2.425,0,0,0,.054,2.218,6.989,6.989,0,0,0,1.478,1.906,1.106,1.106,0,0,0,1.019.333,6.164,6.164,0,0,0,1.125-.529,4.569,4.569,0,0,1-1.048.765,1.391,1.391,0,0,1-1.334-.254,5.775,5.775,0,0,1-1.721-1.986,3.018,3.018,0,0,1-.332-1.334,2.675,2.675,0,0,1,.385-1.315A4.789,4.789,0,0,1,167,111.752Z" style="fill: #886d50"/>
      <path d="M184.354,124.582a3.333,3.333,0,0,1-.212,2.116c-.438.779-1.459,2.53-2.335,2.639s-5.728.621-7.187,0-2.627-1.495-2.846-2.48,1.606-2.737,3.649-2.7S184.354,124.582,184.354,124.582Z" style="fill: #bc8b7d"/>
      <path d="M187.465,123.134c-.073-.65-5.387-.7-8.073-.426s-2.91-.859-4.906.27-4.62.605-5.229,2,.908,1.975,2.31,1.625,4.715-.818,6.737-1.168,2.372.488,4.825-.457S187.6,124.324,187.465,123.134Z" style="fill: #916751"/>
      <path d="M197.154,79.111c-3.956-1.06-6.461-1.124-9.13-.141s-8.38,2.739-5.946,3.161,4.26-.562,6.859-1.405,1.475-1.194,5.267-.773S199.653,79.78,197.154,79.111Z" style="fill: #1d160c"/>
      <path d="M160.071,85.642c-6.391.281-8.919.7-9.34,1.967s.351,1.755,2.036,1.123a23.743,23.743,0,0,1,5.9-1.685c1.9-.141,5.97.632,4.214-.422A5.443,5.443,0,0,0,160.071,85.642Z" style="fill: #1d160c"/>
      <path d="M190.837,88.408c1.679.079,3.9.048,5.4.713a8.356,8.356,0,0,1,.141,1.508,7.4,7.4,0,0,1-2.014,5.224,9.03,9.03,0,0,1-4.815.146c-.741-.206-1.564-.394-2.349-.647a7.591,7.591,0,0,1-1.564-4.723,8.313,8.313,0,0,1,.078-1.091A10.652,10.652,0,0,1,190.837,88.408Z" style="fill: #412c19"/>
      <path d="M156.252,95.168a11.124,11.124,0,0,1,2-.206c2.364-.031,4.212-.279,5.518.035a7.824,7.824,0,0,1-.089,5.766c-.021.007-.035.017-.056.025-2.57.934-3.229,1.232-6.446.467-.22-.053-.412-.094-.617-.14a7.471,7.471,0,0,1-.757-3.339A7.692,7.692,0,0,1,156.252,95.168Z" style="fill: #412c19"/>
    </g>
  </g>
  <polygon points="305.039 104.462 263.559 172.476 0 172.476 0 194.648 279.306 194.648 1344.293 194.648 1344.293 104.462 305.039 104.462" style="fill: #212026"/>
  <g>
    <path d="M343.392,168.223l-.742,1.816a20.113,20.113,0,0,1-9.258,2.207q-7.052,0-11.455-4a13.481,13.481,0,0,1-4.4-10.468,13.809,13.809,0,0,1,2.2-7.784,13.624,13.624,0,0,1,5.8-4.98,19.227,19.227,0,0,1,8.1-1.65,24.366,24.366,0,0,1,5.136.546A21.709,21.709,0,0,1,343,145.215l.136.195a24.912,24.912,0,0,0-.839,5.41l-.137.157h-.918l-.156-.157-.2-3.32a10.569,10.569,0,0,0-3.447-1.767,13.975,13.975,0,0,0-4.209-.635,12.231,12.231,0,0,0-5.918,1.416,9.859,9.859,0,0,0-4.062,4.1,13.716,13.716,0,0,0-1.446,6.573,13.485,13.485,0,0,0,1.7,6.855,11.608,11.608,0,0,0,4.638,4.531,14.265,14.265,0,0,0,6.865,1.582,16.373,16.373,0,0,0,3.34-.332,12.506,12.506,0,0,0,2.666-.82,12.215,12.215,0,0,0,2.041-1.191Z" style="fill: #fff"/>
    <path d="M345.658,143.926q4.98.156,5.586.156.645,0,5.6-.156l.157.137v.976l-.157.137q-1.347.039-2.08.117a2.541,2.541,0,0,0-1.064.293,1.386,1.386,0,0,0-.44,1.006,17.238,17.238,0,0,0-.107,2.2l-.039,4.492v2.735q4.276.117,8.1.117,5.235,0,7.969-.117v-2.735l-.039-3.808a27.39,27.39,0,0,0-.117-2.871,1.929,1.929,0,0,0-.274-.86,1.36,1.36,0,0,0-.7-.351,17.052,17.052,0,0,0-2.617-.215l-.137-.137v-.976l.137-.137q5,.156,5.606.156.663,0,5.605-.156l.156.137v.976l-.156.137q-1.368.039-2.1.117a2.541,2.541,0,0,0-1.064.293,1.359,1.359,0,0,0-.43,1.006,21.478,21.478,0,0,0-.117,2.2l-.039,4.492v9.043l.039,3.809a26.571,26.571,0,0,0,.117,2.852,1.821,1.821,0,0,0,.283.859,1.454,1.454,0,0,0,.7.361,15.3,15.3,0,0,0,2.607.225l.156.117v.977l-.156.156q-5-.158-5.605-.156-.625,0-5.606.156l-.137-.156v-.977l.137-.117a20.611,20.611,0,0,0,2.442-.195,1.714,1.714,0,0,0,.8-.3,1.648,1.648,0,0,0,.332-.791,15.956,15.956,0,0,0,.137-2.7l.039-4.121v-4.453q-5.781-.117-8.1-.117-2.383,0-7.969.117v4.453l.019,3.809a26.2,26.2,0,0,0,.118,2.852,1.81,1.81,0,0,0,.283.859,1.459,1.459,0,0,0,.713.361,15.387,15.387,0,0,0,2.6.225l.157.117v.977l-.157.156q-4.98-.158-5.6-.156-.606,0-5.586.156l-.156-.156v-.977l.156-.117a20.391,20.391,0,0,0,2.422-.195,1.789,1.789,0,0,0,.81-.3,1.529,1.529,0,0,0,.332-.791,18.187,18.187,0,0,0,.147-2.7l.019-4.121v-9.043l-.039-3.808q-.019-2.228-.107-2.871a1.775,1.775,0,0,0-.274-.86,1.433,1.433,0,0,0-.712-.351,16.9,16.9,0,0,0-2.6-.215l-.156-.137v-.976Z" style="fill: #fff"/>
    <path d="M378.607,144.063l.156-.137q3.575.156,5.567.156,2.207,0,5.957-.137,1.386-.038,2.012-.039,4.941,0,6.7,1.8a5.883,5.883,0,0,1,1.758,4.258,6.693,6.693,0,0,1-.86,3.223,7.659,7.659,0,0,1-2.539,2.705,12.649,12.649,0,0,1-4.629,1.689q.548.762,1.973,2.637l2.773,3.672q1.349,1.817,2.891,3.838a12.355,12.355,0,0,0,1.992,2.285,2.463,2.463,0,0,0,.772.322,6.345,6.345,0,0,0,1.025.059l.156.156v.918l-.175.176a18.292,18.292,0,0,0-2.227-.117q-1.388,0-3.027.117-1.348-1.641-4.239-5.684-3.36-4.687-6.875-8.691l.2-.606q1.014.059,1.582.059a7.94,7.94,0,0,0,5.293-1.621,5.572,5.572,0,0,0,1.914-4.492,4.61,4.61,0,0,0-1.719-3.9,7.454,7.454,0,0,0-4.648-1.318,12.941,12.941,0,0,0-3.868.566q-.292.43-.293,7.324v9.043l.02,3.809a26.571,26.571,0,0,0,.117,2.852,1.821,1.821,0,0,0,.283.859,1.463,1.463,0,0,0,.713.361,15.416,15.416,0,0,0,2.6.225l.156.117v.977l-.156.156q-.1,0-3.438-.117-1.386-.04-2.168-.039-.606,0-5.586.156l-.156-.156v-.977l.156-.117a20.391,20.391,0,0,0,2.422-.195,1.794,1.794,0,0,0,.811-.3,1.529,1.529,0,0,0,.332-.791,18.094,18.094,0,0,0,.146-2.7l.02-4.121v-9.043l-.039-3.808q-.021-2.228-.108-2.871a1.777,1.777,0,0,0-.273-.86,1.432,1.432,0,0,0-.713-.351,16.887,16.887,0,0,0-2.6-.215l-.156-.137Z" style="fill: #fff"/>
    <path d="M405.658,143.926,408.1,144q2.4.079,3.145.078.663,0,5.6-.156l.157.137v.976l-.157.137q-1.347.039-2.08.117a2.541,2.541,0,0,0-1.064.293,1.386,1.386,0,0,0-.44,1.006,17.238,17.238,0,0,0-.107,2.2l-.039,4.492v9.043l.019,3.809a26.2,26.2,0,0,0,.118,2.852,1.81,1.81,0,0,0,.283.859,1.459,1.459,0,0,0,.713.361,15.387,15.387,0,0,0,2.6.225l.157.117v.977l-.157.156q-.1,0-3.437-.117-1.387-.04-2.168-.039-.606,0-5.586.156l-.156-.156v-.977l.156-.117a20.391,20.391,0,0,0,2.422-.195,1.789,1.789,0,0,0,.81-.3,1.529,1.529,0,0,0,.332-.791,18.187,18.187,0,0,0,.147-2.7l.019-4.121v-9.043l-.039-3.808q-.019-2.228-.107-2.871a1.775,1.775,0,0,0-.274-.86,1.433,1.433,0,0,0-.712-.351,16.9,16.9,0,0,0-2.6-.215l-.156-.137v-.976Z" style="fill: #fff"/>
    <path d="M419.525,164.805l.156-.156h.957l.157.156a17.924,17.924,0,0,0,.263,3.056,2.487,2.487,0,0,0,1.055,1.172,7.548,7.548,0,0,0,2.363,1.006,11.561,11.561,0,0,0,2.979.391,8.78,8.78,0,0,0,3.721-.762,5.826,5.826,0,0,0,2.568-2.236,6.143,6.143,0,0,0,.918-3.311,5.341,5.341,0,0,0-.44-2.246,3.84,3.84,0,0,0-1.23-1.533,5.591,5.591,0,0,0-1.807-.859q-1.016-.284-3.027-.616-1.954-.312-3.057-.566a10.455,10.455,0,0,1-2.2-.781,5.843,5.843,0,0,1-1.826-1.338,6.107,6.107,0,0,1-1.172-1.992,7.2,7.2,0,0,1-.439-2.53,7.764,7.764,0,0,1,2.539-5.986,9.676,9.676,0,0,1,6.816-2.334,18.184,18.184,0,0,1,3.7.42,15.005,15.005,0,0,1,3.643,1.24l.136.235a26.656,26.656,0,0,0-.527,5.117l-.176.156h-1.015l-.157-.137q-.039-2.343-.117-2.949t-1.777-1.5a7.775,7.775,0,0,0-3.691-.9,7.341,7.341,0,0,0-3.106.664,4.538,4.538,0,0,0-2.187,2.09,6.223,6.223,0,0,0-.743,2.91,4.457,4.457,0,0,0,.45,2.041,3.809,3.809,0,0,0,1.162,1.406,4.937,4.937,0,0,0,1.66.771q.947.255,3.467.625a20.7,20.7,0,0,1,5.029,1.182,5.6,5.6,0,0,1,2.519,2.2,6.686,6.686,0,0,1,.948,3.633,8.607,8.607,0,0,1-3.389,6.934,12.55,12.55,0,0,1-8.213,2.773,16.371,16.371,0,0,1-7.09-1.445l-.117-.254A57.438,57.438,0,0,0,419.525,164.805Z" style="fill: #fff"/>
    <path d="M462.552,143.926l.176.176q-.175,1.758-.176,6.133l-.156.156h-.918l-.156-.176-.215-1.8a16.525,16.525,0,0,0-.244-1.767.838.838,0,0,0-.283-.469,3.514,3.514,0,0,0-1.27-.244q-1.075-.1-2.4-.1h-3.691q-.157,4.414-.157,5.1v11.386l.039,3.809q.02,2.208.108,2.861a1.711,1.711,0,0,0,.273.86,1.53,1.53,0,0,0,.713.351,15.582,15.582,0,0,0,2.617.225l.137.117v.977l-.137.156q-5-.158-5.586-.156-.625,0-5.566.156l-.156-.156v-.977l.156-.117a20.227,20.227,0,0,0,2.432-.195,1.773,1.773,0,0,0,.8-.3,1.58,1.58,0,0,0,.342-.791,15.956,15.956,0,0,0,.137-2.7l.039-4.121V150.938q0-.312-.156-5.1h-2.91q-1.8,0-3.106.078t-1.514.4a7.1,7.1,0,0,0-.38,2.1l-.2,1.8-.176.176h-.9l-.156-.156q-.041-4.707-.176-6.133l.176-.176q3.4.156,11.308.156Q459.29,144.082,462.552,143.926Z" style="fill: #fff"/>
    <path d="M464.642,143.926l2.442.078q2.4.079,3.144.078.664,0,5.606-.156l.156.137v.976l-.156.137q-1.349.039-2.08.117a2.542,2.542,0,0,0-1.065.293,1.386,1.386,0,0,0-.439,1.006,17.02,17.02,0,0,0-.108,2.2l-.039,4.492v9.043l.02,3.809a26.294,26.294,0,0,0,.117,2.852,1.81,1.81,0,0,0,.283.859,1.463,1.463,0,0,0,.713.361,15.416,15.416,0,0,0,2.6.225l.156.117v.977l-.156.156q-.1,0-3.438-.117-1.387-.04-2.168-.039-.606,0-5.586.156l-.156-.156v-.977l.156-.117a20.391,20.391,0,0,0,2.422-.195,1.794,1.794,0,0,0,.811-.3,1.538,1.538,0,0,0,.332-.791,18.094,18.094,0,0,0,.146-2.7l.02-4.121v-9.043l-.039-3.808q-.021-2.228-.108-2.871a1.777,1.777,0,0,0-.273-.86,1.432,1.432,0,0,0-.713-.351,16.9,16.9,0,0,0-2.6-.215l-.156-.137v-.976Z" style="fill: #fff"/>
    <path d="M477.826,171.68l-.176-.156v-1.016l.176-.156a8.356,8.356,0,0,0,1.836-.147,1.562,1.562,0,0,0,.732-.508,16.091,16.091,0,0,0,1.3-2.49l2.051-4.453,5.312-12.031q1.5-3.536,2.989-7.071h1.269l8.34,19.61,1.113,2.617q.489,1.113,1.123,2.422a7.357,7.357,0,0,0,.879,1.543,1.639,1.639,0,0,0,.606.361,6.458,6.458,0,0,0,1.611.147l.156.156v1.016l-.156.156q-2.071-.176-3.73-.176-3.244.1-6.485.176l-.156-.156v-1.016l.156-.156a15.687,15.687,0,0,0,2.735-.186.649.649,0,0,0,.546-.674,3.325,3.325,0,0,0-.273-1.132l-2.4-5.958H486.068l-2.129,5a5.885,5.885,0,0,0-.566,1.973.765.765,0,0,0,.527.723,8.932,8.932,0,0,0,2.656.254l.176.156v1.016l-.156.156q-2.52-.158-4.414-.156Q480.013,171.524,477.826,171.68Zm8.906-10.957h9.883l-4.9-11.778Z" style="fill: #fff"/>
    <path d="M509.369,171.66l-.176-.175v-.9l.176-.156a13.653,13.653,0,0,0,1.9-.137,1.436,1.436,0,0,0,.918-.391,1.827,1.827,0,0,0,.274-.878q.067-.606.136-2.735t.069-3.047V147.461a2.449,2.449,0,0,0-.362-1.475,1.592,1.592,0,0,0-.986-.6,13.149,13.149,0,0,0-2.129-.146l-.156-.157v-.918l.156-.175q2.7.1,3.535.1,1.973,0,3.242-.1l6.231,8.085,9.16,11.485q1.66,2.089,3.379,3.965V152.4q0-.7-.068-3t-.166-2.91a1.408,1.408,0,0,0-.342-.83,1.924,1.924,0,0,0-.918-.322,13.932,13.932,0,0,0-1.826-.127l-.157-.156v-.9l.157-.175q1.581.1,4.511.1,2.676,0,3.887-.1l.176.175v.9l-.156.156a13.267,13.267,0,0,0-1.993.146,1.256,1.256,0,0,0-.878.42,2.211,2.211,0,0,0-.245.86q-.069.567-.136,2.7t-.069,3.066v9.278l.02,5.371q.037,2.637.078,5.293a31.12,31.12,0,0,0-3.379-.82l-1.387-1.641-4.16-5.078-13.242-16.543v14.98q0,.9.068,3.2a25.422,25.422,0,0,0,.166,2.793,1.562,1.562,0,0,0,.254.674,1.449,1.449,0,0,0,.674.342,9.481,9.481,0,0,0,2.139.176l.156.156v.918l-.156.156a27.682,27.682,0,0,0-3.281-.136Q511.555,171.524,509.369,171.66Z" style="fill: #fff"/>
    <path d="M564.76,171.875q-.294-.858-2.442-6.562l-6.641-16.426a23.721,23.721,0,0,0-1.425-3.194q-.294-.38-2.344-.517l-.176-.176v-.9l.176-.176q2.988.156,5.078.156,1.953,0,5.176-.156l.156.156v1.074l-.156.157a14.481,14.481,0,0,0-2.822.146.562.562,0,0,0-.459.557,14.739,14.739,0,0,0,.625,2.08q.624,1.845,1.113,3.115l6.113,15.449,5.1-12.812q.527-1.308,1.543-4.219a17.857,17.857,0,0,0,1.015-3.5.6.6,0,0,0-.478-.625,23.191,23.191,0,0,0-2.861-.332l-.176-.156v-.938l.176-.156q3.417.156,4.355.156.762,0,3.945-.156l.157.156v.938l-.157.156a5.607,5.607,0,0,0-1.7.215,1.321,1.321,0,0,0-.517.605q-.227.45-1.4,3.086l-6.094,15q-2.051,5.021-2.91,7.793Z" style="fill: #fff"/>
    <path d="M581.361,143.926,583.8,144q2.4.079,3.145.078.663,0,5.605-.156l.157.137v.976l-.157.137q-1.347.039-2.08.117a2.541,2.541,0,0,0-1.064.293,1.386,1.386,0,0,0-.44,1.006,17.238,17.238,0,0,0-.107,2.2l-.039,4.492v9.043l.02,3.809a26.023,26.023,0,0,0,.117,2.852,1.81,1.81,0,0,0,.283.859,1.459,1.459,0,0,0,.713.361,15.4,15.4,0,0,0,2.6.225l.157.117v.977l-.157.156q-.1,0-3.437-.117-1.387-.04-2.168-.039-.606,0-5.586.156l-.156-.156v-.977l.156-.117a20.391,20.391,0,0,0,2.422-.195,1.789,1.789,0,0,0,.81-.3,1.528,1.528,0,0,0,.333-.791,18.24,18.24,0,0,0,.146-2.7l.02-4.121v-9.043l-.04-3.808q-.019-2.228-.107-2.871a1.788,1.788,0,0,0-.273-.86,1.437,1.437,0,0,0-.713-.351,16.9,16.9,0,0,0-2.6-.215l-.156-.137v-.976Z" style="fill: #fff"/>
    <path d="M595.111,144.063l.156-.137q6.7.117,8.575.117,6.4,0,11.406-.117l.1.137a33.236,33.236,0,0,0-.722,5.879l-.117.156h-.957l-.176-.156c.012-.118.019-.221.019-.313a19.031,19.031,0,0,0-.254-3.164,10.636,10.636,0,0,0-3.408-.713q-2.178-.165-3.271-.166-1.545,0-3.946.215l-.078,3.125-.058,3.574-.059,3.965q2.109.117,3.887.117,1.8,0,3.008-.117a5.066,5.066,0,0,0,1.416-.244.821.821,0,0,0,.312-.488,7.484,7.484,0,0,0,.186-1.28l.078-1.211.156-.156h.9l.156.156q-.041,2.13-.1,4.278l.1,4.394-.156.156h-.9l-.156-.156-.137-1.172q-.175-1.367-.254-1.631a.874.874,0,0,0-.361-.459A3.939,3.939,0,0,0,609,158.34q-1.172-.117-3.223-.117-1.134,0-3.457.1-.1,1.641-.1,5.469,0,4.1.1,6.035h3.594q4.746,0,5.937-.117a7.813,7.813,0,0,0,2.266-.566q.175-.448.576-2.08t.459-2.041l.2-.137h.938l.156.137a27.066,27.066,0,0,0-.342,2.929q-.167,2.091-.166,3.575l-.136.156q-3.732-.117-9.766-.117l-5.312-.039q-1.857,0-3.868.156l-.156-.156v-.645l.156-.195a10.615,10.615,0,0,0,1.319-.733,15.319,15.319,0,0,0,.273-3.418q.106-3.27.108-4.99v-7.168l-.02-4.433c0-.963-.014-1.749-.039-2.354a7.326,7.326,0,0,0-.137-1.3,1.5,1.5,0,0,0-.224-.547.97.97,0,0,0-.411-.263,4.512,4.512,0,0,0-.966-.186l-1.485-.117-.156-.137Z" style="fill: #fff"/>
    <path d="M627.318,171.9l-1.777-8.145-3.77-16.074q-.45-1.912-.937-2.139a8.778,8.778,0,0,0-2.11-.42l-.156-.156V144.1l.156-.176q2.813.156,4.981.156,1.62,0,4.726-.156l.176.176v.859l-.156.156a15.4,15.4,0,0,0-2.608.215.6.6,0,0,0-.439.645,24.565,24.565,0,0,0,.391,2.588q.389,2.178.7,3.545l3.066,13.535,4.824-12.012q1.894-4.766,3.731-9.981h1.25q1.561,4.9,3.223,9.512l4.589,12.735,3.321-11.661q.507-1.835,1.25-4.824a27.556,27.556,0,0,0,.742-3.457.608.608,0,0,0-.488-.654,18.924,18.924,0,0,0-2.813-.186l-.156-.175v-.86l.156-.156q3.319.156,4,.156.624,0,4.063-.156l.156.156v.879l-.156.137a4.705,4.705,0,0,0-1.485.2,1.706,1.706,0,0,0-.644.508,8,8,0,0,0-.782,2l-1.132,3.632-2.012,6.582q-.431,1.428-1.582,5.782l-2.168,8.086h-1.992q-2.033-6.054-3.36-9.688l-4.453-12.051-3.887,9.649-2.089,5.469q-.821,2.167-1.309,3.535l-1.074,3.086Z" style="fill: #fff"/>
    <path d="M659.662,164.805l.156-.156h.957l.156.156a17.991,17.991,0,0,0,.264,3.056,2.482,2.482,0,0,0,1.055,1.172,7.548,7.548,0,0,0,2.363,1.006,11.555,11.555,0,0,0,2.979.391,8.775,8.775,0,0,0,3.72-.762,5.829,5.829,0,0,0,2.569-2.236,6.143,6.143,0,0,0,.918-3.311,5.341,5.341,0,0,0-.44-2.246,3.84,3.84,0,0,0-1.23-1.533,5.6,5.6,0,0,0-1.807-.859q-1.017-.284-3.027-.616-1.954-.312-3.057-.566a10.435,10.435,0,0,1-2.2-.781,5.832,5.832,0,0,1-1.826-1.338,6.089,6.089,0,0,1-1.172-1.992,7.2,7.2,0,0,1-.44-2.53,7.768,7.768,0,0,1,2.539-5.986,9.681,9.681,0,0,1,6.817-2.334,18.184,18.184,0,0,1,3.7.42A14.983,14.983,0,0,1,676.3,145l.137.235a26.576,26.576,0,0,0-.527,5.117l-.176.156H674.72l-.156-.137q-.039-2.343-.117-2.949t-1.777-1.5a7.779,7.779,0,0,0-3.692-.9,7.339,7.339,0,0,0-3.1.664,4.54,4.54,0,0,0-2.188,2.09,6.233,6.233,0,0,0-.742,2.91,4.469,4.469,0,0,0,.449,2.041,3.828,3.828,0,0,0,1.162,1.406,4.951,4.951,0,0,0,1.661.771q.945.255,3.466.625a20.7,20.7,0,0,1,5.03,1.182,5.606,5.606,0,0,1,2.519,2.2,6.686,6.686,0,0,1,.947,3.633,8.606,8.606,0,0,1-3.388,6.934,12.55,12.55,0,0,1-8.213,2.773,16.368,16.368,0,0,1-7.09-1.445l-.117-.254Q659.564,169.317,659.662,164.805Z" style="fill: #fff"/>
  </g>
  <g>
    <rect x="1273.484" y="108.336" width="25.508" height="86.312" style="fill: #fff"/>
    <rect x="1245.686" y="128.134" width="81.103" height="21.584" style="fill: #fff"/>
  </g>
</svg>
