<svg id="b094edd5-e781-4e2f-a5b1-1df1768ff302" data-name="Layer 1" xmlns="http://www.w3.org/2000/svg" xmlns:xlink="http://www.w3.org/1999/xlink" width="1344.293" height="194.648" viewBox="0 0 1344.293 194.648">
  <defs>
    <clipPath id="b78f6887-e5e4-4fa0-9143-cfb3ecfab7f1">
      <rect x="20.447" y="37.525" width="159.768" height="133.874" style="fill: none"/>
    </clipPath>
    <clipPath id="e6b51def-f271-464b-b2dc-13268a32a543">
      <rect x="1195.179" y="100.357" width="149.114" height="94.291" style="fill: none"/>
    </clipPath>
  </defs>
  <title>banner-6c</title>
  <g style="clip-path: url(#b78f6887-e5e4-4fa0-9143-cfb3ecfab7f1)">
    <g>
      <path d="M126.5,142.2c.737-.2,10.95,1.7,14.706,4.52s22.851,17.216,26.607,20.973,8.921,10.173,8.921,10.173H26.019s8.2-10.956,10.284-11.269,2.706.783,6.149-1.722,13.013-5.268,13.013-5.268L106,140.15Z" style="fill: #8e5e33"/>
      <path d="M36.3,166.6c2.08-.313,2.706.782,6.149-1.722s13.013-5.268,13.013-5.268l7.379-2.842,2.453,1.879,2.268,18.572-1.232.65H49.721c.18-.324.409-.681.681-1.14a14.588,14.588,0,0,1,2.247-2.7c.96-1.042.573-2.207,1.124-3.31a11.45,11.45,0,0,0,1.349-4.965c-.123-1.594-.8-.674-1.349-.674s-1.655,2.023-3.248,5.149c-1.265,2.48-3.337,5.575-4.569,7.637h-5.5c.409-1.135,1.164-1.819,1.667-3.163.552-1.471-.858.123-3,.491s-2.207,1.655-3.494,2.672H26.019S34.222,166.913,36.3,166.6Z" style="fill: #543128"/>
      <path d="M67.35,168.488l23.443-4.116,3.457,1.1L94.657,167l-.149.458a1.433,1.433,0,0,0,.149-.458,1.8,1.8,0,0,1-.075.925,7.319,7.319,0,0,1-.322.871,14.426,14.426,0,0,1-.871,1.617,25.092,25.092,0,0,1-2.156,2.934,25.616,25.616,0,0,1-2.547,2.6,15.379,15.379,0,0,1-1.44,1.131,4.574,4.574,0,0,1-1.66.793,3.657,3.657,0,0,0,.447-.33l-.447.33H64.148Z" style="fill: #72543d"/>
      <path d="M157.976,174.645a25.183,25.183,0,0,1-3.126-3.739c-1.472-2.023-2.207-1.839-4.72-3.908a27.269,27.269,0,0,1-5.149-5.225c-2.758-3.249-5.578-3.494-9.746-5.7s-5.7-3.555-9.01-5.394a40.061,40.061,0,0,0-8.643-3.861c-4.046-1.349-4.527-.8-4.16-1.349l-1.111-.57,2.406-3.875L126.5,142.2c.737-.2,10.95,1.7,14.706,4.52s22.851,17.216,26.607,20.973,8.921,10.173,8.921,10.173h-12.5s-1.05-.282-2.521-.527S159.079,175.748,157.976,174.645Z" style="fill: #543128"/>
      <path d="M113.623,144.9c-.441,1.644-6.637,14.524-9.016,16.152a87.617,87.617,0,0,1-9.516,5.76c-2.254,1-6.01,2.254-9.391,3.756a40.638,40.638,0,0,1-9.641,3.381c-4.883,1.127-10.393,1.753-11.269,3.631s-9.516,19.283-9.516,19.283-2.254-3.756-2.254-7.262-.626-4.758-.251-8.264a9.5,9.5,0,0,1,2.755-5.635s-2.5-1.377,0-4.132,3.756-2.755,4.132-5.008-.623-.979-2.5-2.254-2.5-2.505-2.254-3.631.376-.877,2-2,4.132-3,4.884-4.132a3.592,3.592,0,0,1,1.865-1.425,11.545,11.545,0,0,1,0-5.686,18.641,18.641,0,0,1,3.018-6.036l47.9-25.91Z" style="fill: #eddeda"/>
      <path d="M112.543,119.784c-.924,5.2-6.684,17.476-10.565,19.479s-15.4,7.263-19.909,8.014-15.651-1.5-16.9-2.379a25.955,25.955,0,0,1-6.511-9.767,8.776,8.776,0,0,0-5.632-5.384L47.51,95.189,61.033,54.62l51.51,3.506,10.095,54.217Z" style="fill: #e1b89d"/>
      <path d="M116.5,49.11a20.2,20.2,0,0,1,8.515,5.635c2.254,2.755,2,3.256,3.631,6.135s2.379,4.383,3.13,5.51,2.129,1.753,3.256,4.132,3.039,3.506,1.127,6.511c0,0-2.61,3.478-1.305,4.869s3.809-1.363,4.31,3.27.125,7.137-.376,8.639-.751,1,0,3.882,1.6,5.259.612,7.137-2.74,2.379-2.615,4.883,3.13,4.508.5,8.264-3.908,2.052-3.564,4.007.684,2.88-.318,5.008-1.628.376-1.5,3.757,1.627,2.128.25,4.382-1.252,2.5-1.252,3.882-3.506,3.381-6.511,3.756.375-.125-4.132,1-4.383,1.127-6.636,1.127-3.131-3.13-2.63-5.76,1.878-2,.5-4.883-1.651-.125-.638-3.757,2.015-5.509,1.765-8.138.5-1.253-1-5.76-2.254-1.252-2.254-8.264a121.845,121.845,0,0,1,.626-14.9s-2-4.383-2-7.513a13.773,13.773,0,0,1,1.252-6.511c1-2.63,2.129-2.254,1.377-5.259s-.375-5.009-1.5-6.762.125-2.879-3-4.758-4.758-2.253-7.638-2.253-.5-1.378-5.509-.877-4.007.877-7.513,1.252-4.383,1.127-6.136.5A25.077,25.077,0,0,0,71.551,60c-3,0-4.758-.877-6.511.5a14.358,14.358,0,0,0-4.007,4.382c-.751,1.5-2.128,2.129-2.754,4.633s-1,3.13-1,5.134a13.647,13.647,0,0,1-1.127,6.511c-1.252,3-.876,6.886-1.628,8.639s-.751,2.63-1.127,5.259a35.777,35.777,0,0,0-.375,5.259,53.671,53.671,0,0,1,0,6.386c-.251,1.753.5,4.574,1.29,7.5s-.414,6.4.212,9.025,4.508,11.895,4.132,11.895-1.252,0-4.006-1.878-4.007-1.878-4.007-4.132-3.882-3.005-3.882-3.005c-1.148-4.285-2.88-5.76-3.756-7.388s-1.628-1.878-1.628-3.5a6.574,6.574,0,0,0-.307-2.774c-.375-1.4,2.573-.106,0-2.11s-3.2-2.379-3.825-4.257-1.377-1.628-.626-3.631a10.406,10.406,0,0,1,2-3.506C39,98.569,39.592,100.69,40,97S39.674,92.313,41.025,91s3.105-.566,3.105-2.068-.877-1.753,0-3.381,1.5-1,1.5-2.379-.375-1.878,0-3.381,1.628-2,1.628-3.005a17.333,17.333,0,0,1,0-3.631c.25-1.628.125-.25.751-2.754s.752-2.38.752-3.757A10.11,10.11,0,0,1,49.18,63.7a10.015,10.015,0,0,1,.584-2.573c.752-2.379,1.118-.376,1.686-2.63s-1.185-.125,1.82-4.257,4.758-3.255,5.885-5.134,5.76-5.759,7.638-6.135,3.13-1.377,5.635-2.129,3.881-2,5.509-1.5a13.787,13.787,0,0,0,5.259.876c2.755,0,5.134-1.482,7.638-.991s3.506-.01,7.513,1.367,3.881,1.377,6.01,2.129a32.422,32.422,0,0,1,5.509,2.629c1.5.877,3,1.628,3.757,2S116.5,49.11,116.5,49.11Z" style="fill: #b7a7a3"/>
      <path d="M101.716,90.573a20.658,20.658,0,0,0-5.582-1.925,33.66,33.66,0,0,0-5.313-.693c-1.925-.115-5.5-.385-6.66,0s-2.464.847-1.386,1.309A14.172,14.172,0,0,0,87.433,90c1.04-.077,3.042-.077,4.7-.077a23.516,23.516,0,0,1,5.2.269,12.8,12.8,0,0,0,3.042,1.04C101.6,91.382,102.305,90.856,101.716,90.573Z" style="fill: #201d16"/>
      <path d="M69.724,87.185c.924.693,1.232,2,.193,1.617a12.446,12.446,0,0,0-2.618-.77,9.215,9.215,0,0,0-2.7-.276c-1.391,0-1.848-.085-3,0s-1.655-.162-2.618,0-1.424-.686-.346-.917,1.617-.743,2.575-.632a18.37,18.37,0,0,0,4.333-.111A25,25,0,0,1,69.724,87.185Z" style="fill: #201d16"/>
      <path d="M94.593,94.225c.654.385,2.888,1.507,2.657,2.354s-1.431,1.7-3.233,1.809c-1.737.1-3.917.423-5.429-.154-1.2-.456-2.618-1.033-2.348-1.806a4.308,4.308,0,0,1,2.849-2.467C90.359,93.846,94.593,94.225,94.593,94.225Z" style="fill: #fae1d7"/>
      <path d="M70.569,94.385c-.438-1.177-2.154-1.733-3.809-2.079s-5.852.11-6.121,1.633,4.234,2.53,5.774,2.316S71.413,96.656,70.569,94.385Z" style="fill: #fae1d7"/>
      <path d="M74.96,92.383a9.449,9.449,0,0,0,.362,1.071,2.832,2.832,0,0,1,.061,1.2,7.594,7.594,0,0,1-.3,1.132L74.8,96.852c-.507,1.376-.927,2.8-1.348,4.227a17.072,17.072,0,0,1-.731,2.18c-.315.719-.667,1.363-.966,2.029a18.4,18.4,0,0,0-1.386,4.12,15.868,15.868,0,0,0-.337,2.131,2.978,2.978,0,0,0,.028.894c-.038-.024.073.093.191.192s.264.209.411.311a20.74,20.74,0,0,0,1.85,1.142c.319.177.641.347.964.5a4.947,4.947,0,0,0,.9.361c.007,0,.012.008.036,0a1.635,1.635,0,0,0,.173-.073,4.509,4.509,0,0,0,.428-.248c.3-.19.6-.405.9-.619s.617-.435.958-.643a3.076,3.076,0,0,1,1.207-.488,7.2,7.2,0,0,1,2.367.277,6.514,6.514,0,0,1,2.083.941,7.657,7.657,0,0,0-2.167-.388,6.425,6.425,0,0,0-2.084.221,4.991,4.991,0,0,0-1.748.954c-.3.214-.61.433-.941.646a5.3,5.3,0,0,1-.54.309,2.3,2.3,0,0,1-.343.139,1.106,1.106,0,0,1-.517.024,5.471,5.471,0,0,1-1.177-.449c-.35-.167-.686-.345-1.02-.53a22.034,22.034,0,0,1-1.952-1.206c-.159-.111-.318-.232-.48-.365a1.52,1.52,0,0,1-.512-.656,3.6,3.6,0,0,1-.084-1.325,16.613,16.613,0,0,1,.359-2.283,19.51,19.51,0,0,1,1.458-4.337c.312-.693.675-1.36.956-2.008a15.883,15.883,0,0,0,.687-2.056c.42-1.434.854-2.867,1.361-4.3.307-.69.781-1.365,1.042-1.968a2.4,2.4,0,0,0,.183-1.012A9.3,9.3,0,0,1,74.96,92.383Z" style="fill: #d79f62"/>
      <path d="M68.188,108.321a4.619,4.619,0,0,0-.407.9,9.1,9.1,0,0,0-.5.815,9.617,9.617,0,0,0-.76,1.747,3.278,3.278,0,0,0-.16.887,1.013,1.013,0,0,0,.281.739,5.655,5.655,0,0,0,.605.715c.167.259.325.583.633.665-.162.1-.371.017-.529-.041a3.364,3.364,0,0,1-.479-.243,6.194,6.194,0,0,1-.663-.782,2.1,2.1,0,0,1-.286-.472,1.389,1.389,0,0,1-.1-.583,3.75,3.75,0,0,1,.183-1.039,10.133,10.133,0,0,1,.8-1.85c.161-.294.335-.58.523-.861A2.992,2.992,0,0,1,68.188,108.321Z" style="fill: #be8257"/>
      <path d="M85.784,125.007c1.16-1.681-5.624-.687-7.081-.971a19.348,19.348,0,0,0-4.531-.081c-.688.081-2.833-.728-4.451-.566A8.553,8.553,0,0,0,66.08,124.4c-.729.485,6.918,3.317,6.918,3.317l6.474-.526S85.414,125.543,85.784,125.007Z" style="fill: #9b643e"/>
      <path d="M84.286,125.564c-.126-.471-3.884-.324-5.219-.445a15.561,15.561,0,0,0-4.167.223,11.648,11.648,0,0,1-3.642-.271c-1.294-.195-4.046-.081-4.126.247s2.884,1.575,3.976,2.142,6.417,1,8.485.5C81.7,127.453,84.581,126.661,84.286,125.564Z" style="fill: #bb784e"/>
      <path d="M91.325,98.562a2.875,2.875,0,0,1-1.005-4.613c1.735.049,4.273.276,4.273.276.079.047.182.105.3.171a2.852,2.852,0,0,1-1.038,4C93.06,98.452,92.185,98.538,91.325,98.562Z" style="fill: #191915"/>
      <path d="M66.76,92.306a8.888,8.888,0,0,1,2.857,1c0,.026,0,.051,0,.078a3.155,3.155,0,0,1-1.6,2.8,15.318,15.318,0,0,0-1.6.067,4.23,4.23,0,0,1-.711.024,3.131,3.131,0,0,1-1.787-2.893,3.37,3.37,0,0,1,.189-1.109A9.161,9.161,0,0,1,66.76,92.306Z" style="fill: #191915"/>
    </g>
  </g>
  <polygon points="1209.322 104.462 1167.842 172.476 0 172.476 0 194.648 279.306 194.648 1344.293 194.648 1344.293 104.462 1209.322 104.462" style="fill: #212026"/>
  <g>
    <path d="M223.743,82.28h3.479v18.037c0,7.16-3.519,9.359-8.158,9.359a11.243,11.243,0,0,1-3.72-.64l.52-2.84a8.28,8.28,0,0,0,2.92.521c3.119,0,4.959-1.4,4.959-6.679Z" style="fill: #212026"/>
    <path d="M246.981,96.6H236.5v9.717h11.677v2.92H233.024V82.28h14.558V85.2H236.5v8.519h10.477Z" style="fill: #212026"/>
    <path d="M257.063,100.758l-2.8,8.478h-3.6l9.158-26.956h4.2l9.2,26.956H269.5l-2.88-8.478Zm8.838-2.72-2.64-7.759c-.6-1.759-1-3.359-1.4-4.919h-.08c-.4,1.6-.84,3.24-1.359,4.879l-2.64,7.8Z" style="fill: #212026"/>
    <path d="M277.183,109.236V82.28h3.8l8.639,13.638a76.6,76.6,0,0,1,4.839,8.759l.08-.04c-.321-3.6-.4-6.879-.4-11.078V82.28h3.28v26.956H293.9l-8.558-13.677a85.562,85.562,0,0,1-5.04-9l-.12.04c.2,3.4.28,6.638.28,11.118v11.518Z" style="fill: #212026"/>
    <path d="M311.542,97.118v2.6h-9.879v-2.6Z" style="fill: #212026"/>
    <path d="M320.5,82.28h3.479v18.037c0,7.16-3.519,9.359-8.158,9.359a11.243,11.243,0,0,1-3.72-.64l.52-2.84a8.276,8.276,0,0,0,2.92.521c3.119,0,4.959-1.4,4.959-6.679Z" style="fill: #212026"/>
    <path d="M334.142,100.758l-2.8,8.478h-3.6L336.9,82.28h4.2l9.2,26.956h-3.72l-2.88-8.478Zm8.838-2.72-2.639-7.759c-.6-1.759-1-3.359-1.4-4.919h-.08c-.4,1.6-.84,3.24-1.359,4.879l-2.64,7.8Z" style="fill: #212026"/>
    <path d="M372.5,108.357a17.289,17.289,0,0,1-7.119,1.279c-7.6,0-13.318-4.8-13.318-13.638,0-8.438,5.719-14.157,14.078-14.157a14.465,14.465,0,0,1,6.4,1.2l-.84,2.84a12.669,12.669,0,0,0-5.44-1.12c-6.318,0-10.517,4.04-10.517,11.118,0,6.6,3.8,10.839,10.358,10.839a13.941,13.941,0,0,0,5.679-1.12Z" style="fill: #212026"/>
    <path d="M398.259,113.2c-3.64-.96-7.2-2.04-10.319-3.119a5.155,5.155,0,0,0-1.639-.4c-6.4-.239-11.878-4.959-11.878-13.638,0-8.639,5.279-14.2,12.557-14.2,7.32,0,12.078,5.679,12.078,13.638,0,6.919-3.2,11.358-7.678,12.918v.16c2.679.679,5.6,1.319,7.879,1.719Zm-2.88-17.556c0-5.4-2.8-10.958-8.519-10.958-5.879,0-8.758,5.438-8.718,11.277-.04,5.72,3.119,10.879,8.559,10.879C392.26,106.837,395.379,101.8,395.379,95.639Z" style="fill: #212026"/>
    <path d="M407.062,82.28V98.238c0,6.039,2.679,8.6,6.279,8.6,4,0,6.559-2.64,6.559-8.6V82.28h3.519V98c0,8.278-4.359,11.678-10.2,11.678-5.518,0-9.677-3.159-9.677-11.518V82.28Z" style="fill: #212026"/>
    <path d="M443.42,96.6H432.941v9.717h11.678v2.92H429.462V82.28h14.557V85.2H432.941v8.519H443.42Z" style="fill: #212026"/>
    <path d="M448.662,105a12.324,12.324,0,0,0,6.238,1.76c3.56,0,5.64-1.88,5.64-4.6,0-2.519-1.44-3.959-5.079-5.359-4.4-1.56-7.119-3.839-7.119-7.639,0-4.2,3.479-7.318,8.718-7.318a12.259,12.259,0,0,1,5.959,1.319l-.96,2.84a10.744,10.744,0,0,0-5.119-1.28c-3.68,0-5.079,2.2-5.079,4.04,0,2.519,1.64,3.759,5.359,5.2,4.559,1.76,6.879,3.959,6.879,7.918,0,4.159-3.08,7.759-9.438,7.759a13.925,13.925,0,0,1-6.879-1.72Z" style="fill: #212026"/>
    <path d="M477.341,82.641a36.138,36.138,0,0,1,6.678-.56c3.72,0,6.119.68,7.8,2.2a6.714,6.714,0,0,1,2.12,5.119,7.078,7.078,0,0,1-5.079,6.879V96.4c2.079.719,3.319,2.639,3.959,5.438a42.887,42.887,0,0,0,2.08,7.4h-3.6a34.822,34.822,0,0,1-1.8-6.439c-.8-3.719-2.239-5.119-5.4-5.239H480.82v11.678h-3.479Zm3.479,12.278h3.56c3.719,0,6.079-2.04,6.079-5.119,0-3.48-2.52-5-6.2-5.04a14.317,14.317,0,0,0-3.44.32Z" style="fill: #212026"/>
    <path d="M522.016,95.479c0,9.278-5.638,14.2-12.517,14.2-7.119,0-12.118-5.519-12.118-13.678,0-8.558,5.319-14.157,12.517-14.157C517.258,81.841,522.016,87.48,522.016,95.479Zm-20.916.439c0,5.76,3.119,10.919,8.6,10.919,5.519,0,8.638-5.079,8.638-11.2,0-5.36-2.8-10.958-8.6-10.958C503.979,84.681,501.1,90,501.1,95.918Z" style="fill: #212026"/>
    <path d="M530.019,82.28V98.238c0,6.039,2.68,8.6,6.28,8.6,4,0,6.558-2.64,6.558-8.6V82.28h3.52V98c0,8.278-4.36,11.678-10.2,11.678-5.519,0-9.678-3.159-9.678-11.518V82.28Z" style="fill: #212026"/>
    <path d="M551.939,105a12.331,12.331,0,0,0,6.239,1.76c3.56,0,5.639-1.88,5.639-4.6,0-2.519-1.439-3.959-5.079-5.359-4.4-1.56-7.118-3.839-7.118-7.639,0-4.2,3.479-7.318,8.718-7.318A12.262,12.262,0,0,1,566.3,83.16L565.338,86a10.749,10.749,0,0,0-5.12-1.28c-3.679,0-5.08,2.2-5.08,4.04,0,2.519,1.641,3.759,5.36,5.2,4.559,1.76,6.879,3.959,6.879,7.918,0,4.159-3.079,7.759-9.439,7.759a13.934,13.934,0,0,1-6.879-1.72Z" style="fill: #212026"/>
    <path d="M571.66,105a12.324,12.324,0,0,0,6.238,1.76c3.56,0,5.64-1.88,5.64-4.6,0-2.519-1.44-3.959-5.079-5.359-4.4-1.56-7.119-3.839-7.119-7.639,0-4.2,3.479-7.318,8.718-7.318a12.259,12.259,0,0,1,5.959,1.319l-.96,2.84a10.744,10.744,0,0,0-5.119-1.28c-3.679,0-5.079,2.2-5.079,4.04,0,2.519,1.64,3.759,5.359,5.2,4.559,1.76,6.879,3.959,6.879,7.918,0,4.159-3.08,7.759-9.438,7.759a13.925,13.925,0,0,1-6.879-1.72Z" style="fill: #212026"/>
    <path d="M605.817,96.6H595.339v9.717h11.677v2.92H591.859V82.28h14.558V85.2H595.339v8.519h10.478Z" style="fill: #212026"/>
    <path d="M615.9,100.758l-2.8,8.478h-3.6l9.158-26.956h4.2l9.2,26.956h-3.719l-2.879-8.478Zm8.839-2.72-2.64-7.759c-.6-1.759-1-3.359-1.4-4.919h-.079c-.4,1.6-.84,3.24-1.36,4.879l-2.64,7.8Z" style="fill: #212026"/>
    <path d="M638.379,82.28V98.238c0,6.039,2.678,8.6,6.278,8.6,4,0,6.56-2.64,6.56-8.6V82.28h3.518V98c0,8.278-4.358,11.678-10.2,11.678-5.519,0-9.678-3.159-9.678-11.518V82.28Z" style="fill: #212026"/>
    <path d="M225.666,133.164h-7.873l.568-2.884H237.45l-.56,2.884h-7.915l-4.561,24.072H221.1Z" style="fill: #212026"/>
    <path d="M235.16,157.236l5.4-28.395h3.317L241.457,141.3l.08,0a8.318,8.318,0,0,1,6.912-3.852c2.2,0,4.814,1.327,4.814,5.182a18.4,18.4,0,0,1-.32,3.272l-2.151,11.327h-3.31l2.122-11.175a13.944,13.944,0,0,0,.261-2.669c0-1.78-.854-3.176-3-3.176-2.567,0-5.78,3-6.589,7.33l-1.8,9.69Z" style="fill: #212026"/>
    <path d="M270.468,156.127a13.623,13.623,0,0,1-6.394,1.529c-5.139,0-7.358-3.5-7.358-7.783,0-5.824,4.326-12.418,10.551-12.418,3.681,0,5.678,2.194,5.681,4.962,0,5.08-5.724,6.417-12.874,6.282a8.024,8.024,0,0,0,.392,3.681,4.372,4.372,0,0,0,4.3,2.6,10.738,10.738,0,0,0,5.21-1.326ZM266.8,140.035c-3.16,0-5.544,3.084-6.353,6.112,5.212.061,9.294-.634,9.294-3.648C269.742,140.908,268.528,140.035,266.8,140.035Z" style="fill: #212026"/>
    <path d="M282.446,153.068a10.375,10.375,0,0,0,5.737,1.721c3.034.006,5.827-1.811,5.827-5.06,0-2-1.13-3.5-3.943-5.041-3.441-1.862-5.364-4.018-5.364-6.914,0-4.825,4.144-7.914,9.1-7.914a10.216,10.216,0,0,1,5.522,1.4l-1.177,2.71a9.124,9.124,0,0,0-4.677-1.266c-3.328,0-5.337,2.193-5.344,4.405,0,2.188,1.367,3.432,4.185,5,3.323,1.778,5.143,3.9,5.143,7.215,0,4.66-3.659,8.332-9.726,8.332-2.7,0-5.356-.882-6.484-1.873Z" style="fill: #212026"/>
    <path d="M319.518,145.5c0,5.975-4.241,12.177-10.746,12.177-4.843,0-7.552-3.591-7.552-7.942,0-6.39,4.436-12.279,10.728-12.279C317.165,137.455,319.518,141.4,319.518,145.5ZM304.644,149.6c0,3.142,1.747,5.444,4.585,5.444,3.9,0,6.865-5.059,6.865-9.556,0-2.26-1.043-5.408-4.507-5.408C307.407,140.084,304.641,145.17,304.644,149.6Z" style="fill: #212026"/>
    <path d="M335.262,156.47a13.1,13.1,0,0,1-5.62,1.186c-4.975,0-7.438-3.374-7.438-7.481,0-6.6,4.912-12.714,11.864-12.714a9.11,9.11,0,0,1,4.02.878l-.95,2.63a7.434,7.434,0,0,0-3.285-.73c-5.02,0-8.2,4.954-8.2,9.513,0,3.145,1.647,5.174,4.818,5.174a10.172,10.172,0,0,0,4.469-1.078Z" style="fill: #212026"/>
    <path d="M338.917,157.236l3.694-19.341h3.31l-3.695,19.341Zm4.306-24.742a2.2,2.2,0,0,1,2.182-2.245,1.932,1.932,0,0,1,1.975,2.083,2.2,2.2,0,0,1-2.249,2.233A1.892,1.892,0,0,1,343.223,132.494Z" style="fill: #212026"/>
    <path d="M360.9,157.236a43.254,43.254,0,0,1,.432-5h-.086c-2.09,4.017-4.76,5.437-7.489,5.437-3.428,0-5.562-2.723-5.562-6.391,0-6.738,4.957-13.83,13.371-13.83a19.169,19.169,0,0,1,5.22.734l-1.974,10.081a43.64,43.64,0,0,0-.819,8.966Zm2.151-16.867a7.659,7.659,0,0,0-2.3-.273c-5.008,0-9.1,5.209-9.117,10.591-.014,2.162.748,4.267,3.3,4.267,2.777,0,6.028-3.605,6.992-8.748Z" style="fill: #212026"/>
    <path d="M368.965,157.236l5.415-28.395H377.7l-5.422,28.395Z" style="fill: #212026"/>
    <path d="M404.139,156.364a17.656,17.656,0,0,1-7,1.292c-6.788,0-10.939-4.313-10.939-11.191a16.819,16.819,0,0,1,5.756-12.99,15.357,15.357,0,0,1,10.159-3.615c3,0,5.151.749,5.842,1.295l-1.071,2.676a10.948,10.948,0,0,0-5.3-1.109,11.49,11.49,0,0,0-7.722,3.021,14.162,14.162,0,0,0-4.134,10.262c0,4.816,2.216,8.8,8.2,8.8a13.835,13.835,0,0,0,5.758-1.154Z" style="fill: #212026"/>
    <path d="M425.876,145.5c0,5.975-4.242,12.177-10.746,12.177-4.844,0-7.552-3.591-7.552-7.942,0-6.39,4.435-12.279,10.727-12.279C423.521,137.455,425.876,141.4,425.876,145.5ZM411,149.6c0,3.142,1.746,5.444,4.584,5.444,3.9,0,6.866-5.059,6.866-9.556,0-2.26-1.044-5.408-4.508-5.408C413.764,140.084,411,145.17,411,149.6Z" style="fill: #212026"/>
    <path d="M428.194,157.236l2.587-13.712c.429-2.151.692-4.026.913-5.629h2.979l-.5,3.8h.079a8.519,8.519,0,0,1,7.174-4.239c2.3,0,4.891,1.324,4.891,5.37a19.479,19.479,0,0,1-.345,3.122l-2.148,11.289h-3.31l2.116-11.174a14.788,14.788,0,0,0,.262-2.476c0-1.94-.749-3.37-3.032-3.37-2.38,0-5.737,2.835-6.614,7.618l-1.744,9.4Z" style="fill: #212026"/>
    <path d="M458.212,132.7l-1,5.2h4.623l-.518,2.6H456.7l-1.78,9.4a16.2,16.2,0,0,0-.384,3.086,1.65,1.65,0,0,0,1.83,1.876,6.323,6.323,0,0,0,1.562-.156l-.16,2.61a8.089,8.089,0,0,1-2.564.351c-2.923,0-4.071-1.773-4.071-3.752a17.972,17.972,0,0,1,.423-3.63l1.889-9.789h-2.767l.5-2.6h2.777l.815-4.359Z" style="fill: #212026"/>
    <path d="M462.074,157.236l2.363-12.459c.475-2.521.768-5.088.982-6.882h2.922c-.157,1.344-.314,2.7-.539,4.2h.117c1.268-2.65,3.334-4.642,5.927-4.642a5.857,5.857,0,0,1,.949.072l-.645,3.274a4.756,4.756,0,0,0-.9-.069c-2.869,0-5.428,3.48-6.266,7.971l-1.6,8.533Z" style="fill: #212026"/>
    <path d="M487.018,157.236a43.481,43.481,0,0,1,.432-5h-.086c-2.09,4.017-4.76,5.437-7.489,5.437-3.428,0-5.562-2.723-5.562-6.391,0-6.738,4.957-13.83,13.371-13.83a19.169,19.169,0,0,1,5.22.734L490.93,148.27a43.64,43.64,0,0,0-.819,8.966Zm2.152-16.867a7.672,7.672,0,0,0-2.3-.273c-5.008,0-9.1,5.209-9.117,10.591-.014,2.162.748,4.267,3.3,4.267,2.777,0,6.028-3.605,6.993-8.748Z" style="fill: #212026"/>
    <path d="M508.379,156.47a13.109,13.109,0,0,1-5.62,1.186c-4.976,0-7.439-3.374-7.439-7.481,0-6.6,4.912-12.714,11.864-12.714a9.11,9.11,0,0,1,4.02.878l-.949,2.63a7.439,7.439,0,0,0-3.286-.73c-5.02,0-8.2,4.954-8.2,9.513,0,3.145,1.647,5.174,4.819,5.174a10.171,10.171,0,0,0,4.468-1.078Z" style="fill: #212026"/>
    <path d="M520.89,132.7l-1,5.2h4.622l-.517,2.6h-4.625l-1.782,9.4a16.273,16.273,0,0,0-.383,3.086,1.651,1.651,0,0,0,1.831,1.876,6.319,6.319,0,0,0,1.561-.156l-.16,2.61a8.091,8.091,0,0,1-2.563.351c-2.924,0-4.072-1.773-4.072-3.752a17.907,17.907,0,0,1,.424-3.63l1.888-9.789h-2.767l.5-2.6h2.778l.815-4.359Z" style="fill: #212026"/>
  </g>
  <g style="clip-path: url(#e6b51def-f271-464b-b2dc-13268a32a543)">
    <g>
      <path d="M1246.447,129.744l2.408-1.864h0c-2.391-.109-4.011-1-4.848-3.495a6.893,6.893,0,0,0-5.123-4.322q-8.057-2.059-16.186-3.823a8.163,8.163,0,0,0-8.144,2.679,1.677,1.677,0,0,1-2.066.559,11.687,11.687,0,0,0-1.631-.47c-2.635-.552-4.772-1.418-5.38-4.607-.422-2.212-2.412-3.576-4.478-4.328-5.316-1.936-10.657-3.82-16.055-5.508a7.927,7.927,0,0,0-7.648,1.686,2.536,2.536,0,0,1-3.081.463,14.973,14.973,0,0,0-1.9-.732c-1.993-.676-3.488-1.551-3.764-4.075a7.278,7.278,0,0,0-4.482-5.637c-5.011-2.371-10.1-4.583-15.187-6.784a7.516,7.516,0,0,0-7.456.669c-1.373.921-2.578,1.084-3.885.163-1.087-.766-1.741-.435-2.212.674-.088.207-.219.4-.317.6-1.646,3.414-1.543,2.7,1.306,4.174a1.246,1.246,0,0,1,.809,1.259,8.857,8.857,0,0,0,5.049,8.047c4.9,2.483,9.963,4.607,14.982,6.827a6.715,6.715,0,0,0,3.545.5,7.9,7.9,0,0,0,5.386-2.023,1.6,1.6,0,0,1,2.009-.277,13.213,13.213,0,0,0,2.345.985c2.259.595,3.747,1.571,4.195,4.252.436,2.606,2.473,4.378,5,5.376,5.212,2.063,10.543,3.786,15.9,5.407a8.181,8.181,0,0,0,8.438-2.207,2,2,0,0,1,2.381-.582c1.691.615,3.414,1.154,5.151,1.623.556.15.685.407.815.889a9.268,9.268,0,0,0,7.32,7.172c4.8,1.088,9.571,2.287,14.369,3.374,3.734.846,6.971-.023,9.419-3.1a1.467,1.467,0,0,1,1.625-.556,23.534,23.534,0,0,0,2.842.475Zm-81.619-27.185c-.242.368-.6.062-.913.016-1.663-.242-3.151.425-3.488,1.691a2.76,2.76,0,0,0,1.61,3.362c.184.1.346.241.662.464a4.268,4.268,0,0,1-4.273.389c-4.914-2.165-9.8-4.392-14.682-6.626a4.7,4.7,0,0,1-2.61-3.519c1.881.609,3.589.8,4.52-1.142s-.539-2.981-1.964-4.079a4.43,4.43,0,0,1,4.213-.146c4.7,2.088,9.377,4.224,14.057,6.355a5.471,5.471,0,0,1,2.641,2.3C1164.763,101.916,1165.04,102.237,1164.828,102.559Zm37.487,13.679c-.723-.014-1.331-.065-1.933-.028a2.347,2.347,0,0,0-2.355,2.046,2.6,2.6,0,0,0,1.225,2.919c.362.222,1.061.182,1.005.73-.06.576-.75.616-1.214.753a3.9,3.9,0,0,1-2.343.037c-5.413-1.79-10.9-3.359-16.165-5.584a4.933,4.933,0,0,1-2.479-2.986,12.638,12.638,0,0,0,1.818.357,2.651,2.651,0,0,0,2.567-1.617,2.484,2.484,0,0,0-.509-2.966c-.4-.426-1.36-.579-1.09-1.308.3-.814,1.257-.549,1.958-.631a4.8,4.8,0,0,1,2.146.405c1.809.631,3.58,1.355,5.42,1.915,3.022.92,6,1.987,8.977,3.056A4.468,4.468,0,0,1,1202.315,116.238Zm38.337,9.946c-2.465-.1-3.565.46-3.9,1.927-.372,1.606.449,2.725,2.835,3.724a4.014,4.014,0,0,1-4.024,1.161q-7.86-1.732-15.667-3.7c-1.407-.353-2.758-1.016-3.071-2.853a9.931,9.931,0,0,0,1.392.045,2.675,2.675,0,0,0,1.432-4.9c-.406-.357-1.4-.267-1.228-.915.2-.724,1.134-.833,1.841-.983a6.3,6.3,0,0,1,2.84.286q3.537.869,7.077,1.725c2.685.656,5.386,1.254,8.047,2A3.105,3.105,0,0,1,1240.652,126.184Z" style="fill: #fff"/>
      <path d="M1368.141,151.546c-2.314-1.391-5.133-1.068-7.773-.146-4.225,1.477-8.535,2.641-12.859,3.772a8.942,8.942,0,0,0-6.817,6.64,1.816,1.816,0,0,1-1.558,1.527,20.031,20.031,0,0,0-1.958.555c-2.194.649-4.128,1.121-6.107-1.022-1.925-2.085-4.73-2.444-7.587-1.877-4.943.981-9.907,1.86-14.853,2.825a8.738,8.738,0,0,0-6.813,5.733,1.885,1.885,0,0,1-1.651,1.432c-.9.11-1.787.3-2.681.445-2.05.328-3.748.327-5.286-1.726a7.616,7.616,0,0,0-7.192-2.677c-4.947.552-9.894,1.034-14.865,1.323a8.8,8.8,0,0,0-7.837,5.4,1.4,1.4,0,0,1-1.537,1,8.378,8.378,0,0,0-2.028.135c-2.845.5-4.935-.112-6.507-2.935-.968-1.738-3.25-2.416-5.337-2.46-5.7-.121-11.4-.177-17.105-.137a7.732,7.732,0,0,0-6.707,3.966,2.467,2.467,0,0,1-2.772,1.416,39.807,39.807,0,0,0-4.363.278l1.854,4.061,1.508,1.159c2.3-.145,2.764.223,3.991,2.537,1.315,2.481,4,3.516,6.771,3.588q8.142.211,16.291.081a8.2,8.2,0,0,0,7.619-4.83,1.838,1.838,0,0,1,2.115-1.229,10.307,10.307,0,0,0,1.186-.048c2.546.024,5-.516,6.818,2.487,1.5,2.471,4.6,2.887,7.5,2.642,4.9-.416,9.8-.85,14.7-1.34,3.72-.372,6.543-2.1,7.948-5.709a1.838,1.838,0,0,1,1.607-1.278c1.232-.186,2.454-.43,3.686-.615a3.717,3.717,0,0,1,4.054,1.467c1.888,2.4,4.81,3.156,7.843,2.663,5.529-.9,11.06-1.8,16.493-3.217a8.094,8.094,0,0,0,5.916-5.73,2.325,2.325,0,0,1,1.876-1.874c1.662-.338,3.307-.757,4.955-1.157a1.646,1.646,0,0,1,1.792.608,8.161,8.161,0,0,0,8.761,2.6c5.35-1.432,10.729-2.792,15.943-4.679a8.2,8.2,0,0,0,5.653-6.636c.02-.123.044-.238.071-.346C1373.01,157.043,1371.524,153.983,1368.141,151.546Zm-118.587,23.24c-1.418.7-3.144.982-3.1,2.989.052,2.128,1.6,2.766,3.459,3.133-1.1,1.742-2.742,1.947-4.366,1.975-3.67.063-7.346.117-11.012-.022-2.287-.087-4.663.218-6.83-.885-.455-.232-1.054-.5-1.039-1.015.019-.671.768-.5,1.209-.636a2.709,2.709,0,0,0,1.7-4.012c-.657-1.084-1.777-1.277-3.156-1.421a5.253,5.253,0,0,1,4.574-1.967q7.614.034,15.226.154A3.749,3.749,0,0,1,1249.554,174.786Zm39.148-2.292c-1.543.55-2.612,1.445-2.252,3.259s1.755,2.177,3.337,2.217c.084,0,.165.128.322.258a4.489,4.489,0,0,1-3.419,2.164c-5.453.572-10.894,1.313-16.389,1.387a4.627,4.627,0,0,1-2.744-.738c-.316-.216-.807-.38-.764-.824.054-.542.609-.384.962-.447a2.451,2.451,0,0,0,2.2-2.427,2.617,2.617,0,0,0-1.5-2.644c-.628-.34-1.334-.134-2.261-.285a5.07,5.07,0,0,1,4.357-2.434c4.741-.3,9.471-.709,14.184-1.323a6.378,6.378,0,0,1,3.937.72C1289.174,171.652,1289.77,172.114,1288.7,172.494Zm41.4-1.221a4.875,4.875,0,0,1-3.217,2.631,105.016,105.016,0,0,1-16.634,3.111,3.761,3.761,0,0,1-3.569-1.4c2.477-.816,3.357-1.875,3.021-3.519-.308-1.51-1.5-2.128-4.1-2.06a4.97,4.97,0,0,1,3.412-2.614c5.273-1,10.544-2.017,15.826-2.973a4.062,4.062,0,0,1,3.993,1.312c-2.3.692-3.177,1.533-3,3.081C1326.117,171.277,1327.988,171.455,1330.1,171.273Zm38.809-10.417a4.764,4.764,0,0,1-3.091,2.934c-4.93,1.848-10.052,3.052-15.1,4.521a4.922,4.922,0,0,1-2.515.16c-.593-.138-1.394-.1-1.556-.8-.135-.581.632-.688,1.014-.982a2.641,2.641,0,0,0,1.034-3,2.513,2.513,0,0,0-2.485-1.937c-.435-.027-.871-.021-1.536-.036a5.667,5.667,0,0,1,4.228-3.2c4.369-1.155,8.741-2.3,13.021-3.758a5.838,5.838,0,0,1,3.825-.2,2.366,2.366,0,0,1,.44.192C1369.028,156.147,1369.21,159.666,1368.909,160.856Z" style="fill: #fff"/>
      <g>
        <path d="M1243.829,204.98a2.481,2.481,0,0,1-2.4-3.121l23.637-88.215a2.479,2.479,0,0,1,4.79,1.283l-23.637,88.215A2.482,2.482,0,0,1,1243.829,204.98Z" style="fill: #fff"/>
        <path d="M1267.465,113.961c3.057-1.406,25.058-2.511,27.469-.4s3.818,7.535,16.777,5.927,17.782-3.616,27.727-1.2l-1.306,40.112s-27.225-.229-32.449,3.588-13.16-3.918-15.069-7.534-32.627.9-32.627.9Z" style="fill: #fff"/>
      </g>
    </g>
  </g>
</svg>
