<svg id="Layer_1" data-name="Layer 1" xmlns="http://www.w3.org/2000/svg" xmlns:xlink="http://www.w3.org/1999/xlink" viewBox="0 0 1344.29 194.65">
  <defs>
    <clipPath id="clip-path">
      <rect x="3.72" y="31.11" width="168.77" height="141.42" fill="none"/>
    </clipPath>
    <clipPath id="clip-path-2">
      <rect x="1188.58" y="108.51" width="155.71" height="86.13" fill="none"/>
    </clipPath>
    <clipPath id="clip-path-3">
      <rect x="9.54" y="-401.95" width="151.78" height="127.18" fill="none"/>
    </clipPath>
    <clipPath id="clip-path-4">
      <rect x="-14.44" y="-400.07" width="181.22" height="181.22" transform="translate(303.97 -532.36) rotate(-148.2)" fill="none"/>
    </clipPath>
  </defs>
  <title>banner-3</title>
  <g clip-path="url(#clip-path)">
    <g>
      <path d="M127.46,151.22c4.39.74,1.51.14,12.65,2.77s10.29,1.49,14.72,3.8,5.39,2.67,9,5.54,3.77,2.47,6.83,6.11c4,4.7.64,3.39,7.11,6.62s5.7,2.24,12.64,5,24.79,23.83,26.58,30.77,3.95,14,5,14.73-146.26,0-146.26,0H-42.9a173.76,173.76,0,0,0,12.22-18.31,152.24,152.24,0,0,0,8.87-17.5c3.59-7.91,5.86-6.37,12.34-10.93S-.38,178,5.66,170.24c5.32-6.84,14.19-14.35,17.09-15.53,6.23-2.55,10.62-5.2,15.63-7.11s16.77-5.77,16.77-5.77Z" fill="#b5afb1"/>
      <path d="M113.77,110.67c.84-3.61.24-2.53,1.08-5s1.48-2.87,3.07-5,1.84-4,3-5a4,4,0,0,1,3.71-1.29c1.32.33,2.75,1,2,3s-2,1.93-2.49,3.92L123,105.84c-.47,1.76-.94,1.38-.58,4.83a27,27,0,0,1,.24,6.93c-.24,3.35-.72,6-.12,8.26s-.51,2.19.24,5,.6,1,1.91,5.54a25.22,25.22,0,0,1,1.32,8.5c0,2.16-1.06-.36.91,4.67s1.13,8,2.32,9.46.12.24,3.36,3.11,6.34,2.4,8.86,6.47,3.71,6.58,3.71,6.58,4.91,8.5,4.91,10.18-1.44,16-1.44,16.4-15,19.52-16.7,19.64-9.16-10.42-11.68-11.5-5.86-2.39-6.94-4.43-2.27-1.67-5.63-10.29-8.14-12.69-14.36-17S78.69,167.28,75,164.29s-7.78-5.63-10.06-7.54A40.86,40.86,0,0,0,59.41,153l39.77-45.85Z" fill="#c39a7e"/>
      <path d="M51,40.31c-.64.22-6,0-6.85,4.28s-1.49,3.64-1.28,6.85a11.23,11.23,0,0,1-1.28,5.78L38.4,60.43l-.86,4.71-1.28,3s1.49-.22,1.49,4.49,1.07,4.28,1.5,7.06-1.07,2.36-1.07,5.14-3.64,2.57.22,4.49,7.49,1.5,7.7,2.14S45,92.75,47.6,94s2.14-6.63,4.49-8.56,9-16,9-16l10.92,9,19.69,7.06s15.41-5.78,16-5.78,12.2,40.67,12.2,40.67l4.55,17,8.08-2.17c3.42-.91,3.85-4.55,5.35-6.69s5.13-4.07,5.13-4.07-.85-2.57,2.14-5.13,2.72-1.52,3.47-4.33,5.52-2.33,1.88-7-3.42-3.62-3.64-7.05,2.79-1.71,0-4.49-3.85-2.57-3.85-3.86a6.62,6.62,0,0,1,.64-2.56,3.29,3.29,0,0,0-.21-4.71,20.92,20.92,0,0,1-3.64-6.21s3.21-3,1.29-10.27-1.72-6.85-4.07-10.49-2.78-3.42-4.28-5.56A28.16,28.16,0,0,0,128.07,47c-2.35-2.14-3.07-1.1-6.06-3s-1.92-2.73-4.7-3.38-2.67-1.44-7.59-1.44-8.83-3.29-11.83-2.22-3.42.08-4.71-1.2-1.61-2.54-6.11-1-9.51,1.81-10.79,2.88-1.93,3.21-4.5.43a48.52,48.52,0,0,0-3.85-3.85,56.46,56.46,0,0,0-5.78.85,28.72,28.72,0,0,0-5.78,1.93c-1.28.43-2.35,1.5-3.42,1.92A5.63,5.63,0,0,0,51,40.31Z" fill="#2e110d"/>
      <path d="M47.6,94v7.71a31.7,31.7,0,0,0,4.28,15.41l43.66,5.56L99.18,85.9l-3-1.71s1.78,1.65-2.1-.57-5.18-1.79-5.82-3.93S87,78.62,87,74.56s2.57-4.71-.64-7.92-3.43-4.28-5.78-6.85a12.19,12.19,0,0,0-6.21-3.21,5.21,5.21,0,0,0-4.06,0c-2.57.85-3.64.85-6.85,2.14s5.35-4.71.42,1.07.43,1.71-6.2,5.78-9,7.49-10.06,9.63-1.71.64-2.36,4.49a23.4,23.4,0,0,0,0,7.28Z" fill="#c39a7e"/>
      <path d="M95.11,84.77c-.43,7.12,0,5.2,1.29,9s-2.32,8.34-2.32,8.34-3.68,3.64-4.32,7.07a20.91,20.91,0,0,1-1.28,4.71c-.22.64-.65,1.49-2.57,2.56a7.57,7.57,0,0,1-3.43,1.29c-1.92.43,1.72-2.57-5.13-4.07s-10-2.33-10.77-2.55a8.62,8.62,0,0,0-4.64-.23A43.64,43.64,0,0,0,56.37,112c-2.78.64-5.77.43-5.77-1.5s2.71-2.65,0-1.92S47,108.8,46.1,112s1.07,1.07-1.5,4.92-2.78,1.71-3.64,4.71-2.78,4.07-2.56,4.92a9.76,9.76,0,0,0,2.78,4.5,6,6,0,0,1,1.71,4.06s-2.57,2.36-1.28,4.93,1.49-1.29,3.42,4.49S44,151,47.6,152.25a19.44,19.44,0,0,0,5.78,1.28s-1.29,2.57,7.06,0L68.79,151s-1.07,1.5,3.64,2.78,3.82.9,7.06.93,1.5-.28,6-2.64,4.07-2.57,6.85-3.85a21.49,21.49,0,0,0,4.34-2.57,26.87,26.87,0,0,1,3.58-7.06,30.69,30.69,0,0,0,3.85-9l1.07-5.78S112,121,112.45,118a39.35,39.35,0,0,1,1.07-5.13,28.69,28.69,0,0,0,1.92-3,21.76,21.76,0,0,0,2.48-4.69l-5-38.54H99.18Z" fill="#2e110d"/>
      <path d="M64.83,82.72a24.25,24.25,0,0,1,9.47-2.18,34.09,34.09,0,0,1,7.85,2c.48.24,1.68,1.31-.9.61s-3.39-1.84-6.55-1.55-5.74,1-7,1.1a14.87,14.87,0,0,0-2.91.69C64.26,83.53,64.83,82.72,64.83,82.72Z" fill="#2e110d"/>
      <path d="M45.41,87.47c-1.18-.77,2.79-2.09,4.93-2.24s5.1-.16,5.1.32-.36,1.06-2.53,1.06a15.46,15.46,0,0,0-4.83.86A3.76,3.76,0,0,1,45.41,87.47Z" fill="#2e110d"/>
      <path d="M68.91,87.17c3.23-.73,7.56-1.32,9-.74s2.44,3.13,1.32,3.76-7.35,1-8.92,1-2.9.16-2.9-1S67.49,87.49,68.91,87.17Z" fill="#fae1d7"/>
      <path d="M48.81,90.09c1.49-.68,5.82-.81,6.06,0s.64,3.08-.45,3.4a20.31,20.31,0,0,1-4.89,0c-.42-.08-1.45-1.77-1.21-2.34S48.81,90.09,48.81,90.09Z" fill="#fae1d7"/>
      <path d="M39.31,144.12c-3.11,1.56-4,1.8-5.13,4.92a109.28,109.28,0,0,0-3.26,11.26c-1.44,5.75-4.07,8.87-4.79,12.71s1.68,7.43,3.11,15.34,0,12.94,1.68,17.25-7.55,7.43,5.34,11.27,7.81,4.5,14.06,4.53,6-.22,14.26,1.22a87.85,87.85,0,0,0,13.57,1.44s6.94,2.16,18.45-4.31,14.86-8.63,17.26-9.35a23.66,23.66,0,0,1,6.37-.5v-8.37s-8.57,3.83-15.5,3.83-10,1.92-19.16,4.56-20,9.11-26.16,7.91-16.74-1.92-18.9-7-5.27-11.75-5.27-18-1-9.59-2.16-15.82-3.36-5.51-1.2-11.27a57.41,57.41,0,0,1,6.5-13.18c2.37-3.35,9.23-8.51,5.08-8.51Z" fill="#f0f3a6"/>
      <path d="M53,89.54a11.16,11.16,0,0,0-4.17.55s-.25.48-.49,1.06.79,2.26,1.21,2.34c.21,0,1.12.11,2.12.14A6.11,6.11,0,0,0,53,89.54Z" fill="#422b23"/>
      <path d="M74.56,87.38a6.74,6.74,0,0,0-.1-1.11,44.23,44.23,0,0,0-5.55.9,1.77,1.77,0,0,0-.82.42,5.65,5.65,0,0,0,1.23,3.52l1,0c.57,0,1.74,0,3.06-.09A5.82,5.82,0,0,0,74.56,87.38Z" fill="#422b23"/>
      <path d="M53.88,115.19c3.36-.23,3.66.45,6,0s1.89-.75,4.65-.45a21.92,21.92,0,0,1,6.74,1.79c1.31.67,5.71.9,1.8,1.79s-5.79,1.42-9.3,1.42a41.33,41.33,0,0,1-6.72-.59c-1.27-.15-2.47.15-3.22-.45a1.71,1.71,0,0,1-.52-2.23A2.9,2.9,0,0,0,53.88,115.19Z" fill="#c39a7e"/>
      <g>
        <path d="M56.15,85.66c-.57,3.32-2,7.34-1.52,9s-.08,5.1-.81,7.28-1.62,4.61,0,6.72,3.38,1.63,5.47,1.07,1.9-1,4.81-.75,3.81.47,4.3-.58,1-1.94.48-3.4-3.42-3.66-5.37-3.09" fill="#c39a7e"/>
        <path d="M56.15,85.66c-.28,2-.83,4-1.18,6.06a7.64,7.64,0,0,0-.11,3A9.18,9.18,0,0,1,55,97.85a20,20,0,0,1-.52,3.08c-.25,1-.64,2-.89,3a6.51,6.51,0,0,0-.23,2.89,4.16,4.16,0,0,0,1.43,2.38c1.43,1.3,3.64.46,5.51-.09a7.27,7.27,0,0,1,1.56-.43,9.52,9.52,0,0,1,1.6,0c1.05.07,2.07.19,3.08.27a2.16,2.16,0,0,0,1.29-.18c.29-.19.48-.77.71-1.2a2.86,2.86,0,0,0,0-2.75,6.45,6.45,0,0,0-2.12-2.1,4,4,0,0,0-2.89-.72,3.9,3.9,0,0,1,3,.54,6.57,6.57,0,0,1,2.35,2.07,3.37,3.37,0,0,1,.49,1.57,3.62,3.62,0,0,1-.34,1.6l-.31.71a1.83,1.83,0,0,1-.51.74,2.71,2.71,0,0,1-1.68.36c-1.05,0-2.07-.17-3.09-.22a9,9,0,0,0-1.47,0,6.74,6.74,0,0,0-1.41.41,18.25,18.25,0,0,1-3,.81,4.53,4.53,0,0,1-1.68,0,3.58,3.58,0,0,1-1.52-.79,4.91,4.91,0,0,1-1.66-2.83,7.2,7.2,0,0,1,.28-3.21c.28-1,.67-2,.92-2.95a21.43,21.43,0,0,0,.61-3,8.82,8.82,0,0,0,0-3,7.39,7.39,0,0,1,.22-3.15C55.1,89.63,55.72,87.67,56.15,85.66Z" fill="#a07155"/>
      </g>
    </g>
  </g>
  <polygon points="204.41 104.46 162.93 172.48 0 172.48 0 194.65 279.31 194.65 1344.29 194.65 1344.29 104.46 204.41 104.46" fill="#212026"/>
  <g clip-path="url(#clip-path-2)">
    <path d="M1271.36,229.86h-33.13c-.45,0-1.06.22-1.29-.28s.24-.94.54-1.32a11.59,11.59,0,0,1,6-4,63.64,63.64,0,0,1,10-1.73q3.1-.4,6.19-.84a9.33,9.33,0,0,0,2.62-.79,5.26,5.26,0,0,0,3.25-5.07c.14-3.82.4-7.63.61-11.45q.18-3.54.37-7.06c.2-3.74.42-7.47.62-11.21.13-2.32.25-4.65.38-7,.21-3.74.42-7.47.62-11.21.13-2.44.25-4.87.38-7.31q.3-5.48.62-10.95c.13-2.38.25-4.77.38-7.15.2-3.73.41-7.47.62-11.2.06-1.05.11-2.11.18-3.16,0-.72-.42-.95-1-1.11l-7-2.08-34.8-10.27c-.11,0-.21-.07-.32-.09-.29-.06-.62-.3-.86,0s0,.58.09.86l9,27,7.81,23.28c.44,1.3.54,1.37,1.89,1.38.64,0,1.28,0,1.92,0s.9.23.48.91a10.92,10.92,0,0,1-3.79,3.55,25.74,25.74,0,0,1-10.7,3.42,56.35,56.35,0,0,1-21-1,21.86,21.86,0,0,1-8.88-4.39,8.18,8.18,0,0,1-1.43-1.51c-.16-.21-.43-.43-.26-.73s.49-.22.76-.22h4.08c1.22,0,1.34-.09,1.73-1.25Q1212,154,1216,142.15c3-8.86,6-17.72,8.9-26.6.16-.48.73-1.07,0-1.56a1.86,1.86,0,0,0-2.41.13,1.9,1.9,0,0,1-1.48.64,1.84,1.84,0,0,1-1.74-1.61,1.81,1.81,0,0,1,1.21-2,1.62,1.62,0,0,1,2.14.76,2.36,2.36,0,0,0,2,1.36l44.39,8.93.32.07c1.17.22,1.31.1,1.33-1.09v-.08a2.39,2.39,0,0,0-1.46-2.93,4.25,4.25,0,0,1-1.75-5.38,4.48,4.48,0,0,1,4.73-2.79,4.6,4.6,0,0,1,3.94,4,4.55,4.55,0,0,1-3.09,4.7c-1.21.41-1.28.52-1.17,1.79.2,2.29.19,2.32,2.35,3l32.49,9.59c3.62,1.07,7.24,2.12,10.86,3.21a1.75,1.75,0,0,0,1.83-.26,1.83,1.83,0,0,1,2.77.65,1.89,1.89,0,0,1-.86,2.48,1.73,1.73,0,0,1-2.49-1.06c-.3-1.25-1.21-1.28-2.13-1.41-.49-.08-.68.17-.56.64.06.24.14.48.22.71l14.11,42.15c.92,2.74,1.86,5.47,2.79,8.2.42,1.24.5,1.3,1.85,1.31,1.08,0,2.16,0,3.24,0,.37,0,.86-.14,1.05.3s-.2.72-.42,1a13.7,13.7,0,0,1-6.09,4.48,31.57,31.57,0,0,1-9.85,2.29,59,59,0,0,1-17.39-.79,24.56,24.56,0,0,1-10.43-4.59,10.42,10.42,0,0,1-2-2.11c-.3-.42-.28-.65.32-.63.86,0,1.72,0,2.58,0,1.43,0,1.51-.06,1.95-1.4q5.1-15.29,10.2-30.56,3.29-9.83,6.59-19.65c.1-.29.19-.58.28-.87a.69.69,0,0,0-.6-1l-.65-.14-40-8c-.21,0-.43-.07-.65-.13-.67-.15-.94.15-.91.79.06,1.38.13,2.77.21,4.15.14,2.57.3,5.15.44,7.72.21,3.71.42,7.41.62,11.12.13,2.33.25,4.65.38,7l.63,11.37c.18,3.46.35,6.92.54,10.38s.41,7.14.61,10.71c.14,2.41.25,4.81.39,7.22q.3,5.57.62,11.13c.12,2.24.31,4.48.35,6.72a5,5,0,0,0,3.34,4.72,20.6,20.6,0,0,0,5.93,1.22c3.52.45,7.06.78,10.54,1.51a14.8,14.8,0,0,1,6.51,2.8,9.29,9.29,0,0,1,2.1,2.45c.36.62.22.85-.49.89-.3,0-.61,0-.92,0Zm44.22-40.13h15.23c1.26,0,1.37-.17,1-1.37s-.79-2.25-1.17-3.38q-4.52-13.41-9-26.83c-1.87-5.57-3.72-11.16-5.59-16.73-.09-.24-.08-.65-.42-.63s-.27.37-.37.6-.07.21-.1.31q-3.44,10.22-6.87,20.43-4.38,13.11-8.74,26.21c-.42,1.28-.35,1.39,1,1.39Zm-89.86-22.64H1241c1,0,1.16-.14.84-1.12-.64-2-1.34-4-2-6Q1233,139.51,1226.15,119c-.11-.32-.11-.87-.49-.86s-.37.55-.48.88q-7.77,23.19-15.52,46.38c-.11.32-.21.64-.29,1a.48.48,0,0,0,.46.64,8.37,8.37,0,0,0,1,.05Z" fill="#fff"/>
    <circle cx="1315.64" cy="186.21" r="10.98" fill="#fff"/>
  </g>
  <g>
    <path d="M244.44,160.88v.59l-.08.23-1,.57a1.1,1.1,0,0,0-.41.33,6.46,6.46,0,0,0-.15,1.16q-.09,1.05-.09,2.55A33,33,0,0,0,243,170l-.12.2a30.64,30.64,0,0,1-11,2.05,18.26,18.26,0,0,1-7.83-1.64,13,13,0,0,1-5.54-4.87,13.93,13.93,0,0,1-2.06-7.65,13.47,13.47,0,0,1,4.62-10.75q4.62-4,12.06-4a24.83,24.83,0,0,1,9.83,1.86l.13.21a49.29,49.29,0,0,0-.82,5.49l-.15.14h-.9l-.16-.16-.09-2.07a6.76,6.76,0,0,0-.13-1.19,1.46,1.46,0,0,0-.42-.46,9.84,9.84,0,0,0-1.81-.9,14.64,14.64,0,0,0-2.92-.9,16.37,16.37,0,0,0-3.14-.28,13.15,13.15,0,0,0-6.33,1.48,9.56,9.56,0,0,0-4.15,4.33,14.13,14.13,0,0,0-1.4,6.32,15,15,0,0,0,1.51,6.69,11.42,11.42,0,0,0,4.31,4.83,12.21,12.21,0,0,0,6.55,1.74,18.08,18.08,0,0,0,3.31-.32,10.07,10.07,0,0,0,2.78-.91,11.17,11.17,0,0,0,.18-2.52v-2.17a5.44,5.44,0,0,0-.2-1.92,1.27,1.27,0,0,0-1-.54,24.3,24.3,0,0,0-3.33-.2l-.17-.17v-.86l.17-.18,1.2,0c2,.07,3.71.1,5,.1.74,0,1.82,0,3.26-.12Z" fill="#fff"/>
    <path d="M246.65,158.07a17.27,17.27,0,0,1,.84-5.47,12.68,12.68,0,0,1,2.86-4.7,13.88,13.88,0,0,1,4.87-3.34,16.67,16.67,0,0,1,6.45-1.18q6.66,0,10.6,3.62t4,9.9a16.23,16.23,0,0,1-1.93,7.92,13.52,13.52,0,0,1-5.54,5.47,16.62,16.62,0,0,1-8.1,2,15.74,15.74,0,0,1-5.86-1.07,12.07,12.07,0,0,1-4.56-3.17,13,13,0,0,1-2.73-4.88A17.32,17.32,0,0,1,246.65,158.07Zm4.06-1.29a19.06,19.06,0,0,0,.77,5.12,13.56,13.56,0,0,0,2.31,4.71,9.92,9.92,0,0,0,3.53,2.92,11.22,11.22,0,0,0,9.95-.43,8.69,8.69,0,0,0,3.6-4.3,16.78,16.78,0,0,0,1.23-6.56,17.45,17.45,0,0,0-1.41-7.13,9.41,9.41,0,0,0-4-4.62,11.57,11.57,0,0,0-5.76-1.45,9.65,9.65,0,0,0-7.48,3Q250.71,151,250.71,156.78Z" fill="#fff"/>
    <path d="M278.09,158.07a17.27,17.27,0,0,1,.84-5.47,12.71,12.71,0,0,1,2.87-4.7,13.79,13.79,0,0,1,4.87-3.34,16.65,16.65,0,0,1,6.44-1.18q6.66,0,10.61,3.62t3.94,9.9a16.13,16.13,0,0,1-1.93,7.92,13.46,13.46,0,0,1-5.54,5.47,16.61,16.61,0,0,1-8.09,2,15.71,15.71,0,0,1-5.86-1.07,12,12,0,0,1-4.56-3.17,12.93,12.93,0,0,1-2.74-4.88A17.66,17.66,0,0,1,278.09,158.07Zm4.07-1.29a18.67,18.67,0,0,0,.77,5.12,13.37,13.37,0,0,0,2.3,4.71,10,10,0,0,0,3.54,2.92,11.22,11.22,0,0,0,10-.43,8.72,8.72,0,0,0,3.59-4.3,16.78,16.78,0,0,0,1.23-6.56,17.62,17.62,0,0,0-1.4-7.13,9.43,9.43,0,0,0-4-4.62,11.57,11.57,0,0,0-5.76-1.45,9.67,9.67,0,0,0-7.48,3Q282.16,151,282.16,156.78Z" fill="#fff"/>
    <path d="M309.19,144.06l.15-.13c2.26.1,3.79.15,4.61.15l9.14-.19a23.26,23.26,0,0,1,6.41.73,10.87,10.87,0,0,1,4.44,2.54,11.92,11.92,0,0,1,2.95,4.2,13.05,13.05,0,0,1,1,5.11,15.51,15.51,0,0,1-.92,5.21,15,15,0,0,1-2.61,4.62,14.22,14.22,0,0,1-3.84,3.29,14,14,0,0,1-4.33,1.67,23.26,23.26,0,0,1-4.43.42c-1,0-2.93,0-5.75-.12l-1.83,0c-.9,0-2,.06-3.26.16l-.16-.16v-.64l.16-.2a9.63,9.63,0,0,0,1.31-.73,14.2,14.2,0,0,0,.28-3.42c.07-2.18.11-3.84.11-5v-7.16l0-4.44c0-1,0-1.75,0-2.35a7.11,7.11,0,0,0-.14-1.3,1.76,1.76,0,0,0-.22-.55,1.07,1.07,0,0,0-.41-.26,5.26,5.26,0,0,0-1-.19l-1.49-.11-.15-.14Zm7.22,25.49a24.11,24.11,0,0,0,4.59.39,15,15,0,0,0,7.28-1.52,9.48,9.48,0,0,0,4.07-4.51,16.23,16.23,0,0,0,1.35-6.74c0-3.69-1-6.54-2.95-8.58s-5.06-3-9.3-3a31.77,31.77,0,0,0-5,.39q-.15,3.19-.15,7.22v6.14l0,5.74C316.3,166.16,316.34,167.66,316.41,169.55Z" fill="#fff"/>
    <path d="M350.28,144.06l.16-.13q4.85.15,5.58.15t5.61-.15l.16.13v1l-.16.14c-.9,0-1.59.06-2.08.11a2.49,2.49,0,0,0-1.06.3,1.34,1.34,0,0,0-.44,1,15.83,15.83,0,0,0-.11,2.2l0,4.49v8.63c0,2.17,0,3.68,0,4.54l.1,3.37h4c3.18,0,5.16,0,6-.11a8.05,8.05,0,0,0,2.27-.57,15,15,0,0,0,.62-2.24c.26-1.18.41-1.85.42-2l.17-.15h1l.14.15a28.68,28.68,0,0,0-.32,3c-.12,1.5-.17,2.71-.17,3.63l-.16.16q-3.7-.12-9.74-.12l-5.71,0c-1.3,0-2.63.06-4,.16l-.16-.16v-.64l.16-.2a7.9,7.9,0,0,0,1.33-.76,12.12,12.12,0,0,0,.24-2.52c.09-1.58.13-3.5.13-5.74v-8.38l0-3.81a28.23,28.23,0,0,0-.11-2.87,1.87,1.87,0,0,0-.27-.86,1.46,1.46,0,0,0-.71-.35,17,17,0,0,0-2.6-.21l-.16-.14Z" fill="#fff"/>
    <path d="M375.15,143.93l2.44.07c1.6.06,2.65.08,3.14.08s2.31-.05,5.61-.15l.15.13v1l-.15.14c-.9,0-1.6.06-2.08.11a2.55,2.55,0,0,0-1.07.3,1.38,1.38,0,0,0-.44,1,17.93,17.93,0,0,0-.1,2.2l0,4.49v9l0,3.81a28,28,0,0,0,.11,2.86,1.78,1.78,0,0,0,.29.85,1.41,1.41,0,0,0,.71.37,16.39,16.39,0,0,0,2.6.22l.15.12v1l-.15.16-3.44-.12-2.17,0c-.4,0-2.26.06-5.58.16l-.16-.16v-1l.16-.12a22.37,22.37,0,0,0,2.42-.19,1.76,1.76,0,0,0,.81-.31,1.59,1.59,0,0,0,.33-.79,19.48,19.48,0,0,0,.15-2.69l0-4.13v-9l0-3.81c0-1.48,0-2.44-.11-2.87a1.87,1.87,0,0,0-.27-.86,1.5,1.5,0,0,0-.72-.35,16.71,16.71,0,0,0-2.59-.21L375,145v-1Z" fill="#fff"/>
    <path d="M396,158.36v7.77c0,1.42.06,2.36.12,2.83a1.76,1.76,0,0,0,.29.89,1.49,1.49,0,0,0,.71.36,16.39,16.39,0,0,0,2.6.22l.15.12v1l-.15.16c-3.31-.1-5.18-.16-5.61-.16s-2.28.06-5.59.16l-.15-.16v-1l.15-.12a22.16,22.16,0,0,0,2.44-.19,1.74,1.74,0,0,0,.8-.32,1.69,1.69,0,0,0,.33-.78,18.73,18.73,0,0,0,.15-2.65V153.28l0-3.81c0-1.48-.05-2.44-.11-2.87a1.74,1.74,0,0,0-.28-.86,1.41,1.41,0,0,0-.71-.35,16.9,16.9,0,0,0-2.6-.21l-.15-.14v-1l.15-.13c5.52.07,8.75.11,9.67.11q4.65,0,9.53-.11l.16.13a9.44,9.44,0,0,0-.41,2.22c-.07.83-.14,2-.22,3.51l-.15.15h-.92l-.14-.15c0-.1-.08-.6-.17-1.51a15.37,15.37,0,0,0-.31-2,18.19,18.19,0,0,0-5.61-.68,34,34,0,0,0-3.75.23q-.21,1.53-.21,7.42v3.38c1.65,0,2.78,0,3.37,0a26.13,26.13,0,0,0,2.86-.13,5.81,5.81,0,0,0,1.42-.24.77.77,0,0,0,.36-.44,6.59,6.59,0,0,0,.25-1.42l.11-1.05.14-.16h1l.15.18-.13,4.28c0,.49,0,1.21.05,2.14s.08,1.9.08,2.48l-.17.16h-1l-.14-.16-.07-1.66a6.77,6.77,0,0,0-.2-1.42.86.86,0,0,0-.45-.59,6.19,6.19,0,0,0-1.39-.25,32.54,32.54,0,0,0-3.3-.12C397.64,158.3,396.65,158.32,396,158.36Z" fill="#fff"/>
    <path d="M411.14,144.06l.16-.13q6.69.1,8.57.11c4.27,0,8.08,0,11.41-.11l.1.13a33.07,33.07,0,0,0-.73,5.88l-.11.16h-1l-.18-.16a1.78,1.78,0,0,0,0-.31,18.82,18.82,0,0,0-.25-3.16,10.45,10.45,0,0,0-3.41-.72c-1.45-.11-2.54-.16-3.27-.16-1,0-2.34.07-3.95.21l-.07,3.13-.06,3.57-.06,4c1.4.07,2.7.11,3.89.11s2.2,0,3-.11a4.88,4.88,0,0,0,1.42-.25.79.79,0,0,0,.31-.49,7.06,7.06,0,0,0,.19-1.28l.08-1.21.15-.15h.9l.16.15c0,1.42-.06,2.85-.1,4.28l.1,4.39-.16.16h-.9l-.15-.16-.14-1.17a14.51,14.51,0,0,0-.26-1.63.86.86,0,0,0-.36-.46,3.94,3.94,0,0,0-1.45-.31c-.78-.08-1.86-.12-3.22-.12-.76,0-1.91,0-3.46.1-.07,1.09-.1,2.92-.1,5.47,0,2.73,0,4.75.1,6h3.59c3.17,0,5.15,0,5.94-.11a8,8,0,0,0,2.27-.57c.11-.3.3-1,.57-2.08s.42-1.77.46-2l.2-.14h.93l.16.14a26.28,26.28,0,0,0-.34,2.93c-.11,1.39-.17,2.58-.17,3.57l-.14.16c-2.48-.08-5.74-.12-9.76-.12l-5.31,0c-1.24,0-2.53.06-3.87.16l-.16-.16v-.64l.16-.2a10.1,10.1,0,0,0,1.32-.73,15.28,15.28,0,0,0,.27-3.42c.07-2.18.11-3.84.11-5v-7.16l0-4.44c0-1,0-1.75,0-2.35a7.11,7.11,0,0,0-.14-1.3,1.55,1.55,0,0,0-.22-.55,1,1,0,0,0-.41-.26,5.08,5.08,0,0,0-1-.19l-1.48-.11-.16-.14Z" fill="#fff"/>
    <path d="M445.3,143.93l2.44.07c1.6.06,2.65.08,3.15.08s2.31-.05,5.6-.15l.16.13v1l-.16.14c-.9,0-1.59.06-2.08.11a2.49,2.49,0,0,0-1.06.3,1.38,1.38,0,0,0-.44,1,17.57,17.57,0,0,0-.11,2.2l0,4.49v9l0,3.81a24.32,24.32,0,0,0,.12,2.86,1.8,1.8,0,0,0,.28.85,1.45,1.45,0,0,0,.72.37,16.21,16.21,0,0,0,2.59.22l.16.12v1l-.16.16-3.43-.12-2.17,0c-.41,0-2.27.06-5.59.16l-.15-.16v-1l.15-.12a22.12,22.12,0,0,0,2.42-.19,1.66,1.66,0,0,0,.81-.31,1.5,1.5,0,0,0,.34-.79,18.46,18.46,0,0,0,.14-2.69l0-4.13v-9l0-3.81c0-1.48-.05-2.44-.1-2.87a1.74,1.74,0,0,0-.28-.86,1.41,1.41,0,0,0-.71-.35,16.9,16.9,0,0,0-2.6-.21l-.15-.14v-1Z" fill="#fff"/>
    <path d="M458.91,171.66l-.17-.17v-.9l.17-.16a12.94,12.94,0,0,0,1.91-.14,1.39,1.39,0,0,0,.92-.39A1.94,1.94,0,0,0,462,169c.05-.4.09-1.31.14-2.73s.07-2.43.07-3V147.46a2.38,2.38,0,0,0-.37-1.47,1.61,1.61,0,0,0-1-.61,13.53,13.53,0,0,0-2.13-.14l-.16-.16v-.92l.16-.17c1.8.06,3,.09,3.53.09,1.32,0,2.4,0,3.25-.09l6.23,8.08,9.16,11.49q1.65,2.08,3.38,4V152.4c0-.47,0-1.46-.07-3s-.1-2.5-.17-2.91a1.4,1.4,0,0,0-.34-.83,1.92,1.92,0,0,0-.92-.32,13.61,13.61,0,0,0-1.82-.12l-.16-.16v-.9L481,144c1,.06,2.55.09,4.51.09,1.78,0,3.08,0,3.88-.09l.18.17v.9l-.16.16a13.38,13.38,0,0,0-2,.14,1.31,1.31,0,0,0-.88.42,2.28,2.28,0,0,0-.24.86c0,.38-.09,1.28-.14,2.7s-.07,2.44-.07,3.06v9.28l0,5.37c0,1.76.05,3.52.08,5.29a33,33,0,0,0-3.38-.82l-1.38-1.64-4.16-5.07L464,148.26v15c0,.6,0,1.67.07,3.21a25.15,25.15,0,0,0,.17,2.79,1.5,1.5,0,0,0,.25.67,1.41,1.41,0,0,0,.68.34,8.82,8.82,0,0,0,2.13.18l.16.16v.91l-.16.16a27.56,27.56,0,0,0-3.28-.14C462.07,171.52,460.37,171.57,458.91,171.66Z" fill="#fff"/>
    <path d="M524.44,143.93l.18.17q-.18,1.76-.18,6.14l-.15.15h-.92l-.16-.17-.21-1.8a17.84,17.84,0,0,0-.25-1.77.87.87,0,0,0-.28-.47,3.36,3.36,0,0,0-1.27-.24c-.72-.07-1.52-.1-2.4-.1h-3.69c-.11,2.94-.16,4.64-.16,5.1v11.38l0,3.81a28,28,0,0,0,.11,2.86,1.74,1.74,0,0,0,.27.86,1.49,1.49,0,0,0,.71.36,16.61,16.61,0,0,0,2.62.22l.14.12v1l-.14.16c-3.33-.1-5.2-.16-5.59-.16s-2.27.06-5.56.16l-.16-.16v-1l.16-.12a22.14,22.14,0,0,0,2.43-.19,1.71,1.71,0,0,0,.8-.31,1.5,1.5,0,0,0,.34-.79,15.86,15.86,0,0,0,.14-2.69l0-4.13V150.94c0-.21-.05-1.91-.16-5.1h-2.91c-1.2,0-2.23,0-3.1.08s-1.38.18-1.52.4a7.34,7.34,0,0,0-.38,2.1l-.19,1.8-.18.17H502l-.15-.15q0-4.71-.18-6.14l.18-.17q3.39.15,11.3.15Q521.18,144.08,524.44,143.93Z" fill="#fff"/>
    <path d="M526.53,143.93c3.32.1,5.18.15,5.59.15s2.3-.05,5.6-.15l.16.13v1l-.16.14c-.9,0-1.59.06-2.08.11a2.54,2.54,0,0,0-1.06.3,1.38,1.38,0,0,0-.44,1,17.57,17.57,0,0,0-.11,2.2l0,4.49V156c2.85.07,5.56.11,8.11.11,3.49,0,6.14,0,8-.11v-2.74l0-3.81a24.54,24.54,0,0,0-.12-2.87,2,2,0,0,0-.27-.86,1.37,1.37,0,0,0-.71-.35,16.94,16.94,0,0,0-2.61-.21l-.14-.14v-1l.14-.13c3.33.1,5.2.15,5.6.15s2.31-.05,5.61-.15l.15.13v1l-.15.14c-.91,0-1.61.06-2.1.11a2.59,2.59,0,0,0-1.07.3,1.38,1.38,0,0,0-.43,1c-.06.53-.1,1.26-.11,2.2l0,4.49v9l0,3.81a28,28,0,0,0,.11,2.86,1.78,1.78,0,0,0,.29.85,1.41,1.41,0,0,0,.7.37,16.29,16.29,0,0,0,2.61.22l.15.12v1l-.15.16c-3.33-.1-5.2-.16-5.61-.16s-2.28.06-5.6.16l-.14-.16v-1l.14-.12a22.41,22.41,0,0,0,2.44-.19,1.66,1.66,0,0,0,.8-.31,1.59,1.59,0,0,0,.33-.79,15.86,15.86,0,0,0,.14-2.69l0-4.13v-4.45q-5.79-.12-8.11-.12c-1.59,0-4.24,0-8,.12v4.45l0,3.81a26.9,26.9,0,0,0,.12,2.86,1.92,1.92,0,0,0,.28.85,1.45,1.45,0,0,0,.72.37,16.21,16.21,0,0,0,2.59.22l.16.12v1l-.16.16c-3.32-.1-5.19-.16-5.6-.16s-2.27.06-5.59.16l-.15-.16v-1l.15-.12a22.12,22.12,0,0,0,2.42-.19,1.66,1.66,0,0,0,.81-.31,1.5,1.5,0,0,0,.34-.79,18.46,18.46,0,0,0,.14-2.69l0-4.13v-9l0-3.81c0-1.48-.05-2.44-.1-2.87a1.74,1.74,0,0,0-.28-.86,1.41,1.41,0,0,0-.71-.35,16.9,16.9,0,0,0-2.6-.21l-.15-.14v-1Z" fill="#fff"/>
    <path d="M560.09,144.06l.15-.13q6.71.1,8.58.11,6.4,0,11.4-.11l.1.13a33.28,33.28,0,0,0-.72,5.88l-.12.16h-1l-.17-.16c0-.12,0-.22,0-.31a18.8,18.8,0,0,0-.26-3.16,10.38,10.38,0,0,0-3.4-.72c-1.46-.11-2.55-.16-3.28-.16-1,0-2.34.07-3.94.21l-.08,3.13-.06,3.57-.06,4c1.41.07,2.71.11,3.89.11s2.2,0,3-.11a4.7,4.7,0,0,0,1.41-.25.8.8,0,0,0,.32-.49,7.31,7.31,0,0,0,.18-1.28l.08-1.21.16-.15h.9l.15.15c0,1.42-.06,2.85-.1,4.28l.1,4.39-.15.16h-.9l-.16-.16-.14-1.17a15.71,15.71,0,0,0-.25-1.63.86.86,0,0,0-.36-.46,4,4,0,0,0-1.46-.31c-.78-.08-1.85-.12-3.22-.12-.75,0-1.91,0-3.46.1-.06,1.09-.09,2.92-.09,5.47,0,2.73,0,4.75.09,6h3.6c3.16,0,5.14,0,5.93-.11a7.88,7.88,0,0,0,2.27-.57,21.19,21.19,0,0,0,.58-2.08c.26-1.09.42-1.77.46-2l.19-.14h.94l.15.14a29,29,0,0,0-.34,2.93c-.11,1.39-.16,2.58-.16,3.57l-.14.16c-2.49-.08-5.74-.12-9.77-.12l-5.31,0c-1.24,0-2.52.06-3.87.16l-.15-.16v-.64l.15-.2a10.1,10.1,0,0,0,1.32-.73,14.86,14.86,0,0,0,.28-3.42c.07-2.18.1-3.84.1-5v-7.16l0-4.44c0-1,0-1.75,0-2.35a8.15,8.15,0,0,0-.14-1.3,1.53,1.53,0,0,0-.23-.55.94.94,0,0,0-.41-.26,4.93,4.93,0,0,0-1-.19l-1.49-.11-.15-.14Z" fill="#fff"/>
    <path d="M622.35,160.88v.59l-.08.23-.95.57a1.1,1.1,0,0,0-.41.33,6.46,6.46,0,0,0-.15,1.16q-.09,1.05-.09,2.55a33,33,0,0,0,.22,3.69l-.12.2a30.64,30.64,0,0,1-11,2.05,18.26,18.26,0,0,1-7.83-1.64,13,13,0,0,1-5.54-4.87,13.93,13.93,0,0,1-2.06-7.65A13.47,13.47,0,0,1,599,147.34q4.62-4,12.06-4a24.79,24.79,0,0,1,9.83,1.86l.14.21a46.18,46.18,0,0,0-.83,5.49l-.15.14h-.9l-.16-.16-.09-2.07a5.83,5.83,0,0,0-.13-1.19,1.46,1.46,0,0,0-.42-.46,9.84,9.84,0,0,0-1.81-.9,14.64,14.64,0,0,0-2.92-.9,16.37,16.37,0,0,0-3.14-.28,13.15,13.15,0,0,0-6.33,1.48,9.56,9.56,0,0,0-4.15,4.33,14.13,14.13,0,0,0-1.4,6.32,15,15,0,0,0,1.51,6.69,11.42,11.42,0,0,0,4.31,4.83,12.21,12.21,0,0,0,6.55,1.74,18.08,18.08,0,0,0,3.31-.32,10.07,10.07,0,0,0,2.78-.91,11.17,11.17,0,0,0,.18-2.52v-2.17a5.44,5.44,0,0,0-.2-1.92,1.27,1.27,0,0,0-1-.54,24.3,24.3,0,0,0-3.33-.2l-.17-.17v-.86l.17-.18,1.2,0c2,.07,3.71.1,5,.1.74,0,1.82,0,3.26-.12Z" fill="#fff"/>
    <path d="M624.56,158.07a17.27,17.27,0,0,1,.84-5.47,12.68,12.68,0,0,1,2.86-4.7,13.88,13.88,0,0,1,4.87-3.34,16.67,16.67,0,0,1,6.45-1.18q6.66,0,10.6,3.62t4,9.9a16.13,16.13,0,0,1-1.93,7.92,13.52,13.52,0,0,1-5.54,5.47,16.62,16.62,0,0,1-8.1,2,15.74,15.74,0,0,1-5.86-1.07,12.07,12.07,0,0,1-4.56-3.17,13,13,0,0,1-2.73-4.88A17.32,17.32,0,0,1,624.56,158.07Zm4.06-1.29a19.06,19.06,0,0,0,.77,5.12,13.56,13.56,0,0,0,2.31,4.71,9.92,9.92,0,0,0,3.53,2.92,11.22,11.22,0,0,0,9.95-.43,8.69,8.69,0,0,0,3.6-4.3,16.78,16.78,0,0,0,1.23-6.56,17.45,17.45,0,0,0-1.41-7.13,9.41,9.41,0,0,0-4-4.62,11.57,11.57,0,0,0-5.76-1.45,9.65,9.65,0,0,0-7.48,3Q628.62,151,628.62,156.78Z" fill="#fff"/>
    <path d="M655.79,144.06l.16-.13q4.84.15,5.58.15t5.61-.15l.15.13v1l-.15.14c-.9,0-1.59.06-2.08.11a2.55,2.55,0,0,0-1.07.3,1.38,1.38,0,0,0-.44,1,17.93,17.93,0,0,0-.1,2.2l0,4.49v8.63c0,2.17,0,3.68,0,4.54l.09,3.37h4c3.17,0,5.16,0,6-.11a8.14,8.14,0,0,0,2.27-.57,16.42,16.42,0,0,0,.62-2.24c.26-1.18.4-1.85.42-2l.17-.15h1l.14.15a27.85,27.85,0,0,0-.33,3c-.11,1.5-.16,2.71-.16,3.63l-.16.16q-3.7-.12-9.75-.12l-5.7,0c-1.3,0-2.63.06-4,.16l-.16-.16v-.64l.16-.2a8.42,8.42,0,0,0,1.33-.76,14.07,14.07,0,0,0,.24-2.52c.08-1.58.13-3.5.13-5.74v-8.38l0-3.81c0-1.48,0-2.44-.11-2.87a1.87,1.87,0,0,0-.27-.86,1.45,1.45,0,0,0-.72-.35,16.71,16.71,0,0,0-2.59-.21l-.16-.14Z" fill="#fff"/>
    <path d="M680.09,144.06l.15-.13c2.26.1,3.79.15,4.61.15l9.14-.19a23.26,23.26,0,0,1,6.41.73,10.87,10.87,0,0,1,4.44,2.54,11.92,11.92,0,0,1,2.95,4.2,13.05,13.05,0,0,1,1,5.11,15.51,15.51,0,0,1-.92,5.21,15,15,0,0,1-2.61,4.62,14.11,14.11,0,0,1-3.85,3.29,13.93,13.93,0,0,1-4.32,1.67,23.29,23.29,0,0,1-4.44.42c-1,0-2.92,0-5.74-.12l-1.83,0c-.9,0-2,.06-3.27.16l-.15-.16v-.64l.15-.2a10.1,10.1,0,0,0,1.32-.73,14.86,14.86,0,0,0,.28-3.42c.07-2.18.1-3.84.1-5v-7.16l0-4.44c0-1,0-1.75,0-2.35a8.15,8.15,0,0,0-.14-1.3,1.53,1.53,0,0,0-.23-.55.94.94,0,0,0-.41-.26,4.93,4.93,0,0,0-1-.19l-1.49-.11-.15-.14Zm7.22,25.49a24.11,24.11,0,0,0,4.59.39,15,15,0,0,0,7.28-1.52,9.53,9.53,0,0,0,4.07-4.51,16.23,16.23,0,0,0,1.35-6.74c0-3.69-1-6.54-3-8.58s-5.07-3-9.3-3a31.77,31.77,0,0,0-5,.39q-.15,3.19-.15,7.22v6.14l0,5.74C687.2,166.16,687.24,167.66,687.31,169.55Z" fill="#fff"/>
    <path d="M711.88,144.06l.16-.13c4.47.07,7.32.11,8.57.11,4.27,0,8.08,0,11.41-.11l.1.13a32.34,32.34,0,0,0-.72,5.88l-.12.16h-1l-.17-.16c0-.12,0-.22,0-.31a18.82,18.82,0,0,0-.25-3.16,10.45,10.45,0,0,0-3.41-.72c-1.45-.11-2.54-.16-3.27-.16-1,0-2.34.07-3.94.21l-.08,3.13-.06,3.57-.06,4c1.41.07,2.7.11,3.89.11s2.2,0,3-.11a4.86,4.86,0,0,0,1.41-.25.79.79,0,0,0,.31-.49,7.06,7.06,0,0,0,.19-1.28l.08-1.21.15-.15h.9l.16.15c0,1.42-.06,2.85-.1,4.28l.1,4.39-.16.16h-.9l-.15-.16-.14-1.17c-.12-.91-.2-1.45-.25-1.63a1,1,0,0,0-.36-.46,4,4,0,0,0-1.46-.31c-.78-.08-1.86-.12-3.22-.12-.76,0-1.91,0-3.46.1-.06,1.09-.1,2.92-.1,5.47,0,2.73,0,4.75.1,6h3.59c3.17,0,5.15,0,5.94-.11a7.88,7.88,0,0,0,2.27-.57c.11-.3.31-1,.57-2.08s.42-1.77.46-2l.2-.14h.94l.15.14a26.28,26.28,0,0,0-.34,2.93c-.11,1.39-.17,2.58-.17,3.57l-.13.16q-3.74-.12-9.77-.12l-5.31,0c-1.24,0-2.53.06-3.87.16l-.15-.16v-.64l.15-.2a10.1,10.1,0,0,0,1.32-.73,15.28,15.28,0,0,0,.27-3.42c.07-2.18.11-3.84.11-5v-7.16l0-4.44c0-1,0-1.75,0-2.35a7.34,7.34,0,0,0-.13-1.3,1.53,1.53,0,0,0-.23-.55.94.94,0,0,0-.41-.26,5.08,5.08,0,0,0-1-.19l-1.48-.11-.16-.14Z" fill="#fff"/>
    <path d="M736.18,171.66l-.18-.17v-.9l.18-.16a12.78,12.78,0,0,0,1.9-.14,1.34,1.34,0,0,0,.92-.39,1.81,1.81,0,0,0,.28-.88c0-.4.09-1.31.13-2.73s.07-2.43.07-3V147.46a2.45,2.45,0,0,0-.36-1.47,1.61,1.61,0,0,0-1-.61,13.32,13.32,0,0,0-2.13-.14l-.15-.16v-.92L736,144q2.7.09,3.54.09,2,0,3.24-.09l6.23,8.08,9.16,11.49q1.67,2.08,3.38,4V152.4c0-.47,0-1.46-.07-3s-.1-2.5-.16-2.91a1.47,1.47,0,0,0-.34-.83,2,2,0,0,0-.92-.32,13.66,13.66,0,0,0-1.83-.12l-.16-.16v-.9l.16-.17c1.06.06,2.56.09,4.51.09,1.79,0,3.08,0,3.89-.09l.18.17v.9l-.16.16a13.38,13.38,0,0,0-2,.14,1.31,1.31,0,0,0-.88.42,2.26,2.26,0,0,0-.25.86c0,.38-.09,1.28-.13,2.7s-.07,2.44-.07,3.06v9.28l0,5.37c0,1.76,0,3.52.08,5.29a33,33,0,0,0-3.38-.82l-1.39-1.64-4.16-5.07-13.24-16.55v15c0,.6,0,1.67.07,3.21a26.35,26.35,0,0,0,.16,2.79,1.49,1.49,0,0,0,.26.67,1.36,1.36,0,0,0,.67.34,9,9,0,0,0,2.14.18l.16.16v.91l-.16.16a27.68,27.68,0,0,0-3.28-.14C739.34,171.52,737.64,171.57,736.18,171.66Z" fill="#fff"/>
    <path d="M814.87,144l.18.15v1l-.16.14a13.88,13.88,0,0,0-2.66.21,1.23,1.23,0,0,0-.74.52,3.35,3.35,0,0,0-.24,1.41c0,.71-.06,2.69-.11,6v9c0,1.31,0,2.78.06,4.42a12.4,12.4,0,0,0,.24,2.86,1.18,1.18,0,0,0,.68.59,12.66,12.66,0,0,0,2.77.24l.16.14v.95l-.18.16q-3.18-.18-5.55-.18c-1.06,0-2.88.06-5.44.18l-.18-.16v-.93l.16-.16a14.83,14.83,0,0,0,2.66-.21,1.21,1.21,0,0,0,.73-.52,3.36,3.36,0,0,0,.26-1.44c0-.71.06-2.69.1-5.94V148l-6.74,14.1q-2.54,5.29-4.44,10h-.76c-.73-1.68-1.33-3-1.79-4l-9.34-19.4v13.66c0,1.27,0,2.74.05,4.4a11.28,11.28,0,0,0,.24,2.88,1.24,1.24,0,0,0,.69.59,11.11,11.11,0,0,0,2.77.23l.16.16v.93l-.18.18-1.25-.06c-1.29-.06-2.4-.1-3.32-.1-.42,0-2,.06-4.67.16l-.15-.16v-.93l.15-.18a13.7,13.7,0,0,0,2.66-.19,1.24,1.24,0,0,0,.73-.53,3,3,0,0,0,.25-1.39c0-.68.05-2.67.09-6v-8.95c0-1.18,0-2.63,0-4.33a12.7,12.7,0,0,0-.23-2.95,1.2,1.2,0,0,0-.67-.59,11.54,11.54,0,0,0-2.78-.24l-.15-.15v-.94l.17-.17q1.35.09,3.63.09t3.75-.09c1.1,2.52,2.15,4.81,3.15,6.85L797,166l6.68-13.93q2.72-5.64,3.65-8.12,1.88.09,3.69.09Q812.65,144.08,814.87,144Z" fill="#fff"/>
    <path d="M817.39,144.06l.16-.13q6.69.1,8.57.11c4.27,0,8.08,0,11.41-.11l.1.13a33.07,33.07,0,0,0-.73,5.88l-.11.16h-1l-.18-.16a1.78,1.78,0,0,0,0-.31,18.82,18.82,0,0,0-.25-3.16,10.45,10.45,0,0,0-3.41-.72c-1.45-.11-2.54-.16-3.27-.16-1,0-2.34.07-4,.21l-.07,3.13-.06,3.57-.06,4c1.4.07,2.7.11,3.89.11s2.2,0,3-.11a4.88,4.88,0,0,0,1.42-.25.79.79,0,0,0,.31-.49,7.06,7.06,0,0,0,.19-1.28l.08-1.21.15-.15h.9l.16.15c0,1.42-.06,2.85-.1,4.28l.1,4.39-.16.16h-.9l-.15-.16-.14-1.17a14.51,14.51,0,0,0-.26-1.63.86.86,0,0,0-.36-.46,3.94,3.94,0,0,0-1.45-.31c-.78-.08-1.86-.12-3.22-.12-.76,0-1.91,0-3.46.1-.07,1.09-.1,2.92-.1,5.47,0,2.73,0,4.75.1,6h3.59c3.17,0,5.15,0,5.94-.11a8,8,0,0,0,2.27-.57c.11-.3.3-1,.57-2.08s.42-1.77.46-2l.2-.14h.93l.16.14a26.28,26.28,0,0,0-.34,2.93c-.11,1.39-.17,2.58-.17,3.57l-.14.16c-2.48-.08-5.74-.12-9.76-.12l-5.31,0c-1.24,0-2.53.06-3.87.16l-.16-.16v-.64l.16-.2a10.1,10.1,0,0,0,1.32-.73,15.28,15.28,0,0,0,.27-3.42c.07-2.18.11-3.84.11-5v-7.16l0-4.44c0-1,0-1.75,0-2.35a7.11,7.11,0,0,0-.14-1.3,1.55,1.55,0,0,0-.22-.55,1,1,0,0,0-.41-.26,5.08,5.08,0,0,0-1-.19l-1.48-.11-.16-.14Z" fill="#fff"/>
    <path d="M841.26,171.68l-.18-.16v-1l.18-.16a8.56,8.56,0,0,0,1.83-.14,1.65,1.65,0,0,0,.74-.51,18.3,18.3,0,0,0,1.3-2.49l2-4.46,5.31-12q1.5-3.53,3-7.07h1.27l8.34,19.61,1.11,2.62c.33.74.7,1.55,1.12,2.42a7.69,7.69,0,0,0,.88,1.54,1.69,1.69,0,0,0,.61.37,6.7,6.7,0,0,0,1.61.14l.15.16v1l-.15.16c-1.38-.12-2.63-.18-3.73-.18-2.16.07-4.33.13-6.49.18l-.15-.16v-1l.15-.16a16.26,16.26,0,0,0,2.74-.18.66.66,0,0,0,.55-.68,3.45,3.45,0,0,0-.28-1.13l-2.4-6H849.5l-2.13,5a5.8,5.8,0,0,0-.56,2,.77.77,0,0,0,.52.72,9.12,9.12,0,0,0,2.66.25l.17.16v1l-.15.16c-1.68-.1-3.15-.16-4.42-.16C844.16,171.52,842.72,171.58,841.26,171.68Zm8.9-11h9.89L855.15,149Z" fill="#fff"/>
    <path d="M872.8,171.66l-.17-.17v-.9l.17-.16a12.94,12.94,0,0,0,1.91-.14,1.33,1.33,0,0,0,.91-.39,1.81,1.81,0,0,0,.28-.88c0-.4.09-1.31.13-2.73s.07-2.43.07-3V147.46a2.45,2.45,0,0,0-.36-1.47,1.61,1.61,0,0,0-1-.61,13.27,13.27,0,0,0-2.12-.14l-.16-.16v-.92l.16-.17c1.79.06,3,.09,3.53.09q2,0,3.24-.09l6.23,8.08,9.16,11.49q1.66,2.08,3.38,4V152.4c0-.47,0-1.46-.07-3s-.1-2.5-.16-2.91a1.47,1.47,0,0,0-.34-.83,2,2,0,0,0-.92-.32,13.66,13.66,0,0,0-1.83-.12l-.15-.16v-.9l.15-.17c1.06.06,2.56.09,4.51.09,1.79,0,3.08,0,3.89-.09l.18.17v.9l-.16.16a13.38,13.38,0,0,0-2,.14,1.31,1.31,0,0,0-.88.42,2.11,2.11,0,0,0-.24.86c0,.38-.1,1.28-.14,2.7s-.07,2.44-.07,3.06v9.28l0,5.37c0,1.76,0,3.52.08,5.29a33,33,0,0,0-3.38-.82l-1.39-1.64-4.16-5.07-13.24-16.55v15c0,.6,0,1.67.07,3.21a26.35,26.35,0,0,0,.16,2.79,1.49,1.49,0,0,0,.26.67,1.36,1.36,0,0,0,.67.34,9,9,0,0,0,2.14.18l.16.16v.91l-.16.16a27.68,27.68,0,0,0-3.28-.14C876,171.52,874.26,171.57,872.8,171.66Z" fill="#fff"/>
  </g>
  <g clip-path="url(#clip-path-3)">
    <g clip-path="url(#clip-path-4)">
      <g>
        <path d="M163.29-253.31c.06-.13-.09-.5-.17-.51-.56-.06-.66.49-1,.8a1.75,1.75,0,0,1-1-2.3c.56-2.29,1.41-4.22,3.82-5.05h0a1.48,1.48,0,0,1,.87,1.08c1.07,6.1,2.48,12.15,1.76,18.44a43.88,43.88,0,0,0-.16,8.88,21.42,21.42,0,0,1-.37,7.41c-.85,3.07-2.42,6-3.09,9.06-.63,2.92-1.92,5.84-1.57,8.83.51,4.28,1.71,8.45.15,12.77a12.08,12.08,0,0,0-.38,4.54,27.3,27.3,0,0,1-.71,8.06,32.11,32.11,0,0,0-1,9.52,47.15,47.15,0,0,1-8,28.66c-3,4.66-6.9,8.68-10.43,12.94a4.73,4.73,0,0,0-4-2.94c-1.58-.23-2.51-1.17-3.7-1.86a6.31,6.31,0,0,0-2.93-1c-2.65-.2-5.87.07-7.51-3.13-.51-1-1.84-1-2.86-.66a2.89,2.89,0,0,1-3-.62,6.08,6.08,0,0,0-4.16-.93c-1.79.06-3.75-1.57-5.44-2.75-1-.73-2.31-1.56-2.3-3.18-1.69,0-1.48-3.36-3.85-2.13-.3.16-.83.09-.62-.29.78-1.4-2.38-2-.66-3.45.91-.76,1-1.29.74-2.57s1-2.05,2.69-2c2.88.07,5.75-.05,8.48,1.28l.35-.57a34.43,34.43,0,0,0-4-4.74c-1-.85-2.41,0-3.61.54s-2.92,1.5-2.85-1.25c0-.22-.12-.61-.25-.64-3.23-.78-2.85-5.11-6.06-6.06a4.15,4.15,0,0,1-2.77-3.27c-.07-.36-.65-.7-.61-1,.41-2.64-3.84.83-3-2.37.5-2-2.13-2.38-2.41-4-.32-1.91-2.37-2.24-3.32-3.61a3.05,3.05,0,0,0-2.32-1.16A10.6,10.6,0,0,1,74-189c-1.74-2.35-4.55-2.5-6.86-3.67a.58.58,0,0,0-.92.41c-.32,1.27-1,.72-1.6.3a1.8,1.8,0,0,0-2-.05c-.7.32-1.94,0-2.06.91-.16,1.19,1.21.93,1.9,1.35,1.77,1.09,2.4,3.11,3.32,4.8a11.65,11.65,0,0,1,1,7.82c-.21,1.12-.27,1.5-1.57,1.26-2.28-.41-3.09.49-2.73,2.83.89,6,2.54,11.78,2.87,17.86.28,5.13.13,10.19-3.05,14.39-3.48,4.6-4.14,9.88-4.76,15.26-.23,2,.06,4-2.38,5.16-.6.28-1.06,2.3-.67,3,.9,1.6.16,3,.33,4.67,1.24-1.87,3.83-2.46,4-5.44.07-1.63,1.92-2.84,3.43-3.77a.86.86,0,0,1,1.41.7c.2,2.05,1.13,1,1.77.41a15.59,15.59,0,0,1,5.5-3.33c1.86-.6,1.74-2.48,2.23-3.94a.83.83,0,0,0-.28-.63c-1.23-1.2-1.22-1.74.64-2.27,1.63-.46,1.75-1.08.84-2.46,1.6,1.29,3.12-.25,4.56.28-2.47.9-2.45,3.52-3.72,5.16A14.54,14.54,0,0,0,73-123.92c-.68,1.82.18,4.87,1.76,5.85.62.39,1.22.95,2.06,0,1.1-1.23.89-3.65,3.29-3.69a3,3,0,0,0-1-2.56c-1.84-1.35-1.79-2.7-.29-4.35,2.32-2.54,2.27-3.19,0-4.54,2-.32,3.49,1.21,5.36,1.44.42.05.47.79.43,1.28s-.33.33-.67.25c-2.25-.51-1.86.84-1.15,1.92a3.79,3.79,0,0,1,.83,3.53c-.43,1.68,1.45,2.89,2.26,4.33.36.65,1,.06,1.23-.49s-.16-1.12-.11-1.62c.1-1,.29-2.22,1.24-2.6s1,1,1.49,1.51,1,1.22,1.75,2.27c-.59-3.35-1.18-6-4.45-6.95a.86.86,0,0,1-.24-1.56c2.44-1.7,1.14-2.66-.6-3.62-.16-.09-.21-.37-.38-.68,1.1-.52,1.72.33,2.42.67,1.74.84,3.41,1.81,5.15,2.62s2.16,1.85.74,3.31c-.31.32-1,.53-.45,1.09a2.87,2.87,0,0,0,1.38.9c.64.11.64-.6.73-1a59.48,59.48,0,0,0,.58-6.65c.1-.95-1.94-2.31-3.07-3.39-2-1.87-3.67-4-6.23-5.37-1.91-1-4-2.32-4.86-4.65-.23-.62-.93-1-1.77-1.95A20.47,20.47,0,0,1,87-145.21c8,5.25,16.23,10.13,23.72,16.09,4,3.19,8.84,5.14,12.6,8.78,1.12,1.08,3.45,1.51,5.41,1.61,2.48.13,3.76-1.27,4.51-3.4a17,17,0,0,0,1.28,1.39c3.67,3.26,6.82,6.78,7.33,12,.13,1.39.87,2.7,1.19,4.08.45,2,1.57,3.9.63,6h0c-.79-.43-.81-2-2.41-1.44,1.1,1.51-.3,2.87-.36,4.39s.89,3.14-.51,4.51c-.39.38.25.87.54,1.2,1.59,1.81,1.08,3.76.09,5.47-1.2,2.08-2.08,4.32-3.31,6.37-3,4.88-6,9.7-9.07,14.52a10.08,10.08,0,0,0-1.7,4.68,14.63,14.63,0,0,1-2.21,6.28A50,50,0,0,0,119-36.25c-.8,4.49-.89,9.11-2.58,13.42-.29-.24-.61-.71-.87-.68-1.51.18-4,4.45-3.67,6.19a15.65,15.65,0,0,1-4.1,4.94c-.77-.53-1.8.84-2.49-.33-.17.43-.36.87-.52,1.31-.4,1.1.53,1.31,1.17,1.72-.94,1.44-2.53,2.55-2.64,4.41A38.48,38.48,0,0,1,102.12.31c-.71,3.47-2.08,6.91-.75,10.59a3.31,3.31,0,0,1-.29,3.23c-.59-.22-1.51-1.14-1.73-.22-.48,2.06-3.56,1.9-3.37,4.26.06.75.71,1.51,1.47,1.15,1-.47,2.56-.52,2.51-2.14,0-1.22-.07-2.35,1.12-3.08a8,8,0,0,1,1.09,7.6c-1.11,3.14-2.87,6.12-3.07,9.54-.13,2.2-1.06,2.18-2.58,1.19C92.7,30,88.88,27.54,85.06,25.09a22,22,0,0,0-1.37-2.17c-.62-.78-1.28-.87-1.73.23a121,121,0,0,1-10.43-6.42c-.26-2.18-2.47-2.44-3.72-3.65-.21-.2-.66.48-.76.95l-.43-.28c.27-1.57-1.9-4.68-3.44-4.84a2.87,2.87,0,0,1-1.46-.74c-1.4-1-2.19-.63-2.47,1l-.83-.53c1.38-.69,1.43-1.8,1.13-3.14S58.42,5.17,57.87,5A9.59,9.59,0,0,0,61,2c.6-1.1.7-2.3-.07-3s-1.15.65-1.7,1.1C58.09,1,56.37,1.21,56,3a1.09,1.09,0,0,1-.86.07c-2.06-1.46-2.53.2-3.16,1.57L48.55,2.47C49.07,1.36,50.39.3,49-1,47.45-2.5,47-2.31,45.53.47c-2.28-.79-3.61-3.12-6-3.71C41-4.59,40.46-5.8,39.15-7l-2,2.43c-2.06-.89-1.69-2.29-.67-3.68.89-1.21.7-2-.63-2.6a13.85,13.85,0,0,1-5.32-4.35c-1.2-1.67-3.67-1.51-4.6-3.45.29-.35.39-1.4,1.06-.25.51.87,1.24.69,1.79.15,1-1-.18-1.7-.47-2.51-.36-1-1-.38-1.26-.07-.55.66-1.43,1.05-1.67,2a1.8,1.8,0,0,1-1.45-1c2.6-1.41.36-3.3.78-5.42a9.75,9.75,0,0,0-3.27,3.48c-3.2-.23-4.17-3.24-6.17-5,2.65-.78,1.62-2.69,1.3-4.35-.12-.62-.8-.56-1.19-.48-1.52.33-2.57-.5-3.65-1.32-2.49-1.9-2.49-1.91-3.29,1.15a2.82,2.82,0,0,1-.85-.35c-3.52-3-3.52-3-5.87.73A12.41,12.41,0,0,0,.39-29.31c-.42,1.2-1.08,1.28-2,.7l-24.11-15C-26.37-46.77-26.07-47-23-46c1.37.45,2.69,1.06,4.05,1.54s2.44,1.19,3.94-.1c1.25-1.07,3.87.24,4.37,2A2.19,2.19,0,0,0-9-40.73a38.63,38.63,0,0,1,8,2.78,28.13,28.13,0,0,1-.81-5.86c6.5-1.24,13-2.17,18.91-5.34.53.73-.77,1.47.07,1.93.69.37,1.11-.39,1.64-.69,2.73-1.54,4.71-4.14,7.89-5.18a17.87,17.87,0,0,1,3.07-.54c3.36-.51,6.81-1.76,10.14.2-.49,1.39-1.58.62-2.42.63-.65,0-1.36-.2-1.42.75-.06.73.44,1,1.1,1.28a7.49,7.49,0,0,0,6.37.4c.58-.24,1.83.69,1.7-.7A1.75,1.75,0,0,0,43-52.54,2.54,2.54,0,0,1,40-53.46c.57-1.08,1.68-1.1,2.67-1.31a3.57,3.57,0,0,0,2.14-1C45.61-56.58,46.51-63,46-64a3,3,0,0,0-.24-.38c-2.19,1-1.88-1.72-3.13-2.07-1.8-.49-1.59-2.42-2.55-3.52a.75.75,0,0,1,.27-1c.51-.31.87,0,1.17.43.77,1.22,1.76,1.94,3,1.15,1.16.86-1.63,1.7.25,2.26.57.17,1.3,1.37,2,.23.56-.88,1.2-1.84-.1-2.68v0c.39-.42.47-1.39,1.37-.9.66.35,1.23,1,.81,1.78-1.2,2.14.73,4.37-.32,6.52a1.15,1.15,0,0,0,1,1.61c1.06.17,1.13-.76,1.21-1.42.39-3.52,1-7.1-2-10-.76-.72-.15-1.88-.85-2.66-.27-.31-.46-.73-.9-.55a1,1,0,0,0-.38.8c0,.86.32,2.34-.32,2.4a5.5,5.5,0,0,1-3.84-.83c-1-.87-1.69-.58-2.75-.26,1.81-1.29.64-4.53,3.58-4.89.31,0,.4-.51.23-.82a.75.75,0,0,0-1.2-.26c-.72.52-1.28,1.64-2.4.62-.94-.88-.57-1.79-.29-2.86s-.45-2.45,1.83-2.06c.89.15,1.59-1.7,1.73-2.9.42-3.59,2.45-6.77,2.57-10.43,0-.41.1-.86.64-.8s.54.55.46.94c-.56,2.91.95,6.25-2,8.7-1.31,1.09.16,3-.73,4.32,1.66-.39,2.2,1.28,3.35,1.79a.48.48,0,0,0,.64-.66c-1.24-2.08,1.74-3.12,1.19-5-.07-.25.39-.47.75-.38a.54.54,0,0,1,.37.76c-.27.84-.59,1.66-.92,2.47-.21.52-.62,1.08.07,1.47a1.26,1.26,0,0,0,1.55-.31,6.68,6.68,0,0,0,1.34-2.24c.47-1.57.87-3.11,2.6-3.79.55-.21.53-.68.59-1.18.42-3.51,1-7.09,2.69-10.15.89-1.58.49-3.27,1.34-4.71a.68.68,0,0,0-.31-1c-.47-.24-.72.09-1,.4-.9,1-.9,2.39-1.61,3.46-.32.48-.73,1-1.36.67a.83.83,0,0,1-.19-1.42c1-.9,1.7-1.65,1.16-3.25-.35-1,1.22-2.06.7-3.51-2,.25-2.13,2-2.66,3.4S54-105.21,52.16-105c-.31-.88.81-.83.94-1.46a1.85,1.85,0,0,0-.59-2c-.8-.58-1.09.27-1.44.76-.56.74-1.08,1.5-1.57,2.19-1.66-2-.14-3.46.55-5.25a10.57,10.57,0,0,0,.36-5.25c-.21-1.38-3-1.41-4.32-.09a4.32,4.32,0,0,0-1.55,2.24c-1-.44-.47-.87-.31-1.25s.7-1.14.6-1.24c-2.56-2.46.8-5.46-.72-7.86a2.37,2.37,0,0,1,.25-3.21.62.62,0,0,0,.1-.44c-3-1.76.56-4.62-1.1-6.67-.19-.23-.19-1.56.76-1.77.67-.15.91.5,1.1,1.05.37,1,1.15.66,1.8.46.95-.29,2.7-4.3,2.12-5.07-1.69-2.26-1.43-4.75-1.7-7.35-.2-1.92,1-4.46-1.08-6.13l0,.06c-.24-1.63.34-3.32-.35-4.91-.14-.31-.31-.66-.05-.86,2.49-1.9.82-4.48,1.15-6.91l-2,1.08c.76-1.85,2-3.26,1.34-5-2.28,1.17-3.17,3.92-3.52,6.42-.43,3.07.34,6.08-.42,9.24-.59,2.46-1.31,5.51-.67,7.86.55,2.05-.41,4.51,1.52,6.32.82.77.38,2.15-.57,3-.5.44-1.19,1-1.08,1.51.56,2.91-1.4,5.45-1.06,8.28.11.94-.75,1.29-1,2.09-1,4-.77,8.26-2.14,12.2-.56,1.61,1.33,2.08,1.51,3.64.25,2.28-.89,2.09-2,1.79-.9-.25-1.48-.43-1.94.36-.06-1.26,2.1-1.52,1.56-3-.21-.6-1,0-1.67.15.58-1.57,1.85-2.48,1.92-4.06.05-1,.33-1.84-.4-3s0-2.57.53-3.84c.4-.92,1.32-2.13-.81-2.31-.71-.06-.9-.63-.68-1.46a14.82,14.82,0,0,0,.73-5.57c-.5-2.91-.15-5.87-.9-8.72a2.64,2.64,0,0,1,1.67-3.44A2.29,2.29,0,0,0,38.84-145,3.14,3.14,0,0,0,36-143.84c-.26.32-.62.61-1,.35s-.27-.82-.06-1.26.47-1,.7-1.52c1.07-2.31,1.07-2.31-.21-4.31-.86-.07-.72,1.69-1.64,1.14s.2-1.36.23-2c0-1.23.34-2,1.7-2.31.68-.15.86-1.08,1-1.8-.7-.56-1.38.41-2.05,0s-1.64-.77-.85-2,2.32-2.7.5-3.62-2,1.53-2.85,2.54c-.14.17-.2.4-.42.55,1.26-2.47,2.59-4.92,2.91-7.74a1.19,1.19,0,0,1,.54-.73c3-1.72,3.58-4.17,1.5-6.74-.52-.63-.61-1.24,0-1.65a2,2,0,0,0,.56-2.92c-1-1.25-1.6.77-2.61.75-.42-.86.3-1.31.63-1.87s.93-1.46.25-2c-2.4-1.79-1.49-4.36-1.73-6.64-.34-3.13-.59-6.28-.71-9.43-.06-1.75,1.26-3.06,1.93-4.58.41-.92,1.89-2,.77-2.81-1.32-1-3-.15-4.37.58-.48.26-.69,1-1.24,1.55,0-1.76-3.26-2.34-.79-5-1.87.31-2,3-3.59,1.48-1.42-1.34-2.47-3-2-5.08.69-3.17,1.43-6.33.91-9.81-.61,1-1.16,2-1.85,2.95-1,1.43-3,1.55-3.69,0-1.19-2.63-2.59-1.68-4.38-.52a4.51,4.51,0,0,1,1.75-3.62c1.46-.86,1.79-2.49,3-3.44.63-.49.53-1.95,1.69-1.72s.55,1.62,1,2.59a3.76,3.76,0,0,0,1.4-4c-.17-.85-.23-1.74.54-2.18,1-.56,1.51.59,2.25.95s1.57.61,1.2,1.75-.55,2-.82,3c-.34,1.27.27,1.59,1.23,1,1.23-.77,3-1.05,3.15-3a.75.75,0,0,1,1-.75c3.51,1,7.16-.69,10.67.54,1,.36,2.15.6,3.22.9-.18.81.07,1.14,1,1.06.48-.05,1,.27.84.86s-.67.45-1.16.3a4.19,4.19,0,0,0-5.17,1.95l-.3.06s.1.06.13,0a.48.48,0,0,0,.16-.13c1.3,1.07,2.79,1.7,4.4,1,2.63-1.12,5.24.93,8-.27-1-.95-.86-1.85.38-2.54.39-.75,1.28.13,1.71-.52l6,2a2.26,2.26,0,0,1-2.88.57c-.71-.28-1.7-.92-2.37.17-.3.51-1.39.61-1,1.43.33.63.7,1.4,1.84,1.08A1.64,1.64,0,0,1,59.05-218c.25,1,.62,1.88-.82,2.26-.58.15-.6.7-.34,1.18a1.2,1.2,0,0,0,1.22.59c.81,0,1.27-.6,1.86-1a1.25,1.25,0,0,1,1.56.18c.51.43.2.74-.11,1.19-2,2.84-2,3,.45,6.15.27-2.29,2.81-2.4,3.57-4.25a1.45,1.45,0,0,1,1.69-.52c.65.4.31,1.23,0,1.73-.67,1.14-1.37,2.42-2.92,2.45-.85,0-1.11.49-1.37,1.08a.76.76,0,0,0,.34,1c.63.44,1,0,1.43-.38.84-.72,1.23-.48,1.3.65.17,2.62,1.79,4,4.31,3.8.39,0,.9-.28,1.12.09,1.42,2.47,3.1.2,4.62.19,1,0,.72-.92,0-1.3-2.14-1.16-3.81-3.19-6.44-3.47-.77-.08-2.06-3.11-1.49-3.56,1.28-1.05.78-1.76-.06-2.74-.68-.78-1.26-2-.38-2.8.69-.64,2-.2,2.81.22a7.09,7.09,0,0,1,2.3,1.6,1.61,1.61,0,0,0,2.55-.12c.79-1.05-.55-1.18-1.06-1.68a2.2,2.2,0,0,0-2.41-.85,2.38,2.38,0,0,1-2.93-1.47c-.62-1.63-2.41-1.3-3.71-1.73-.83-.26-1.8-.13-1.9-1.42a8.1,8.1,0,0,1,4,1.3c2,1.3,4.41,1.26,6.58,2,.7.24,1.17-.33,1.77-.42-.12,1.22.9,1.17,1.6,1.34,7.13,1.75,13,5.83,18.84,10,3.92,2.77,8.15,5.11,12.11,7.57,0-.13-.44-1,.2-1.28,2.59-1.17.72-2.12-.52-3.41,3.82-.1,7,1.08,10.59,1.49-.73-1.58-2.06-1.12-3-1.49-.7-.28-1.8-.13-1.62-1.31a1.56,1.56,0,0,1,1.89-1.14c2.48.5,4.22-1.19,6.3-1.88,1-.32,1-.76.27-1.55-1.29-1.49-3.76-2.06-3.64-4.7,0-.49-.8-.37-1.25-.23a13,13,0,0,1-2,.75c-.86.13-2,1.06-2.57-.19-.45-1-1.32-2.11-.33-3.36a6.63,6.63,0,0,0,1.13-2.22c-2.32,2.71-5,2.85-8.11,1.81-.7-.24-1.62.24-2.37.07-.93-.22-2.37-.51-.8-1.93,1.34-1.21.17-2.59,0-3.79-.33-2.7,1.64-4.46,2.34-6.72.33-1.08,4.9.74,5.78,1.48,1.82,1.55,2,3.74,3,5.45s4.28,2,6.13,3.74c.18.16.82,0,1.13-.2,1.8-1.14,3.56-2.33,5.33-3.51.31-.21.82-.38.54-.89a1,1,0,0,0-1-.45c-2.91.37-4.13-2.18-6.06-3.51a.94.94,0,0,1-.32-1.28c.72-1.42-.54-1.4-1.14-1.24-1.34.37-2.51-.18-3.75-.28-2.29-.19-3.12-1.49-3.33-3.64-.12-1.27.37-3-1.92-3.29-.8-.09-.41-1.24-.3-1.92.08-.48.37-1,1-.77,1,.39,1.69,2.45,3.35.51.24-.28,2.8,1.3,3.36,2.94,1,3.06,5.26,4.91,8,3.49,1.07-.55.6-1.57.79-2.35s.37-1.18,1.3-1.27c1.12-.12.86.59,1,1.16a3.18,3.18,0,0,0,3.23,2.6c2.68.23,5.3,1.48,8,.53a50.08,50.08,0,0,0,9.25-3.79c-.41-1.06-1-.62-1.52-.61-1.42,0-2.94.42-2.61-2.12.18-1.41-1.08-1.83-2.37-1a3.3,3.3,0,0,1-4.71-1.17c-3.07-4.66-6.3-9.21-8.71-14.27a13.32,13.32,0,0,1-1.08-5c-.11-2,1.89-2.81,3.92-1.68s4,.86,6,1.33c.72.17,1-.41,1.3-.84.68.05,1.35.53,2,0-1-.75-1-.75-2,0-1.68,0-1.89-1.2-1.78-2.39.1-1,0-1.94-1.11-1.94-1.47,0-.7,1-.55,1.74a1.34,1.34,0,0,1-.92,1.71c-.85.22-.91-.54-1.3-1.18-1-1.65-.64-3.93-2.77-5.16a2.19,2.19,0,0,0-2.54-.06c.61-2.23,1.43-3.51,3.6-4,1.67-.39,1.12,1.29,2,1.49.92-1.12,1.83-2.27,2.78-3.37.45-.51,1.4-.87.53-1.69a2.3,2.3,0,0,0-2.36-.86c-3.34.57-5,3.07-6.94,5.19-1.07,1.14-2,1.71-3.29.43-.31-.3-.66-.52-1-.17a1,1,0,0,0-.19.59c.76.35,1.07.82.28,1.39s-1.33,1.26-2.11,1c-1.25-.45-2.34-1.05-2.31-2.88a2.87,2.87,0,0,0-2.4-3.22,5.85,5.85,0,0,1-2.42-1,3.52,3.52,0,0,0-4,.17c-.56.34-.83,1.06-1.45.18a1.21,1.21,0,0,1,.17-1.85,21.09,21.09,0,0,0,3.79-4.61,3.56,3.56,0,0,0-.83-4.94c-1-.9-.11-1.76.21-2.61h.4c-.16-.37-.28-.22-.39,0-2.87-.71-2-2.44-1.07-4-.65-1.22-1.91,2.2-2.39-.43,0-.28-.51.35-.77.58-2.19,2-2.63,4.72-2.92,7.44-.15,1.41-.61,1.51-1.86,1.19s-2.68-1.54-4.14.06c-.16-1.29.66-1.86,1-2.63.18-.41.68-.8.32-1.29a1.06,1.06,0,0,0-1.34-.13c-1.66.79-3.7.48-5.17,1.93a2.45,2.45,0,0,1-2.88.57c-1-.56-.51-1.57-.42-2.4.12-1.19.11-2.44,1.25-3.24.94-.66.39-1.63.43-2.46a.84.84,0,0,0-.83-1c-.57,0-.83.39-1,.91s.08,1.46-.73,2.17c-.66-1.17-2.3-1.05-2.88-2-.68-1.15,1.67-1.62,1.14-3.3-.85,1.1-2.52.95-2.71,2.69a.67.67,0,0,1-1.25.29c-.7-1.57-2.55-.57-3.44-1.76-.31-.41-1,.27-1.3.72s-.31,1.43-1.05,1.73c-2.47-2.73-.74-5,.54-7.55,3.11-6.3,8.69-9.23,14.67-11.91,2.14-1,3.88-2.76,6.29-3.29.77-.17,1.51-.55,2.29-.65,4-.51,6.8-5.58,5.07-9.26a2.42,2.42,0,0,0-2.22-1.19,9.69,9.69,0,0,1-4.47-1.42c-1.17-.59-1.86-2.15-3.73-1.35-.85.37-.77-1.2-1.31-1.69-1.46-1.31-2.54-2.49-1.69-4.81.45-1.22-1.31-2.14-2.31-2.65-1.24-.63-.87.89-1.17,1.48-.19.37-.37.72-.81.81-2.79.56-1.8,3-2.12,4.65-.22,1.08,1.27,1.1,2.26,1,.64-.08,1.65-.18.76.8-1.06,1.15,1.61,2.16,0,2.8-.79.33-1.4-1.43-2.52-1.41s-2.23-.36-3.26-.38c-2.82-.05-4.16-3.61-7.3-2.82-.49.12-.71-1.36-.35-1.81,1.18-1.48,1-3.54,2.3-4.95a1.63,1.63,0,0,0-.13-2.55c-1.27-1.09-1-2.6-1.17-4,0-.44-.14-1.05.54-1.13s.81.39,1,.85c1,2.15,3.39,2.93,4.72,4.82.58.83,1.88.9,2.44-.54.42-1.06,1.42-2.2-.54-2.82-.44-.14-1.34-3.6-1.11-4,.64-1.15,1.43-.66,2.24-.25,2.38,1.2,2.39,1.19,3.74-1.38-.63-.89-1.5.56-2.13-.23.66-2,1.53-4.07.05-6.13-.27-.38-.37-.75,0-1s.74.05,1.08.24c1.22.7,1.06,2.25,2,3.48.7-2.19.28-4.16,0-6s-2.71-2.74-4.65-1.88a17,17,0,0,0-2.53,1.35c-1.47,1-2.33.56-2.86-1.29-.83,2.62-2.16,3.28-4.19,1.36-.32-.31-.71-.11-1.1-.09-1.65.06-3.27-.08-3.51-2.27-.06-.55-.68-.66-.92-1-1-1.62-2.75-3-1.73-5.33.33-.76-.25-1.29-.91-1.39s-1.69-.93-2.41.09c-.26.37-.87.85.36.93s1.25,1.29,1,2.1c-.41,1.29-1.24.22-1.94.15-3.59-.33-4.35-3.35-5.49-5.88-.22-.49-1.24-2.46,1.14-2.41,1,0,.8-1.27.92-1.89a1.49,1.49,0,0,0-1.33-1.7c-.75-.12-1.53.1-1.51.79.06,2.38-2.21,3.9-2.15,6.27,0,1.18-.75,1.32-1.63.77a9.16,9.16,0,0,1-1.93-1.44c-.63-.67-1.08-1.11-1.89-.2-.27.3-1.18.52-1.32.36-1.81-2.14-4-.72-6.12-.88-2.62-.19-3.3-1.74-2-4,.83-1.45,2.09-2.63,2.54-4.34.17-.68.85-.86,1.54-.93A1.4,1.4,0,0,0,49-385.32c-.4-1.43-1.26.26-1.9-.06-.57-.64.84-1.56-.31-2.09a2.23,2.23,0,0,1,.94-1.33,83.29,83.29,0,0,1,11.55-7.72,14.87,14.87,0,0,1,6.16-1.75,39.27,39.27,0,0,1,17.88,2.5c7.37,2.71,12,7.69,14.32,15.11,1.53,4.83,1.09,10.16,4,14.67.58.91,1.85,2.39,1.18,3.53-.93,1.59-.47,3.13-.34,4.58a3,3,0,0,0,3.38,2.95c.82-.09.82.23.65.51-1.22,2,.54,2.53,2.29,3.68a18.13,18.13,0,0,0-1.85-.52c-.7,1.59-1.32,3.22-2,4.84,2.63,1.27,1.28,3.36,1,5.15-.25,1.43-.52,3.09.37,4.07a51.49,51.49,0,0,1,5,6.19c1.22,1.85,1.88.69,2.88.16.66-.36.16-2.09,1.37-1.44a3,3,0,0,1,1.27,3.16c-.12.94-.66,1.45-1.43.88-1.72-1.27-1.47,0-1.7,1.08-.63,2.86,1.57,3.87,3.24,5.26,1.21,1,2,.61,2.56-.72h0c1,1.25-.67,2.76.57,4.2.53-2.12,2.71-3.19,2.78-5.58,0-.34-.15-4.1,2.8-1.93.52.39,1.66-.37,1.44-1.59-.14-.82-.78-1.63-.1-2.49-1.21-.69-.81-3-2.88-2.81h0c-1.11-.48-2.11-1.92-3.46-.26-.3.37-1.47.2-1.47-.18,0-2.07-.71-1.94-1.94-.76-.11.11-.72-.06-.81-.24-.43-.87-.8-1.44-2-.9-.51.24-.79-.51-.63-1a14.91,14.91,0,0,1,1-1.91,2,2,0,0,1,1.32,1.51.68.68,0,0,0,.9.51.65.65,0,0,0,.57-.63.89.89,0,0,0-.53-.95,20.93,20.93,0,0,0-2.26-.41c-.35-.28-1-.42-.86-1s.56-.6.94-.6c2.22,0,4.3-.2,6.13,1.81A82.75,82.75,0,0,0,136-324.76a24.63,24.63,0,0,1,7.55,7.84c2.75,4.62,3.87,9.73,5.37,14.75h0a4.44,4.44,0,0,1-3-4.43c0-.85-.64-1.46-1.07-1.12a3.68,3.68,0,0,1-3,.53c-.68-.07-.74.25-.13,1,.15.17.41.27.26.52-1.24,2.1,0,3.66.92,5.44.52,1,.28,2.29,2,1.79.13,0,1.43,0,1.25,1.17-.09.59.28,1.42,1.15,1,.63-.28.67-.88.37-1.63-.72-1.76-.17-3,1.81-3.37h0a10.94,10.94,0,0,0,.86,2.72c2.62,4.15,4,8.9,6.41,13.1,3.44,6.05,4.55,12.85,7,19.21.06.15-.12.4-.22.68a4.25,4.25,0,0,1-.62-.39c-.34-.33-.22-1.42-1-.92s0,.93.39,1.31c.95.9.49,1.76-.16,2.54-2.32,2.76-1.64,6.23-2.3,9.39-.16.74.38,1,.86,1.25.82.46,1.14-.2,1.52-.7C162.6-252.89,163.05-252.73,163.29-253.31ZM79-38v-.19c.54-2.36,1.69-.93,3-.22-.59-1.19-1-2-2.12-2.21a1.45,1.45,0,0,0-1.54.89c-.5.83.18,1.13.66,1.53Zm-14.7-3c1.4-2.29,3.79-1.18,5.82-1.67-.66-.94-.75-2.2-2.67-1.31-.63.29-2.7-.56-4.08-1,.11-.28.33-.58,0-.84-.06-.06-.34,0-.37.08-.16.39.16.55.39.75-.32.42-.56.58-1.16.24-2.24-1.28-4.33-.44-5,2-.16.59-2.34,1.09-.22,1.91.36.14,1.37.93.78-.59-.08-.21,2.22-1,2.65-.47,1.18,1.48,2.57.72,3.87.9-.66,1.54.16,2.16,1.52,2.12a29.72,29.72,0,0,0,3.73-.56c.25.17.61.28.71.51.27.57.38,1.44,1.06,1.44s.91-1,1.24-1.55c.42-.74.62-1.48-.29-2.07s-1.28.25-1.78.65a6.24,6.24,0,0,0-.93,1A6.29,6.29,0,0,0,64.26-41.07Zm41.48-36.41a25.74,25.74,0,0,0-3.62-1.23c-2.8-.53-3.83.78-2.76,3.45.26.65,1,1.18.19,1.87s-1-.23-1.56-.48c-1-.48-1.21.36-.93.94a11.2,11.2,0,0,1,.87,7.31.53.53,0,0,0,.53.65c1.54,0,1.37,1.29,1.67,2.22.13.41-.28,1.09.43,1.2.87.13.76-.75.88-1.18.43-1.55-.36-2.9-1.08-4.15-.54-.93-.7-1.86.19-2.26,1.06-.48,1.14.7,1.41,1.41.14.37.22,1,.47,1.06,3.16,1.09,1.72,3.51,1.6,5.51a1.93,1.93,0,0,0,.36,1.28c1.57,2.51,1.56,2.52-1,3.31h0c-.61-.08-1.26-1.28-1.77-.21-.36.75.58,1.26,1.23,1.52,1.17.48,2.45.58,3.66,1.06,1.06.42,1-1,1.32-1.52.62-1.23.56-2.89,2.42-3.2a.58.58,0,0,0,.37-.78,1,1,0,0,0-1.35-.66c-1.62.8-2.28-.47-3.21-1.31a1,1,0,0,1,0-1.81,1.64,1.64,0,0,0,.77-1.61c-.14-.91.25-1.34,1.26-1.14a1.28,1.28,0,0,0,1.54-.85c.23-.74-.36-1.18-.94-1.5a12.37,12.37,0,0,0-1.71-.85c-2-.79-2.21-2.07-.46-3.37.58-.44,0-.65,0-.93-.21-1.25-1.38-2.27-.83-3.69,1.18.53,2.68.72,2.65,2.54,0,.51.39.65.83.56a.65.65,0,0,0,.48-.91c-.6-1.36-.63-3.1-2.38-3.73-.48-.27-.73-.65-.37-1.15a3.39,3.39,0,0,1,.86-.83c1.14-.8,1.89-1.79,1.42-3.24s-1.93.22-2.68-.73c0-.08-.08-.27,0-.37.5-.77,2.24-.6,1.86-1.8-.3-1-1.68-.3-2.56-.54a4.3,4.3,0,0,0-4.12,1.11c-.54.5-1.41,1.76-.81,2,2.29.74,1.09,2.62,1.47,3.89.28.91.81.83,1.31,1,.87.38,1.76.69,2.65,1Zm-68,53.56c-1,1.61-2.23.48-2.06-.37.54-2.66-2.16-3.28-2.72-5.32-.76.53.07,2.77-1.85,1.66-.26-.14-.64.12-.71.48-.11.65.39.8.87.89.77.13,1.44.35,1.37,1.31-.09,1.17-1,.66-1.6.8-1.65.35-2,1.73-.72,2.92.8.74.81,2.66,2.69,2a1.42,1.42,0,0,1,.34.77c-.11.68-.65,1.58.42,1.72.46.06,1.22-.68,1.53-1.24.8-1.42,1.39-2.91,2.91-3.83.89-.54,0-1.69.48-2.47.28.11.57.31.84,0a.39.39,0,0,0-.08-.36c-.37-.15-.55.15-.75.39A1.1,1.1,0,0,0,37.75-23.92Zm62.87-166.57c-.14.54-1,1.14-.24,1.63a1.81,1.81,0,0,0,2-.35c.74-.66-.07-1.34-.34-1.88s-.91-.83-1.39-1.23c.47-.83,1.19-1.54,1-2.63-.1-.59,0-1.22.77-1.23a1,1,0,0,1,1.06,1.06q.36,3.23.85,6.44a8.49,8.49,0,0,0,.56,1.55c.28.78.61,1.71,1.6,1.37s.83-1.24.61-2.07c-.13-.45-.46-1.11-.28-1.34,2.37-3.05-.46-5.17-1.62-7.25-.77-1.38-2.82-2.18-3.63-3.88-.84.6-.48,1.11-.53,1.55s-.13.83-.61.91-.8-.27-.94-.81c-.26-1.08-.06-2.93-2-.83-.53.58-2.47-.13-3.79-.25-.07.85,1,1.29.63,2.24a.75.75,0,0,0,.79,1c3.52-.77,4.17,2.18,5.54,4.2C100.25-191.74,100.79-191.11,100.62-190.49Zm28.63-113c.88-.47,1.62-1,1.3-2.12a2.2,2.2,0,0,0-.3-2.42c-1.39-1-.33-1.67.23-2.6a2.43,2.43,0,0,1-3.22-.58c-1.12-1.16.58-2,.36-3.14-1,2.15-3.86,2.79-4.14,5.52,0,.49-.25.92.24,1.27a1,1,0,0,0,1.31-.07,4.42,4.42,0,0,1,1.52-.63,1,1,0,0,1,1.24.84c.19.94-.54.74-1.07.81-1,.13-2,.33-3.07.46a3.35,3.35,0,0,0-2.66,4.36,1.87,1.87,0,0,1-.15,1.81,2.1,2.1,0,0,0,.31,2.61,3.65,3.65,0,0,1,4-1.68c1.55.27,2.58-.11,1.76-2.24-.66-1.71,1.21-2.94,1.72-4.5.22-.69,1.28-.13,1.93.17ZM81.13,9.56c.69-2.14-.19-3.09-2.37-2.93a2.38,2.38,0,0,1-2.62-1.19c-.43-1-1.36-1.26-2.11-1.8-1,.54.06,1.92-1.07,2.21s-1.58-.61-2.33-1c-1-.51-1.95-1.1-2.95-1.59-.29-.14-.63-.55-1.15,0,1,1,2.22,1.65,2.56,3.35.2,1,1,1.55-.44,2-.4.13-.4.45-.22.76s.52.28.81.08a8.9,8.9,0,0,1,1.41-.91c1.09-.42,2.27-.88,2.28,1.1,0,.38.1,1,.31,1.11,1.68.55,3.24,1,2,3.37-.16.3.63.17,1,.24a7.26,7.26,0,0,1,3.54,2.31c.38.37.91,1.75,1.79.46.63-.92,1.53-2,.34-3a2.16,2.16,0,0,1-.75-2.72,4.65,4.65,0,0,1,3.7,1.82c-.13-1.77-.35-2.85-1.71-3.31s-1.43.88-2,1.53C80.31,10.82,80.92,10.23,81.13,9.56ZM70.8-383.57c2.34-.84,2.88-2.18,1.82-4.5-.11-.51-1-1.5.09-1.39,1.51.15,1.58-1,2.29-1.6,1.84-1.63.63-2.39-.82-2.62-2-.34-4.05-1.2-6.16.42-1.08.82-3,1.06-3.39-1.39-.17-1.07-1.11-.76-1.27-.16-.51,2-2.23,1.27-3.39,1.81-1.67.78-3.45-.28-5.09.56a2.52,2.52,0,0,0-1.65,2.18c0,1.68-.61,1.52-1.76,1s-2,.14-1.35,1.14c1.25,1.82,0,2.95-.58,4.35-.27.62-1.5,1.38-.35,2s.85-.87,1.13-1.39c.9-1.63,1.58-3.44,4-3.19.67.07.76-.29.8-.85.18-2.22.52-2.57,1.93-1.26,1.7,1.59,2.35.07,3.48-.23-.25-.89-.86-.67-1.27-.83-.74-.31-1-.79-.58-1.49s1-.64,1.55,0c1.57,1.95,3.46,2,5.5.89.92-.52,2.08-.45,2.42.18,1.09,1.93,2.66,2.19,4.56,1.93C72.2-386.52,70.77-385.35,70.8-383.57ZM61.48-91.33c-.33.43-.89.78-.61,1.45.39.92,0,1.41-.89,1.52-1.18.16-1.19-.79-1.24-1.56a17.23,17.23,0,0,1,.08-1.87,1.16,1.16,0,0,0-1.59,1,19.46,19.46,0,0,1-2,5.59.83.83,0,0,0,.42,1.35c1.64.77.51,1.85.38,2.85-.09.75-3.18.51-.67,2.05-.19.24-.41.71-.57.69-2.83-.3-2.18,2.48-3.2,3.73-.75.93.48,1.72,1.31,1.64,1.64-.15,2.64.66,3.73,1.64a2.67,2.67,0,0,0,2.09,1c1.26-.17,1.73.41,1.72,1.64a1.34,1.34,0,0,0,1.2,1.32c1,.16,1-.85,1-1.31.3-2.32,2.65-3.6,2.93-5.93-1,0-1.48.91-2.13,1.51-.51-3.76.73-5.6,3.34-5.09-.16.34-.43.7,0,1a.59.59,0,0,0,.55-.16c.27-.48-.14-.65-.46-.85.45-.59,0-1.11-.25-1.53-.72-1-.25-1.59.7-1.64a1.18,1.18,0,0,0,1.07-1.84c-1.07-1.57.11-2,1.08-2.35,2.36-.75,2-2.65,1.89-4.31-.13-1.22-1-.93-1.69-.25a24.52,24.52,0,0,0-4.55,6.36c-.79-1-.24-1.78-.45-2.48-.1-.36.15-1-.3-1.06-2.85-.4-.86-1.73-.78-2.78.74.14.73.57.83,1s.06.88.61.88.65-.36.75-.79c.27-1.24.13-2.58.93-3.68-1.2-.53-.66-1.42-.1-1.78,1-.64,1.13-1.66,1.51-2.58s.66-2,1.1-2.91c.13-.28.64-.44,1-.53a2.41,2.41,0,0,0,2-2.41c-.16-2.58.66-4.94,1.08-7.39.1-.63.84-2-.5-2.21-1.15-.14-1.5,1.15-1.82,2.11-.11.33.6,1-.36,1-.72-.08-.75-.72-.49-1.32.06-.14.22-.24.27-.39.35-1,1.65-2.42.09-3.08-1-.44-2.08,1.06-2.41,2.13-1.27,4.11-3.55,7.87-4.24,12.18a8.53,8.53,0,0,1-3.31,5.39h-.17l.16,0C62.6-94,62.7-92.88,61.48-91.33Zm40.4,60.45c-.53-.57-.71-1.08-.37-1.69a2.14,2.14,0,0,0,.09-2.6c-.6-.92.83-2.25,3-3-.56-.86-2.18-1.64-.27-2.76.46-.27-.16-.76-.39-1.16-.87-1.51-2-3-1-4.93.16-.28.1-1,0-1.09-1.79-.76-2.23-2.71-3.49-3.94-.78-.76-2.46-1.79-1.28-3.52a1.44,1.44,0,0,0-.06-2c-.7-.83-1.21-1.7-.14-2.71.64-.6.17-1.15-.36-1.6a7,7,0,0,0-3-1.3,2.91,2.91,0,0,0-2.58.94c-.58.51.13,1.6.68,2.09,2,1.78.86,4.22,1.42,6.29.15.58-.58,1.78-1.12,1.64-2.45-.66-2.35,1-2.6,2.49-.12.76-.91.93-1.55.79-2-.43-1.87.52-1.19,1.78.5.94,0,1.49-.6,2.08-.41-.13-.61-.8-1.21-.49,1.15.85-1,1.89.06,2.58S86.33-44,87.12-44c.65.49,1,1,.4,1.81-1.16,1.59-1.25,3.49-1.43,5.35-.09.85,1.83,2.6-1,2.18-.31,0-.23.78.09,1,2.84,1.87-.34,2.84-.73,4.12-.46,1.51-1.35.49-2.14-.14-1-.77-1.33.13-1.29.85a2.36,2.36,0,0,0,.87,1.65c2.6,1.71,3,3.85,2,6.72-.4,1.08.43,2.4,1.41,3.79-1.94-.35-3-1.52-4.59-2.16,0,.87.81,1.25.6,2-.16.55,2.9,3.5,3.45,3.45a.75.75,0,0,0,.54-.38c.24-.87.55-2,1.61-1.64.88.28,0,1.58.4,2.15,1.14,1.43.42,2.5-.42,3.63-.35.46-.76.95-1.38.71s-.21-.78-.15-1.23c.23-1.56-1-2-2.25-2.73-.14,2-1.11,2.21-2.57,1.21-.38-.27-.87-.59-1.27-.06a.92.92,0,0,0,.11,1.29c.57.59.28,1.39.28,2,0,3.34,0,3.34,3.23,3.4a7.64,7.64,0,0,0,5.83-2.23c.94-.93.11-2.3.85-2.9,2.32-1.86,2-5.18,4.17-7.07,1-.87.09-1.4-.45-1.89s-1.18-1.62-.39-2c2.43-1.19,2.37-4.92,5.68-5.22,1.23-.12-.13-1.43.11-2.12,1.56,0,1,1.39,1.69,2.11.91-2.63,5-.34,5.43-3.8H106l-.18,0A3.11,3.11,0,0,1,101.88-30.88Zm31-290c.85.34.28.93,0,1.38a14.52,14.52,0,0,0-1.61,2.95c-.45,1.47-.92,2.74.42,4.14s.78,3.08.15,4.67c-.13.34-.46.78,0,1a.89.89,0,0,0,.85-.09c1-1.62,2.95-1.55,4.39-2.37,2.22-1.26,2.31-2.31.23-3.74-1.62-1.11-1.46-1.81.78-3.35,0-.53-.45-.58-.83-.69-1.42-.44-3.2-.65-1.52-2.83a1.35,1.35,0,0,0-.22-1.79c-1.72-1.15-2.94-3.61-6-2.31C131-323,131.44-321.45,132.89-320.88ZM46.82-37.74c.29-.13.68-.34.91-.24,2.54,1.16,3.88-.43,5.32-2.13.65-.76,1.63-1.63,1-2.39a4.6,4.6,0,0,0-3.18-1.43,5.2,5.2,0,0,1-2.48-.16c-.14-.06-.41-.16-.45-.11-1.37,1.79-3.39,1.28-5.29,1.62.77.48,1.56.92,2.3,1.44s2,.81,1.46,1.86-1.32-.47-2.26-.09C44.26-37.49,45.17-37,46.82-37.74Zm46.9-316.17c-.3,1,.19,1.44,1.1,1.21,1.73-.45,2.91.57,4.15,1.42.66.45,1.69.79.34,1.84-.94.73.26,1.36.64,2a1,1,0,0,0,1.45.27c.79-.45.61-.79.28-1.51a2.9,2.9,0,0,1-.05-2.29c1.36-2.4-1.17-4-1.16-6.05,0-.46-.78-.94-1.35-.71-1.37.53-2.64,1.4-4.24,1-.1,0-.3.33-.41.46C94.2-355.43,94-354.68,93.72-353.91ZM56-133.37c-.05-.64-.19-1.07-.77-1.32-1.39-.61-3,1.05-4.4-.44-.1-.11-.57.95-.53,1.61.14,2.69-.3,5.4.24,8.06C54.51-127,56.22-129.58,56-133.37Zm-1-4.83c1.92-2.64.44-5.32.56-8,0-.32-.18-.7-.05-.94s.54-.45.83-.67c-.1-.1-.19-.24-.31-.29-.44-.17-.94-.5-1.34-.42-.69.14-.63.84-.56,1.4.26,2-1.09,3.44-1.71,5.13-.41,1.12-.91,2.21-1.31,3.34a1.59,1.59,0,0,0,.32,1.71C52.68-136.07,54.08-137,55-138.2Zm103.37-91.67a6.82,6.82,0,0,1,1.32,4.24,6.54,6.54,0,0,0,1.4,3.6c.34.52.7,1.2,1.5.77a1.43,1.43,0,0,0,.66-2c-1.33-2.6-2-5.49-3.66-7.95-.38-.58-.77-1.39-1.51-.46A1.46,1.46,0,0,0,158.34-229.87Zm-63-142.46C94-372.42,92-370,92.48-369c1.13,2.48,3.46,1.93,6.09,2C97-368.89,98.66-372.11,95.34-372.33Zm-5,73.83a2.85,2.85,0,0,0,3.31-1.08c1-1.3.23-2.86-.09-4.31-1.5.6-3.34.7-4,2.88C87.47-299.73,89.57-298.9,90.38-298.5Zm30.54-17.67c-1.59-1.51-3,.22-4.46,0-.5-.07-.12,1.42.11,2.11s.73.4,1.09-.06c.89-1.16,1.72-.86,2.57.09,1.18,1.34,2.92.85,4.26.78s0-1.93.9-2.74C123.77-315,122.12-315,120.92-316.17ZM118.09-87.81c1-.11,2.14-.72,2-1.94s-1.36-1.43-2.44-1.31c-.78.08-1.53.38-2.3.53-.61.12-1.48,0-1.54.75s.79.88,1.33,1.2A4,4,0,0,0,118.09-87.81Zm-3.06-86c.7.17,1.21.38,1.58-.37s0-1.36-.68-1.79a6.43,6.43,0,0,0-2.72-.78c-.39-.05-.79,0-1.18,0-.93-.08-1.87-1.86-2.56-.62-.55,1,1.44,1.1,2,2A15.11,15.11,0,0,0,115-173.84ZM110.11-36.26c-1.68.71-1,2.3-1.13,3.55,0,.41.77.63.72.42-.46-2.21,1.82-2,2.67-2.61,1.46-1.09.93-1.5.08-2.32-.38-.36-.73-.76-1.28-1.35C111.12-37.48,111.08-36.68,110.11-36.26Zm46.2-230.46c-1.38,1.74-1.22,5.35.45,7.8A7.44,7.44,0,0,0,156.31-266.72Zm-26.19,64.63c-3.18-1.23-6.48-.42-9.72-.48A18.76,18.76,0,0,0,130.12-202.09Zm-70.38-10.1c-.16-1.36-2.07-1.58-3-1.17-2,.86.56,2.42-.88,4.1C57.76-210.38,60-210.1,59.74-212.19Zm87.19,37.5A10.93,10.93,0,0,1,143-171.2c-.3.15-.55.38-.37.74a.83.83,0,0,0,1,.4,3.22,3.22,0,0,0,2.38-1.41,9,9,0,0,1,3.59-3.57C148.52-175.51,147.56-175.58,146.93-174.69ZM52.6-121.12c.57.57,1.29-.17,1.35-.78.11-1.24,1.89-2.4.52-3.61-.81-.71-1.74.17-2.36.83A3.25,3.25,0,0,0,52.6-121.12Zm54.22,99.8c-.31,1.12.93,1.23.51,2-.28.49-1.6.81-.47,1.52a2,2,0,0,0,2.41-.17c.56-.49,1.48-.58,1.84-1.69C109.6-20.12,107.91-19.56,106.82-21.32ZM91.68-4.58c-.29.47-1.34.64-.72,1.48a1.59,1.59,0,0,0,1.48.66c.82-.1,1.19-.76,1.46-1.43.35-.88-.61-1.64-.15-2.67A3.67,3.67,0,0,0,91.68-4.58Zm13-92.88c-.77-3.11-2.29-3.79-5.27-2.33C101.4-99.64,102.91-98.41,104.66-97.46ZM83.53-368c0-.4.14-.81-.33-1a1.48,1.48,0,0,0-.65,0c0,1.84-3.3,2.46-1.68,4.83C81.87-365.26,83.74-365.85,83.53-368Zm5,28c.15.31,0,.91.52.87a.61.61,0,0,0,.47-.91c-.8-1.83,2.07-2,1.52-4C89.85-342.78,87.22-342.67,88.56-340ZM50.18-54.44a1,1,0,0,0,.42-1.44c-.75-.95-.62.54-1.1.49-1.73-.16-1.92,1.66-3,2.42C48-52.9,49-53.83,50.18-54.44Zm54,35.09a.75.75,0,0,0,1.27-.48c.06-.91.88-2-.06-2.72a1.15,1.15,0,0,0-1.87.55C103.46-21.15,103.28-20.08,104.22-19.35ZM66.38-117c0-.58,0-1.4-.65-1.32-1.56.21-1,1.92-2.13,3C65.41-115.25,66.41-115.42,66.38-117Zm-8,62.45a.56.56,0,0,0,.19,1c.43.15.74-.14.89-.56.42-1.19.86-2.37,1.49-4.1C59.35-57,59.41-55.43,58.34-54.54ZM67-377.88c-.25.49-1.16,1.07-.33,1.59.61.38,1.13-.37,1.52-.89a2.12,2.12,0,0,0,.2-2.72A19.21,19.21,0,0,0,67-377.88ZM62.74-4.16C62.9-5.1,63.8-6,62.83-7c-.1-.1-.75.09-.8.26-.36,1.06-1.1,2.2.33,3.15C62.49-3.78,62.71-3.95,62.74-4.16Zm54.87-98.58c-.55.43-.25,1,.28,1,.69,0,1.56.91,2.09-.18a1.59,1.59,0,0,0-.38-1.78C118.62-104,118.18-103.19,117.61-102.74ZM57.16-157.46a.8.8,0,0,0-.62.11c-.33.3-.39.85,0,1,1,.53.88,1.62,1.37,2.56C59.33-155.47,57.68-156.36,57.16-157.46ZM88-65.72C86-66.21,86-66.21,86.11-63A6.45,6.45,0,0,1,88-65.72Zm.24-306.87c.4.33.84-.12,1.06-.57s.86-.94.25-1.45-1.06-.19-1.51.26A1.47,1.47,0,0,0,88.25-372.59Zm-7.9-2.2c-.43-.33-.76-1.37-1.42-.42-.47.67.31,1,.79,1.17.78.32,1.4,1.07,2.71.88ZM60.56-109.51c-.28.51-.55,1.17.14,1.44,1.1.44,1.39-.82,2.09-1.25.52-.33.21-.84-.34-1.14C61.53-110.8,61-110.27,60.56-109.51ZM82-125.23a.52.52,0,0,0,.95-.06c.51-1.12-.77-1.36-1.13-2.07a.6.6,0,0,0-1,0C80.78-126.42,81.64-125.94,82-125.23ZM39.58-131c-1.54,0-1.94.91-1.73,2.2ZM91.87-345.17a.65.65,0,0,0-.45-.93,1,1,0,0,0-.84.16c-.38.39-.08.7.29.93S91.65-344.72,91.87-345.17ZM48.47-80.28c0,.07.31.39.41.37a1.08,1.08,0,0,0,.81-1.18A1.06,1.06,0,0,0,48.47-80.28Z" fill="#9bb0aa"/>
        <path d="M57.92,5c-1.68-.68-1.82,1.19-2.78,1.7C54.09,6,53,5.27,52,4.59c.63-1.37,1.1-3,3.16-1.57A1.09,1.09,0,0,0,56,3C56.37,1.21,58.09,1,59.19.14c.55-.45.85-1.84,1.7-1.1S61.56.91,61,2a9.59,9.59,0,0,1-3.09,3ZM56.7,3.25c0,.07.08.22.13.33.12-.07.28-.13.33-.23s-.06-.23-.1-.36C56.92,3.08,56.76,3.14,56.7,3.25Z" fill="#1c2d28"/>
        <path d="M66.62,13.75c.27-1.57-1.9-4.68-3.44-4.84a2.87,2.87,0,0,1-1.46-.74c-1.4-1-2.19-.63-2.47,1Z" fill="#1c2d28"/>
        <path d="M48.55,2.47C49.07,1.36,50.39.3,49-1,47.45-2.5,47-2.31,45.53.47A9.42,9.42,0,0,0,48.55,2.47Z" fill="#1c2d28"/>
        <path d="M58.42,8.66c1.38-.69,1.43-1.8,1.13-3.14S58.42,5.17,57.87,5l.05,0L56.45,7.4Z" fill="#1c2d28"/>
        <path d="M71.53,16.73c-.26-2.18-2.47-2.44-3.72-3.65-.21-.2-.66.48-.76.95Z" fill="#1c2d28"/>
        <path d="M85.06,25.09a22,22,0,0,0-1.37-2.17c-.62-.78-1.28-.87-1.73.23Z" fill="#1c2d28"/>
        <path d="M56.45,7.4,57.92,5c-1.68-.68-1.82,1.19-2.78,1.7Z" fill="#9bb0aa"/>
        <path d="M81.16,11.44c-.85-.62-.24-1.21,0-1.88.69-2.14-.19-3.09-2.37-2.93a2.38,2.38,0,0,1-2.62-1.19c-.43-1-1.36-1.26-2.11-1.8-1,.54.06,1.92-1.07,2.21s-1.58-.61-2.33-1c-1-.51-1.95-1.1-2.95-1.59-.29-.14-.63-.55-1.15,0,1,1,2.22,1.65,2.56,3.35.2,1,1,1.55-.44,2-.4.13-.4.45-.22.76s.52.28.81.08a8.9,8.9,0,0,1,1.41-.91c1.09-.42,2.27-.88,2.28,1.1,0,.38.1,1,.31,1.11,1.68.55,3.24,1,2,3.37-.16.3.63.17,1,.24a7.26,7.26,0,0,1,3.54,2.31c.38.37.91,1.75,1.79.46.63-.92,1.53-2,.34-3a2.16,2.16,0,0,1-.75-2.72Z" fill="#fefefe"/>
        <path d="M101.08,14.13c-.59-.22-1.51-1.14-1.73-.22-.48,2.06-3.56,1.9-3.37,4.26.06.75.71,1.51,1.47,1.15,1-.47,2.56-.52,2.51-2.14,0-1.22-.07-2.35,1.12-3.08Z" fill="#fefefe"/>
        <path d="M81.15,11.4a4.65,4.65,0,0,1,3.7,1.82c-.13-1.77-.35-2.85-1.71-3.31s-1.43.88-2,1.53Z" fill="#fefefe"/>
        <path d="M57.06,3c-.14.09-.3.15-.36.26s.08.22.13.33c.12-.07.28-.13.33-.23S57.1,3.12,57.06,3Z" fill="#9bb0aa"/>
      </g>
    </g>
  </g>
</svg>
