<svg id="fd47b2e1-b887-417b-952c-1fd0e681ca4c" data-name="Layer 1" xmlns="http://www.w3.org/2000/svg" xmlns:xlink="http://www.w3.org/1999/xlink" width="1344.293" height="194.648" viewBox="0 0 1344.293 194.648">
  <defs>
    <clipPath id="f5c6e6b2-34b2-4762-a35c-df4a1c1e8ce6">
      <rect x="9.537" y="46.479" width="151.783" height="127.183" style="fill: none"/>
    </clipPath>
    <clipPath id="b9f50c44-371b-4792-b5c9-ef7dcd60df8f">
      <rect x="-14.436" y="48.358" width="181.22" height="181.22" transform="translate(67.697 297.217) rotate(-148.205)" style="fill: none"/>
    </clipPath>
    <clipPath id="f68cf431-604d-4136-ae08-8a37da0a0eeb">
      <rect x="1188.582" y="104.462" width="153.087" height="90.186" style="fill: none"/>
    </clipPath>
  </defs>
  <title>banner-1</title>
  <g style="clip-path: url(#f5c6e6b2-34b2-4762-a35c-df4a1c1e8ce6)">
    <g style="clip-path: url(#b9f50c44-371b-4792-b5c9-ef7dcd60df8f)">
      <g>
        <path d="M120.278,109.878a45.386,45.386,0,0,0-3.892-4.406,17.1,17.1,0,0,0-3.037-2.4c-.916-.568-2.726-3.653-2.726-3.653a5.95,5.95,0,0,0-4.213-2.639c-2.931-.394-4.083,7.984-4.083,7.984s1.533,19.582,1.929,19.833,17.7,6.974,17.7,6.974l5.923-7.443,1.154-4.979-1.5-2.078-6.866-4.257Z" style="fill: #fefefe"/>
        <path d="M163.293,195.126c.055-.133-.092-.5-.172-.513-.558-.057-.665.486-.95.8a1.755,1.755,0,0,1-.994-2.3c.558-2.282,1.415-4.219,3.824-5.043l.012,0a1.479,1.479,0,0,1,.863,1.079c1.071,6.1,2.481,12.149,1.762,18.44a44.4,44.4,0,0,0-.161,8.88,21.21,21.21,0,0,1-.371,7.411c-.843,3.074-2.415,5.966-3.084,9.064-.63,2.915-1.923,5.832-1.569,8.831.5,4.27,1.712,8.443.15,12.77a12.147,12.147,0,0,0-.385,4.533,27.389,27.389,0,0,1-.71,8.064,31.876,31.876,0,0,0-.985,9.514,47.141,47.141,0,0,1-7.962,28.659c-3.043,4.669-6.9,8.68-10.434,12.949a4.717,4.717,0,0,0-3.96-2.947c-1.572-.228-2.509-1.172-3.7-1.855a6.258,6.258,0,0,0-2.935-1c-2.646-.2-5.866.07-7.508-3.136-.511-1-1.835-.987-2.858-.662a2.875,2.875,0,0,1-3.037-.612,6.107,6.107,0,0,0-4.166-.933c-1.792.061-3.75-1.569-5.433-2.75-1.037-.728-2.312-1.563-2.3-3.175-1.69.025-1.487-3.364-3.854-2.134-.3.155-.827.089-.617-.289.78-1.4-2.384-2.02-.662-3.454.907-.755,1.038-1.283.742-2.569-.323-1.4,1.023-2.047,2.687-2.007,2.879.07,5.751-.056,8.483,1.276l.351-.569a34.49,34.49,0,0,0-3.963-4.737c-1-.855-2.408,0-3.609.54-1.281.58-2.925,1.5-2.855-1.249.006-.219-.117-.609-.248-.641-3.232-.778-2.847-5.108-6.061-6.058a4.173,4.173,0,0,1-2.771-3.278c-.069-.358-.649-.7-.6-.983.413-2.638-3.837.829-3.037-2.376.5-2-2.126-2.373-2.4-4.047-.317-1.907-2.371-2.237-3.32-3.613a3.043,3.043,0,0,0-2.316-1.154,10.59,10.59,0,0,1-8.221-4.452c-1.743-2.353-4.556-2.5-6.867-3.674a.583.583,0,0,0-.916.416c-.32,1.262-1.022.715-1.6.3a1.813,1.813,0,0,0-2.029-.053c-.7.324-1.937.03-2.054.913-.157,1.191,1.21.929,1.9,1.352,1.773,1.094,2.4,3.111,3.326,4.8a11.656,11.656,0,0,1,1,7.828c-.2,1.12-.262,1.494-1.569,1.257-2.276-.413-3.083.493-2.731,2.829.9,5.96,2.547,11.785,2.875,17.857.277,5.131.131,10.194-3.051,14.4-3.479,4.6-4.139,9.873-4.763,15.257-.227,1.958.066,4.047-2.374,5.163-.6.274-1.066,2.291-.673,2.987.905,1.6.161,3.047.33,4.666,1.24-1.867,3.826-2.46,3.949-5.433.068-1.633,1.922-2.841,3.431-3.778a.865.865,0,0,1,1.415.7c.194,2.048,1.127.977,1.768.41a15.539,15.539,0,0,1,5.494-3.327c1.864-.606,1.747-2.486,2.231-3.949.055-.163-.122-.473-.278-.626-1.23-1.2-1.217-1.738.643-2.265,1.627-.461,1.746-1.088.834-2.46,1.6,1.288,3.119-.258,4.566.279-2.471.892-2.452,3.515-3.72,5.156a14.608,14.608,0,0,0-2.125,4.122c-.675,1.821.186,4.864,1.764,5.847.622.387,1.224.953,2.06.017,1.1-1.228.889-3.647,3.293-3.689a3.009,3.009,0,0,0-1.02-2.554c-1.845-1.356-1.8-2.7-.295-4.347,2.325-2.547,2.267-3.2-.013-4.54,1.994-.327,3.5,1.21,5.362,1.433.425.051.469.8.43,1.278s-.325.33-.669.252c-2.254-.51-1.857.843-1.148,1.919a3.825,3.825,0,0,1,.829,3.538c-.434,1.676,1.451,2.887,2.259,4.327.364.649.962.06,1.23-.5s-.163-1.121-.11-1.618c.105-.978.292-2.215,1.245-2.6,1.071-.426.994.972,1.487,1.5.525.567.952,1.225,1.748,2.271-.591-3.349-1.182-6-4.452-6.947a.861.861,0,0,1-.241-1.561c2.449-1.7,1.145-2.661-.6-3.621-.158-.088-.21-.368-.375-.676,1.093-.524,1.712.329,2.42.67,1.734.838,3.406,1.806,5.15,2.621s2.155,1.843.741,3.307c-.312.323-.967.532-.454,1.089a2.792,2.792,0,0,0,1.381.895c.64.117.637-.591.73-1.028a61.7,61.7,0,0,0,.582-6.649c.1-.95-1.945-2.312-3.078-3.387C91.25,309.9,89.561,307.752,87,306.4c-1.917-1.01-3.958-2.318-4.86-4.652-.237-.614-.93-1.05-1.768-1.946a20.552,20.552,0,0,1,6.657,3.415c7.98,5.253,16.227,10.131,23.719,16.088,4.014,3.192,8.845,5.14,12.605,8.785,1.111,1.077,3.449,1.512,5.407,1.613,2.478.127,3.758-1.271,4.512-3.4a17.479,17.479,0,0,0,1.273,1.387c3.668,3.255,6.822,6.782,7.329,12.007.134,1.387.876,2.7,1.192,4.085.451,1.972,1.574,3.893.629,6.016h0c-.788-.433-.811-2-2.41-1.435,1.1,1.5-.3,2.865-.358,4.389-.055,1.4.886,3.14-.509,4.5-.395.386.248.875.538,1.2,1.588,1.806,1.079,3.76.1,5.466-1.2,2.083-2.08,4.326-3.314,6.369-2.949,4.885-6.006,9.707-9.07,14.523a10.023,10.023,0,0,0-1.7,4.678,14.568,14.568,0,0,1-2.216,6.281,50.17,50.17,0,0,0-5.718,16.4c-.8,4.483-.893,9.1-2.575,13.416-.294-.241-.616-.714-.877-.683-1.5.183-3.982,4.45-3.666,6.191a15.709,15.709,0,0,1-4.1,4.944c-.772-.534-1.8.84-2.488-.334-.173.436-.358.868-.518,1.308-.4,1.107.53,1.318,1.17,1.723-.947,1.438-2.536,2.555-2.644,4.415a39.022,39.022,0,0,1-1.222,5.58c-.707,3.468-2.078,6.911-.746,10.586a3.313,3.313,0,0,1-.29,3.231c-.587-.222-1.515-1.145-1.73-.218-.478,2.06-3.561,1.894-3.37,4.256.061.75.707,1.515,1.472,1.149.977-.466,2.556-.52,2.5-2.142-.039-1.218-.068-2.342,1.12-3.074a7.943,7.943,0,0,1,1.09,7.6c-1.106,3.139-2.862,6.118-3.066,9.534-.131,2.2-1.055,2.182-2.585,1.194-3.811-2.46-7.637-4.9-11.457-7.343a22.072,22.072,0,0,0-1.366-2.165c-.624-.785-1.286-.87-1.73.225a119.112,119.112,0,0,1-10.433-6.419c-.263-2.186-2.471-2.441-3.715-3.649-.213-.206-.66.48-.762.946l-.43-.281c.266-1.565-1.9-4.682-3.445-4.833a2.884,2.884,0,0,1-1.453-.74c-1.4-1.015-2.191-.639-2.472,1.018l-.834-.532c1.378-.686,1.435-1.8,1.129-3.135-.284-1.233-1.126-.359-1.673-.559a9.52,9.52,0,0,0,3.084-2.957c.6-1.1.7-2.3-.07-2.969-.849-.739-1.151.647-1.7,1.095-1.095.892-2.815,1.073-3.188,2.815a1.073,1.073,0,0,1-.854.069c-2.06-1.457-2.531.2-3.16,1.568l-3.432-2.114c.516-1.118,1.837-2.169.456-3.488-1.559-1.489-1.971-1.294-3.482,1.486-2.279-.792-3.609-3.12-6.012-3.71,1.514-1.351.942-2.557-.368-3.754l-1.979,2.433c-2.053-.891-1.684-2.291-.666-3.676.888-1.21.7-1.967-.629-2.6a13.843,13.843,0,0,1-5.326-4.353c-1.2-1.67-3.67-1.5-4.593-3.444.284-.355.387-1.4,1.052-.256.512.877,1.241.7,1.8.15,1-1-.178-1.693-.475-2.508-.356-.979-.994-.378-1.251-.068-.55.663-1.437,1.049-1.671,1.971a1.787,1.787,0,0,1-1.448-.984c2.6-1.409.352-3.3.778-5.423a9.743,9.743,0,0,0-3.273,3.482c-3.2-.23-4.171-3.233-6.169-4.957,2.651-.781,1.621-2.691,1.3-4.347-.122-.624-.8-.565-1.189-.482-1.522.328-2.573-.5-3.646-1.317-2.494-1.908-2.493-1.91-3.3,1.15a3,3,0,0,1-.85-.354c-3.514-3.01-3.52-3.02-5.867.733a12.8,12.8,0,0,0-1.356,2.535c-.413,1.206-1.075,1.282-2,.705q-12.06-7.5-24.111-15.024c-.643-3.142-.344-3.421,2.768-2.405,1.372.448,2.69,1.059,4.053,1.535,1.3.454,2.437,1.189,3.943-.1,1.242-1.066,3.864.245,4.364,2.032.275.981.648,1.593,1.592,1.845a38.2,38.2,0,0,1,8.028,2.778,27.406,27.406,0,0,1-.8-5.862c6.5-1.237,12.971-2.172,18.908-5.339.533.732-.775,1.468.067,1.926.693.377,1.11-.389,1.644-.691,2.731-1.54,4.7-4.14,7.892-5.175a18.157,18.157,0,0,1,3.067-.542c3.36-.5,6.81-1.76,10.141.2-.49,1.389-1.583.624-2.421.632-.656.006-1.359-.2-1.426.745-.052.735.446.981,1.108,1.288a7.5,7.5,0,0,0,6.362.4c.582-.243,1.83.691,1.709-.7a1.758,1.758,0,0,0-2.3-1.475,2.545,2.545,0,0,1-2.922-.912c.568-1.086,1.676-1.106,2.667-1.311a3.588,3.588,0,0,0,2.138-.968c.761-.848,1.664-7.248,1.149-8.225a2.081,2.081,0,0,0-.239-.383c-2.191,1.033-1.878-1.72-3.13-2.064-1.8-.494-1.588-2.422-2.547-3.518a.759.759,0,0,1,.274-1.058c.5-.306.867-.041,1.164.428.773,1.222,1.76,1.95,3.036,1.151,1.154.859-1.638,1.7.244,2.263.571.17,1.3,1.367,2.021.229.558-.876,1.2-1.836-.1-2.678l.013.051c.387-.416.468-1.39,1.368-.905.665.359,1.231,1.029.807,1.787-1.2,2.136.733,4.363-.311,6.516a1.146,1.146,0,0,0,.991,1.609c1.062.168,1.137-.761,1.211-1.417.4-3.519,1.025-7.1-1.991-9.952-.758-.715-.146-1.88-.847-2.66-.274-.305-.46-.732-.9-.547a1.022,1.022,0,0,0-.382.8c-.011.858.318,2.335-.32,2.405a5.506,5.506,0,0,1-3.835-.839c-1.021-.87-1.7-.579-2.753-.26,1.808-1.289.644-4.526,3.583-4.89.3-.037.4-.508.223-.817a.74.74,0,0,0-1.2-.257c-.721.521-1.282,1.638-2.394.614-.948-.871-.575-1.785-.3-2.852.284-1.084-.445-2.452,1.836-2.066.883.15,1.583-1.694,1.725-2.9.423-3.591,2.449-6.777,2.569-10.434.013-.413.1-.862.641-.8s.54.545.463.938c-.568,2.914.942,6.253-2,8.7-1.312,1.091.159,2.971-.728,4.318,1.654-.389,2.2,1.277,3.349,1.793a.484.484,0,0,0,.636-.664c-1.234-2.078,1.739-3.116,1.2-5.022-.071-.249.391-.47.745-.374a.548.548,0,0,1,.376.757c-.276.836-.6,1.657-.927,2.473-.208.515-.618,1.076.073,1.466a1.268,1.268,0,0,0,1.554-.308,6.821,6.821,0,0,0,1.332-2.245c.478-1.567.876-3.108,2.607-3.784.548-.214.53-.684.59-1.184.42-3.513.955-7.085,2.688-10.15.892-1.579.489-3.268,1.334-4.709a.671.671,0,0,0-.307-1.007c-.464-.239-.718.092-.993.4-.891.991-.892,2.389-1.6,3.459-.319.482-.734.972-1.367.667a.836.836,0,0,1-.191-1.42c1.048-.892,1.7-1.647,1.159-3.248-.346-1.019,1.229-2.058.709-3.508-2.009.249-2.129,2.021-2.663,3.4-.55,1.424-.506,1.441-2.335,1.615-.307-.88.817-.83.94-1.451A1.835,1.835,0,0,0,52.508,340c-.8-.578-1.085.273-1.443.755-.551.742-1.076,1.5-1.565,2.192-1.661-1.971-.136-3.454.553-5.247a10.637,10.637,0,0,0,.359-5.251c-.217-1.38-2.985-1.415-4.323-.094a4.362,4.362,0,0,0-1.552,2.248c-.993-.444-.47-.878-.309-1.255.187-.438.7-1.141.6-1.237-2.562-2.458.8-5.46-.718-7.866a2.357,2.357,0,0,1,.249-3.206c.088-.107.139-.413.1-.439-2.947-1.763.559-4.623-1.1-6.668-.189-.234-.2-1.56.753-1.771.672-.149.917.5,1.106,1.044.368,1.051,1.151.667,1.8.467.941-.289,2.7-4.3,2.119-5.071-1.691-2.258-1.436-4.748-1.7-7.349-.2-1.923,1.04-4.467-1.079-6.131l.016.056c-.236-1.629.345-3.32-.347-4.905-.139-.318-.313-.662-.052-.862,2.491-1.906.824-4.484,1.149-6.915l-1.993,1.079c.758-1.842,2.012-3.257,1.336-5.024-2.278,1.173-3.172,3.92-3.522,6.417-.43,3.074.346,6.086-.413,9.242-.591,2.461-1.318,5.509-.679,7.855.559,2.052-.406,4.51,1.529,6.325.821.769.374,2.15-.572,2.969-.507.438-1.187.986-1.085,1.511.566,2.906-1.4,5.452-1.062,8.282.112.933-.743,1.288-.948,2.092-1.025,4.019-.766,8.256-2.135,12.2-.557,1.607,1.331,2.073,1.5,3.634.253,2.283-.888,2.094-1.981,1.794-.91-.25-1.482-.427-1.949.36-.057-1.26,2.1-1.519,1.566-3.019-.213-.6-.984-.044-1.675.152.584-1.578,1.858-2.483,1.926-4.061.045-1.049.329-1.84-.4-2.961-.631-.972-.019-2.573.528-3.845.4-.921,1.315-2.132-.813-2.311-.714-.06-.9-.621-.681-1.452a14.761,14.761,0,0,0,.727-5.574c-.491-2.909-.143-5.869-.891-8.722a2.639,2.639,0,0,1,1.669-3.442,2.3,2.3,0,0,0,1.73-2.608,3.147,3.147,0,0,0-2.88,1.21c-.261.319-.622.613-1.032.353-.547-.348-.275-.822-.062-1.261.243-.5.471-1.015.7-1.523,1.066-2.311,1.066-2.311-.212-4.309-.866-.064-.721,1.695-1.639,1.142-1.075-.648.2-1.355.222-2.039.049-1.226.343-2,1.708-2.306.682-.153.852-1.086,1.017-1.81-.7-.551-1.382.411-2.054.021-.761-.442-1.633-.761-.846-1.983.719-1.116,2.323-2.7.5-3.625-1.742-.88-1.993,1.529-2.848,2.546-.139.165-.2.393-.419.546,1.26-2.474,2.59-4.916,2.914-7.736a1.155,1.155,0,0,1,.531-.732c3-1.722,3.589-4.171,1.506-6.738-.518-.638-.615-1.244-.032-1.655a1.949,1.949,0,0,0,.563-2.915c-1-1.25-1.6.765-2.611.743-.426-.86.293-1.305.625-1.871.37-.631.929-1.457.249-1.965-2.4-1.788-1.482-4.365-1.729-6.636-.34-3.134-.586-6.284-.7-9.433-.066-1.75,1.254-3.062,1.926-4.582.408-.921,1.894-1.959.771-2.811-1.325-1-3.009-.148-4.372.586-.481.259-.688,1.027-1.237,1.544-.045-1.761-3.256-2.339-.8-4.963-1.865.317-1.977,3.01-3.586,1.485-1.415-1.342-2.469-2.993-2.016-5.079.689-3.175,1.424-6.334.912-9.815-.613.988-1.165,2.02-1.852,2.953-1.052,1.431-2.973,1.549-3.692-.042-1.19-2.631-2.592-1.673-4.385-.514a4.509,4.509,0,0,1,1.758-3.621c1.46-.864,1.783-2.5,3.013-3.444.637-.491.533-1.95,1.692-1.72,1.245.248.549,1.618.989,2.593a3.765,3.765,0,0,0,1.4-4.024c-.168-.844-.234-1.741.539-2.18.98-.557,1.511.592,2.246.954.663.327,1.572.6,1.207,1.744-.318.992-.553,2.01-.822,3.016-.339,1.273.273,1.588,1.234.982,1.223-.772,2.988-1.052,3.149-2.978a.745.745,0,0,1,.992-.745c3.518,1.019,7.165-.689,10.674.535,1.051.367,2.148.6,3.223.9-.188.811.069,1.146.958,1.062.482-.045,1,.268.84.859-.165.613-.668.447-1.16.305a4.189,4.189,0,0,0-5.175,1.946l-.3.059c.047.017.106.061.139.046a.659.659,0,0,0,.156-.131c1.3,1.069,2.785,1.693,4.4,1.007,2.631-1.119,5.245.93,7.995-.266-1.024-.95-.864-1.852.373-2.541.395-.757,1.287.127,1.715-.52l5.957,1.978a2.251,2.251,0,0,1-2.88.565c-.711-.273-1.7-.918-2.362.175-.309.509-1.394.608-.982,1.425.322.638.7,1.4,1.837,1.087a1.638,1.638,0,0,1,2.262,1.189c.248.967.617,1.882-.824,2.257-.581.151-.6.7-.341,1.185a1.213,1.213,0,0,0,1.223.588c.806-.009,1.27-.6,1.863-.993a1.242,1.242,0,0,1,1.561.182c.506.429.2.741-.112,1.186-2,2.842-1.969,3.053.447,6.149.27-2.289,2.81-2.4,3.57-4.244a1.452,1.452,0,0,1,1.693-.524c.65.4.306,1.229.016,1.73-.664,1.145-1.371,2.419-2.915,2.45-.853.017-1.11.5-1.377,1.079A.77.77,0,0,0,64.2,242.5c.63.434.974.012,1.426-.378.838-.724,1.23-.482,1.3.647.17,2.623,1.789,4.025,4.3,3.8.4-.036.908-.279,1.12.088,1.427,2.475,3.108.208,4.629.2.962-.007.717-.924.03-1.3-2.143-1.16-3.81-3.19-6.443-3.472-.775-.083-2.059-3.11-1.493-3.567,1.287-1.041.78-1.756-.061-2.733-.672-.781-1.253-2.009-.382-2.806.7-.639,2.033-.192,2.811.226a7.01,7.01,0,0,1,2.3,1.595,1.617,1.617,0,0,0,2.552-.119c.79-1.053-.554-1.18-1.056-1.678a2.22,2.22,0,0,0-2.415-.853,2.371,2.371,0,0,1-2.928-1.465c-.618-1.636-2.413-1.306-3.713-1.729-.829-.269-1.8-.134-1.895-1.422a8.093,8.093,0,0,1,4.046,1.3c2.027,1.305,4.413,1.261,6.581,2,.7.241,1.171-.325,1.771-.419-.122,1.223.9,1.169,1.6,1.342,7.124,1.743,12.972,5.827,18.84,9.976,3.92,2.772,8.144,5.114,12.106,7.57.022-.13-.438-.992.2-1.279,2.592-1.169.721-2.121-.514-3.41,3.819-.1,7.045,1.081,10.588,1.486-.728-1.577-2.061-1.112-3.008-1.484-.706-.278-1.805-.128-1.623-1.307a1.564,1.564,0,0,1,1.89-1.145c2.482.5,4.224-1.194,6.3-1.878.963-.318.965-.759.271-1.556-1.29-1.482-3.753-2.056-3.634-4.7.022-.485-.8-.367-1.248-.221a13.954,13.954,0,0,1-2.024.742c-.863.135-2.005,1.068-2.573-.181-.45-.992-1.315-2.117-.327-3.361a6.775,6.775,0,0,0,1.128-2.223c-2.319,2.705-5.049,2.853-8.112,1.808-.7-.238-1.618.242-2.361.07-.938-.217-2.377-.51-.805-1.932,1.338-1.21.174-2.587.023-3.79-.336-2.693,1.64-4.461,2.333-6.719.331-1.076,4.905.738,5.785,1.486,1.817,1.543,1.993,3.739,3.034,5.443,1.127,1.845,4.287,2.049,6.135,3.744.176.162.822-.007,1.134-.2,1.8-1.137,3.558-2.326,5.326-3.507.31-.207.818-.381.541-.885a.99.99,0,0,0-1.041-.451c-2.907.369-4.132-2.186-6.06-3.513a.938.938,0,0,1-.319-1.278c.723-1.418-.544-1.4-1.141-1.238-1.336.37-2.508-.189-3.753-.288-2.286-.183-3.121-1.49-3.327-3.638-.122-1.27.372-3.027-1.922-3.29-.8-.091-.411-1.241-.3-1.917.08-.484.372-.99.977-.768,1.046.384,1.7,2.452,3.357.511.242-.283,2.793,1.292,3.356,2.937,1.048,3.059,5.258,4.912,8.016,3.489,1.074-.554.609-1.57.8-2.354.195-.8.366-1.173,1.3-1.269,1.119-.114.858.595,1.009,1.16a3.187,3.187,0,0,0,3.229,2.605c2.681.226,5.3,1.478,8.043.526a49.386,49.386,0,0,0,9.244-3.792c-.409-1.059-1-.615-1.513-.6-1.427.027-2.941.418-2.615-2.117.183-1.414-1.077-1.832-2.367-1.026a3.29,3.29,0,0,1-4.708-1.172c-3.078-4.652-6.3-9.207-8.713-14.269a13.15,13.15,0,0,1-1.078-4.974c-.114-1.99,1.891-2.81,3.919-1.684,1.889,1.048,3.989.866,5.971,1.335.722.171.967-.41,1.3-.845.671.053,1.343.535,2.036.012-.988-.754-.988-.754-2.025.031-1.677.015-1.89-1.2-1.774-2.391.1-1.032.033-1.937-1.107-1.94-1.478,0-.706,1.042-.559,1.737a1.333,1.333,0,0,1-.915,1.715c-.854.216-.912-.543-1.3-1.181-1-1.655-.64-3.928-2.778-5.163a2.192,2.192,0,0,0-2.534-.057c.607-2.233,1.427-3.513,3.6-4.015,1.673-.386,1.114,1.292,2.023,1.5.922-1.122,1.831-2.271,2.789-3.378.442-.51,1.393-.867.525-1.689a2.285,2.285,0,0,0-2.36-.859c-3.335.573-4.955,3.074-6.942,5.191-1.07,1.14-2,1.714-3.289.433-.306-.305-.655-.519-1.032-.17a1,1,0,0,0-.184.589c.757.349,1.064.822.275,1.393-.634.458-1.329,1.254-2.108.973-1.251-.451-2.343-1.045-2.3-2.88A2.871,2.871,0,0,0,116.985,173a5.872,5.872,0,0,1-2.415-1.026,3.519,3.519,0,0,0-4.02.175c-.555.342-.827,1.055-1.455.183a1.214,1.214,0,0,1,.177-1.849,21.561,21.561,0,0,0,3.79-4.61,3.582,3.582,0,0,0-.83-4.947c-.992-.894-.114-1.755.21-2.607l.4-.014c-.159-.363-.281-.22-.395.029-2.866-.705-1.952-2.432-1.067-4.047-.652-1.215-1.905,2.2-2.388-.427-.053-.287-.511.348-.767.582-2.193,2-2.639,4.718-2.926,7.438-.148,1.406-.605,1.51-1.856,1.191-1.324-.336-2.686-1.539-4.143.058-.157-1.295.662-1.859,1-2.628.183-.417.683-.8.317-1.292-.346-.464-.968-.307-1.336-.132-1.662.79-3.7.482-5.165,1.93a2.445,2.445,0,0,1-2.879.567c-1.051-.556-.514-1.569-.43-2.4.121-1.184.112-2.435,1.26-3.242.938-.659.384-1.627.429-2.456a.842.842,0,0,0-.836-.978c-.572-.007-.833.393-.952.906-.158.675.08,1.463-.726,2.175-.655-1.178-2.3-1.058-2.879-2.025-.681-1.146,1.668-1.617,1.143-3.3-.852,1.1-2.524.955-2.719,2.693a.664.664,0,0,1-1.247.291c-.7-1.569-2.553-.572-3.442-1.762-.309-.412-1.01.267-1.3.72-.371.579-.31,1.43-1.041,1.73-2.475-2.73-.745-4.97.531-7.554,3.109-6.3,8.69-9.227,14.677-11.91,2.132-.955,3.878-2.755,6.285-3.285.775-.171,1.514-.556,2.293-.655,3.963-.506,6.8-5.582,5.066-9.261a2.412,2.412,0,0,0-2.22-1.181,9.741,9.741,0,0,1-4.463-1.426c-1.172-.594-1.868-2.147-3.729-1.344-.85.366-.777-1.207-1.314-1.692-1.459-1.315-2.543-2.491-1.695-4.809.45-1.228-1.307-2.144-2.308-2.653-1.242-.633-.871.885-1.173,1.481-.188.371-.368.722-.81.81-2.781.557-1.791,3.035-2.114,4.645-.217,1.078,1.272,1.1,2.26.978.641-.082,1.653-.183.758.792-1.055,1.15,1.607,2.161.042,2.8-.8.327-1.4-1.428-2.518-1.411s-2.235-.361-3.259-.378c-2.828-.047-4.162-3.612-7.3-2.823-.5.126-.717-1.362-.358-1.811,1.184-1.478.989-3.539,2.307-4.947a1.631,1.631,0,0,0-.137-2.555c-1.261-1.087-1.047-2.6-1.17-4-.038-.445-.137-1.057.546-1.135.561-.063.8.393,1.016.85,1,2.147,3.388,2.934,4.719,4.825.583.828,1.883.892,2.447-.541.419-1.065,1.416-2.2-.542-2.822-.446-.141-1.341-3.6-1.108-4.022.637-1.146,1.422-.655,2.239-.245,2.377,1.193,2.387,1.182,3.739-1.389-.629-.883-1.5.563-2.128-.224.66-2.027,1.521-4.073.049-6.13-.27-.376-.377-.752.017-1.042s.745.046,1.081.241c1.217.705,1.06,2.252,2.053,3.477.7-2.191.276-4.159.019-6.022s-2.715-2.734-4.651-1.876a16.329,16.329,0,0,0-2.529,1.355c-1.478,1-2.33.554-2.86-1.3-.83,2.624-2.164,3.286-4.189,1.362-.32-.3-.713-.1-1.1-.09-1.655.062-3.267-.075-3.512-2.263-.063-.558-.682-.663-.921-1.043-1.019-1.62-2.753-3.007-1.732-5.328.336-.762-.246-1.3-.909-1.4-.788-.116-1.685-.931-2.41.093-.259.367-.871.847.36.93,1.112.074,1.251,1.29.987,2.1-.419,1.286-1.245.215-1.941.152-3.592-.328-4.351-3.353-5.491-5.88-.22-.49-1.244-2.459,1.14-2.408,1.013.022.8-1.272.917-1.9a1.493,1.493,0,0,0-1.333-1.7c-.742-.12-1.524.105-1.506.791.061,2.386-2.206,3.906-2.152,6.276.027,1.174-.745,1.319-1.632.765A9.449,9.449,0,0,1,54.9,74.764c-.635-.676-1.087-1.114-1.9-.2-.267.3-1.179.52-1.311.365-1.818-2.142-4.058-.724-6.119-.878-2.626-.2-3.3-1.748-1.99-4.021.839-1.449,2.1-2.637,2.54-4.34.177-.682.851-.861,1.545-.936a1.389,1.389,0,0,0,1.366-1.634c-.4-1.431-1.255.256-1.9-.064-.573-.638.841-1.557-.311-2.086a2.243,2.243,0,0,1,.947-1.336,83.56,83.56,0,0,1,11.551-7.715,14.735,14.735,0,0,1,6.158-1.754,39.219,39.219,0,0,1,17.878,2.5c7.366,2.706,11.965,7.685,14.318,15.112,1.53,4.827,1.095,10.152,3.99,14.67.579.9,1.848,2.386,1.179,3.528-.929,1.587-.467,3.131-.342,4.575a3.059,3.059,0,0,0,3.388,2.956c.819-.091.814.231.65.5-1.226,2.045.535,2.533,2.286,3.68a16.045,16.045,0,0,0-1.849-.517c-.7,1.593-1.319,3.219-1.953,4.84,2.632,1.274,1.279,3.356.962,5.149-.253,1.436-.523,3.094.366,4.066a51.659,51.659,0,0,1,5,6.193c1.227,1.851,1.879.691,2.883.158.663-.352.157-2.083,1.369-1.44a2.98,2.98,0,0,1,1.268,3.167c-.119.942-.658,1.445-1.421.881-1.729-1.278-1.473.012-1.708,1.078-.63,2.857,1.576,3.872,3.245,5.26,1.213,1.009,2.019.61,2.563-.727l-.028.007c1,1.245-.667,2.755.574,4.194.527-2.113,2.71-3.189,2.775-5.579.009-.337-.15-4.094,2.8-1.922.523.384,1.656-.376,1.442-1.593-.145-.823-.783-1.635-.1-2.5-1.207-.682-.8-3.015-2.88-2.807l.036-.012c-1.115-.474-2.115-1.915-3.461-.256-.3.367-1.468.2-1.474-.179-.033-2.07-.7-1.938-1.941-.76-.108.1-.721-.063-.811-.246-.423-.865-.8-1.433-1.954-.9-.51.238-.793-.506-.635-.965a13.969,13.969,0,0,1,.973-1.9,1.946,1.946,0,0,1,1.323,1.5.679.679,0,0,0,.894.518.651.651,0,0,0,.572-.631.889.889,0,0,0-.531-.957,21.374,21.374,0,0,0-2.254-.4c-.354-.288-.955-.426-.864-1.015.069-.455.557-.6.943-.6,2.213-.02,4.3-.2,6.126,1.807a82.478,82.478,0,0,0,14.87,13.06,24.693,24.693,0,0,1,7.55,7.842c2.756,4.627,3.875,9.732,5.37,14.753l.032-.008a4.449,4.449,0,0,1-2.984-4.43c-.035-.853-.638-1.464-1.067-1.124a3.685,3.685,0,0,1-3.054.526c-.674-.068-.732.257-.121,1,.143.175.407.271.256.525-1.245,2.095-.02,3.656.919,5.436.517.98.276,2.291,2.039,1.788.134-.038,1.428,0,1.249,1.171-.092.594.28,1.422,1.153,1.036.627-.277.672-.882.367-1.629-.717-1.758-.171-2.992,1.813-3.377l-.025.01a11.129,11.129,0,0,0,.864,2.727c2.621,4.142,4.015,8.9,6.408,13.1,3.442,6.051,4.55,12.846,6.978,19.2.059.155-.12.4-.215.683a4.036,4.036,0,0,1-.619-.392c-.343-.325-.226-1.411-1.012-.912-.693.441-.007.923.394,1.3.95.9.489,1.764-.162,2.539-2.317,2.759-1.643,6.235-2.306,9.39-.156.744.384.976.868,1.249.82.462,1.137-.2,1.519-.7C162.6,195.54,163.054,195.708,163.293,195.126ZM78.961,410.41l0-.19c.543-2.361,1.693-.924,3.03-.215-.582-1.192-.944-2.044-2.118-2.213a1.436,1.436,0,0,0-1.534.89c-.5.834.172,1.134.651,1.531Zm-14.7-3.045c1.4-2.287,3.787-1.181,5.825-1.676-.664-.934-.755-2.193-2.67-1.309-.63.29-2.7-.561-4.086-1,.116-.283.333-.578.012-.847a.393.393,0,0,0-.367.086c-.165.384.161.551.391.753-.32.414-.559.579-1.162.234-2.241-1.28-4.335-.443-4.983,2-.158.593-2.341,1.1-.214,1.918.359.138,1.363.922.778-.592-.083-.213,2.218-1.014,2.65-.472,1.176,1.477,2.571.718,3.864.9-.651,1.54.168,2.155,1.525,2.116a29.693,29.693,0,0,0,3.73-.557c.245.166.606.279.713.51.265.572.375,1.441,1.058,1.441.794,0,.9-.967,1.24-1.553.42-.734.615-1.472-.294-2.067s-1.276.253-1.783.651a7.56,7.56,0,0,0-.928,1.044A6.274,6.274,0,0,0,64.258,407.365Zm41.478-36.414a26,26,0,0,0-3.617-1.23c-2.8-.528-3.825.779-2.756,3.449.26.651.969,1.185.189,1.871-.754.663-1.042-.226-1.56-.48-.982-.481-1.209.363-.93.942a11.2,11.2,0,0,1,.87,7.314.528.528,0,0,0,.531.65c1.54.026,1.365,1.284,1.664,2.216.131.409-.272,1.088.435,1.2.868.132.762-.743.882-1.178.427-1.55-.359-2.9-1.082-4.143-.541-.932-.7-1.86.192-2.267,1.052-.478,1.138.707,1.4,1.411.139.37.225.97.476,1.057,3.154,1.09,1.712,3.519,1.6,5.51a1.949,1.949,0,0,0,.359,1.289c1.571,2.5,1.558,2.512-.991,3.307l.043-.01c-.612-.077-1.263-1.286-1.772-.216-.36.757.573,1.26,1.223,1.525,1.176.479,2.458.579,3.667,1.061,1.061.422,1.026-.957,1.312-1.521.625-1.231.562-2.891,2.428-3.2a.572.572,0,0,0,.363-.777.989.989,0,0,0-1.346-.66c-1.625.794-2.282-.474-3.213-1.311a1.055,1.055,0,0,1,.012-1.813,1.639,1.639,0,0,0,.769-1.608c-.133-.917.255-1.345,1.26-1.141a1.27,1.27,0,0,0,1.537-.856c.232-.741-.358-1.175-.93-1.5a13.756,13.756,0,0,0-1.713-.846c-1.992-.79-2.207-2.069-.465-3.373.581-.435.038-.645-.01-.929-.208-1.245-1.379-2.273-.829-3.693,1.179.538,2.68.725,2.657,2.542-.007.509.389.651.828.564a.645.645,0,0,0,.476-.917c-.6-1.357-.626-3.1-2.377-3.722-.479-.272-.727-.65-.367-1.153a3.575,3.575,0,0,1,.853-.834c1.143-.795,1.894-1.789,1.426-3.234-.5-1.555-1.937.222-2.68-.73-.006-.08-.08-.271-.015-.371.5-.766,2.237-.6,1.858-1.8-.3-.951-1.672-.3-2.554-.542a4.325,4.325,0,0,0-4.124,1.117c-.535.5-1.413,1.758-.811,1.952,2.3.74,1.094,2.627,1.477,3.895.273.906.807.827,1.309,1.048.866.379,1.761.69,2.643,1.03ZM37.747,424.512c-1.034,1.609-2.227.485-2.056-.366.537-2.663-2.157-3.28-2.724-5.326-.755.535.075,2.773-1.852,1.665-.252-.145-.64.117-.7.475-.114.655.384.807.864.889.77.132,1.441.352,1.372,1.317-.084,1.169-.962.661-1.6.8-1.641.347-2.018,1.728-.72,2.919.807.741.813,2.663,2.69,2.03a1.4,1.4,0,0,1,.34.773c-.11.68-.646,1.576.428,1.718.46.061,1.219-.682,1.53-1.235.8-1.42,1.387-2.917,2.909-3.836.885-.534.013-1.692.473-2.471.284.111.578.318.847.012a.388.388,0,0,0-.083-.358c-.374-.15-.553.152-.754.385A1.109,1.109,0,0,0,37.747,424.512Zm62.874-166.57c-.146.545-1.022,1.141-.242,1.635a1.808,1.808,0,0,0,2-.359c.741-.653-.074-1.331-.339-1.878-.249-.514-.908-.828-1.386-1.23.465-.822,1.183-1.535,1-2.622-.1-.6.035-1.221.768-1.231.583-.008.983.348,1.061,1.056q.356,3.226.842,6.439a8.619,8.619,0,0,0,.562,1.553c.279.776.613,1.7,1.606,1.372.909-.3.826-1.242.6-2.07-.122-.454-.459-1.112-.276-1.348,2.37-3.044-.457-5.165-1.619-7.244-.771-1.379-2.826-2.179-3.63-3.883-.843.6-.482,1.109-.529,1.55-.044.413-.135.835-.609.911-.588.094-.807-.269-.939-.813-.262-1.08-.064-2.927-1.979-.824-.525.577-2.464-.133-3.783-.254-.07.855,1.022,1.29.631,2.24a.746.746,0,0,0,.783.964c3.528-.772,4.177,2.172,5.544,4.195C100.252,256.7,100.786,257.323,100.621,257.942Zm28.626-112.965c.883-.475,1.626-1.028,1.3-2.127a2.2,2.2,0,0,0-.292-2.416c-1.39-1-.337-1.668.23-2.6a2.433,2.433,0,0,1-3.221-.578c-1.119-1.163.578-1.975.359-3.146-.985,2.153-3.863,2.791-4.139,5.524-.05.492-.255.918.242,1.267a1.028,1.028,0,0,0,1.307-.068,4.432,4.432,0,0,1,1.52-.632.989.989,0,0,1,1.241.848c.185.938-.542.731-1.068.8-1.028.137-2.049.329-3.078.466a3.349,3.349,0,0,0-2.657,4.358,1.87,1.87,0,0,1-.147,1.805,2.092,2.092,0,0,0,.311,2.616,3.647,3.647,0,0,1,4.006-1.679c1.55.269,2.575-.111,1.757-2.239-.658-1.709,1.216-2.945,1.719-4.5.223-.691,1.283-.131,1.931.174ZM81.134,457.989c.686-2.139-.2-3.086-2.379-2.927a2.372,2.372,0,0,1-2.616-1.185c-.43-1.033-1.36-1.261-2.107-1.8-.974.541.058,1.914-1.068,2.21-1,.263-1.581-.609-2.335-1-.993-.513-1.946-1.106-2.95-1.6-.288-.14-.634-.548-1.151-.031.964,1,2.224,1.652,2.561,3.353.2,1,.989,1.546-.443,2.027-.4.133-.4.455-.22.759.215.366.521.282.814.089a8.01,8.01,0,0,1,1.406-.914c1.09-.419,2.276-.875,2.283,1.1,0,.385.1,1.041.313,1.11,1.677.557,3.236,1.044,2,3.377-.158.3.63.163.984.233a7.31,7.31,0,0,1,3.542,2.311c.386.37.909,1.754,1.794.46.629-.919,1.527-2.029.335-3.009a2.158,2.158,0,0,1-.745-2.717,4.62,4.62,0,0,1,3.7,1.822c-.129-1.777-.349-2.852-1.706-3.316-1.443-.494-1.427.883-1.979,1.534C80.306,459.251,80.918,458.66,81.134,457.989ZM70.8,64.86c2.343-.84,2.879-2.174,1.823-4.5-.116-.506-.989-1.493.086-1.387,1.514.149,1.58-.967,2.291-1.6,1.842-1.63.629-2.387-.82-2.626-2.022-.335-4.052-1.2-6.165.42-1.08.828-3.007,1.066-3.385-1.384-.165-1.069-1.109-.761-1.267-.157-.516,1.975-2.231,1.267-3.392,1.809-1.676.781-3.449-.288-5.091.56a2.516,2.516,0,0,0-1.653,2.171c.04,1.685-.6,1.525-1.754,1s-2.04.14-1.35,1.143c1.25,1.819.022,2.95-.586,4.345-.271.621-1.494,1.382-.346,1.956,1,.5.845-.867,1.13-1.383.9-1.63,1.579-3.443,3.957-3.2.676.069.762-.282.807-.847.176-2.223.515-2.566,1.926-1.254,1.7,1.583,2.346.069,3.478-.231-.253-.9-.863-.67-1.272-.838-.737-.3-1.035-.783-.579-1.491.472-.733,1.039-.638,1.547-.01,1.575,1.945,3.47,2.036,5.508.884.914-.518,2.073-.447,2.421.176,1.083,1.938,2.659,2.2,4.559,1.932C72.2,61.913,70.771,63.079,70.8,64.86ZM61.484,357.108c-.332.423-.894.779-.617,1.441.389.926-.03,1.412-.885,1.526-1.185.158-1.191-.788-1.244-1.562a15.542,15.542,0,0,1,.085-1.866,1.16,1.16,0,0,0-1.591.987,19.612,19.612,0,0,1-2.048,5.591.832.832,0,0,0,.416,1.351c1.64.766.509,1.849.382,2.852-.094.743-3.185.5-.668,2.048-.194.241-.412.707-.579.69-2.827-.3-2.178,2.478-3.192,3.73-.753.929.473,1.719,1.3,1.642,1.643-.153,2.643.654,3.735,1.637a2.686,2.686,0,0,0,2.085.988c1.268-.166,1.733.406,1.729,1.636a1.349,1.349,0,0,0,1.2,1.327c.981.157.974-.854,1.032-1.315.293-2.322,2.642-3.6,2.929-5.924-1.05.029-1.479.9-2.133,1.5-.506-3.753.729-5.593,3.344-5.083-.161.335-.435.7.042.969a.585.585,0,0,0,.553-.169c.27-.471-.138-.647-.457-.842.453-.6.048-1.117-.252-1.534-.723-1.006-.255-1.585.7-1.643a1.176,1.176,0,0,0,1.073-1.832c-1.067-1.575.11-2.051,1.076-2.357,2.361-.747,2.058-2.644,1.889-4.312-.124-1.216-1.007-.929-1.691-.243a24.529,24.529,0,0,0-4.541,6.353c-.793-.954-.248-1.778-.451-2.473-.106-.359.151-1-.3-1.06-2.855-.405-.864-1.733-.777-2.786.733.144.725.578.826.957.1.363.066.881.615.877.46,0,.644-.355.743-.792.277-1.235.13-2.579.928-3.682-1.19-.525-.658-1.418-.1-1.772,1.021-.645,1.132-1.668,1.512-2.588.4-.959.665-1.974,1.1-2.911.129-.274.634-.438,1-.525a2.406,2.406,0,0,0,1.948-2.4c-.157-2.582.664-4.941,1.08-7.4.106-.625.843-2.049-.5-2.208-1.149-.137-1.5,1.154-1.825,2.111-.111.331.6,1.052-.352.946-.72-.08-.752-.717-.5-1.312.062-.144.223-.248.271-.393.354-1.052,1.649-2.427.094-3.081-1.046-.44-2.088,1.057-2.417,2.127-1.266,4.114-3.55,7.873-4.234,12.18a8.522,8.522,0,0,1-3.31,5.388l-.176.012.166-.052C62.6,354.408,62.7,355.556,61.484,357.108Zm40.4,60.441c-.527-.567-.711-1.073-.373-1.689a2.133,2.133,0,0,0,.091-2.6c-.6-.915.829-2.245,3.042-2.955-.56-.864-2.186-1.644-.271-2.766.464-.272-.165-.757-.394-1.159-.861-1.512-2.049-2.993-.951-4.925.159-.28.1-1.025-.06-1.092-1.782-.759-2.222-2.708-3.487-3.94-.777-.756-2.457-1.792-1.274-3.521a1.445,1.445,0,0,0-.064-1.963c-.7-.831-1.207-1.695-.135-2.7.634-.6.165-1.156-.361-1.6a7.027,7.027,0,0,0-3.052-1.3,2.913,2.913,0,0,0-2.582.938c-.579.507.13,1.6.684,2.089,2.007,1.779.855,4.216,1.411,6.287.156.58-.579,1.783-1.11,1.64-2.459-.661-2.358.963-2.606,2.5-.122.759-.908.926-1.546.788-1.982-.428-1.869.524-1.2,1.776.506.944-.021,1.5-.592,2.08-.417-.129-.616-.8-1.209-.492,1.148.858-1.008,1.893.058,2.583,1.178.763.428-1.119,1.215-1.067.656.488.983,1.013.4,1.811-1.16,1.589-1.251,3.487-1.432,5.345-.083.853,1.837,2.6-1.044,2.186-.309-.044-.226.781.086.986,2.839,1.868-.342,2.841-.728,4.12-.455,1.508-1.349.489-2.134-.139-.969-.773-1.339.128-1.292.846a2.389,2.389,0,0,0,.865,1.657c2.606,1.706,3.054,3.843,2,6.715-.4,1.078.435,2.405,1.414,3.788-1.942-.344-3.029-1.515-4.592-2.154-.029.864.806,1.25.595,2-.153.548,2.908,3.5,3.453,3.446a.727.727,0,0,0,.537-.374c.244-.878.55-1.973,1.609-1.641.882.277-.041,1.58.409,2.148,1.131,1.429.416,2.5-.427,3.624-.349.466-.754.956-1.373.714-.646-.252-.214-.784-.15-1.23.226-1.555-.986-2.015-2.251-2.734-.144,2-1.113,2.21-2.576,1.21-.381-.261-.866-.589-1.268-.061a.929.929,0,0,0,.107,1.293c.574.594.284,1.391.285,2.018.01,3.348-.053,3.34,3.226,3.4a7.628,7.628,0,0,0,5.829-2.231c.944-.929.112-2.3.852-2.9,2.322-1.859,2.014-5.181,4.175-7.073,1-.874.087-1.405-.452-1.888-.695-.624-1.182-1.626-.395-2.013,2.431-1.193,2.37-4.923,5.685-5.224,1.225-.111-.131-1.426.111-2.118,1.553.029.953,1.389,1.692,2.116.909-2.635,5.034-.341,5.43-3.807l.19,0-.183.024A3.1,3.1,0,0,1,101.881,417.549Zm31.013-289.991c.842.334.28.926.021,1.376a14.57,14.57,0,0,0-1.606,2.95c-.45,1.467-.915,2.74.424,4.138,1.3,1.358.778,3.081.15,4.671-.136.345-.46.779.033,1.045a.914.914,0,0,0,.859-.095c1.026-1.622,2.945-1.554,4.388-2.371,2.219-1.255,2.309-2.31.231-3.737-1.625-1.117-1.465-1.811.775-3.351-.024-.532-.451-.577-.826-.693-1.423-.442-3.2-.652-1.522-2.828a1.361,1.361,0,0,0-.221-1.791c-1.724-1.154-2.937-3.6-6.018-2.305C131,125.437,131.443,126.983,132.894,127.558ZM46.818,410.7c.288-.129.686-.34.909-.239,2.547,1.156,3.885-.432,5.323-2.128.652-.769,1.635-1.636.966-2.391a4.567,4.567,0,0,0-3.177-1.432,5.222,5.222,0,0,1-2.481-.159c-.143-.064-.407-.163-.444-.115-1.37,1.791-3.394,1.282-5.294,1.623.769.476,1.561.921,2.3,1.44.678.475,1.96.809,1.456,1.857s-1.319-.466-2.261-.092C44.263,410.945,45.174,411.432,46.818,410.7Zm46.9-316.174c-.3,1,.188,1.442,1.1,1.208,1.735-.444,2.913.576,4.154,1.427.654.449,1.687.785.332,1.837-.936.726.262,1.365.645,1.967a.954.954,0,0,0,1.447.271c.792-.445.617-.788.282-1.507a2.889,2.889,0,0,1-.05-2.291c1.357-2.4-1.165-3.957-1.164-6.046,0-.462-.773-.939-1.35-.716-1.37.532-2.634,1.4-4.231,1.04-.109-.024-.3.332-.413.461C94.205,93,93.946,93.756,93.718,94.521ZM55.949,315.064c-.046-.644-.191-1.069-.771-1.322-1.391-.608-3.015,1.051-4.4-.436-.1-.108-.566.943-.53,1.611.144,2.69-.294,5.4.244,8.058C54.506,321.379,56.224,318.858,55.949,315.064Zm-.984-4.834c1.924-2.634.446-5.314.569-7.958.015-.315-.179-.7-.054-.935.155-.29.543-.454.83-.672-.1-.1-.188-.24-.31-.287-.443-.172-.939-.5-1.341-.422-.685.142-.633.832-.559,1.393.263,1.992-1.094,3.44-1.71,5.134-.408,1.123-.909,2.213-1.308,3.339a1.575,1.575,0,0,0,.317,1.708C52.676,312.365,54.085,311.436,54.965,310.23Zm103.374-91.663a6.81,6.81,0,0,1,1.32,4.238,6.543,6.543,0,0,0,1.4,3.6c.335.519.694,1.2,1.5.77a1.432,1.432,0,0,0,.66-2.046c-1.331-2.6-2.039-5.487-3.662-7.948-.383-.581-.773-1.391-1.509-.456A1.469,1.469,0,0,0,158.339,218.567ZM95.342,76.1c-1.312-.089-3.317,2.343-2.863,3.341,1.132,2.484,3.456,1.927,6.09,1.985C96.984,79.544,98.662,76.325,95.342,76.1Zm-4.961,73.831a2.835,2.835,0,0,0,3.3-1.074c.971-1.3.232-2.869-.084-4.313-1.5.6-3.342.7-3.968,2.881C87.474,148.7,89.566,149.538,90.381,149.932Zm30.541-17.669c-1.592-1.507-2.966.221-4.463.018-.494-.068-.115,1.42.109,2.107.2.626.728.405,1.088-.057.9-1.153,1.724-.859,2.57.093,1.188,1.336,2.922.854,4.261.782,1.408-.076.009-1.933.9-2.738C123.766,133.406,122.124,133.4,120.922,132.263Zm-2.83,228.362c1-.112,2.139-.718,2-1.943-.144-1.31-1.356-1.429-2.431-1.313-.779.085-1.533.385-2.308.536-.6.116-1.476-.026-1.536.75-.052.673.8.883,1.331,1.2A3.975,3.975,0,0,0,118.092,360.625ZM115.033,274.6c.7.168,1.21.379,1.579-.372.4-.816-.012-1.363-.678-1.792a6.366,6.366,0,0,0-2.721-.777c-.389-.052-.791,0-1.183-.039-.93-.089-1.872-1.863-2.562-.623-.55.988,1.441,1.1,1.964,2.033A15.106,15.106,0,0,0,115.033,274.6Zm-4.925,137.572c-1.676.709-.974,2.3-1.128,3.552-.051.41.767.629.724.422-.46-2.214,1.813-1.973,2.666-2.61,1.461-1.091.934-1.5.08-2.317-.384-.366-.733-.768-1.283-1.349C111.116,410.953,111.081,411.757,110.108,412.169Zm46.2-230.452c-1.374,1.732-1.214,5.349.449,7.794A7.409,7.409,0,0,0,156.307,181.717Zm-26.192,64.624c-3.178-1.23-6.473-.422-9.716-.475A18.718,18.718,0,0,0,130.115,246.341ZM59.739,236.247c-.163-1.366-2.067-1.584-3.01-1.176-1.99.861.56,2.424-.881,4.1C57.757,238.058,59.989,238.333,59.739,236.247Zm87.188,37.5a10.84,10.84,0,0,1-3.935,3.492c-.3.151-.548.38-.373.742.2.41.572.466,1,.4A3.218,3.218,0,0,0,146,276.961a9.09,9.09,0,0,1,3.585-3.572C148.518,272.923,147.565,272.853,146.927,273.742ZM52.6,327.315c.577.567,1.3-.169,1.349-.778.112-1.243,1.9-2.407.524-3.615-.806-.71-1.737.168-2.364.835A3.265,3.265,0,0,0,52.6,327.315Zm54.226,99.8c-.313,1.122.927,1.229.505,1.973-.279.493-1.6.813-.467,1.528a1.943,1.943,0,0,0,2.406-.174c.567-.492,1.479-.579,1.839-1.687C109.6,428.316,107.909,428.875,106.823,427.116Zm-15.14,16.742c-.291.465-1.343.635-.724,1.48a1.6,1.6,0,0,0,1.476.655c.82-.1,1.191-.757,1.462-1.433.353-.876-.61-1.637-.151-2.664A3.636,3.636,0,0,0,91.683,443.858Zm12.979-92.886c-.776-3.11-2.292-3.789-5.268-2.325C101.4,348.791,102.908,350.024,104.662,350.972ZM83.529,80.46c-.039-.392.144-.8-.332-.984a1.451,1.451,0,0,0-.649.033c.055,1.845-3.294,2.462-1.678,4.83C81.874,83.17,83.743,82.581,83.529,80.46Zm5.029,28c.157.314-.049.915.526.871a.606.606,0,0,0,.466-.911c-.8-1.829,2.069-1.973,1.521-4.017C89.855,105.658,87.217,105.767,88.558,108.459ZM50.178,394a.976.976,0,0,0,.427-1.441c-.756-.948-.629.536-1.109.491-1.73-.162-1.917,1.656-2.973,2.414C48.014,395.532,49.033,394.607,50.178,394Zm54.045,35.086a.748.748,0,0,0,1.269-.482c.063-.911.88-1.973-.057-2.719a1.161,1.161,0,0,0-1.874.552C103.46,427.285,103.276,428.358,104.223,429.081ZM66.384,331.446c-.009-.582-.046-1.407-.656-1.323-1.557.215-.993,1.922-2.13,3.046C65.415,333.184,66.408,333.016,66.384,331.446ZM58.337,393.9a.559.559,0,0,0,.195.969c.429.147.734-.138.888-.565.425-1.185.858-2.367,1.487-4.1C59.355,391.431,59.408,393.007,58.337,393.9ZM66.959,70.552c-.253.489-1.161,1.076-.334,1.589.613.379,1.138-.372,1.52-.884a2.126,2.126,0,0,0,.208-2.724A19.9,19.9,0,0,0,66.959,70.552ZM62.741,444.278c.156-.947,1.056-1.892.09-2.839-.1-.1-.747.092-.8.263-.36,1.061-1.1,2.2.33,3.148C62.494,444.654,62.708,444.481,62.741,444.278Zm54.869-98.586c-.545.429-.246.975.28,1.01.689.045,1.563.912,2.091-.181a1.6,1.6,0,0,0-.385-1.778C118.625,344.38,118.184,345.239,117.61,345.692ZM57.156,290.975a.809.809,0,0,0-.612.1c-.33.305-.392.853-.044,1.043.969.528.877,1.616,1.366,2.558C59.33,292.958,57.683,292.078,57.156,290.975Zm30.852,91.739c-2.052-.491-2.052-.491-1.893,2.733C86.789,384.11,87.159,383.279,88.008,382.714Zm.237-306.867c.409.33.847-.123,1.066-.576s.859-.942.247-1.452c-.482-.4-1.054-.187-1.5.268A1.469,1.469,0,0,0,88.245,75.847Zm-7.893-2.2c-.429-.334-.762-1.374-1.426-.42-.465.667.31.969.789,1.164.781.319,1.4,1.076,2.71.884C81.6,74.628,80.978,74.136,80.352,73.647ZM60.558,338.92c-.28.508-.545,1.172.147,1.448,1.1.439,1.39-.829,2.084-1.259.524-.324.207-.835-.338-1.135C61.532,337.635,60.977,338.158,60.558,338.92ZM82.04,323.206a.521.521,0,0,0,.951-.067c.511-1.12-.774-1.357-1.135-2.062-.162-.316-.624-.467-1.024-.012C80.776,322.01,81.643,322.489,82.04,323.206Zm-42.462-5.815c-1.536.05-1.938.912-1.73,2.206Zm52.29-214.124a.646.646,0,0,0-.446-.933,1,1,0,0,0-.846.164c-.377.387-.077.695.294.921S91.649,103.717,91.868,103.267ZM48.469,368.15c-.026.07.308.4.41.369a1.082,1.082,0,0,0,.815-1.178A1.074,1.074,0,0,0,48.469,368.15Z" style="fill: #9bb0aa"/>
        <path d="M139.355,186.362c-.336.435-.581,1.016-1.3.845-1.982-.469-4.082-.287-5.971-1.335-2.028-1.126-4.033-.306-3.919,1.684a13.15,13.15,0,0,0,1.078,4.974c2.412,5.062,5.635,9.617,8.713,14.269a3.29,3.29,0,0,0,4.708,1.172c1.29-.806,2.55-.388,2.367,1.026-.326,2.535,1.188,2.144,2.615,2.117.516-.01,1.1-.454,1.513.6a49.386,49.386,0,0,1-9.244,3.792c-2.745.952-5.362-.3-8.043-.526a3.187,3.187,0,0,1-3.229-2.605c-.151-.565.11-1.274-1.009-1.16-.931.1-1.1.466-1.3,1.269-.19.784.275,1.8-.8,2.354-2.758,1.423-6.968-.43-8.016-3.489-.563-1.645-3.114-3.22-3.356-2.937-1.659,1.941-2.311-.127-3.357-.511-.605-.222-.9.284-.977.768-.112.676-.5,1.826.3,1.917,2.294.263,1.8,2.02,1.922,3.29.206,2.148,1.041,3.455,3.327,3.638,1.245.1,2.417.658,3.753.288.6-.165,1.864-.18,1.141,1.238a.938.938,0,0,0,.319,1.278c1.928,1.327,3.153,3.882,6.06,3.513a.99.99,0,0,1,1.041.451c.277.5-.231.678-.541.885-1.768,1.181-3.531,2.37-5.326,3.507-.312.2-.958.367-1.134.2-1.848-1.695-5.008-1.9-6.135-3.744-1.041-1.7-1.217-3.9-3.034-5.443-.88-.748-5.454-2.562-5.785-1.486-.693,2.258-2.669,4.026-2.333,6.719.151,1.2,1.315,2.58-.023,3.79-1.572,1.422-.133,1.715.805,1.932.743.172,1.665-.308,2.361-.07,3.063,1.045,5.793.9,8.112-1.808A6.775,6.775,0,0,1,113.53,231c-.988,1.244-.123,2.369.327,3.361.568,1.249,1.71.316,2.573.181a13.954,13.954,0,0,0,2.024-.742c.449-.146,1.27-.264,1.248.221-.119,2.645,2.344,3.219,3.634,4.7.694.8.692,1.238-.271,1.556-2.071.684-3.813,2.376-6.3,1.878a1.564,1.564,0,0,0-1.89,1.145c-.182,1.179.917,1.029,1.623,1.307.947.372,2.28-.093,3.008,1.484-3.543-.405-6.769-1.588-10.588-1.486,1.235,1.289,3.106,2.241.514,3.41-.636.287-.176,1.149-.2,1.279-3.962-2.456-8.186-4.8-12.106-7.57-5.868-4.149-11.716-8.233-18.84-9.976-.706-.173-1.723-.119-1.6-1.342.174-4.873-.67-9.595-1.515-14.387-.507-2.877-.681-5.905-1.2-8.848-.2-1.124-.547-1.4-1.671-1.05-2.93.9-5.783,2-8.647,3.087-5.645,2.145-11.358,4.109-17.048,6.135-.8.283-1.812.459-1.9,1.412-.1,1.069,1.063,1.274,1.763,1.725,2.9,1.867,5.827,3.689,8.745,5.528-.427.647-1.319-.237-1.714.52-2.494-1.645-5.424-1.763-8.221-2.346-1.076-.3-2.173-.534-3.224-.9-3.509-1.224-7.156.484-10.674-.535a.745.745,0,0,0-.992.745c-.161,1.926-1.926,2.206-3.149,2.978-.961.606-1.573.291-1.234-.982.269-1.006.5-2.024.822-3.016.365-1.14-.544-1.417-1.207-1.744-.735-.362-1.266-1.511-2.246-.954-.773.439-.707,1.336-.539,2.18a3.765,3.765,0,0,1-1.4,4.024c-.44-.975.256-2.345-.989-2.593-1.159-.23-1.055,1.229-1.692,1.72-1.23.947-1.553,2.58-3.013,3.444a4.509,4.509,0,0,0-1.758,3.621c1.793-1.159,3.2-2.117,4.385.514.719,1.591,2.64,1.473,3.692.042.687-.933,1.239-1.965,1.852-2.953.512,3.481-.223,6.64-.912,9.815-.453,2.086.6,3.737,2.016,5.079,1.609,1.525,1.721-1.168,3.586-1.485-2.46,2.624.751,3.2.8,4.963.549-.517.756-1.285,1.237-1.544,1.363-.734,3.047-1.591,4.372-.586,1.123.852-.363,1.89-.771,2.811-.672,1.52-1.992,2.832-1.926,4.582.118,3.149.364,6.3.7,9.433.247,2.271-.667,4.848,1.729,6.636.68.508.121,1.334-.249,1.965-.332.566-1.051,1.011-.625,1.871,1.008.022,1.607-1.993,2.611-.743a1.949,1.949,0,0,1-.563,2.915c-.583.411-.486,1.017.032,1.655,2.083,2.567,1.5,5.016-1.506,6.738a1.155,1.155,0,0,0-.531.732c-.324,2.82-1.654,5.262-2.914,7.736.216-.153.28-.381.419-.546.855-1.017,1.106-3.426,2.848-2.546,1.825.924.221,2.509-.5,3.625-.787,1.222.085,1.541.846,1.983.672.39,1.351-.572,2.054-.021-.165.724-.335,1.657-1.017,1.81-1.365.306-1.659,1.08-1.708,2.306-.027.684-1.3,1.391-.222,2.039.918.553.773-1.206,1.639-1.142,1.278,2,1.278,2,.212,4.309-.234.508-.462,1.02-.7,1.523-.213.439-.485.913.062,1.261.41.26.771-.034,1.032-.353a3.147,3.147,0,0,1,2.88-1.21,2.3,2.3,0,0,1-1.73,2.608,2.639,2.639,0,0,0-1.669,3.442c.748,2.853.4,5.813.891,8.722a14.761,14.761,0,0,1-.727,5.574c-.218.831-.033,1.392.681,1.452,2.128.179,1.209,1.39.813,2.311-.547,1.272-1.159,2.873-.528,3.845.728,1.121.444,1.912.4,2.961-.068,1.578-1.342,2.483-1.926,4.061.691-.2,1.462-.752,1.675-.152.535,1.5-1.623,1.759-1.566,3.019.467-.787,1.039-.61,1.949-.36,1.093.3,2.234.489,1.981-1.794-.173-1.561-2.061-2.027-1.5-3.634,1.369-3.942,1.11-8.179,2.135-12.2.2-.8,1.06-1.159.948-2.092-.339-2.83,1.628-5.376,1.062-8.282-.1-.525.578-1.073,1.085-1.511.946-.819,1.393-2.2.572-2.969-1.935-1.815-.97-4.273-1.529-6.325-.639-2.346.088-5.394.679-7.855.759-3.156-.017-6.168.413-9.242.35-2.5,1.244-5.244,3.522-6.417.676,1.767-.578,3.182-1.336,5.024l1.993-1.079c-.325,2.431,1.342,5.009-1.149,6.915-.261.2-.087.544.052.862.692,1.585.111,3.276.347,4.905h-.384c.189.421.268.111.368-.056,2.119,1.664.881,4.208,1.079,6.131.268,2.6.013,5.091,1.7,7.349.577.771-1.178,4.782-2.119,5.071-.652.2-1.435.584-1.8-.467-.189-.542-.434-1.193-1.106-1.044-.949.211-.942,1.537-.753,1.771,1.656,2.045-1.85,4.9,1.1,6.668.043.026-.008.332-.1.439a2.357,2.357,0,0,0-.249,3.206c1.52,2.406-1.844,5.408.718,7.866.1.1-.417.8-.6,1.237-.161.377-.684.811.309,1.255a4.362,4.362,0,0,1,1.552-2.248c1.338-1.321,4.106-1.286,4.323.094a10.637,10.637,0,0,1-.359,5.251c-.689,1.793-2.214,3.276-.553,5.247.489-.688,1.014-1.45,1.565-2.192.358-.482.641-1.333,1.443-.755a1.835,1.835,0,0,1,.588,1.953c-.123.621-1.247.571-.94,1.451,1.829-.174,1.785-.191,2.335-1.615.534-1.38.654-3.152,2.663-3.4.52,1.45-1.055,2.489-.709,3.508.544,1.6-.111,2.356-1.159,3.248a.836.836,0,0,0,.191,1.42c.633.3,1.048-.185,1.367-.667.709-1.07.71-2.468,1.6-3.459.275-.306.529-.637.993-.4a.671.671,0,0,1,.307,1.007c-.845,1.441-.442,3.13-1.334,4.709-1.733,3.065-2.268,6.637-2.688,10.15-.06.5-.042.97-.59,1.184-1.731.676-2.129,2.217-2.607,3.784a6.821,6.821,0,0,1-1.332,2.245,1.268,1.268,0,0,1-1.554.308c-.691-.39-.281-.951-.073-1.466.33-.816.651-1.637.927-2.473a.548.548,0,0,0-.376-.757c-.354-.1-.816.125-.745.374.544,1.906-2.429,2.944-1.2,5.022a.484.484,0,0,1-.636.664c-1.154-.516-1.7-2.182-3.349-1.793.887-1.347-.584-3.227.728-4.318,2.944-2.448,1.434-5.787,2-8.7.077-.393.073-.871-.463-.938s-.628.382-.641.8c-.12,3.657-2.146,6.843-2.569,10.434-.142,1.2-.842,3.046-1.725,2.9-2.281-.386-1.552.982-1.836,2.066-.28,1.067-.653,1.981.3,2.852,1.112,1.024,1.673-.093,2.394-.614a.74.74,0,0,1,1.2.257c.176.309.081.78-.223.817-2.939.364-1.775,3.6-3.583,4.89,1.056-.319,1.732-.61,2.753.26a5.506,5.506,0,0,0,3.835.839c.638-.07.309-1.547.32-2.405a1.022,1.022,0,0,1,.382-.8c.438-.185.624.242.9.547.7.78.089,1.945.847,2.66,3.016,2.848,2.389,6.433,1.991,9.952-.074.656-.149,1.585-1.211,1.417a1.146,1.146,0,0,1-.991-1.609c1.044-2.153-.887-4.38.311-6.516.424-.758-.142-1.428-.807-1.787-.9-.485-.981.489-1.368.905l-.556-.09.321.468a1.1,1.1,0,0,0-.419,1.038.311.311,0,0,0,.227.008c.448-.284.29-.663.145-1.037l.269-.438c1.3.842.659,1.8.1,2.678-.723,1.138-1.45-.059-2.021-.229-1.882-.562.91-1.4-.244-2.263-1.276.8-2.263.071-3.036-1.151-.3-.469-.661-.734-1.164-.428a.759.759,0,0,0-.274,1.058c.959,1.1.752,3.024,2.547,3.518,1.252.344.939,3.1,3.13,2.064a2.081,2.081,0,0,1,.239.383c.515.977-.388,7.377-1.149,8.225a3.588,3.588,0,0,1-2.138.968c-.991.2-2.1.225-2.667,1.311l-.109.025c-3.331-1.96-6.781-.7-10.141-.2a18.157,18.157,0,0,0-3.067.542c-3.188,1.035-5.161,3.635-7.892,5.175-.534.3-.951,1.068-1.644.691-.842-.458.466-1.194-.067-1.926-5.937,3.167-12.412,4.1-18.908,5.339a27.406,27.406,0,0,0,.805,5.862,38.2,38.2,0,0,0-8.028-2.778c-.944-.252-1.317-.864-1.592-1.845-.5-1.787-3.122-3.1-4.364-2.032-1.506,1.291-2.642.556-3.943.1-1.363-.476-2.681-1.087-4.053-1.535-3.112-1.016-3.411-.737-2.767,2.405l-3.146-1.879c.056-.828.915-2.076.249-2.336-.738-.289-1.876.444-2.84.731-3.626-2.218-7.258-4.426-10.877-6.656-4.928-3.037-9.855-6.076-14.753-9.159-.533-.336-2.04-.723-.9-1.6,1.612-1.238,2.155-3.228,3.883-4.42a44.238,44.238,0,0,0,7.133-5.894c1.471-1.552,3.359-3.133,5.777-3.4,2.72-.3,3.584-2.265,4.089-4.518.231-1.034.387-2.143,1.442-2.593,2.7-1.153,5.23-3.09,8.523-1.646.715.314,1.794-.143,2.762-.506,1.683-.63,1.987-2.108,2.835-3.182,2.434-3.086,5.473-5.851,5.992-10.11.082-.669.692-1.161,1.247-1.672,3.4-3.132,5.532-6.774,4.652-11.688a16.552,16.552,0,0,1,.377-5.387,31.354,31.354,0,0,0-.469-11.7c-2.131-9.361-6.186-18.136-8.622-27.449-1.534-5.866-3.929-11.539-5.121-17.53-.863-4.339-2.228-8.586-2.565-13.021-.269-3.548-.943-6.965-.113-10.707.525-2.37-.905-5.449-1.976-8.107-.768-1.9-1.534-3.836-.967-6.194.3-1.253.638-3.283-.167-4.385-1.541-2.111-3.067-4.468-5.377-5.771-2.248-1.268-3.233-2.905-3.011-5.346A9.959,9.959,0,0,0-38,215.874c-.637-3.391-.862-6.709,1.511-9.648.383-.474.44-1.2.783-1.721,2.622-3.977,3.457-8.905,6.635-12.562a28.348,28.348,0,0,0,2.679-3.685,4.108,4.108,0,0,1-.469,3.983,15.016,15.016,0,0,0-2.363,4.645c3.316-1.021,3.267-5.076,6.5-5.854a11.293,11.293,0,0,1-2.427,6.681c-.537.676-1.222,1.56-.084,1.84.784.192,1.964,1.675,2.839-.079.294-.59.433-1.738,1.319-1.392s.021,1.256.057,1.914c.085,1.561-.652,2.485-1.757,3.623-2.119,2.182-4.313,4.429-5.34,7.474-.38,1.127-.3,1.874.986,1.605.89-.186,1.25.047,1.385.759.565,2.966,2.37,5.592,2.355,8.715a6.427,6.427,0,0,0,2.27,4.812c.455.429.846.914,1.654.673,2.771-.824,4.532.7,6.014,2.74.278.385.484.99,1.026.653.456-.282.2-.844.047-1.316a17.19,17.19,0,0,0-2.785-4.951c-2.22-2.985-2.474-6.526-2.519-9.852-.033-2.451,1.4-4.988,2.482-7.35.356-.779,1.167-1.054,2.74-.675,2.943.708,1.883,2.325,1.958,3.8.234,4.638,3.675,7.911,8.178,9.368,2.383.771,4.894.579,7.135,1.643-.378-2.541-.186-2.7,2.563-2.023a1.551,1.551,0,0,0,1.485-.594,6.527,6.527,0,0,0,1.127-2.339c.882-1.916,1.205-2.905-1.189-4.517a45.25,45.25,0,0,0-6.227-3.737c-1.51-.7-2.082.451-3.077.2-.168,1.233,1.891,1.136,1.089,2.492-.315.532-.755.479-1.247.45-1.724-.1-.781-1.481-.974-2.215-.707-2.675.942-5.252.529-7.982-.069-.452,1.075-.757,1.644-.638,1.247.261-.555,1.215.407,1.745.83-1.163,1.206-3.117,3.418-2.459a4.879,4.879,0,0,0,.875-2.31c-.294-4.218-.821-8.391-3.594-11.891a9.519,9.519,0,0,0-3.717-2.576c3.776-1,7.505-2.317,11.345-2.895,2.3-.346,2.441-1.173,2.357-3.072-.218-4.954-.646-9.962.193-14.864a159.593,159.593,0,0,0,2.178-24.558,19.112,19.112,0,0,1,11.093-17.179c1.731-.82,3.523-1.438,5.275-2.111,3.764-1.445,7.094-3.779,11.018-4.926,3.357-.981,3.689-2.7,1.709-5.77a4.521,4.521,0,0,1-.47-1.328,18.351,18.351,0,0,1,.291-10.885c.652-1.817.345-2.536-1.176-3.408-2.779-1.592-2.774-2.007-1.747-5.071.656-1.957,1.285-4.31.034-5.951a19.461,19.461,0,0,0-3.245-3.4c-1.191-.944-1.341-1.888-.372-3.179,2.963-3.95,5.832-7.971,8.738-11.965.62.187,1.09.17.94-.691l.745-1.107c1.152.529-.262,1.448.311,2.086.643.32,1.5-1.367,1.9.064A1.389,1.389,0,0,1,47.67,64.75c-.694.075-1.368.254-1.545.936-.44,1.7-1.7,2.891-2.54,4.34-1.315,2.273-.636,3.825,1.99,4.021,2.061.154,4.3-1.264,6.119.878.132.155,1.044-.066,1.311-.365.812-.91,1.264-.472,1.9.2A9.449,9.449,0,0,0,56.826,76.2c.887.554,1.659.409,1.632-.765-.054-2.37,2.213-3.89,2.152-6.276-.018-.686.764-.911,1.506-.791a1.493,1.493,0,0,1,1.333,1.7c-.116.626.1,1.92-.917,1.9-2.384-.051-1.36,1.918-1.14,2.408,1.14,2.527,1.9,5.552,5.491,5.88.7.063,1.522,1.134,1.941-.152.264-.81.125-2.026-.987-2.1-1.231-.083-.619-.563-.36-.93.725-1.024,1.622-.209,2.41-.093.663.1,1.245.635.909,1.4-1.021,2.321.713,3.708,1.732,5.328.239.38.858.485.921,1.043.245,2.188,1.857,2.325,3.512,2.263.39-.014.783-.214,1.1.09,2.025,1.924,3.359,1.262,4.189-1.362.53,1.852,1.382,2.3,2.86,1.3a16.329,16.329,0,0,1,2.529-1.355c1.936-.858,4.393,0,4.651,1.876s.68,3.831-.019,6.022c-.993-1.225-.836-2.772-2.053-3.477-.336-.195-.689-.529-1.081-.241s-.287.666-.017,1.042c1.472,2.057.611,4.1-.049,6.13.629.787,1.5-.659,2.128.224-1.352,2.571-1.362,2.582-3.739,1.389-.817-.41-1.6-.9-2.239.245-.233.419.662,3.881,1.108,4.022,1.958.619.961,1.757.542,2.822-.564,1.433-1.864,1.369-2.447.541-1.331-1.891-3.721-2.678-4.719-4.825-.213-.457-.455-.913-1.016-.85-.683.078-.584.69-.546,1.135.123,1.405-.091,2.914,1.17,4a1.631,1.631,0,0,1,.137,2.555c-1.318,1.408-1.123,3.469-2.307,4.947-.359.449-.14,1.937.358,1.811,3.138-.789,4.472,2.776,7.3,2.823,1.024.017,2.137.4,3.259.378s1.722,1.738,2.518,1.411c1.565-.642-1.1-1.653-.042-2.8.895-.975-.117-.874-.758-.792-.988.125-2.477.1-2.26-.978.323-1.61-.667-4.088,2.114-4.645.442-.088.622-.439.81-.81.3-.6-.069-2.114,1.173-1.481,1,.509,2.758,1.425,2.308,2.653-.848,2.318.236,3.494,1.695,4.809.537.485.464,2.058,1.314,1.692,1.861-.8,2.557.75,3.729,1.344a9.741,9.741,0,0,0,4.463,1.426,2.412,2.412,0,0,1,2.22,1.181c1.731,3.679-1.1,8.755-5.066,9.261-.779.1-1.518.484-2.293.655-2.407.53-4.153,2.33-6.285,3.285-5.987,2.683-11.568,5.615-14.677,11.91-1.276,2.584-3.006,4.824-.531,7.554.731-.3.67-1.151,1.041-1.73.29-.453.991-1.132,1.3-.72.889,1.19,2.743.193,3.442,1.762a.664.664,0,0,0,1.247-.291c.195-1.738,1.867-1.594,2.719-2.693.525,1.682-1.824,2.153-1.143,3.3.576.967,2.224.847,2.879,2.025.806-.712.568-1.5.726-2.175.119-.513.38-.913.952-.906a.842.842,0,0,1,.836.978c-.045.829.509,1.8-.429,2.456-1.148.807-1.139,2.058-1.26,3.242-.084.829-.621,1.842.43,2.4A2.445,2.445,0,0,0,94.114,161c1.467-1.448,3.5-1.14,5.165-1.93.368-.175.99-.332,1.336.132.366.49-.134.875-.317,1.292-.337.769-1.156,1.333-1,2.628,1.457-1.6,2.819-.394,4.143-.058,1.251.319,1.708.215,1.856-1.191.287-2.72.733-5.44,2.926-7.438.256-.234.714-.869.767-.582.483,2.624,1.736-.788,2.388.427-.885,1.615-1.8,3.342,1.067,4.047l0-.015c-.324.852-1.2,1.713-.21,2.607a3.582,3.582,0,0,1,.83,4.947,21.561,21.561,0,0,1-3.79,4.61,1.214,1.214,0,0,0-.177,1.849c.628.872.9.159,1.455-.183a3.519,3.519,0,0,1,4.02-.175A5.872,5.872,0,0,0,116.985,173a2.871,2.871,0,0,1,2.409,3.215c-.038,1.835,1.054,2.429,2.3,2.88.779.281,1.474-.515,2.108-.973.789-.571.482-1.044-.275-1.393a1,1,0,0,1,.184-.589c.377-.349.726-.135,1.032.17,1.288,1.281,2.219.707,3.289-.433,1.987-2.117,3.607-4.618,6.942-5.191a2.285,2.285,0,0,1,2.36.859c.868.822-.083,1.179-.525,1.689-.958,1.107-1.867,2.256-2.789,3.378-.909-.205-.35-1.883-2.023-1.5-2.172.5-2.992,1.782-3.6,4.015a2.192,2.192,0,0,1,2.534.057c2.138,1.235,1.78,3.508,2.778,5.163.384.638.442,1.4,1.3,1.181a1.333,1.333,0,0,0,.915-1.715c-.147-.695-.919-1.741.559-1.737,1.14,0,1.207.908,1.107,1.94-.116,1.192.1,2.406,1.774,2.392ZM69.972,150.5l-.173-.416a13.858,13.858,0,0,0-2.98-4.549c-1.1.275.578,2.116-1.235,1.906-.279-.032.077.962.167.9,2.289-1.544,2.746,1.145,4.09,1.731Zm-6.387-29.444a2.209,2.209,0,0,0-1.654-1.244c-.328-.1-1.153-.251-.741.592.777,1.585-.811.965-1.236,1.259-.726.5-1.063-.2-1.313-.853a6.76,6.76,0,0,0-1.116-2.368c-.7-.713-1.257-2.027-2.905-.8-.76.565-2.516.008-3.734-.341-.71-.2-.7-.963.015-1.494.532-.4,1.318.066,2.028-.947-1.149-.215-1.786-1.144-3.182-.3-1.289.783-2.777-.16-3.981-.638-1.238-.491-1.087-.381-1.1.745-.011.833,1.068,2.611-1.514,2.351-.653-.065-1.554,2.339-2.451,3.787.223-1.725-.889-1.36-1.692-1.078-1.1.387-2.485.945-2.315,2.308.122.983-.573,3.145,2.182,2.417,1.237-.326,1.123,1.172.688,2.134-1.083,2.4-.671,2.894,1.956,3.431.951.195,3.862-.5,2.095,2.437-.248.414.522.685.91.932a42.977,42.977,0,0,1,4.162,2.709,1.755,1.755,0,0,0,1.951.4c3.161-1.335,5.528.8,8.121,1.851.771.313.159.943-.1,1.4l-.176-.019.166-.022c1.508,1.556,3.359.491,4.929.378,2.466-.177,4.839-.424,7.228.406.8.277.846-.452.967-1,.478-2.139-.939-5.207-3.013-5.879-2.731-.885-5.13-2.945-8.268-2.449l-3.242.055a.763.763,0,0,0-1.126-.222l-.753-.469a10.423,10.423,0,0,1-5.036-5.119c-.606-1.42-.3-2.831.76-3.42.99-.548,2.193-.136,3.117,1.244,1.258,1.877,3.113,3.38,5.731,3.072.723-.085,1.573-.23,1.993.443,1.783,2.859,4.575,4.56,7.438,5.88,2.563,1.183,2.869,4.058,5.021,5.423,1.32.838,2.2,2.251,3.68,2.952.8.378,1.53,1.079,2.31.1.711-.894.83-2.358.186-2.852-3.113-2.389-5.123-5.791-8.022-8.347-1.334-1.629-3.6-2.112-4.8-3.914,2.079-.962.277-2.354.391-3.533-1.34-.084-2.092-2.107-3.751-1.139ZM-14.822,378.259c-.358-.409-1.209.036-1.6.621-.461.694-.071,1.046.472,1.551,2.109,1.966,4.377,1.8,6.818-.735a1.82,1.82,0,0,0-2.13.145l.045-.009C-12.149,378.742-13.821,379.4-14.822,378.259ZM76.721,92.529c-1.318.641-2.143-.583-3.413-1.706.25,1.929-.635,3.32,0,4.839a1.119,1.119,0,0,1,.052.879c-1.861,2.621,1.154,2.763,2.09,3.528,1.016.831,2.2-.4,2.3-1.556.147-1.7,1.183-2.928,1.752-4.392a3.717,3.717,0,0,0,.715,1.666c.647.738,1.332,2.1,2.216,1.375,1.266-1.044-.406-2.067-.826-3.037-.551-1.274-1.418-.973-2.1.051C79.529,91.636,79.034,91.4,76.721,92.529ZM28.005,139a2.019,2.019,0,0,0,.369,2.825c1.208,1.016.442,1.648.138,2.627-.4,1.277-2.333,2.91.458,3.983.451.173.306,1.244-.173,1.72-.551.548-.54,1.585-.8,1.8-2.349,1.879.013,5.371-2.536,7.084a.691.691,0,0,0-.2.378c2.455,1.9-.323,3.406-.5,5.08-.2,1.921.2,3.833-.2,5.721-.211,1-.64,1.885.9,2.464,1.165.437.514,2.116,1.267,3.659,1.055-2.113,2.833-3.324,2.567-5.641-.021-.184.172-.543.32-.575,3.167-.688.066-2.823.924-4.045.06-.086-.114-.527-.445-.3-1.937,1.341-1.407-.489-1.516-1.248-.1-.717-.344-2.041.606-1.915.785.1,2.705-.542,2.375,1.686,2.291-2.666,2.1-3.329.57-7.437-.517-1.389.055-3.276-.734-4.829,2.441.065.968-2.68,2.4-3.341.391,4.965,1.916,9.757,2.262,14.735.035.5-.275,1.4.91,1.629,1.127.216,1.2-.575,1.525-1.1,1.174-1.89,2.286-3.829,4.293-4.984,1.674-.963,2-2.691,2.654-4.288,1.7-4.136,3.532-8.221,5.319-12.323.184-.422.626-.886-.016-1.207-.8-.4-1.434-1.5-2.459-1.078-3.382,1.4-6.79.9-10.236.41-3.618-.515-4.842.635-4.764,4.253a2.331,2.331,0,0,1-.21.686c-1.761-1-1.395-2.769-1-4.087.764-2.551-.964-3.632-2.188-5.443-.752,1.675.221,2.692.351,3.832l.041-.008C29.428,139.684,28.86,138.142,28.005,139ZM56.55,184.2c.559.973-.315,1.594-.66,2.355-.147.324-.156.663.194.821.586.264.7-.181.683-.6-.016-.565-.119-1.135.312-1.6.66-.707,1.517-1.15,2.334-.52a1.315,1.315,0,0,1,0,2.251,6.736,6.736,0,0,0-1.873,2.513,4.57,4.57,0,0,0,3.084-1.94,6.685,6.685,0,0,1,2.139-2.251,1.483,1.483,0,0,1,1.782.07c.77.562.349,1.088.017,1.648a7.057,7.057,0,0,1-2.512,2.839c-1.82,1.022-3.059,2.656-4.838,4.764,2.585-.381,4.422-.751,5.778-2.382.46-.553.766-1.434,1.34-1.657,3.209-1.248,5.032-3.378,5.242-6.921.052-.872.717-1.694,1.727-.363.723.952,1.968.293,2.957.4.64.067,1-.761.728-1.469a1.493,1.493,0,0,0-.767-.863c-3.208-.895-4.008-4.44-6.678-6.046-.952-.573-.987-1.087-2.066-.224-2.028,1.623-3.42,1.185-4.88-1.132a7.414,7.414,0,0,0-.633-.946c-2.089,1.078-2.378-.66-3.012-1.873a.552.552,0,0,0-.393-.248c-1.074-.049-1.54,1.947-2.93.876a13.405,13.405,0,0,0-.234,2.66c-.1,1.933.864,3.836.073,5.78-1.067,2.623-.86,2.838,1.937,2.627a6.577,6.577,0,0,1-1.649,3.368c-.371.075-.927-1.163-1.083.071-.092.732.476,1.582-.567,2.063-.861-.487-.395-1.309-.515-1.958a2.182,2.182,0,0,0-3.424-1.676,3.758,3.758,0,0,1-1.278.641c-.936.105-1.829-.159-1.242,1.467.321.891-.825,1.368-2.081.875-.582-.229-.9.05-1.211.453-1.765,2.317-3.814,4.442-4.682,7.347-.3,1-.516,2,.469,2.586.846.506,1.581-.212,2-.874,1.042-1.639,3.412-.429,4.46-2.2.227-.383.55.438.655.892.189.819.023,1.986,1.127,2.165,1.142.185.792-1.161,1.317-1.715,2.12-2.237,4.541-4.24,5.4-7.47a24.45,24.45,0,0,0,.639-2.719C55.294,186.356,54.928,183.842,56.55,184.2Zm-40.7,181.858c-1.281,1.685-3.616,2.611-4.083,4.719-.494,2.227-2.049,3.7-2.941,5.565-1.274,2.666-3.368,3.49-5.878,3.841A3.9,3.9,0,0,0-.32,382.147c-.641,1.1-1.908,1.061-3.276,1.259-2.906.42-5.786-1.063-8.611.227a2.958,2.958,0,0,1-2.83-.3,1.266,1.266,0,0,0,1.026,1.582c1.357.112,1.929.465,1.331,1.914-.243.589.136.817.8.6a9.377,9.377,0,0,1,2.078-.4,1.733,1.733,0,0,1,1.847,1.236,1.271,1.271,0,0,1-.851,1.9c-2.1.7-1.539,2.561-1.811,4.044-.06.33.346.46.678.531,2.155.459,3.369,3.622,6.221,2.125,1.406-.738,2.834-1.62,3.987.537.2.367,1.273.514,2.184.079.506-.241,2.043-1.972,2.6.286.465-.182,1.092-.239,1.356-.578.36-.46.035-.906-.583-.837-.455.051-.8.018-.957-.447-.191-.581-.121-1.367.38-1.511,1.745-.5,1.271-3.615,3.454-3.137a8.08,8.08,0,0,1,3.76,2.321c.882.912-.691,1.765-.7,2.737,2.294-.992,3.022-4.862,1.135-6.564-1.085-.979-1.756-2.729-3.916-1.737-.712.327-.617-.784-.451-1.417.8-3.046,2-5.951,2.511-9.125a8.114,8.114,0,0,1,4-5.437c.724-.432,1.657-.553,2.072-1.477.17-.378.986-.444.939-.176-.356,2.039,2.332.916,2.446,2.452.034.455.509.14.748.014a10.9,10.9,0,0,1,2.426-.757c2.712-.7,2.951-1.538.549-2.966-.169-.1.4-1.2-.6-.415-1.134.885-2.453,1.831-4.145.793-2.355-1.445-2.742-2.716-1.357-5.111a4.283,4.283,0,0,0,1.024-2.472C17.314,362.906,16.864,364.724,15.851,366.056ZM.231,252.335c-1.88.236-1.345,2.212-1.331,3.6a.871.871,0,0,0,.867.966c3.05.019,1.235,1.3.545,2.192-.484.624-1.284,1.041-1.65,1.711-.415.76.338,1.508.709,2.079a1.385,1.385,0,0,0,1.938.27c1.232-1.262,2.2-.947,3.237.517.943-1.984.321-3.427-.625-4.849-.393-.592-.939-1.36-.154-1.915.956-.674,1.142.444,1.552.937,1.468,1.768,2.3,3.971,3.9,5.66.784.826.328,1.816.04,2.724-.352,1.115-.106,2.289.949,2.5,1.008.2,2.36.077,2.3-1.806-.042-1.308.9-2.575.562-3.976-.279-1.164.163-2.671-1.955-2.825-.926-.068-1.079-1.587-1.226-2.571-.445-2.955-2.741-5.045-3.586-7.807a.7.7,0,0,0-.948-.49c-.789.267-1.008.9-1.107,1.682-.22,1.716-.553,3.406-2.427,4.738C1.739,253.992,1.856,252.13.231,252.335ZM16.752,218.65c.187-1,.181-1.47-.816-1.8a4.4,4.4,0,0,1-2.124-1.041c-.892-1.217-1.741-.969-2.6-.221a2.221,2.221,0,0,0-.2,3.056c.418.653.845,1.331,1.314,1.953.542.719.612.937-.371,1.228-.606.179-.694,3.736-.13,4.078,1.1.663,1.55-.256,2.259-1.24C13.432,222.207,16.307,221.015,16.752,218.65Zm54.37-55.23c-2.936-2.024.071-4.645-1.357-6.541-2.561.974-3.436,2.972-2.443,5.446.678,1.687,1.092,3.483,1.811,5.149.278.642,1.075,1.06,1.727,1.666C72.032,167.134,71.938,163.982,71.122,163.42Zm-56.04,79.07a1.479,1.479,0,0,0,.541-1.716c-.7-1.953.069-2.851,1.906-3.3a1.165,1.165,0,0,0,.911-1.483c-.28-.876-.426-1.938-1.6-2.214-.786-.184-1.159.295-1.541.854-.887,1.3-1.573,2.654-3.189,3.437-1.377.666-.651,3.021,1.144,4.12A1.97,1.97,0,0,0,15.082,242.49ZM60.573,114.656c.633.058.811.524.539,1.031-.635,1.181.369,1.521,1.022,1.632a1.623,1.623,0,0,0,1.94-1.3c.407-2.33-.97-4.413-1.087-6.693-.023-.445-.684-.462-.985-.2-.831.719-1.591,1.52-2.489,2.4C59.812,112.535,57.485,114.373,60.573,114.656Zm7.991-20.918a6.57,6.57,0,0,1,3.21-3.885c-.652-1.3-1.956-1.111-2.913-1.58a.843.843,0,0,0-1.25.7c-.238,1.66-1.39,3.963-1.061,4.7,1.308,2.943-1.71,3.627-2.175,5.68C67.805,98.9,67.981,95.715,68.564,93.738ZM52.24,86.178a42.8,42.8,0,0,0,5.392.865c.669.052,2.113.089,1.964-.75s-.468-2.345-1.928-2.325a6.768,6.768,0,0,1-3.631-.848c-1.3-.737-1.535,1.07-2.436,1.258C50.853,85.392,51.294,85.981,52.24,86.178ZM33.819,193.261c-.839.365-1.117,1.629-2.493,1.392-.7-.121-.638.644-.367,1.243.478,1.054.872,2.146,1.3,3.222,1.635-2.118,3.859-3.868,4.172-6.85C35.072,191.388,34.658,192.9,33.819,193.261Zm14.4-25.515c.519-.924.677-1.134-.42-1.647a4.253,4.253,0,0,0-3.845.3c-.254.113-.605.642-.556.706,2.007,2.612-1.862,2.607-1.871,4.823C44.154,170.889,46.743,170.383,48.224,167.746Zm63.119,12.678c1.865.154,3.562-.91,5.448-.676a.679.679,0,0,0,.646-1.006c-.564-.944-1.371-2.4-2.4-1.969-1.445.6-3.494.419-4.29,2.4C109.689,180.1,110.2,180.33,111.343,180.424ZM-48.1,382.39c-.869.1-1.736.428-1.7,1.62.035,1.029.787,1.175,1.553,1.483,1.722.694,3.25-.468,5.382-.143C-44.395,383.145-45.957,382.138-48.1,382.39ZM19.384,267.813c-.274-.228-.469-.43-.757-.194-.316.258-.327.665-.424,1.055-.359,1.442.694,2.517.9,3.816a26.25,26.25,0,0,0,1.222,3.885C21.948,273.8,21.4,269.49,19.384,267.813Zm-6.124,3.572c0,.055.11.173.154.166.295-.045.668-.022.864-.194,1.422-1.244,2.885-2.513,1.955-4.719-.344-.819-1.159-.767-1.864-.744-.26.008-.51.309-.782.49C13.473,268.093,13.361,269.738,13.26,271.385ZM52.925,356c-.948-1.922-2.059-1.972-3.427-.407-.213.243-.386.8-.142.766,1.639-.216.139,2.835,2.028,1.983a6.931,6.931,0,0,1,3.418-.614C54.077,356.924,53.316,356.794,52.925,356ZM-31.243,202.432c-.063.782-.354,1.6.422,2.21a.647.647,0,0,0,1.029-.127c.467-.77,1.966-.909,1.555-2.148a25.428,25.428,0,0,1-.726-3.9A6.3,6.3,0,0,0-31.243,202.432Zm43.378,165.3c-1.7-.92-4.257.931-7.034,5.183A34.377,34.377,0,0,0,12.135,367.727Zm22.551,17.492c.4.825,1.624.736,2.381.548.862-.215,2.462-.674.639-1.978-.566-.4-.409-.818.089-1.094.786-.435,1.095-1.287.553-1.748-.743-.63-1.415.129-1.895.793-.28.387-.546.784-.9,1.3C35.225,383.663,34.29,384.406,34.686,385.219Zm-63.825-19.631c.033-.5-.206-1.292-.883-1.221-.916.1-.731,1.112-.56,1.521.426,1.027-.153,2.2.678,3.176.388.454-.2,1.674.78,1.741,1.256.086.461-1.09.658-1.646.288-.816,1.25-.251,1.59-1.3C-28.341,367.688-29.24,367.132-29.139,365.588Zm49.265-8.241a1.768,1.768,0,0,0,.456,2.195c.493.343.91-.164,1.222-.486.622-.643,1.216-1.36.58-2.319a9.406,9.406,0,0,1-1.081-3.42C19.8,354.387,20.623,356.05,20.126,357.347ZM72.392,176.518a1.34,1.34,0,0,0,.057.908c.319.489.649.111.974-.1a10.866,10.866,0,0,1,3.674-1.166C74.606,174.051,72.877,174.28,72.392,176.518Zm-82.664,42.654c-.4-.305-1.5.381-1.819,1.2a.9.9,0,0,0,.686,1.3,3.252,3.252,0,0,1,2.531,1.141A3.184,3.184,0,0,0-10.272,219.172ZM29.4,124.786a1.683,1.683,0,0,0,2.558-.181c.607-.671.159-1.712-.537-2.275-.97-.785-1.955-.2-2.857.2C27.846,123.7,28.855,124.2,29.4,124.786Zm-5.5,131.605a.813.813,0,0,0-.764-1.008,1.117,1.117,0,0,0-.765.773c-.145,1.462-.173,2.935-.243,4.4C23.51,259.369,23.378,257.777,23.892,256.391Zm-5.683-14.428a.833.833,0,0,0-.793-.975c-.472-.038-.718.325-.767.731-.165,1.382-1.553,3.161,1.285,3.7C18.038,244.151,18.146,243.058,18.209,241.963Zm7.14,118.5c-.067-.446.231-1.037-.408-1.153-.549-.1-.818.466-1,.884-.412.932-.743,1.9-1.106,2.852C23.547,362.084,25.622,362.31,25.349,360.462ZM71.784,111.545c.148-.272-.41-.549-.681-.454-1.329.467-.46,1.758-1.21,2.582C71.845,113.819,71.365,112.315,71.784,111.545Zm-20.261,83.86c.514-.529,1.6-.594,1.439-1.649-.03-.194-.481-.447-.748-.46-1.053-.052-1.11.979-1.563,1.572-.176.23-.375.531.061,1.1A5.215,5.215,0,0,0,51.523,195.405Zm9.533-105.9c.286-.217.5-.55.243-.776-.938-.836-1.927.081-3.513-.267C59.156,89.592,59.921,90.367,61.056,89.506ZM18.229,375.1c.445.31.665-.155.859-.467.339-.548.05-.882-.457-1.041a.779.779,0,0,0-1,.329A1.257,1.257,0,0,0,18.229,375.1ZM8.13,392.415a.8.8,0,0,0,.2-.058c-.047-.04-.093-.113-.14-.112s-.114.06-.171.094C8.054,392.366,8.094,392.417,8.13,392.415Z" style="fill: #1c2d28"/>
        <path d="M-24.582,186.781c1.755-.943,3.74-1.566,5.285-2.765a9.1,9.1,0,0,1,6.961-1.9c3.421.382,6.838.8,10.257,1.206A9.519,9.519,0,0,1,1.638,185.9c2.773,3.5,3.3,7.673,3.594,11.891a4.879,4.879,0,0,1-.875,2.31c-2.212-.658-2.588,1.3-3.418,2.459-.962-.53.84-1.484-.407-1.745-.569-.119-1.713.186-1.644.638.413,2.73-1.236,5.307-.529,7.982.193.734-.75,2.116.974,2.215.492.029.932.082,1.247-.45.8-1.356-1.257-1.259-1.089-2.492,1,.25,1.567-.9,3.077-.2A45.25,45.25,0,0,1,8.8,212.245c2.394,1.612,2.071,2.6,1.189,4.517A6.527,6.527,0,0,1,8.857,219.1a1.551,1.551,0,0,1-1.485.594c-2.749-.677-2.941-.518-2.563,2.023-2.241-1.064-4.752-.872-7.135-1.643-4.5-1.457-7.944-4.73-8.178-9.368-.075-1.476.985-3.093-1.958-3.8-1.573-.379-2.384-.1-2.74.675-1.079,2.362-2.515,4.9-2.482,7.35.045,3.326.3,6.867,2.519,9.852a17.19,17.19,0,0,1,2.785,4.951c.149.472.409,1.034-.047,1.316-.542.337-.748-.268-1.026-.653-1.482-2.044-3.243-3.564-6.014-2.74-.808.241-1.2-.244-1.654-.673a6.427,6.427,0,0,1-2.27-4.812c.015-3.123-1.79-5.749-2.355-8.715-.135-.712-.5-.945-1.385-.759-1.282.269-1.366-.478-.986-1.605,1.027-3.045,3.221-5.292,5.34-7.474,1.105-1.138,1.842-2.062,1.757-3.623-.036-.658.816-1.574-.057-1.914s-1.025.8-1.319,1.392c-.875,1.754-2.055.271-2.839.079-1.138-.28-.453-1.164.084-1.84a11.293,11.293,0,0,0,2.427-6.681c-3.229.778-3.18,4.833-6.5,5.854a15.016,15.016,0,0,1,2.363-4.645,4.108,4.108,0,0,0,.469-3.983C-26.1,187.384-25.264,187.146-24.582,186.781Zm17.868-.578c-.455.733-.593.907-.678,1.1-.217.5.7,1.48-.414,1.5-.927.015-.911-.843-.747-1.639.113-.552.512-1.329-.434-1.589-.424-.116-.917-.359-1.353.042,1.013.74-.629,1.727.23,2.48a9.02,9.02,0,0,1,1.253,1.109c1.158,1.485,2.918,2.744,1.744,5.108a1.377,1.377,0,0,0,.53,1.874c.7.292.922-.4,1.16-.9.068-.144.075-.329.17-.446.476-.584,1.8,1.378,1.817-.592.009-.952-.763-1.559-1.135-2.345-.551-1.161.145-1.982.813-2.8a3.545,3.545,0,0,1,3.864-.731.849.849,0,0,0,1.259-.7c.007-.6-.607-.589-1.088-.671-1.922-.329-3.715-1.316-6.077-1.1a4.1,4.1,0,0,1,2.061,3.238C-5.108,188.768-6.568,188.512-6.714,186.2Zm-.69-1.758c.145.078.372,0,.564-.009-.073-.185-.1-.436-.231-.537s-.377-.039-.723-.057C-7.615,184.135-7.551,184.367-7.4,184.445Zm8.5,15.54c.069-.025.174-.033.2-.082s-.03-.138-.049-.209l-.209.077Z" style="fill: #9bb0aa"/>
        <path d="M113.349,103.068c-1.69-1.738-2.019-3.879-4.216-4.52C110.018,100.332,110.809,102.059,113.349,103.068Z" style="fill: #9bb0aa"/>
        <path d="M113.6,103.746c.143,1.875,1.2,2.867,3.172,3.143C116.294,105.175,114.626,104.776,113.6,103.746Z" style="fill: #9bb0aa"/>
        <path d="M165.013,188.063c0-1.395,0-1.395-1.658-1.895l1.646,1.9Z" style="fill: #9bb0aa"/>
        <path d="M45.142,62.764c.62.187,1.09.17.94-.691A.833.833,0,0,0,45.142,62.764Z" style="fill: #9bb0aa"/>
        <path d="M149.446,147.189l-.577-.925.032-.008c-.122.5.224.712.57.923Z" style="fill: #9bb0aa"/>
        <path d="M124.173,115.591l.239.6.209-.1c-.161-.162-.323-.323-.484-.484Z" style="fill: #9bb0aa"/>
        <path d="M119.527,125.805l.02-.2.008.2Z" style="fill: #9bb0aa"/>
        <path d="M72.624,60.359c-.117-.506-.99-1.493.085-1.387,1.514.149,1.58-.967,2.291-1.6,1.842-1.63.629-2.387-.82-2.626-2.022-.335-4.052-1.2-6.165.42-1.08.828-3.007,1.066-3.385-1.384-.165-1.069-1.109-.761-1.267-.157-.516,1.975-2.231,1.267-3.392,1.809-1.676.781-3.449-.288-5.091.56a2.516,2.516,0,0,0-1.653,2.171c.04,1.685-.6,1.525-1.754,1s-2.04.14-1.35,1.143c1.25,1.819.022,2.95-.586,4.345-.271.621-1.494,1.382-.346,1.956,1,.5.845-.867,1.13-1.383.9-1.63,1.579-3.443,3.957-3.2.676.069.762-.282.807-.847.176-2.223.515-2.566,1.926-1.254,1.7,1.583,2.346.069,3.478-.231-.253-.9-.863-.67-1.272-.838-.737-.3-1.035-.783-.579-1.491.472-.733,1.039-.638,1.547-.01,1.575,1.945,3.47,2.036,5.508.884.914-.518,2.073-.447,2.421.176,1.083,1.938,2.659,2.2,4.559,1.932Z" style="fill: #1c2d28"/>
        <path d="M130.546,142.85a2.2,2.2,0,0,0-.292-2.416c-1.39-1-.337-1.668.23-2.6a2.433,2.433,0,0,1-3.221-.578c-1.119-1.163.578-1.975.359-3.146-.985,2.153-3.863,2.791-4.139,5.524-.05.492-.255.918.242,1.267a1.028,1.028,0,0,0,1.307-.068,4.432,4.432,0,0,1,1.52-.632.989.989,0,0,1,1.241.848c.185.938-.542.731-1.068.8-1.028.137-2.049.329-3.078.466a3.349,3.349,0,0,0-2.657,4.358,1.87,1.87,0,0,1-.147,1.805,2.092,2.092,0,0,0,.311,2.616,3.647,3.647,0,0,1,4.006-1.679c1.55.269,2.575-.111,1.757-2.239-.658-1.709,1.216-2.945,1.719-4.5.223-.691,1.283-.131,1.931.174Z" style="fill: #fefefe"/>
        <path d="M135.6,126.872a1.361,1.361,0,0,1,.221,1.791c-1.683,2.176.1,2.386,1.522,2.828.375.116.8.161.824.694-2.238,1.539-2.4,2.233-.773,3.35,2.078,1.427,1.988,2.482-.231,3.737-1.443.817-3.362.749-4.388,2.371a.914.914,0,0,1-.859.095c-.493-.266-.169-.7-.033-1.045.628-1.59,1.15-3.313-.15-4.671-1.339-1.4-.874-2.671-.424-4.138a14.57,14.57,0,0,1,1.606-2.95c.259-.45.821-1.042-.021-1.376-1.451-.575-1.9-2.121-3.312-2.991C132.663,123.268,133.876,125.718,135.6,126.872Zm-2.2,8.6c.411.878.5,1.966,1.523,2.45.053.025.412-.324.387-.449a4.194,4.194,0,0,0-1.776-2.947C133.449,135.051,133.321,135.31,133.4,135.474Z" style="fill: #fefefe"/>
        <path d="M149.471,147.179c-.346-.211-.692-.423-.57-.923a4.449,4.449,0,0,1-2.984-4.43c-.035-.853-.638-1.464-1.067-1.124a3.685,3.685,0,0,1-3.054.526c-.674-.068-.732.257-.121,1,.143.175.407.271.256.525-1.245,2.095-.02,3.656.919,5.436.517.98.276,2.291,2.039,1.788.134-.038,1.428,0,1.249,1.171-.092.594.28,1.422,1.153,1.036.627-.277.672-.882.367-1.629C146.941,148.8,147.487,147.564,149.471,147.179Z" style="fill: #fefefe"/>
        <path d="M94.472,92.172c-.267.828-.526,1.584-.754,2.349-.3,1,.188,1.442,1.1,1.208,1.735-.444,2.913.576,4.154,1.427.654.449,1.687.785.332,1.837-.936.726.262,1.365.645,1.967a.954.954,0,0,0,1.447.271c.792-.445.617-.788.282-1.507a2.889,2.889,0,0,1-.05-2.291c1.357-2.4-1.165-3.957-1.164-6.046,0-.462-.773-.939-1.35-.716-1.37.532-2.634,1.4-4.231,1.04C94.776,91.687,94.582,92.043,94.472,92.172Z" style="fill: #1c2d28"/>
        <path d="M98.569,81.427c-1.585-1.883.093-5.1-3.227-5.326-1.312-.089-3.317,2.343-2.863,3.341C93.611,81.926,95.935,81.369,98.569,81.427Z" style="fill: #fefefe"/>
        <path d="M89.633,147.426c-2.159,1.276-.067,2.112.748,2.506a2.835,2.835,0,0,0,3.3-1.074c.971-1.3.232-2.869-.084-4.313C92.105,145.147,90.259,145.24,89.633,147.426Z" style="fill: #1c2d28"/>
        <path d="M125.389,132.468c-1.623.938-3.265.931-4.467-.2-1.592-1.507-2.966.221-4.463.018-.494-.068-.115,1.42.109,2.107.2.626.728.405,1.088-.057.9-1.153,1.724-.859,2.57.093,1.188,1.336,2.922.854,4.261.782C125.9,135.13,124.5,133.273,125.389,132.468Z" style="fill: #fefefe"/>
        <path d="M156.756,189.511a7.409,7.409,0,0,0-.449-7.794C154.933,183.449,155.093,187.066,156.756,189.511Z" style="fill: #fefefe"/>
        <path d="M80.87,84.339c1-1.169,2.873-1.758,2.659-3.879-.039-.392.144-.8-.332-.984a1.451,1.451,0,0,0-.649.033C82.6,81.354,79.254,81.971,80.87,84.339Z" style="fill: #1c2d28"/>
        <path d="M72.673,60.35c-.47,1.563-1.9,2.729-1.873,4.51,2.343-.84,2.879-2.174,1.823-4.5Z" style="fill: #1c2d28"/>
        <path d="M91.071,104.4c-1.216,1.256-3.854,1.365-2.513,4.057.157.314-.049.915.526.871a.606.606,0,0,0,.466-.911C88.748,106.59,91.619,106.446,91.071,104.4Z" style="fill: #1c2d28"/>
        <path d="M68.353,68.533a19.9,19.9,0,0,0-1.394,2.019c-.253.489-1.161,1.076-.334,1.589.613.379,1.138-.372,1.52-.884A2.126,2.126,0,0,0,68.353,68.533Z" style="fill: #1c2d28"/>
        <path d="M88.054,74.087a1.469,1.469,0,0,0,.191,1.76c.409.33.847-.123,1.066-.576s.859-.942.247-1.452C89.076,73.418,88.5,73.632,88.054,74.087Z" style="fill: #1c2d28"/>
        <path d="M82.425,75.275c-.823-.647-1.447-1.139-2.073-1.628-.429-.334-.762-1.374-1.426-.42-.465.667.31.969.789,1.164C80.5,74.71,81.118,75.467,82.425,75.275Z" style="fill: #1c2d28"/>
        <path d="M114.87,110.388a1.946,1.946,0,0,1,1.323,1.5.679.679,0,0,0,.894.518.651.651,0,0,0,.572-.631.889.889,0,0,0-.531-.957,21.374,21.374,0,0,0-2.254-.4Z" style="fill: #fefefe"/>
        <path d="M90.869,103.419c.377.23.78.3,1-.152a.646.646,0,0,0-.446-.933,1,1,0,0,0-.846.164C90.2,102.885,90.5,103.193,90.869,103.419Z" style="fill: #1c2d28"/>
        <path d="M139.355,186.362c.671.053,1.343.535,2.036.012-.988-.754-.988-.754-2.025.031Z" style="fill: #1c2d28"/>
        <path d="M130.567,142.847l-1.32,2.13c.883-.475,1.626-1.028,1.3-2.127Z" style="fill: #fefefe"/>
        <path d="M162.163,195.379c.434.161.891.329,1.13-.253.055-.133-.092-.5-.172-.513-.558-.057-.665.486-.95.8Z" style="fill: #fefefe"/>
        <path d="M112.442,158.314l.4-.014c-.159-.363-.281-.22-.395.029Z" style="fill: #1c2d28"/>
        <path d="M63.586,121.055a2.212,2.212,0,0,0-1.655-1.245c-.328-.1-1.153-.251-.741.592.777,1.585-.811.965-1.236,1.259-.726.5-1.063-.2-1.313-.853a6.76,6.76,0,0,0-1.116-2.368c-.7-.713-1.257-2.027-2.905-.8-.76.565-2.516.008-3.734-.341-.71-.2-.7-.963.015-1.494.532-.4,1.318.066,2.028-.947-1.149-.215-1.786-1.144-3.182-.3-1.289.783-2.777-.16-3.981-.638-1.238-.491-1.087-.381-1.1.745-.011.833,1.068,2.611-1.514,2.351-.653-.065-1.554,2.339-2.451,3.787.223-1.725-.889-1.36-1.692-1.078-1.1.387-2.485.945-2.315,2.308.122.983-.573,3.145,2.182,2.417,1.237-.326,1.123,1.172.688,2.134-1.083,2.4-.671,2.894,1.956,3.431.951.195,3.862-.5,2.095,2.437-.248.414.522.685.91.932a42.977,42.977,0,0,1,4.162,2.709,1.755,1.755,0,0,0,1.951.4c3.161-1.335,5.528.8,8.121,1.851.771.313.159.943-.1,1.4l-.01-.041c1.508,1.556,3.359.491,4.929.378,2.466-.177,4.839-.424,7.228.406.8.277.846-.452.967-1,.478-2.139-.939-5.207-3.013-5.879-2.731-.885-5.13-2.945-8.268-2.449-.65.894,1.34,3.329-1.2,2.837-1.82-.351-3.42.162-5.12.09-1.66-.071-3.018-.368-3.483-2.221-.194-.775-.869-1.117-1.471-1.512-.352-.231-.67-.511-.479-.967.243-.581.777-.467,1.248-.393.8.127,1.122.869,1.6,1.379,1.242,1.337,2.467,1.592,3.792.151a10.423,10.423,0,0,1-5.036-5.119c-.606-1.42-.3-2.831.76-3.42.99-.548,2.193-.136,3.117,1.244,1.258,1.877,3.113,3.38,5.731,3.072.723-.085,1.573-.23,1.993.443,1.783,2.859,4.575,4.56,7.438,5.88,2.563,1.183,2.869,4.058,5.021,5.423,1.32.838,2.2,2.251,3.68,2.952.8.378,1.53,1.079,2.31.1.711-.894.83-2.358.186-2.852-3.113-2.389-5.123-5.791-8.022-8.347-.313.765.092,2.717-1.653,1.344-1.962-1.543-4.18-2.741-5.919-4.607a3.38,3.38,0,0,1-.872-3.989l.008.034C63.363,122.329,63.013,121.84,63.586,121.055Z" style="fill: #9bb0aa"/>
        <path d="M53.737,186.089c1.557.267,1.191-2.247,2.813-1.891.559.973-.315,1.594-.66,2.355-.147.324-.156.663.194.821.586.264.7-.181.683-.6-.016-.565-.119-1.135.312-1.6.66-.707,1.517-1.15,2.334-.52a1.315,1.315,0,0,1,0,2.251,6.736,6.736,0,0,0-1.873,2.513,4.57,4.57,0,0,0,3.084-1.94,6.685,6.685,0,0,1,2.139-2.251,1.483,1.483,0,0,1,1.782.07c.77.562.349,1.088.017,1.648a7.057,7.057,0,0,1-2.512,2.839c-1.82,1.022-3.059,2.656-4.838,4.764,2.585-.381,4.422-.751,5.778-2.382.46-.553.766-1.434,1.34-1.657,3.209-1.248,5.032-3.378,5.242-6.921.052-.872.717-1.694,1.727-.363.723.952,1.968.293,2.957.4.64.067,1-.761.728-1.469a1.493,1.493,0,0,0-.767-.863c-3.208-.895-4.008-4.44-6.678-6.046-.952-.573-.987-1.087-2.066-.224-2.028,1.623-3.42,1.185-4.88-1.132a7.414,7.414,0,0,0-.633-.946c-2.089,1.078-2.378-.66-3.012-1.873a.552.552,0,0,0-.393-.248c-1.074-.049-1.54,1.947-2.93.876a13.405,13.405,0,0,0-.234,2.66c-.1,1.933.864,3.836.073,5.78-1.067,2.623-.86,2.838,1.937,2.627a6.577,6.577,0,0,1-1.649,3.368Z" style="fill: #9bb0aa"/>
        <path d="M30.274,139.724c-.846-.04-1.414-1.582-2.269-.727a2.019,2.019,0,0,0,.369,2.825c1.208,1.016.442,1.648.138,2.627-.4,1.277-2.333,2.91.458,3.983.451.173.306,1.244-.173,1.72-.551.548-.54,1.585-.8,1.8-2.349,1.879.013,5.371-2.536,7.084a.691.691,0,0,0-.2.378c2.455,1.9-.323,3.406-.5,5.08-.2,1.921.2,3.833-.2,5.721-.211,1-.64,1.885.9,2.464,1.165.437.514,2.116,1.267,3.659,1.055-2.113,2.833-3.324,2.567-5.641-.021-.184.172-.543.32-.575,3.167-.688.066-2.823.924-4.045.06-.086-.114-.527-.445-.3-1.937,1.341-1.407-.489-1.516-1.248-.1-.717-.344-2.041.606-1.915.785.1,2.705-.542,2.375,1.686,2.291-2.666,2.1-3.329.57-7.437-.517-1.389.055-3.276-.734-4.829,2.441.065.968-2.68,2.4-3.341l0,.033c-1.579-1.148-1.69-1.628-.769-3.324l.05.027c-1.761-1-1.395-2.769-1-4.087.764-2.551-.964-3.632-2.188-5.443-.752,1.675.221,2.692.351,3.833,0,.064-.009.128-.013.191Z" style="fill: #9bb0aa"/>
        <path d="M53.751,186.137c-.371.075-.927-1.163-1.083.071-.092.732.476,1.582-.567,2.063-.861-.487-.395-1.309-.515-1.958a2.182,2.182,0,0,0-3.424-1.676,3.758,3.758,0,0,1-1.278.641c-.936.105-1.829-.159-1.242,1.467.321.891-.825,1.368-2.081.875-.582-.229-.9.05-1.211.453-1.765,2.317-3.814,4.442-4.682,7.347-.3,1-.516,2,.469,2.586.846.506,1.581-.212,2-.874,1.042-1.639,3.412-.429,4.46-2.2.227-.383.55.438.655.892.189.819.023,1.986,1.127,2.165,1.142.185.792-1.161,1.317-1.715,2.12-2.237,4.541-4.24,5.4-7.47a24.45,24.45,0,0,0,.639-2.719Z" style="fill: #9bb0aa"/>
        <path d="M79.515,94.175c.014-2.539-.481-2.772-2.794-1.646-1.318.641-2.143-.583-3.413-1.706.25,1.929-.635,3.32,0,4.839a1.119,1.119,0,0,1,.052.879c-1.861,2.621,1.154,2.763,2.09,3.528,1.016.831,2.2-.4,2.3-1.556.147-1.7,1.183-2.928,1.752-4.392Z" style="fill: #9bb0aa"/>
        <path d="M70.86,169.14c1.172-2.006,1.078-5.158.262-5.72-2.936-2.024.071-4.645-1.357-6.541-2.561.974-3.436,2.972-2.443,5.446.678,1.687,1.092,3.483,1.811,5.149C69.411,168.116,70.208,168.534,70.86,169.14Z" style="fill: #9bb0aa"/>
        <path d="M55.368,130.536c-1.325,1.441-2.55,1.186-3.792-.151-.474-.51-.792-1.252-1.6-1.379-.471-.074-1-.188-1.248.393-.191.456.127.736.479.967.6.395,1.277.737,1.471,1.512.465,1.853,1.823,2.15,3.483,2.221,1.7.072,3.3-.441,5.12-.09,2.544.492.554-1.943,1.2-2.837l-3.242.055c-.485.486-.889.554-1.126-.222Z" style="fill: #fefefe"/>
        <path d="M59.513,111.521c.3,1.014-2.028,2.852,1.06,3.135.633.058.811.524.539,1.031-.635,1.181.369,1.521,1.022,1.632a1.623,1.623,0,0,0,1.94-1.3c.407-2.33-.97-4.413-1.087-6.693-.023-.445-.684-.462-.985-.2C61.171,109.844,60.411,110.645,59.513,111.521Z" style="fill: #9bb0aa"/>
        <path d="M64.375,99.36c3.43-.463,3.606-3.645,4.189-5.622a6.57,6.57,0,0,1,3.21-3.885c-.652-1.3-1.956-1.111-2.913-1.58a.843.843,0,0,0-1.25.7c-.238,1.66-1.39,3.963-1.061,4.7C67.858,96.623,64.84,97.307,64.375,99.36Z" style="fill: #9bb0aa"/>
        <path d="M51.6,84.378c-.748,1.014-.307,1.6.639,1.8a42.8,42.8,0,0,0,5.392.865c.669.052,2.113.089,1.964-.75s-.468-2.345-1.928-2.325a6.768,6.768,0,0,1-3.631-.848C52.741,82.383,52.5,84.19,51.6,84.378Z" style="fill: #9bb0aa"/>
        <path d="M64.1,122.657a3.38,3.38,0,0,0,.872,3.989c1.739,1.866,3.957,3.064,5.919,4.607,1.745,1.373,1.34-.579,1.653-1.344-1.334-1.629-3.6-2.112-4.8-3.914-.681.4-.965.226-.829-.566-.976-.307-1.224-1.209-1.624-1.987Z" style="fill: #fefefe"/>
        <path d="M36.432,192.268c-1.36-.88-1.774.629-2.613.993s-1.117,1.629-2.493,1.392c-.7-.121-.638.644-.367,1.243.478,1.054.872,2.146,1.3,3.224C33.9,197,36.119,195.25,36.432,192.268Z" style="fill: #9bb0aa"/>
        <path d="M41.532,171.924c2.622-1.035,5.211-1.541,6.692-4.178.519-.924.677-1.134-.42-1.647a4.253,4.253,0,0,0-3.845.3c-.254.113-.605.642-.556.706C45.41,169.713,41.541,169.708,41.532,171.924Z" style="fill: #9bb0aa"/>
        <path d="M110.749,179.171c-1.06.928-.546,1.159.594,1.253,1.865.154,3.562-.91,5.448-.676a.679.679,0,0,0,.646-1.006c-.564-.944-1.371-2.4-2.4-1.969C113.594,177.376,111.545,177.192,110.749,179.171Z" style="fill: #9bb0aa"/>
        <path d="M66.922,125.429c-.136.792.148.97.829.566,2.079-.962.277-2.354.391-3.533-1.34-.084-2.092-2.107-3.751-1.139q-.141.684-.281,1.368l-.008-.034,1.2.784C67.089,123.083,67.064,124.208,66.922,125.429Z" style="fill: #9bb0aa"/>
        <path d="M77.1,176.156c-2.491-2.105-4.22-1.876-4.7.362a1.34,1.34,0,0,0,.057.908c.319.489.649.111.974-.1A10.866,10.866,0,0,1,77.1,176.156Z" style="fill: #9bb0aa"/>
        <path d="M28.56,122.531c-.714,1.167.3,1.673.836,2.255a1.683,1.683,0,0,0,2.558-.181c.607-.671.159-1.712-.537-2.275C30.447,121.545,29.462,122.133,28.56,122.531Z" style="fill: #9bb0aa"/>
        <path d="M79.511,94.121a3.717,3.717,0,0,0,.715,1.666c.647.738,1.332,2.1,2.216,1.375,1.266-1.044-.406-2.067-.826-3.037-.551-1.274-1.418-.973-2.1.051Z" style="fill: #9bb0aa"/>
        <path d="M69.8,150.082a13.858,13.858,0,0,0-2.98-4.549c-1.1.275.578,2.116-1.235,1.906-.279-.032.077.962.167.9,2.289-1.544,2.746,1.145,4.09,1.731Z" style="fill: #9bb0aa"/>
        <path d="M69.893,113.673c1.952.146,1.472-1.358,1.891-2.128.148-.272-.41-.549-.681-.454C69.774,111.558,70.643,112.849,69.893,113.673Z" style="fill: #9bb0aa"/>
        <path d="M50.712,195.965a5.215,5.215,0,0,0,.811-.56c.514-.529,1.6-.594,1.439-1.649-.03-.194-.481-.447-.748-.46-1.053-.052-1.11.979-1.563,1.572C50.475,195.1,50.276,195.4,50.712,195.965Z" style="fill: #9bb0aa"/>
        <path d="M57.786,88.463c1.37,1.129,2.135,1.9,3.27,1.043.286-.217.5-.55.243-.776C60.361,87.894,59.372,88.811,57.786,88.463Z" style="fill: #9bb0aa"/>
        <path d="M64.11,122.691q.141-.684.281-1.368l-.806-.269C63.013,121.84,63.363,122.329,64.11,122.691Z" style="fill: #fefefe"/>
        <path d="M56.121,131.005c.237.776.641.708,1.126.222A.763.763,0,0,0,56.121,131.005Z" style="fill: #9bb0aa"/>
        <path d="M69.841,150.071l.131.427-.173-.416Z" style="fill: #9bb0aa"/>
        <path d="M58.656,139.754l-.176-.019.166-.022Z" style="fill: #9bb0aa"/>
        <path d="M-3.758,189.107a3.545,3.545,0,0,1,3.864-.731.849.849,0,0,0,1.259-.7c.007-.6-.607-.589-1.088-.671-1.922-.329-3.715-1.316-6.077-1.1a4.1,4.1,0,0,1,2.061,3.239Z" style="fill: #1c2d28"/>
        <path d="M133.531,134.528c-.082.523-.21.782-.134.946.411.878.5,1.966,1.523,2.45.053.025.412-.324.387-.449A4.194,4.194,0,0,0,133.531,134.528Z" style="fill: #9bb0aa"/>
        <path d="M33.021,145.4c-.921,1.7-.81,2.176.769,3.324A10.021,10.021,0,0,0,33.021,145.4Z" style="fill: #1c2d28"/>
        <path d="M30.274,139.724l-.054.2c0-.063.008-.127.013-.191Z" style="fill: #1c2d28"/>
        <path d="M66.922,125.429c.142-1.221.167-2.346-1.624-1.988C65.7,124.22,65.946,125.122,66.922,125.429Z" style="fill: #1c2d28"/>
      </g>
    </g>
  </g>
  <polygon points="204.411 104.462 162.931 172.476 0 172.476 0 194.648 279.306 194.648 1344.293 194.648 1344.293 104.462 204.411 104.462" style="fill: #212026"/>
  <g>
    <path d="M242.43,168.224l-.742,1.816a20.113,20.113,0,0,1-9.258,2.207q-7.05,0-11.455-4a13.481,13.481,0,0,1-4.4-10.468,13.809,13.809,0,0,1,2.2-7.784,13.631,13.631,0,0,1,5.8-4.98,19.227,19.227,0,0,1,8.1-1.65,24.359,24.359,0,0,1,5.136.546,21.641,21.641,0,0,1,4.239,1.309l.136.195a24.979,24.979,0,0,0-.839,5.41l-.137.157h-.918l-.156-.157-.2-3.32a10.559,10.559,0,0,0-3.447-1.767,13.975,13.975,0,0,0-4.209-.635,12.237,12.237,0,0,0-5.918,1.416,9.871,9.871,0,0,0-4.062,4.1,13.716,13.716,0,0,0-1.446,6.573,13.485,13.485,0,0,0,1.7,6.855,11.615,11.615,0,0,0,4.638,4.531,14.268,14.268,0,0,0,6.865,1.582,16.359,16.359,0,0,0,3.34-.332,12.564,12.564,0,0,0,2.666-.82,12.175,12.175,0,0,0,2.041-1.191Z" style="fill: #fff"/>
    <path d="M244.364,144.064l.156-.137q3.574.156,5.567.156,2.207,0,5.957-.137,1.386-.037,2.011-.039,4.941,0,6.7,1.8a5.888,5.888,0,0,1,1.757,4.258,6.681,6.681,0,0,1-.859,3.223,7.658,7.658,0,0,1-2.539,2.7,12.649,12.649,0,0,1-4.629,1.689q.546.762,1.973,2.637l2.773,3.672q1.349,1.816,2.891,3.838a12.355,12.355,0,0,0,1.992,2.285,2.478,2.478,0,0,0,.771.322,6.368,6.368,0,0,0,1.026.059l.156.156v.918l-.176.176a18.275,18.275,0,0,0-2.226-.117q-1.387,0-3.028.117Q263.29,170,260.4,165.958q-3.358-4.687-6.875-8.691l.195-.606q1.015.058,1.582.059a7.937,7.937,0,0,0,5.293-1.621,5.568,5.568,0,0,0,1.915-4.492,4.61,4.61,0,0,0-1.719-3.9,7.455,7.455,0,0,0-4.649-1.318,12.939,12.939,0,0,0-3.867.566q-.292.431-.293,7.324v9.043l.02,3.809a26.023,26.023,0,0,0,.117,2.852,1.821,1.821,0,0,0,.283.859,1.463,1.463,0,0,0,.713.361,15.429,15.429,0,0,0,2.6.225l.156.117v.977l-.156.156q-.1,0-3.438-.117-1.388-.04-2.168-.039-.6,0-5.586.156l-.156-.156v-.977l.156-.117a20.37,20.37,0,0,0,2.422-.2,1.8,1.8,0,0,0,.811-.3,1.542,1.542,0,0,0,.332-.791,17.951,17.951,0,0,0,.146-2.7l.02-4.121v-9.043l-.039-3.808q-.019-2.227-.108-2.871a1.766,1.766,0,0,0-.273-.86,1.42,1.42,0,0,0-.713-.351,16.766,16.766,0,0,0-2.6-.215l-.156-.137Z" style="fill: #fff"/>
    <path d="M271.415,143.927l2.441.078q2.4.078,3.145.078.663,0,5.605-.156l.156.137v.976l-.156.137q-1.347.039-2.08.117a2.526,2.526,0,0,0-1.064.293,1.382,1.382,0,0,0-.44,1.006,17.427,17.427,0,0,0-.107,2.2l-.039,4.492v9.043l.019,3.809a26.571,26.571,0,0,0,.117,2.852,1.83,1.83,0,0,0,.284.859,1.463,1.463,0,0,0,.713.361,15.4,15.4,0,0,0,2.6.225l.156.117v.977l-.156.156q-.1,0-3.437-.117-1.387-.04-2.168-.039-.606,0-5.586.156l-.156-.156v-.977l.156-.117a20.391,20.391,0,0,0,2.422-.2,1.794,1.794,0,0,0,.81-.3,1.533,1.533,0,0,0,.332-.791,17.9,17.9,0,0,0,.147-2.7l.019-4.121v-9.043l-.039-3.808q-.019-2.227-.107-2.871a1.775,1.775,0,0,0-.274-.86,1.416,1.416,0,0,0-.713-.351,16.733,16.733,0,0,0-2.6-.215l-.156-.137v-.976Z" style="fill: #fff"/>
    <path d="M307.313,143.927l.176.176q-.175,1.758-.176,6.133l-.156.156h-.918l-.156-.176-.215-1.8a17.108,17.108,0,0,0-.244-1.767.844.844,0,0,0-.283-.469,3.508,3.508,0,0,0-1.27-.244q-1.074-.1-2.4-.1h-3.692q-.156,4.414-.156,5.1v11.386l.039,3.809q.019,2.208.108,2.861a1.711,1.711,0,0,0,.273.86,1.53,1.53,0,0,0,.713.351,15.557,15.557,0,0,0,2.617.225l.137.117v.977l-.137.156q-5-.158-5.586-.156-.626,0-5.566.156l-.157-.156v-.977l.157-.117a20.2,20.2,0,0,0,2.431-.2,1.773,1.773,0,0,0,.8-.3,1.576,1.576,0,0,0,.342-.791,15.956,15.956,0,0,0,.137-2.7l.039-4.121V150.939q0-.312-.157-5.1H291.1q-1.8,0-3.1.078t-1.514.4a7.03,7.03,0,0,0-.381,2.1l-.195,1.8-.176.176h-.9l-.157-.156q-.039-4.707-.175-6.133l.175-.176q3.4.156,11.309.156Q304.052,144.083,307.313,143.927Z" style="fill: #fff"/>
    <path d="M309.4,143.927l2.441.078q2.4.078,3.145.078.663,0,5.605-.156l.157.137v.976l-.157.137q-1.347.039-2.08.117a2.531,2.531,0,0,0-1.064.293,1.386,1.386,0,0,0-.44,1.006,17.427,17.427,0,0,0-.107,2.2l-.039,4.492v9.043l.02,3.809a26.023,26.023,0,0,0,.117,2.852,1.821,1.821,0,0,0,.283.859,1.463,1.463,0,0,0,.713.361,15.412,15.412,0,0,0,2.6.225l.157.117v.977l-.157.156q-.1,0-3.437-.117-1.387-.04-2.168-.039-.6,0-5.586.156l-.156-.156v-.977l.156-.117a20.37,20.37,0,0,0,2.422-.2,1.789,1.789,0,0,0,.81-.3,1.532,1.532,0,0,0,.333-.791,18.094,18.094,0,0,0,.146-2.7l.02-4.121v-9.043l-.04-3.808q-.018-2.227-.107-2.871a1.777,1.777,0,0,0-.273-.86,1.42,1.42,0,0,0-.713-.351,16.766,16.766,0,0,0-2.6-.215l-.156-.137v-.976Z" style="fill: #fff"/>
    <path d="M348.973,168.224l-.742,1.816a20.113,20.113,0,0,1-9.258,2.207q-7.05,0-11.455-4a13.481,13.481,0,0,1-4.4-10.468,13.809,13.809,0,0,1,2.2-7.784,13.631,13.631,0,0,1,5.8-4.98,19.227,19.227,0,0,1,8.1-1.65,24.359,24.359,0,0,1,5.136.546,21.641,21.641,0,0,1,4.239,1.309l.136.195a24.979,24.979,0,0,0-.839,5.41l-.137.157h-.918l-.156-.157-.2-3.32a10.559,10.559,0,0,0-3.447-1.767,13.975,13.975,0,0,0-4.209-.635,12.237,12.237,0,0,0-5.918,1.416,9.871,9.871,0,0,0-4.062,4.1,13.716,13.716,0,0,0-1.446,6.573,13.485,13.485,0,0,0,1.7,6.855,11.615,11.615,0,0,0,4.638,4.531,14.268,14.268,0,0,0,6.865,1.582,16.359,16.359,0,0,0,3.34-.332,12.564,12.564,0,0,0,2.666-.82,12.175,12.175,0,0,0,2.041-1.191Z" style="fill: #fff"/>
    <path d="M350.946,171.681l-.176-.156v-1.016l.176-.156a8.349,8.349,0,0,0,1.836-.147,1.557,1.557,0,0,0,.732-.508,16.038,16.038,0,0,0,1.3-2.49l2.051-4.453,5.312-12.031q1.5-3.536,2.989-7.071h1.269l8.34,19.61,1.113,2.617q.489,1.113,1.123,2.422a7.387,7.387,0,0,0,.879,1.543,1.647,1.647,0,0,0,.606.361,6.47,6.47,0,0,0,1.611.147l.156.156v1.016l-.156.156q-2.07-.176-3.73-.176-3.241.1-6.485.176l-.156-.156v-1.016l.156-.156a15.677,15.677,0,0,0,2.735-.186.649.649,0,0,0,.547-.674,3.307,3.307,0,0,0-.274-1.132l-2.4-5.958H359.188l-2.129,5a5.885,5.885,0,0,0-.566,1.973.765.765,0,0,0,.527.723,8.942,8.942,0,0,0,2.656.254l.176.156v1.016l-.156.156q-2.52-.158-4.414-.156Q353.133,171.525,350.946,171.681Zm8.906-10.957h9.883l-4.9-11.778Z" style="fill: #fff"/>
    <path d="M381.923,144.064l.156-.137q4.844.156,5.586.156.663,0,5.6-.156l.156.137v.976l-.156.137q-1.347.039-2.08.117a2.526,2.526,0,0,0-1.064.293,1.386,1.386,0,0,0-.44,1.006,17.427,17.427,0,0,0-.107,2.2l-.039,4.492v8.633q0,3.243.039,4.531l.1,3.379h3.985q4.766,0,5.947-.117a8.034,8.034,0,0,0,2.276-.566,16.087,16.087,0,0,0,.615-2.246q.4-1.758.42-2.032l.175-.156h.957l.137.156a29.987,29.987,0,0,0-.322,3.028q-.165,2.246-.166,3.633l-.156.156q-3.711-.117-9.746-.117l-5.7-.039q-1.951,0-3.984.156l-.156-.156v-.645l.156-.195a8.248,8.248,0,0,0,1.328-.762,12.552,12.552,0,0,0,.244-2.52q.127-2.382.127-5.742v-8.379l-.039-3.808q-.018-2.227-.107-2.871a1.775,1.775,0,0,0-.274-.86,1.416,1.416,0,0,0-.713-.351,16.733,16.733,0,0,0-2.6-.215l-.156-.137Z" style="fill: #fff"/>
    <path d="M416.923,171.661l-.176-.175v-.9l.176-.156a13.665,13.665,0,0,0,1.9-.137,1.436,1.436,0,0,0,.918-.391,1.836,1.836,0,0,0,.273-.878q.069-.606.137-2.735t.068-3.047V147.462a2.449,2.449,0,0,0-.361-1.475,1.589,1.589,0,0,0-.986-.6,13.139,13.139,0,0,0-2.129-.146l-.156-.157v-.918l.156-.175q2.7.1,3.535.1,1.973,0,3.242-.1l6.231,8.085,9.16,11.485q1.659,2.09,3.379,3.965V152.4q0-.7-.069-3t-.166-2.91a1.4,1.4,0,0,0-.341-.83,1.918,1.918,0,0,0-.918-.322,13.763,13.763,0,0,0-1.827-.127l-.156-.156v-.9l.156-.175q1.583.1,4.512.1,2.676,0,3.887-.1l.176.175v.9l-.157.156a13.131,13.131,0,0,0-1.992.146,1.257,1.257,0,0,0-.879.42,2.242,2.242,0,0,0-.244.86q-.069.567-.137,2.695t-.068,3.066v9.278l.02,5.371q.039,2.637.078,5.293a31.244,31.244,0,0,0-3.379-.82l-1.387-1.641-4.16-5.078L422,148.263v14.98q0,.9.068,3.2a25.722,25.722,0,0,0,.166,2.793,1.581,1.581,0,0,0,.254.674,1.464,1.464,0,0,0,.674.342,9.47,9.47,0,0,0,2.138.176l.157.156v.918l-.157.156a27.635,27.635,0,0,0-3.281-.136Q419.11,171.525,416.923,171.661Z" style="fill: #fff"/>
    <path d="M450.3,144.064l.157-.137q6.7.117,8.574.117,6.405,0,11.406-.117l.1.137a33.311,33.311,0,0,0-.723,5.879l-.117.156h-.957l-.176-.156a2.9,2.9,0,0,0,.02-.313,19.031,19.031,0,0,0-.254-3.164,10.63,10.63,0,0,0-3.408-.713q-2.179-.165-3.272-.166-1.542,0-3.945.215l-.078,3.125-.059,3.574-.058,3.965q2.109.117,3.886.117,1.8,0,3.008-.117a5.048,5.048,0,0,0,1.416-.244.821.821,0,0,0,.313-.488,7.409,7.409,0,0,0,.185-1.28l.078-1.211.156-.156h.9l.156.156q-.039,2.13-.1,4.278l.1,4.394-.156.156h-.9l-.156-.156-.136-1.172q-.177-1.367-.254-1.631a.867.867,0,0,0-.362-.459,3.927,3.927,0,0,0-1.455-.312q-1.172-.117-3.222-.117-1.132,0-3.457.1-.1,1.641-.1,5.469,0,4.1.1,6.035H461.1q4.746,0,5.938-.117a7.79,7.79,0,0,0,2.265-.566,21.478,21.478,0,0,0,.577-2.08q.4-1.631.459-2.041l.195-.137h.937l.157.137a26.521,26.521,0,0,0-.342,2.929q-.166,2.091-.166,3.575l-.137.156q-3.731-.117-9.766-.117l-5.312-.039q-1.855,0-3.867.156l-.156-.156v-.645l.156-.195a10.394,10.394,0,0,0,1.318-.733,15.276,15.276,0,0,0,.274-3.418q.106-3.27.107-4.99v-7.168l-.02-4.433q0-1.446-.039-2.354a7.349,7.349,0,0,0-.136-1.3,1.493,1.493,0,0,0-.225-.547.954.954,0,0,0-.41-.263,4.448,4.448,0,0,0-.967-.186l-1.484-.117-.157-.137Z" style="fill: #fff"/>
    <path d="M482.509,171.9l-1.778-8.145-3.769-16.074q-.45-1.914-.938-2.139a8.742,8.742,0,0,0-2.109-.42l-.156-.156V144.1l.156-.176q2.813.156,4.98.156,1.622,0,4.727-.156l.176.176v.859l-.157.156a15.384,15.384,0,0,0-2.607.215.6.6,0,0,0-.44.645,24.565,24.565,0,0,0,.391,2.588q.391,2.178.7,3.545l3.067,13.535,4.824-12.012q1.894-4.766,3.73-9.981h1.25q1.563,4.9,3.223,9.512l4.59,12.735,3.32-11.661q.509-1.835,1.25-4.824a27.351,27.351,0,0,0,.742-3.457.608.608,0,0,0-.488-.654,18.729,18.729,0,0,0-2.812-.186l-.157-.175v-.86l.157-.156q3.319.156,4,.156.625,0,4.063-.156l.156.156v.879l-.156.137a4.7,4.7,0,0,0-1.484.205,1.725,1.725,0,0,0-.645.508,8.054,8.054,0,0,0-.781,2l-1.133,3.632-2.012,6.582q-.429,1.427-1.582,5.782l-2.168,8.086h-1.992q-2.031-6.054-3.359-9.688l-4.453-12.051-3.887,9.649-2.09,5.469q-.82,2.167-1.309,3.535l-1.074,3.086Z" style="fill: #fff"/>
    <path d="M514.852,164.806l.157-.156h.957l.156.156a18.152,18.152,0,0,0,.263,3.056,2.487,2.487,0,0,0,1.055,1.172,7.535,7.535,0,0,0,2.363,1.006,11.567,11.567,0,0,0,2.979.391,8.78,8.78,0,0,0,3.721-.762,5.821,5.821,0,0,0,2.568-2.236,6.137,6.137,0,0,0,.918-3.311,5.338,5.338,0,0,0-.439-2.246,3.836,3.836,0,0,0-1.231-1.533,5.591,5.591,0,0,0-1.807-.859q-1.014-.284-3.027-.616-1.953-.312-3.057-.566a10.5,10.5,0,0,1-2.2-.781,5.859,5.859,0,0,1-1.826-1.338,6.107,6.107,0,0,1-1.172-1.992,7.2,7.2,0,0,1-.439-2.53,7.766,7.766,0,0,1,2.539-5.986,9.678,9.678,0,0,1,6.816-2.334,18.113,18.113,0,0,1,3.7.42,14.99,14.99,0,0,1,3.643,1.24l.137.235a26.714,26.714,0,0,0-.528,5.117l-.176.156h-1.015l-.156-.137q-.041-2.343-.118-2.949t-1.777-1.5a7.775,7.775,0,0,0-3.691-.9,7.347,7.347,0,0,0-3.106.664,4.542,4.542,0,0,0-2.187,2.09,6.23,6.23,0,0,0-.742,2.91,4.459,4.459,0,0,0,.449,2.041,3.828,3.828,0,0,0,1.162,1.406,4.965,4.965,0,0,0,1.66.771q.948.255,3.467.625a20.642,20.642,0,0,1,5.029,1.182,5.609,5.609,0,0,1,2.52,2.2,6.686,6.686,0,0,1,.947,3.633,8.607,8.607,0,0,1-3.389,6.934,12.548,12.548,0,0,1-8.213,2.773,16.386,16.386,0,0,1-7.09-1.445l-.117-.254A57.438,57.438,0,0,0,514.852,164.806Z" style="fill: #fff"/>
  </g>
  <g style="clip-path: url(#f68cf431-604d-4136-ae08-8a37da0a0eeb)">
    <g>
      <path d="M1270.369,177.609s-19.115-62.558-19.637-66.207-3.013-4.416-4.691-4.866a18.019,18.019,0,0,0-5.335,0s-37.945,9.591-42.422,10.87-5.116,7.781-5.116,7.781l7.461,27.606-1.042.371L1203.4,167.4h1.385s15.135,59.369,16.521,65.018a5.913,5.913,0,0,0,6.5,4.9s41.782-10.445,46.791-12.151,7.035-3.837,7.461-6.928S1270.369,177.609,1270.369,177.609Zm5.723,41.68s-43.38,11.312-47.75,12.378a5.02,5.02,0,0,1-5.969-2.771s-24.728-97.1-25.794-100.938-2.251-6.542.235-7.377c10.338-3.471,42.613-11.7,46.13-12.554s5.543,2.664,5.543,2.664,27.712,92.944,29.524,99.339S1276.092,219.289,1276.092,219.289Z" style="fill: #fff"/>
      <circle cx="1209.242" cy="137.202" r="6.915" style="fill: #fff"/>
      <polygon points="1216.632 128.417 1245.184 120.171 1246.692 125.798 1218.14 133.472 1216.632 128.417" style="fill: #fff"/>
      <circle cx="1226.222" cy="196.061" r="6.915" style="fill: #fff"/>
      <polygon points="1233.613 187.277 1262.165 179.031 1263.673 184.658 1235.12 192.331 1233.613 187.277" style="fill: #fff"/>
      <polygon points="1206.79 148.368 1251.234 136.148 1257.687 160.162 1212.732 172.756 1206.79 148.368" style="fill: #fff"/>
      <path d="M1321.834,148.645l17.338.711L1323.681,139.1s10.517-4.663,11.085-4.805-14.5-2.843-14.5-3.269,3.411-8.243,3.411-8.243l-14.78,6.4-4.832-12.507-5.542,10.8-12.091-7.3,3.564,13.3-12.791,2.676,10.8,8.234-9.5,8.953,14.9-1.705-11.339,21.126-33.144-6.2,36.382,14.922,16.912-28.139,12.079,14.354-.852-14.212,14.638,8.1Zm-7.861-1.944-4.292,4.292-5.1-5.095-5.1,5.095L1295.2,146.7l5.1-5.095-5.1-5.095,4.292-4.292,5.1,5.095,5.282-5.282,4.292,4.292-5.282,5.282Z" style="fill: #fff"/>
    </g>
  </g>
</svg>
