<svg id="a3ab36ef-6082-480f-a860-02b1c12fb6d0" data-name="Layer 1" xmlns="http://www.w3.org/2000/svg" xmlns:xlink="http://www.w3.org/1999/xlink" width="1344.293" height="194.648" viewBox="0 0 1344.293 194.648">
  <defs>
    <clipPath id="e5f752e5-bf6e-4be5-aadc-ac2605261dea">
      <rect x="5.063" y="-211.938" width="311.083" height="180.627" style="fill: none"/>
    </clipPath>
    <clipPath id="b22aa5b7-3ac3-457c-b29c-831f69cb5f37">
      <rect x="3.164" y="-168.273" width="164.314" height="137.683" style="fill: none"/>
    </clipPath>
    <clipPath id="a0541d19-a13a-4292-89a7-41c67553df7e">
      <rect x="83.466" y="-168.273" width="164.314" height="137.683" style="fill: none"/>
    </clipPath>
    <clipPath id="a3adc3fb-e252-4a63-82ab-d02e641a6ab5">
      <rect x="1220.214" y="103.507" width="115.45" height="91.141" style="fill: none"/>
    </clipPath>
    <clipPath id="ad75caf2-a1ea-4b91-9f86-adcb301881f7">
      <rect x="22.379" y="37.183" width="161.758" height="135.541" style="fill: none"/>
    </clipPath>
  </defs>
  <title>banner-6a</title>
  <g style="clip-path: url(#e5f752e5-bf6e-4be5-aadc-ac2605261dea)">
    <g style="clip-path: url(#b22aa5b7-3ac3-457c-b29c-831f69cb5f37)">
      <path d="M187.251-8.979c-14.915-9.429-40.75-63.082-71.068-63.531S24.17-67.983-1.031-24.095C-17.041,3.787-46.8,13.278,41.143,8.649S187.251-8.979,187.251-8.979Z" style="fill: #090302"/>
    </g>
    <g style="clip-path: url(#a0541d19-a13a-4292-89a7-41c67553df7e)">
      <g>
        <path d="M136.578-57.192c-1.986,2.992-1.192,4.464-3.575,5.656s-1.722.554-4.9,1.6-4.237.517-6.223,3.033-3.177,5.164-5.032,7.945-1.059,1.059-6.224,4.37-6.62,3.31-8.607,5.3.265,1.456-4.1,3.84-.529,1.324-9.8,4.5-8.475,1.192-13.242,4.37-5.694,2.383-8.342,5.561S59.776-4.131,55.8,2.092,42.827,25.927,42.827,25.927h238.35s-4.9-19.333-15.625-28.072-11.52-9.4-16.287-10.2-4.238.132-10.329-5.694S225.3-30.879,221.59-31.012s-2.251,1.192-5.032-1.192-3.046-2.251-5.827-4.5-3.972-1.589-7.547-4.37,4.241-1.4-7.969-6.62S136.578-57.192,136.578-57.192Z" style="fill: #441716"/>
        <path d="M76.532.288c2.64,1.44,2.4-11.038,6.239.72S89.25,22.365,89.49,15.646s-2.4-9.359-1.2-13.918,2.88.59,7.679-5.464,4.56-6.53,6.239-9.532-1.439-12.36,2.88-4.441,7.439,5.039,8.159,10.078-.24,4.8-.24,12.238,1.2,15.358,2.159,10.079.24-12.958.48-19.437.72-7.919,2.64-.72,5.65,15.6,5.7,19.677,1.154,9.168,1.292.48.751-11.3,7.556-12.131S162.4,4.5,167.333,7.487c3.009,1.819-18.9-36.35-36.294-58.214a24.772,24.772,0,0,0-2.936.792c-3.178,1.047-4.237.517-6.223,3.033-.141.178-.27.359-.4.538h0c-1.482,2-2.543,4.077-3.881,6.238l-.091.149c-.211.338-.428.678-.657,1.02-.927,1.391-1.192,1.655-1.87,1.986-.085.042-.177.084-.276.13a24.555,24.555,0,0,0-2.4,1.23c-.476.275-1.028.61-1.674,1.024-3.227,2.069-5.007,2.845-6.372,3.621a9.713,9.713,0,0,0-2.235,1.676,4.807,4.807,0,0,0-.809,1,2.927,2.927,0,0,0-.178.378c-.022.056-.043.109-.063.162a1.62,1.62,0,0,1-.454.655,5.02,5.02,0,0,1-.57.443c-.124.085-.265.178-.426.278-.4.251-.922.552-1.6.925s-1.165.66-1.528.894c-.291.187-.5.339-.685.471-.09.065-.171.126-.249.184s-.152.112-.228.166-.154.105-.239.158c-.721.448-1.945.941-6.869,2.629-9.27,3.178-8.475,1.192-13.242,4.37-.894.595-1.653,1.052-2.313,1.421-.441.246-.837.453-1.2.637s-.7.344-1,.5c-.463.229-.877.441-1.278.688-.134.082-.266.168-.4.26a8.273,8.273,0,0,0-.8.637,13.35,13.35,0,0,0-1.344,1.421c-.828.993-1.8,2.038-2.861,3.195q-.639.695-1.319,1.447c-.9,1-1.857,2.1-2.832,3.309-.731.909-1.475,1.884-2.221,2.939Q56.924.4,56.55.954T55.8,2.092c-.869,1.362-1.979,3.268-3.183,5.416q-.258.461-.521.934c-.35.632-.707,1.279-1.066,1.936s-.721,1.323-1.082,1.991c-.721,1.336-1.439,2.679-2.126,3.975-2.748,5.181-5,9.583-5,9.583H54.456c1.2-6.442,5.039-8.841,10.558-16.28S73.893-1.152,76.532.288Z" style="fill: #270c06"/>
        <path d="M170.93,25.325,162-39.354,139.333-56.926c-1.748-.174-2.755-.266-2.755-.266-1.986,2.992-1.192,4.464-3.575,5.655-2.148,1.075-1.832.667-4.072,1.341l-.563,1.838c-1.986,5.561-5.032,12.182-4.237,19.862S123.872-16.314,124-7.309s.659,15.89,6.22,21.451a109.721,109.721,0,0,1,9.5,11.785h29.816C170.414,25.554,170.93,25.325,170.93,25.325Z" style="fill: #433128"/>
        <path d="M190.918-44.844c.312.914,2.532,1.517,7,8.138s7.913,4.5,7.383,11.52-.265,10.859-2.251,16.553-3.178,6.223-3.972,11.652.662,7.68-3.178,14.169-13.242,16.022-13.772,20-4.767-55.88-4.767-55.88Z" style="fill: #433128"/>
        <path d="M187.69-57.192c-3.129,2.721-3.433,3.025-5.862,5.454s-3.644,2.733-4.555,4.859-.3,2.024-2.733,3.036a29.745,29.745,0,0,0-6.377,3.948c-1.721,1.316-2.632,1.619-2.632,3.745s.1,3.076-.709,4.555-2.429,4.555-1.417,6.681,1.57,4.454,2.658,3.644.986-2.834,2.505-1.012,3.239,3.846,3.34,4.858-.2,1.519-.3,5.163,0,7.693,0,7.693-3.138-3.847-3.441-7.187-.054-5.857-.449-7.331-2.183-12.61-5.827-15.343-3.745-1.721-5.264-3.442-1.286-3.013-3.34-4.231-4.166-2.51-2.893,0,2.387.891,1.274,2.511-4.758-.3-3.138,2.733a30.632,30.632,0,0,1,2.834,7.692c.911,3.24-.567,2.844,1.387,5.015s.536,1.565-.375,2.071-1.316-.709-.405,2.024,1.114,1.62,1.721,5.669a31.352,31.352,0,0,0,2.733,9.819c1.62,3.542.81,2.935,2.227,6.579s1.518,4.251,3.037,6.073,10.223,19.739,11.741,21.561-.708,1.417,2.227-3.138,6.782-8.908,8.1-17.006,1.2-6.579,3.939-13.867,3.653-11.742,6.386-15.791,4.96-2.429,3.239-8.5-2.227-4.657-4.454-10.73a87.747,87.747,0,0,1-3.015-9.015C189.37-50.179,187.69-57.192,187.69-57.192Z" style="fill: #e0c3a2"/>
        <path d="M273.331,25.807h3.149c.471-2.034.59-3.009-2.938-7.042-5.04-5.759-12-13.438-9.6-6.239C266.107,19.018,273.927,21.8,273.331,25.807Z" style="fill: #270c06"/>
        <path d="M225.042-13.268c1.707,3.718-.453,4.438,2.427,11.637s7.439,12.717,8.878,17.037c1.054,3.162,1.6,6.342,2.941,10.4h14.094c0-.987,0-2.043,0-3.2,0-6.479-.48-12.718-1.68-14.4S244.986-4.9,245.946-.387s0,10.754.96,12.913,2.639,11.758-1.68-.72-5.519-6.368-8.4-15.542.24-4.854-2.879-14.213c-2.249-6.745-5.273-8.006-7.226-10.7-2.034-1.408-3.823-2.316-5.132-2.363-3.708-.132-2.251,1.192-5.032-1.192s-3.046-2.251-5.827-4.5-3.972-1.589-7.547-4.37c-1.191-.926-1.118-1.39-.942-1.791l-1.65.692c-.239,4.549,8.16,12.948,13.2,16.547S223.335-16.985,225.042-13.268Z" style="fill: #270c06"/>
      </g>
    </g>
  </g>
  <polygon points="1209.322 104.462 1167.842 172.476 0 172.476 0 194.648 279.306 194.648 1344.293 194.648 1344.293 104.462 1209.322 104.462" style="fill: #212026"/>
  <g>
    <path d="M223.343,85.24h-8.2V82.281H235.1V85.24h-8.238v24h-3.52Z" style="fill: #212026"/>
    <path d="M241.584,82.281V93.559h13.037V82.281h3.519v26.955h-3.519V96.6H241.584v12.638H238.1V82.281Z" style="fill: #212026"/>
    <path d="M287.219,95.478c0,9.28-5.638,14.2-12.517,14.2-7.119,0-12.118-5.52-12.118-13.678,0-8.559,5.319-14.158,12.517-14.158C282.461,81.841,287.219,87.48,287.219,95.478Zm-20.916.441c0,5.758,3.12,10.918,8.6,10.918,5.519,0,8.638-5.079,8.638-11.2,0-5.359-2.8-10.958-8.6-10.958C269.182,84.68,266.3,90,266.3,95.919Z" style="fill: #212026"/>
    <path d="M314.46,97.4c-.2-3.759-.44-8.278-.4-11.638h-.12c-.92,3.16-2.04,6.519-3.4,10.239l-4.76,13.077h-2.64l-4.359-12.838c-1.279-3.8-2.359-7.278-3.119-10.478h-.08c-.08,3.36-.28,7.879-.52,11.918l-.72,11.558h-3.319L292.9,82.281h4.44l4.6,13.038c1.119,3.319,2.039,6.278,2.72,9.078h.119c.681-2.72,1.64-5.679,2.84-9.078l4.8-13.038h4.439l1.68,26.955h-3.4Z" style="fill: #212026"/>
    <path d="M327.862,100.758l-2.8,8.478h-3.6l9.158-26.955h4.2l9.2,26.955H340.3l-2.879-8.478Zm8.839-2.72-2.64-7.759c-.6-1.759-1-3.359-1.4-4.919h-.079c-.4,1.6-.84,3.239-1.361,4.88l-2.639,7.8Z" style="fill: #212026"/>
    <path d="M347.5,105a12.328,12.328,0,0,0,6.239,1.76c3.559,0,5.639-1.88,5.639-4.6,0-2.52-1.44-3.96-5.08-5.359-4.4-1.56-7.118-3.84-7.118-7.639,0-4.2,3.48-7.319,8.718-7.319a12.242,12.242,0,0,1,5.959,1.32L360.9,86a10.736,10.736,0,0,0-5.119-1.28c-3.68,0-5.08,2.2-5.08,4.04,0,2.519,1.641,3.759,5.359,5.2,4.56,1.759,6.879,3.96,6.879,7.919,0,4.159-3.079,7.758-9.438,7.758a13.929,13.929,0,0,1-6.879-1.719Z" style="fill: #212026"/>
    <path d="M379.662,82.281V93.559H392.7V82.281h3.519v26.955H392.7V96.6H379.662v12.638h-3.48V82.281Z" style="fill: #212026"/>
    <path d="M425.3,95.478c0,9.28-5.64,14.2-12.519,14.2-7.118,0-12.117-5.52-12.117-13.678,0-8.559,5.318-14.158,12.517-14.158C420.539,81.841,425.3,87.48,425.3,95.478Zm-20.917.441c0,5.758,3.12,10.918,8.6,10.918,5.52,0,8.639-5.079,8.639-11.2,0-5.359-2.8-10.958-8.6-10.958C407.261,84.68,404.382,90,404.382,95.919Z" style="fill: #212026"/>
    <path d="M429.822,82.64a33.8,33.8,0,0,1,6.358-.559c3.48,0,5.72.6,7.4,1.96a5.653,5.653,0,0,1,2.239,4.759,6.4,6.4,0,0,1-4.559,5.918V94.8a6.947,6.947,0,0,1,5.559,6.758,7.267,7.267,0,0,1-2.28,5.4c-1.879,1.72-4.919,2.519-9.319,2.519a40.647,40.647,0,0,1-5.4-.32ZM433.3,93.678h3.16c3.679,0,5.839-1.918,5.839-4.518,0-3.16-2.4-4.4-5.919-4.4A14.9,14.9,0,0,0,433.3,85Zm0,12.918a18.445,18.445,0,0,0,2.919.161c3.6,0,6.919-1.32,6.919-5.24,0-3.678-3.159-5.2-6.959-5.2H433.3Z" style="fill: #212026"/>
    <path d="M451.5,82.64a33.793,33.793,0,0,1,6.358-.559c3.48,0,5.72.6,7.4,1.96A5.653,5.653,0,0,1,467.5,88.8a6.4,6.4,0,0,1-4.56,5.918V94.8a6.946,6.946,0,0,1,5.56,6.758,7.264,7.264,0,0,1-2.281,5.4c-1.878,1.72-4.918,2.519-9.318,2.519a40.647,40.647,0,0,1-5.4-.32Zm3.479,11.038h3.159c3.68,0,5.839-1.918,5.839-4.518,0-3.16-2.4-4.4-5.919-4.4a14.9,14.9,0,0,0-3.079.241Zm0,12.918a18.445,18.445,0,0,0,2.919.161c3.6,0,6.919-1.32,6.919-5.24,0-3.678-3.159-5.2-6.959-5.2h-2.879Z" style="fill: #212026"/>
    <path d="M487.138,96.6H476.661v9.719h11.678v2.919H473.181V82.281h14.558V85.2H476.661v8.518h10.477Z" style="fill: #212026"/>
    <path d="M492.381,105a12.325,12.325,0,0,0,6.239,1.76c3.559,0,5.639-1.88,5.639-4.6,0-2.52-1.44-3.96-5.08-5.359-4.4-1.56-7.118-3.84-7.118-7.639,0-4.2,3.48-7.319,8.718-7.319a12.242,12.242,0,0,1,5.959,1.32L505.779,86a10.736,10.736,0,0,0-5.119-1.28c-3.68,0-5.08,2.2-5.08,4.04,0,2.519,1.64,3.759,5.359,5.2,4.56,1.759,6.879,3.96,6.879,7.919,0,4.159-3.079,7.758-9.438,7.758a13.929,13.929,0,0,1-6.879-1.719Z" style="fill: #212026"/>
    <path d="M221.557,130.281h3.317l-4.595,24.072h10.872l-.554,2.883H216.43Z" style="fill: #212026"/>
    <path d="M246.908,156.128a13.631,13.631,0,0,1-6.395,1.528c-5.138,0-7.358-3.5-7.358-7.782,0-5.824,4.326-12.419,10.553-12.419,3.679,0,5.677,2.194,5.679,4.962,0,5.08-5.723,6.418-12.873,6.282a8.021,8.021,0,0,0,.391,3.681,4.371,4.371,0,0,0,4.3,2.6,10.732,10.732,0,0,0,5.211-1.325Zm-3.668-16.092c-3.158,0-5.543,3.084-6.352,6.111,5.212.061,9.293-.634,9.293-3.648C246.181,140.908,244.968,140.036,243.24,140.036Z" style="fill: #212026"/>
    <path d="M255.5,137.9l1.664,11.014c.293,2.2.542,3.691.62,4.751h.111c.425-1.025.942-2.3,2.063-4.506l5.9-11.259H269.5l-10.766,19.341h-3.267L252.123,137.9Z" style="fill: #212026"/>
    <path d="M269.4,157.236l3.695-19.341H276.4l-3.694,19.341Zm4.307-24.741a2.2,2.2,0,0,1,2.181-2.246,1.932,1.932,0,0,1,1.975,2.083,2.2,2.2,0,0,1-2.249,2.232A1.89,1.89,0,0,1,273.705,132.5Z" style="fill: #212026"/>
    <path d="M291.383,157.236a43.25,43.25,0,0,1,.431-5h-.086c-2.09,4.018-4.76,5.438-7.489,5.438-3.428,0-5.562-2.723-5.562-6.391,0-6.739,4.958-13.831,13.372-13.831a19.169,19.169,0,0,1,5.219.733L295.3,148.27a43.58,43.58,0,0,0-.82,8.966Zm2.151-16.866a7.59,7.59,0,0,0-2.3-.275c-5.008,0-9.1,5.209-9.117,10.592-.014,2.162.748,4.268,3.3,4.268,2.776,0,6.027-3.607,6.992-8.748Z" style="fill: #212026"/>
    <path d="M308.135,132.7l-1,5.2h4.622l-.517,2.6h-4.625l-1.781,9.4a16.207,16.207,0,0,0-.384,3.087,1.65,1.65,0,0,0,1.831,1.875,6.42,6.42,0,0,0,1.561-.154l-.16,2.609a8.087,8.087,0,0,1-2.563.351c-2.924,0-4.072-1.774-4.072-3.752a17.882,17.882,0,0,1,.424-3.629l1.888-9.789H300.6l.5-2.6h2.778l.815-4.359Z" style="fill: #212026"/>
    <path d="M312,157.236l5.4-28.394h3.317L318.294,141.3l.08,0a8.318,8.318,0,0,1,6.911-3.852c2.2,0,4.814,1.327,4.814,5.181a18.417,18.417,0,0,1-.32,3.274l-2.151,11.326h-3.31l2.123-11.175a13.939,13.939,0,0,0,.261-2.67c0-1.778-.855-3.175-3-3.175-2.566,0-5.78,3-6.588,7.331l-1.8,9.689Z" style="fill: #212026"/>
    <path d="M346.18,157.236a43.747,43.747,0,0,1,.432-5h-.086c-2.089,4.018-4.759,5.438-7.489,5.438-3.427,0-5.562-2.723-5.562-6.391,0-6.739,4.957-13.831,13.372-13.831a19.158,19.158,0,0,1,5.219.733l-1.973,10.082a43.569,43.569,0,0,0-.819,8.966Zm2.153-16.866a7.593,7.593,0,0,0-2.3-.275c-5.008,0-9.1,5.209-9.117,10.592-.014,2.162.748,4.268,3.3,4.268,2.776,0,6.027-3.607,6.991-8.748Z" style="fill: #212026"/>
    <path d="M354.315,157.236l2.587-13.712c.429-2.15.692-4.026.913-5.629h2.979l-.5,3.8h.079a8.519,8.519,0,0,1,7.175-4.24c2.3,0,4.89,1.324,4.89,5.37a19.467,19.467,0,0,1-.345,3.122l-2.148,11.289h-3.31l2.116-11.174a14.787,14.787,0,0,0,.262-2.475c0-1.941-.749-3.371-3.032-3.371-2.38,0-5.737,2.835-6.614,7.618l-1.744,9.4Z" style="fill: #212026"/>
  </g>
  <g style="clip-path: url(#a3adc3fb-e252-4a63-82ab-d02e641a6ab5)">
    <g>
      <g>
        <rect x="1293.827" y="143.266" width="5.297" height="70.144" transform="translate(84.526 672.131) rotate(-30)" style="fill: #fff"/>
        <rect x="1272.982" y="144.215" width="10.719" height="5.427" rx="2.339" transform="matrix(0.866, -0.5, 0.5, 0.866, 97.801, 658.855)" style="fill: #fff"/>
        <rect x="1267.701" y="125.213" width="8.189" height="20.756" transform="translate(102.593 654.064) rotate(-30)" style="fill: #fff"/>
        <rect x="1269.414" y="129.097" width="1.808" height="15.507" rx="0.779" transform="translate(101.766 653.494) rotate(-30)" style="fill: #fff"/>
        <rect x="1272.72" y="127.188" width="1.808" height="15.507" rx="0.779" transform="translate(103.163 654.891) rotate(-30)" style="fill: #fff"/>
        <path d="M1266.313,122.276l-3,1.73c-2.823,1.55-5.318,3.009-3.011,3.33a3.812,3.812,0,0,1,2.757,1.314l2.2-1.271.474-.274,1.74-1,.783-.452,1.892-1.093a3.808,3.808,0,0,1,.241-3.044C1271.268,119.353,1269.066,120.605,1266.313,122.276Z" style="fill: #fff"/>
        <g>
          <path d="M1260.827,125.919c-1.959.738-4.568-1.308-4.967-2.108s-1.97-4.963-3.574-5.405-3.479-.415-3.661-.637.6-1.219,1.81-1.1a11.461,11.461,0,0,1,3.155,1.168l-.552-1.465s-.119-.868-1.761-1.7-4.3-1.854-6.567-1.31-2.294,1.466-3.221,1.8a9.256,9.256,0,0,1-2.487.326c-.475.047-.369.716-.738,1.832s-.893,1.888-1.713,2.089-.708-.29-1.216.24-.1,1.135-1,.717-1.071-.272-1.264-1.012.385-.958-.229-1.1-.8,0-1.1-.211-.32-.409-.375-.963a3.818,3.818,0,0,0-.094-.95c-.123-.428-.17-.14-.073-.731s.732-.694,1.045-1.165-.8-.655-.423-1.038,2.642-.381,2.614-.658-.815-.159-.961-.825-.555-.724-.047-1.264a2.926,2.926,0,0,1,.892-.7,2.838,2.838,0,0,1,.593-2.1c.785-.958,1.455-2.263,2.386-2.555a17.365,17.365,0,0,1,2.594-.457c.59-.1.018-.955.684-.67s1.256-.162,1.632-.079-.367-.563-.43-.8,3.382-.574,3.778-.614-.288-.852.47-.486a3.619,3.619,0,0,0,1.711.522c1.219.2,1.1.76,2.268.884s1.2.129,1.933.249l1.88.31a7.325,7.325,0,0,1,3.07,1.519,16.353,16.353,0,0,1,2.627,2.3c.542.627,2.559,2.426,2.559,2.426a9.691,9.691,0,0,0-.476-2.792c-.387-.681.481-.4.812.522a5.262,5.262,0,0,0,1.667,2.712c.851.516,4.47,3.956,4.642,5.3s.749,3.524.277,4.411a6.716,6.716,0,0,1-1.281,1.606s-1.126,1.151-2.107.528-2.283-1.254-2.283-1.254a3.855,3.855,0,0,1,.2,2.059A7.067,7.067,0,0,1,1260.827,125.919Z" style="fill: #fff"/>
          <path d="M1234.521,120.439a2.426,2.426,0,0,0-1.684,2.65c.276,1.172.243,2.055,1.192,3.161s.593,1.541,1.878,2.413,2.577,4.623,1.587,4.721-1.394.458-.931.692,1.361.622,1.769.105a4.8,4.8,0,0,0,.771-2.315l-.149-1.505c-.023-.238.451.515,1.428,1.1s5.542,2.257,6.88,2.042a34.913,34.913,0,0,0,5.805-.737,18.528,18.528,0,0,1,6.518-.805c1.856.176,3.368,1.306,3.569,2.126s1,1.26-.093,1.489-2.665.543-3.128.309-1.857-.585-2.242.378-1.094,1.872-.525,2.775a5.871,5.871,0,0,0,1.74,1.827c.645.456.26,1.014.113,1.548s-.065.856.486.472-.889-.912,1.34-1.012,4.261-.981,4.749-1.709.987-.938.976-2.256.278-.827.137-2.253-.934-3.786-2.085-4.512a16.065,16.065,0,0,1-2.639-1.618c-1.049-.9-2.245-.458-2.691-1.333s.307-1.746-.675-1.971-1.413-.142-1.8-.384-.1-.55-1.136-.167a6.114,6.114,0,0,1-2.111.488,2,2,0,0,0-1.018.221c-.345.154-.652.3-.443-.108a5.473,5.473,0,0,0,.4-1.559c.105-.638,1.464.647,1.308-1.737s-.611-3.533-1.626-4l-1.014-.462s2.08,2.433,1.532,3.367-.192,1.7-1.355.854-2.035.041-1.685-1.273.635-1.262.5-2.209.706-.635-.5-1.03a11.146,11.146,0,0,0-1.684-.473l-1.624-.267a5.837,5.837,0,0,1-2.064-.608c-.261-.214-.423-.238-.7.55s-.889,1.254-.493,1.888.505,1.069.16,1.623-1.089.708-1.228,1.322a1.473,1.473,0,0,0,.837,1.6c.582.222.732.527,1.254.956s.17.9,1.552.726,2.424-.96,2.7-.587.473.321.312.729-1.129,1.111-.773,1.076.051.515.832-.082,1.407-1.539,1.763-1.574a1.1,1.1,0,0,1,.981,1.022c.019.6-1.079,2.026-2.6,2.417s-2.456,1.042-3.869.9a7.308,7.308,0,0,1-2.818-.6c-.594-.341.381-1,.674-1.266s1-.379.92-1.211-.082-1.231-.447-.475-.524,1.171-1.439,1.222-1.176.236-1.575-.164-1.658-5.035-2.671-5.574S1235.569,120.194,1234.521,120.439Z" style="fill: #fff"/>
        </g>
      </g>
      <g>
        <polygon points="1320.452 96.81 1304.247 114.529 1263.998 188.075 1266.82 189.704 1269.642 191.333 1313.21 119.704 1320.452 96.81" style="fill: #fff"/>
        <polygon points="1264.41 193.878 1261.376 192.126 1253.016 206.606 1256.05 208.357 1259.084 210.109 1267.444 195.629 1264.41 193.878" style="fill: #fff"/>
        <polygon points="1279.871 195.442 1276.101 194.556 1270.867 191.534 1267.039 189.324 1267.039 189.324 1264.883 188.08 1257.977 184.092 1255.325 181.27 1250.206 182.641 1251.578 187.76 1255.348 188.646 1262.254 192.633 1264.41 193.878 1264.41 193.878 1268.238 196.088 1273.472 199.109 1276.125 201.932 1281.243 200.56 1279.871 195.442" style="fill: #fff"/>
      </g>
    </g>
  </g>
  <g>
    <g style="clip-path: url(#ad75caf2-a1ea-4b91-9f86-adcb301881f7)">
      <g>
        <path d="M203.6,194c-14.683-9.282-40.115-62.1-69.963-62.543S43.058,135.913,18.25,179.118C2.488,206.566-26.812,215.91,59.767,211.353S203.6,194,203.6,194Z" style="fill: #090302"/>
        <polygon points="136.127 157.691 112.021 170.454 113.114 153.103 133.013 152.24 136.127 157.691" style="fill: #886a69"/>
        <path d="M64.391,150.1a66.367,66.367,0,0,0,6.231-12.682c.713.951,6.418,10.3,11.568,10.141s5.625-.792,8.794-1.663,7.844-2.219,10.7-3.8,9.666-8.874,11.251-13.311c0,0,6.2-4.756,5.965-8.638-.036-.586-.12-1.216-.225-1.862a.924.924,0,0,1,.547-.208c1.879,0,13.493,14.006,14.945,18.959s5.637,14.34,1.964,20.663c0,0-3.279.494-10.863-2.911,0,0-10.06,15.64-15.013,16.408s-6.832-1.964-8.711-2.732-9.906-5.756-12.127-6.294-7.917-2.246-10.62-1.136-9.534,5.295-11.754,5.551-9.907-.769-12.213-5.295-2.4-4.866-2.4-4.866h1.714C56.022,156.416,60.719,155.56,64.391,150.1Z" style="fill: #9e7e74"/>
        <path d="M75.939,43.725c-4.269.342-9.849-4.169-14.835,1.41s-15.79,8.43-16.5,13.06.475,11.991.237,16.146-3.68,9.735-3.68,15.2,2.849,10.685,1.543,17.808-4.274,9.5-5.1,14.247-.712,7,1.425,11.516a84.234,84.234,0,0,0,4.749,8.429c.237.475,2.612,14.247,7.123,15.671s10.922-.356,13.772-4.63,7.835-13.772,6.767-19.708-5.343-21.607-5.343-21.607l12.7-61.735Z" style="fill: gray"/>
        <path d="M115.941,52.607c-2.723-2.994-8.854-9.478-15.837-10.351s-24.64-1.608-30.277,5.369S57.549,61.67,57.153,69.989s.476,24.72,1.109,27.572,0,6.576.476,11.092.317,10.934,1.664,14.5a44.989,44.989,0,0,0,5.229,9.111c.713.872,4.278,4.2,4.991,5.15s6.418,10.3,11.568,10.142,5.625-.793,8.794-1.664,7.844-2.219,10.7-3.8,9.666-8.874,11.251-13.311c0,0,6.2-4.756,5.965-8.638s-2.479-9.585-.1-10.377,6.338-1.981,7.447-6.021,2.139-7.052,1.822-9.508-.792-3.882-1.98-5.07S119.894,56.952,115.941,52.607Z" style="fill: #d79d79"/>
        <path d="M88.568,122.59c-1.43-2.077-4.447-1.665-7.9-1.621s-6.437-.487-6.36,1.219c.076,1.66,7.322.835,9.988.748A37.62,37.62,0,0,0,88.568,122.59Z" style="fill: #540b06"/>
        <path d="M101.885,43.371c-15.731-3.1-.891-2.391,4.57-3.1s8.786-2.018,11.041-2.018,10.685,3.68,11.4,6.529,2.137,7.836,4.511,11.4.356,7,4.393,10.922,7.479,3.2,8.9,7.123,3.443,8.548,1.9,11.754,2.612-2.612,1.9,7.479-.831,7,.594,13.3.712,7.835.831,13.178-.357,4.155-3.206,4.511-3.324-1.662-4.155,1.544-2.018,3.086-4.274,3.442-1.187-.118-3.324,1.9.237,2.731-3.918,2.018-3.324.594-6.411-.831-3.68-2.849-4.63-6.411-1.187-5.461-2.849-6.292-3.743.973-3.46-.44-2.358-9.058-2.476-11.788a13.629,13.629,0,0,1,2.611-8.9c2.137-2.731,4.749-4.393,4.987-7.48s1.424.831.118-6.292-4.274-21.663-3.8-25.406S112.956,45.554,101.885,43.371Z" style="fill: gray"/>
        <path d="M103.487,41.1c-3.324-1.069-9.141-2.968-12.94-2.849s-6.53,1.424-10.329,2.137-6.53-.872-8.192,1.938,2.85,5.185,3.8,5.185,13.5,5.224,19.038,2.256A23.95,23.95,0,0,0,103.487,41.1Z" style="fill: gray"/>
        <path d="M89.134,147.973c0,.237-2.4,12.147-3.628,11.908-1.849-.36,1.778-9.352,3.628-11.671" style="fill: #886a69"/>
        <path d="M104.619,84.815c-5.5-2.346-7.441-1.981-10.2-1.35s-7.008,2.816-5.51,3.763,2.475.1,3.716-.215a30.709,30.709,0,0,1,6.841-.552c2.6.079,5.561.565,6.981.618S105.308,85.108,104.619,84.815Z" style="fill: #260d0b"/>
        <path d="M73.554,86.489c.741.469-.3,2.079-1.664,1.545a11.408,11.408,0,0,0-6.715.237c-2.495.832-3.209,1.842-3.922,1.426S62.561,86.726,65,85.932C66.748,85.361,68.681,83.4,73.554,86.489Z" style="fill: #260d0b"/>
        <path d="M98.013,89.759C95.466,89.673,93.3,89.7,92.8,90.84s.7,2.935,2.754,2.935,5.733-.156,7.1-.935c.313-.178.026-.592-.006-.743C102.406,90.938,100.266,89.834,98.013,89.759Z" style="fill: #fae1d7"/>
        <path d="M73.334,93.637c.584-.185.855-.488.466-1.014s-1.334-2.183-2.25-2.28a15.894,15.894,0,0,0-3.606.078A8.216,8.216,0,0,0,64.5,91.9c-.555.643-1.452,1.218-.516,1.55a11.357,11.357,0,0,0,3.625.789c1.013-.068,4.619-.458,5.058-.468A1.53,1.53,0,0,0,73.334,93.637Z" style="fill: #fae1d7"/>
        <path d="M73.634,105.58a14.81,14.81,0,0,0-1.47,2.455,7.245,7.245,0,0,0-.483,1.3,2.522,2.522,0,0,0-.081.627l.018.728a5.318,5.318,0,0,0,.14,1.326c.131.412.246.378.735.863.375.395.618.84.872,1.116.172.158.136.215.317.293a2.305,2.305,0,0,0,.677.114l.049.1a1.336,1.336,0,0,1-.713.477.982.982,0,0,1-.545-.017,1.59,1.59,0,0,1-.426-.245,13.364,13.364,0,0,1-1.039-1.054,7.17,7.17,0,0,1-.542-.541,1.812,1.812,0,0,1-.359-.9,7.132,7.132,0,0,1,.029-1.559l.066-.719a3.207,3.207,0,0,1,.18-.792,6.772,6.772,0,0,1,.671-1.35,13.3,13.3,0,0,1,1.824-2.291Z" style="fill: #b25f40"/>
        <path d="M83.834,115.711c1.8-2.04,3.215-3.483,3.434-2.172s.218.568,1.4.349.874,1.53,2.011.831A4.693,4.693,0,0,0,92.588,113c.8-1.039,1.979-2.35,1.585-1.345s-1.573,1.443-1.224,2.317-.062,1.748,1.3.961.84-.218,1.889-.087.393-.393,1.311-.787.656-.261,1.574.416.874,1.2,1.617.59,2.185-2.448,1.967-.875-.79,2.395-.5,2.64,1.816-.542.723.9-1.661,1.879-.481,2.141,2.045.306.869,1.836-1.437,1.355-1.961,2.229.04.723-1.531,1.144-2.316.91-4.282-.27-1.852-2.358-2.853-2.4.187-.7-1.824-.393-2.1.961-4.065.481-3.234-2.011-4.195-2.011-1.355.743-2.666,1.224-3.847-.044-4.939-.175-2.4-1.284-2.885.175-.218,2.928-1.442,3.1.568-.131-2.491-.393-1.88-.394-2.317-1.049A5.437,5.437,0,0,1,64.8,121.8c-.219-.7,1.311.219.131-.961s-1.224-.131-.787-1.311.306-.875.088-1.661.349-.831.874-1.224,1.223-.044.786-.743-.655-.873-.48-1.42,1.092-.153,1.617-.809.83-2.666,1.617-1.4-.568,2.011,1.267,2.71a14.926,14.926,0,0,1,2.8,1.049c1.966.962,2.4,1.661,3.409,1.224s1.311-.568,2.884-1.355S83.184,116.447,83.834,115.711Z" style="fill: gray"/>
        <path d="M88.653,122.294c.666.958.677,2.344-1.814,2.606a45.466,45.466,0,0,1-7.772-.066c-1.879-.174-3.853-.641-4.683-2.1-.387-.681,6.213-.628,8.6-.861A19.755,19.755,0,0,1,88.653,122.294Z" style="fill: #af5945"/>
        <path d="M86,126.738a1.5,1.5,0,0,1,.918,2.229c-.35.568-.612.481-.393,1.486s2.6,4.9,2.043,6.818a14.281,14.281,0,0,1-2.262,4.983c-1.093,1.4-2.249,2.579-1.7,3.846s-.962-.262-1.355-.35-.787-.481-.787.437-.175,1.617-.524.7.054-2.273-.5-1.574-.071,2.1-.945.874-.743-2.753-1.4-1.923-.389,1.825-.7.676a10.118,10.118,0,0,0-.482-1.987c-.394-.918-.774-.262-1.392-1.442s-1.843-.044-1.886-1.792-.612-3.5-.044-4.589,1.093-.437.874-2.011.044-1.18.131-2.622-1.093-1.268-.437-2.448,1.136-.612,1.18-1.311,2.011-2.229,2.011-2.229l7.561.525S85.394,126.576,86,126.738Z" style="fill: gray"/>
        <path d="M69.477,90.287a16.877,16.877,0,0,1,2.073.056c.916.1,1.862,1.754,2.25,2.28s.118.829-.466,1.014a1.53,1.53,0,0,1-.663.136c-.326.007-2.4.224-3.857.363a2.159,2.159,0,0,1-1.044-1.747A2.423,2.423,0,0,1,69.477,90.287Z" style="fill: #190c0a"/>
        <path d="M98.074,89.762c2.23.094,4.335,1.186,4.574,2.335.032.151.319.565.006.743a13.022,13.022,0,0,1-4.676.867c-1.089-.4-1.818-1.127-1.818-1.955C96.16,90.9,96.931,90.159,98.074,89.762Z" style="fill: #190c0a"/>
        <path d="M77.263,88.77c-.084,2.01.094,4.028.21,6.042a37.572,37.572,0,0,1-.055,6.084c-.044.507-.1,1.015-.185,1.525a7.652,7.652,0,0,1-.163.772,2.263,2.263,0,0,1-.37.77,19.948,19.948,0,0,0-1.628,2.5,5.117,5.117,0,0,0-.689,2.706,11.747,11.747,0,0,0,.572,2.858,8.921,8.921,0,0,0,1.273,2.561,4.092,4.092,0,0,0,.45.491l.579.454c.417.32.823.816,1.087,1.051a.517.517,0,0,0,.374.127,3.8,3.8,0,0,0,.65-.062,9.251,9.251,0,0,0,1.387-.3,3.2,3.2,0,0,0,1.99-1.634,6.583,6.583,0,0,1,2.405-2.18A6.3,6.3,0,0,1,86.668,112a4.784,4.784,0,0,0,1.291-.479,1.62,1.62,0,0,0,.726-1,10.577,10.577,0,0,0,.287-1.436,7.654,7.654,0,0,0-.464-2.9l.1-.039a7.289,7.289,0,0,1,.857,2.965,10.466,10.466,0,0,1-.171,1.554,2.323,2.323,0,0,1-.9,1.471,4.658,4.658,0,0,1-1.488.688,5.36,5.36,0,0,0-1.308.53,5.574,5.574,0,0,0-1.942,1.948,4.9,4.9,0,0,1-1.046,1.3,4.448,4.448,0,0,1-1.513.814,9.032,9.032,0,0,1-1.575.318,4.75,4.75,0,0,1-.858.055,1.618,1.618,0,0,1-1.013-.395c-.467-.459-.677-.777-1.052-1.088l-.595-.5a4.855,4.855,0,0,1-.551-.642,9.761,9.761,0,0,1-1.324-2.882A12.547,12.547,0,0,1,73.6,109.2a5.864,5.864,0,0,1,.851-3.072,20.521,20.521,0,0,1,1.745-2.529,1.591,1.591,0,0,0,.3-.577c.066-.225.121-.462.167-.7.091-.485.163-.98.219-1.477a37.177,37.177,0,0,0,.27-6.014c-.044-2.019-.151-4.042.006-6.067Z" style="fill: #b25f40"/>
      </g>
    </g>
    <path d="M77.655,115.337c-.032.361.4.98.455,1.1s.431.41,1.308.235c.988-.2,2.487-.521,2.937-1.332s-1.455-1.67-2.658-1.2A7.6,7.6,0,0,0,77.655,115.337Z" style="fill: #d79d79"/>
  </g>
</svg>
