<svg id="Layer_1" data-name="Layer 1" xmlns="http://www.w3.org/2000/svg" xmlns:xlink="http://www.w3.org/1999/xlink" viewBox="0 0 1344.29 194.65">
  <defs>
    <clipPath id="clip-path">
      <rect x="5.06" width="311.08" height="180.63" fill="none"/>
    </clipPath>
    <clipPath id="clip-path-2">
      <rect x="3.16" y="43.67" width="164.31" height="137.68" fill="none"/>
    </clipPath>
    <clipPath id="clip-path-3">
      <rect x="83.47" y="43.67" width="164.31" height="137.68" fill="none"/>
    </clipPath>
    <clipPath id="clip-path-4">
      <rect x="180.71" y="43.67" width="164.31" height="137.68" fill="none"/>
    </clipPath>
    <clipPath id="clip-path-5">
      <rect x="1164.53" y="-144.27" width="179.85" height="89.8" fill="none"/>
    </clipPath>
  </defs>
  <title>banner-6</title>
  <g clip-path="url(#clip-path)">
    <g clip-path="url(#clip-path-2)">
      <g>
        <path d="M187.25,203c-14.91-9.43-40.75-63.08-71.07-63.53S24.17,144-1,187.84c-16,27.89-45.77,37.38,42.17,32.75S187.25,203,187.25,203Z" fill="#090302"/>
        <polygon points="118.71 166.08 94.22 179.04 95.33 161.42 115.55 160.54 118.71 166.08" fill="#886a69"/>
        <path d="M45.84,158.36a67.38,67.38,0,0,0,6.33-12.88c.72,1,6.52,10.46,11.75,10.3s5.71-.8,8.93-1.69,8-2.25,10.87-3.86,9.82-9,11.43-13.52c0,0,6.3-4.83,6.06-8.78,0-.59-.13-1.23-.23-1.89a1,1,0,0,1,.55-.21c1.91,0,13.71,14.23,15.18,19.26s5.73,14.56,2,21c0,0-3.33.5-11-3,0,0-10.22,15.89-15.26,16.67s-6.94-2-8.84-2.78-10.07-5.84-12.32-6.39-8.05-2.28-10.79-1.15-9.69,5.37-11.94,5.63-10.06-.78-12.41-5.37-2.43-4.95-2.43-4.95h1.74C37.34,164.78,42.11,163.91,45.84,158.36Z" fill="#9e7e74"/>
        <path d="M57.57,50.31c-4.34.35-10-4.23-15.07,1.43S26.46,60.31,25.74,65s.48,12.18.24,16.4-3.74,9.89-3.74,15.44,2.89,10.85,1.57,18.09-4.34,9.64-5.19,14.47-.72,7.11,1.45,11.7a86,86,0,0,0,4.82,8.56c.24.48,2.66,14.47,7.24,15.92s11.09-.36,14-4.71,8-14,6.87-20-5.42-22-5.42-22l12.9-62.71Z" fill="gray"/>
        <path d="M98.2,59.33c-2.76-3-9-9.62-16.08-10.51s-25-1.64-30.76,5.45S38.89,68.54,38.49,77s.48,25.11,1.12,28,0,6.68.49,11.26.32,11.11,1.69,14.73a45.78,45.78,0,0,0,5.31,9.26c.72.88,4.35,4.26,5.07,5.23s6.52,10.46,11.75,10.3,5.71-.8,8.93-1.69,8-2.25,10.87-3.86,9.82-9,11.43-13.52c0,0,6.3-4.83,6.06-8.78s-2.52-9.73-.11-10.54,6.44-2,7.57-6.11,2.17-7.17,1.85-9.66-.81-4-2-5.15S102.22,63.75,98.2,59.33Z" fill="#d79d79"/>
        <path d="M70.4,130.42c-1.45-2.11-4.52-1.69-8-1.64s-6.53-.5-6.46,1.23,7.44.85,10.15.76A38.62,38.62,0,0,0,70.4,130.42Z" fill="#540b06"/>
        <path d="M83.93,50C68,46.8,83,47.52,88.57,46.8s8.92-2,11.21-2,10.86,3.74,11.58,6.63,2.17,8,4.58,11.58.37,7.11,4.47,11.09,7.59,3.26,9,7.24S133,90,131.38,93.23s2.65-2.65,1.93,7.6-.84,7.11.6,13.5.73,8,.85,13.39-.36,4.22-3.26,4.58-3.38-1.69-4.22,1.57-2,3.14-4.34,3.5-1.21-.12-3.38,1.93.24,2.77-4,2-3.37.6-6.51-.85-3.74-2.89-4.7-6.51-1.21-5.55-2.9-6.39-3.8,1-3.51-.45-2.4-9.2-2.52-12a13.88,13.88,0,0,1,2.66-9.05c2.17-2.77,4.82-4.46,5.06-7.59s1.45.84.12-6.4-4.34-22-3.86-25.8S95.17,52.17,83.93,50Z" fill="gray"/>
        <path d="M85.55,47.64c-3.37-1.08-9.28-3-13.14-2.89s-6.63,1.45-10.49,2.17-6.64-.89-8.32,2,2.89,5.27,3.85,5.27,13.72,5.3,19.34,2.29A24.32,24.32,0,0,0,85.55,47.64Z" fill="gray"/>
        <path d="M71,156.21c0,.24-2.44,12.33-3.68,12.09-1.88-.36,1.8-9.5,3.68-11.85" fill="#886a69"/>
        <path d="M86.7,92.05c-5.59-2.38-7.56-2-10.36-1.37s-7.12,2.86-5.6,3.82,2.52.1,3.78-.22a31.18,31.18,0,0,1,7-.56c2.64.08,5.65.58,7.09.63S87.4,92.35,86.7,92.05Z" fill="#260d0b"/>
        <path d="M55.15,93.75c.75.48-.3,2.11-1.69,1.57a11.65,11.65,0,0,0-6.82.24c-2.54.85-3.26,1.87-4,1.45s1.33-3,3.81-3.83C48.23,92.6,50.2,90.61,55.15,93.75Z" fill="#260d0b"/>
        <path d="M80,97.07C77.41,97,75.2,97,74.7,98.17s.71,3,2.8,3,5.82-.16,7.21-1c.32-.18,0-.6,0-.75C84.46,98.27,82.28,97.15,80,97.07Z" fill="#fae1d7"/>
        <path d="M54.92,101c.6-.19.87-.49.48-1S54,97.76,53.11,97.67a16.61,16.61,0,0,0-3.66.07A8.48,8.48,0,0,0,46,99.25c-.56.65-1.47,1.24-.52,1.57a11.68,11.68,0,0,0,3.68.81c1-.07,4.7-.47,5.14-.48A1.48,1.48,0,0,0,54.92,101Z" fill="#fae1d7"/>
        <path d="M55.23,113.15a14.63,14.63,0,0,0-1.47,2.5,7.44,7.44,0,0,0-.49,1.31,2.89,2.89,0,0,0-.07.63l0,.74a5.43,5.43,0,0,0,.15,1.34c.14.41.23.34.74.85s.63.86.88,1.13.11.21.29.3a2.29,2.29,0,0,0,.68.15l.06.1a1.37,1.37,0,0,1-.73.52,1,1,0,0,1-.57,0,1.57,1.57,0,0,1-.45-.25,13.07,13.07,0,0,1-1.06-1.07,6.46,6.46,0,0,1-.56-.55,1.9,1.9,0,0,1-.36-.93,6.44,6.44,0,0,1,0-1.6l.07-.73a3.42,3.42,0,0,1,.18-.81,7.12,7.12,0,0,1,.69-1.38,13.5,13.5,0,0,1,1.87-2.31Z" fill="#b25f40"/>
        <path d="M65.59,123.43c1.83-2.07,3.27-3.53,3.49-2.2s.22.58,1.42.35.89,1.56,2,.85a4.7,4.7,0,0,0,1.94-1.75c.81-1.05,2-2.38,1.61-1.36s-1.6,1.46-1.24,2.35-.06,1.78,1.32,1,.86-.22,1.92-.09.4-.4,1.33-.8.67-.26,1.6.42.89,1.22,1.64.6,2.22-2.48,2-.89-.8,2.44-.51,2.69,1.84-.55.73.91-1.68,1.91-.49,2.18,2.08.31.89,1.86-1.46,1.38-2,2.26,0,.74-1.55,1.17-2.35.92-4.35-.28-1.88-2.39-2.9-2.44.19-.71-1.85-.4-2.13,1-4.13.49-3.28-2-4.26-2-1.38.75-2.71,1.24-3.91,0-5-.18-2.43-1.3-2.93.18-.22,3-1.46,3.15.58-.13-2.53-.4-1.91-.4-2.36-1.06a5.62,5.62,0,0,1-1-1.6c-.22-.71,1.33.22.13-1s-1.24-.13-.8-1.33.31-.89.09-1.69.36-.84.89-1.24,1.24,0,.8-.75-.67-.89-.49-1.45,1.11-.15,1.64-.82.85-2.71,1.64-1.42-.57,2,1.29,2.75a14.6,14.6,0,0,1,2.84,1.07c2,1,2.45,1.69,3.47,1.24s1.33-.58,2.93-1.37S64.93,124.18,65.59,123.43Z" fill="gray"/>
        <path d="M70.48,130.12c.68,1,.69,2.38-1.84,2.65a46.51,46.51,0,0,1-7.89-.07c-1.91-.18-3.92-.65-4.76-2.13-.39-.69,6.31-.64,8.73-.88A20.22,20.22,0,0,1,70.48,130.12Z" fill="#af5945"/>
        <path d="M67.79,134.64a1.51,1.51,0,0,1,.93,2.26c-.35.58-.62.49-.4,1.51s2.65,5,2.08,6.93a14.6,14.6,0,0,1-2.3,5.06c-1.11,1.42-2.28,2.62-1.73,3.9s-1-.26-1.38-.35-.8-.49-.8.44-.17,1.65-.53.71.06-2.31-.5-1.6-.08,2.14-1,.89-.76-2.79-1.42-1.95-.4,1.85-.71.68a10.76,10.76,0,0,0-.49-2c-.4-.94-.79-.27-1.42-1.47s-1.87,0-1.91-1.82-.62-3.55,0-4.66,1.11-.44.89-2,0-1.2.13-2.67-1.11-1.28-.44-2.48,1.15-.62,1.2-1.33,2-2.27,2-2.27l7.68.53S67.17,134.47,67.79,134.64Z" fill="gray"/>
        <path d="M51,97.61a16.84,16.84,0,0,1,2.1.06C54,97.76,55,99.45,55.4,100s.12.84-.48,1a1.48,1.48,0,0,1-.67.14c-.33,0-2.43.23-3.92.37a2.21,2.21,0,0,1-1.06-1.78A2.46,2.46,0,0,1,51,97.61Z" fill="#190c0a"/>
        <path d="M80.06,97.08c2.26.09,4.4,1.2,4.64,2.37,0,.15.33.57,0,.75a13.16,13.16,0,0,1-4.75.88c-1.11-.41-1.85-1.14-1.85-2S78.89,97.48,80.06,97.08Z" fill="#190c0a"/>
        <path d="M58.92,96.07c-.08,2,.1,4.09.22,6.13a37.64,37.64,0,0,1,0,6.19c-.05.51-.11,1-.19,1.55a7.9,7.9,0,0,1-.16.79,2.41,2.41,0,0,1-.38.79,19.54,19.54,0,0,0-1.65,2.53,5.14,5.14,0,0,0-.69,2.73,12,12,0,0,0,.58,2.9,9,9,0,0,0,1.29,2.58,4.29,4.29,0,0,0,.45.49l.59.46c.43.33.85.84,1.11,1.07s.16.1.35.11a3.32,3.32,0,0,0,.65-.06,9.89,9.89,0,0,0,1.4-.3,3.19,3.19,0,0,0,2-1.64,6.4,6.4,0,0,1,4-2.77,5.09,5.09,0,0,0,1.3-.47,1.65,1.65,0,0,0,.73-1,12.19,12.19,0,0,0,.3-1.46,7.63,7.63,0,0,0-.46-2.94l.12,0a7.27,7.27,0,0,1,.88,3,10.32,10.32,0,0,1-.16,1.58,2.43,2.43,0,0,1-.93,1.52,4.75,4.75,0,0,1-1.52.71,5.22,5.22,0,0,0-1.32.54,5.66,5.66,0,0,0-2,2,4.78,4.78,0,0,1-1.07,1.33,4.47,4.47,0,0,1-1.56.84,8.55,8.55,0,0,1-1.6.32,4,4,0,0,1-.89.06,1.69,1.69,0,0,1-1-.41c-.49-.48-.69-.8-1.07-1.11l-.61-.51a4.9,4.9,0,0,1-.56-.66,9.93,9.93,0,0,1-1.35-3,12.29,12.29,0,0,1-.53-3.14,6,6,0,0,1,.87-3.14,20.55,20.55,0,0,1,1.78-2.57,1.65,1.65,0,0,0,.3-.57c.06-.23.12-.47.17-.72.09-.49.16-1,.22-1.49a36.68,36.68,0,0,0,.28-6.11c0-2-.14-4.1,0-6.16Z" fill="#b25f40"/>
      </g>
    </g>
    <g clip-path="url(#clip-path-3)">
      <g>
        <path d="M136.58,154.75c-2,3-1.19,4.46-3.58,5.65s-1.72.56-4.9,1.6-4.23.52-6.22,3-3.18,5.16-5,7.94-1.06,1.06-6.23,4.37-6.62,3.31-8.6,5.3.26,1.45-4.11,3.84-.53,1.32-9.8,4.5-8.47,1.19-13.24,4.37-5.69,2.38-8.34,5.56S59.78,207.81,55.8,214s-13,23.84-13,23.84H281.18s-4.9-19.34-15.63-28.08-11.52-9.4-16.29-10.19-4.23.13-10.32-5.7-13.64-12.84-17.35-13-2.25,1.19-5-1.2-3.05-2.25-5.83-4.5-4-1.59-7.55-4.37,4.24-1.4-8-6.62S136.58,154.75,136.58,154.75Z" fill="#441716"/>
        <path d="M76.53,212.23c2.64,1.44,2.4-11,6.24.72s6.48,21.35,6.72,14.63-2.4-9.35-1.2-13.91,2.88.59,7.68-5.47,4.56-6.53,6.24-9.53-1.44-12.36,2.88-4.44,7.44,5,8.16,10.08-.24,4.8-.24,12.24,1.2,15.35,2.16,10.07.24-13,.48-19.43.72-7.92,2.64-.72,5.65,15.6,5.7,19.67,1.15,9.17,1.29.48.75-11.3,7.56-12.13,29.56,1.95,34.49,4.94c3,1.81-18.9-36.35-36.29-58.22a26.85,26.85,0,0,0-2.94.79c-3.17,1.05-4.23.52-6.22,3-.14.17-.27.36-.4.53h0c-1.48,2-2.55,4.08-3.88,6.24l-.1.15c-.21.34-.42.68-.65,1-.93,1.39-1.19,1.66-1.87,2l-.28.13a24.28,24.28,0,0,0-2.4,1.23c-.48.27-1,.61-1.68,1-3.22,2.07-5,2.85-6.37,3.62a9.6,9.6,0,0,0-2.23,1.68,4.46,4.46,0,0,0-.81,1,2.46,2.46,0,0,0-.18.37l-.06.17a1.6,1.6,0,0,1-.46.65,4.93,4.93,0,0,1-.57.45l-.42.27c-.4.25-.92.56-1.61.93s-1.16.66-1.53.89-.5.34-.68.47l-.25.19-.23.16a1.43,1.43,0,0,1-.24.16c-.72.45-1.94.94-6.87,2.63-9.27,3.18-8.47,1.19-13.24,4.37-.89.6-1.65,1-2.31,1.42-.44.25-.84.45-1.2.64l-1,.5c-.46.22-.87.44-1.27.68l-.4.26a8.69,8.69,0,0,0-.81.64,14.76,14.76,0,0,0-1.34,1.42c-.83,1-1.8,2-2.86,3.2l-1.32,1.44c-.9,1-1.86,2.1-2.83,3.31-.73.91-1.48,1.89-2.22,2.94l-.75,1.08q-.37.56-.75,1.14c-.87,1.36-2,3.27-3.18,5.42l-.52.93L51,222.32c-.36.65-.72,1.32-1.08,2-.72,1.33-1.44,2.68-2.12,4-2.75,5.18-5,9.59-5,9.59H54.46c1.2-6.45,5-8.85,10.55-16.28S73.89,210.79,76.53,212.23Z" fill="#270c06"/>
        <path d="M170.93,237.26,162,172.58,139.33,155l-2.75-.26c-2,3-1.19,4.46-3.58,5.65-2.15,1.08-1.83.67-4.07,1.34l-.56,1.84c-2,5.56-5,12.18-4.24,19.86s-.26,12.18-.13,21.19.66,15.89,6.22,21.45a109.17,109.17,0,0,1,9.5,11.79h29.82Z" fill="#433128"/>
        <path d="M190.92,167.09c.31.92,2.53,1.52,7,8.14s7.91,4.5,7.38,11.52-.26,10.86-2.25,16.56-3.18,6.22-4,11.65.66,7.68-3.18,14.17-13.24,16-13.77,20-4.77-55.88-4.77-55.88Z" fill="#433128"/>
        <path d="M166.9,185.74c-7.63,13.18-.21,32.66,7.28,23.52s6.57-20.9,6.57-20.9Z" fill="#a67437"/>
        <path d="M149.58,166.39c2.09,1.36,7.57,15.37,7.57,15.37l22.47.2,15.6-24.65L192,131.48l-45.3,29.07Z" fill="#d29f6e"/>
        <path d="M189.72,136.32a5.42,5.42,0,0,1,1.63-.7c-1.1-1.58-.92-2.27-.1-5.32s3.79-5.37,5.19-10.33,2.48-4.35,1.4-9.62-1.87-7.91-5.59-11.64-6.83-2.32-8.53-7-2-3.88-3.1-9-.32-8.06-5.12-9.77-9.8-2-15.92-3.1-11.7-1.09-15.42,1.55-7,3-9.31,6.51-8,3.8-8.51,8c-.23,2.08-2,10.88-1.46,15.68s4.62,8.52,4.69,11.4c.16,5.74,3.57,9,.47,11.79-.9.81-1.59,1.43-2.1,2,1.16,3.23,3.06,7.24,4.12,9.67,1.29,3,0,7.17,0,10a14.22,14.22,0,0,0,3.28,8.56c2.09,2.59,1.5,1.89,2.09,3.88s2.29,4,3.59,5.68,4.68,2.19,8.56,1.89,2.09-1.19,5.38-2.39,5.48-1.49,10.16-2.89,4.78-2.68,8.16-4.87a87.62,87.62,0,0,0,8-6.28,20.58,20.58,0,0,0,4.58-6.47C186.43,142.09,188.42,137.21,189.72,136.32Z" fill="#ffc680"/>
        <path d="M120.58,90.18c.62-5.9-.94-10.39,2.79-13.81s4.34-9.31,8.53-14.43,4.34-7.44,9.31-11.17,5.27-7,10.55-5.74S156.57,48,161.22,48s11.17-3.57,15.36-2.95S191.79,47.36,196,54.5s.47,7.6,7.92,10.39,11.32,0,14.11,7S221,81.8,223.59,89.4s1.09,7.45,0,15.36.31,7.76-.93,12.57-3.88,4.19-2.48,9.31,3.25,5.43,2.48,8.84.46,7.91-3.41,10.71-3.42.77-1.25,5.12,1.56,8.22-1.7,11.32-5.9,6.52-8.22,6.52-6.68,1.55-9.47,0-5,.15-6.36-2.64-2.64-1-3.88-3.46-1.86-1.5-1.24-4.76.62-2.8.62-8.38-.46-5.28,1.4-8.53,3.57-3.88,2.33-5.59-1.08-2.33-.23-5.49,3.79-5.37,5.19-10.33,2.48-4.35,1.4-9.62-1.87-7.91-5.59-11.64-6.83-2.32-8.53-7-2-3.88-3.1-9-.32-8.06-5.12-9.77-9.8-2-15.92-3.1-11.7-1.09-15.42,1.55-7,3-9.31,6.51-6.4,5.35-6.87,9.54c-.16,1.51-1.23,9-1,12.5.46,6.17,2.47,9.36,2.57,13,.16,5.74,3.57,9,.47,11.79s-3.72,3.41-3.1,5.74-2-4.35-5-6.67-4.5-3.26-4.65-8.85-1.4-3.57.93-9,4.81-6,3.57-9.3A20.63,20.63,0,0,1,120.58,90.18Z" fill="#d1b077"/>
        <path d="M157.92,96.53c-1.83.19-5,2.65-2.45,2.58s5.65-1.33,9.61-.15,5.49,1.06,6.55,2,1.19-1.64-1.75-2.57S167.57,95.54,157.92,96.53Z" fill="#d1b077"/>
        <path d="M135.42,96.26c4.49-.1,8,1.52,7.67,2.47s-1.43.36-3.06.36-3.15-.77-5.06-.59-7.54,2.29-7.12.68S132.34,96.33,135.42,96.26Z" fill="#d1b077"/>
        <path d="M161.58,106.58c2.13-1.16,6-.75,6.84,0s4.41,2.71,3.37,3.3a27.25,27.25,0,0,1-7,2.25c-1.43.23-5.71-1.38-5.75-2.21C159,108,161.58,106.58,161.58,106.58Z" fill="#fae1d7"/>
        <path d="M130.31,108a6.53,6.53,0,0,1,5-2.54c1.46,0,5.71,1.33,6,2.21s.87,2-.75,2.58-7.23,1.43-8.54.87C131.06,110.71,129.23,109.75,130.31,108Z" fill="#fae1d7"/>
        <path d="M141.24,143c-.18-1.22,1.73-2.41,2.87-2.86s1.42.66,2.94.35,1.53-1.28,3.4-.42,2.14,1.21,4.58,2.21,4.94,1.1,4.55,1.84,1.6.91-5.13.52-10.16.17-11.11-.6S141.46,144.52,141.24,143Z" fill="#c05a1d"/>
        <path d="M142,142.89c-.43.05-1.2,0-1.08,1.1s.26,1.67,1.7,1.78c2.64.19,3.37-.52,6.64,0s5.39.7,7,.41,3.42-.39,3.11-1.06-1.48-1.51-4.72-1.89-3.86-.48-5.76-.59-1.34-.6-3.62-.27S142,142.89,142,142.89Z" fill="#992f00"/>
        <path d="M147.24,100.37a11.25,11.25,0,0,0-.19,3.56,9,9,0,0,1,.08,1.8,6.93,6.93,0,0,1-.09,1,5.21,5.21,0,0,1-.33,1c-.51,1.18-1.11,2.23-1.66,3.3a24.22,24.22,0,0,0-1.49,3.16l-.11.38,0,.33c0,.28,0,.57,0,.86v1.8c0,.61,0,1.23-.05,1.87a4.45,4.45,0,0,1-.57,2.08,34.16,34.16,0,0,0-1.64,3.13q-.37.81-.72,1.62c-.1.27-.21.54-.26.74a6,6,0,0,0-.11.79,14.46,14.46,0,0,0,.11,3.42,3.59,3.59,0,0,0,.18.72l0,.09a1.77,1.77,0,0,0,.12.19l.24.4a4.85,4.85,0,0,0,1,1.23,1,1,0,0,0,1,.27,13.69,13.69,0,0,0,1.57-.62c1.09-.48,2.2-1,3.34-1.46A12.76,12.76,0,0,1,151.3,131a7,7,0,0,1,1,.07l.88.09a4.52,4.52,0,0,0,1.4-.1,1.44,1.44,0,0,0,.54-.34,5,5,0,0,0,.54-.64c.41-.51.87-.92,1.21-1.36a1.59,1.59,0,0,0,.4-1.45,4.51,4.51,0,0,0-.82-1.56,4.67,4.67,0,0,1,1.2,1.43,2.14,2.14,0,0,1-.15,2c-.31.58-.68,1.06-.94,1.56a3.61,3.61,0,0,1-1.35,1.64,3.25,3.25,0,0,1-2.15.34l-.93-.1a4.82,4.82,0,0,0-.79-.05,12.13,12.13,0,0,0-3.2,1c-1.1.46-2.19,1-3.3,1.45a12.92,12.92,0,0,1-1.81.7,2.59,2.59,0,0,1-2.35-.57,6.11,6.11,0,0,1-1.27-1.61l-.24-.38-.11-.19a1.91,1.91,0,0,1-.16-.32,5.15,5.15,0,0,1-.28-1,15.72,15.72,0,0,1-.12-3.81,7.34,7.34,0,0,1,.15-1,5.76,5.76,0,0,1,.33-1c.24-.58.49-1.14.75-1.69a33.68,33.68,0,0,1,1.73-3.3,3.14,3.14,0,0,0,.34-1.39c.05-.56.05-1.15.05-1.75v-1.83c0-.31,0-.63,0-1,0-.17.06-.38.09-.56l.14-.5a27.26,27.26,0,0,1,1.58-3.4c.57-1.07,1.16-2.13,1.61-3.17a3,3,0,0,0,.29-1.5,7.67,7.67,0,0,1,.25-1.82A9.12,9.12,0,0,1,147.24,100.37Z" fill="#efae76"/>
        <path d="M187.69,154.75c-3.13,2.72-3.43,3-5.86,5.45s-3.65,2.73-4.56,4.86-.3,2-2.73,3a29.89,29.89,0,0,0-6.38,3.94c-1.72,1.32-2.63,1.62-2.63,3.75s.1,3.07-.71,4.55-2.43,4.56-1.41,6.68,1.56,4.46,2.65,3.65,1-2.84,2.51-1,3.24,3.84,3.34,4.85-.2,1.52-.31,5.17,0,7.69,0,7.69-3.13-3.85-3.44-7.19,0-5.85-.45-7.33-2.18-12.61-5.82-15.34-3.75-1.72-5.27-3.44-1.28-3-3.34-4.23-4.16-2.51-2.89,0,2.39.89,1.27,2.51-4.75-.31-3.13,2.73a30.57,30.57,0,0,1,2.83,7.69c.91,3.24-.57,2.85,1.39,5s.53,1.56-.38,2.07-1.31-.71-.4,2,1.11,1.62,1.72,5.67a31.41,31.41,0,0,0,2.73,9.82c1.62,3.54.81,2.94,2.23,6.58s1.52,4.25,3,6.07,10.23,19.74,11.75,21.56-.71,1.42,2.22-3.13,6.79-8.91,8.1-17,1.2-6.58,3.94-13.87,3.65-11.74,6.39-15.79,5-2.43,3.23-8.5-2.22-4.66-4.45-10.73a83.94,83.94,0,0,1-3-9C189.37,161.76,187.69,154.75,187.69,154.75Z" fill="#e0c3a2"/>
        <path d="M133.09,105.88a4.16,4.16,0,0,0-.25,1.42c0,1.93,1.28,3.49,2.87,3.49s2.88-1.56,2.88-3.49a4.37,4.37,0,0,0-.18-1.21,12.49,12.49,0,0,0-3.14-.67A6.51,6.51,0,0,0,133.09,105.88Z" fill="#673d40"/>
        <path d="M167.33,108.11a4.49,4.49,0,0,0-.5-2.1,8.92,8.92,0,0,0-5.12.52,4.52,4.52,0,0,0-.28,1.58c0,2.09,1.32,3.79,2.95,3.79S167.33,110.2,167.33,108.11Z" fill="#673d40"/>
        <path d="M225,198.67c1.71,3.72-.45,4.44,2.43,11.64s7.44,12.71,8.88,17c1.05,3.17,1.59,6.35,2.94,10.41h14.09v-3.21c0-6.48-.48-12.71-1.67-14.39S245,207,246,211.55s0,10.76,1,12.91,2.64,11.76-1.68-.72-5.52-6.36-8.4-15.54.24-4.85-2.88-14.21c-2.25-6.75-5.28-8-7.23-10.7-2-1.41-3.82-2.32-5.13-2.36-3.71-.14-2.25,1.19-5-1.2s-3.05-2.25-5.83-4.5-4-1.59-7.55-4.37c-1.19-.92-1.11-1.39-.94-1.79l-1.65.69c-.24,4.55,8.16,13,13.2,16.55S223.33,195,225,198.67Z" fill="#270c06"/>
      </g>
    </g>
    <g clip-path="url(#clip-path-4)">
      <g>
        <path d="M289.78,151.32c.76-.2,11.27,1.75,15.13,4.65s23.5,17.71,27.36,21.57S341.45,188,341.45,188h-155s8.44-11.27,10.58-11.59,2.78.81,6.32-1.77,13.38-5.42,13.38-5.42l52-20Z" fill="#8e5e33"/>
        <path d="M197,176.41c2.14-.32,2.78.81,6.32-1.77s13.38-5.42,13.38-5.42l7.59-2.92,2.53,1.93,2.33,19.1-1.27.67H210.82c.18-.33.42-.7.7-1.17a14.77,14.77,0,0,1,2.31-2.77c1-1.08.59-2.27,1.15-3.41a11.64,11.64,0,0,0,1.39-5.1c-.12-1.64-.82-.7-1.39-.7s-1.7,2.08-3.34,5.3c-1.3,2.55-3.43,5.73-4.7,7.85h-5.65c.42-1.16,1.2-1.87,1.72-3.25s-.89.13-3.09.5-2.27,1.71-3.6,2.75h-9.88S194.88,176.73,197,176.41Z" fill="#543128"/>
        <path d="M229,178.36l24.11-4.24,3.55,1.14.42,1.56-.15.47a1.44,1.44,0,0,0,.15-.47,1.81,1.81,0,0,1-.08,1,5.7,5.7,0,0,1-.33.9,13.88,13.88,0,0,1-.89,1.66,26.38,26.38,0,0,1-4.84,5.69,15.21,15.21,0,0,1-1.48,1.17,4.73,4.73,0,0,1-1.71.81,2.61,2.61,0,0,0,.46-.34l-.46.34h-22Z" fill="#72543d"/>
        <path d="M322.15,184.69a26.51,26.51,0,0,1-3.21-3.85c-1.52-2.08-2.27-1.89-4.86-4a28.05,28.05,0,0,1-5.29-5.37c-2.84-3.34-5.74-3.59-10-5.86s-5.86-3.66-9.26-5.55a41,41,0,0,0-8.89-4c-4.16-1.39-4.66-.82-4.28-1.39l-1.14-.59,2.47-4,12.12,1.21c.76-.2,11.27,1.75,15.13,4.65s23.5,17.71,27.36,21.57S341.45,188,341.45,188H328.59s-1.08-.29-2.59-.54S323.29,185.82,322.15,184.69Z" fill="#543128"/>
        <path d="M276.54,154.09c-.46,1.69-6.83,14.94-9.28,16.62a89.78,89.78,0,0,1-9.78,5.92c-2.32,1-6.18,2.32-9.66,3.86A41.6,41.6,0,0,1,237.9,184c-5,1.16-10.68,1.8-11.59,3.73s-9.78,19.84-9.78,19.84-2.32-3.87-2.32-7.47-.64-4.9-.26-8.5a9.8,9.8,0,0,1,2.83-5.8s-2.57-1.41,0-4.25,3.87-2.83,4.25-5.15-.64-1-2.57-2.32-2.58-2.57-2.32-3.73.39-.9,2.06-2.06,4.25-3.09,5-4.25a3.74,3.74,0,0,1,1.92-1.47,11.93,11.93,0,0,1,0-5.84,19.17,19.17,0,0,1,3.11-6.21l49.26-26.65Z" fill="#eddeda"/>
        <path d="M275.43,128.27c-.95,5.35-6.88,18-10.87,20s-15.84,7.47-20.47,8.24S228,155,226.7,154.09s-5.23-5.66-6.7-10a9,9,0,0,0-5.79-5.54L208.54,103l13.91-41.72,53,3.6,10.38,55.76Z" fill="#e1b89d"/>
        <path d="M279.5,55.58a20.7,20.7,0,0,1,8.76,5.8c2.31,2.83,2.06,3.34,3.73,6.31s2.45,4.5,3.22,5.66,2.19,1.8,3.35,4.25,3.12,3.61,1.16,6.7c0,0-2.69,3.57-1.35,5s3.92-1.4,4.44,3.37.13,7.34-.39,8.88-.77,1,0,4,1.65,5.4.63,7.34-2.82,2.44-2.69,5,3.22,4.63.52,8.5-4,2.11-3.67,4.12.7,3-.33,5.15-1.67.38-1.54,3.86,1.67,2.19.26,4.51-1.29,2.57-1.29,4-3.61,3.48-6.7,3.86.39-.12-4.25,1-4.51,1.16-6.82,1.16-3.22-3.22-2.71-5.92,1.93-2,.52-5-1.7-.13-.66-3.87,2.07-5.66,1.82-8.37.51-1.28-1-5.92-2.32-1.29-2.32-8.5a126.63,126.63,0,0,1,.64-15.32s-2.06-4.51-2.06-7.73a14.2,14.2,0,0,1,1.29-6.7c1-2.7,2.19-2.31,1.42-5.4s-.39-5.16-1.55-7,.13-3-3.09-4.89-4.89-2.32-7.86-2.32-.51-1.42-5.66-.9-4.12.9-7.73,1.29-4.51,1.16-6.31.51a25.86,25.86,0,0,0-8-1.29c-3.09,0-4.9-.9-6.7.52a14.75,14.75,0,0,0-4.12,4.51c-.77,1.54-2.19,2.19-2.83,4.76s-1,3.22-1,5.28a14,14,0,0,1-1.16,6.7c-1.29,3.09-.9,7.08-1.68,8.88s-.77,2.71-1.15,5.41a36.46,36.46,0,0,0-.39,5.41,54.61,54.61,0,0,1,0,6.57c-.26,1.8.52,4.7,1.33,7.71s-.43,6.58.21,9.29,4.64,12.23,4.25,12.23-1.28,0-4.12-1.93-4.12-1.93-4.12-4.25-4-3.09-4-3.09c-1.18-4.41-3-5.93-3.86-7.6s-1.68-1.93-1.68-3.61a6.86,6.86,0,0,0-.31-2.85c-.39-1.44,2.64-.11,0-2.17s-3.29-2.45-3.94-4.38-1.41-1.67-.64-3.73a10.67,10.67,0,0,1,2.06-3.61c.39-.38,1,1.8,1.42-2s-.34-4.83,1.05-6.18,3.2-.58,3.2-2.13-.91-1.8,0-3.48,1.54-1,1.54-2.44-.38-1.93,0-3.48,1.68-2.06,1.68-3.09a17.59,17.59,0,0,1,0-3.73c.25-1.68.12-.26.77-2.84s.77-2.44.77-3.86a10.41,10.41,0,0,1,.43-3,10.38,10.38,0,0,1,.6-2.65c.77-2.44,1.15-.38,1.74-2.7s-1.22-.13,1.87-4.38,4.89-3.35,6.05-5.28,5.92-5.92,7.85-6.31,3.22-1.42,5.8-2.19,4-2.06,5.67-1.54a14.23,14.23,0,0,0,5.4.9c2.84,0,5.28-1.53,7.86-1s3.61,0,7.73,1.4,4,1.42,6.18,2.19a33.69,33.69,0,0,1,5.66,2.71c1.55.9,3.09,1.67,3.87,2.06S279.5,55.58,279.5,55.58Z" fill="#b7a7a3"/>
        <path d="M264.29,98.22a21.3,21.3,0,0,0-5.74-2,35.16,35.16,0,0,0-5.46-.71c-2-.12-5.67-.4-6.85,0s-2.54.87-1.43,1.35a14.68,14.68,0,0,0,4.79.75c1.07-.08,3.13-.08,4.83-.08s4.36-.08,5.35.28a13.51,13.51,0,0,0,3.13,1.07C264.17,99.05,264.9,98.51,264.29,98.22Z" fill="#201d16"/>
        <path d="M231.39,94.74c1,.71,1.27,2.06.2,1.66a13.08,13.08,0,0,0-2.7-.79,9.56,9.56,0,0,0-2.77-.28c-1.43,0-1.9-.09-3.09,0a26.74,26.74,0,0,0-2.69,0c-1,.16-1.46-.71-.35-1s1.66-.76,2.64-.65a19,19,0,0,0,4.46-.11A25.73,25.73,0,0,1,231.39,94.74Z" fill="#201d16"/>
        <path d="M257,102c.67.4,3,1.55,2.73,2.42s-1.47,1.75-3.33,1.86-4,.44-5.58-.16c-1.23-.47-2.69-1.06-2.42-1.86s1.63-2.41,2.93-2.53S257,102,257,102Z" fill="#fae1d7"/>
        <path d="M232.26,102.14c-.45-1.21-2.22-1.78-3.92-2.14s-6,.12-6.29,1.68,4.35,2.61,5.93,2.39S233.13,104.48,232.26,102.14Z" fill="#fae1d7"/>
        <path d="M236.77,100.08c.07.39.28.71.39,1.1a2.93,2.93,0,0,1,.08,1.25,9.93,9.93,0,0,1-.3,1.17l-.28,1.1c-.52,1.41-.95,2.88-1.38,4.34a17.54,17.54,0,0,1-.76,2.25c-.32.74-.69,1.4-1,2.09a18.73,18.73,0,0,0-1.42,4.22,15.56,15.56,0,0,0-.35,2.19,3.09,3.09,0,0,0,0,.9,1.41,1.41,0,0,0,.18.17,4.63,4.63,0,0,0,.42.32,20,20,0,0,0,1.89,1.17c.33.18.66.36,1,.51a4.62,4.62,0,0,0,.92.37h0a.56.56,0,0,0,.17-.07c.13-.06.28-.16.43-.25.31-.19.62-.41.93-.64s.63-.44,1-.66a3.38,3.38,0,0,1,1.26-.51,7.43,7.43,0,0,1,2.44.31,6.47,6.47,0,0,1,2.14,1,7.9,7.9,0,0,0-2.23-.38,6.36,6.36,0,0,0-2.13.26,5.1,5.1,0,0,0-1.78,1c-.31.22-.63.44-1,.66a5.54,5.54,0,0,1-.56.33,2.08,2.08,0,0,1-.36.14,1.26,1.26,0,0,1-.55,0,6.1,6.1,0,0,1-1.23-.47c-.36-.17-.71-.36-1.05-.54a22.31,22.31,0,0,1-2-1.25,5.51,5.51,0,0,1-.5-.38,1.59,1.59,0,0,1-.54-.69,3.62,3.62,0,0,1-.09-1.39,18,18,0,0,1,.37-2.35,20.44,20.44,0,0,1,1.5-4.47c.32-.72.7-1.41,1-2.07a16.83,16.83,0,0,0,.7-2.11c.43-1.47.88-3,1.4-4.42.32-.7.82-1.4,1.09-2a2.4,2.4,0,0,0,.2-1A11,11,0,0,1,236.77,100.08Z" fill="#d79f62"/>
        <path d="M229.81,116.48a5.53,5.53,0,0,0-.4.94,8.79,8.79,0,0,0-.51.83,10.44,10.44,0,0,0-.78,1.79,3,3,0,0,0-.16.91,1,1,0,0,0,.28.74,6.39,6.39,0,0,0,.62.74c.17.27.32.6.63.7-.16.11-.38,0-.55,0a3.33,3.33,0,0,1-.5-.25,6.49,6.49,0,0,1-.69-.8,2.44,2.44,0,0,1-.29-.49,1.37,1.37,0,0,1-.1-.61,4.14,4.14,0,0,1,.18-1.08,10.82,10.82,0,0,1,.83-1.91c.17-.3.35-.59.54-.89A3.19,3.19,0,0,1,229.81,116.48Z" fill="#be8257"/>
        <path d="M247.91,133.64c1.19-1.73-5.79-.71-7.29-1a19.51,19.51,0,0,0-4.66-.08c-.7.08-2.91-.75-4.57-.59a8.85,8.85,0,0,0-3.75,1c-.75.5,7.12,3.41,7.12,3.41l6.65-.54S247.53,134.19,247.91,133.64Z" fill="#9b643e"/>
        <path d="M246.37,134.21c-.13-.48-4-.33-5.37-.46a16.17,16.17,0,0,0-4.29.23,11.92,11.92,0,0,1-3.74-.28c-1.33-.2-4.16-.08-4.25.26s3,1.62,4.09,2.2,6.6,1,8.73.52S246.67,135.34,246.37,134.21Z" fill="#bb784e"/>
        <path d="M253.6,106.44a3,3,0,0,1-1.82-2.74,2.9,2.9,0,0,1,.79-2c1.79,0,4.4.28,4.4.28l.3.17a2.93,2.93,0,0,1-1.06,4.12C255.39,106.33,254.49,106.41,253.6,106.44Z" fill="#191915"/>
        <path d="M228.34,100a9.28,9.28,0,0,1,2.94,1v.08a3.24,3.24,0,0,1-1.65,2.88,13.57,13.57,0,0,0-1.65.07,5.49,5.49,0,0,1-.73,0,3.32,3.32,0,0,1-1.64-4.11A9.39,9.39,0,0,1,228.34,100Z" fill="#191915"/>
      </g>
    </g>
  </g>
  <polygon points="365.56 104.46 324.08 172.48 0 172.48 0 194.65 279.31 194.65 1344.29 194.65 1344.29 104.46 365.56 104.46" fill="#212026"/>
  <g>
    <path d="M374.42,164.81l.16-.16h1l.15.16a18.38,18.38,0,0,0,.27,3.05A2.49,2.49,0,0,0,377,169a7.54,7.54,0,0,0,2.36,1,11.67,11.67,0,0,0,3,.39,8.74,8.74,0,0,0,3.72-.76,5.79,5.79,0,0,0,2.57-2.24,6.13,6.13,0,0,0,.92-3.31,5.33,5.33,0,0,0-.44-2.24,3.83,3.83,0,0,0-1.23-1.54,5.71,5.71,0,0,0-1.81-.86,29.87,29.87,0,0,0-3-.61q-2-.31-3.06-.57a10.53,10.53,0,0,1-2.2-.78,5.7,5.7,0,0,1-1.82-1.34,6.18,6.18,0,0,1-1.18-2,7.27,7.27,0,0,1-.44-2.53,7.8,7.8,0,0,1,2.54-6,9.73,9.73,0,0,1,6.82-2.33,18.09,18.09,0,0,1,3.7.42,14.71,14.71,0,0,1,3.64,1.24l.14.24a26.64,26.64,0,0,0-.53,5.11l-.17.16h-1l-.15-.14c0-1.56-.07-2.54-.12-3s-.65-.9-1.78-1.5a7.75,7.75,0,0,0-3.69-.9,7.42,7.42,0,0,0-3.11.66,4.56,4.56,0,0,0-2.18,2.09,6.21,6.21,0,0,0-.75,2.91,4.51,4.51,0,0,0,.45,2,3.77,3.77,0,0,0,1.17,1.4,4.79,4.79,0,0,0,1.66.77c.63.17,1.78.38,3.46.63a20.43,20.43,0,0,1,5,1.18,5.53,5.53,0,0,1,2.52,2.2,6.68,6.68,0,0,1,.95,3.63,8.6,8.6,0,0,1-3.39,6.93,12.55,12.55,0,0,1-8.21,2.78,16.41,16.41,0,0,1-7.09-1.45l-.12-.25A56.32,56.32,0,0,0,374.42,164.81Z" fill="#fff"/>
    <path d="M394.81,158.07a17.27,17.27,0,0,1,.84-5.47,12.81,12.81,0,0,1,2.86-4.7,13.92,13.92,0,0,1,4.88-3.34,16.65,16.65,0,0,1,6.44-1.18q6.66,0,10.61,3.62t3.94,9.9a16.13,16.13,0,0,1-1.93,7.92,13.46,13.46,0,0,1-5.54,5.47,16.61,16.61,0,0,1-8.09,2,15.71,15.71,0,0,1-5.86-1.07A11.92,11.92,0,0,1,398.4,168a13,13,0,0,1-2.74-4.88A17.66,17.66,0,0,1,394.81,158.07Zm4.07-1.29a18.67,18.67,0,0,0,.77,5.12,13.45,13.45,0,0,0,2.3,4.71,9.87,9.87,0,0,0,3.54,2.92,11.22,11.22,0,0,0,9.95-.43,8.72,8.72,0,0,0,3.59-4.3,16.78,16.78,0,0,0,1.23-6.56,17.62,17.62,0,0,0-1.4-7.13,9.43,9.43,0,0,0-4-4.62,11.57,11.57,0,0,0-5.76-1.45,9.67,9.67,0,0,0-7.48,3Q398.88,151,398.88,156.78Z" fill="#fff"/>
    <path d="M452.57,168.22l-.74,1.82a20.19,20.19,0,0,1-9.26,2.21q-7.05,0-11.46-4a13.5,13.5,0,0,1-4.4-10.47,13.78,13.78,0,0,1,2.2-7.78,13.54,13.54,0,0,1,5.8-5,19.21,19.21,0,0,1,8.09-1.65,24,24,0,0,1,5.14.55,21.39,21.39,0,0,1,4.24,1.31l.13.19a24.85,24.85,0,0,0-.84,5.41l-.13.16h-.92l-.16-.16-.19-3.32a10.8,10.8,0,0,0-3.45-1.77,14.07,14.07,0,0,0-4.21-.63,12.3,12.3,0,0,0-5.92,1.41,9.93,9.93,0,0,0-4.06,4.11,13.75,13.75,0,0,0-1.44,6.57,13.49,13.49,0,0,0,1.69,6.85,11.62,11.62,0,0,0,4.64,4.53,14.22,14.22,0,0,0,6.87,1.59,15.83,15.83,0,0,0,3.34-.34,11.38,11.38,0,0,0,4.71-2Z" fill="#fff"/>
    <path d="M454.83,143.93l2.44.07c1.61.06,2.65.08,3.15.08s2.31-.05,5.6-.15l.16.13v1l-.16.14c-.89,0-1.59.06-2.08.11a2.54,2.54,0,0,0-1.06.3,1.38,1.38,0,0,0-.44,1,17.57,17.57,0,0,0-.11,2.2l0,4.49v9l0,3.81c0,1.48.06,2.43.12,2.86a1.92,1.92,0,0,0,.28.85,1.5,1.5,0,0,0,.72.37,16.21,16.21,0,0,0,2.59.22l.16.12v1l-.16.16-3.43-.12-2.17,0c-.4,0-2.27.06-5.59.16l-.15-.16v-1l.15-.12a22.64,22.64,0,0,0,2.43-.19,1.76,1.76,0,0,0,.81-.31,1.64,1.64,0,0,0,.33-.79,18.46,18.46,0,0,0,.14-2.69l0-4.13v-9l0-3.81c0-1.48,0-2.44-.1-2.87a1.74,1.74,0,0,0-.28-.86,1.41,1.41,0,0,0-.71-.35,16.9,16.9,0,0,0-2.6-.21l-.15-.14v-1Z" fill="#fff"/>
    <path d="M468,171.68l-.18-.16v-1l.18-.16a8.56,8.56,0,0,0,1.83-.14,1.65,1.65,0,0,0,.74-.51,17.57,17.57,0,0,0,1.29-2.49l2.05-4.46,5.32-12q1.5-3.53,3-7.07h1.27l8.33,19.61,1.12,2.62c.32.74.7,1.55,1.12,2.42a7.2,7.2,0,0,0,.88,1.54,1.61,1.61,0,0,0,.61.37,6.64,6.64,0,0,0,1.61.14l.15.16v1l-.15.16c-1.38-.12-2.63-.18-3.73-.18l-6.49.18-.15-.16v-1l.15-.16a16.26,16.26,0,0,0,2.74-.18.66.66,0,0,0,.54-.68,3.39,3.39,0,0,0-.27-1.13l-2.4-6H476.26l-2.13,5a5.88,5.88,0,0,0-.57,2,.78.78,0,0,0,.53.72,9.12,9.12,0,0,0,2.66.25l.17.16v1l-.15.16c-1.68-.1-3.15-.16-4.42-.16C470.92,171.52,469.47,171.58,468,171.68Zm8.9-11h9.89L481.9,149Z" fill="#fff"/>
    <path d="M499,144.06l.16-.13c3.23.1,5.09.15,5.59.15s2.31-.05,5.6-.15l.16.13v1l-.16.14c-.9,0-1.59.06-2.08.11a2.49,2.49,0,0,0-1.06.3,1.34,1.34,0,0,0-.44,1,17.57,17.57,0,0,0-.11,2.2l0,4.49v8.63c0,2.17,0,3.68,0,4.54l.1,3.37h4c3.18,0,5.16,0,5.95-.11a8.05,8.05,0,0,0,2.27-.57,15,15,0,0,0,.62-2.24c.27-1.18.41-1.85.42-2l.18-.15h1l.14.15a28.36,28.36,0,0,0-.32,3c-.11,1.5-.17,2.71-.17,3.63l-.16.16q-3.71-.12-9.74-.12l-5.7,0c-1.31,0-2.64.06-4,.16l-.16-.16v-.64l.16-.2a7.9,7.9,0,0,0,1.33-.76,12.12,12.12,0,0,0,.24-2.52c.09-1.59.13-3.5.13-5.74v-8.38l0-3.81a28.23,28.23,0,0,0-.11-2.87,1.75,1.75,0,0,0-.27-.86,1.41,1.41,0,0,0-.71-.35,16.9,16.9,0,0,0-2.6-.21L499,145Z" fill="#fff"/>
    <path d="M560,168.22l-.74,1.82a20.16,20.16,0,0,1-9.26,2.21q-7.05,0-11.45-4a13.48,13.48,0,0,1-4.41-10.47,13.78,13.78,0,0,1,2.2-7.78,13.6,13.6,0,0,1,5.8-5,19.21,19.21,0,0,1,8.09-1.65,23.94,23.94,0,0,1,5.14.55,21.18,21.18,0,0,1,4.24,1.31l.14.19a24.85,24.85,0,0,0-.84,5.41l-.14.16h-.92l-.15-.16-.2-3.32a10.8,10.8,0,0,0-3.45-1.77,14,14,0,0,0-4.21-.63,12.23,12.23,0,0,0-5.91,1.41,10,10,0,0,0-4.07,4.11,13.75,13.75,0,0,0-1.44,6.57,13.39,13.39,0,0,0,1.7,6.85,11.55,11.55,0,0,0,4.64,4.53,14.18,14.18,0,0,0,6.86,1.59,15.83,15.83,0,0,0,3.34-.34,12.29,12.29,0,0,0,2.67-.82,11.66,11.66,0,0,0,2-1.19Z" fill="#fff"/>
    <path d="M562,158.07a17.27,17.27,0,0,1,.84-5.47,12.68,12.68,0,0,1,2.86-4.7,13.83,13.83,0,0,1,4.88-3.34,16.61,16.61,0,0,1,6.44-1.18q6.66,0,10.61,3.62t3.94,9.9a16.13,16.13,0,0,1-1.93,7.92,13.52,13.52,0,0,1-5.54,5.47,16.61,16.61,0,0,1-8.09,2,15.67,15.67,0,0,1-5.86-1.07,11.92,11.92,0,0,1-4.56-3.17,13,13,0,0,1-2.74-4.88A17.32,17.32,0,0,1,562,158.07Zm4.06-1.29a18.7,18.7,0,0,0,.78,5.12,13.45,13.45,0,0,0,2.3,4.71,9.87,9.87,0,0,0,3.54,2.92,11.22,11.22,0,0,0,10-.43,8.72,8.72,0,0,0,3.59-4.3,16.78,16.78,0,0,0,1.23-6.56,17.45,17.45,0,0,0-1.41-7.13,9.37,9.37,0,0,0-4-4.62,11.57,11.57,0,0,0-5.76-1.45,9.65,9.65,0,0,0-7.48,3Q566.06,151,566.06,156.78Z" fill="#fff"/>
    <path d="M593.8,171.66l-.18-.17v-.9l.18-.16a12.78,12.78,0,0,0,1.9-.14,1.36,1.36,0,0,0,.92-.39,1.72,1.72,0,0,0,.27-.88c.05-.4.09-1.31.14-2.73s.07-2.43.07-3V147.46a2.45,2.45,0,0,0-.36-1.47,1.61,1.61,0,0,0-1-.61,13.53,13.53,0,0,0-2.13-.14l-.15-.16v-.92l.15-.17q2.7.09,3.54.09,2,0,3.24-.09l6.23,8.08,9.16,11.49c1.11,1.39,2.23,2.71,3.38,4V152.4c0-.47,0-1.46-.07-3s-.1-2.5-.17-2.91a1.34,1.34,0,0,0-.34-.83,1.92,1.92,0,0,0-.91-.32,13.66,13.66,0,0,0-1.83-.12l-.16-.16v-.9l.16-.17c1,.06,2.56.09,4.51.09,1.78,0,3.08,0,3.89-.09l.17.17v.9l-.15.16a13.54,13.54,0,0,0-2,.14,1.28,1.28,0,0,0-.87.42,2.26,2.26,0,0,0-.25.86c0,.38-.09,1.28-.14,2.7s-.06,2.44-.06,3.06v9.28l0,5.37c0,1.76,0,3.52.07,5.29a32.65,32.65,0,0,0-3.37-.82l-1.39-1.64-4.16-5.07-13.24-16.55v15q0,.9.06,3.21c0,1.53.11,2.46.17,2.79a1.7,1.7,0,0,0,.25.67,1.41,1.41,0,0,0,.68.34,8.93,8.93,0,0,0,2.14.18l.15.16v.91l-.15.16a27.68,27.68,0,0,0-3.28-.14C597,171.52,595.26,171.57,593.8,171.66Z" fill="#fff"/>
    <path d="M649.33,143.93l.17.17c-.12,1.17-.17,3.22-.17,6.14l-.16.15h-.92l-.16-.17-.21-1.8c-.1-1-.19-1.55-.24-1.77a.88.88,0,0,0-.29-.47,3.36,3.36,0,0,0-1.27-.24c-.71-.07-1.51-.1-2.4-.1H640c-.11,2.94-.16,4.64-.16,5.1v11.38l0,3.81A28,28,0,0,0,640,169a1.74,1.74,0,0,0,.27.86,1.54,1.54,0,0,0,.72.36,16.43,16.43,0,0,0,2.61.22l.14.12v1l-.14.16c-3.33-.1-5.19-.16-5.58-.16s-2.28.06-5.57.16l-.16-.16v-1l.16-.12a21.9,21.9,0,0,0,2.43-.19,1.66,1.66,0,0,0,.8-.31,1.62,1.62,0,0,0,.35-.79,16.27,16.27,0,0,0,.13-2.69l0-4.13V150.94c0-.21,0-1.91-.16-5.1h-2.91c-1.19,0-2.23,0-3.1.08s-1.38.18-1.51.4a6.83,6.83,0,0,0-.39,2.1l-.19,1.8-.18.17h-.9l-.15-.15q0-4.71-.18-6.14l.18-.17q3.39.15,11.31.15T649.33,143.93Z" fill="#fff"/>
    <path d="M651.08,144.06l.16-.13c2.38.1,4.24.15,5.57.15s3.45,0,6-.13c.93,0,1.6,0,2,0q5,0,6.7,1.79a5.86,5.86,0,0,1,1.76,4.26,6.56,6.56,0,0,1-.86,3.22,7.61,7.61,0,0,1-2.54,2.71,12.66,12.66,0,0,1-4.63,1.69q.56.76,2,2.64l2.77,3.67q1.35,1.81,2.89,3.84a12.78,12.78,0,0,0,2,2.28,2.43,2.43,0,0,0,.77.32,6.31,6.31,0,0,0,1,.06l.16.16v.92l-.18.17a17.82,17.82,0,0,0-2.23-.12c-.92,0-1.93,0-3,.12-.9-1.09-2.31-3-4.24-5.68a110.17,110.17,0,0,0-6.88-8.69l.2-.61c.68,0,1.2.06,1.58.06a7.93,7.93,0,0,0,5.29-1.62,5.56,5.56,0,0,0,1.92-4.49,4.63,4.63,0,0,0-1.72-3.9,7.47,7.47,0,0,0-4.65-1.32A12.85,12.85,0,0,0,659,146c-.19.28-.29,2.73-.29,7.32v9l0,3.81a24.32,24.32,0,0,0,.12,2.86,1.8,1.8,0,0,0,.28.85,1.41,1.41,0,0,0,.71.37,16.39,16.39,0,0,0,2.6.22l.16.12v1l-.16.16-3.44-.12-2.16,0c-.41,0-2.27.06-5.59.16l-.16-.16v-1l.16-.12a22.12,22.12,0,0,0,2.42-.19,1.71,1.71,0,0,0,.81-.31,1.47,1.47,0,0,0,.33-.79,16.61,16.61,0,0,0,.15-2.69l0-4.13v-9l0-3.81a28.23,28.23,0,0,0-.11-2.87,1.87,1.87,0,0,0-.27-.86,1.41,1.41,0,0,0-.71-.35,16.9,16.9,0,0,0-2.6-.21l-.16-.14Z" fill="#fff"/>
    <path d="M677.84,171.68l-.17-.16v-1l.17-.16a8.75,8.75,0,0,0,1.84-.14,1.68,1.68,0,0,0,.73-.51,17.14,17.14,0,0,0,1.3-2.49l2-4.46,5.31-12q1.5-3.53,3-7.07h1.27l8.34,19.61,1.11,2.62c.33.74.7,1.55,1.13,2.42a7.36,7.36,0,0,0,.87,1.54,1.78,1.78,0,0,0,.61.37,6.7,6.7,0,0,0,1.61.14l.16.16v1l-.16.16c-1.38-.12-2.62-.18-3.73-.18l-6.48.18-.16-.16v-1l.16-.16a16.1,16.1,0,0,0,2.73-.18.66.66,0,0,0,.55-.68,3.21,3.21,0,0,0-.28-1.13l-2.4-6H686.08l-2.13,5a6,6,0,0,0-.56,2,.76.76,0,0,0,.53.72,9,9,0,0,0,2.65.25l.18.16v1l-.16.16c-1.68-.1-3.15-.16-4.41-.16C680.74,171.52,679.3,171.58,677.84,171.68Zm8.91-11h9.88L691.73,149Z" fill="#fff"/>
    <path d="M735.34,168.22,734.6,170a20.16,20.16,0,0,1-9.26,2.21q-7.05,0-11.45-4a13.48,13.48,0,0,1-4.41-10.47,13.78,13.78,0,0,1,2.2-7.78,13.6,13.6,0,0,1,5.8-5,19.22,19.22,0,0,1,8.1-1.65,23.91,23.91,0,0,1,5.13.55,21.18,21.18,0,0,1,4.24,1.31l.14.19a24.85,24.85,0,0,0-.84,5.41l-.14.16h-.92l-.15-.16-.2-3.32a10.8,10.8,0,0,0-3.45-1.77,14,14,0,0,0-4.21-.63,12.23,12.23,0,0,0-5.91,1.41,10,10,0,0,0-4.07,4.11,13.75,13.75,0,0,0-1.44,6.57,13.49,13.49,0,0,0,1.7,6.85,11.55,11.55,0,0,0,4.64,4.53,14.18,14.18,0,0,0,6.86,1.59,15.83,15.83,0,0,0,3.34-.34A12.29,12.29,0,0,0,733,169a11.66,11.66,0,0,0,2-1.19Z" fill="#fff"/>
    <path d="M760,143.93l.17.17q-.16,1.76-.17,6.14l-.16.15H759l-.15-.17-.22-1.8a15.69,15.69,0,0,0-.24-1.77.87.87,0,0,0-.28-.47,3.42,3.42,0,0,0-1.27-.24c-.72-.07-1.52-.1-2.41-.1h-3.69q-.15,4.41-.15,5.1v11.38l0,3.81c0,1.48,0,2.43.1,2.86a1.63,1.63,0,0,0,.28.86,1.49,1.49,0,0,0,.71.36,16.47,16.47,0,0,0,2.62.22l.13.12v1l-.13.16c-3.34-.1-5.2-.16-5.59-.16s-2.27.06-5.57.16l-.15-.16v-1l.15-.12a22.16,22.16,0,0,0,2.44-.19,1.76,1.76,0,0,0,.8-.31,1.63,1.63,0,0,0,.34-.79,16.27,16.27,0,0,0,.13-2.69l0-4.13V150.94q0-.31-.15-5.1h-2.91c-1.2,0-2.24,0-3.11.08s-1.37.18-1.51.4a6.64,6.64,0,0,0-.38,2.1l-.2,1.8-.17.17h-.9l-.16-.15q0-4.71-.17-6.14l.17-.17q3.4.15,11.31.15C754.08,144.08,757.85,144,760,143.93Z" fill="#fff"/>
    <path d="M772.12,143.93q4.92.15,6.27.15c1.22,0,2.6,0,4.12-.09s2.61-.08,3-.08a15.49,15.49,0,0,1,4.52.56,6,6,0,0,1,3,2.07,5.77,5.77,0,0,1,1.17,3.64,7.43,7.43,0,0,1-.82,3.39,8.15,8.15,0,0,1-2.29,2.8,9.65,9.65,0,0,1-3,1.65,10,10,0,0,1-3.13.5,14.22,14.22,0,0,1-2.69-.28l-.34-1.19.18-.19a11.37,11.37,0,0,0,2.38.33,5.32,5.32,0,0,0,4.11-1.69,6.14,6.14,0,0,0,1.56-4.33,5.67,5.67,0,0,0-1.62-4.24,6.7,6.7,0,0,0-4.87-1.58,12.94,12.94,0,0,0-3.9.67q-.18,1.5-.18,7.26v9l0,3.81a24.32,24.32,0,0,0,.12,2.86,1.8,1.8,0,0,0,.28.85,1.41,1.41,0,0,0,.71.37,16.39,16.39,0,0,0,2.6.22l.16.12v1l-.16.16c-3.32-.1-5.19-.16-5.61-.16s-2.3.06-5.58.16l-.16-.16v-1l.16-.12a22.12,22.12,0,0,0,2.42-.19,1.76,1.76,0,0,0,.81-.31,1.47,1.47,0,0,0,.33-.79,16.61,16.61,0,0,0,.15-2.69l0-4.13v-9l0-3.81a28.23,28.23,0,0,0-.11-2.87,1.87,1.87,0,0,0-.27-.86,1.46,1.46,0,0,0-.71-.35,17,17,0,0,0-2.6-.21L772,145v-1Z" fill="#fff"/>
    <path d="M796.55,144.06l.16-.13q6.69.1,8.57.11c4.27,0,8.08,0,11.41-.11l.1.13a33.07,33.07,0,0,0-.73,5.88l-.11.16h-1l-.18-.16a1.78,1.78,0,0,0,0-.31,18.82,18.82,0,0,0-.25-3.16,10.45,10.45,0,0,0-3.41-.72c-1.45-.11-2.54-.16-3.27-.16-1,0-2.34.07-3.95.21l-.07,3.13-.06,3.57-.06,4c1.41.07,2.7.11,3.89.11s2.2,0,3-.11a4.88,4.88,0,0,0,1.42-.25.79.79,0,0,0,.31-.49,7.06,7.06,0,0,0,.19-1.28l.08-1.21.15-.15h.9l.16.15c0,1.42-.06,2.85-.1,4.28l.1,4.39-.16.16h-.9l-.15-.16-.14-1.17c-.12-.91-.2-1.45-.25-1.63a.94.94,0,0,0-.37-.46,3.94,3.94,0,0,0-1.45-.31c-.78-.08-1.86-.12-3.22-.12-.76,0-1.91,0-3.46.1-.07,1.09-.1,2.92-.1,5.47,0,2.73,0,4.75.1,6h3.59c3.17,0,5.15,0,5.94-.11a8,8,0,0,0,2.27-.57c.11-.3.3-1,.57-2.08s.42-1.77.46-2l.2-.14h.93l.16.14a26.28,26.28,0,0,0-.34,2.93c-.11,1.39-.17,2.58-.17,3.57l-.13.16q-3.74-.12-9.77-.12l-5.31,0c-1.24,0-2.53.06-3.87.16l-.16-.16v-.64l.16-.2a10.1,10.1,0,0,0,1.32-.73,15.38,15.38,0,0,0,.27-3.42c.07-2.18.11-3.84.11-5v-7.16l0-4.44c0-1,0-1.75,0-2.35a7.11,7.11,0,0,0-.14-1.3,1.55,1.55,0,0,0-.22-.55,1,1,0,0,0-.41-.26,5.08,5.08,0,0,0-1-.19l-1.48-.11-.16-.14Z" fill="#fff"/>
    <path d="M820.38,144.06l.16-.13c2.38.1,4.23.15,5.56.15s3.46,0,6-.13c.92,0,1.59,0,2,0q4.95,0,6.7,1.79a5.9,5.9,0,0,1,1.76,4.26,6.67,6.67,0,0,1-.86,3.22,7.61,7.61,0,0,1-2.54,2.71,12.66,12.66,0,0,1-4.63,1.69c.37.51,1,1.39,2,2.64l2.78,3.67q1.35,1.81,2.89,3.84a12.78,12.78,0,0,0,2,2.28,2.43,2.43,0,0,0,.77.32,6.31,6.31,0,0,0,1,.06l.15.16v.92l-.17.17a17.94,17.94,0,0,0-2.23-.12q-1.38,0-3,.12c-.89-1.09-2.31-3-4.23-5.68q-3.36-4.69-6.88-8.69l.2-.61c.67,0,1.2.06,1.58.06a8,8,0,0,0,5.29-1.62,5.56,5.56,0,0,0,1.91-4.49,4.62,4.62,0,0,0-1.71-3.9,7.47,7.47,0,0,0-4.65-1.32,12.85,12.85,0,0,0-3.87.57c-.2.28-.29,2.73-.29,7.32v9l0,3.81a28,28,0,0,0,.11,2.86,1.78,1.78,0,0,0,.29.85,1.41,1.41,0,0,0,.71.37,16.39,16.39,0,0,0,2.6.22l.15.12v1l-.15.16-3.44-.12-2.17,0c-.4,0-2.26.06-5.58.16l-.16-.16v-1l.16-.12a22.37,22.37,0,0,0,2.42-.19,1.76,1.76,0,0,0,.81-.31,1.47,1.47,0,0,0,.33-.79,17.93,17.93,0,0,0,.15-2.69l0-4.13v-9l0-3.81a28.23,28.23,0,0,0-.11-2.87,1.87,1.87,0,0,0-.27-.86,1.45,1.45,0,0,0-.72-.35,16.71,16.71,0,0,0-2.59-.21l-.16-.14Z" fill="#fff"/>
    <path d="M847.82,164.81l.16-.16h.95l.16.16a18.87,18.87,0,0,0,.26,3.05,2.58,2.58,0,0,0,1.06,1.17,7.54,7.54,0,0,0,2.36,1,11.67,11.67,0,0,0,3,.39,8.74,8.74,0,0,0,3.72-.76,5.79,5.79,0,0,0,2.57-2.24,6.13,6.13,0,0,0,.92-3.31,5.33,5.33,0,0,0-.44-2.24,3.83,3.83,0,0,0-1.23-1.54,5.71,5.71,0,0,0-1.81-.86,30.19,30.19,0,0,0-3-.61c-1.3-.21-2.32-.4-3.05-.57a10.53,10.53,0,0,1-2.2-.78,5.86,5.86,0,0,1-1.83-1.34,6.34,6.34,0,0,1-1.17-2,7.27,7.27,0,0,1-.44-2.53,7.8,7.8,0,0,1,2.54-6,9.71,9.71,0,0,1,6.82-2.33,18.17,18.17,0,0,1,3.7.42,14.85,14.85,0,0,1,3.64,1.24l.14.24a26.64,26.64,0,0,0-.53,5.11l-.17.16h-1l-.16-.14c0-1.56-.06-2.54-.11-3s-.65-.9-1.78-1.5a7.75,7.75,0,0,0-3.69-.9,7.42,7.42,0,0,0-3.11.66,4.62,4.62,0,0,0-2.19,2.09,6.32,6.32,0,0,0-.74,2.91,4.51,4.51,0,0,0,.45,2,3.84,3.84,0,0,0,1.16,1.4,5,5,0,0,0,1.66.77c.64.17,1.79.38,3.47.63a20.43,20.43,0,0,1,5,1.18,5.53,5.53,0,0,1,2.52,2.2,6.68,6.68,0,0,1,1,3.63,8.6,8.6,0,0,1-3.39,6.93,12.55,12.55,0,0,1-8.21,2.78,16.41,16.41,0,0,1-7.09-1.45l-.12-.25A56.32,56.32,0,0,0,847.82,164.81Z" fill="#fff"/>
    <path d="M868.43,143.93q4.92.15,6.27.15c1.22,0,2.59,0,4.12-.09s2.61-.08,3-.08a15.49,15.49,0,0,1,4.52.56,6,6,0,0,1,3,2.07,5.77,5.77,0,0,1,1.17,3.64,7.56,7.56,0,0,1-.82,3.39,8.15,8.15,0,0,1-2.29,2.8,9.58,9.58,0,0,1-3,1.65,9.9,9.9,0,0,1-3.12.5,14.4,14.4,0,0,1-2.7-.28l-.33-1.19.18-.19a11.29,11.29,0,0,0,2.38.33,5.32,5.32,0,0,0,4.11-1.69,6.13,6.13,0,0,0,1.55-4.33,5.66,5.66,0,0,0-1.61-4.24,6.71,6.71,0,0,0-4.87-1.58,13,13,0,0,0-3.91.67q-.16,1.5-.17,7.26v9l0,3.81A28,28,0,0,0,876,169a1.78,1.78,0,0,0,.29.85,1.41,1.41,0,0,0,.71.37,16.39,16.39,0,0,0,2.6.22l.15.12v1l-.15.16c-3.32-.1-5.19-.16-5.61-.16s-2.3.06-5.58.16l-.16-.16v-1l.16-.12a22.12,22.12,0,0,0,2.42-.19,1.76,1.76,0,0,0,.81-.31,1.47,1.47,0,0,0,.33-.79,16.61,16.61,0,0,0,.15-2.69l0-4.13v-9l0-3.81a28.23,28.23,0,0,0-.11-2.87,1.87,1.87,0,0,0-.27-.86,1.45,1.45,0,0,0-.72-.35,16.71,16.71,0,0,0-2.59-.21l-.16-.14v-1Z" fill="#fff"/>
    <path d="M892.86,144.06l.16-.13q6.69.1,8.57.11,6.4,0,11.41-.11l.09.13a34.27,34.27,0,0,0-.72,5.88l-.11.16h-1l-.18-.16c0-.12,0-.22,0-.31a18.82,18.82,0,0,0-.25-3.16,10.45,10.45,0,0,0-3.41-.72c-1.45-.11-2.54-.16-3.27-.16-1,0-2.35.07-4,.21l-.08,3.13,0,3.57-.06,4c1.4.07,2.7.11,3.88.11s2.2,0,3-.11a4.88,4.88,0,0,0,1.42-.25.83.83,0,0,0,.31-.49,8.11,8.11,0,0,0,.19-1.28l.07-1.21.16-.15h.9l.16.15c0,1.42-.06,2.85-.1,4.28l.1,4.39-.16.16h-.9l-.16-.16-.13-1.17a14.51,14.51,0,0,0-.26-1.63.86.86,0,0,0-.36-.46,3.94,3.94,0,0,0-1.45-.31c-.78-.08-1.86-.12-3.23-.12-.75,0-1.9,0-3.45.1-.07,1.09-.1,2.92-.1,5.47,0,2.73,0,4.75.1,6h3.59c3.17,0,5.14,0,5.94-.11a7.82,7.82,0,0,0,2.26-.57,21.19,21.19,0,0,0,.58-2.08c.27-1.09.42-1.77.46-2l.19-.14H914l.16.14a26.28,26.28,0,0,0-.34,2.93c-.11,1.39-.17,2.58-.17,3.57l-.14.16c-2.48-.08-5.74-.12-9.76-.12l-5.31,0c-1.24,0-2.53.06-3.87.16l-.16-.16v-.64l.16-.2a10.1,10.1,0,0,0,1.32-.73,15.38,15.38,0,0,0,.27-3.42c.07-2.18.11-3.84.11-5v-7.16l0-4.44c0-1,0-1.75,0-2.35a7.11,7.11,0,0,0-.14-1.3,1.55,1.55,0,0,0-.22-.55,1,1,0,0,0-.41-.26,5.08,5.08,0,0,0-1-.19l-1.48-.11-.16-.14Z" fill="#fff"/>
    <path d="M943.11,168.22l-.74,1.82a20.13,20.13,0,0,1-9.26,2.21q-7.05,0-11.45-4a13.47,13.47,0,0,1-4.4-10.47,13.85,13.85,0,0,1,2.19-7.78,13.66,13.66,0,0,1,5.8-5,19.26,19.26,0,0,1,8.1-1.65,24.07,24.07,0,0,1,5.14.55,21.07,21.07,0,0,1,4.23,1.31l.14.19a24.85,24.85,0,0,0-.84,5.41l-.14.16H941l-.16-.16-.2-3.32a10.85,10.85,0,0,0-3.44-1.77,14.07,14.07,0,0,0-4.21-.63,12.3,12.3,0,0,0-5.92,1.41,9.93,9.93,0,0,0-4.06,4.11,13.63,13.63,0,0,0-1.45,6.57,13.49,13.49,0,0,0,1.7,6.85,11.55,11.55,0,0,0,4.64,4.53,14.22,14.22,0,0,0,6.87,1.59,15.9,15.9,0,0,0,3.34-.34,12.36,12.36,0,0,0,2.66-.82,11.66,11.66,0,0,0,2-1.19Z" fill="#fff"/>
    <path d="M967.8,143.93l.18.17q-.18,1.76-.18,6.14l-.15.15h-.92l-.16-.17-.21-1.8a17.34,17.34,0,0,0-.25-1.77.87.87,0,0,0-.28-.47,3.36,3.36,0,0,0-1.27-.24c-.72-.07-1.52-.1-2.4-.1h-3.69c-.11,2.94-.16,4.64-.16,5.1v11.38l0,3.81a28,28,0,0,0,.11,2.86,1.64,1.64,0,0,0,.27.86,1.49,1.49,0,0,0,.71.36,16.61,16.61,0,0,0,2.62.22l.14.12v1l-.14.16c-3.33-.1-5.2-.16-5.59-.16s-2.27.06-5.56.16l-.16-.16v-1l.16-.12a22.14,22.14,0,0,0,2.43-.19,1.71,1.71,0,0,0,.8-.31,1.54,1.54,0,0,0,.34-.79,15.86,15.86,0,0,0,.14-2.69l0-4.13V150.94c0-.21,0-1.91-.16-5.1h-2.91c-1.2,0-2.23,0-3.1.08s-1.38.18-1.52.4a7.34,7.34,0,0,0-.38,2.1l-.19,1.8-.18.17h-.9l-.15-.15q0-4.71-.18-6.14l.18-.17q3.39.15,11.3.15Q964.54,144.08,967.8,143.93Z" fill="#fff"/>
    <path d="M969.89,143.93l2.44.07c1.6.06,2.65.08,3.15.08s2.31-.05,5.6-.15l.16.13v1l-.16.14c-.9,0-1.59.06-2.08.11a2.49,2.49,0,0,0-1.06.3,1.38,1.38,0,0,0-.44,1,17.57,17.57,0,0,0-.11,2.2l0,4.49v9l0,3.81a24.32,24.32,0,0,0,.12,2.86,1.8,1.8,0,0,0,.28.85,1.45,1.45,0,0,0,.72.37,16.21,16.21,0,0,0,2.59.22l.16.12v1l-.16.16-3.43-.12-2.17,0c-.41,0-2.27.06-5.59.16l-.15-.16v-1l.15-.12a22.12,22.12,0,0,0,2.42-.19,1.66,1.66,0,0,0,.81-.31,1.54,1.54,0,0,0,.34-.79,18.46,18.46,0,0,0,.14-2.69l0-4.13v-9l0-3.81c0-1.48-.05-2.44-.1-2.87a1.74,1.74,0,0,0-.28-.86,1.41,1.41,0,0,0-.71-.35,16.9,16.9,0,0,0-2.6-.21l-.15-.14v-1Z" fill="#fff"/>
    <path d="M995.65,171.88c-.19-.58-1-2.77-2.44-6.57l-6.64-16.42a24.4,24.4,0,0,0-1.42-3.2c-.2-.25-1-.42-2.35-.51l-.17-.18v-.9l.17-.17c2,.1,3.69.15,5.08.15s3-.05,5.18-.15l.15.15v1.08l-.15.15a14.27,14.27,0,0,0-2.83.15.57.57,0,0,0-.46.56,14.92,14.92,0,0,0,.63,2.08c.42,1.23.79,2.26,1.11,3.11l6.12,15.45,5.09-12.81c.36-.87.87-2.28,1.55-4.22a18.26,18.26,0,0,0,1-3.5.59.59,0,0,0-.48-.62,23.29,23.29,0,0,0-2.86-.33l-.17-.16v-.94l.17-.15c2.28.1,3.73.15,4.36.15s1.82-.05,3.94-.15l.16.15V145l-.16.16a6,6,0,0,0-1.7.21,1.39,1.39,0,0,0-.51.61c-.15.3-.62,1.32-1.4,3.08l-6.09,15q-2.06,5-2.91,7.8Z" fill="#fff"/>
    <path d="M1012.53,144.06l.15-.13q6.71.1,8.58.11,6.4,0,11.41-.11l.09.13a34.27,34.27,0,0,0-.72,5.88l-.12.16h-1l-.18-.16c0-.12,0-.22,0-.31a19.94,19.94,0,0,0-.25-3.16,10.45,10.45,0,0,0-3.41-.72c-1.45-.11-2.54-.16-3.27-.16-1,0-2.35.07-4,.21l-.08,3.13-.06,3.57,0,4c1.4.07,2.7.11,3.88.11s2.2,0,3-.11a4.88,4.88,0,0,0,1.42-.25.83.83,0,0,0,.31-.49,7.31,7.31,0,0,0,.18-1.28l.08-1.21.16-.15h.9l.15.15c0,1.42-.06,2.85-.09,4.28l.09,4.39-.15.16h-.9l-.16-.16-.13-1.17c-.12-.91-.21-1.45-.26-1.63a.86.86,0,0,0-.36-.46,3.94,3.94,0,0,0-1.45-.31c-.79-.08-1.86-.12-3.23-.12-.75,0-1.9,0-3.45.1-.07,1.09-.1,2.92-.1,5.47,0,2.73,0,4.75.1,6h3.59c3.16,0,5.14,0,5.94-.11a7.82,7.82,0,0,0,2.26-.57,21.19,21.19,0,0,0,.58-2.08c.27-1.09.42-1.77.46-2l.19-.14h.94l.16.14a28.21,28.21,0,0,0-.35,2.93c-.11,1.39-.16,2.58-.16,3.57l-.14.16q-3.74-.12-9.76-.12l-5.32,0c-1.23,0-2.52.06-3.86.16l-.16-.16v-.64l.16-.2a10.94,10.94,0,0,0,1.32-.73,15.38,15.38,0,0,0,.27-3.42c.07-2.18.11-3.84.11-5v-7.16l0-4.44c0-1,0-1.75,0-2.35a7.11,7.11,0,0,0-.14-1.3,1.55,1.55,0,0,0-.22-.55,1.07,1.07,0,0,0-.41-.26,5.08,5.08,0,0,0-1-.19l-1.49-.11-.15-.14Z" fill="#fff"/>
    <path d="M1037.08,164.81l.16-.16h1l.16.16a17.7,17.7,0,0,0,.26,3.05,2.47,2.47,0,0,0,1.06,1.17,7.54,7.54,0,0,0,2.36,1,11.61,11.61,0,0,0,3,.39,8.74,8.74,0,0,0,3.72-.76,5.79,5.79,0,0,0,2.57-2.24,6.13,6.13,0,0,0,.92-3.31,5.33,5.33,0,0,0-.44-2.24,4,4,0,0,0-1.23-1.54,5.71,5.71,0,0,0-1.81-.86,30.8,30.8,0,0,0-3-.61c-1.3-.21-2.32-.4-3-.57a10.53,10.53,0,0,1-2.2-.78,5.86,5.86,0,0,1-1.83-1.34,6,6,0,0,1-1.17-2,7.27,7.27,0,0,1-.44-2.53,7.8,7.8,0,0,1,2.54-6,9.7,9.7,0,0,1,6.82-2.33,18.17,18.17,0,0,1,3.7.42,14.85,14.85,0,0,1,3.64,1.24l.14.24a25.85,25.85,0,0,0-.53,5.11l-.18.16h-1l-.16-.14c0-1.56-.06-2.54-.12-3s-.64-.9-1.77-1.5a7.8,7.8,0,0,0-3.69-.9,7.39,7.39,0,0,0-3.11.66,4.62,4.62,0,0,0-2.19,2.09,6.32,6.32,0,0,0-.74,2.91,4.51,4.51,0,0,0,.45,2,3.84,3.84,0,0,0,1.16,1.4,5,5,0,0,0,1.66.77c.63.17,1.79.38,3.47.63a20.55,20.55,0,0,1,5,1.18,5.53,5.53,0,0,1,2.52,2.2,6.67,6.67,0,0,1,.94,3.63,8.59,8.59,0,0,1-3.38,6.93,12.56,12.56,0,0,1-8.22,2.78,16.44,16.44,0,0,1-7.09-1.45l-.11-.25C1036.92,169.73,1037,167.81,1037.08,164.81Z" fill="#fff"/>
  </g>
  <g clip-path="url(#clip-path-5)">
    <path d="M1348.25-58.28a39,39,0,0,0-10.57-5.94,37.37,37.37,0,0,1-8.39-4.68c-1.62-3.95-3.43-9.27-4-9.61-1.5-.85.26-3-.16-4.57-2.12-8-1.79-16.47-4.42-24.41a94.57,94.57,0,0,0-4.61-10.46,4.37,4.37,0,0,0-2.53-2.26c-2-.71-3.89-1.42-5.84-2.15-3.82-1.43-4.73-5.77-1.67-8.48,1.12-1,.85-1.73,0-2.45-3.59-3.13-8-4.75-12.47-5.83-1.79-.43-2.87,1.23-2.24,3.4a5,5,0,0,1-.56,4.7,1.42,1.42,0,0,0,0,2,1.75,1.75,0,0,1,.41,1.37c-1,3.19,1.25,5.25,2.75,7.45.67,1,.21,1.21-.35,1.36-5.32,1.45-6,6-6.72,10.33-.84,5-1.57,10.06-2.38,15.09-.23-.17-.46-.35-.67-.54a3.69,3.69,0,0,1-1.8-3.4,8,8,0,0,1,0-1.85,19.73,19.73,0,0,0-2.52-8.47h0a7,7,0,0,1-.62-1.22c-3-7.58-8.76-12.1-16.07-14.94-5.27-2-10.62-1.62-15.83.29-2,.74-3.11.68-3.35-1.73-.09-.86-.21-2-1.27-2.21s-1.19,1-1.62,1.63a71,71,0,0,1-5.42,8,7.45,7.45,0,0,0-1.37,7.71,20,20,0,0,1,0,13.66,14.87,14.87,0,0,0-.6,2.66c-.51,3.17.82,5.13,4,6a1.51,1.51,0,0,0,1.73-.59c.86-1,1.73-2,2.58-3,.75.14.82.82,1.17,1.25,1.58,2,3.38,1.77,4.26-.55a74.23,74.23,0,0,1,3.92-9.13,1.68,1.68,0,0,1,1.22-1.14,9.76,9.76,0,0,1-.59,6.61,8.84,8.84,0,0,1-1.68,2.75c-3.9,3.81-6.23,8.53-8,13.56-.59,1.64-1.49,1.15-2.49.51a25,25,0,0,0-7.15-3.41,5.05,5.05,0,0,0-5.07,1.12,98.52,98.52,0,0,0-18.56,22.9c-.91,1.53-.27,2,1.2,2.3,3,.51,5.21-.41,6.21-3.26,2-5.74,6.59-9.47,10.5-13.67,2.52-2.7,4.12-2.58,6.73-.62,2.86,2.15,4.18,5.32,2.85,7.74-4.29,7.84-8.2,15.91-13.6,23.11a25.46,25.46,0,0,1-7.27,6.33c-1.36.83-1.14,1.25,0,2,4.5,3.23,4.52,3.29,7.73-.41,8.48-9.79,18.1-18.46,27.36-27.49,3.83-3.73,4-3.73,8.7-.51-2.83,1.77-2.88,2.27-.43,4.59a5.11,5.11,0,0,0,3,1.72c5.23.27,9.1,3,12.77,6.43a18.34,18.34,0,0,0,11.55,4.62c1.53.12,2.24.24,1.48,2.2-1,2.62.69,7.76,5.42,8.5,1.85.29,2,1.14,2,2.65,0,6.65-2.67,11.45-9.16,13.88-2.79,1-5.44,2.46-8.13,3.76a27,27,0,0,0-10.09,9c-.64.89-1.69,2-.23,3s2.6,2.69,4.59,1.27a6.6,6.6,0,0,0,1.93-1.9c2-3.33,5-5.19,8.45-6.65a123.75,123.75,0,0,1,20.67-7.13,2.4,2.4,0,0,0,2.11-2.31,24,24,0,0,0-.14-6.45,11,11,0,0,1,.75-5.84c.38-.83.68-1.88,1.75-1.87s1.19,1.08,1.41,1.83c2.72,9.05,3.73,18.19,1.12,27.45-1.63,5.74-3.27,11.52-7.61,16a26.23,26.23,0,0,0-2.09,2.13c-.67.85-2.7,1-1.81,2.64s4.5,2.75,5.82,1.92c4-2.51,6.05-6.57,7.69-10.73,2.22-5.66,5.24-10.9,8-16.28,1.13-2.22,1.8-4.35,1.09-6.89-1.92-6.87,1.69-12,5.63-16.95,2.88-3.64,6-7.11,8.4-11.09,2.86-4.63,4.4-9.44,2.91-14.9-.22-.77-.61-1.83.34-2.22s1.43.68,1.86,1.32c2.41,3.52,2.43,7.56,2,11.52a64.9,64.9,0,0,1-11.56,31.38c-.17.25-.32.52-.48.78l.48.41a92.59,92.59,0,0,0,15.6-13.31c3.18-3.41,6.09-7,7.82-11.43C1357.09-46.39,1355.16-52.84,1348.25-58.28Z" fill="#fff"/>
  </g>
</svg>
