<svg id="a51e9e5e-6ef6-49f8-a254-d1b63e1f3399" data-name="Layer 1" xmlns="http://www.w3.org/2000/svg" xmlns:xlink="http://www.w3.org/1999/xlink" width="1344.293" height="194.648" viewBox="0 0 1344.293 194.648">
  <defs>
    <clipPath id="f80c6b8d-1e0f-4bf8-b81d-7096300a40f6">
      <rect x="1164.528" y="104.854" width="179.85" height="89.798" style="fill: none"/>
    </clipPath>
  </defs>
  <title>banner-5</title>
  <g>
    <path d="M197.237,192.12A105.785,105.785,0,0,0,179.8,179.408c-9.167-5.122-17.646-3.128-30.937-7.024s-21.972-13.95-25.436-16.986c-5.034-4.411-19.021-2.034-19.021-2.034s-43.5,8.411-46.878,8.935-8.807,11.231-16.6,17.109-15.124,8.559-27.04,11.538c-1.531.383-2.947.773-4.268,1.174Z" style="fill: #0b050b"/>
    <path d="M37.684,87.445c-1.284-.026-2.144-3.166-3.478-2.92S31.274,85.877,31.738,89A61.39,61.39,0,0,0,34.67,99.342a5.386,5.386,0,0,0,4.618,3.378Z" style="fill: #fe9e59"/>
    <path d="M109.115,113.988s1,13.041,1,16.888a67.572,67.572,0,0,0,2.072,14.2c.986,3.551,4.453,7.266,4.453,7.266L108.554,166.5,65.335,179.408,55.471,165.5s2.269,2.762,2.072-13.908l34.623-33.735Z" style="fill: #ef8c54"/>
    <path d="M35.521,87.034c.608,2.817.608,2.306.608,7.5s-3.621,10.159-.608,18.848,6.089,7.219,6.624,11.1a36.286,36.286,0,0,0,4.144,11.764c1.871,3.342,1.871,8.956,3.876,11.763s4.278,6.684,9.759,6.417,7.352-1.738,13.234-1.738,11.228-1.872,18.046-8.021,6.817-3.876,10.026-10.56,1.628-6.494,4.678-10.427,4.011-15.239,4.011-15.239l7.619-31.28L96.284,51.486,45.62,48.411l-11.3,20.052Z" style="fill: #f1b16b"/>
    <path d="M91.154,144.658c6.818-6.149,6.818-3.876,10.026-10.56s1.629-6.494,4.679-10.427,4.01-15.239,4.01-15.239L115.1,86.953l-5.367-4.378-3.179,3.894c.044,7.03-4.135,6.555-3.85,15.389s3.7,14.535.76,19.094-7.03,11.874-13.2,14.724-10.829,4.655-15.1,6.935-11.13,9.87-9.65,11.015a31.9,31.9,0,0,1,7.6-.947C78.99,152.679,84.337,150.807,91.154,144.658Z" style="fill: #fe9e59"/>
    <path d="M109.761,123.207c1.555-1.555,3.587-3.365,5.424-3.789s4.24-.989,4.24-3.957a20.9,20.9,0,0,0-.523-4.921s.986-.592,1.815,3.083c0,0,.609-.877-.815-4.436s-1.566-3.488-1.424-6.016-9.918,6.6-9.918,6.6Z"/>
    <path d="M33.805,83.528c-.648-4.54-3.891-12.972-.648-20.107s9.08-24,24-28.538,15.566-7.134,31.781-3.243c0,0,15.566,7.135,18.16,9.729s7.784,11.026,9.081,15.566,2.594,11.675,3.243,14.918,1.3,11.675,1.3,11.675-5.109,2.03-6.486,3.243a31.277,31.277,0,0,0-3.892,3.243s-.648,0-2.594-1.946c-2.937-2.937-7.783-5.189-10.377-9.729s-1.3-3.892-3.892-11.675S89.584,53.044,83.1,54.341s-14.917,8.432-20.106,7.783-9.729-1.3-12.972-6.486-8.432-1.946-11.026,3.243S37.048,68.61,36.4,73.8s.648,12.323,0,13.62S33.805,83.528,33.805,83.528Z"/>
    <path d="M110.671,92.525c1.2-2.941,3.413-6.752,8.123-8.189s7.918-1.169,5.913,6.985-3.8,11.281-6.714,13.661-5.049,4.92-6.252,4.787a19.4,19.4,0,0,0-3.932.4Z" style="fill: #fe9e59"/>
    <path d="M57.528,162.3c1.406.815,3.289,4.193,5,5.237s1.9,4.461,9.967,4.746,9.871.095,15.471-2.088,11.3-3.892,15.281-6.739a79.5,79.5,0,0,0,9.146-7.417c2.6-2.465,7.655-.461,7.655-.461l-15.782,13.631L67.94,178.289l-9.08-8.152-2.47-6.975Z" style="fill: #e9f8c4"/>
    <path d="M115.441,150.7c2.048-1.362,5.086-1.479,5.405,0s2.344,3.847,0,6.511a143.42,143.42,0,0,1-14.291,12.724c-2.848,1.973-15.77,10.16-22.379,10.259s-11.35.476-11.35.772-1.061,3.72-3.912,2.467c-1.147-.5-1.033-2.45-1.033-2.45s-5.118-1.2-7.159-4.148a27.6,27.6,0,0,1-3.227-5.5c-.665-1.519-2.468-3.037-2.563-4.271s-.166-3.044.6-3.847,1.283-1.491,1.882-.507.456,2.788,1.879,4.022,5.695,5.789,8.258,6.5,9.589,2.5,13.782,1.489c7.716-1.868,15.216-5.052,17.774-6.969,2.689-2.017,12.3-6.574,13.766-10.181S114.578,151.277,115.441,150.7Z" style="fill: #b21b1b"/>
    <path d="M67.081,91.6c1.495-.854,9.255-1.755,11.177-1.589s5.41,2.017,5.339,1.162-2.777-2.491-5.482-2.562-9.254.213-11.034,1.495S67.081,91.6,67.081,91.6Z" style="fill: #7d3318"/>
    <path d="M39.71,88.329a18.6,18.6,0,0,1,9,.275c1.139.437,2.277,1.464-.357,1.184a26.525,26.525,0,0,0-7.972-.139C37.6,90.171,36.563,89.172,39.71,88.329Z" style="fill: #7d3318"/>
    <path d="M69.28,98.142c.815-3.043,5.522-2.97,7.425-2.831s5.987,1.346,5.987,2.506c0,1.114-4.823,3.653-8.261,2.831C72.3,100.138,68.82,99.857,69.28,98.142Z" style="fill: #fae1d7"/>
    <path d="M40.825,96.18c.389-1.451,3.08-2.674,5.592-2.35s5.106,1.513,4.89,2.837-3.51,2.766-5.823,2.464C43,98.807,40.52,97.32,40.825,96.18Z" style="fill: #fae1d7"/>
    <path d="M58.857,119.105c0-2.306,3.432-4.665,3-5.095a1.53,1.53,0,0,0-2.36,1.127C59.179,116.746,58.857,119.105,58.857,119.105Z" style="fill: #fe9e59"/>
    <path d="M82.692,97.817c0-.283-.246-.569-.642-.842a3.259,3.259,0,0,1-.115,1.828C82.408,98.436,82.692,98.085,82.692,97.817Z" style="fill: #f3b39b"/>
    <path d="M82.05,96.975a13.73,13.73,0,0,0-5.345-1.664c-.451-.033-1.062-.061-1.739-.046a3.414,3.414,0,0,0-1.048,2.428,3.58,3.58,0,0,0,1.972,3.112,11.041,11.041,0,0,0,6.045-2,3.259,3.259,0,0,0,.115-1.828Z" style="fill: #311705"/>
    <path d="M51.307,96.667c.216-1.324-2.378-2.513-4.89-2.837a6.533,6.533,0,0,0-.937-.051,3.013,3.013,0,0,0-1.61,2.537,3.214,3.214,0,0,0,2.255,2.851C48.361,99.172,51.11,97.872,51.307,96.667Z" style="fill: #311705"/>
    <path d="M52.528,133.109c-.329.547-1.459,1.741.676,2.777a12.348,12.348,0,0,0,6.218,1.181c2.072-.094,6.063-.278,7.476-1.095s2.98-.714,3.075-1.405-2.01-1.633-2.01-1.633Z" style="fill: #f57544"/>
    <path d="M51.662,132.441c2.483-.794,6.134.7,7.425.881s6.306-1.268,8.117-.815,5.421-.56,5.556-.2c.231.623-5.36,2.12-8.588,2.183s-5.186.636-6.968.381a10.89,10.89,0,0,1-3.342-.733C52.533,133.6,50.7,132.749,51.662,132.441Z" style="fill: #ea884b"/>
    <path d="M55.119,96.785a7.071,7.071,0,0,1,.007,2.554c-.112.847-.268,1.686-.437,2.522s-.349,1.668-.568,2.489l-.834,2.4c-.57,1.6-1.132,3.17-1.746,4.767a22.67,22.67,0,0,0-1.463,4.675,5.735,5.735,0,0,0,.05,2.252,4.082,4.082,0,0,0,1.136,1.861,5.979,5.979,0,0,0,3.873,2.17,4.035,4.035,0,0,0,1.077-.089l1.219-.3,2.439-.6a15.107,15.107,0,0,1,2.6-.5,4,4,0,0,1,1.508.142,1.6,1.6,0,0,1,.83.592,1.382,1.382,0,0,1,.2,1.155l-.618-.832a.932.932,0,0,0,.456-.259,1.8,1.8,0,0,0,.374-.651,5.39,5.39,0,0,0,.188-1.836,17.34,17.34,0,0,0-.691-3.957,8.343,8.343,0,0,0-.739-1.68.924.924,0,0,0-.5-.4l-1.039-.116a6.157,6.157,0,0,0-2,.031,1.528,1.528,0,0,0-.828.456,4.251,4.251,0,0,1-.373.387.752.752,0,0,1-.233.15c-.127.051-.172-.111-.147-.181,0,.086.054.19.129.132a.687.687,0,0,0,.176-.173,4.162,4.162,0,0,0,.277-.435,1.769,1.769,0,0,1,.865-.724,6.649,6.649,0,0,1,2.152-.405l1.06-.06a1.876,1.876,0,0,1,1.29.582,4.44,4.44,0,0,1,1.157,2.033,19.149,19.149,0,0,1,.745,4.3,6.582,6.582,0,0,1-.257,2.315,2.413,2.413,0,0,1-2.066,1.787l-.618-.832c-.03-.017.044-.059-.216-.155a2.836,2.836,0,0,0-.991-.073,13.954,13.954,0,0,0-2.356.46l-2.469.609-1.234.3a5.345,5.345,0,0,1-1.434.119,7.232,7.232,0,0,1-4.757-2.587,8.6,8.6,0,0,1-.862-1.074,4.625,4.625,0,0,1-.576-1.342A6.982,6.982,0,0,1,48.8,116a23.716,23.716,0,0,1,1.536-4.955c.6-1.548,1.172-3.151,1.731-4.725C52.918,103.086,54.839,100.142,55.119,96.785Z" style="fill: #fe9e59"/>
  </g>
  <polygon points="204.411 104.462 162.931 172.476 0 172.476 0 194.648 279.306 194.648 1344.293 194.648 1344.293 104.462 204.411 104.462" style="fill: #212026"/>
  <g>
    <path d="M251.923,143.985l.176.156v.957l-.156.137a14.252,14.252,0,0,0-2.666.215,1.206,1.206,0,0,0-.733.518,3.307,3.307,0,0,0-.244,1.416q-.03,1.054-.107,5.957v9q0,1.951.058,4.414a11.98,11.98,0,0,0,.244,2.861,1.148,1.148,0,0,0,.674.586,12.339,12.339,0,0,0,2.774.244l.156.137v.957l-.176.156q-3.183-.175-5.547-.176-1.6,0-5.449.176l-.176-.156v-.938l.156-.156a14.262,14.262,0,0,0,2.666-.215,1.218,1.218,0,0,0,.733-.517,3.453,3.453,0,0,0,.254-1.436q.039-1.076.1-5.937V148.009l-6.738,14.1q-2.54,5.293-4.433,9.961h-.762q-1.095-2.52-1.8-4.023l-9.336-19.4v13.653q0,1.912.049,4.4a11.3,11.3,0,0,0,.244,2.881,1.242,1.242,0,0,0,.684.586,11.445,11.445,0,0,0,2.773.234l.156.156v.938l-.175.176-1.25-.059q-1.935-.1-3.321-.1-.626,0-4.668.157l-.156-.157v-.937l.156-.176a13.7,13.7,0,0,0,2.656-.195,1.244,1.244,0,0,0,.733-.528,3.14,3.14,0,0,0,.254-1.386q.029-1.017.088-6V153.36q0-1.778-.049-4.326a12.46,12.46,0,0,0-.235-2.949,1.18,1.18,0,0,0-.673-.6,11.292,11.292,0,0,0-2.774-.234l-.156-.157v-.937l.176-.176q1.347.1,3.633.1,2.148,0,3.75-.1,1.64,3.789,3.144,6.856l7.4,15.195,6.68-13.926q2.715-5.644,3.652-8.125,1.875.1,3.692.1Q249.7,144.083,251.923,143.985Z" style="fill: #fff"/>
    <path d="M253.876,171.681l-.176-.157v-1.015l.176-.157a8.439,8.439,0,0,0,1.836-.146,1.567,1.567,0,0,0,.733-.508,16.224,16.224,0,0,0,1.3-2.49l2.051-4.453,5.313-12.032q1.5-3.536,2.988-7.07h1.269l8.34,19.61,1.114,2.617q.487,1.113,1.123,2.422a7.369,7.369,0,0,0,.879,1.543,1.648,1.648,0,0,0,.605.361,6.539,6.539,0,0,0,1.611.146l.157.157v1.015l-.157.157q-2.07-.177-3.73-.176-3.243.1-6.484.176l-.157-.157v-1.015l.157-.157a15.811,15.811,0,0,0,2.734-.185.65.65,0,0,0,.547-.674,3.336,3.336,0,0,0-.274-1.133l-2.4-5.957H262.118l-2.129,5a5.9,5.9,0,0,0-.566,1.973.765.765,0,0,0,.527.722,8.9,8.9,0,0,0,2.657.254l.175.157v1.015l-.156.157q-2.518-.159-4.414-.157Q256.064,171.524,253.876,171.681Zm8.906-10.958h9.883l-4.9-11.777Z" style="fill: #fff"/>
    <path d="M311.376,168.223l-.742,1.817a20.132,20.132,0,0,1-9.258,2.207q-7.05,0-11.455-4a13.485,13.485,0,0,1-4.4-10.469,13.806,13.806,0,0,1,2.2-7.783,13.6,13.6,0,0,1,5.8-4.98,19.208,19.208,0,0,1,8.1-1.651,24.3,24.3,0,0,1,5.136.547,21.573,21.573,0,0,1,4.239,1.309l.136.195a24.917,24.917,0,0,0-.84,5.41l-.136.156h-.918l-.156-.156-.2-3.32a10.541,10.541,0,0,0-3.447-1.768,13.944,13.944,0,0,0-4.209-.635,12.234,12.234,0,0,0-5.918,1.416,9.87,9.87,0,0,0-4.063,4.1,13.721,13.721,0,0,0-1.445,6.572,13.5,13.5,0,0,0,1.7,6.856,11.63,11.63,0,0,0,4.639,4.531A14.268,14.268,0,0,0,303,170.157a16.444,16.444,0,0,0,3.34-.332,12.681,12.681,0,0,0,2.666-.82,12.18,12.18,0,0,0,2.041-1.192Z" style="fill: #fff"/>
    <path d="M313.642,143.927q4.98.155,5.586.156.643,0,5.605-.156l.156.136v.977l-.156.137q-1.347.037-2.08.117a2.512,2.512,0,0,0-1.064.293,1.38,1.38,0,0,0-.44,1.006,17.227,17.227,0,0,0-.107,2.2l-.039,4.492v2.734q4.276.119,8.105.118,5.233,0,7.969-.118v-2.734l-.039-3.809a26.846,26.846,0,0,0-.117-2.871,1.936,1.936,0,0,0-.274-.859,1.338,1.338,0,0,0-.7-.352,16.834,16.834,0,0,0-2.617-.214l-.137-.137v-.977l.137-.136q5,.155,5.6.156.665,0,5.606-.156l.156.136v.977l-.156.137q-1.368.037-2.1.117a2.512,2.512,0,0,0-1.064.293,1.353,1.353,0,0,0-.43,1.006,21.46,21.46,0,0,0-.117,2.2l-.039,4.492v9.043l.039,3.809a26.562,26.562,0,0,0,.117,2.851,1.826,1.826,0,0,0,.283.86,1.472,1.472,0,0,0,.7.361,15.444,15.444,0,0,0,2.608.225l.156.117v.976l-.156.157q-5-.159-5.606-.157-.625,0-5.6.157l-.137-.157v-.976l.137-.117a20.7,20.7,0,0,0,2.441-.2,1.7,1.7,0,0,0,.8-.3,1.652,1.652,0,0,0,.332-.791,15.95,15.95,0,0,0,.137-2.695l.039-4.121v-4.453q-5.783-.117-8.105-.117-2.384,0-7.969.117v4.453l.019,3.809a26.562,26.562,0,0,0,.117,2.851,1.824,1.824,0,0,0,.284.86,1.476,1.476,0,0,0,.713.361,15.514,15.514,0,0,0,2.6.225l.156.117v.976l-.156.157q-4.98-.159-5.605-.157-.606,0-5.586.157l-.156-.157v-.976l.156-.117a20.544,20.544,0,0,0,2.422-.2,1.777,1.777,0,0,0,.81-.3,1.533,1.533,0,0,0,.332-.791,17.893,17.893,0,0,0,.147-2.695l.019-4.121v-9.043l-.039-3.809q-.02-2.226-.107-2.871a1.771,1.771,0,0,0-.274-.859,1.408,1.408,0,0,0-.713-.352,16.651,16.651,0,0,0-2.6-.214l-.156-.137v-.977Z" style="fill: #fff"/>
    <path d="M346.923,143.927l2.441.078q2.4.077,3.145.078.663,0,5.6-.156l.157.136v.977l-.157.137q-1.347.037-2.08.117a2.512,2.512,0,0,0-1.064.293,1.38,1.38,0,0,0-.44,1.006,17.416,17.416,0,0,0-.107,2.2l-.039,4.492v9.043l.02,3.809a26.014,26.014,0,0,0,.117,2.851,1.826,1.826,0,0,0,.283.86,1.476,1.476,0,0,0,.713.361,15.514,15.514,0,0,0,2.6.225l.157.117v.976l-.157.157q-.1,0-3.437-.118-1.388-.04-2.168-.039-.606,0-5.586.157l-.156-.157v-.976l.156-.117a20.544,20.544,0,0,0,2.422-.2,1.777,1.777,0,0,0,.81-.3,1.532,1.532,0,0,0,.333-.791,18.088,18.088,0,0,0,.146-2.695l.02-4.121v-9.043l-.04-3.809q-.019-2.226-.107-2.871a1.783,1.783,0,0,0-.273-.859,1.412,1.412,0,0,0-.713-.352,16.683,16.683,0,0,0-2.6-.214l-.156-.137v-.977Z" style="fill: #fff"/>
    <path d="M360.107,171.681l-.176-.157v-1.015l.176-.157a8.446,8.446,0,0,0,1.836-.146,1.569,1.569,0,0,0,.732-.508,16.187,16.187,0,0,0,1.3-2.49l2.051-4.453,5.312-12.032q1.5-3.536,2.988-7.07h1.27l8.34,19.61,1.113,2.617q.487,1.113,1.123,2.422a7.418,7.418,0,0,0,.879,1.543,1.656,1.656,0,0,0,.6.361,6.543,6.543,0,0,0,1.612.146l.156.157v1.015l-.156.157q-2.071-.177-3.731-.176-3.242.1-6.484.176l-.156-.157v-1.015l.156-.157a15.8,15.8,0,0,0,2.734-.185.649.649,0,0,0,.547-.674,3.33,3.33,0,0,0-.273-1.133l-2.4-5.957H368.349l-2.129,5a5.879,5.879,0,0,0-.566,1.973.764.764,0,0,0,.527.722,8.9,8.9,0,0,0,2.656.254l.176.157v1.015l-.156.157q-2.52-.159-4.414-.157Q362.294,171.524,360.107,171.681Zm8.906-10.958H378.9l-4.9-11.777Z" style="fill: #fff"/>
    <path d="M399.989,171.876q-.292-.859-2.441-6.563l-6.641-16.425a23.721,23.721,0,0,0-1.425-3.194q-.294-.381-2.344-.517l-.176-.176v-.9l.176-.175q2.988.155,5.078.156,1.953,0,5.176-.156l.156.156v1.074l-.156.156a14.443,14.443,0,0,0-2.822.147.561.561,0,0,0-.459.556,14.688,14.688,0,0,0,.625,2.081q.624,1.845,1.113,3.115l6.113,15.449,5.1-12.813q.526-1.31,1.543-4.218a17.917,17.917,0,0,0,1.015-3.5.594.594,0,0,0-.478-.625,22.534,22.534,0,0,0-2.861-.332l-.176-.157v-.937l.176-.156q3.417.155,4.355.156.762,0,3.945-.156l.157.156v.937l-.157.157a5.621,5.621,0,0,0-1.7.214,1.319,1.319,0,0,0-.517.606q-.225.448-1.4,3.086l-6.094,15q-2.05,5.019-2.91,7.793Z" style="fill: #fff"/>
    <path d="M416.864,144.063l.157-.136q6.7.117,8.574.117,6.4,0,11.406-.117l.1.136a33.2,33.2,0,0,0-.723,5.879l-.117.156H435.3l-.176-.156a2.871,2.871,0,0,0,.02-.312,19.005,19.005,0,0,0-.254-3.164,10.556,10.556,0,0,0-3.408-.713q-2.179-.168-3.272-.166-1.543,0-3.945.215l-.078,3.125-.059,3.574-.058,3.965q2.109.117,3.886.117,1.8,0,3.008-.117a5.1,5.1,0,0,0,1.416-.244.827.827,0,0,0,.313-.489,7.426,7.426,0,0,0,.185-1.279l.078-1.211.156-.156h.9l.156.156q-.039,2.129-.1,4.277l.1,4.395-.156.156h-.9l-.156-.156-.136-1.172q-.177-1.368-.254-1.631a.864.864,0,0,0-.362-.459,3.891,3.891,0,0,0-1.455-.312q-1.171-.117-3.222-.118-1.134,0-3.457.1-.1,1.641-.1,5.469,0,4.1.1,6.035h3.593q4.746,0,5.938-.117a7.832,7.832,0,0,0,2.265-.567q.177-.448.577-2.08t.459-2.041l.195-.136h.937l.157.136a26.515,26.515,0,0,0-.342,2.93q-.166,2.089-.166,3.574l-.137.157q-3.731-.119-9.766-.118l-5.312-.039q-1.856,0-3.867.157l-.156-.157v-.644l.156-.2a10.4,10.4,0,0,0,1.318-.732,15.3,15.3,0,0,0,.274-3.418q.107-3.273.107-4.99v-7.168l-.02-4.434q0-1.446-.039-2.353a7.326,7.326,0,0,0-.136-1.3,1.478,1.478,0,0,0-.225-.547.964.964,0,0,0-.41-.264,4.463,4.463,0,0,0-.967-.185l-1.484-.117-.157-.137Z" style="fill: #fff"/>
    <path d="M440.6,144.063l.156-.136q4.844.155,5.586.156.664,0,5.606-.156l.156.136v.977l-.156.137q-1.349.037-2.08.117a2.512,2.512,0,0,0-1.065.293,1.376,1.376,0,0,0-.439,1.006,17.194,17.194,0,0,0-.108,2.2l-.039,4.492v8.633q0,3.242.039,4.531l.1,3.379h3.984q4.765,0,5.947-.117a8.07,8.07,0,0,0,2.276-.567,16.131,16.131,0,0,0,.615-2.246q.4-1.758.42-2.031l.176-.156h.957l.137.156a29.825,29.825,0,0,0-.323,3.027q-.166,2.247-.166,3.633l-.156.157q-3.711-.119-9.746-.118l-5.7-.039q-1.953,0-3.985.157l-.156-.157v-.644l.156-.2a8.381,8.381,0,0,0,1.329-.761,12.578,12.578,0,0,0,.244-2.52q.126-2.383.127-5.742v-8.379l-.039-3.809q-.021-2.226-.108-2.871a1.772,1.772,0,0,0-.273-.859,1.412,1.412,0,0,0-.713-.352,16.683,16.683,0,0,0-2.6-.214l-.156-.137Z" style="fill: #fff"/>
    <path d="M465.029,144.063l.156-.136q4.844.155,5.586.156.663,0,5.6-.156l.156.136v.977l-.156.137q-1.347.037-2.08.117a2.512,2.512,0,0,0-1.064.293,1.38,1.38,0,0,0-.44,1.006,17.227,17.227,0,0,0-.107,2.2l-.039,4.492v8.633q0,3.242.039,4.531l.1,3.379h3.985q4.766,0,5.947-.117a8.055,8.055,0,0,0,2.275-.567,15.934,15.934,0,0,0,.616-2.246q.4-1.758.42-2.031l.175-.156h.957l.137.156a29.92,29.92,0,0,0-.322,3.027q-.166,2.247-.166,3.633l-.156.157q-3.711-.119-9.746-.118l-5.7-.039q-1.953,0-3.984.157l-.156-.157v-.644l.156-.2a8.343,8.343,0,0,0,1.328-.761,12.578,12.578,0,0,0,.244-2.52q.127-2.383.127-5.742v-8.379l-.039-3.809q-.019-2.226-.107-2.871a1.771,1.771,0,0,0-.274-.859,1.408,1.408,0,0,0-.713-.352,16.651,16.651,0,0,0-2.6-.214l-.156-.137Z" style="fill: #fff"/>
    <path d="M489.892,143.927l2.441.078q2.4.077,3.145.078.663,0,5.605-.156l.156.136v.977l-.156.137q-1.347.037-2.08.117a2.512,2.512,0,0,0-1.064.293,1.38,1.38,0,0,0-.44,1.006,17.227,17.227,0,0,0-.107,2.2l-.039,4.492v9.043l.019,3.809a26.562,26.562,0,0,0,.117,2.851,1.824,1.824,0,0,0,.284.86,1.476,1.476,0,0,0,.713.361,15.514,15.514,0,0,0,2.6.225l.156.117v.976l-.156.157q-.1,0-3.437-.118-1.387-.04-2.168-.039-.606,0-5.586.157l-.156-.157v-.976l.156-.117a20.544,20.544,0,0,0,2.422-.2,1.777,1.777,0,0,0,.81-.3,1.533,1.533,0,0,0,.332-.791,17.893,17.893,0,0,0,.147-2.695l.019-4.121v-9.043l-.039-3.809q-.02-2.226-.107-2.871a1.771,1.771,0,0,0-.274-.859,1.408,1.408,0,0,0-.713-.352,16.651,16.651,0,0,0-2.6-.214l-.156-.137v-.977Z" style="fill: #fff"/>
    <path d="M503.681,153.966l-.586-.45a24.2,24.2,0,0,0,1.6-2.753,14.876,14.876,0,0,0,.917-2.627,26.936,26.936,0,0,0,.625-3.389,30.879,30.879,0,0,0,3.809-1.133l.566.469a32.478,32.478,0,0,1-5.136,8.945Z" style="fill: #fff"/>
    <path d="M514.872,164.806l.157-.157h.957l.156.157a18.165,18.165,0,0,0,.263,3.056,2.492,2.492,0,0,0,1.055,1.172,7.571,7.571,0,0,0,2.363,1.006,11.6,11.6,0,0,0,2.979.391,8.78,8.78,0,0,0,3.721-.762,5.823,5.823,0,0,0,2.568-2.237,6.134,6.134,0,0,0,.918-3.31,5.338,5.338,0,0,0-.439-2.246,3.822,3.822,0,0,0-1.231-1.533,5.572,5.572,0,0,0-1.807-.86,30.754,30.754,0,0,0-3.027-.615q-1.953-.314-3.057-.566a10.479,10.479,0,0,1-2.2-.782,5.843,5.843,0,0,1-1.826-1.338,6.128,6.128,0,0,1-1.172-1.992,7.2,7.2,0,0,1-.439-2.529,7.762,7.762,0,0,1,2.539-5.986,9.673,9.673,0,0,1,6.816-2.334,18.043,18.043,0,0,1,3.7.42,14.948,14.948,0,0,1,3.643,1.24l.137.234a26.633,26.633,0,0,0-.528,5.117l-.175.157h-1.016l-.156-.137q-.04-2.345-.118-2.949t-1.777-1.5a7.764,7.764,0,0,0-3.691-.9,7.347,7.347,0,0,0-3.106.664,4.538,4.538,0,0,0-2.187,2.09,6.23,6.23,0,0,0-.742,2.91,4.456,4.456,0,0,0,.449,2.041,3.838,3.838,0,0,0,1.162,1.407,5.024,5.024,0,0,0,1.66.771q.947.254,3.467.625a20.536,20.536,0,0,1,5.029,1.182,5.6,5.6,0,0,1,2.52,2.2,6.681,6.681,0,0,1,.947,3.633A8.606,8.606,0,0,1,530,169.473a12.549,12.549,0,0,1-8.213,2.774A16.392,16.392,0,0,1,514.7,170.8l-.118-.254A57.48,57.48,0,0,0,514.872,164.806Z" style="fill: #fff"/>
    <path d="M543.739,171.681l-.175-.157v-1.015l.175-.157a8.431,8.431,0,0,0,1.836-.146,1.567,1.567,0,0,0,.733-.508,16.187,16.187,0,0,0,1.3-2.49l2.05-4.453,5.313-12.032q1.5-3.536,2.988-7.07h1.27l8.34,19.61,1.113,2.617q.487,1.113,1.123,2.422a7.418,7.418,0,0,0,.879,1.543,1.648,1.648,0,0,0,.605.361,6.543,6.543,0,0,0,1.612.146l.156.157v1.015l-.156.157q-2.071-.177-3.731-.176-3.241.1-6.484.176l-.156-.157v-1.015l.156-.157a15.811,15.811,0,0,0,2.734-.185.65.65,0,0,0,.547-.674,3.33,3.33,0,0,0-.273-1.133l-2.4-5.957H551.982l-2.129,5a5.888,5.888,0,0,0-.567,1.973.765.765,0,0,0,.528.722,8.9,8.9,0,0,0,2.656.254l.176.157v1.015l-.157.157q-2.519-.159-4.414-.157Q545.927,171.524,543.739,171.681Zm8.907-10.958h9.883l-4.9-11.777Z" style="fill: #fff"/>
    <path d="M574.579,144.063l.157-.136q3.378.155,4.609.156l9.141-.195a23.309,23.309,0,0,1,6.406.732,10.979,10.979,0,0,1,4.443,2.539,12.046,12.046,0,0,1,2.949,4.2,13.034,13.034,0,0,1,1.006,5.108,15.452,15.452,0,0,1-.918,5.215,15.177,15.177,0,0,1-2.607,4.619,14.293,14.293,0,0,1-3.848,3.291,13.944,13.944,0,0,1-4.326,1.67,23.336,23.336,0,0,1-4.434.42q-1.522,0-5.742-.118-1.387-.04-1.836-.039-1.347,0-3.261.157l-.157-.157v-.644l.157-.2a10.4,10.4,0,0,0,1.318-.732,15.265,15.265,0,0,0,.273-3.418q.108-3.273.108-4.99v-7.168l-.02-4.434q0-1.446-.039-2.353a7.424,7.424,0,0,0-.136-1.3,1.5,1.5,0,0,0-.225-.547.964.964,0,0,0-.41-.264,4.463,4.463,0,0,0-.967-.185l-1.484-.117-.157-.137Zm7.227,25.489a24.164,24.164,0,0,0,4.59.39,14.909,14.909,0,0,0,7.275-1.523,9.464,9.464,0,0,0,4.072-4.512,16.206,16.206,0,0,0,1.348-6.738q0-5.529-2.949-8.574t-9.3-3.047a31.655,31.655,0,0,0-5.039.39q-.158,3.2-.156,7.227V159.3l.039,5.742Q581.689,166.719,581.806,169.552Z" style="fill: #fff"/>
    <path d="M606.1,143.927l2.441.078q2.4.077,3.145.078.663,0,5.605-.156l.156.136v.977l-.156.137q-1.347.037-2.08.117a2.512,2.512,0,0,0-1.064.293,1.376,1.376,0,0,0-.44,1.006,17.227,17.227,0,0,0-.107,2.2l-.039,4.492v9.043l.019,3.809a26.562,26.562,0,0,0,.117,2.851,1.824,1.824,0,0,0,.284.86,1.476,1.476,0,0,0,.713.361,15.514,15.514,0,0,0,2.6.225l.156.117v.976l-.156.157q-.1,0-3.437-.118-1.387-.04-2.168-.039-.606,0-5.586.157l-.156-.157v-.976l.156-.117a20.544,20.544,0,0,0,2.422-.2,1.782,1.782,0,0,0,.81-.3,1.533,1.533,0,0,0,.332-.791,17.893,17.893,0,0,0,.147-2.695l.019-4.121v-9.043l-.039-3.809q-.019-2.226-.107-2.871a1.771,1.771,0,0,0-.274-.859,1.408,1.408,0,0,0-.713-.352,16.651,16.651,0,0,0-2.6-.214l-.156-.137v-.977Z" style="fill: #fff"/>
    <path d="M631.864,171.876q-.293-.859-2.441-6.563l-6.641-16.425a23.721,23.721,0,0,0-1.425-3.194q-.294-.381-2.344-.517l-.176-.176v-.9l.176-.175q2.988.155,5.078.156,1.953,0,5.176-.156l.156.156v1.074l-.156.156a14.443,14.443,0,0,0-2.822.147.561.561,0,0,0-.459.556,14.688,14.688,0,0,0,.625,2.081q.624,1.845,1.113,3.115l6.113,15.449,5.1-12.813q.526-1.31,1.543-4.218a17.917,17.917,0,0,0,1.015-3.5.594.594,0,0,0-.478-.625,22.534,22.534,0,0,0-2.861-.332l-.176-.157v-.937l.176-.156q3.417.155,4.355.156.762,0,3.945-.156l.157.156v.937l-.157.157a5.621,5.621,0,0,0-1.7.214,1.319,1.319,0,0,0-.517.606q-.225.448-1.4,3.086l-6.094,15q-2.05,5.019-2.91,7.793Z" style="fill: #fff"/>
    <path d="M648.857,164.806l.156-.157h.957l.156.157a18,18,0,0,0,.264,3.056,2.486,2.486,0,0,0,1.055,1.172,7.561,7.561,0,0,0,2.363,1.006,11.6,11.6,0,0,0,2.978.391,8.78,8.78,0,0,0,3.721-.762,5.823,5.823,0,0,0,2.568-2.237,6.134,6.134,0,0,0,.918-3.31,5.338,5.338,0,0,0-.439-2.246,3.814,3.814,0,0,0-1.231-1.533,5.567,5.567,0,0,0-1.806-.86,30.787,30.787,0,0,0-3.028-.615q-1.953-.314-3.056-.566a10.459,10.459,0,0,1-2.2-.782,5.848,5.848,0,0,1-1.827-1.338,6.108,6.108,0,0,1-1.171-1.992,7.2,7.2,0,0,1-.44-2.529,7.762,7.762,0,0,1,2.539-5.986,9.676,9.676,0,0,1,6.817-2.334,18.051,18.051,0,0,1,3.7.42A14.94,14.94,0,0,1,665.5,145l.137.234a26.728,26.728,0,0,0-.527,5.117l-.176.157h-1.016l-.156-.137q-.039-2.345-.117-2.949t-1.778-1.5a7.761,7.761,0,0,0-3.691-.9,7.339,7.339,0,0,0-3.105.664,4.544,4.544,0,0,0-2.188,2.09,6.23,6.23,0,0,0-.742,2.91,4.456,4.456,0,0,0,.449,2.041,3.848,3.848,0,0,0,1.162,1.407,5.034,5.034,0,0,0,1.66.771q.948.254,3.467.625a20.536,20.536,0,0,1,5.029,1.182,5.6,5.6,0,0,1,2.52,2.2,6.672,6.672,0,0,1,.947,3.633,8.608,8.608,0,0,1-3.388,6.933,12.551,12.551,0,0,1-8.213,2.774,16.394,16.394,0,0,1-7.09-1.445l-.117-.254Q648.759,169.317,648.857,164.806Z" style="fill: #fff"/>
    <path d="M669.247,158.067a17.34,17.34,0,0,1,.84-5.469,12.679,12.679,0,0,1,2.861-4.7,13.833,13.833,0,0,1,4.874-3.34,16.694,16.694,0,0,1,6.445-1.181q6.66,0,10.6,3.623t3.946,9.892a16.18,16.18,0,0,1-1.934,7.93,13.544,13.544,0,0,1-5.537,5.469,16.723,16.723,0,0,1-8.1,1.953,15.726,15.726,0,0,1-5.859-1.065,11.96,11.96,0,0,1-4.561-3.173,12.909,12.909,0,0,1-2.734-4.883A17.4,17.4,0,0,1,669.247,158.067Zm4.063-1.289a19.021,19.021,0,0,0,.771,5.127,13.489,13.489,0,0,0,2.3,4.707,9.914,9.914,0,0,0,3.535,2.92,11.248,11.248,0,0,0,9.951-.43,8.713,8.713,0,0,0,3.594-4.306,16.734,16.734,0,0,0,1.231-6.553,17.449,17.449,0,0,0-1.407-7.129,9.419,9.419,0,0,0-4-4.629,11.639,11.639,0,0,0-5.761-1.445,9.666,9.666,0,0,0-7.481,2.969Q673.31,150.976,673.31,156.778Z" style="fill: #fff"/>
    <path d="M700.575,144.063l.157-.136q3.573.155,5.566.156,2.208,0,5.957-.137,1.387-.039,2.012-.039,4.941,0,6.7,1.8a5.881,5.881,0,0,1,1.758,4.258,6.664,6.664,0,0,1-.86,3.222,7.641,7.641,0,0,1-2.539,2.705,12.668,12.668,0,0,1-4.628,1.69q.546.762,1.972,2.637l2.774,3.672q1.347,1.815,2.89,3.837a12.421,12.421,0,0,0,1.992,2.286,2.5,2.5,0,0,0,.772.322,6.39,6.39,0,0,0,1.025.058l.157.157v.918l-.176.175a18.281,18.281,0,0,0-2.227-.117q-1.387,0-3.027.117-1.348-1.639-4.238-5.683-3.36-4.687-6.875-8.692l.2-.6q1.015.058,1.582.059a7.937,7.937,0,0,0,5.293-1.622,5.57,5.57,0,0,0,1.914-4.492,4.606,4.606,0,0,0-1.719-3.9,7.45,7.45,0,0,0-4.648-1.319,12.907,12.907,0,0,0-3.867.567q-.294.429-.293,7.324v9.043l.019,3.809a26.562,26.562,0,0,0,.117,2.851,1.835,1.835,0,0,0,.284.86,1.481,1.481,0,0,0,.712.361,15.544,15.544,0,0,0,2.6.225l.156.117v.976l-.156.157q-.1,0-3.437-.118-1.387-.04-2.168-.039-.606,0-5.586.157l-.157-.157v-.976l.157-.117a20.544,20.544,0,0,0,2.422-.2,1.782,1.782,0,0,0,.81-.3,1.533,1.533,0,0,0,.332-.791,17.893,17.893,0,0,0,.147-2.695l.019-4.121v-9.043l-.039-3.809q-.02-2.226-.107-2.871a1.771,1.771,0,0,0-.274-.859,1.408,1.408,0,0,0-.713-.352,16.651,16.651,0,0,0-2.6-.214l-.157-.137Z" style="fill: #fff"/>
    <path d="M725.986,145.763l-.176-.176v-.821l.176-.175,5.527-.918a6.6,6.6,0,0,1,1.142,1.035,19.028,19.028,0,0,1,1.622,2.334q1.065,1.709,2.744,4.765t3.222,6.124l1.993-3.165,2.246-3.75,4.14-7.089c.508.051,1,.078,1.485.078.3,0,.755-.027,1.367-.078l.156.156v.371q-.976,1.074-3.027,3.9t-3.057,4.414q-1.007,1.591-2.471,4a20.689,20.689,0,0,0-1.6,2.9,4.3,4.3,0,0,0-.137,1.152v2.871l.02,2.93a18.635,18.635,0,0,0,.127,2.373,1.854,1.854,0,0,0,.293.879,1.469,1.469,0,0,0,.7.342,16.737,16.737,0,0,0,2.588.215l.156.117v.976l-.156.157q-.1,0-3.438-.118-1.387-.04-2.168-.039-.626,0-5.586.157l-.156-.157v-.976l.156-.117a20.17,20.17,0,0,0,2.442-.2,1.751,1.751,0,0,0,.791-.3,1.393,1.393,0,0,0,.322-.722,13.6,13.6,0,0,0,.137-2.2l.039-3.34v-3.711a51.992,51.992,0,0,0-2.871-5.059l-1.719-2.793q-.821-1.329-2.061-3.1a16.579,16.579,0,0,0-1.924-2.4,3.169,3.169,0,0,0-1.054-.742A10.3,10.3,0,0,0,725.986,145.763Z" style="fill: #fff"/>
    <path d="M763.075,145.177l-.156-.137v-.977l.156-.136q3.341.155,5.157.156.684,0,5.41-.156,1.523-.04,2.207-.039a13.323,13.323,0,0,1,4.18.527,4.884,4.884,0,0,1,2.48,1.865,5.164,5.164,0,0,1,.938,3.037,6.126,6.126,0,0,1-1.563,4.024A9.063,9.063,0,0,1,776.806,156a20.918,20.918,0,0,1,3.476.566,6.641,6.641,0,0,1,2.364,1.143,5.353,5.353,0,0,1,1.572,2,6.654,6.654,0,0,1,.576,2.851,9.012,9.012,0,0,1-.39,2.579,7.64,7.64,0,0,1-1.436,2.6,9.965,9.965,0,0,1-2.529,2.207,11.2,11.2,0,0,1-3.037,1.328,15.355,15.355,0,0,1-3.858.411q-.468,0-2.812-.1-2.6-.058-2.813-.059-1.329,0-3.262.157l-.156-.157v-.644l.156-.2a5.542,5.542,0,0,0,1.309-.7,15.284,15.284,0,0,0,.283-3.457q.108-3.263.108-4.98v-7.168l-.02-4.434q0-1.446-.039-2.353a11.268,11.268,0,0,0-.107-1.3,1.018,1.018,0,0,0-.225-.547,1.242,1.242,0,0,0-.439-.264,4.463,4.463,0,0,0-.967-.185Zm7.012,10.254q.978.076,2.207.078,4.043,0,5.625-1.446A5.1,5.1,0,0,0,779.5,150.1a4.825,4.825,0,0,0-.605-2.49,3.854,3.854,0,0,0-1.9-1.572,9.274,9.274,0,0,0-3.525-.547,15.638,15.638,0,0,0-3.2.293q-.176,1.758-.176,6.133Zm.039,14.238a13.533,13.533,0,0,0,3.086.351,8.908,8.908,0,0,0,4.375-.9,5.536,5.536,0,0,0,2.334-2.49,8.021,8.021,0,0,0,.752-3.467,6.293,6.293,0,0,0-1.592-4.5q-1.592-1.691-6.884-1.69-.879,0-2.11.079v6.66Z" style="fill: #fff"/>
    <path d="M787.743,158.067a17.34,17.34,0,0,1,.84-5.469,12.668,12.668,0,0,1,2.862-4.7,13.82,13.82,0,0,1,4.873-3.34,16.694,16.694,0,0,1,6.445-1.181q6.66,0,10.605,3.623t3.946,9.892a16.18,16.18,0,0,1-1.934,7.93,13.544,13.544,0,0,1-5.537,5.469,16.723,16.723,0,0,1-8.1,1.953,15.726,15.726,0,0,1-5.859-1.065,11.96,11.96,0,0,1-4.561-3.173,12.923,12.923,0,0,1-2.734-4.883A17.43,17.43,0,0,1,787.743,158.067Zm4.063-1.289a19.021,19.021,0,0,0,.771,5.127,13.489,13.489,0,0,0,2.3,4.707,9.922,9.922,0,0,0,3.535,2.92,11.248,11.248,0,0,0,9.951-.43,8.708,8.708,0,0,0,3.594-4.306,16.734,16.734,0,0,0,1.231-6.553,17.449,17.449,0,0,0-1.407-7.129,9.419,9.419,0,0,0-4-4.629,11.639,11.639,0,0,0-5.761-1.445,9.667,9.667,0,0,0-7.481,2.969Q791.805,150.976,791.806,156.778Z" style="fill: #fff"/>
    <path d="M819.111,171.681l-.176-.157v-1.015l.176-.157a8.446,8.446,0,0,0,1.836-.146,1.569,1.569,0,0,0,.732-.508,16.187,16.187,0,0,0,1.3-2.49l2.051-4.453,5.312-12.032q1.5-3.536,2.988-7.07h1.27l8.34,19.61,1.113,2.617q.487,1.113,1.123,2.422a7.418,7.418,0,0,0,.879,1.543,1.656,1.656,0,0,0,.605.361,6.556,6.556,0,0,0,1.612.146l.156.157v1.015l-.156.157q-2.07-.177-3.731-.176-3.241.1-6.484.176l-.156-.157v-1.015l.156-.157a15.8,15.8,0,0,0,2.734-.185.649.649,0,0,0,.547-.674,3.33,3.33,0,0,0-.273-1.133l-2.4-5.957H827.353l-2.129,5a5.888,5.888,0,0,0-.567,1.973.765.765,0,0,0,.528.722,8.9,8.9,0,0,0,2.656.254l.176.157v1.015l-.156.157q-2.52-.159-4.414-.157Q821.3,171.524,819.111,171.681Zm8.906-10.958H837.9L833,148.946Z" style="fill: #fff"/>
    <path d="M850.185,144.063l.156-.136q3.575.155,5.566.156,2.208,0,5.957-.137,1.387-.039,2.012-.039,4.941,0,6.7,1.8a5.881,5.881,0,0,1,1.758,4.258,6.674,6.674,0,0,1-.859,3.222,7.65,7.65,0,0,1-2.539,2.705,12.666,12.666,0,0,1-4.629,1.69q.546.762,1.973,2.637l2.773,3.672q1.347,1.815,2.891,3.837a12.34,12.34,0,0,0,1.992,2.286,2.493,2.493,0,0,0,.771.322,6.4,6.4,0,0,0,1.026.058l.156.157v.918l-.176.175a18.275,18.275,0,0,0-2.226-.117q-1.387,0-3.028.117-1.347-1.639-4.238-5.683-3.359-4.687-6.875-8.692l.195-.6q1.015.058,1.582.059a7.937,7.937,0,0,0,5.293-1.622,5.567,5.567,0,0,0,1.914-4.492,4.608,4.608,0,0,0-1.718-3.9,7.455,7.455,0,0,0-4.649-1.319,12.907,12.907,0,0,0-3.867.567q-.293.429-.293,7.324v9.043l.02,3.809a26.014,26.014,0,0,0,.117,2.851,1.826,1.826,0,0,0,.283.86,1.481,1.481,0,0,0,.713.361,15.527,15.527,0,0,0,2.6.225l.157.117v.976l-.157.157q-.1,0-3.437-.118-1.388-.04-2.168-.039-.6,0-5.586.157l-.156-.157v-.976l.156-.117a20.522,20.522,0,0,0,2.422-.2,1.777,1.777,0,0,0,.81-.3,1.525,1.525,0,0,0,.332-.791,17.893,17.893,0,0,0,.147-2.695l.02-4.121v-9.043l-.04-3.809q-.018-2.226-.107-2.871a1.772,1.772,0,0,0-.273-.859,1.412,1.412,0,0,0-.713-.352,16.683,16.683,0,0,0-2.6-.214l-.156-.137Z" style="fill: #fff"/>
    <path d="M876.669,144.063l.156-.136q3.379.155,4.61.156l9.14-.195a23.312,23.312,0,0,1,6.407.732,10.973,10.973,0,0,1,4.443,2.539,12.059,12.059,0,0,1,2.949,4.2,13.034,13.034,0,0,1,1.006,5.108,15.452,15.452,0,0,1-.918,5.215,15.177,15.177,0,0,1-2.607,4.619,14.278,14.278,0,0,1-3.848,3.291,13.935,13.935,0,0,1-4.326,1.67,23.336,23.336,0,0,1-4.434.42q-1.522,0-5.742-.118-1.387-.04-1.836-.039-1.347,0-3.262.157l-.156-.157v-.644l.156-.2a10.365,10.365,0,0,0,1.319-.732,15.265,15.265,0,0,0,.273-3.418q.108-3.273.108-4.99v-7.168l-.02-4.434q0-1.446-.039-2.353a7.207,7.207,0,0,0-.137-1.3,1.463,1.463,0,0,0-.224-.547.964.964,0,0,0-.41-.264,4.463,4.463,0,0,0-.967-.185l-1.485-.117-.156-.137Zm7.227,25.489a24.164,24.164,0,0,0,4.59.39,14.906,14.906,0,0,0,7.275-1.523,9.469,9.469,0,0,0,4.072-4.512,16.206,16.206,0,0,0,1.348-6.738q0-5.529-2.949-8.574t-9.3-3.047a31.655,31.655,0,0,0-5.039.39q-.157,3.2-.157,7.227V159.3l.04,5.742Q883.779,166.719,883.9,169.552Z" style="fill: #fff"/>
  </g>
  <g style="clip-path: url(#f80c6b8d-1e0f-4bf8-b81d-7096300a40f6)">
    <path d="M1348.249,190.851a38.982,38.982,0,0,0-10.564-5.947,37.294,37.294,0,0,1-8.4-4.676c-1.62-3.951-3.426-9.271-4.029-9.615-1.492-.851.267-2.965-.158-4.569-2.122-8.014-1.784-16.471-4.416-24.406a94.036,94.036,0,0,0-4.609-10.456,4.353,4.353,0,0,0-2.534-2.261c-1.944-.719-3.893-1.424-5.834-2.152-3.829-1.436-4.736-5.767-1.672-8.479,1.113-.985.85-1.738.03-2.453-3.59-3.13-7.949-4.754-12.475-5.834-1.783-.426-2.865,1.233-2.239,3.4a4.974,4.974,0,0,1-.561,4.7,1.429,1.429,0,0,0-.038,2.015,1.746,1.746,0,0,1,.412,1.363c-.982,3.194,1.249,5.251,2.748,7.452.672.988.214,1.211-.354,1.366-5.319,1.449-6.007,6.031-6.719,10.321-.832,5.025-1.569,10.067-2.374,15.1a7.71,7.71,0,0,1-.675-.544,3.68,3.68,0,0,1-1.8-3.4,7.926,7.926,0,0,1-.038-1.851,19.819,19.819,0,0,0-2.528-8.466h0a6.917,6.917,0,0,1-.616-1.216c-2.954-7.586-8.764-12.106-16.067-14.944-5.268-2.048-10.626-1.614-15.829.289-2.034.743-3.111.685-3.354-1.732-.086-.854-.21-2.033-1.267-2.209-.985-.164-1.2.987-1.619,1.639a71.554,71.554,0,0,1-5.423,8.026,7.438,7.438,0,0,0-1.367,7.708,20.029,20.029,0,0,1,.047,13.657,15.609,15.609,0,0,0-.6,2.665c-.511,3.168.817,5.125,3.947,6a1.514,1.514,0,0,0,1.734-.584c.861-1,1.731-1.989,2.583-2.967.744.14.813.825,1.162,1.257,1.588,1.968,3.382,1.767,4.265-.554a75.225,75.225,0,0,1,3.914-9.129,1.7,1.7,0,0,1,1.225-1.144,9.749,9.749,0,0,1-.591,6.614,8.834,8.834,0,0,1-1.678,2.749c-3.9,3.813-6.228,8.528-8.022,13.563-.585,1.643-1.494,1.145-2.491.507a24.777,24.777,0,0,0-7.149-3.405,5.044,5.044,0,0,0-5.067,1.116,98.836,98.836,0,0,0-18.563,22.9c-.907,1.539-.271,2.045,1.2,2.3,2.963.513,5.211-.4,6.214-3.252,2.02-5.745,6.583-9.474,10.5-13.675,2.518-2.7,4.117-2.577,6.732-.615,2.855,2.142,4.172,5.316,2.845,7.737-4.294,7.84-8.2,15.914-13.6,23.106a25.421,25.421,0,0,1-7.272,6.33c-1.361.83-1.137,1.258-.024,2.057,4.494,3.225,4.518,3.285,7.724-.414,8.488-9.793,18.107-18.456,27.359-27.485,3.829-3.737,4-3.731,8.7-.518-2.827,1.776-2.873,2.27-.424,4.589a5.055,5.055,0,0,0,2.963,1.728c5.233.267,9.108,3.022,12.77,6.43a18.426,18.426,0,0,0,11.552,4.621c1.531.116,2.239.24,1.485,2.192a6.835,6.835,0,0,0,5.418,8.5c1.846.288,2.006,1.137,2,2.65-.022,6.657-2.669,11.454-9.162,13.881-2.788,1.042-5.438,2.461-8.126,3.761a26.968,26.968,0,0,0-10.1,9.012c-.637.891-1.685,2.041-.227,2.979,1.348.867,2.6,2.693,4.586,1.273a6.782,6.782,0,0,0,1.939-1.9c1.964-3.329,5.03-5.2,8.442-6.65a122.994,122.994,0,0,1,20.671-7.132,2.41,2.41,0,0,0,2.116-2.313,24.112,24.112,0,0,0-.146-6.447,10.956,10.956,0,0,1,.757-5.844c.371-.83.674-1.881,1.751-1.866,1,.013,1.183,1.074,1.409,1.827,2.717,9.05,3.726,18.2,1.112,27.447-1.624,5.748-3.263,11.524-7.608,15.992a28.628,28.628,0,0,0-2.084,2.128c-.669.849-2.7.974-1.817,2.646s4.5,2.744,5.826,1.919c4.033-2.514,6.05-6.575,7.684-10.736,2.223-5.657,5.241-10.895,7.981-16.279,1.128-2.217,1.8-4.343,1.088-6.89-1.912-6.862,1.693-11.98,5.63-16.947a118.4,118.4,0,0,0,8.4-11.086c2.862-4.633,4.4-9.446,2.907-14.9-.212-.771-.6-1.83.347-2.225s1.424.689,1.857,1.323c2.4,3.517,2.428,7.561,2.054,11.524a64.911,64.911,0,0,1-11.564,31.373c-.174.251-.323.52-.484.781l.486.411a92.19,92.19,0,0,0,15.6-13.313c3.181-3.405,6.09-7.029,7.82-11.424C1357.088,202.74,1355.159,196.286,1348.249,190.851Z" style="fill: #fff"/>
  </g>
</svg>
