<svg id="Layer_1" data-name="Layer 1" xmlns="http://www.w3.org/2000/svg" xmlns:xlink="http://www.w3.org/1999/xlink" viewBox="0 0 1344.29 194.65">
  <defs>
    <clipPath id="clip-path">
      <rect x="1220.21" y="-109.86" width="115.45" height="91.14" fill="none"/>
    </clipPath>
    <clipPath id="clip-path-2">
      <rect x="20.45" y="37.53" width="160.13" height="134.18" fill="none"/>
    </clipPath>
    <clipPath id="clip-path-3">
      <rect x="1201.52" y="104.46" width="142.86" height="90.34" fill="none"/>
    </clipPath>
  </defs>
  <title>banner-6b</title>
  <g clip-path="url(#clip-path)">
    <circle cx="1255.02" cy="-3.23" r="4.86" fill="#fff"/>
  </g>
  <g clip-path="url(#clip-path-2)">
    <g>
      <path d="M72.21,145.78c-1.94,2.91-1.16,4.35-3.49,5.51s-1.68.54-4.77,1.56-4.13.5-6.07,3-3.09,5-4.9,7.74-1,1-6.07,4.26S40.46,171,38.53,173s.25,1.42-4,3.74S34,178,25,181.1s-8.26,1.16-12.91,4.26-5.55,2.32-8.13,5.42-6.58,6.71-10.45,12.77-12.65,23.23-12.65,23.23H213.12s-4.77-18.84-15.22-27.36-11.23-9.16-15.88-9.93-4.12.13-10.06-5.55-13.29-12.52-16.91-12.65-2.19,1.16-4.9-1.16-3-2.19-5.68-4.39-3.87-1.55-7.35-4.26,4.13-1.36-7.77-6.45S72.21,145.78,72.21,145.78Z" fill="#441716"/>
      <path d="M13.69,201.8c2.57,1.4,2.34-10.76,6.08.7s6.31,20.81,6.55,14.26S24,207.64,25.15,203.2s2.8.57,7.48-5.33,4.44-6.36,6.08-9.29-1.4-12,2.81-4.32,7.25,4.91,7.95,9.82-.23,4.68-.23,11.92,1.16,15,2.1,9.83.23-12.63.47-19,.7-7.71,2.57-.7,5.51,15.2,5.56,19.18,1.12,8.93,1.26.47.73-11,7.36-11.83,28.81,1.9,33.62,4.81c2.93,1.77-18.42-35.42-35.37-56.73a23.25,23.25,0,0,0-2.86.77c-3.1,1-4.13.5-6.07,3l-.39.52h0c-1.44,1.95-2.48,4-3.78,6.08l-.09.15c-.21.33-.42.66-.64,1-.9,1.35-1.16,1.61-1.82,1.94l-.27.12a23.09,23.09,0,0,0-2.34,1.2c-.47.27-1,.59-1.64,1-3.14,2-4.88,2.77-6.21,3.53A9.07,9.07,0,0,0,38.53,173a4.54,4.54,0,0,0-.79,1,4.05,4.05,0,0,0-.18.37l-.06.16a1.56,1.56,0,0,1-.44.64,4.89,4.89,0,0,1-.56.43l-.41.27c-.39.25-.9.54-1.56.9s-1.14.65-1.49.87-.5.33-.67.46l-.24.18-.23.16a1.88,1.88,0,0,1-.23.16c-.7.43-1.9.91-6.69,2.56-9,3.1-8.26,1.16-12.91,4.26-.87.58-1.61,1-2.25,1.38-.43.24-.82.44-1.17.62l-1,.49c-.45.22-.86.43-1.25.67l-.39.25a9.58,9.58,0,0,0-.78.62,14.15,14.15,0,0,0-1.31,1.39c-.81,1-1.75,2-2.79,3.11L-.13,195.3c-.88,1-1.81,2-2.76,3.23-.71.88-1.44,1.83-2.17,2.86l-.72,1.05c-.25.37-.49.73-.73,1.11-.85,1.33-1.93,3.19-3.1,5.28l-.51.91-1,1.89-1.05,1.94c-.71,1.3-1.41,2.61-2.08,3.87-2.67,5.05-4.87,9.34-4.87,9.34H-7.83c1.17-6.28,4.92-8.61,10.29-15.86S11.12,200.39,13.69,201.8Z" fill="#270c06"/>
      <path d="M105.68,226.19l-8.7-63L74.89,146l-2.68-.26c-1.94,2.91-1.16,4.35-3.49,5.51-2.09,1.05-1.78.65-4,1.31l-.54,1.79c-1.94,5.42-4.91,11.87-4.13,19.35s-.26,11.88-.13,20.65.64,15.49,6.06,20.91a106.66,106.66,0,0,1,9.26,11.48h29.06C105.18,226.42,105.68,226.19,105.68,226.19Z" fill="#433128"/>
      <path d="M125.16,157.81c.31.89,2.47,1.48,6.83,7.93s7.71,4.39,7.19,11.23-.26,10.58-2.19,16.13-3.1,6.07-3.87,11.36.64,7.48-3.1,13.8-12.91,15.62-13.42,19.49S112,183.29,112,183.29Z" fill="#433128"/>
      <path d="M101.76,176c-7.44,12.85-.21,31.83,7.1,22.93s6.4-20.38,6.4-20.38Z" fill="#a67437"/>
      <path d="M84.88,157.13c2,1.32,7.38,15,7.38,15l21.89.19,15.2-24-3.19-25.17L82,151.43Z" fill="#d29f6e"/>
      <path d="M124,127.82a5.59,5.59,0,0,1,1.6-.68c-1.08-1.54-.9-2.21-.11-5.18s3.7-5.24,5.06-10.08,2.42-4.23,1.37-9.37-1.82-7.71-5.45-11.34-6.65-2.27-8.31-6.8-2-3.78-3-8.77-.3-7.86-5-9.53-9.55-2-15.51-3-11.4-1.06-15,1.51-6.8,2.87-9.07,6.35-7.84,3.7-8.29,7.78c-.23,2-2,10.6-1.42,15.29s4.49,8.29,4.57,11.1c.15,5.6,3.48,8.77.45,11.49-.87.79-1.54,1.4-2,1.92,1.13,3.15,3,7.06,4,9.43,1.26,2.91,0,7,0,9.7A13.85,13.85,0,0,0,71,146c2,2.52,1.46,1.84,2,3.78s2.23,3.88,3.49,5.53,4.56,2.14,8.35,1.85,2-1.17,5.24-2.33,5.34-1.46,9.9-2.82,4.66-2.62,8-4.75a85.13,85.13,0,0,0,7.76-6.11,20.23,20.23,0,0,0,4.47-6.31C120.79,133.45,122.73,128.69,124,127.82Z" fill="#ffc680"/>
      <path d="M56.61,82.86c.61-5.75-.91-10.13,2.72-13.46s4.24-9.07,8.32-14.06,4.23-7.26,9.07-10.89,5.14-6.8,10.28-5.59,4.69,2.87,9.22,2.87,10.89-3.48,15-2.87,14.82,2.27,18.9,9.22.45,7.41,7.71,10.13,11,0,13.76,6.8,2.87,9.68,5.44,17.09,1.06,7.26,0,15,.31,7.56-.9,12.24-3.78,4.09-2.42,9.08,3.17,5.29,2.42,8.61.45,7.71-3.33,10.44-3.33.75-1.21,5,1.51,8-1.66,11-5.75,6.35-8,6.35-6.5,1.51-9.22,0-4.84.15-6.2-2.57-2.57-1-3.78-3.37-1.81-1.47-1.21-4.64.61-2.72.61-8.17-.46-5.14,1.36-8.31,3.48-3.78,2.27-5.44-1-2.27-.23-5.35,3.7-5.24,5.06-10.08,2.42-4.23,1.37-9.37-1.82-7.71-5.45-11.34-6.65-2.27-8.31-6.8-2-3.78-3-8.77-.3-7.86-5-9.53-9.55-2-15.51-3-11.4-1.06-15,1.51-6.8,2.87-9.07,6.35-6.23,5.21-6.69,9.29c-.16,1.47-1.2,8.79-.95,12.18.44,6,2.4,9.13,2.5,12.7.15,5.6,3.48,8.77.45,11.49s-3.62,3.33-3,5.6-2-4.24-4.84-6.51-4.38-3.17-4.53-8.61-1.36-3.48.9-8.77,4.69-5.9,3.48-9.07A20.08,20.08,0,0,1,56.61,82.86Z" fill="#d1b077"/>
      <path d="M93,89.05c-1.78.18-4.83,2.57-2.38,2.51s5.5-1.3,9.37-.14,5.35,1,6.38,1.92,1.16-1.6-1.71-2.5S102.41,88.08,93,89.05Z" fill="#d1b077"/>
      <path d="M71.08,88.78c4.38-.1,7.76,1.48,7.47,2.4s-1.39.36-3,.36-3.07-.75-4.93-.58-7.35,2.24-6.94.67S68.08,88.85,71.08,88.78Z" fill="#d1b077"/>
      <path d="M96.58,98.84c2.07-1.13,5.8-.73,6.65,0s4.31,2.64,3.29,3.21a26.38,26.38,0,0,1-6.82,2.19c-1.4.23-5.57-1.33-5.6-2.15C94,100.18,96.58,98.84,96.58,98.84Z" fill="#fae1d7"/>
      <path d="M66.1,100.18a6.38,6.38,0,0,1,4.83-2.47c1.42,0,5.57,1.29,5.81,2.15s.85,2-.73,2.51-7.05,1.4-8.32.86C66.83,102.86,65.05,101.93,66.1,100.18Z" fill="#fae1d7"/>
      <path d="M76.75,134.29c-.17-1.19,1.68-2.34,2.79-2.79s1.39.65,2.87.35a8.1,8.1,0,0,1,5.15.28c1.83.85.25.49,2.63,1.46s4.81,1.07,4.43,1.8,1.56.88-5,.51-9.9.16-10.83-.59S77,135.82,76.75,134.29Z" fill="#c05a1d"/>
      <path d="M77.51,134.23c-.42.05-1.17,0-1.05,1.07s.25,1.63,1.65,1.73c2.58.19,3.29-.51,6.48,0s5.24.68,6.85.39,3.34-.38,3-1-1.44-1.47-4.6-1.85-3.76-.46-5.62-.56-1.3-.59-3.52-.28S77.51,134.23,77.51,134.23Z" fill="#992f00"/>
      <path d="M82.59,92.79a10.64,10.64,0,0,0-.23,3.46A10.29,10.29,0,0,1,82.43,98c0,.32,0,.55-.09,1a5.12,5.12,0,0,1-.32,1c-.49,1.14-1.07,2.16-1.62,3.2a24.61,24.61,0,0,0-1.45,3.1l-.11.37c0,.11,0,.21,0,.33,0,.28,0,.56,0,.84v1.76c0,.59,0,1.19-.06,1.82a4.46,4.46,0,0,1-.54,2,30.25,30.25,0,0,0-1.6,3.05c-.25.52-.49,1-.7,1.58a4.35,4.35,0,0,0-.26.73c0,.24-.09.51-.12.79a15,15,0,0,0,.11,3.35,4.87,4.87,0,0,0,.18.71s0,.06,0,.09a1.14,1.14,0,0,0,.12.19l.23.39a5.36,5.36,0,0,0,.94,1.22,1.09,1.09,0,0,0,1,.27,14.17,14.17,0,0,0,1.54-.6c1.07-.48,2.14-1,3.25-1.43a12.92,12.92,0,0,1,3.61-1,6.81,6.81,0,0,1,1,.07l.85.09a4.18,4.18,0,0,0,1.39-.11,2.39,2.39,0,0,0,1.07-1c.4-.49.84-.9,1.17-1.32A1.61,1.61,0,0,0,92.4,119a4.31,4.31,0,0,0-.82-1.51,4.5,4.5,0,0,1,1.15,1.4,2.06,2.06,0,0,1-.15,1.91c-.3.56-.67,1-.93,1.51a3.42,3.42,0,0,1-1.3,1.57,3.12,3.12,0,0,1-2.07.32l-.9-.09a6.28,6.28,0,0,0-.78-.06,11.76,11.76,0,0,0-3.14.95c-1.07.44-2.13.93-3.22,1.41a13.92,13.92,0,0,1-1.75.68,2.44,2.44,0,0,1-2.24-.55A5.74,5.74,0,0,1,75,125l-.23-.37-.12-.18c-.05-.1-.12-.22-.15-.3a6.45,6.45,0,0,1-.26-1,15.81,15.81,0,0,1-.12-3.7,8.55,8.55,0,0,1,.14-1,5.55,5.55,0,0,1,.33-.93c.23-.57.47-1.11.73-1.65A31.83,31.83,0,0,1,77,112.65a3.17,3.17,0,0,0,.34-1.38c0-.55,0-1.13,0-1.71v-1.78c0-.3,0-.61,0-.93a5.24,5.24,0,0,1,.08-.53l.14-.48a23.86,23.86,0,0,1,1.54-3.3c.54-1.05,1.13-2.08,1.57-3.1A3,3,0,0,0,81.08,98a7.29,7.29,0,0,1,.23-1.77A9.17,9.17,0,0,1,82.59,92.79Z" fill="#efae76"/>
      <path d="M122,145.78c-3,2.65-3.35,2.95-5.72,5.31s-3.55,2.67-4.43,4.74-.3,2-2.67,3a28.21,28.21,0,0,0-6.21,3.85c-1.68,1.28-2.57,1.57-2.57,3.64s.1,3-.69,4.44-2.37,4.44-1.38,6.51,1.53,4.35,2.59,3.56,1-2.77,2.44-1,3.16,3.75,3.26,4.73-.2,1.48-.3,5,0,7.49,0,7.49-3.06-3.75-3.35-7,0-5.71-.44-7.15-2.13-12.28-5.68-14.95-3.65-1.68-5.13-3.35-1.25-2.94-3.25-4.13-4.06-2.44-2.82,0,2.32.87,1.24,2.45-4.64-.29-3.06,2.66a29.84,29.84,0,0,1,2.76,7.5c.89,3.16-.55,2.77,1.35,4.89s.53,1.52-.36,2-1.28-.69-.4,2,1.09,1.58,1.68,5.52a30.7,30.7,0,0,0,2.66,9.57c1.58,3.45.79,2.86,2.17,6.41s1.48,4.15,3,5.92,10,19.24,11.45,21-.69,1.39,2.17-3.05,6.61-8.68,7.89-16.58,1.17-6.41,3.84-13.51,3.56-11.44,6.22-15.39,4.83-2.37,3.16-8.29-2.17-4.53-4.34-10.45a84.86,84.86,0,0,1-2.94-8.79C123.65,152.61,122,145.78,122,145.78Z" fill="#e0c3a2"/>
      <path d="M68.81,98.16a3.89,3.89,0,0,0-.25,1.38c0,1.88,1.26,3.4,2.8,3.4a3.14,3.14,0,0,0,2.8-3.4A4,4,0,0,0,74,98.37a11.76,11.76,0,0,0-3.06-.66A6.08,6.08,0,0,0,68.81,98.16Z" fill="#673d40"/>
      <path d="M102.18,100.33a4.4,4.4,0,0,0-.49-2,8.72,8.72,0,0,0-5,.51,4.3,4.3,0,0,0-.27,1.54c0,2,1.28,3.69,2.87,3.69S102.18,102.37,102.18,100.33Z" fill="#673d40"/>
      <path d="M158.42,188.58c1.66,3.63-.44,4.33,2.36,11.34s7.25,12.4,8.66,16.61c1,3.08,1.55,6.18,2.86,10.13H186v-3.12c0-6.31-.47-12.39-1.64-14s-6.54-12.77-5.61-8.37,0,10.48.94,12.58,2.57,11.46-1.64-.7-5.38-6.21-8.19-15.15.24-4.73-2.8-13.85c-2.19-6.57-5.14-7.8-7-10.43-2-1.37-3.73-2.25-5-2.3-3.61-.13-2.19,1.16-4.9-1.16s-3-2.19-5.68-4.39-3.87-1.55-7.35-4.26c-1.16-.9-1.09-1.35-.92-1.74l-1.61.67c-.23,4.44,7.95,12.62,12.86,16.13S156.76,185,158.42,188.58Z" fill="#270c06"/>
    </g>
  </g>
  <polygon points="1209.32 104.46 1167.84 172.48 0 172.48 0 194.65 279.31 194.65 1344.29 194.65 1344.29 104.46 1209.32 104.46" fill="#212026"/>
  <g>
    <path d="M223.74,82.28h3.48v18c0,7.16-3.52,9.36-8.16,9.36a11.27,11.27,0,0,1-3.72-.64l.52-2.84a8.3,8.3,0,0,0,2.92.52c3.12,0,5-1.4,5-6.68Z" fill="#212026"/>
    <path d="M256.06,95.48c0,9.28-5.64,14.2-12.52,14.2-7.12,0-12.12-5.52-12.12-13.68,0-8.56,5.32-14.16,12.52-14.16C251.3,81.84,256.06,87.48,256.06,95.48Zm-20.92.44c0,5.76,3.12,10.92,8.6,10.92s8.64-5.08,8.64-11.2c0-5.36-2.8-11-8.6-11S235.14,90,235.14,95.92Z" fill="#212026"/>
    <path d="M264.06,82.28V93.56h13V82.28h3.52v27H277.1V96.6h-13v12.64h-3.48v-27Z" fill="#212026"/>
    <path d="M286.66,109.24v-27h3.8l8.64,13.64a76.32,76.32,0,0,1,4.84,8.76l.08,0c-.32-3.6-.4-6.88-.4-11.08V82.28h3.28v27h-3.52l-8.56-13.68a85.57,85.57,0,0,1-5-9l-.12,0c.2,3.4.28,6.64.28,11.12v11.52Z" fill="#212026"/>
    <path d="M321.46,82.28h3.48v24h11.52v2.92h-15Z" fill="#212026"/>
    <path d="M361.82,95.48c0,9.28-5.64,14.2-12.52,14.2-7.12,0-12.12-5.52-12.12-13.68,0-8.56,5.32-14.16,12.52-14.16C357.06,81.84,361.82,87.48,361.82,95.48Zm-20.92.44c0,5.76,3.12,10.92,8.6,10.92s8.64-5.08,8.64-11.2c0-5.36-2.8-11-8.6-11S340.9,90,340.9,95.92Z" fill="#212026"/>
    <path d="M385.18,108.36a17.27,17.27,0,0,1-7.12,1.28c-7.6,0-13.32-4.8-13.32-13.64,0-8.44,5.72-14.16,14.08-14.16a14.45,14.45,0,0,1,6.4,1.2l-.84,2.84a12.68,12.68,0,0,0-5.44-1.12c-6.32,0-10.52,4-10.52,11.12,0,6.6,3.8,10.84,10.36,10.84a13.93,13.93,0,0,0,5.68-1.12Z" fill="#212026"/>
    <path d="M389.54,82.28H393v13h.12c.72-1,1.44-2,2.12-2.88l8.24-10.12h4.32l-9.76,11.44,10.52,15.52h-4.12L395.58,96,393,99v10.28h-3.48Z" fill="#212026"/>
    <path d="M425.18,96.6H414.7v9.72h11.68v2.92H411.22v-27h14.56V85.2H414.7v8.52h10.48Z" fill="#212026"/>
    <path d="M225.67,133.16h-7.88l.57-2.88h19.09l-.56,2.88H229l-4.57,24.08H221.1Z" fill="#212026"/>
    <path d="M238.54,137.89l.68,10.88a51.06,51.06,0,0,1,.1,5.2h.09a48.59,48.59,0,0,1,2.12-4.85l5.75-11.23h2.89l1.23,11c.19,2.13.32,3.78.3,5.06h.1c.51-1.55,1-3.05,1.83-4.9l5.22-11.18h3.38l-9.56,19.35h-3.08l-1.28-10.51a43.32,43.32,0,0,1-.28-5.15h-.09c-.81,1.86-1.36,3.33-2.24,5l-5.55,10.61h-3.1l-1.78-19.35Z" fill="#212026"/>
    <path d="M280.48,145.5c0,6-4.24,12.18-10.75,12.18-4.84,0-7.55-3.59-7.55-8,0-6.39,4.44-12.27,10.73-12.27C278.13,137.46,280.48,141.4,280.48,145.5Zm-14.87,4.1c0,3.15,1.74,5.45,4.58,5.45,3.9,0,6.87-5.06,6.87-9.56,0-2.26-1.05-5.41-4.51-5.41C268.37,140.08,265.6,145.17,265.61,149.6Z" fill="#212026"/>
    <path d="M299.42,133.16h-7.87l.57-2.88h19.09l-.56,2.88h-7.92l-4.56,24.08h-3.31Z" fill="#212026"/>
    <path d="M307,157.24l2.36-12.46c.48-2.52.77-5.09,1-6.89h2.93c-.16,1.35-.32,2.7-.54,4.21h.11c1.27-2.65,3.34-4.64,5.93-4.64a5.65,5.65,0,0,1,1,.07l-.65,3.27a4.37,4.37,0,0,0-.9-.07c-2.87,0-5.43,3.48-6.26,8l-1.6,8.54Z" fill="#212026"/>
    <path d="M333.43,156.13a13.64,13.64,0,0,1-6.4,1.53c-5.14,0-7.36-3.51-7.36-7.79,0-5.82,4.33-12.41,10.56-12.41,3.68,0,5.67,2.19,5.68,5,0,5.08-5.73,6.41-12.88,6.28a8.15,8.15,0,0,0,.39,3.68,4.39,4.39,0,0,0,4.31,2.6,10.66,10.66,0,0,0,5.21-1.33ZM329.76,140c-3.16,0-5.54,3.08-6.35,6.11,5.21.06,9.29-.64,9.29-3.65C332.7,140.91,331.49,140,329.76,140Z" fill="#212026"/>
    <path d="M350.42,157.24a46.45,46.45,0,0,1,.43-5h-.08c-2.09,4-4.76,5.44-7.49,5.44-3.43,0-5.56-2.73-5.56-6.39,0-6.74,4.95-13.83,13.37-13.83a19,19,0,0,1,5.22.73l-2,10.08a43.42,43.42,0,0,0-.81,9Zm2.15-16.87a7.62,7.62,0,0,0-2.3-.27c-5,0-9.09,5.2-9.11,10.59,0,2.16.74,4.26,3.3,4.26,2.78,0,6-3.6,7-8.74Z" fill="#212026"/>
    <path d="M367.17,132.7l-1,5.19h4.62l-.52,2.6h-4.62l-1.78,9.4a16.23,16.23,0,0,0-.39,3.09,1.65,1.65,0,0,0,1.83,1.88,6.6,6.6,0,0,0,1.57-.16l-.16,2.61a8,8,0,0,1-2.57.35c-2.92,0-4.07-1.77-4.07-3.75a17.36,17.36,0,0,1,.43-3.63l1.88-9.79h-2.76l.5-2.6h2.78l.81-4.35Z" fill="#212026"/>
    <path d="M371,157.24l3.69-19.35H378l-3.69,19.35Zm4.3-24.75a2.21,2.21,0,0,1,2.19-2.24,1.93,1.93,0,0,1,2,2.08,2.19,2.19,0,0,1-2.25,2.23A1.89,1.89,0,0,1,375.34,132.49Z" fill="#212026"/>
    <path d="M380.36,153.88a8.87,8.87,0,0,0,4.16,1.2c2.23,0,3.68-1.44,3.68-3.16,0-1.51-.68-2.45-2.69-3.57-2.24-1.23-3.5-2.94-3.5-4.93,0-3.37,2.94-6,7-6a7.8,7.8,0,0,1,4,1l-.93,2.5a6.88,6.88,0,0,0-3.34-.88c-2,0-3.44,1.26-3.44,2.9,0,1.43.92,2.29,2.65,3.26,2.16,1.22,3.62,2.91,3.62,5.08,0,4.07-3.31,6.38-7.39,6.38a8.6,8.6,0,0,1-4.81-1.33Z" fill="#212026"/>
    <path d="M409.06,156.13a13.63,13.63,0,0,1-6.39,1.53c-5.14,0-7.36-3.51-7.36-7.79,0-5.82,4.33-12.41,10.55-12.41,3.68,0,5.68,2.19,5.68,5,0,5.08-5.72,6.41-12.87,6.28a8,8,0,0,0,.39,3.68,4.37,4.37,0,0,0,4.3,2.6,10.7,10.7,0,0,0,5.22-1.33ZM405.4,140c-3.16,0-5.55,3.08-6.36,6.11,5.22.06,9.3-.64,9.3-3.65C408.34,140.91,407.12,140,405.4,140Z" fill="#212026"/>
    <path d="M413.4,153.88a8.87,8.87,0,0,0,4.16,1.2c2.23,0,3.68-1.44,3.68-3.16,0-1.51-.68-2.45-2.69-3.57-2.24-1.23-3.5-2.94-3.5-4.93,0-3.37,2.93-6,7-6a7.83,7.83,0,0,1,4,1l-.93,2.5a6.88,6.88,0,0,0-3.34-.88c-2,0-3.45,1.26-3.45,2.9,0,1.43.93,2.29,2.66,3.26,2.16,1.22,3.61,2.91,3.61,5.08,0,4.07-3.3,6.38-7.38,6.38a8.57,8.57,0,0,1-4.81-1.33Z" fill="#212026"/>
    <path d="M454,145.5c0,6-4.24,12.18-10.74,12.18-4.84,0-7.55-3.59-7.55-8,0-6.39,4.43-12.27,10.72-12.27C451.64,137.46,454,141.4,454,145.5Zm-14.87,4.1c0,3.15,1.75,5.45,4.59,5.45,3.9,0,6.86-5.06,6.86-9.56,0-2.26-1-5.41-4.51-5.41C441.88,140.08,439.12,145.17,439.12,149.6Z" fill="#212026"/>
    <path d="M456.77,157.24l3.17-16.74h-2.57l.5-2.61h2.58l.19-1a11.74,11.74,0,0,1,3.17-6.75,7,7,0,0,1,4.59-1.71,5.6,5.6,0,0,1,2.66.52l-.73,2.65a4.63,4.63,0,0,0-1.94-.37c-2.63,0-3.92,2.57-4.48,5.77l-.17.92h4.31l-.51,2.61h-4.3l-3.18,16.74Z" fill="#212026"/>
    <path d="M494.86,156.08a21.71,21.71,0,0,1-7.6,1.43c-3.8,0-6.77-1.08-8.81-3.36a11.59,11.59,0,0,1-2.72-7.87A15.81,15.81,0,0,1,492.08,130a13.86,13.86,0,0,1,6.37,1.24l-1.09,2.8a12.29,12.29,0,0,0-5.67-1.17,12.16,12.16,0,0,0-8.35,3.27,14,14,0,0,0-4,9.87c0,5.2,2.62,8.65,8.6,8.65a10.71,10.71,0,0,0,4.1-.76l1.52-8h-5.45l.52-2.72h8.71Z" fill="#212026"/>
    <path d="M518.51,145.5c0,6-4.24,12.18-10.74,12.18-4.85,0-7.56-3.59-7.56-8,0-6.39,4.44-12.27,10.73-12.27C516.16,137.46,518.51,141.4,518.51,145.5Zm-14.87,4.1c0,3.15,1.75,5.45,4.58,5.45,3.9,0,6.87-5.06,6.87-9.56,0-2.26-1-5.41-4.51-5.41C506.4,140.08,503.64,145.17,503.64,149.6Z" fill="#212026"/>
    <path d="M524.86,137.89l1.66,11c.29,2.2.54,3.69.62,4.75h.11c.43-1,.94-2.3,2.06-4.51l5.91-11.26h3.63l-10.76,19.35h-3.27l-3.34-19.35Z" fill="#212026"/>
    <path d="M552.38,156.13a13.63,13.63,0,0,1-6.39,1.53c-5.14,0-7.36-3.51-7.36-7.79,0-5.82,4.32-12.41,10.55-12.41,3.68,0,5.68,2.19,5.68,5,0,5.08-5.72,6.41-12.87,6.28a7.88,7.88,0,0,0,.39,3.68,4.37,4.37,0,0,0,4.3,2.6,10.63,10.63,0,0,0,5.21-1.33ZM548.71,140c-3.16,0-5.54,3.08-6.35,6.11,5.21.06,9.29-.64,9.29-3.65C551.65,140.91,550.44,140,548.71,140Z" fill="#212026"/>
    <path d="M556.55,157.24l2.36-12.46c.48-2.52.77-5.09,1-6.89h2.92c-.16,1.35-.32,2.7-.54,4.21h.12c1.26-2.65,3.33-4.64,5.92-4.64a5.65,5.65,0,0,1,.95.07l-.64,3.27a4.47,4.47,0,0,0-.91-.07c-2.86,0-5.42,3.48-6.26,8l-1.6,8.54Z" fill="#212026"/>
    <path d="M569.23,157.24l2.59-13.72c.43-2.15.69-4,.91-5.63h3l-.5,3.8h.08a8.51,8.51,0,0,1,7.18-4.23c2.29,0,4.89,1.32,4.89,5.37A19.46,19.46,0,0,1,587,146l-2.15,11.29h-3.31l2.12-11.18a15.07,15.07,0,0,0,.26-2.47c0-1.94-.75-3.37-3-3.37s-5.74,2.83-6.62,7.61l-1.74,9.41Z" fill="#212026"/>
    <path d="M590.59,157.24l2.57-13.72c.42-2.15.68-4,.89-5.63H597l-.51,3.63h.09c1.81-2.69,4.24-4.06,6.81-4.06a4.19,4.19,0,0,1,4.52,4.31,8.31,8.31,0,0,1,7.11-4.31c2.24,0,4.7,1.42,4.7,5.07a21.55,21.55,0,0,1-.32,3.29l-2.16,11.42H614l2.09-11.15a14.73,14.73,0,0,0,.28-2.52c0-2-.78-3.36-2.92-3.36-2.42,0-5.28,2.78-6.07,7.11l-1.85,9.92h-3.23l2.16-11.36a12.7,12.7,0,0,0,.26-2.36c0-1.63-.45-3.31-2.9-3.31s-5.44,3.2-6.18,7.3l-1.79,9.73Z" fill="#212026"/>
    <path d="M636.86,156.13a13.63,13.63,0,0,1-6.39,1.53c-5.14,0-7.36-3.51-7.36-7.79,0-5.82,4.32-12.41,10.55-12.41,3.68,0,5.68,2.19,5.68,5,0,5.08-5.72,6.41-12.87,6.28a7.88,7.88,0,0,0,.39,3.68,4.37,4.37,0,0,0,4.3,2.6,10.63,10.63,0,0,0,5.21-1.33ZM633.19,140c-3.16,0-5.54,3.08-6.35,6.11,5.21.06,9.29-.64,9.29-3.65C636.13,140.91,634.92,140,633.19,140Z" fill="#212026"/>
    <path d="M641,157.24l2.59-13.72c.43-2.15.69-4,.91-5.63h3l-.5,3.8h.08a8.51,8.51,0,0,1,7.17-4.23c2.3,0,4.9,1.32,4.9,5.37a19.46,19.46,0,0,1-.35,3.12l-2.15,11.29h-3.31l2.12-11.18a15.07,15.07,0,0,0,.26-2.47c0-1.94-.75-3.37-3-3.37s-5.74,2.83-6.62,7.61l-1.74,9.41Z" fill="#212026"/>
    <path d="M671.05,132.7l-1,5.19h4.63l-.52,2.6h-4.63l-1.78,9.4a16.19,16.19,0,0,0-.38,3.09,1.65,1.65,0,0,0,1.83,1.88,6.51,6.51,0,0,0,1.56-.16l-.16,2.61a8,8,0,0,1-2.56.35c-2.93,0-4.07-1.77-4.07-3.75a18,18,0,0,1,.42-3.63l1.89-9.79h-2.77l.5-2.6h2.78l.81-4.35Z" fill="#212026"/>
  </g>
  <g clip-path="url(#clip-path-3)">
    <g>
      <circle cx="1224.38" cy="143.32" r="15.83" fill="#fff"/>
      <path d="M1210.84,135.12c.69-1.66,11-15.06,13.08-16.66s5.75-3.76,7.79-3.89a17.07,17.07,0,0,1,6.81,1c2.92.92,7,3.93,8.23,5.88s2.61,5.66,2.61,7.39-1.28,5.43-1.51,6.3,1.29.16,1.51.86-1.24,1.05.33,1.11,2.5-1,4.89,0,15.84,7.16,17,6.9.75-.76,2.47-.45a5.06,5.06,0,0,1,2.92,1.29c.54.48-1.15.4,2.84,1.32s9.29,1.95,11.14,2.35,41.27,9.32,43.53,10c5.24,1.46,4,11,0,12.82-1.32.61-15.9-1.83-17.66-2.93s-38.34-14-40-14.66-3.3,1.62-4.62.66-1.17-1.46-2.78-2.49-12.24-1.17-14.74-1.91-4.69-2.49-6.23-3.37-2.27,1-3.66-.36-2.13-.66-2.93,1.1-5.14,6-5.14,6Z" fill="#fff"/>
    </g>
    <path d="M1278.21,160.16c-1.59,2.45-2.9,5.07-4.28,7.63-1.92,3.59-3.78,7.21-5.61,10.85q-5.73,11.38-11,23c-.69,1.5-1.33,3-2,4.55a2.93,2.93,0,0,1-1.07,1.36c-.21.13-.43.28-.67.14s-.15-.49-.07-.73a54.9,54.9,0,0,1,2.25-5.23q3.7-8.44,7.78-16.72c.59-1.2.51-1.34-.86-1.48a12.5,12.5,0,0,0-3.7.31c-.29.05-.7.22-.83-.15s.33-.42.55-.61c1-.88,2.43-.85,3.68-1.44a18.24,18.24,0,0,1-2.26-1.91c-.13-.18-.43-.33-.24-.6s.44-.06.66,0c.92.3,1.82.65,2.76.87.5.11.84.21.83-.79,0-3.09-1.34-5.72-2.51-8.43-.11-.26-.38-.59,0-.82s.54,0,.74.24a13.06,13.06,0,0,1,1.86,1.93c.18.28.35.66.77.58s.45-.47.53-.81a71.7,71.7,0,0,1,5.45-15.5,104.22,104.22,0,0,1,9.21-15.7c1.82-2.56,3.49-5.24,5.44-7.68a175.49,175.49,0,0,1,16.74-18.89,49.43,49.43,0,0,1,7-5.8c2.3-1.47,4.22-1.19,6,.84a9.41,9.41,0,0,1,2.17,7.6c-.47,5.16-2.81,9.54-5.73,13.67a42.12,42.12,0,0,1-3.15,4.47c-1.44,1.55-2.86,3.21-4.91,4-.15.06-.34.12-.36.41a5.34,5.34,0,0,0,2.33-.64c.29-.1.56-.37.85-.09s.08.52,0,.77a23.56,23.56,0,0,1-4.74,7.71,7.21,7.21,0,0,1-2.78,1.88c.61.14,1.09-.2,1.62-.35.28-.08.6-.36.83,0s0,.54-.22.75a14.32,14.32,0,0,1-5.2,4.48.69.69,0,0,0-.37.41l1.17-.21c.26,0,.57-.22.78,0s0,.6-.1.87c-.84,1.63-1.65,3.27-2.54,4.87a38.69,38.69,0,0,1-7.27,9.63,22.87,22.87,0,0,1-11.32,5.7,3.47,3.47,0,0,0-.87.26,11.3,11.3,0,0,0,7.92-.81c.56-.26,1.08-.62,1.62-.91.28-.16.57-.57.9-.19s-.13.55-.3.78a14.85,14.85,0,0,1-7.27,5.58,5.69,5.69,0,0,0-.56.26s0,.06-.05.14a4,4,0,0,0,2.84-.47c.25-.09.5-.37.73-.07s-.06.52-.22.73a10.32,10.32,0,0,1-6.61,3.72,19.61,19.61,0,0,1-6.62,0,9.71,9.71,0,0,1,1.07,2.72c0,.36.21.87-.19,1s-.47-.41-.63-.69a5.76,5.76,0,0,0-1.25-1.76,1.18,1.18,0,0,1-.25-1.65c2.36-5,4.85-9.84,7.37-14.72,1.32-2.54,2.67-5.05,4-7.56a8.09,8.09,0,0,0,.4-1c1.6-2.73,3.19-5.47,4.8-8.2a1.52,1.52,0,0,0,.12-1,1,1,0,0,0,.79-.59c.81-1.5,1.85-2.87,2.55-4.44.22-.3.48-.59.67-.91.81-1.31,1.6-2.63,2.4-3.95a14.44,14.44,0,0,0,2-3.27c.23-.3.48-.59.69-.9,1.93-2.86,3.86-5.71,5.92-8.48.85-1.15,1.68-2.31,2.63-3.62a1.93,1.93,0,0,0-.37.16c-2.88,3.62-5.6,7.34-8.21,11.16a2.35,2.35,0,0,0-.65,1.7c-.41-.17-.54.17-.7.42q-2.16,3.3-4.3,6.62a1,1,0,0,0-.19.86,13.86,13.86,0,0,0-3.17,5.25c-.61.24-.77.85-1.07,1.34-.53.86-1.05,1.75-1.54,2.64A42.06,42.06,0,0,0,1278.21,160.16Z" fill="#fff"/>
  </g>
</svg>
