<svg id="b762c42b-3ef6-40c3-888b-7aa4135b1d35" data-name="Layer 1" xmlns="http://www.w3.org/2000/svg" xmlns:xlink="http://www.w3.org/1999/xlink" width="1344.293" height="194.648" viewBox="0 0 1344.293 194.648">
  <defs>
    <clipPath id="be9dbd69-a037-42a2-bad7-32ce06ebb689">
      <rect x="12.911" y="45.948" width="151.06" height="126.577" transform="translate(176.881 218.472) rotate(-180)" style="fill: none"/>
    </clipPath>
    <clipPath id="eef282ed-5d90-4f02-9984-9bec2efa8d0d">
      <rect x="1147.666" y="104.462" width="180.626" height="90.186" style="fill: none"/>
    </clipPath>
  </defs>
  <title>banner-4a</title>
  <g style="clip-path: url(#be9dbd69-a037-42a2-bad7-32ce06ebb689)">
    <g>
      <path d="M140.007,151.742c5.119,3.329,5.617,3.773,8.613,7.436s2.442,3.773,5.549,5.882,3.774,3,6.1,3.662,2.047.666,3,2.762c.927,2.045,1.665,1.9-.555,2.9a21.661,21.661,0,0,1-5.882,2c-2.442.444-27.635,10.322-30.631,10.655s2.552.555-8.1,2.108a131.443,131.443,0,0,1-25.859,1.443c-7.1-.333-9.989-.888-16.981-.888s-11.726.333-16.185.333-6.344,1.155-7.454.689c0,0-30.726,2.083-40.1,1.562s-23.609.694-27.776-1.736,29.166-7.153,29.166-18.021c0-2.256,4.855-8.784,9.182-15.8,2.692-4.366,18.823-15.48,18.823-15.48l6.718-3.688S69.271,130.135,78.877,130c5.023-.071,15.413-14.878,25.253-19.286,8.168-3.66,18.494,34.176,18.494,34.176Z" style="fill: #e4ab8d"/>
      <path d="M119.052,60.1c0-.545-2.47-3.409-5.333-5.071s-3.972-3.325-10.714-5.45S92.66,46.441,82.13,48.2a32.67,32.67,0,0,0-17.272,9.236L57.838,65.1,55.529,77.383,52.666,94.747l.462,8.868-1.571,7.851,1.2,8.682L49.9,123.565s-4.41,6.745-4.514,14.6,22.063,8.958,22.063,8.958l34.186-11.1,8.671-27.965,13.67-13.855-1.108-28.54Z" style="fill: #e1bb94"/>
      <path d="M70.517,52.937c-.361,1.353-1.715,2.526-4.152,5.505s-5.5,5.234-6.227,7.49.361,2.617-.722,5.5-1.353,3.158-1.624,5.595a82.311,82.311,0,0,1-2.8,11.732c-.812,2.166.181,3.068,0,5.685s.542,5.685,0,8.122-1.714,4.512-1.9,5.866,2.076,6.137,2.076,7.851,1.444,2.166-.722,4.332-2.4,3.053-2.4,3.053-1.17,1.615-4.364,1.82l.516-1.926c.8-3,1.672-3.735,1.887-7.041s-.418-1.772.124-5.382,1.985-6.768,1.624-7.58-1.715-1.173-2.527-1.444-1.173-.451-1.083-2.347-.993-2.075.632-4.421,1.985-.722,2.527-3.7,1.624-3.339.361-4.421-2.058.818-1.48-1.892,1.389-3.343,1.66-4.245,1.715-1.625.812-1.9-1.895,1.173-2.346,0,1.354-2.8,2.256-4.783.812-.271,1.625-2.888,3.248-2.617.812-2.617S50.954,70,52.3,67.6s1.975-1.309,3.328-3.656,2.025-1.714,3.449-3.429A11.69,11.69,0,0,1,61.4,58.081c1.263-1.083.722-.181,2.888-1.715s3.067-2.256,4.015-2.978A2.987,2.987,0,0,1,70.517,52.937Z" style="fill: #e9d3c8"/>
      <path d="M127.1,103.387c-.673,2.075-.173,3.737-1.374,5.4a12.949,12.949,0,0,1-2.771,3.325c-1.755,1.57-1.662,1.663-3.048,2.771s-1.385.647-2.494,2.494-1.293,2.586-1.939,3.6-1.755,1.755-4.8,1.386a14.427,14.427,0,0,1-4.988-1.478l9.052-29.926,11.361-.555,2.288,8.19Z" style="fill: #e1bb94"/>
      <path d="M70.517,90.67c1.443.737,2.14,2.517.591,1.821s-3.329-.931-4.8-1.821-2.869-2.169-4.645-1.818-2.478.386-4.026.7-3.407-.309-1.317-1.238a17.7,17.7,0,0,1,6.272-1.317,26,26,0,0,1,5.187,1.936A12.323,12.323,0,0,1,70.517,90.67Z" style="fill: #e9d3c8"/>
      <path d="M97.665,92.6c2.246,1.084,4.723,1.548,4.955,2.71s-1.238,1.084-2.477.387a17.515,17.515,0,0,0-8.594-1.936c-4.259.078-4.838.181-5.94-.142-.581-.17-5.752-2.1-.933-2.1,1.917,0,4.395-.077,6.408,0A56.1,56.1,0,0,1,97.665,92.6Z" style="fill: #e9d3c8"/>
      <path d="M86.084,101.187c.974-1.961,1.346-2.282,4.443-2.05s5.157-.147,6.4,1.724.882,1.3,1.115,2.225.464,1.316-1.162,1.7-5.342.774-6.968.31-3.3-.744-3.864-1.934A2.921,2.921,0,0,1,86.084,101.187Z" style="fill: #fae1d7"/>
      <path d="M69.212,99.9c0-1.72-1.179-2.866-2.843-3.7a10.341,10.341,0,0,0-5.2-1.19c-1.55.255-3.551-.331-3.551,1.978s.222,3.863,3,4.418a12.071,12.071,0,0,0,4.939.282C67.214,101.522,69.212,101.393,69.212,99.9Z" style="fill: #fae1d7"/>
      <path d="M115.474,121.887a20.926,20.926,0,0,1,1.56,5.106c.844,3.662,1.288,5.327,2.731,6.992s4,3.329,7.324,6.659a71.354,71.354,0,0,0,7.555,6.474c2.434,1.96,6.429,2.182,5.1,6.511s-10.019,20.088-12,24.083-6.2,6.548-6.644,8.546-.632,1.293-.632,1.293-18.684-14.877-26.062-15.8-4.27-7.581-4.27-7.581l15.551-19.533s4.528-2.716,4.921-5.013,4.115-9.193,4.14-10.969-.7-4.692-.669-6.508.311-4.368.669-4.479S115.474,121.887,115.474,121.887Z" style="fill: #daac3d"/>
      <path d="M116.1,144.2c3.441.222,3.663-.555,5.216,0s-.777,2.3-.777,2.923.222,1.405.777,1.627-1.11-.111-1.442.555,2.067-1.221,1.976,2.442a41.273,41.273,0,0,0,0,5.605c.129.943,1.218,3.717,2.116-.722s1.232-5.216,1.9-5.438a2.885,2.885,0,0,1,2.515.344c.481.544-1.147,2.431,0,2.209s2.257-.919,2.923-1.07,5.438-2.26,2.663-.484-3.218,1-4.883,2.885-2.442,2.007-3.662,4-.687,3.547-1.454,3.658-1.654.333-2.875-1.221-.111-1.886-2-3.551-4.44-3.219-3.441,1.11,1.863,6.548,1.376,7.547.955,1-.488,1-5.438-2.775-5.438-2.775h-1.665s-3.662-.333,2.22,2.109,5.525,3.218,5.371,3.773a2.724,2.724,0,0,0,0,1.665c.178,1-.488.777.511,1.665s1.443.776,1.443.776-.222-4.55-.222-5.216.111-.777,1.11-1.11,1.886.222,2.33-.887,1.332-1.443,1.11-2.109,1.442-1.112-.222-.666,0-1-1.664.446-1,1.441-1.665,1.441.221.666-.666-1.776a17.944,17.944,0,0,1-1-3.441,5.01,5.01,0,0,0-1.066-2.1s2.509,1.1,3.174,2.208-.7.333,1.365,1.776,3.3,1.221,3.3,1.221l1.54-.413c.518-.139,2.9.191.346,1.856a25.774,25.774,0,0,0-4.661,3.662c-1,1-1.776,1.11-1.887,1.887a10.157,10.157,0,0,0-.111,1.776c0,.666.222.341,0,1.447s.222,1.913-.221,2.175.121.768-.661,1.07-1.25,2.253-2.181-.165-1.094-3.529-2.29-4.305-.2.222-2.859-1.776-1.7-2-3.569-3-2.508-1.11-2.633-1.886-1.123.444-.124-.777,2-2.22,2-2.22-.111-.666,1.443-1a17.066,17.066,0,0,0,2.664-.777c.666-.222,1.11,2.3,1-.626s-1.554-2.481,0-3.7,2.441-1.11,2.663-2.22,2.775,1.554,3.552-.222,2.108-1.886.333-4.217-2.22-2.109-3-3.219-1.938-2.774-1.469-3.44A1.208,1.208,0,0,1,116.1,144.2Z" style="fill: #ba7731"/>
      <path d="M119.052,60.1c2.952,2.8,5.5,5.526,6.538,7.3s3.985,10.923,5.757,13.58,3.628,3.883,3.247,5.314.443,3.837-1.624,5.461-3.326,1.455-2.7,3.975.482,4.143.039,4.734.7.875-.757,1.766-2.144.016-3.129,1.339,1.82-2.515-1.28-6.353-5.166-3.1-7.528-1.033a11.038,11.038,0,0,0-3.542,6.052c0,.886.59,1.624,0,4.133s-.148,2.362-1.033,4.428.3,1.771-1.624,3.543-2.509,1.771-2.657,3.1-1.919,1.476-.885,3.543,2.509,1.476,1.918,3.395-1.481,1.849-1.035,3.581-.862,1.579.445,4.094,1.307,5.9,1.307,7.085,1.5,1.771,1.35,3.543-1.329,3.69-1.771,5.166-.3,1.623-.3,3.542,1.181,2.805-.147,4.133-1.825,1.033-2.093,3.1.174,2.8-1.6,4.28,0,1.181-1.772,3.1-4.28,2.509-7.38,4.133-8.595,7.654-13.875,6.79a81.079,81.079,0,0,1-9.367-1.96c-2.05-.549-1.369-2.318-3.917-2.025a87.319,87.319,0,0,1-8.856,1.033c-2.657,0-2.362,1.033-5.757-.443s-9-3.1-11.07-5.757-2.952-2.952-2.952-6.642-.3-6.052.147-8.561-.295-3.1.886-5.756,1.624-1.476,1.624-3.543,2.8-7.675,4.723-10.48,5.461-4.871,7.233-5.756-1.329-2.362,2.214-3.395a26.428,26.428,0,0,1,7.527-1.034,6.87,6.87,0,0,1,2.495.392c1.35.362,2.967,1.527,4.886.346s1.328-1.18,2.952-1.18,2.214-1.034,4.428,0,2.8,1.623,3.985,2.214,1.624-.591,2.509,1.919a16.757,16.757,0,0,0,3.1,5.166c.443.443,2.067,4.28,4.133,4.133s1.919-.443,2.214-3.69-.3-4.668.881-5.434,2.071.12,3.4-2.094.192-2.922,1.72-3.675,1.97-.015,2.413-1.344a7.485,7.485,0,0,1,1.18-2.214s-.1.393.864-3.224,2.236-2.68,1.941-6.961-2.066-4.575.3-6.2,3.287-.828,2.362-2.952a12.623,12.623,0,0,1-1.476-5.314c-.148-2.362.443-2.066-.443-4.428s-3.985-1.624-.886-3.69,2.751-.763,3.4-3.178-.489-1.41,1.009-3.765,2.974-1.471,3.712-4.57-.3-2.362.738-4.724,4.262-.23,1.919-3.985A3.525,3.525,0,0,1,119.052,60.1Z" style="fill: #f0e1cc"/>
      <path d="M86.284,141.779c-3.1-3.1-4.181-3.639-6.814-6.272s-3.793-4.181-5.187-4.413-4.259-.619-6.659-1.006-3.639.541-5.11,2.167a20.469,20.469,0,0,1-4.49,3.562c-.852.465-2.555,1.548.309,1.084s2.246-.7,3.794-.542a16.265,16.265,0,0,1,3.871.774c1.859.542.62,1.084,3.1,1.394s2.406-1.316,3.991-.31,1.429,1.471,2.978,1.7,1.393-.541,3.484.233a30.1,30.1,0,0,0,4.333,1.626c2.558.7,3.8,1.858,3.1.929Z" style="fill: #e1bb94"/>
      <path d="M76.41,136.527c-2.514-1.168-4.393-2.828-7.248-2.706s-6.492-.024-7.322-.415a1.67,1.67,0,0,1-.3-.184c.341-.312.67-.635.969-.967,1.471-1.625,2.71-2.555,5.11-2.167s5.265.774,6.659,1.006,2.555,1.781,5.187,4.413c.508.508.957.937,1.375,1.322C80.078,137.4,78.435,137.468,76.41,136.527Z" style="fill: #72382c"/>
      <path d="M59.778,134.664c.688-.5,2.212-1.918,2.9-2.582,3.509-.041,11.048,1.962,12.75,2.3s4.045,1.464,4.941,2.864c.6.93.976,2.57.4,3.075a1.383,1.383,0,0,1-.323.179c-.245-.1-.53-.217-.89-.35-2.091-.775-1.936,0-3.484-.233s-1.394-.7-2.978-1.7-1.513.619-3.991.31-1.238-.852-3.1-1.394a16.265,16.265,0,0,0-3.871-.774,3.711,3.711,0,0,0-1.849.152A8.292,8.292,0,0,1,59.778,134.664Z" style="fill: #844234"/>
      <path d="M90.527,99.137c1,.075,1.884.087,2.673.13a4.741,4.741,0,0,1,.5,2.133,4.247,4.247,0,0,1-2.254,3.9,6.853,6.853,0,0,1-1.538-.2c-.791-.226-1.59-.41-2.27-.674a4.561,4.561,0,0,1-1.1-3.025,4.846,4.846,0,0,1,.2-1.367C87.4,99.1,88.183,98.961,90.527,99.137Z" style="fill: #503338"/>
      <path d="M60.61,101.411a5.17,5.17,0,0,1-1.4-.47,4.726,4.726,0,0,1-.038-5.773c.625-.085,1.349-.046,2-.153a8.338,8.338,0,0,1,3.481.5,4.667,4.667,0,0,1,.72,2.518,4.3,4.3,0,0,1-2.036,3.786A19.4,19.4,0,0,1,60.61,101.411Z" style="fill: #503338"/>
      <path d="M73.086,101.693c-.282,1.8-1.182,3.457-1.531,5.133a10.939,10.939,0,0,0-.41,2.543,3.525,3.525,0,0,1-.792,2.128c-.135.173-.262.337-.382.513-.24.342-.467.746-.771,1.134a9.634,9.634,0,0,1-.963,1.043,11.237,11.237,0,0,0-1.745,1.913,7.006,7.006,0,0,0-1.121,2.212,1.483,1.483,0,0,0,.024.963c.026.06.078.1.106.153l.238.244c.16.167.319.338.473.516a16.712,16.712,0,0,0,1.673,2.009A4.555,4.555,0,0,0,70,123.285a4.438,4.438,0,0,0,2.326-.49l1.228-.531c.211-.09.423-.181.663-.261s.439-.117.659-.177l2.62-.678.655-.17a2.282,2.282,0,0,1,.439-.085,2.1,2.1,0,0,1,.448.042,2.593,2.593,0,0,0,1.063.116c.2-.012.42-.273.595-.675a5.321,5.321,0,0,0,.394-1.208,3.019,3.019,0,0,0-.459-2.475,3.111,3.111,0,0,1,.985,2.526,5.95,5.95,0,0,1-.193,1.409,1.857,1.857,0,0,1-.987,1.378,2.833,2.833,0,0,1-1.585-.077,1.2,1.2,0,0,0-.219-.026c-.026.009.009-.006-.056.01l-.161.041-.647.168-2.589.669c-.212.057-.439.108-.639.17s-.387.147-.588.232l-1.241.537a10.507,10.507,0,0,1-1.337.463,3.615,3.615,0,0,1-1.539.09,5.523,5.523,0,0,1-2.617-1.326,16.653,16.653,0,0,1-1.773-2.109c-.139-.16-.285-.318-.435-.475l-.231-.237a2.322,2.322,0,0,1-.281-.394,2.429,2.429,0,0,1-.111-1.666,7.931,7.931,0,0,1,1.282-2.565,12.272,12.272,0,0,1,1.869-2.056,8.579,8.579,0,0,0,.861-.93c.251-.317.466-.7.739-1.09.133-.2.28-.385.422-.566a2.945,2.945,0,0,0,.309-.476,2.9,2.9,0,0,0,.268-1.116,12,12,0,0,1,.445-2.755C71.316,104.772,72.4,103.364,73.086,101.693Z" style="fill: #e29d7c"/>
    </g>
  </g>
  <polygon points="1209.322 104.462 1167.842 172.476 0 172.476 0 194.648 279.306 194.648 1344.293 194.648 1344.293 104.462 1209.322 104.462" style="fill: #212026"/>
  <g>
    <path d="M217.744,155.1a12.328,12.328,0,0,0,6.239,1.76c3.56,0,5.639-1.88,5.639-4.6,0-2.519-1.44-3.96-5.079-5.359-4.4-1.56-7.118-3.84-7.118-7.639,0-4.2,3.479-7.319,8.717-7.319a12.254,12.254,0,0,1,5.959,1.32l-.959,2.839a10.747,10.747,0,0,0-5.119-1.279c-3.68,0-5.08,2.2-5.08,4.039,0,2.519,1.641,3.76,5.359,5.2,4.56,1.76,6.879,3.96,6.879,7.919,0,4.159-3.079,7.759-9.438,7.759a13.928,13.928,0,0,1-6.879-1.72Z" style="fill: #212026"/>
    <path d="M243.063,135.338h-8.2v-2.959h19.957v2.959h-8.238v24h-3.52Z" style="fill: #212026"/>
    <path d="M254.464,157.255a2.364,2.364,0,0,1,2.4-2.519,2.524,2.524,0,1,1-2.4,2.519Z" style="fill: #212026"/>
    <path d="M276.543,150.856l-2.8,8.478h-3.6l9.158-26.955h4.2l9.2,26.955h-3.72l-2.88-8.478Zm8.838-2.72-2.64-7.759c-.6-1.758-1-3.359-1.4-4.919h-.081c-.4,1.6-.839,3.24-1.359,4.88l-2.64,7.8Z" style="fill: #212026"/>
    <path d="M299.022,132.379v15.957c0,6.039,2.68,8.6,6.279,8.6,4,0,6.559-2.64,6.559-8.6V132.379h3.52V148.1c0,8.279-4.36,11.679-10.2,11.679-5.519,0-9.678-3.16-9.678-11.519V132.379Z" style="fill: #212026"/>
    <path d="M341.939,158.135a25.109,25.109,0,0,1-8.279,1.48c-4.079,0-7.439-1.04-10.078-3.56a13.864,13.864,0,0,1-3.759-10.038c.04-8.039,5.559-13.918,14.6-13.918a16.662,16.662,0,0,1,6.719,1.24l-.839,2.839a14,14,0,0,0-5.959-1.159c-6.56,0-10.839,4.079-10.839,10.838,0,6.839,4.119,10.878,10.4,10.878a11.352,11.352,0,0,0,4.64-.72v-8.038h-5.48v-2.8h8.879Z" style="fill: #212026"/>
    <path d="M350.742,132.379v15.957c0,6.039,2.679,8.6,6.278,8.6,4,0,6.56-2.64,6.56-8.6V132.379H367.1V148.1c0,8.279-4.358,11.679-10.2,11.679-5.518,0-9.678-3.16-9.678-11.519V132.379Z" style="fill: #212026"/>
    <path d="M372.662,155.1a12.324,12.324,0,0,0,6.238,1.76c3.56,0,5.64-1.88,5.64-4.6,0-2.519-1.44-3.96-5.079-5.359-4.4-1.56-7.119-3.84-7.119-7.639,0-4.2,3.479-7.319,8.718-7.319a12.257,12.257,0,0,1,5.959,1.32l-.96,2.839a10.747,10.747,0,0,0-5.119-1.279c-3.68,0-5.079,2.2-5.079,4.039,0,2.519,1.64,3.76,5.359,5.2,4.559,1.76,6.879,3.96,6.879,7.919,0,4.159-3.08,7.759-9.438,7.759a13.925,13.925,0,0,1-6.879-1.72Z" style="fill: #212026"/>
    <path d="M397.981,135.338h-8.2v-2.959h19.957v2.959H401.5v24h-3.52Z" style="fill: #212026"/>
    <path d="M416.22,132.379v26.955h-3.479V132.379Z" style="fill: #212026"/>
    <path d="M422.3,159.334V132.379h3.8l8.639,13.638a76.055,76.055,0,0,1,4.839,8.759l.08-.04c-.319-3.6-.4-6.879-.4-11.078V132.379h3.279v26.955h-3.52l-8.558-13.677a85.357,85.357,0,0,1-5.039-9l-.12.04c.2,3.4.28,6.638.28,11.118v11.517Z" style="fill: #212026"/>
    <path d="M462.578,146.7H452.1v9.718h11.678v2.919H448.621V132.379h14.557V135.3H452.1v8.519h10.478Z" style="fill: #212026"/>
    <path d="M499.816,145.577c0,9.279-5.64,14.2-12.518,14.2-7.119,0-12.118-5.52-12.118-13.678,0-8.558,5.319-14.158,12.518-14.158C495.056,131.939,499.816,137.579,499.816,145.577Zm-20.917.44c0,5.759,3.12,10.918,8.6,10.918,5.519,0,8.638-5.079,8.638-11.2,0-5.36-2.8-10.958-8.6-10.958C481.779,134.779,478.9,140.1,478.9,146.017Z" style="fill: #212026"/>
    <path d="M504.34,132.379h14.517V135.3H507.819v8.959h10.2v2.88h-10.2v12.2H504.34Z" style="fill: #212026"/>
    <path d="M535.779,132.379v11.279h13.037V132.379h3.52v26.955h-3.52V146.7H535.779v12.637H532.3V132.379Z" style="fill: #212026"/>
    <path d="M561.859,132.379v26.955H558.38V132.379Z" style="fill: #212026"/>
    <path d="M567.939,132.7a40.32,40.32,0,0,1,6.679-.52c3.439,0,5.959.8,7.558,2.239a7.251,7.251,0,0,1,2.36,5.64,7.937,7.937,0,0,1-2.079,5.759c-1.84,1.96-4.84,2.96-8.239,2.96a11.964,11.964,0,0,1-2.8-.24v10.8h-3.48Zm3.48,13a11.656,11.656,0,0,0,2.879.28c4.2,0,6.758-2.04,6.758-5.759,0-3.559-2.519-5.279-6.358-5.279a14.586,14.586,0,0,0-3.279.28Z" style="fill: #212026"/>
    <path d="M589.219,132.7a40.32,40.32,0,0,1,6.679-.52c3.44,0,5.959.8,7.559,2.239a7.254,7.254,0,0,1,2.359,5.64,7.937,7.937,0,0,1-2.079,5.759c-1.84,1.96-4.84,2.96-8.239,2.96a11.974,11.974,0,0,1-2.8-.24v10.8h-3.48Zm3.48,13a11.667,11.667,0,0,0,2.879.28c4.2,0,6.759-2.04,6.759-5.759,0-3.559-2.52-5.279-6.359-5.279a14.6,14.6,0,0,0-3.279.28Z" style="fill: #212026"/>
    <path d="M633.535,145.577c0,9.279-5.639,14.2-12.518,14.2-7.119,0-12.118-5.52-12.118-13.678,0-8.558,5.319-14.158,12.518-14.158C628.776,131.939,633.535,137.579,633.535,145.577Zm-20.916.44c0,5.759,3.119,10.918,8.6,10.918,5.518,0,8.637-5.079,8.637-11.2,0-5.36-2.8-10.958-8.6-10.958C615.5,134.779,612.619,140.1,612.619,146.017Z" style="fill: #212026"/>
  </g>
  <g style="clip-path: url(#eef282ed-5d90-4f02-9984-9bec2efa8d0d)">
    <g>
      <path d="M1270.111,136.487c-1.988-1.192-3.18-3.048-3.578-.662s2.65,8.481,9.541,7.686,9.409-3.446,10.867-6.626a26.658,26.658,0,0,0,2.385-10.337c0-3.18.265-11-3.313-14.709s-10.6-6.759-16.3-5.963-14.312,2.385-17.757,11.794a61.027,61.027,0,0,0-3.446,21.2V173.78s-6.436-.852-6.787,5.8c-.243,4.594,2.414,5.273,6.655,6.2v8.481h7.554V185.53s6.758-.938,6.228-5.709-5.569-6.121-5.569-6.121V138.078s-.792-25.444,14.58-26.372,15.9,23.324,9.409,25.974S1270.111,136.487,1270.111,136.487Z" style="fill: #fff"/>
      <rect x="1241.335" y="172.931" width="22.225" height="12.74" rx="6.37" style="fill: #fff"/>
    </g>
    <g>
      <path d="M1270.947,227.276c.437-1.167.764-2.176,1.187-3.143a59.363,59.363,0,0,0,4.273-15.688c1.376-9.8,1.521-19.67,1.656-29.54.006-.439,0-.879,0-1.392h27.31c0,3.107-.035,6.162.007,9.215a171.562,171.562,0,0,0,1.8,23.65,59.227,59.227,0,0,0,4.535,15.059c.247.557.391,1.16.615,1.839Z" style="fill: #fff"/>
      <path d="M1270.23,149.181h7.826V155.9h6.767v-6.7h13.616v6.691h6.795v-6.72h7.92v2.066c0,4.9.021,9.806,0,14.709a4.533,4.533,0,0,1-4.813,4.755q-16.2,0-32.4.009c-1.723,0-3.481-.046-4.613-1.582a4.921,4.921,0,0,1-1.082-2.559c-.106-5.639-.072-11.279-.08-16.919A3.686,3.686,0,0,1,1270.23,149.181Z" style="fill: #fff"/>
      <path d="M1291.561,176.331q-8.286,0-16.573,0a2.276,2.276,0,0,1-2.575-2.233c-.018-1.382.941-2.25,2.547-2.252q16.239-.025,32.479-.033c.441,0,.884.027,1.324.064a2.166,2.166,0,0,1,2.142,2.315,2.2,2.2,0,0,1-2.329,2.136Q1300.068,176.34,1291.561,176.331Z" style="fill: #fff"/>
    </g>
  </g>
</svg>
