<svg id="Layer_1" data-name="Layer 1" xmlns="http://www.w3.org/2000/svg" xmlns:xlink="http://www.w3.org/1999/xlink" viewBox="0 0 1344.29 194.65">
  <defs>
    <clipPath id="clip-path">
      <rect x="3.72" y="-181.38" width="168.77" height="141.42" fill="none"/>
    </clipPath>
    <clipPath id="clip-path-2">
      <rect x="1188.58" y="-103.97" width="155.71" height="86.13" fill="none"/>
    </clipPath>
    <clipPath id="clip-path-3">
      <rect x="3" y="38.98" width="160.94" height="134.86" transform="translate(166.94 212.82) rotate(-180)" fill="none"/>
    </clipPath>
    <clipPath id="clip-path-4">
      <rect x="107.23" y="38.98" width="160.94" height="134.86" fill="none"/>
    </clipPath>
  </defs>
  <title>banner-4</title>
  <g clip-path="url(#clip-path)">
    <g>
      <path d="M127.46-61.27c4.39.74,1.51.14,12.65,2.77S150.4-57,154.83-54.7s5.39,2.67,9,5.54,3.77,2.47,6.83,6.11c4,4.7.64,3.39,7.11,6.62s5.7,2.24,12.64,5S215.18-7.61,217-.67s3.95,14,5,14.73-146.26,0-146.26,0H-42.9A173.76,173.76,0,0,0-30.68-4.25a152.24,152.24,0,0,0,8.87-17.5c3.59-7.91,5.86-6.37,12.34-10.93s9.09-1.79,15.13-9.57C11-49.09,19.85-56.6,22.75-57.78,29-60.33,33.37-63,38.38-64.89s16.77-5.77,16.77-5.77Z" fill="#b5afb1"/>
      <path d="M113.77-101.82c.84-3.61.24-2.53,1.08-5s1.48-2.88,3.07-5,1.84-4,3-5a4,4,0,0,1,3.71-1.29c1.32.33,2.75,1,2,3s-2,1.94-2.49,3.92L123-106.65c-.47,1.76-.94,1.38-.58,4.83a27,27,0,0,1,.24,6.93c-.24,3.35-.72,6-.12,8.26s-.51,2.19.24,5,.6,1,1.91,5.55a25.15,25.15,0,0,1,1.32,8.5c0,2.15-1.06-.36.91,4.66s1.13,8,2.32,9.46.12.24,3.36,3.12,6.34,2.39,8.86,6.46,3.71,6.59,3.71,6.59,4.91,8.5,4.91,10.17-1.44,16-1.44,16.4-15,19.52-16.7,19.64S122.75-1.51,120.23-2.58,114.37-5,113.29-7s-2.27-1.68-5.63-10.3S99.52-30,93.3-34.31,78.69-45.21,75-48.2s-7.78-5.63-10.06-7.54a40.32,40.32,0,0,0-5.51-3.71l39.77-45.86Z" fill="#c39a7e"/>
      <path d="M39.31-68.37c-3.11,1.56-4,1.8-5.13,4.92a109.28,109.28,0,0,0-3.26,11.26c-1.44,5.76-4.07,8.87-4.79,12.71S27.81-32,29.24-24.14s0,12.94,1.68,17.26S23.37.55,36.26,4.38s7.81,4.5,14.06,4.53,6-.21,14.26,1.22a87.85,87.85,0,0,0,13.57,1.44s6.94,2.16,18.45-4.31,14.86-8.63,17.26-9.35a23.48,23.48,0,0,1,6.37-.49V-11s-8.57,3.84-15.5,3.84-10,1.91-19.16,4.55-20,9.11-26.16,7.91S42.67,3.42,40.51-1.61s-5.27-11.75-5.27-18-1-9.59-2.16-15.82-3.36-5.51-1.2-11.26a57.3,57.3,0,0,1,6.5-13.19c2.37-3.35,9.23-8.51,5.08-8.51Z" fill="#f0f3a6"/>
    </g>
  </g>
  <g clip-path="url(#clip-path-2)">
    <path d="M1271.36,17.37h-33.13c-.45,0-1.06.22-1.29-.28s.24-.94.54-1.31a11.55,11.55,0,0,1,6-4,63.64,63.64,0,0,1,10-1.73c2.07-.26,4.13-.55,6.19-.83a9.69,9.69,0,0,0,2.62-.8,5.26,5.26,0,0,0,3.25-5.06c.14-3.82.4-7.64.61-11.46.12-2.35.24-4.71.37-7.06.2-3.73.42-7.47.62-11.21.13-2.32.25-4.65.38-7,.21-3.74.42-7.47.62-11.21.13-2.43.25-4.87.38-7.31q.3-5.47.62-11c.13-2.38.25-4.76.38-7.14.2-3.74.41-7.47.62-11.21.06-1,.11-2.1.18-3.16,0-.72-.42-.94-1-1.11l-7-2.08-34.8-10.27c-.11,0-.21-.07-.32-.09-.29-.06-.62-.3-.86,0s0,.58.09.86l9,27,7.81,23.28c.44,1.3.54,1.37,1.89,1.38.64,0,1.28,0,1.92,0s.9.23.48.91a10.92,10.92,0,0,1-3.79,3.55,25.59,25.59,0,0,1-10.7,3.42,56.14,56.14,0,0,1-21-1,21.86,21.86,0,0,1-8.88-4.39,8.45,8.45,0,0,1-1.43-1.5c-.16-.22-.43-.43-.26-.74s.49-.22.76-.22h4.08c1.22,0,1.34-.09,1.73-1.25q3.95-11.83,7.9-23.68c3-8.87,6-17.73,8.9-26.6.16-.49.73-1.07,0-1.57a1.86,1.86,0,0,0-2.41.13,1.87,1.87,0,0,1-1.48.64,1.83,1.83,0,0,1-1.74-1.61,1.82,1.82,0,0,1,1.21-2,1.63,1.63,0,0,1,2.14.76,2.33,2.33,0,0,0,2,1.36L1269-90.26l.32.07c1.17.22,1.31.1,1.33-1.09v-.08a2.39,2.39,0,0,0-1.46-2.93,4.25,4.25,0,0,1-1.75-5.38,4.47,4.47,0,0,1,4.73-2.78,4.59,4.59,0,0,1,3.94,4,4.56,4.56,0,0,1-3.09,4.7c-1.21.4-1.28.51-1.17,1.78.2,2.3.19,2.32,2.35,3q16.24,4.81,32.49,9.59c3.62,1.07,7.24,2.12,10.86,3.22a1.8,1.8,0,0,0,1.83-.26,1.82,1.82,0,0,1,2.77.65,1.9,1.9,0,0,1-.86,2.48,1.74,1.74,0,0,1-2.49-1.07c-.3-1.25-1.21-1.27-2.13-1.41-.49-.07-.68.17-.56.64.06.24.14.48.22.72q7.05,21.07,14.11,42.14c.92,2.74,1.86,5.47,2.79,8.2.42,1.24.5,1.31,1.85,1.31,1.08,0,2.16,0,3.24,0,.37,0,.86-.14,1.05.3s-.2.72-.42,1a13.7,13.7,0,0,1-6.09,4.48,31.29,31.29,0,0,1-9.85,2.29,59,59,0,0,1-17.39-.79A24.43,24.43,0,0,1,1295.21-20a10.17,10.17,0,0,1-2-2.11c-.3-.42-.28-.65.32-.63.86,0,1.72,0,2.58,0,1.43,0,1.51-.06,1.95-1.4q5.1-15.28,10.2-30.56,3.29-9.83,6.59-19.65c.1-.29.19-.58.28-.87a.69.69,0,0,0-.6-1l-.65-.14-40-8-.65-.13c-.67-.16-.94.14-.91.78.06,1.38.13,2.77.21,4.15.14,2.57.3,5.15.44,7.72q.32,5.56.62,11.12c.13,2.33.25,4.65.38,7l.63,11.37c.18,3.46.35,6.92.54,10.38s.41,7.14.61,10.71c.14,2.41.25,4.82.39,7.22q.3,5.57.62,11.13c.12,2.24.31,4.48.35,6.72a5,5,0,0,0,3.34,4.72,20,20,0,0,0,5.93,1.22c3.52.45,7.06.78,10.54,1.52a14.58,14.58,0,0,1,6.51,2.8,9.09,9.09,0,0,1,2.1,2.44c.36.63.22.85-.49.89-.3,0-.61,0-.92,0Zm44.22-40.13c5.08,0,10.15,0,15.23,0,1.26,0,1.37-.17,1-1.37s-.79-2.25-1.17-3.38q-4.52-13.41-9-26.83c-1.87-5.57-3.72-11.15-5.59-16.73-.09-.24-.08-.64-.42-.63s-.27.38-.37.6-.07.21-.1.31q-3.44,10.22-6.87,20.44-4.38,13.1-8.74,26.21c-.42,1.27-.35,1.38,1,1.38C1305.54-22.75,1310.56-22.76,1315.58-22.76ZM1225.72-45.4H1241c1,0,1.16-.14.84-1.11-.64-2-1.34-4-2-6Q1233-73,1226.15-93.45c-.11-.32-.11-.87-.49-.86s-.37.55-.48.88q-7.77,23.19-15.52,46.38c-.11.32-.21.64-.29,1a.49.49,0,0,0,.46.65,8.36,8.36,0,0,0,1,0Z" fill="#fff"/>
  </g>
  <g clip-path="url(#clip-path-3)">
    <g>
      <path d="M138.41,151.7c5.46,3.54,6,4,9.18,7.92s2.6,4,5.91,6.27,4,3.19,6.5,3.9,2.19.71,3.2,2.94,1.77,2-.59,3.09a23.57,23.57,0,0,1-6.27,2.13c-2.6.47-29.44,11-32.64,11.35s2.72.59-8.63,2.25a140,140,0,0,1-27.55,1.53c-7.57-.35-10.64-.94-18.09-.94s-12.49.35-17.24.35-6.76,1.23-7.95.73c0,0-32.73,2.22-42.72,1.67s-25.15.74-29.59-1.85S3,185.42,3,173.84c0-2.4,5.17-9.36,9.78-16.84,2.87-4.65,20.06-16.49,20.06-16.49L40,136.58s23-7.9,33.28-8.05c5.35-.07,16.42-15.85,26.91-20.55,8.7-3.89,19.7,36.42,19.7,36.42Z" fill="#e4ab8d"/>
      <path d="M116.09,54.06c0-.58-2.64-3.63-5.69-5.4S106.17,45.11,99,42.85s-11-3.34-22.24-1.47a34.79,34.79,0,0,0-18.4,9.84l-7.48,8.16L48.41,72.47l-3,18.5.49,9.45-1.67,8.37L45.45,118l-3.05,3.64s-4.69,7.18-4.81,15.55,23.51,9.54,23.51,9.54l36.42-11.83,9.24-29.8,14.57-14.76L120.15,60Z" fill="#e1bb94"/>
      <path d="M64.38,46.43C64,47.87,62.55,49.12,60,52.29s-5.86,5.58-6.63,8,.38,2.79-.77,5.87-1.44,3.36-1.73,6a89,89,0,0,1-3,12.5c-.87,2.31.19,3.27,0,6.06s.57,6,0,8.65-1.83,4.81-2,6.25S48,112.1,48,113.92s1.54,2.31-.77,4.62-2.56,3.25-2.56,3.25-1.25,1.72-4.65,1.94l.55-2c.86-3.2,1.78-4,2-7.5s-.45-1.89.13-5.74,2.12-7.21,1.73-8.07-1.82-1.25-2.69-1.54-1.25-.48-1.15-2.5-1.06-2.21.67-4.71,2.11-.77,2.69-4,1.73-3.55.39-4.71-2.2.88-1.58-2,1.48-3.56,1.77-4.52,1.83-1.74.86-2-2,1.25-2.5,0,1.45-3,2.41-5.1.86-.29,1.73-3.08,3.46-2.79.86-2.79-4.4,1.16-3-1.39,2.11-1.39,3.55-3.89,2.16-1.83,3.68-3.66a12.45,12.45,0,0,1,2.47-2.59c1.35-1.16.77-.2,3.08-1.83S61,47.68,62,46.91A3.18,3.18,0,0,1,64.38,46.43Z" fill="#e9d3c8"/>
      <path d="M124.66,100.18c-.72,2.21-.18,4-1.46,5.75a13.8,13.8,0,0,1-3,3.54c-1.86,1.68-1.77,1.78-3.24,3s-1.48.68-2.66,2.65-1.38,2.76-2.07,3.84-1.87,1.87-5.11,1.48a15.49,15.49,0,0,1-5.32-1.58l9.65-31.88,12.1-.59L126,95.07Z" fill="#e1bb94"/>
      <path d="M64.38,86.63c1.53.78,2.28,2.68.63,1.94s-3.55-1-5.12-1.94-3.06-2.31-5-1.94-2.64.41-4.29.74-3.63-.33-1.4-1.32a18.92,18.92,0,0,1,6.68-1.4,27.71,27.71,0,0,1,5.53,2.06A13.42,13.42,0,0,1,64.38,86.63Z" fill="#e9d3c8"/>
      <path d="M93.3,88.69c2.39,1.15,5,1.64,5.28,2.88s-1.32,1.16-2.64.41a18.73,18.73,0,0,0-9.16-2.06c-4.53.08-5.15.19-6.33-.15-.61-.18-6.12-2.24-1-2.24,2,0,4.68-.08,6.83,0A59.15,59.15,0,0,1,93.3,88.69Z" fill="#e9d3c8"/>
      <path d="M81,97.83c1-2.09,1.44-2.43,4.74-2.18s5.49-.16,6.81,1.84.94,1.38,1.19,2.37.49,1.4-1.24,1.81-5.69.83-7.42.33-3.52-.79-4.12-2.06A3.1,3.1,0,0,1,81,97.83Z" fill="#fae1d7"/>
      <path d="M63,96.47c0-1.84-1.25-3.06-3-3.94a11,11,0,0,0-5.55-1.27c-1.65.27-3.78-.35-3.78,2.11s.23,4.11,3.19,4.7a12.75,12.75,0,0,0,5.26.3C60.86,98.19,63,98.05,63,96.47Z" fill="#fae1d7"/>
      <path d="M112.27,119.89a22.22,22.22,0,0,1,1.67,5.44c.9,3.9,1.37,5.67,2.91,7.45s4.25,3.54,7.8,7.09a76.46,76.46,0,0,0,8,6.9c2.59,2.09,6.85,2.33,5.43,6.94s-10.67,21.4-12.79,25.66-6.6,7-7.08,9.1-.67,1.38-.67,1.38S97.68,174,89.82,173s-4.55-8.08-4.55-8.08l16.57-20.81s4.83-2.89,5.25-5.34,4.38-9.8,4.41-11.69-.75-5-.72-6.93.33-4.66.72-4.77S112.27,119.89,112.27,119.89Z" fill="#daac3d"/>
      <path d="M112.94,143.66c3.67.23,3.91-.6,5.56,0s-.83,2.44-.83,3.11.24,1.5.83,1.73-1.18-.11-1.54.6,2.21-1.31,2.11,2.6a43,43,0,0,0,0,6c.14,1,1.3,4,2.26-.77s1.31-5.56,2-5.79a3.06,3.06,0,0,1,2.68.36c.51.58-1.22,2.59,0,2.36s2.4-1,3.11-1.14,5.8-2.41,2.84-.52-3.43,1.06-5.2,3.07-2.6,2.14-3.9,4.27-.74,3.77-1.55,3.89-1.76.36-3.07-1.3-.11-2-2.12-3.78-4.73-3.43-3.67,1.18,2,7,1.47,8,1,1.07-.52,1.07-5.8-3-5.8-3h-1.77s-3.9-.36,2.36,2.25,5.89,3.43,5.73,4a2.86,2.86,0,0,0,0,1.77c.19,1.06-.52.83.54,1.77s1.54.83,1.54.83-.24-4.85-.24-5.56.12-.82,1.18-1.18,2,.24,2.49-.94,1.42-1.54,1.18-2.25,1.54-1.19-.24-.71,0-1.06-1.77.47-1.07,1.54-1.77,1.54.23.71-.71-1.89a19.34,19.34,0,0,1-1.07-3.67,5.25,5.25,0,0,0-1.13-2.23s2.67,1.17,3.38,2.35-.75.36,1.45,1.89,3.51,1.3,3.51,1.3l1.65-.44c.55-.14,3.08.21.36,2a27.61,27.61,0,0,0-5,3.9c-1.07,1.07-1.89,1.18-2,2a10.71,10.71,0,0,0-.12,1.89c0,.71.24.37,0,1.55s.24,2-.24,2.31.13.82-.7,1.14-1.33,2.4-2.32-.17-1.17-3.76-2.44-4.59-.21.24-3-1.89-1.81-2.13-3.8-3.19-2.67-1.19-2.81-2-1.19.47-.13-.83,2.13-2.37,2.13-2.37-.12-.71,1.54-1.06a18.34,18.34,0,0,0,2.83-.83c.71-.23,1.19,2.45,1.07-.67s-1.66-2.64,0-3.94,2.6-1.18,2.84-2.36,2.95,1.65,3.78-.24,2.25-2,.35-4.49-2.36-2.25-3.19-3.43-2.06-3-1.56-3.67A1.27,1.27,0,0,1,112.94,143.66Z" fill="#ba7731"/>
      <path d="M116.09,54.06c3.14,3,5.86,5.89,7,7.78s4.25,11.63,6.14,14.46,3.86,4.14,3.46,5.67.47,4.08-1.73,5.81S127.37,89.33,128,92s.52,4.41,0,5,.75.93-.8,1.88-2.29,0-3.34,1.43,1.94-2.68-1.36-6.77-5.5-3.3-8-1.1A11.73,11.73,0,0,0,110.79,99c0,.94.62,1.73,0,4.4s-.16,2.52-1.11,4.72S110,110,108,111.84s-2.67,1.89-2.83,3.31-2,1.57-.94,3.77,2.67,1.57,2,3.62-1.58,2-1.11,3.81-.92,1.69.48,4.37S107,137,107,138.27s1.59,1.88,1.44,3.77-1.42,3.93-1.89,5.5-.31,1.73-.31,3.78,1.25,3-.16,4.4-1.95,1.1-2.23,3.3.18,3-1.7,4.56,0,1.26-1.89,3.31-4.56,2.67-7.86,4.4-9.16,8.16-14.79,7.23a88.47,88.47,0,0,1-10-2.08c-2.18-.59-1.46-2.47-4.17-2.16s-6.61,1.1-9.44,1.1-2.51,1.1-6.13-.47-9.59-3.31-11.79-6.14-3.15-3.14-3.15-7.07-.31-6.45.16-9.12-.32-3.31.94-6.14,1.73-1.57,1.73-3.77,3-8.18,5-11.17,5.82-5.19,7.71-6.13-1.42-2.52,2.36-3.62a28.19,28.19,0,0,1,8-1.1,7.25,7.25,0,0,1,2.66.42c1.43.38,3.16,1.63,5.2.37s1.42-1.26,3.15-1.26,2.36-1.1,4.72,0,3,1.73,4.24,2.36,1.73-.63,2.67,2a17.93,17.93,0,0,0,3.31,5.51c.47.47,2.2,4.56,4.4,4.4s2.05-.47,2.36-3.93-.32-5,.94-5.79,2.2.13,3.62-2.23.21-3.11,1.83-3.92,2.1,0,2.57-1.43a8.29,8.29,0,0,1,1.26-2.36l.92-3.43c1-3.86,2.38-2.86,2.07-7.42s-2.2-4.87.31-6.6,3.51-.89,2.52-3.15a13.39,13.39,0,0,1-1.57-5.66c-.16-2.52.47-2.2-.47-4.72s-4.25-1.73-.95-3.93,2.93-.81,3.62-3.39-.52-1.5,1.08-4,3.17-1.56,4-4.87-.31-2.51.79-5,4.54-.24,2-4.24A3.77,3.77,0,0,1,116.09,54.06Z" fill="#f0e1cc"/>
      <path d="M81.17,141.08c-3.3-3.3-4.45-3.88-7.26-6.68s-4-4.45-5.52-4.7-4.54-.66-7.1-1.07-3.87.57-5.44,2.31a22,22,0,0,1-4.79,3.79c-.9.49-2.72,1.65.33,1.15s2.4-.74,4-.57a16.9,16.9,0,0,1,4.12.82c2,.58.66,1.16,3.3,1.49s2.56-1.41,4.25-.33,1.53,1.56,3.18,1.81,1.48-.58,3.71.25a32.16,32.16,0,0,0,4.61,1.73c2.73.74,4,2,3.31,1Z" fill="#e1bb94"/>
      <path d="M70.65,135.49c-2.67-1.25-4.68-3-7.72-2.89s-6.91,0-7.8-.44a1.49,1.49,0,0,1-.31-.2c.36-.33.71-.67,1-1,1.57-1.74,2.89-2.73,5.44-2.31s5.61.82,7.1,1.07,2.72,1.9,5.52,4.7c.55.54,1,1,1.47,1.41C74.56,136.42,72.81,136.49,70.65,135.49Z" fill="#72382c"/>
      <path d="M52.93,133.5c.74-.54,2.36-2,3.09-2.75,3.74,0,11.77,2.09,13.58,2.45s4.31,1.56,5.27,3.06c.63,1,1,2.73.42,3.27a1.28,1.28,0,0,1-.34.19l-1-.37c-2.23-.83-2.07,0-3.71-.25s-1.49-.74-3.18-1.81-1.61.66-4.25.33-1.32-.91-3.3-1.49a16.9,16.9,0,0,0-4.12-.82,3.93,3.93,0,0,0-2,.16A8.37,8.37,0,0,1,52.93,133.5Z" fill="#844234"/>
      <path d="M85.7,95.65c1.06.08,2,.09,2.84.14a5,5,0,0,1,.54,2.27,4.53,4.53,0,0,1-2.41,4.16A7.74,7.74,0,0,1,85,102a25,25,0,0,1-2.42-.72,4.84,4.84,0,0,1-1.17-3.22,5,5,0,0,1,.21-1.46C82.36,95.61,83.2,95.46,85.7,95.65Z" fill="#503338"/>
      <path d="M53.82,98.07a5.29,5.29,0,0,1-1.49-.5,4.87,4.87,0,0,1-1.07-3.1,4.93,4.93,0,0,1,1-3c.67-.09,1.44,0,2.13-.16a8.81,8.81,0,0,1,3.71.53,5,5,0,0,1,.77,2.68,4.58,4.58,0,0,1-2.17,4A20,20,0,0,1,53.82,98.07Z" fill="#503338"/>
      <path d="M67.11,98.37c-.3,1.92-1.26,3.69-1.63,5.47a11.72,11.72,0,0,0-.43,2.71,4.28,4.28,0,0,1-.4,1.58,4.82,4.82,0,0,1-.45.69c-.14.18-.28.36-.41.55-.25.36-.49.79-.82,1.2a10.92,10.92,0,0,1-1,1.11,11.84,11.84,0,0,0-1.86,2,7.64,7.64,0,0,0-1.2,2.36,1.6,1.6,0,0,0,0,1c0,.06.08.1.11.16l.25.26c.18.18.34.36.51.55a17.7,17.7,0,0,0,1.78,2.14,4.9,4.9,0,0,0,2.26,1.16,4.7,4.7,0,0,0,2.47-.52l1.31-.57c.23-.1.45-.19.71-.28l.7-.19,2.79-.72.7-.18.17,0a1.17,1.17,0,0,1,.3,0,3.2,3.2,0,0,1,.48,0,2.69,2.69,0,0,0,1.13.13c.22,0,.45-.29.63-.72a5.73,5.73,0,0,0,.42-1.29,3.2,3.2,0,0,0-.49-2.64,3.33,3.33,0,0,1,1,2.7,6.94,6.94,0,0,1-.2,1.5A2,2,0,0,1,74.94,120a2.92,2.92,0,0,1-1.68-.08,1.25,1.25,0,0,0-.24,0H73l-.17,0-.69.18-2.76.71-.68.18c-.2.07-.41.16-.62.25l-1.33.57a10.31,10.31,0,0,1-1.42.49,3.74,3.74,0,0,1-1.64.1A5.88,5.88,0,0,1,60.86,121,19.13,19.13,0,0,1,59,118.78c-.15-.17-.3-.34-.46-.5l-.25-.26a2.64,2.64,0,0,1-.3-.42,2.55,2.55,0,0,1-.11-1.77,8.32,8.32,0,0,1,1.36-2.73,13.36,13.36,0,0,1,.94-1.17c.34-.37.73-.72,1.05-1a7.77,7.77,0,0,0,.92-1c.27-.33.5-.74.79-1.16.14-.21.3-.41.45-.6a4,4,0,0,0,.33-.51,3.21,3.21,0,0,0,.28-1.19,12.79,12.79,0,0,1,.48-2.93C65.23,101.65,66.38,100.15,67.11,98.37Z" fill="#e29d7c"/>
    </g>
  </g>
  <g clip-path="url(#clip-path-4)">
    <g>
      <path d="M217.82,113.26c2.17.58,0-.47,5.74,2.7s11.21,4.4,13.11,6.75,4.86,8.47,7.61,11.65,2.47,3.62,8,8.06,3.52,5.16,7.86,10c4.87,5.39,8.5,21,15.47,24.18S286.15,172,290,175.16s6.14,2.12,10.15,7,8.88,14.17,13.32,19.67,10.36,13.95,10.36,13.95-258.7.32-258.38,0S85.48,187,94.79,181.3s14.8-10.58,21.57-12.69a91.22,91.22,0,0,1,13.1-3s-3-3.79,4-15,9.47-11.88,11.4-12.39,3,.12,3.62-3.26a30,30,0,0,1,3.12-8.29c1.32-2.71,27.54-21.07,27.54-21.07Z" fill="#0b0b13"/>
      <path d="M213.9,120.66c3.32.59,6.49-.14,9,3.92s2.54,5.53,3.81,11.77,3.6,7.52,3.6,13.23,1.52,12,1.5,17.13.44,8.24,0,13.95,1.24,5.71-2.35,10.79-2.33,7.19-6.77,9.72-1.7,4-7.3,3.17-6.86-.42-10-3-5.39,1.7-7-5.49.65-6.14-.28-10.79-.09-3-3.26-9.09-2.54-6.63-3.79-8.67-1.58-.83-3,4.38-6.55,4.29-6.55,11.06,1.74,22.2-6.54,22.83-15.43,1.27-17.77-2.75-3-3-3.61-8.45-2.45-7.19-1.54-14,1.54-4.23,1.12-11.84-1.82-11-1.12-14.17,3-1.05,1.54-6.13-2.31-11.21-1.79-14.59,3.17-11,3.17-11l26.54-9.58Z" fill="#d8d0bb"/>
      <path d="M212.85,122.47c1.62,5.75,5,22.46-.29,25.42a41.1,41.1,0,0,0-12.05,10.57c-1.9,2.75-2.11,6.13-5.92,7s-9.38-1.27-12.51-3.17a57.39,57.39,0,0,1-7.13-5.08c-2.35-1.9-5.3-3.59-5.83-6.55s-1.6-7.88-2.47-8.8,37.88-34.76,37.88-34.76Z" fill="#d5bd8d"/>
      <path d="M216.5,54.73c-1.38-1.08-11.6-7.88-16.63-9.08a70.93,70.93,0,0,0-15.76-2.3c-5,0-25.4,6.56-25.4,6.56l-21,22.33,6.57,36.12L155,122.71s10.33,25.93,22.15,23.74,16.65-2.69,25.61-10.07c10.1-8.32,15.11-23.12,15.11-23.12l3.28-3.48,6.62-13.45L231.83,76S224.46,61,216.5,54.73Z" fill="#e2c8af"/>
      <path d="M216.5,54.73c-4.16.44-8.32-.44-12.69,0s-6.88-1.53-9.28.44-7.29,1.45-5.17,3.43c5.4,5.07,3.28,2.48,7.66,4.45s7.44,1.09,8.54,3.28.92,6.57.92,6.57,3.24,3.94,4.11,6.56,1.75,5.48,2.63,4.6.66-2.84,3.28-2.84,3.11-1,4.82,0,2.41.54,3.06,3,2.41,1.59,2.19,6,.24,2.68-1.15,7.87a52.43,52.43,0,0,1-4.32,11,20.43,20.43,0,0,1-2.84,3.6c-.55.67-.48.89,1.18.3,3.63-1.28,4.07-3.69,4.94-4.12s-.18-1.1,2.21-1.1,5,.22,5.67-2,.44-3.72.88-6.13,0-4.37.66-5.69.87-1.09,2-2.19,0-.82,1.09-3.06,1.75-1.75,2.19-3.5,1.75-1.1,1.31-4.38,0-4.82-1.75-7.44-1.75-4.16-3.06-5-.44-2.19-1.32-4.82.88-2.84-2.18-4.59-3.61-3.48-6.3-2.62-2,1.06-4.12.48A36.63,36.63,0,0,1,216.5,54.73Z" fill="#1d160c"/>
      <path d="M175.13,49c4.6.87,7.88,1.31,8.54,2.4s2,1.54,2,5.26.22,4.81-2.85,5.91-1.53.87-7.66,1.09-5.91-1.31-9.19.66-3.07,2.41-7.45,3.5a65.81,65.81,0,0,0-7.88,2.41c-4.59,1.53-6.13-.22-6.56,2.63s.65,2.19.87,4.81.66,2.59.66,6.22a29.32,29.32,0,0,0,.87,7.57c.44,1.76,1.32,2.85,1.32,4.38s1.09,3.29,1.75,5.26.66,2,.66,5.25-1.54.22.21,5.47a39.16,39.16,0,0,0,4,8.54s3.06,4.16-.88,1.31-5.24-7.22-9.52-11.6-7.34-8.32-8.21-10.94-1.1-3.51-2.19-6.13-.11-6.29,0-6.72-1.53.33-2.41-2.39-.88-2.73-1.55-5.23-1.55-3.61,0-5.36,1.55.87,1.55-1.76-1.31-3.06,0-6.13-.22-5.91,3.5-5.91,5,.66,7.67,0a14.36,14.36,0,0,0,6.12-3.28c1.1-1.09-.43,2.63,4.6-3.28s4.16-6.13,5.91-7,10.07.22,11.6.88S175.13,49,175.13,49Z" fill="#1d160c"/>
      <path d="M184.06,92.73c-.88-3.29,4.32-4.44,6.78-4.32s6.07,0,6.89,2.16.12,4.38-2.1,5-4,1-6.08.47S184.67,95,184.06,92.73Z" fill="#fff"/>
      <path d="M158.25,95c3.74,0,6.19-.64,7.24,1.31s.7,3.58-1.87,4.52-3.22,1.23-6.44.46-4.77-.77-5.12-2.43S154.05,95,158.25,95Z" fill="#fff"/>
      <path d="M167.83,93.2a26.88,26.88,0,0,1,2.89,9.12,11.55,11.55,0,0,1,.12,2.43,5,5,0,0,1-.21,1.24c-.13.37-.24.74-.34,1.12a22.53,22.53,0,0,0-.7,4.68,11.31,11.31,0,0,0,.1,2.33,3.74,3.74,0,0,0,.86,2,6.93,6.93,0,0,0,.92.7,10.13,10.13,0,0,0,1,.61,1.94,1.94,0,0,0,2,.14,7.23,7.23,0,0,0,1.56-1.72,7.36,7.36,0,0,1,1.81-1.62,6,6,0,0,1,2.29-.81,1.8,1.8,0,0,1,1.11.47,4.51,4.51,0,0,1,.8.89,2.64,2.64,0,0,0-1.91-1.23,6.08,6.08,0,0,0-2.15.9,7,7,0,0,0-1.68,1.62,7.3,7.3,0,0,1-1.61,1.84,1.9,1.9,0,0,1-1.27.34,3.27,3.27,0,0,1-1.21-.41,8.58,8.58,0,0,1-1.05-.63,5.93,5.93,0,0,1-1-.74,4.08,4.08,0,0,1-1-2.29,11.11,11.11,0,0,1-.13-2.44,22.59,22.59,0,0,1,.76-4.77c.1-.39.23-.78.36-1.17a4.37,4.37,0,0,0,.2-1.11,13.25,13.25,0,0,0-.07-2.35,28.88,28.88,0,0,0-.88-4.67A24.75,24.75,0,0,0,167.83,93.2Z" fill="#886d50"/>
      <path d="M167,111.75a6.69,6.69,0,0,0-1.56,1.91,2.45,2.45,0,0,0,.06,2.22,6.78,6.78,0,0,0,1.47,1.91,1.12,1.12,0,0,0,1,.33,5.75,5.75,0,0,0,1.13-.53,4.52,4.52,0,0,1-1.05.77,1.38,1.38,0,0,1-1.33-.26,5.79,5.79,0,0,1-1.73-2,3,3,0,0,1-.33-1.34,2.58,2.58,0,0,1,.39-1.31A4.76,4.76,0,0,1,167,111.75Z" fill="#886d50"/>
      <path d="M184.35,124.58a3.29,3.29,0,0,1-.21,2.12c-.44.78-1.46,2.53-2.33,2.64s-5.73.62-7.19,0-2.63-1.5-2.85-2.48,1.61-2.74,3.65-2.7S184.35,124.58,184.35,124.58Z" fill="#bc8b7d"/>
      <path d="M187.47,123.13c-.08-.65-5.39-.69-8.08-.42s-2.91-.86-4.9.27-4.62.6-5.23,2,.91,2,2.31,1.63,4.71-.82,6.73-1.17,2.38.49,4.83-.46S187.6,124.32,187.47,123.13Z" fill="#916751"/>
      <path d="M197.15,79.11c-4-1.06-6.46-1.12-9.13-.14s-8.38,2.74-5.94,3.16,4.26-.56,6.86-1.4,1.47-1.2,5.26-.78S199.65,79.78,197.15,79.11Z" fill="#1d160c"/>
      <path d="M160.07,85.64c-6.39.28-8.92.7-9.34,2s.35,1.75,2,1.12a23.7,23.7,0,0,1,5.9-1.68c1.89-.14,6,.63,4.21-.42A5.43,5.43,0,0,0,160.07,85.64Z" fill="#1d160c"/>
      <path d="M190.84,88.41c1.68.08,3.9,0,5.4.71a8.31,8.31,0,0,1,.14,1.51,7.41,7.41,0,0,1-2,5.22,9,9,0,0,1-4.82.15c-.74-.21-1.56-.4-2.35-.65a7.62,7.62,0,0,1-1.56-4.72,7.77,7.77,0,0,1,.08-1.09A10.54,10.54,0,0,1,190.84,88.41Z" fill="#412c19"/>
      <path d="M156.25,95.17a11.16,11.16,0,0,1,2-.21c2.37,0,4.21-.28,5.52,0a7.69,7.69,0,0,1,.51,2.78,7.47,7.47,0,0,1-.6,3l-.06,0c-2.56.93-3.22,1.23-6.44.46l-.62-.14a7.49,7.49,0,0,1-.76-3.33A7.76,7.76,0,0,1,156.25,95.17Z" fill="#412c19"/>
    </g>
  </g>
  <polygon points="305.04 104.46 263.56 172.48 0 172.48 0 194.65 279.31 194.65 1344.29 194.65 1344.29 104.46 305.04 104.46" fill="#212026"/>
  <g>
    <path d="M343.39,168.22l-.74,1.82a20.16,20.16,0,0,1-9.26,2.21q-7,0-11.45-4a13.48,13.48,0,0,1-4.41-10.47,13.83,13.83,0,0,1,2.2-7.78,13.66,13.66,0,0,1,5.8-5,19.22,19.22,0,0,1,8.1-1.65,23.91,23.91,0,0,1,5.13.55,21.68,21.68,0,0,1,4.24,1.3l.14.2a24.85,24.85,0,0,0-.84,5.41l-.14.16h-.92l-.15-.16-.2-3.32a10.85,10.85,0,0,0-3.44-1.77,14.12,14.12,0,0,0-4.21-.63,12.25,12.25,0,0,0-5.92,1.41,9.87,9.87,0,0,0-4.06,4.11,13.63,13.63,0,0,0-1.45,6.57,13.49,13.49,0,0,0,1.7,6.85,11.55,11.55,0,0,0,4.64,4.53,14.21,14.21,0,0,0,6.86,1.59,15.83,15.83,0,0,0,3.34-.34A12.29,12.29,0,0,0,341,169a11.66,11.66,0,0,0,2-1.19Z" fill="#fff"/>
    <path d="M345.66,143.93q5,.15,5.58.15t5.61-.15l.16.13v1l-.16.14c-.9,0-1.59.06-2.08.11a2.59,2.59,0,0,0-1.07.3,1.36,1.36,0,0,0-.43,1,15.83,15.83,0,0,0-.11,2.2l0,4.49V156q4.28.1,8.1.11,5.23,0,8-.11v-2.74l0-3.81a28.23,28.23,0,0,0-.11-2.87,2,2,0,0,0-.28-.86,1.33,1.33,0,0,0-.7-.35,17,17,0,0,0-2.62-.21l-.13-.14v-1l.13-.13c3.34.1,5.2.15,5.61.15s2.31-.05,5.6-.15l.16.13v1l-.16.14c-.91,0-1.61.06-2.1.11a2.54,2.54,0,0,0-1.06.3,1.32,1.32,0,0,0-.43,1,22,22,0,0,0-.12,2.2l0,4.49v9l0,3.81a26.81,26.81,0,0,0,.12,2.85,1.8,1.8,0,0,0,.28.86,1.45,1.45,0,0,0,.71.37,16.12,16.12,0,0,0,2.6.22l.16.12v1l-.16.16c-3.33-.1-5.2-.16-5.6-.16s-2.29.06-5.61.16l-.13-.16v-1l.13-.12a19.16,19.16,0,0,0,2.44-.2,1.62,1.62,0,0,0,.81-.3,1.59,1.59,0,0,0,.33-.79,16.27,16.27,0,0,0,.13-2.69l0-4.13v-4.45q-5.78-.12-8.1-.12t-8,.12v4.45l0,3.81a24.24,24.24,0,0,0,.12,2.85,1.7,1.7,0,0,0,.28.86,1.41,1.41,0,0,0,.71.37,16.39,16.39,0,0,0,2.6.22l.16.12v1l-.16.16c-3.32-.1-5.19-.16-5.61-.16s-2.26.06-5.58.16l-.16-.16v-1l.16-.12a19.11,19.11,0,0,0,2.42-.2,1.66,1.66,0,0,0,.81-.3,1.43,1.43,0,0,0,.33-.79,16.61,16.61,0,0,0,.15-2.69l0-4.13v-9l0-3.81a28.23,28.23,0,0,0-.11-2.87,1.87,1.87,0,0,0-.27-.86,1.46,1.46,0,0,0-.71-.35,17,17,0,0,0-2.6-.21l-.16-.14v-1Z" fill="#fff"/>
    <path d="M378.61,144.06l.15-.13c2.39.1,4.24.15,5.57.15s3.46,0,6-.13c.92,0,1.59,0,2,0,3.29,0,5.53.6,6.7,1.79a5.9,5.9,0,0,1,1.76,4.26,6.7,6.7,0,0,1-.86,3.22,7.7,7.7,0,0,1-2.54,2.71,12.73,12.73,0,0,1-4.63,1.69c.36.51,1,1.38,2,2.63l2.77,3.68c.9,1.21,1.87,2.49,2.89,3.83a12.49,12.49,0,0,0,2,2.29,2.34,2.34,0,0,0,.77.32,6.17,6.17,0,0,0,1,.06l.16.16v.91l-.18.18a17.65,17.65,0,0,0-2.22-.12q-1.4,0-3,.12c-.9-1.09-2.31-3-4.24-5.68q-3.36-4.69-6.87-8.69l.19-.61c.68,0,1.21.06,1.58.06a8,8,0,0,0,5.3-1.62,5.59,5.59,0,0,0,1.91-4.49,4.6,4.6,0,0,0-1.72-3.9,7.43,7.43,0,0,0-4.65-1.32,12.83,12.83,0,0,0-3.86.57c-.2.28-.3,2.73-.3,7.32v9l0,3.81q0,2.2.12,2.85a1.92,1.92,0,0,0,.28.86,1.5,1.5,0,0,0,.72.37,16.21,16.21,0,0,0,2.59.22l.16.12v1l-.16.16-3.43-.12-2.17,0c-.4,0-2.27.06-5.59.16l-.15-.16v-1l.15-.12a19.53,19.53,0,0,0,2.43-.2,1.66,1.66,0,0,0,.81-.3,1.59,1.59,0,0,0,.33-.79,18.46,18.46,0,0,0,.14-2.69l0-4.13v-9l0-3.81c0-1.48,0-2.44-.1-2.87a1.74,1.74,0,0,0-.28-.86,1.41,1.41,0,0,0-.71-.35,16.9,16.9,0,0,0-2.6-.21l-.15-.14Z" fill="#fff"/>
    <path d="M405.66,143.93l2.44.07c1.6.06,2.65.08,3.14.08s2.31-.05,5.61-.15l.16.13v1l-.16.14c-.9,0-1.59.06-2.08.11a2.59,2.59,0,0,0-1.07.3,1.36,1.36,0,0,0-.43,1,15.83,15.83,0,0,0-.11,2.2l0,4.49v9l0,3.81a24.24,24.24,0,0,0,.12,2.85,1.7,1.7,0,0,0,.28.86,1.41,1.41,0,0,0,.71.37,16.39,16.39,0,0,0,2.6.22l.16.12v1l-.16.16-3.44-.12-2.17,0c-.4,0-2.26.06-5.58.16l-.16-.16v-1l.16-.12a19.11,19.11,0,0,0,2.42-.2,1.66,1.66,0,0,0,.81-.3,1.43,1.43,0,0,0,.33-.79,16.61,16.61,0,0,0,.15-2.69l0-4.13v-9l0-3.81a28.23,28.23,0,0,0-.11-2.87,1.87,1.87,0,0,0-.27-.86,1.46,1.46,0,0,0-.71-.35,17,17,0,0,0-2.6-.21l-.16-.14v-1Z" fill="#fff"/>
    <path d="M419.53,164.8l.15-.15h1l.15.15a18.42,18.42,0,0,0,.27,3.06,2.49,2.49,0,0,0,1.05,1.17,7.5,7.5,0,0,0,2.37,1,11.54,11.54,0,0,0,3,.39,8.82,8.82,0,0,0,3.73-.76,5.77,5.77,0,0,0,2.56-2.24,6,6,0,0,0,.92-3.31,5.18,5.18,0,0,0-.44-2.24,3.83,3.83,0,0,0-1.23-1.54,5.76,5.76,0,0,0-1.8-.86,30.8,30.8,0,0,0-3-.61q-1.95-.31-3.06-.57a10.53,10.53,0,0,1-2.2-.78,5.82,5.82,0,0,1-1.82-1.34,6,6,0,0,1-1.17-2,7,7,0,0,1-.44-2.53,7.76,7.76,0,0,1,2.54-6,9.69,9.69,0,0,1,6.81-2.33,18.09,18.09,0,0,1,3.7.42,14.93,14.93,0,0,1,3.65,1.24l.13.23a27,27,0,0,0-.52,5.12l-.18.16h-1l-.15-.14c0-1.56-.07-2.54-.12-3s-.64-.9-1.78-1.5a7.75,7.75,0,0,0-3.69-.9,7.34,7.34,0,0,0-3.1.66,4.54,4.54,0,0,0-2.19,2.09,6.17,6.17,0,0,0-.74,2.91,4.44,4.44,0,0,0,.45,2,3.62,3.62,0,0,0,1.16,1.41,4.88,4.88,0,0,0,1.66.77c.63.17,1.78.38,3.46.63a20.32,20.32,0,0,1,5,1.18,5.53,5.53,0,0,1,2.52,2.2,6.68,6.68,0,0,1,1,3.63,8.6,8.6,0,0,1-3.39,6.93,12.53,12.53,0,0,1-8.21,2.78,16.41,16.41,0,0,1-7.09-1.45l-.12-.25Q419.43,169.32,419.53,164.8Z" fill="#fff"/>
    <path d="M462.55,143.93l.18.17c-.12,1.17-.18,3.22-.18,6.13l-.15.16h-.92l-.16-.18-.21-1.79a17.84,17.84,0,0,0-.25-1.77.87.87,0,0,0-.28-.47,3.36,3.36,0,0,0-1.27-.24c-.72-.07-1.52-.1-2.4-.1h-3.69c-.11,2.94-.16,4.64-.16,5.1v11.38l0,3.81a28.14,28.14,0,0,0,.11,2.86,1.74,1.74,0,0,0,.27.86,1.49,1.49,0,0,0,.71.36,16.61,16.61,0,0,0,2.62.22l.14.12v1l-.14.16c-3.33-.1-5.2-.16-5.59-.16s-2.27.06-5.56.16l-.16-.16v-1l.16-.12a19.13,19.13,0,0,0,2.43-.2,1.62,1.62,0,0,0,.8-.3,1.5,1.5,0,0,0,.34-.79,15.86,15.86,0,0,0,.14-2.69l0-4.13V150.94c0-.21-.05-1.91-.16-5.1h-2.91c-1.2,0-2.23,0-3.1.08s-1.38.18-1.52.4a7.34,7.34,0,0,0-.38,2.1l-.19,1.79-.18.18h-.9l-.15-.16c0-3.13-.09-5.18-.18-6.13l.18-.17q3.39.15,11.3.15Q459.29,144.08,462.55,143.93Z" fill="#fff"/>
    <path d="M464.64,143.93l2.44.07c1.61.06,2.65.08,3.15.08s2.31-.05,5.6-.15l.16.13v1l-.16.14c-.89,0-1.59.06-2.08.11a2.54,2.54,0,0,0-1.06.3,1.36,1.36,0,0,0-.44,1,17.57,17.57,0,0,0-.11,2.2l0,4.49v9l0,3.81a26.81,26.81,0,0,0,.12,2.85,1.8,1.8,0,0,0,.28.86,1.45,1.45,0,0,0,.72.37,16.21,16.21,0,0,0,2.59.22l.16.12v1l-.16.16-3.43-.12-2.17,0c-.41,0-2.27.06-5.59.16l-.15-.16v-1l.15-.12a19.11,19.11,0,0,0,2.42-.2,1.58,1.58,0,0,0,.81-.3,1.5,1.5,0,0,0,.34-.79,18.46,18.46,0,0,0,.14-2.69l0-4.13v-9l0-3.81c0-1.48-.05-2.44-.1-2.87a1.74,1.74,0,0,0-.28-.86,1.41,1.41,0,0,0-.71-.35,16.9,16.9,0,0,0-2.6-.21l-.15-.14v-1Z" fill="#fff"/>
    <path d="M477.83,171.68l-.18-.16v-1l.18-.16a8.56,8.56,0,0,0,1.83-.14,1.57,1.57,0,0,0,.73-.51,16.12,16.12,0,0,0,1.3-2.49l2.05-4.46,5.32-12q1.5-3.53,3-7.07h1.27l8.34,19.61,1.12,2.62c.32.74.7,1.55,1.12,2.42a7.2,7.2,0,0,0,.88,1.54,1.65,1.65,0,0,0,.6.37,6.75,6.75,0,0,0,1.62.14l.15.16v1l-.15.16c-1.38-.12-2.63-.18-3.73-.18l-6.49.18-.16-.16v-1l.16-.16a16.26,16.26,0,0,0,2.74-.18.66.66,0,0,0,.54-.68,3.39,3.39,0,0,0-.27-1.13l-2.4-6H486.07l-2.13,5a5.88,5.88,0,0,0-.57,2,.78.78,0,0,0,.53.72,9.12,9.12,0,0,0,2.66.25l.17.16v1l-.15.16c-1.68-.1-3.16-.16-4.42-.16C480.73,171.52,479.28,171.58,477.83,171.68Zm8.9-11h9.88L491.71,149Z" fill="#fff"/>
    <path d="M509.37,171.66l-.18-.18v-.89l.18-.16a12.78,12.78,0,0,0,1.9-.14,1.41,1.41,0,0,0,.92-.39,1.72,1.72,0,0,0,.27-.88c0-.4.1-1.31.14-2.73s.07-2.44.07-3V147.46a2.45,2.45,0,0,0-.36-1.47,1.61,1.61,0,0,0-1-.61,14.27,14.27,0,0,0-2.13-.15l-.15-.15v-.92l.15-.18c1.8.07,3,.1,3.54.1,1.31,0,2.39,0,3.24-.1l6.23,8.09,9.16,11.48c1.11,1.4,2.23,2.72,3.38,4V152.4c0-.47,0-1.47-.07-3s-.1-2.5-.16-2.91a1.4,1.4,0,0,0-.35-.83,1.87,1.87,0,0,0-.91-.32,15.22,15.22,0,0,0-1.83-.13l-.16-.15v-.9l.16-.18c1.05.07,2.56.1,4.51.1,1.78,0,3.08,0,3.89-.1l.17.18v.9l-.15.15a14.46,14.46,0,0,0-2,.15,1.28,1.28,0,0,0-.88.42,2.26,2.26,0,0,0-.25.86c0,.38-.09,1.28-.13,2.7s-.07,2.44-.07,3.06v9.28l0,5.37c0,1.76.05,3.52.07,5.29a32.65,32.65,0,0,0-3.37-.82l-1.39-1.64-4.16-5.08-13.24-16.54v15c0,.6,0,1.67.07,3.21a26.35,26.35,0,0,0,.16,2.79,1.54,1.54,0,0,0,.26.67,1.31,1.31,0,0,0,.67.34,8.93,8.93,0,0,0,2.14.18l.15.16v.91l-.15.16a27.68,27.68,0,0,0-3.28-.14C512.53,171.52,510.83,171.57,509.37,171.66Z" fill="#fff"/>
    <path d="M564.76,171.88c-.2-.58-1-2.76-2.44-6.57l-6.64-16.42a23.74,23.74,0,0,0-1.43-3.2q-.29-.37-2.34-.51l-.18-.18v-.9l.18-.17c2,.1,3.68.15,5.08.15s3-.05,5.17-.15l.16.15v1.08l-.16.15a14.21,14.21,0,0,0-2.82.15.56.56,0,0,0-.46.56,14.92,14.92,0,0,0,.63,2.08c.41,1.23.78,2.27,1.11,3.11l6.11,15.45,5.1-12.81c.35-.87.87-2.28,1.54-4.22a17.86,17.86,0,0,0,1-3.5.59.59,0,0,0-.48-.62,23.29,23.29,0,0,0-2.86-.33l-.18-.16v-.94l.18-.15q3.42.15,4.35.15c.51,0,1.83-.05,4-.15l.16.15V145l-.16.16a5.53,5.53,0,0,0-1.7.21,1.34,1.34,0,0,0-.52.61c-.15.3-.61,1.32-1.39,3.08l-6.1,15c-1.36,3.35-2.34,5.95-2.91,7.8Z" fill="#fff"/>
    <path d="M581.36,143.93l2.44.07c1.6.06,2.65.08,3.15.08s2.31-.05,5.6-.15l.16.13v1l-.16.14c-.9,0-1.59.06-2.08.11a2.49,2.49,0,0,0-1.06.3,1.36,1.36,0,0,0-.44,1,17.57,17.57,0,0,0-.11,2.2l0,4.49v9l0,3.81A24.24,24.24,0,0,0,589,169a1.8,1.8,0,0,0,.28.86,1.41,1.41,0,0,0,.71.37,16.53,16.53,0,0,0,2.6.22l.16.12v1l-.16.16-3.44-.12-2.16,0c-.41,0-2.27.06-5.59.16l-.16-.16v-1l.16-.12a19.11,19.11,0,0,0,2.42-.2,1.58,1.58,0,0,0,.81-.3,1.5,1.5,0,0,0,.34-.79,18.46,18.46,0,0,0,.14-2.69l0-4.13v-9l0-3.81c0-1.48,0-2.44-.1-2.87a1.85,1.85,0,0,0-.28-.86,1.41,1.41,0,0,0-.71-.35,16.9,16.9,0,0,0-2.6-.21l-.16-.14v-1Z" fill="#fff"/>
    <path d="M595.11,144.06l.16-.13q6.69.1,8.57.11,6.4,0,11.41-.11l.1.13a33.07,33.07,0,0,0-.73,5.88l-.11.16h-1l-.18-.16a1.78,1.78,0,0,0,0-.31,19,19,0,0,0-.25-3.17,10.75,10.75,0,0,0-3.41-.71c-1.45-.11-2.54-.16-3.27-.16-1,0-2.35.07-4,.21l-.07,3.13-.06,3.57-.06,4c1.4.08,2.7.12,3.88.12s2.21,0,3-.12a4.68,4.68,0,0,0,1.42-.24.79.79,0,0,0,.31-.49,8.11,8.11,0,0,0,.19-1.28l.07-1.21.16-.15h.9l.16.15c0,1.42-.06,2.85-.1,4.28l.1,4.39-.16.16h-.9l-.16-.16-.13-1.17a14.51,14.51,0,0,0-.26-1.63.86.86,0,0,0-.36-.46,3.94,3.94,0,0,0-1.45-.31c-.78-.08-1.86-.12-3.22-.12-.76,0-1.91,0-3.46.1-.07,1.09-.1,2.92-.1,5.47,0,2.73,0,4.75.1,6h3.59c3.17,0,5.14,0,5.94-.11a7.82,7.82,0,0,0,2.26-.57,21.19,21.19,0,0,0,.58-2.08c.27-1.09.42-1.77.46-2l.2-.14h.93l.16.14a26.28,26.28,0,0,0-.34,2.93c-.11,1.39-.17,2.58-.17,3.57l-.14.16c-2.48-.08-5.74-.12-9.76-.12l-5.31,0c-1.24,0-2.53.06-3.87.16l-.16-.16v-.64l.16-.2a10.1,10.1,0,0,0,1.32-.73,15.38,15.38,0,0,0,.27-3.42c.07-2.18.11-3.84.11-5v-7.16l0-4.44c0-1,0-1.75,0-2.35a7.11,7.11,0,0,0-.14-1.3,1.55,1.55,0,0,0-.22-.55,1,1,0,0,0-.41-.26,5.08,5.08,0,0,0-1-.19l-1.48-.11-.16-.14Z" fill="#fff"/>
    <path d="M627.32,171.89l-1.78-8.14-3.77-16.07c-.3-1.28-.61-2-.94-2.14a8.61,8.61,0,0,0-2.11-.42l-.15-.16v-.86l.15-.17q2.82.15,5,.15c1.08,0,2.66-.05,4.73-.15l.18.17V145l-.16.16a15.6,15.6,0,0,0-2.61.21.61.61,0,0,0-.44.65,24.76,24.76,0,0,0,.39,2.58c.26,1.46.5,2.64.71,3.55l3.06,13.53,4.83-12q1.89-4.75,3.73-10h1.25q1.56,4.9,3.22,9.51l4.59,12.74,3.32-11.66c.34-1.23.76-2.83,1.25-4.83a26.23,26.23,0,0,0,.74-3.45.62.62,0,0,0-.48-.66,20.3,20.3,0,0,0-2.82-.18l-.15-.18v-.86l.15-.15c2.22.1,3.55.15,4,.15s1.77-.05,4.06-.15l.16.15V145l-.16.14a4.51,4.51,0,0,0-1.48.2,1.68,1.68,0,0,0-.65.51,8.39,8.39,0,0,0-.78,2l-1.13,3.64-2,6.58q-.42,1.42-1.58,5.78l-2.17,8.08h-2q-2-6-3.36-9.68l-4.45-12.05-3.89,9.64-2.09,5.47c-.54,1.45-1,2.63-1.31,3.54l-1.07,3.08Z" fill="#fff"/>
    <path d="M659.66,164.8l.16-.15h1l.15.15a17.31,17.31,0,0,0,.27,3.06,2.49,2.49,0,0,0,1,1.17,7.54,7.54,0,0,0,2.36,1,11.67,11.67,0,0,0,3,.39,8.74,8.74,0,0,0,3.72-.76,5.79,5.79,0,0,0,2.57-2.24,6.13,6.13,0,0,0,.92-3.31,5.33,5.33,0,0,0-.44-2.24,3.83,3.83,0,0,0-1.23-1.54,5.71,5.71,0,0,0-1.81-.86,30.19,30.19,0,0,0-3-.61c-1.3-.21-2.32-.4-3-.57a10.53,10.53,0,0,1-2.2-.78,5.86,5.86,0,0,1-1.83-1.34,6.34,6.34,0,0,1-1.17-2,7.27,7.27,0,0,1-.44-2.53,7.8,7.8,0,0,1,2.54-6,9.71,9.71,0,0,1,6.82-2.33,18.17,18.17,0,0,1,3.7.42A14.85,14.85,0,0,1,676.3,145l.14.23a26.86,26.86,0,0,0-.53,5.12l-.17.16h-1l-.16-.14c0-1.56-.06-2.54-.11-3s-.65-.9-1.78-1.5A7.75,7.75,0,0,0,669,145a7.42,7.42,0,0,0-3.11.66,4.56,4.56,0,0,0-2.18,2.09,6.18,6.18,0,0,0-.75,2.91,4.44,4.44,0,0,0,.45,2,3.8,3.8,0,0,0,1.16,1.41,5,5,0,0,0,1.66.77c.64.17,1.79.38,3.47.63a20.43,20.43,0,0,1,5,1.18,5.53,5.53,0,0,1,2.52,2.2,6.68,6.68,0,0,1,.95,3.63,8.6,8.6,0,0,1-3.39,6.93,12.55,12.55,0,0,1-8.21,2.78,16.41,16.41,0,0,1-7.09-1.45l-.12-.25A56.39,56.39,0,0,0,659.66,164.8Z" fill="#fff"/>
  </g>
  <g>
    <rect x="1273.48" y="108.34" width="25.51" height="86.31" fill="#fff"/>
    <rect x="1245.69" y="128.13" width="81.1" height="21.58" fill="#fff"/>
  </g>
</svg>
