<svg id="Layer_1" data-name="Layer 1" xmlns="http://www.w3.org/2000/svg" xmlns:xlink="http://www.w3.org/1999/xlink" viewBox="0 0 1344.29 194.65">
  <defs>
    <clipPath id="clip-path">
      <rect x="1164.53" y="104.85" width="179.85" height="89.8" fill="none"/>
    </clipPath>
  </defs>
  <title>banner-5</title>
  <g>
    <path d="M197.24,192.12a105.54,105.54,0,0,0-17.44-12.71c-9.17-5.12-17.65-3.13-30.94-7s-22-13.95-25.43-17c-5-4.41-19-2-19-2s-43.5,8.42-46.88,8.94-8.81,11.23-16.6,17.11S25.8,188,13.89,191c-1.53.38-3,.77-4.27,1.17Z" fill="#0b050b"/>
    <path d="M37.68,87.44c-1.28,0-2.14-3.16-3.47-2.91S31.27,85.88,31.74,89a61.24,61.24,0,0,0,2.93,10.34,5.39,5.39,0,0,0,4.62,3.38Z" fill="#fe9e59"/>
    <path d="M109.11,114s1,13,1,16.89a67.39,67.39,0,0,0,2.07,14.2c1,3.55,4.45,7.27,4.45,7.27l-8.09,14.15L65.34,179.41,55.47,165.5s2.27,2.76,2.07-13.91l34.63-33.73Z" fill="#ef8c54"/>
    <path d="M35.52,87c.61,2.82.61,2.31.61,7.5s-3.62,10.16-.61,18.85,6.09,7.22,6.62,11.09a36.56,36.56,0,0,0,4.15,11.77c1.87,3.34,1.87,8.95,3.88,11.76s4.27,6.68,9.75,6.42,7.36-1.74,13.24-1.74,11.23-1.87,18-8,6.82-3.88,10-10.56,1.63-6.5,4.68-10.43,4-15.24,4-15.24l7.62-31.28L96.28,51.49,45.62,48.41l-11.3,20Z" fill="#f1b16b"/>
    <path d="M91.15,144.66c6.82-6.15,6.82-3.88,10-10.56s1.63-6.5,4.68-10.43,4-15.24,4-15.24L115.1,87l-5.37-4.38-3.18,3.9c0,7-4.13,6.55-3.85,15.39s3.71,14.53.76,19.09-7,11.88-13.2,14.73-10.83,4.65-15.1,6.93-11.13,9.87-9.65,11a31.44,31.44,0,0,1,7.6-.95C79,152.68,84.34,150.81,91.15,144.66Z" fill="#fe9e59"/>
    <path d="M109.76,123.21c1.56-1.56,3.59-3.37,5.43-3.79s4.24-1,4.24-4a20.61,20.61,0,0,0-.53-4.92s1-.59,1.82,3.08c0,0,.61-.87-.82-4.43s-1.56-3.49-1.42-6-9.92,6.6-9.92,6.6Z"/>
    <path d="M33.81,83.53c-.65-4.54-3.9-13-.65-20.11s9.08-24,24-28.54,15.57-7.13,31.79-3.24c0,0,15.56,7.13,18.16,9.73s7.78,11,9.08,15.57,2.59,11.67,3.24,14.91,1.3,11.68,1.3,11.68-5.11,2-6.49,3.24A31.51,31.51,0,0,0,110.34,90s-.65,0-2.59-1.94c-2.94-2.94-7.79-5.19-10.38-9.73s-1.3-3.89-3.89-11.68S89.58,53,83.1,54.34,68.18,62.77,63,62.12s-9.73-1.29-13-6.48-8.43-2-11,3.24S37.05,68.61,36.4,73.8s.65,12.32,0,13.62S33.81,83.53,33.81,83.53Z"/>
    <path d="M110.67,92.52c1.2-2.94,3.41-6.75,8.12-8.18s7.92-1.17,5.92,7S120.9,102.6,118,105s-5,4.92-6.25,4.79a19.75,19.75,0,0,0-3.93.4Z" fill="#fe9e59"/>
    <path d="M57.53,162.3c1.4.81,3.29,4.19,5,5.24s1.89,4.46,10,4.74,9.87.1,15.47-2.09,11.3-3.89,15.28-6.74a79.29,79.29,0,0,0,9.15-7.41c2.6-2.47,7.65-.46,7.65-.46l-15.78,13.63-36.32,9.08-9.08-8.15-2.47-7Z" fill="#e9f8c4"/>
    <path d="M115.44,150.7c2-1.36,5.09-1.48,5.41,0s2.34,3.85,0,6.51a143,143,0,0,1-14.3,12.73c-2.84,2-15.77,10.16-22.37,10.26s-11.35.47-11.35.77-1.07,3.72-3.92,2.47c-1.14-.51-1-2.45-1-2.45s-5.12-1.21-7.16-4.15a27.93,27.93,0,0,1-3.23-5.51c-.66-1.52-2.46-3-2.56-4.27s-.16-3,.61-3.85,1.28-1.49,1.88-.5.45,2.79,1.88,4,5.69,5.79,8.26,6.5,9.59,2.51,13.78,1.49c7.71-1.87,15.21-5.05,17.77-7s12.3-6.57,13.77-10.18S114.58,151.28,115.44,150.7Z" fill="#b21b1b"/>
    <path d="M67.08,91.6c1.5-.85,9.26-1.75,11.18-1.59s5.41,2,5.34,1.17-2.78-2.5-5.48-2.57-9.26.22-11,1.5S67.08,91.6,67.08,91.6Z" fill="#7d3318"/>
    <path d="M39.71,88.33a18.68,18.68,0,0,1,9,.27c1.14.44,2.28,1.47-.36,1.19a26.54,26.54,0,0,0-8-.14C37.6,90.17,36.56,89.17,39.71,88.33Z" fill="#7d3318"/>
    <path d="M69.28,98.14c.82-3,5.52-3,7.43-2.83s6,1.35,6,2.51-4.82,3.65-8.26,2.83C72.3,100.14,68.82,99.86,69.28,98.14Z" fill="#fae1d7"/>
    <path d="M40.82,96.18c.39-1.45,3.08-2.67,5.6-2.35s5.1,1.51,4.89,2.84-3.51,2.76-5.83,2.46C43,98.81,40.52,97.32,40.82,96.18Z" fill="#fae1d7"/>
    <path d="M58.86,119.11c0-2.31,3.43-4.67,3-5.1a1.53,1.53,0,0,0-2.36,1.13C59.18,116.75,58.86,119.11,58.86,119.11Z" fill="#fe9e59"/>
    <path d="M82.69,97.82c0-.29-.24-.57-.64-.84a3.36,3.36,0,0,1,.08.71,3.4,3.4,0,0,1-.19,1.11C82.41,98.44,82.69,98.09,82.69,97.82Z" fill="#f3b39b"/>
    <path d="M82.05,97a13.77,13.77,0,0,0-5.34-1.67c-.46,0-1.07-.06-1.74,0a3.39,3.39,0,0,0-1,2.42,3.57,3.57,0,0,0,2,3.11,11.06,11.06,0,0,0,6-2,3.4,3.4,0,0,0,.19-1.11A3.36,3.36,0,0,0,82.05,97Z" fill="#311705"/>
    <path d="M51.31,96.67c.21-1.33-2.38-2.52-4.89-2.84a5.93,5.93,0,0,0-.94,0,3,3,0,0,0-1.61,2.54,3.22,3.22,0,0,0,2.26,2.85C48.36,99.17,51.11,97.87,51.31,96.67Z" fill="#311705"/>
    <path d="M52.53,133.11c-.33.55-1.46,1.74.67,2.78a12.48,12.48,0,0,0,6.22,1.18c2.07-.1,6.06-.28,7.48-1.1s3-.71,3.07-1.4-2-1.64-2-1.64Z" fill="#f57544"/>
    <path d="M51.66,132.44c2.48-.79,6.14.7,7.43.88s6.3-1.27,8.11-.81,5.43-.56,5.56-.2c.23.62-5.36,2.12-8.59,2.18s-5.18.64-7,.38a10.58,10.58,0,0,1-3.34-.73C52.53,133.6,50.7,132.75,51.66,132.44Z" fill="#ea884b"/>
    <path d="M55.12,96.78a7.11,7.11,0,0,1,0,2.56c-.12.85-.27,1.69-.44,2.52s-.35,1.67-.57,2.49l-.83,2.4c-.57,1.6-1.14,3.17-1.75,4.77a22.66,22.66,0,0,0-1.46,4.67,5.65,5.65,0,0,0,.05,2.25,4,4,0,0,0,1.13,1.86,6,6,0,0,0,3.88,2.17,3.84,3.84,0,0,0,1.07-.08l1.22-.31,2.44-.6a16,16,0,0,1,2.6-.5,4.06,4.06,0,0,1,1.51.15,1.56,1.56,0,0,1,.83.59,1.36,1.36,0,0,1,.2,1.15l-.62-.83a.87.87,0,0,0,.46-.26,1.71,1.71,0,0,0,.37-.65,5.21,5.21,0,0,0,.19-1.84,16.94,16.94,0,0,0-.69-4,8.17,8.17,0,0,0-.74-1.68.9.9,0,0,0-.5-.4l-1-.11a6.08,6.08,0,0,0-2,0,1.54,1.54,0,0,0-.83.45,4.59,4.59,0,0,1-.37.39.65.65,0,0,1-.24.15c-.12,0-.17-.11-.14-.18,0,.08,0,.19.13.13a.91.91,0,0,0,.17-.17c.1-.14.19-.29.28-.44a1.79,1.79,0,0,1,.86-.72,6.56,6.56,0,0,1,2.16-.41l1.06-.06a1.91,1.91,0,0,1,1.29.59,4.49,4.49,0,0,1,1.15,2,19.11,19.11,0,0,1,.75,4.29,6.71,6.71,0,0,1-.26,2.32,2.41,2.41,0,0,1-2.06,1.79l-.62-.83s0-.06-.22-.16a2.76,2.76,0,0,0-1-.07,13.26,13.26,0,0,0-2.36.46l-2.46.61-1.24.3a5.29,5.29,0,0,1-1.43.12,7.23,7.23,0,0,1-4.76-2.59,8.73,8.73,0,0,1-.86-1.07,4.66,4.66,0,0,1-.58-1.34A6.83,6.83,0,0,1,48.8,116a23.29,23.29,0,0,1,1.53-5c.6-1.54,1.17-3.15,1.73-4.72C52.92,103.09,54.84,100.14,55.12,96.78Z" fill="#fe9e59"/>
  </g>
  <polygon points="204.41 104.46 162.93 172.48 0 172.48 0 194.65 279.31 194.65 1344.29 194.65 1344.29 104.46 204.41 104.46" fill="#212026"/>
  <g>
    <path d="M251.92,144l.18.15v1l-.16.14a13.88,13.88,0,0,0-2.66.21,1.23,1.23,0,0,0-.74.52,3.35,3.35,0,0,0-.24,1.41c0,.71-.06,2.69-.11,6v9c0,1.31,0,2.78.06,4.42a11.55,11.55,0,0,0,.25,2.86,1.13,1.13,0,0,0,.67.59,12.66,12.66,0,0,0,2.77.24l.16.14v.95l-.18.16c-2.12-.12-4-.18-5.54-.18-1.07,0-2.89.06-5.45.18l-.18-.16v-.93l.16-.16a14.83,14.83,0,0,0,2.66-.21,1.27,1.27,0,0,0,.74-.52,3.57,3.57,0,0,0,.25-1.44q0-1.07.1-5.94V148l-6.74,14.1q-2.53,5.29-4.43,10h-.77c-.73-1.68-1.32-3-1.79-4l-9.34-19.4v13.66c0,1.27,0,2.74,0,4.4a11.28,11.28,0,0,0,.24,2.88,1.24,1.24,0,0,0,.69.59,11.66,11.66,0,0,0,2.77.23l.16.16v.93l-.18.18-1.25-.06c-1.29-.06-2.39-.1-3.32-.1-.42,0-2,.06-4.67.16l-.15-.16v-.93l.15-.18a14.52,14.52,0,0,0,2.66-.19,1.24,1.24,0,0,0,.73-.53,3.12,3.12,0,0,0,.26-1.39c0-.68,0-2.67.08-6v-8.95c0-1.19,0-2.63-.05-4.33a12.7,12.7,0,0,0-.23-2.95,1.2,1.2,0,0,0-.67-.59,11.54,11.54,0,0,0-2.78-.24l-.15-.15v-.94l.17-.17c.9.06,2.11.09,3.64.09s2.68,0,3.75-.09c1.09,2.52,2.14,4.81,3.14,6.85L234,166l6.68-13.93q2.72-5.64,3.65-8.12c1.25.06,2.48.09,3.7.09S250.44,144.05,251.92,144Z" fill="#fff"/>
    <path d="M253.88,171.68l-.18-.16v-1l.18-.16a8.56,8.56,0,0,0,1.83-.14,1.57,1.57,0,0,0,.73-.51,16.12,16.12,0,0,0,1.3-2.49l2.05-4.46,5.32-12c1-2.35,2-4.71,3-7.07h1.27l8.34,19.61,1.12,2.62c.32.74.7,1.55,1.12,2.42a7.2,7.2,0,0,0,.88,1.54,1.61,1.61,0,0,0,.61.37,6.64,6.64,0,0,0,1.61.14l.15.16v1l-.15.16c-1.38-.12-2.63-.18-3.73-.18l-6.49.18-.15-.16v-1l.15-.16a16.26,16.26,0,0,0,2.74-.18.66.66,0,0,0,.54-.68,3.39,3.39,0,0,0-.27-1.13l-2.4-6H262.12l-2.13,5a5.88,5.88,0,0,0-.57,2,.78.78,0,0,0,.53.72,9.12,9.12,0,0,0,2.66.25l.17.16v1l-.15.16c-1.68-.1-3.16-.16-4.42-.16C256.78,171.52,255.33,171.58,253.88,171.68Zm8.9-11h9.89L267.76,149Z" fill="#fff"/>
    <path d="M311.38,168.22l-.75,1.82a20.11,20.11,0,0,1-9.25,2.21q-7,0-11.46-4a13.47,13.47,0,0,1-4.4-10.47,13.85,13.85,0,0,1,2.19-7.78,13.66,13.66,0,0,1,5.8-5,19.29,19.29,0,0,1,8.1-1.65,24.07,24.07,0,0,1,5.14.55,21.39,21.39,0,0,1,4.24,1.31l.13.19a24.85,24.85,0,0,0-.84,5.41l-.13.16h-.92l-.16-.16-.19-3.32a10.6,10.6,0,0,0-3.45-1.77,14.07,14.07,0,0,0-4.21-.63,12.3,12.3,0,0,0-5.92,1.41,9.93,9.93,0,0,0-4.06,4.11,13.75,13.75,0,0,0-1.45,6.57,13.49,13.49,0,0,0,1.7,6.85,11.71,11.71,0,0,0,4.64,4.54,14.34,14.34,0,0,0,6.87,1.58,16.52,16.52,0,0,0,3.34-.33A12.91,12.91,0,0,0,309,169a11.66,11.66,0,0,0,2-1.19Z" fill="#fff"/>
    <path d="M313.64,143.93c3.32.1,5.18.15,5.59.15s2.3-.05,5.6-.15l.16.13v1l-.16.14c-.9,0-1.59.06-2.08.11a2.49,2.49,0,0,0-1.06.3,1.38,1.38,0,0,0-.44,1,17.57,17.57,0,0,0-.11,2.2l0,4.49V156c2.85.07,5.56.11,8.11.11,3.49,0,6.14,0,8-.11v-2.74l0-3.81a27.15,27.15,0,0,0-.12-2.87,2,2,0,0,0-.27-.86,1.37,1.37,0,0,0-.71-.35,16.94,16.94,0,0,0-2.61-.21l-.14-.14v-1l.14-.13c3.33.1,5.2.15,5.6.15s2.31-.05,5.61-.15l.15.13v1l-.15.14c-.91,0-1.61.06-2.1.11a2.59,2.59,0,0,0-1.07.3,1.38,1.38,0,0,0-.43,1c-.06.53-.1,1.26-.11,2.2l0,4.49v9.05l0,3.8A28.14,28.14,0,0,0,341,169a1.78,1.78,0,0,0,.29.85,1.41,1.41,0,0,0,.7.37,16.29,16.29,0,0,0,2.61.22l.15.12v1l-.15.16c-3.34-.1-5.2-.16-5.61-.16s-2.28.06-5.6.16l-.14-.16v-1l.14-.12a22.65,22.65,0,0,0,2.44-.19,1.66,1.66,0,0,0,.8-.31,1.64,1.64,0,0,0,.33-.79,15.86,15.86,0,0,0,.14-2.69l0-4.12v-4.46q-5.79-.12-8.11-.12c-1.59,0-4.24,0-8,.12v4.46l0,3.8a24.45,24.45,0,0,0,.12,2.86,1.8,1.8,0,0,0,.28.85,1.45,1.45,0,0,0,.72.37,16.21,16.21,0,0,0,2.59.22l.16.12v1l-.16.16c-3.32-.1-5.19-.16-5.6-.16s-2.27.06-5.59.16l-.15-.16v-1l.15-.12a22.12,22.12,0,0,0,2.42-.19,1.66,1.66,0,0,0,.81-.31,1.54,1.54,0,0,0,.34-.79,18.46,18.46,0,0,0,.14-2.69l0-4.12v-9.05l0-3.81c0-1.48-.05-2.44-.1-2.87a1.74,1.74,0,0,0-.28-.86,1.41,1.41,0,0,0-.71-.35,16.9,16.9,0,0,0-2.6-.21l-.15-.14v-1Z" fill="#fff"/>
    <path d="M346.92,143.93l2.44.07c1.61.06,2.65.08,3.15.08s2.31-.05,5.6-.15l.16.13v1l-.16.14c-.89,0-1.59.06-2.08.11a2.54,2.54,0,0,0-1.06.3,1.38,1.38,0,0,0-.44,1,17.57,17.57,0,0,0-.11,2.2l0,4.49v9.05l0,3.8c0,1.47.06,2.43.12,2.86a1.92,1.92,0,0,0,.28.85,1.5,1.5,0,0,0,.72.37,16.21,16.21,0,0,0,2.59.22l.16.12v1l-.16.16-3.43-.12-2.17,0c-.4,0-2.27.06-5.59.16l-.15-.16v-1l.15-.12a22.12,22.12,0,0,0,2.42-.19,1.76,1.76,0,0,0,.82-.31,1.64,1.64,0,0,0,.33-.79,18.46,18.46,0,0,0,.14-2.69l0-4.12v-9.05l0-3.81c0-1.48,0-2.44-.1-2.87a1.74,1.74,0,0,0-.28-.86,1.41,1.41,0,0,0-.71-.35,16.9,16.9,0,0,0-2.6-.21l-.15-.14v-1Z" fill="#fff"/>
    <path d="M360.11,171.68l-.18-.16v-1l.18-.16a8.56,8.56,0,0,0,1.83-.14,1.65,1.65,0,0,0,.74-.51,17.57,17.57,0,0,0,1.29-2.49l2-4.46,5.32-12q1.5-3.53,3-7.07h1.26l8.34,19.61,1.12,2.62c.32.74.7,1.55,1.12,2.42a7.2,7.2,0,0,0,.88,1.54,1.61,1.61,0,0,0,.61.37,6.64,6.64,0,0,0,1.61.14l.15.16v1l-.15.16c-1.38-.12-2.63-.18-3.73-.18l-6.49.18-.15-.16v-1l.15-.16a16.26,16.26,0,0,0,2.74-.18.66.66,0,0,0,.54-.68,3.39,3.39,0,0,0-.27-1.13l-2.4-6H368.35l-2.13,5a5.88,5.88,0,0,0-.57,2,.78.78,0,0,0,.53.72,9.12,9.12,0,0,0,2.66.25l.17.16v1l-.15.16c-1.68-.1-3.15-.16-4.42-.16C363,171.52,361.56,171.58,360.11,171.68Zm8.9-11h9.89L374,149Z" fill="#fff"/>
    <path d="M400,171.88c-.2-.58-1-2.76-2.44-6.57l-6.64-16.42a23.74,23.74,0,0,0-1.43-3.2q-.28-.37-2.34-.51L387,145v-.9l.18-.17c2,.1,3.68.15,5.08.15s3-.05,5.17-.15l.16.15v1.08l-.16.15a14.21,14.21,0,0,0-2.82.15.56.56,0,0,0-.46.56,14.92,14.92,0,0,0,.63,2.08c.41,1.23.78,2.27,1.11,3.11L402,166.66l5.1-12.81c.35-.87.87-2.28,1.54-4.22a17.86,17.86,0,0,0,1-3.5.59.59,0,0,0-.48-.62,23.29,23.29,0,0,0-2.86-.33l-.18-.16v-.94l.18-.15q3.42.15,4.35.15c.51,0,1.83-.05,3.95-.15l.16.15V145l-.16.16a5.88,5.88,0,0,0-1.7.21,1.29,1.29,0,0,0-.52.61c-.15.3-.61,1.33-1.39,3.08l-6.1,15c-1.36,3.35-2.34,5.95-2.91,7.8Z" fill="#fff"/>
    <path d="M416.86,144.06l.16-.13c4.47.07,7.32.11,8.57.11q6.42,0,11.41-.11l.1.13a32.34,32.34,0,0,0-.72,5.88l-.12.16h-1l-.17-.16c0-.11,0-.22,0-.31a18.8,18.8,0,0,0-.26-3.16,10.39,10.39,0,0,0-3.41-.72c-1.45-.11-2.54-.16-3.27-.16-1,0-2.34.07-3.94.21l-.08,3.13-.06,3.57-.06,4c1.41.07,2.7.11,3.89.11s2.2,0,3-.11a4.78,4.78,0,0,0,1.41-.25.79.79,0,0,0,.31-.49,6.25,6.25,0,0,0,.19-1.28l.08-1.21.15-.15h.9l.16.15c0,1.42-.06,2.85-.1,4.28l.1,4.39-.16.16h-.9l-.15-.16-.14-1.17c-.12-.91-.2-1.45-.25-1.63a.92.92,0,0,0-.36-.46,4,4,0,0,0-1.46-.31c-.78-.08-1.85-.12-3.22-.12-.76,0-1.91,0-3.46.1-.06,1.09-.1,2.92-.1,5.47,0,2.73,0,4.75.1,6h3.6q4.74,0,5.93-.12a7.88,7.88,0,0,0,2.27-.57,19.41,19.41,0,0,0,.57-2.08c.27-1.09.42-1.77.46-2l.2-.14H438l.15.14a29,29,0,0,0-.34,2.93c-.11,1.39-.17,2.58-.17,3.57l-.13.16c-2.49-.08-5.74-.12-9.77-.12l-5.31,0c-1.24,0-2.53.06-3.87.16l-.15-.16v-.64l.15-.2a10.1,10.1,0,0,0,1.32-.73,15.38,15.38,0,0,0,.27-3.42c.08-2.18.11-3.84.11-5v-7.16l0-4.44c0-1,0-1.75,0-2.35a7.34,7.34,0,0,0-.13-1.3,1.53,1.53,0,0,0-.23-.55.94.94,0,0,0-.41-.26,5.11,5.11,0,0,0-1-.19l-1.49-.11-.16-.14Z" fill="#fff"/>
    <path d="M440.59,144.06l.16-.13c3.23.1,5.09.15,5.59.15s2.31-.05,5.6-.15l.16.13v1l-.16.14c-.9,0-1.59.06-2.08.11a2.49,2.49,0,0,0-1.06.3,1.38,1.38,0,0,0-.44,1,17.57,17.57,0,0,0-.11,2.2l0,4.49v8.63c0,2.17,0,3.68,0,4.54l.1,3.38h4q4.77,0,5.95-.12a8.12,8.12,0,0,0,2.28-.57,17,17,0,0,0,.61-2.24c.27-1.18.41-1.85.42-2l.18-.15h1l.14.15c-.1.52-.21,1.53-.32,3s-.17,2.71-.17,3.63l-.15.16q-3.72-.12-9.75-.12l-5.7,0c-1.31,0-2.63.06-4,.16l-.15-.16v-.64l.15-.2a7.9,7.9,0,0,0,1.33-.76,12.12,12.12,0,0,0,.24-2.52c.09-1.59.13-3.5.13-5.74v-8.38l0-3.81c0-1.48-.05-2.44-.1-2.87a1.74,1.74,0,0,0-.28-.86,1.41,1.41,0,0,0-.71-.35,16.9,16.9,0,0,0-2.6-.21l-.16-.14Z" fill="#fff"/>
    <path d="M465,144.06l.15-.13c3.23.1,5.1.15,5.59.15s2.31-.05,5.61-.15l.15.13v1l-.15.14c-.9,0-1.6.06-2.08.11a2.55,2.55,0,0,0-1.07.3,1.38,1.38,0,0,0-.44,1,17.57,17.57,0,0,0-.11,2.2l0,4.49v8.63c0,2.17,0,3.68,0,4.54l.1,3.38h4c3.17,0,5.16,0,5.94-.12a8.12,8.12,0,0,0,2.28-.57,15.46,15.46,0,0,0,.61-2.24c.27-1.18.41-1.85.42-2l.18-.15h1l.13.15c-.1.52-.21,1.53-.32,3s-.16,2.71-.16,3.63l-.16.16q-3.7-.12-9.75-.12l-5.7,0c-1.3,0-2.63.06-4,.16l-.16-.16v-.64l.16-.2a7.56,7.56,0,0,0,1.32-.76,12.49,12.49,0,0,0,.25-2.52c.08-1.59.13-3.5.13-5.74v-8.38l0-3.81c0-1.48-.05-2.44-.11-2.87a1.87,1.87,0,0,0-.27-.86,1.5,1.5,0,0,0-.72-.35,16.9,16.9,0,0,0-2.6-.21L465,145Z" fill="#fff"/>
    <path d="M489.89,143.93l2.44.07c1.6.06,2.65.08,3.15.08s2.31-.05,5.6-.15l.16.13v1l-.16.14c-.9,0-1.59.06-2.08.11a2.49,2.49,0,0,0-1.06.3,1.38,1.38,0,0,0-.44,1,17.57,17.57,0,0,0-.11,2.2l0,4.49v9.05l0,3.8a24.45,24.45,0,0,0,.12,2.86,1.8,1.8,0,0,0,.28.85,1.45,1.45,0,0,0,.72.37,16.21,16.21,0,0,0,2.59.22l.16.12v1l-.16.16-3.43-.12-2.17,0c-.41,0-2.27.06-5.59.16l-.15-.16v-1l.15-.12a22.12,22.12,0,0,0,2.42-.19,1.66,1.66,0,0,0,.81-.31,1.54,1.54,0,0,0,.34-.79,18.46,18.46,0,0,0,.14-2.69l0-4.12v-9.05l0-3.81c0-1.48-.05-2.44-.1-2.87a1.74,1.74,0,0,0-.28-.86,1.41,1.41,0,0,0-.71-.35,16.9,16.9,0,0,0-2.6-.21l-.15-.14v-1Z" fill="#fff"/>
    <path d="M503.68,154l-.59-.45a25.94,25.94,0,0,0,1.61-2.76,15,15,0,0,0,.91-2.62,27.84,27.84,0,0,0,.63-3.39,32,32,0,0,0,3.81-1.14l.56.47a32.66,32.66,0,0,1-5.13,8.95Z" fill="#fff"/>
    <path d="M514.87,164.81l.16-.16h1l.15.16a17.26,17.26,0,0,0,.27,3.05,2.49,2.49,0,0,0,1.05,1.17,7.54,7.54,0,0,0,2.36,1,11.67,11.67,0,0,0,3,.39,8.74,8.74,0,0,0,3.72-.76,5.85,5.85,0,0,0,2.57-2.24,6.13,6.13,0,0,0,.92-3.31,5.33,5.33,0,0,0-.44-2.24,3.83,3.83,0,0,0-1.23-1.54,5.71,5.71,0,0,0-1.81-.86,29.87,29.87,0,0,0-3-.61q-2-.31-3.06-.57a10.53,10.53,0,0,1-2.2-.78,5.7,5.7,0,0,1-1.82-1.34,6.18,6.18,0,0,1-1.18-2,7.27,7.27,0,0,1-.44-2.53,7.8,7.8,0,0,1,2.54-6,9.73,9.73,0,0,1,6.82-2.33,18.09,18.09,0,0,1,3.7.42,14.85,14.85,0,0,1,3.64,1.24l.14.24a26.64,26.64,0,0,0-.53,5.11l-.17.16h-1l-.16-.14c0-1.56-.06-2.54-.11-3s-.65-.9-1.78-1.5a7.75,7.75,0,0,0-3.69-.9,7.42,7.42,0,0,0-3.11.66,4.56,4.56,0,0,0-2.18,2.09,6.18,6.18,0,0,0-.75,2.91,4.51,4.51,0,0,0,.45,2,3.84,3.84,0,0,0,1.16,1.4,4.93,4.93,0,0,0,1.67.77c.63.17,1.78.38,3.46.63a20.43,20.43,0,0,1,5,1.18,5.53,5.53,0,0,1,2.52,2.2,6.68,6.68,0,0,1,.95,3.63,8.6,8.6,0,0,1-3.39,6.93,12.55,12.55,0,0,1-8.21,2.78,16.41,16.41,0,0,1-7.09-1.45l-.12-.25A56.32,56.32,0,0,0,514.87,164.81Z" fill="#fff"/>
    <path d="M543.74,171.68l-.18-.16v-1l.18-.16a8.75,8.75,0,0,0,1.84-.14,1.68,1.68,0,0,0,.73-.51,17.14,17.14,0,0,0,1.3-2.49l2-4.46,5.31-12q1.5-3.53,3-7.07h1.27l8.34,19.61,1.11,2.62c.33.74.7,1.55,1.12,2.42a7.69,7.69,0,0,0,.88,1.54,1.78,1.78,0,0,0,.61.37,6.7,6.7,0,0,0,1.61.14l.16.16v1l-.16.16c-1.38-.12-2.62-.18-3.73-.18q-3.24.1-6.49.18l-.15-.16v-1l.15-.16a16.26,16.26,0,0,0,2.74-.18.66.66,0,0,0,.55-.68,3.45,3.45,0,0,0-.28-1.13l-2.4-6H552l-2.13,5a5.8,5.8,0,0,0-.56,2,.77.77,0,0,0,.52.72,9.17,9.17,0,0,0,2.66.25l.18.16v1l-.16.16c-1.68-.1-3.15-.16-4.41-.16C546.64,171.52,545.2,171.58,543.74,171.68Zm8.91-11h9.88L557.63,149Z" fill="#fff"/>
    <path d="M574.58,144.06l.16-.13c2.25.1,3.78.15,4.6.15l9.15-.19a23.23,23.23,0,0,1,6.4.73,11,11,0,0,1,4.45,2.54,12,12,0,0,1,2.94,4.2,13.05,13.05,0,0,1,1,5.11,15.51,15.51,0,0,1-.92,5.21,15,15,0,0,1-2.61,4.62,14.32,14.32,0,0,1-8.17,5,23.18,23.18,0,0,1-4.43.42c-1,0-2.93,0-5.74-.12l-1.84,0c-.9,0-2,.06-3.26.16l-.16-.16v-.64l.16-.2a10.1,10.1,0,0,0,1.32-.73,15.38,15.38,0,0,0,.27-3.42c.07-2.18.11-3.84.11-5v-7.16l0-4.44c0-1,0-1.75,0-2.35a7.11,7.11,0,0,0-.14-1.3,1.55,1.55,0,0,0-.22-.55,1,1,0,0,0-.41-.26,5.08,5.08,0,0,0-1-.19l-1.48-.11-.16-.14Zm7.23,25.49a24,24,0,0,0,4.59.39,15,15,0,0,0,7.27-1.52,9.48,9.48,0,0,0,4.07-4.51,16.23,16.23,0,0,0,1.35-6.74c0-3.69-1-6.54-3-8.58s-5.06-3-9.3-3a31.55,31.55,0,0,0-5,.39q-.16,3.19-.16,7.22v6.14l0,5.74C581.69,166.16,581.73,167.66,581.81,169.55Z" fill="#fff"/>
    <path d="M606.1,143.93l2.44.07c1.61.06,2.65.08,3.15.08s2.31-.05,5.6-.15l.16.13v1l-.16.14c-.89,0-1.59.06-2.08.11a2.54,2.54,0,0,0-1.06.3,1.38,1.38,0,0,0-.44,1,17.57,17.57,0,0,0-.11,2.2l0,4.49v9.05l0,3.8a27.06,27.06,0,0,0,.12,2.86,1.92,1.92,0,0,0,.28.85,1.45,1.45,0,0,0,.72.37,16.21,16.21,0,0,0,2.59.22l.16.12v1l-.16.16-3.43-.12-2.17,0c-.41,0-2.27.06-5.59.16l-.15-.16v-1l.15-.12a22.12,22.12,0,0,0,2.42-.19,1.76,1.76,0,0,0,.82-.31,1.64,1.64,0,0,0,.33-.79,18.46,18.46,0,0,0,.14-2.69l0-4.12v-9.05l0-3.81c0-1.48,0-2.44-.1-2.87a1.74,1.74,0,0,0-.28-.86,1.41,1.41,0,0,0-.71-.35,16.9,16.9,0,0,0-2.6-.21L606,145v-1Z" fill="#fff"/>
    <path d="M631.86,171.88c-.19-.58-1-2.76-2.44-6.57l-6.64-16.42a24.4,24.4,0,0,0-1.42-3.2c-.2-.25-1-.42-2.35-.51l-.17-.18v-.9l.17-.17c2,.1,3.69.15,5.08.15s3-.05,5.18-.15l.15.15v1.08l-.15.15a14.27,14.27,0,0,0-2.83.15.56.56,0,0,0-.45.56,14.07,14.07,0,0,0,.62,2.08c.42,1.23.79,2.27,1.11,3.11l6.12,15.45,5.09-12.81c.36-.87.87-2.28,1.55-4.22a18.26,18.26,0,0,0,1-3.5.59.59,0,0,0-.48-.62,23,23,0,0,0-2.86-.33L638,145v-.94l.17-.15c2.28.1,3.73.15,4.36.15s1.82-.05,3.94-.15l.16.15V145l-.16.16a5.79,5.79,0,0,0-1.69.21,1.29,1.29,0,0,0-.52.61c-.15.3-.62,1.33-1.4,3.08l-6.09,15q-2.06,5-2.91,7.8Z" fill="#fff"/>
    <path d="M648.86,164.81l.15-.16h1l.16.16a17.7,17.7,0,0,0,.26,3.05,2.49,2.49,0,0,0,1.05,1.17,7.6,7.6,0,0,0,2.37,1,11.55,11.55,0,0,0,3,.39,8.74,8.74,0,0,0,3.72-.76,5.91,5.91,0,0,0,2.57-2.24,6.12,6.12,0,0,0,.91-3.31,5.18,5.18,0,0,0-.44-2.24,3.83,3.83,0,0,0-1.23-1.54,5.66,5.66,0,0,0-1.8-.86,30.8,30.8,0,0,0-3-.61q-1.95-.31-3.06-.57a10.45,10.45,0,0,1-2.19-.78,5.86,5.86,0,0,1-1.83-1.34,6,6,0,0,1-1.17-2,7,7,0,0,1-.44-2.53,7.76,7.76,0,0,1,2.54-6,9.69,9.69,0,0,1,6.81-2.33,18,18,0,0,1,3.7.42A14.93,14.93,0,0,1,665.5,145l.13.24a26.79,26.79,0,0,0-.52,5.11l-.18.16h-1l-.16-.14c0-1.56-.07-2.54-.12-3s-.64-.9-1.78-1.5a7.75,7.75,0,0,0-3.69-.9,7.37,7.37,0,0,0-3.1.66,4.54,4.54,0,0,0-2.19,2.09,6.17,6.17,0,0,0-.74,2.91,4.51,4.51,0,0,0,.45,2,3.75,3.75,0,0,0,1.16,1.4,4.88,4.88,0,0,0,1.66.77c.63.17,1.79.38,3.47.63a20.55,20.55,0,0,1,5,1.18,5.63,5.63,0,0,1,2.52,2.2,6.67,6.67,0,0,1,.94,3.63,8.6,8.6,0,0,1-3.39,6.93,12.53,12.53,0,0,1-8.21,2.78,16.44,16.44,0,0,1-7.09-1.45l-.12-.25C648.69,169.73,648.79,167.81,648.86,164.81Z" fill="#fff"/>
    <path d="M669.25,158.07a17.27,17.27,0,0,1,.84-5.47,12.68,12.68,0,0,1,2.86-4.7,13.88,13.88,0,0,1,4.87-3.34,16.67,16.67,0,0,1,6.45-1.18q6.66,0,10.6,3.62t4,9.9a16.2,16.2,0,0,1-1.94,7.93,13.53,13.53,0,0,1-5.53,5.46,16.76,16.76,0,0,1-8.1,2,15.74,15.74,0,0,1-5.86-1.07,12.07,12.07,0,0,1-4.56-3.17,12.85,12.85,0,0,1-2.73-4.88A17.32,17.32,0,0,1,669.25,158.07Zm4.06-1.29a19.19,19.19,0,0,0,.77,5.13,13.51,13.51,0,0,0,2.31,4.7,9.92,9.92,0,0,0,3.53,2.92,11.22,11.22,0,0,0,10-.43,8.69,8.69,0,0,0,3.6-4.3,16.78,16.78,0,0,0,1.23-6.56,17.45,17.45,0,0,0-1.41-7.13,9.41,9.41,0,0,0-4-4.62,11.64,11.64,0,0,0-5.77-1.45,9.68,9.68,0,0,0-7.48,3Q673.31,151,673.31,156.78Z" fill="#fff"/>
    <path d="M700.58,144.06l.15-.13c2.38.1,4.24.15,5.57.15s3.46,0,6-.13c.92,0,1.59,0,2,0q4.93,0,6.7,1.79a5.89,5.89,0,0,1,1.75,4.26,6.56,6.56,0,0,1-.86,3.22,7.58,7.58,0,0,1-2.53,2.71,12.73,12.73,0,0,1-4.63,1.69c.36.51,1,1.39,2,2.64l2.77,3.67q1.35,1.81,2.89,3.84a12.65,12.65,0,0,0,2,2.28,2.34,2.34,0,0,0,.77.32,6.09,6.09,0,0,0,1,.06l.16.16v.92l-.18.17a17.65,17.65,0,0,0-2.22-.12q-1.39,0-3,.12c-.9-1.09-2.31-3-4.24-5.68q-3.36-4.69-6.87-8.69l.19-.61c.68,0,1.2.06,1.58.06a8,8,0,0,0,5.3-1.62,5.59,5.59,0,0,0,1.91-4.49,4.6,4.6,0,0,0-1.72-3.9,7.43,7.43,0,0,0-4.65-1.32,12.83,12.83,0,0,0-3.86.57c-.2.28-.3,2.73-.3,7.32v9.05l0,3.8a24.45,24.45,0,0,0,.12,2.86,1.8,1.8,0,0,0,.28.85,1.45,1.45,0,0,0,.72.37,16.21,16.21,0,0,0,2.59.22l.16.12v1l-.16.16-3.43-.12-2.17,0c-.41,0-2.27.06-5.59.16l-.15-.16v-1l.15-.12a22.12,22.12,0,0,0,2.42-.19,1.66,1.66,0,0,0,.81-.31,1.54,1.54,0,0,0,.34-.79,18.46,18.46,0,0,0,.14-2.69l0-4.12v-9.05l0-3.81c0-1.48,0-2.44-.1-2.87a1.74,1.74,0,0,0-.28-.86,1.41,1.41,0,0,0-.71-.35,16.9,16.9,0,0,0-2.6-.21l-.15-.14Z" fill="#fff"/>
    <path d="M726,145.76l-.18-.17v-.82l.18-.18,5.52-.92a7.26,7.26,0,0,1,1.15,1,18.68,18.68,0,0,1,1.62,2.33q1.07,1.71,2.74,4.77c1.12,2,2.2,4.08,3.22,6.12l2-3.16,2.24-3.75,4.14-7.09c.51,0,1,.07,1.49.07.3,0,.75,0,1.36-.07l.16.15v.37q-1,1.08-3,3.9t-3.05,4.41c-.67,1.07-1.5,2.4-2.47,4a20.55,20.55,0,0,0-1.61,2.9,4.34,4.34,0,0,0-.13,1.15v2.87l0,2.93a18.89,18.89,0,0,0,.12,2.37,1.74,1.74,0,0,0,.3.88,1.45,1.45,0,0,0,.7.35,16.58,16.58,0,0,0,2.59.21l.15.12v1l-.15.16-3.44-.12-2.17,0c-.41,0-2.28.06-5.58.16l-.16-.16v-1l.16-.12a21.93,21.93,0,0,0,2.44-.19,1.71,1.71,0,0,0,.79-.31,1.34,1.34,0,0,0,.32-.72,14.12,14.12,0,0,0,.14-2.2l0-3.34V160a55.34,55.34,0,0,0-2.87-5.06L733,152.11c-.55-.89-1.24-1.92-2.06-3.1a16.75,16.75,0,0,0-1.93-2.4,3.21,3.21,0,0,0-1-.74A10.37,10.37,0,0,0,726,145.76Z" fill="#fff"/>
    <path d="M763.08,145.18l-.16-.14v-1l.16-.13c2.22.1,3.94.15,5.15.15.46,0,2.26-.05,5.41-.15,1,0,1.75,0,2.21,0a13.41,13.41,0,0,1,4.18.52,5,5,0,0,1,2.48,1.87,5.19,5.19,0,0,1,.94,3,6.1,6.1,0,0,1-1.57,4,9.06,9.06,0,0,1-5.07,2.66,21.88,21.88,0,0,1,3.47.56,6.71,6.71,0,0,1,2.37,1.15,5.41,5.41,0,0,1,1.57,2,6.71,6.71,0,0,1,.57,2.85,9,9,0,0,1-.39,2.58,7.74,7.74,0,0,1-1.43,2.6,10.16,10.16,0,0,1-2.53,2.2,11.13,11.13,0,0,1-3,1.33,15.51,15.51,0,0,1-3.86.41c-.31,0-1.25,0-2.81-.1l-2.81-.06c-.89,0-2,.06-3.26.16l-.16-.16v-.64l.16-.2A5.47,5.47,0,0,0,766,170a15.83,15.83,0,0,0,.28-3.46c.07-2.17.11-3.83.11-5v-7.16l0-4.44c0-1,0-1.75,0-2.35a11,11,0,0,0-.11-1.3,1.14,1.14,0,0,0-.22-.55,1.31,1.31,0,0,0-.44-.26,5.08,5.08,0,0,0-1-.19Zm7,10.25c.65,0,1.38.08,2.2.08,2.7,0,4.57-.48,5.63-1.45a5.1,5.1,0,0,0,1.58-4,4.83,4.83,0,0,0-.6-2.49A3.82,3.82,0,0,0,777,146a9.14,9.14,0,0,0-3.52-.55,16.13,16.13,0,0,0-3.21.29c-.11,1.17-.17,3.22-.17,6.13Zm0,14.24a13.72,13.72,0,0,0,3.08.35,8.94,8.94,0,0,0,4.38-.9,5.55,5.55,0,0,0,2.33-2.49,8,8,0,0,0,.75-3.47,6.31,6.31,0,0,0-1.59-4.5c-1.06-1.12-3.36-1.69-6.88-1.69-.59,0-1.29,0-2.11.08v6.66Z" fill="#fff"/>
    <path d="M787.74,158.07a17.27,17.27,0,0,1,.84-5.47,12.81,12.81,0,0,1,2.86-4.7,13.92,13.92,0,0,1,4.88-3.34,16.65,16.65,0,0,1,6.44-1.18q6.66,0,10.61,3.62t3.94,9.9a16.19,16.19,0,0,1-1.93,7.93,13.49,13.49,0,0,1-5.54,5.46,16.72,16.72,0,0,1-8.09,2,15.71,15.71,0,0,1-5.86-1.07,11.92,11.92,0,0,1-4.56-3.17,13,13,0,0,1-2.74-4.88A17.66,17.66,0,0,1,787.74,158.07Zm4.07-1.29a18.79,18.79,0,0,0,.77,5.13,13.49,13.49,0,0,0,2.3,4.7,9.87,9.87,0,0,0,3.54,2.92,11.22,11.22,0,0,0,10-.43,8.72,8.72,0,0,0,3.59-4.3,16.78,16.78,0,0,0,1.23-6.56,17.62,17.62,0,0,0-1.4-7.13,9.43,9.43,0,0,0-4-4.62A11.57,11.57,0,0,0,802,145a9.67,9.67,0,0,0-7.48,3Q791.81,151,791.81,156.78Z" fill="#fff"/>
    <path d="M819.11,171.68l-.18-.16v-1l.18-.16a8.75,8.75,0,0,0,1.84-.14,1.68,1.68,0,0,0,.73-.51,17.14,17.14,0,0,0,1.3-2.49l2-4.46,5.31-12q1.5-3.53,3-7.07h1.27l8.34,19.61,1.11,2.62c.33.74.7,1.55,1.13,2.42a7.36,7.36,0,0,0,.87,1.54,1.78,1.78,0,0,0,.61.37,6.7,6.7,0,0,0,1.61.14l.16.16v1l-.16.16c-1.38-.12-2.62-.18-3.73-.18l-6.48.18-.16-.16v-1l.16-.16a16.1,16.1,0,0,0,2.73-.18.66.66,0,0,0,.55-.68,3.21,3.21,0,0,0-.28-1.13l-2.4-6H827.35l-2.13,5a6,6,0,0,0-.56,2,.77.77,0,0,0,.52.72,9.17,9.17,0,0,0,2.66.25l.18.16v1l-.16.16c-1.68-.1-3.15-.16-4.41-.16C822,171.52,820.57,171.58,819.11,171.68Zm8.91-11h9.88L833,149Z" fill="#fff"/>
    <path d="M850.18,144.06l.16-.13c2.38.1,4.24.15,5.57.15s3.45,0,6-.13c.93,0,1.6,0,2,0q4.93,0,6.7,1.79a5.89,5.89,0,0,1,1.75,4.26,6.56,6.56,0,0,1-.86,3.22,7.61,7.61,0,0,1-2.54,2.71,12.68,12.68,0,0,1-4.62,1.69c.36.51,1,1.39,2,2.64l2.77,3.67q1.35,1.81,2.89,3.84a12.78,12.78,0,0,0,2,2.28,2.38,2.38,0,0,0,.78.32,6.09,6.09,0,0,0,1,.06l.16.16v.92l-.18.17a17.77,17.77,0,0,0-2.22-.12q-1.4,0-3,.12c-.9-1.09-2.31-3-4.24-5.68a110.17,110.17,0,0,0-6.88-8.69l.2-.61c.68,0,1.2.06,1.58.06a8,8,0,0,0,5.3-1.62,5.59,5.59,0,0,0,1.91-4.49,4.6,4.6,0,0,0-1.72-3.9,7.43,7.43,0,0,0-4.65-1.32,12.89,12.89,0,0,0-3.87.57c-.19.28-.29,2.73-.29,7.32v9.05l0,3.8a24.45,24.45,0,0,0,.12,2.86,1.8,1.8,0,0,0,.28.85,1.45,1.45,0,0,0,.71.37,16.53,16.53,0,0,0,2.6.22l.16.12v1l-.16.16-3.44-.12-2.16,0c-.41,0-2.27.06-5.59.16l-.16-.16v-1l.16-.12a22.12,22.12,0,0,0,2.42-.19,1.66,1.66,0,0,0,.81-.31,1.54,1.54,0,0,0,.34-.79,18.46,18.46,0,0,0,.14-2.69l0-4.12v-9.05l0-3.81c0-1.48,0-2.44-.1-2.87a1.74,1.74,0,0,0-.28-.86,1.41,1.41,0,0,0-.71-.35,16.9,16.9,0,0,0-2.6-.21l-.16-.14Z" fill="#fff"/>
    <path d="M876.67,144.06l.16-.13c2.25.1,3.78.15,4.6.15l9.15-.19a23.23,23.23,0,0,1,6.4.73,11,11,0,0,1,4.45,2.54,12,12,0,0,1,2.94,4.2,12.87,12.87,0,0,1,1,5.11,15.51,15.51,0,0,1-.92,5.21,15,15,0,0,1-2.61,4.62,14.32,14.32,0,0,1-8.17,5,23.18,23.18,0,0,1-4.43.42c-1,0-2.93,0-5.74-.12l-1.84,0c-.9,0-2,.06-3.26.16l-.16-.16v-.64l.16-.2a10.1,10.1,0,0,0,1.32-.73,15.38,15.38,0,0,0,.27-3.42c.07-2.18.11-3.84.11-5v-7.16l0-4.44c0-1,0-1.75,0-2.35a7.11,7.11,0,0,0-.14-1.3,1.55,1.55,0,0,0-.22-.55,1,1,0,0,0-.41-.26,5.08,5.08,0,0,0-1-.19l-1.48-.11-.16-.14Zm7.23,25.49a24,24,0,0,0,4.59.39,15,15,0,0,0,7.27-1.52,9.48,9.48,0,0,0,4.07-4.51,16.23,16.23,0,0,0,1.35-6.74c0-3.69-1-6.54-2.95-8.58s-5.06-3-9.3-3a31.55,31.55,0,0,0-5,.39q-.17,3.19-.16,7.22v6.14l0,5.74C883.78,166.16,883.82,167.66,883.9,169.55Z" fill="#fff"/>
  </g>
  <g clip-path="url(#clip-path)">
    <path d="M1348.25,190.85a38.76,38.76,0,0,0-10.57-5.95,37,37,0,0,1-8.39-4.68c-1.62-3.95-3.43-9.27-4-9.61-1.5-.85.26-3-.16-4.57-2.12-8-1.79-16.47-4.42-24.41a93.6,93.6,0,0,0-4.61-10.45,4.34,4.34,0,0,0-2.53-2.26l-5.84-2.15c-3.82-1.44-4.73-5.77-1.67-8.48,1.12-1,.85-1.74,0-2.46-3.59-3.13-8-4.75-12.47-5.83-1.79-.43-2.87,1.23-2.24,3.4a5,5,0,0,1-.56,4.7,1.43,1.43,0,0,0,0,2,1.73,1.73,0,0,1,.41,1.36c-1,3.19,1.25,5.25,2.75,7.45.67,1,.21,1.21-.35,1.37-5.32,1.45-6,6-6.72,10.32-.84,5-1.57,10.07-2.38,15.1-.23-.18-.46-.36-.67-.55a3.67,3.67,0,0,1-1.8-3.4,8,8,0,0,1,0-1.85,19.73,19.73,0,0,0-2.52-8.47h0a6.87,6.87,0,0,1-.62-1.21c-3-7.59-8.76-12.11-16.07-15-5.27-2.05-10.62-1.61-15.83.29-2,.74-3.11.69-3.35-1.73-.09-.86-.21-2-1.27-2.21s-1.19,1-1.62,1.64a70.91,70.91,0,0,1-5.42,8,7.45,7.45,0,0,0-1.37,7.71,20,20,0,0,1,0,13.66,15.06,15.06,0,0,0-.6,2.66c-.51,3.17.82,5.13,4,6a1.51,1.51,0,0,0,1.73-.58c.86-1,1.73-2,2.58-3,.75.14.82.82,1.17,1.26,1.58,2,3.38,1.76,4.26-.56a74.23,74.23,0,0,1,3.92-9.13,1.68,1.68,0,0,1,1.22-1.14,9.75,9.75,0,0,1-.59,6.61,8.84,8.84,0,0,1-1.68,2.75c-3.9,3.81-6.23,8.53-8,13.56-.59,1.65-1.49,1.15-2.49.51a24.75,24.75,0,0,0-7.15-3.4,5,5,0,0,0-5.07,1.11,98.93,98.93,0,0,0-18.56,22.9c-.91,1.54-.27,2,1.2,2.3,3,.51,5.21-.4,6.21-3.25,2-5.75,6.59-9.48,10.5-13.68,2.52-2.7,4.12-2.58,6.73-.61,2.86,2.14,4.18,5.31,2.85,7.73-4.29,7.84-8.2,15.92-13.6,23.11a25.46,25.46,0,0,1-7.27,6.33c-1.36.83-1.14,1.26,0,2.06,4.5,3.22,4.52,3.28,7.73-.42,8.48-9.79,18.1-18.45,27.36-27.48,3.83-3.74,4-3.73,8.7-.52-2.83,1.78-2.88,2.27-.43,4.59a5.07,5.07,0,0,0,3,1.73c5.23.26,9.1,3,12.77,6.43a18.45,18.45,0,0,0,11.55,4.62c1.53.11,2.24.24,1.48,2.19a6.83,6.83,0,0,0,5.42,8.5c1.85.29,2,1.14,2,2.65,0,6.66-2.67,11.46-9.16,13.88-2.79,1-5.44,2.46-8.13,3.76a27,27,0,0,0-10.09,9c-.64.89-1.69,2-.23,3s2.6,2.7,4.59,1.28a6.85,6.85,0,0,0,1.93-1.9c2-3.33,5-5.2,8.45-6.65a122,122,0,0,1,20.67-7.13,2.41,2.41,0,0,0,2.11-2.32,24,24,0,0,0-.14-6.45,11,11,0,0,1,.75-5.84c.38-.83.68-1.88,1.75-1.86s1.19,1.07,1.41,1.82c2.72,9,3.73,18.2,1.12,27.45-1.63,5.75-3.27,11.52-7.61,16a26.23,26.23,0,0,0-2.09,2.13c-.67.85-2.7,1-1.81,2.65s4.5,2.74,5.82,1.91c4-2.51,6.05-6.57,7.69-10.73,2.22-5.66,5.24-10.9,8-16.28,1.13-2.22,1.8-4.34,1.09-6.89-1.92-6.86,1.69-12,5.63-16.95a117.68,117.68,0,0,0,8.4-11.08c2.86-4.64,4.4-9.45,2.91-14.91-.22-.77-.61-1.83.34-2.22s1.43.69,1.86,1.32c2.41,3.52,2.43,7.56,2,11.53a64.9,64.9,0,0,1-11.56,31.37c-.17.25-.32.52-.48.78l.48.41a92.13,92.13,0,0,0,15.6-13.31c3.18-3.41,6.09-7,7.82-11.43C1357.09,202.74,1355.16,196.28,1348.25,190.85Z" fill="#fff"/>
  </g>
</svg>
