<svg id="Layer_1" data-name="Layer 1" xmlns="http://www.w3.org/2000/svg" xmlns:xlink="http://www.w3.org/1999/xlink" viewBox="0 0 1344.29 194.65">
  <defs>
    <clipPath id="clip-path">
      <rect y="30.14" width="202.73" height="143.38" fill="none"/>
    </clipPath>
    <clipPath id="clip-path-2">
      <rect x="9.31" y="-210.33" width="167.33" height="138.99" fill="none"/>
    </clipPath>
  </defs>
  <title>banner-10</title>
  <g clip-path="url(#clip-path)">
    <g>
      <path d="M52.4,41.09c-4.35-1.57-6.27-4-9.76-3.84,0,0-6.79-.35-7.32,3.84s1,5.76-1.57,8.11S23,59.39,20.86,66.88s-3.14,18.83-3.14,18.83S9.53,94.25,7.61,97s-1.14,11.16,0,12.19-1.2,1.76,1.51,2.42,2.25,1.32,3.46,2.54,2.9,1.49,5.15,1.49,6.36,0,7.48.56a5.18,5.18,0,0,1,2.62,2.25c1.12,1.59,1.5,2.06,1.59,3.37s1.56,17.2,0,23.85C28,151.76,28,173.52,28,173.52H197.18s-15.1-31.18-15.1-34.55a15.45,15.45,0,0,0-8.42-12.62c-5.89-2.81-13.47-8.7-14.31-10.39s-2,2.25-3.65-5,1-7.57-3.18-10.75a91.73,91.73,0,0,1-9.17-7.68c-2.62-2.52-2.15-2-4.77-5.61s-4.21-2.9-6.08-9.44-2.62-5.24-3.74-7.58-.37-1.87-2.06-4-4.21-5.43-5.61-7.3a12.08,12.08,0,0,0-4.68-4.12c-2.62-1.49-4.67-2.43-6.45-4.58s-2.43-3.65-5.33-4.77-4.49-1.12-8.42-1.4-.66.46-7.11-.56a56.56,56.56,0,0,0-9.54-1c-2.25-.1-3.09-1.5-9.92-1.5s-7.76-.93-10.85,0A17.41,17.41,0,0,1,52.4,41.09Z" fill="#bca537"/>
      <path d="M127.29,173.52h69.89s-15.1-31.18-15.1-34.55a15.45,15.45,0,0,0-8.42-12.62c-5.89-2.81-13.47-8.7-14.31-10.39s-2,2.25-3.65-5,1-7.57-3.18-10.75a93.2,93.2,0,0,1-9.17-7.67c-2.62-2.53-2.15-2-4.77-5.62s-4.21-2.9-6.08-9.44-2.62-5.24-3.74-7.58-.37-1.87-2.06-4-4.21-5.43-5.61-7.3a12.08,12.08,0,0,0-4.68-4.12c-2.62-1.49-4.67-2.43-6.45-4.58s-2.43-3.65-5.33-4.77-4.49-1.12-8.42-1.4-.66.46-7.11-.56a56.56,56.56,0,0,0-9.54-1c-2.25-.1-3.09-1.5-9.92-1.5s-7.76-.94-10.85,0a17.41,17.41,0,0,1-6.39.52c-4.35-1.57-6.27-4-9.76-3.84,0,0-6.79-.35-7.32,3.84s1,5.76-1.57,8.11a66.13,66.13,0,0,0-7.61,8.12c4.84,2.7,1,3.1,1.63,4.6s1.95.18,2.95.18,1.13,1.6,3.8,4.62,3.91,2,6.39.89,2.84-4.27,4.42-6.45,2.51.23,5.64,0,5.57.41,5.09,4.83,1.55.73,7.32,5.18,3.29.88,6.13,4.08,5.15,2.84,5.86,5-.71,5.6-.71,5.6,3.73,2.13,11,2.31,9.59,1.07,7,4.8-4.87,3,1.71,3,5.32,2.32,5.35,4.27-2.51,2.13-10,5-2.49,2.49-.71,5.69.71,2.84.17,4.55-2.13,2.37-6.91,4.51-2.32,2.3-9.25,4.79-4.62,2.13-6.28,5.86,7.17,4.27,5.39,6.57-.35,1.6.89,4.8,3.55,2.66,7.28,2.84,7.64-1.06,28.78-2.48,2.48,1.77,1.77,4.26-.53,2.84-3.55,6-8.7,3.73-7.87,8,4.5-.18,11.78-.18,13.85,0,20.78,1.78c3.05.78-1.92,2.75-3.15,4.85C127.32,169.79,128.78,172.66,127.29,173.52Z" fill="#9b6503"/>
      <path d="M45.79,77.33c2.46-3,7.86-3.27,11.32-3.18s8.6-.37,9.54.38S63.28,79.86,60.2,80s-6.35.46-9.44.32C49.05,80.2,43.76,79.81,45.79,77.33Z" fill="#292100"/>
      <path d="M84,55.63c1.07-3.57,4.16-7,5.71-7.85s2.85-2,6.06-2.14,5.71-.24,7.5,1.19a26.83,26.83,0,0,1,4.4,4.28c2.85,3.09,3,3.09,3.81,6.3s1.66,3.34,2.14,5.12,2.5,1.19.71,4.28a29.81,29.81,0,0,0-2.73,6.64c-.84,2.28,1.54,2.88-2.38,3.23A9.85,9.85,0,0,1,101,74.09a7.92,7.92,0,0,1-2.14-2.76l2.67.72c2.15.57,4.94,2.85,6,.35s1.73-2.1,1.4-3.72-.09.27-.09-2.46.71-2.62,0-3.81-1,.12-1-2.5.47-.24-.72-3.57-.11-3-2.26-4.4-2.9-1.9-5.2-3.21S96,45.88,93.87,47.9s-2.62,1.78-4.64,3.57a7.1,7.1,0,0,0-2.5,3.45c-.35.83.6-.36-1.42,1.42S84,55.63,84,55.63Z" fill="#5e3101"/>
      <path d="M95.89,54.08c-2,0-4-2.61-2.61,0s2,2.5,1.54,3.69S93.16,58,93.51,60s-1.31,3.09-.71,2.86,2.22-1.14,3.09-1.38S97,60.1,98.75,62.92s1.59,3.52,1.78,2.82a4,4,0,0,1,.48-1.66c.59-1.31.36-1.07,1.19-1.79s2.5,2.73,1.43-1.13-.91-4.19-2.12-5.27-2-1.81-2-1.81Z" fill="#654102"/>
      <path d="M13.41,96.22c1-3.13,3-7.2,6.19-9s3.88-3.65,7.41-5.61,1.71-.46,5.92-1.29,4.73-1,6.41-1.41,1.87-2.41,2.57,0,1.12,4,0,5.78a23.19,23.19,0,0,1-4.49,4.63c-1.54,1.41.7.71-4.49,2.67s-6.6,1.12-8,2.39-2,.28-2.67,2.66-.13,2.25-2.38,3.37-3.09,3.37-3.93,1A32.85,32.85,0,0,0,13.41,96.22Z" fill="#6a4502"/>
      <path d="M37.42,47.05c2.24-1.63,3.25-1.42,5.69-2.44s2.54-.3,5.19-1.52,4.47-1.22,2.64-1.22-1.63-1.32-4.07,0-3.4.83-5.08,2.3A28,28,0,0,1,37.42,47.05Z" fill="#5e3101"/>
      <path d="M26.89,74.09c.89-1.94-3.3-3.64-6.67-4.7h0c-.47,2.06-.88,4.26-1.21,6.36h0a26.54,26.54,0,0,1,3.57,1.45C25.12,78.37,26,76,26.89,74.09Z" fill="#292100"/>
      <path d="M9.67,97.14c3.82-1.14,7-1.72,9.62-.2s5.06,2.87,4.94,5.11-2,4.53-3.8,5.66a16,16,0,0,1-4.52,2,14.89,14.89,0,0,1-5,.31c-2-.25-4.81-.51-5.32-2a17.73,17.73,0,0,1-1.14-4.86C4.67,100.49,5.3,98.45,9.67,97.14Z" fill="#342803"/>
      <path d="M11.87,113.31a10.88,10.88,0,0,1,3.8.69c2.53.93,11.51,1.4,15.44,1.5s5.14-.57,8.23-.85,4.11-1.4,6-2.8a21.41,21.41,0,0,0,4.86-5.9c1.31-2.15-.66-1.59-2.81,0s-2.34,2.06-5.24,5c0,0-3.65,1.59-5.89,2.43s-13.1-.65-15.84-2-10.69.47-12-1a.78.78,0,0,0-.45-.29c-.09.64-.77,1.16,1.19,1.63S11.39,112.62,11.87,113.31Z" fill="#3d2100"/>
    </g>
  </g>
  <polygon points="204.41 104.46 162.93 172.48 0 172.48 0 194.65 279.31 194.65 1344.29 194.65 1344.29 104.46 204.41 104.46" fill="#212026"/>
  <g>
    <path d="M215.91,144.06l.15-.13c3.23.1,5.09.15,5.59.15s2.31-.05,5.61-.15l.15.13v1l-.15.14c-.9,0-1.6.06-2.08.11a2.55,2.55,0,0,0-1.07.3,1.38,1.38,0,0,0-.44,1,17.57,17.57,0,0,0-.11,2.2l0,4.49v8.64c0,2.16,0,3.67,0,4.53l.1,3.38h4q4.75,0,5.94-.12a8.12,8.12,0,0,0,2.28-.57,15.46,15.46,0,0,0,.61-2.24c.27-1.18.41-1.85.42-2l.18-.15h1l.13.15c-.1.53-.21,1.53-.32,3s-.17,2.71-.17,3.63l-.15.16c-2.48-.08-5.72-.12-9.75-.12l-5.7,0c-1.3,0-2.63.06-4,.16l-.15-.16v-.64l.15-.2a7.9,7.9,0,0,0,1.33-.76,12.49,12.49,0,0,0,.25-2.52c.08-1.59.12-3.5.12-5.74v-8.38l0-3.81c0-1.48,0-2.44-.11-2.87a1.74,1.74,0,0,0-.28-.86,1.41,1.41,0,0,0-.71-.35,16.9,16.9,0,0,0-2.6-.21l-.15-.14Z" fill="#fff"/>
    <path d="M240.77,143.93l2.44.08c1.6.05,2.65.07,3.15.07s2.31-.05,5.6-.15l.16.13v1l-.16.14c-.9,0-1.59.06-2.08.11a2.49,2.49,0,0,0-1.06.3,1.38,1.38,0,0,0-.44,1,17.57,17.57,0,0,0-.11,2.2l0,4.49v9.05l0,3.8a24.32,24.32,0,0,0,.12,2.86,1.85,1.85,0,0,0,.28.86,1.55,1.55,0,0,0,.71.36,16.53,16.53,0,0,0,2.6.22l.16.12v1l-.16.16-3.44-.12-2.16,0c-.41,0-2.27.06-5.59.16l-.16-.16v-1l.16-.12a22.12,22.12,0,0,0,2.42-.19,1.66,1.66,0,0,0,.81-.31,1.5,1.5,0,0,0,.34-.79,18.46,18.46,0,0,0,.14-2.69l0-4.12v-9.05l0-3.81a28.23,28.23,0,0,0-.11-2.87,1.75,1.75,0,0,0-.27-.86,1.41,1.41,0,0,0-.71-.35,16.9,16.9,0,0,0-2.6-.21l-.16-.14v-1Z" fill="#fff"/>
    <path d="M253.8,145.18l-.16-.14v-1l.16-.13c2.22.1,3.94.15,5.15.15.46,0,2.26-.05,5.41-.15,1,0,1.76,0,2.21,0a13.08,13.08,0,0,1,4.18.53,4.85,4.85,0,0,1,2.48,1.86,5.12,5.12,0,0,1,.94,3,6.14,6.14,0,0,1-1.56,4,9.13,9.13,0,0,1-5.08,2.66,22.23,22.23,0,0,1,3.48.56,6.66,6.66,0,0,1,2.36,1.15,5.31,5.31,0,0,1,1.57,2,6.71,6.71,0,0,1,.58,2.85,9,9,0,0,1-.39,2.58,7.61,7.61,0,0,1-1.44,2.6,10,10,0,0,1-2.53,2.2,10.83,10.83,0,0,1-3,1.33,15.48,15.48,0,0,1-3.85.41c-.32,0-1.25,0-2.82-.1l-2.81-.06c-.88,0-2,.06-3.26.16l-.16-.16v-.64l.16-.2a5.47,5.47,0,0,0,1.31-.7,15.1,15.1,0,0,0,.28-3.46c.07-2.17.11-3.83.11-5v-7.16l0-4.44c0-1,0-1.75,0-2.35a11,11,0,0,0-.11-1.3,1,1,0,0,0-.22-.55,1.31,1.31,0,0,0-.44-.26,5.08,5.08,0,0,0-1-.19Zm7,10.25c.65,0,1.39.08,2.21.08,2.69,0,4.57-.48,5.62-1.45a5.07,5.07,0,0,0,1.58-4,4.83,4.83,0,0,0-.6-2.49,3.87,3.87,0,0,0-1.91-1.57,9.14,9.14,0,0,0-3.52-.55,16,16,0,0,0-3.2.29q-.18,1.75-.18,6.14Zm0,14.24a13.72,13.72,0,0,0,3.08.35,8.88,8.88,0,0,0,4.38-.9,5.55,5.55,0,0,0,2.33-2.49,8,8,0,0,0,.76-3.46,6.32,6.32,0,0,0-1.6-4.51c-1.06-1.12-3.35-1.69-6.88-1.69-.59,0-1.29,0-2.11.08v6.66Z" fill="#fff"/>
    <path d="M279,144.06l.16-.13c4.47.08,7.32.11,8.57.11,4.28,0,8.08,0,11.41-.11l.1.13a32.34,32.34,0,0,0-.72,5.88l-.12.16h-1l-.17-.16c0-.11,0-.22,0-.31a18.8,18.8,0,0,0-.26-3.16,10.39,10.39,0,0,0-3.41-.72c-1.45-.11-2.54-.16-3.27-.16-1,0-2.34.07-3.94.21l-.08,3.13-.06,3.57-.06,4c1.41.07,2.7.11,3.89.11s2.2,0,3-.11a4.78,4.78,0,0,0,1.41-.25.79.79,0,0,0,.31-.49,6.25,6.25,0,0,0,.19-1.28l.08-1.21.15-.15h.9l.16.15c0,1.42-.06,2.85-.1,4.28l.1,4.4-.16.15h-.9l-.15-.15-.14-1.18c-.12-.91-.2-1.45-.25-1.63a.92.92,0,0,0-.36-.46,4,4,0,0,0-1.46-.31c-.78-.08-1.85-.12-3.22-.12-.76,0-1.91,0-3.46.1-.06,1.1-.1,2.92-.1,5.47,0,2.73,0,4.75.1,6h3.6q4.74,0,5.93-.12a7.88,7.88,0,0,0,2.27-.57,19.41,19.41,0,0,0,.57-2.08c.27-1.09.42-1.77.46-2l.2-.14h.94l.15.14a29,29,0,0,0-.34,2.93c-.11,1.39-.17,2.59-.17,3.57l-.13.16c-2.49-.08-5.74-.12-9.77-.12l-5.31,0c-1.24,0-2.53.06-3.87.16l-.15-.16v-.64l.15-.2A10.1,10.1,0,0,0,282,170a15.28,15.28,0,0,0,.27-3.42c.08-2.18.11-3.84.11-5v-7.16l0-4.44c0-1,0-1.75,0-2.35a7.34,7.34,0,0,0-.13-1.3,1.53,1.53,0,0,0-.23-.55.94.94,0,0,0-.41-.26,5.08,5.08,0,0,0-1-.19l-1.48-.11L279,145Z" fill="#fff"/>
    <path d="M302.78,144.06l.16-.13c2.38.1,4.24.15,5.57.15s3.45,0,5.95-.13c.93,0,1.6,0,2,0q4.95,0,6.7,1.79a5.9,5.9,0,0,1,1.76,4.26,6.67,6.67,0,0,1-.86,3.22,7.61,7.61,0,0,1-2.54,2.71,12.66,12.66,0,0,1-4.63,1.69q.56.76,2,2.64l2.77,3.67q1.35,1.81,2.89,3.84a12.38,12.38,0,0,0,2,2.28,2.43,2.43,0,0,0,.77.32,6.31,6.31,0,0,0,1,.06l.16.16v.92l-.18.17a17.94,17.94,0,0,0-2.23-.12c-.92,0-1.93,0-3,.12-.9-1.09-2.32-3-4.24-5.68a110.17,110.17,0,0,0-6.88-8.69l.2-.61c.67,0,1.2.06,1.58.06A7.93,7.93,0,0,0,319,155.1a5.56,5.56,0,0,0,1.92-4.49,4.63,4.63,0,0,0-1.72-3.9,7.47,7.47,0,0,0-4.65-1.32,12.85,12.85,0,0,0-3.87.57c-.19.28-.29,2.73-.29,7.32v9.05l0,3.8a24.32,24.32,0,0,0,.12,2.86,1.85,1.85,0,0,0,.28.86,1.49,1.49,0,0,0,.71.36,16.39,16.39,0,0,0,2.6.22l.16.12v1l-.16.16-3.44-.12-2.17,0c-.4,0-2.26.06-5.58.16l-.16-.16v-1l.16-.12a22.12,22.12,0,0,0,2.42-.19,1.76,1.76,0,0,0,.81-.31,1.43,1.43,0,0,0,.33-.79,16.61,16.61,0,0,0,.15-2.69l0-4.12v-9.05l0-3.81a28.23,28.23,0,0,0-.11-2.87,1.87,1.87,0,0,0-.27-.86,1.41,1.41,0,0,0-.71-.35,17,17,0,0,0-2.6-.21l-.16-.14Z" fill="#fff"/>
    <path d="M329.54,171.68l-.18-.16v-1l.18-.16a8.75,8.75,0,0,0,1.84-.14,1.68,1.68,0,0,0,.73-.51,17.14,17.14,0,0,0,1.3-2.49l2-4.45,5.31-12q1.5-3.53,3-7.07H345l8.34,19.61,1.11,2.62c.33.74.7,1.55,1.12,2.42a8.26,8.26,0,0,0,.88,1.55,1.93,1.93,0,0,0,.61.36,6.7,6.7,0,0,0,1.61.14l.16.16v1l-.16.16c-1.38-.12-2.62-.17-3.73-.17l-6.48.17-.16-.16v-1l.16-.16a16.1,16.1,0,0,0,2.73-.18.66.66,0,0,0,.55-.68,3.21,3.21,0,0,0-.28-1.13l-2.4-6H337.78l-2.13,5a6,6,0,0,0-.56,2,.77.77,0,0,0,.52.72,8.81,8.81,0,0,0,2.66.25l.18.16v1l-.16.16c-1.68-.1-3.15-.16-4.41-.16C332.44,171.52,331,171.58,329.54,171.68Zm8.91-11h9.88L343.43,149Z" fill="#fff"/>
    <path d="M380.4,143.93l.18.17q-.18,1.76-.18,6.14l-.16.15h-.91l-.16-.17-.22-1.8a16.09,16.09,0,0,0-.24-1.77.87.87,0,0,0-.28-.47,3.66,3.66,0,0,0-1.27-.24c-.72-.07-1.52-.1-2.4-.1h-3.7q-.15,4.41-.15,5.1v11.39l0,3.8c0,1.48.05,2.43.1,2.87a1.62,1.62,0,0,0,.28.85,1.49,1.49,0,0,0,.71.36,16.47,16.47,0,0,0,2.62.22l.13.12v1l-.13.16c-3.34-.1-5.2-.16-5.59-.16s-2.27.06-5.56.16l-.16-.16v-1l.16-.12a22.14,22.14,0,0,0,2.43-.19,1.76,1.76,0,0,0,.8-.31,1.58,1.58,0,0,0,.34-.79,15.86,15.86,0,0,0,.14-2.69l0-4.12V150.94c0-.21-.06-1.91-.16-5.1h-2.91c-1.2,0-2.23,0-3.11.08s-1.37.18-1.51.4a7,7,0,0,0-.38,2.1l-.2,1.8-.17.17h-.9l-.16-.15q0-4.71-.17-6.14l.17-.17q3.4.15,11.31.15C374.45,144.08,378.22,144,380.4,143.93Z" fill="#fff"/>
    <path d="M382.49,143.93l2.44.08c1.6.05,2.65.07,3.15.07s2.31-.05,5.6-.15l.16.13v1l-.16.14c-.9,0-1.59.06-2.08.11a2.49,2.49,0,0,0-1.06.3,1.34,1.34,0,0,0-.44,1,17.57,17.57,0,0,0-.11,2.2l0,4.49v9.05l0,3.8a24.32,24.32,0,0,0,.12,2.86,1.85,1.85,0,0,0,.28.86,1.49,1.49,0,0,0,.71.36,16.39,16.39,0,0,0,2.6.22l.16.12v1l-.16.16-3.44-.12-2.16,0c-.41,0-2.27.06-5.59.16l-.16-.16v-1l.16-.12a22.12,22.12,0,0,0,2.42-.19,1.71,1.71,0,0,0,.81-.31,1.43,1.43,0,0,0,.33-.79,16.61,16.61,0,0,0,.15-2.69l0-4.12v-9.05l0-3.81a28.23,28.23,0,0,0-.11-2.87,1.87,1.87,0,0,0-.27-.86,1.41,1.41,0,0,0-.71-.35,16.9,16.9,0,0,0-2.6-.21l-.16-.14v-1Z" fill="#fff"/>
    <path d="M396.1,171.66l-.17-.17v-.9l.17-.16a12.94,12.94,0,0,0,1.91-.14,1.39,1.39,0,0,0,.92-.39,1.94,1.94,0,0,0,.27-.88c0-.4.09-1.31.14-2.73s.06-2.43.06-3V147.46A2.45,2.45,0,0,0,399,146a1.61,1.61,0,0,0-1-.61,13.53,13.53,0,0,0-2.13-.14l-.16-.16v-.92l.16-.17c1.79.06,3,.09,3.53.09q2,0,3.24-.09l6.23,8.08,9.16,11.49q1.67,2.08,3.38,4V152.4c0-.47,0-1.46-.06-3s-.11-2.5-.17-2.91a1.43,1.43,0,0,0-.34-.83,1.85,1.85,0,0,0-.92-.33,13.66,13.66,0,0,0-1.83-.12l-.15-.16v-.9l.15-.17c1.06.06,2.56.09,4.52.09,1.78,0,3.07,0,3.88-.09l.18.17v.9l-.16.16a13.38,13.38,0,0,0-2,.14,1.31,1.31,0,0,0-.88.42,2.11,2.11,0,0,0-.24.86c0,.38-.1,1.28-.14,2.7s-.07,2.44-.07,3.06v9.28l0,5.37c0,1.76.05,3.52.08,5.3a29.92,29.92,0,0,0-3.38-.83l-1.39-1.64-4.16-5.07-13.24-16.55v15c0,.6,0,1.67.07,3.21a22.72,22.72,0,0,0,.17,2.79,1,1,0,0,0,.92,1,9.78,9.78,0,0,0,2.14.17l.16.16v.92l-.16.15a27.68,27.68,0,0,0-3.28-.14C399.26,171.52,397.56,171.57,396.1,171.66Z" fill="#fff"/>
    <path d="M457.31,160.88v.59l-.07.23-1,.57a1.1,1.1,0,0,0-.41.33,6.46,6.46,0,0,0-.15,1.16q-.09,1.05-.09,2.55a35.59,35.59,0,0,0,.22,3.69l-.12.2a30.63,30.63,0,0,1-11,2.05,18.27,18.27,0,0,1-7.84-1.64,13,13,0,0,1-5.54-4.87,13.91,13.91,0,0,1-2.05-7.65,13.44,13.44,0,0,1,4.62-10.74q4.6-4,12.06-4a24.78,24.78,0,0,1,9.82,1.86l.14.21a44.76,44.76,0,0,0-.82,5.49l-.16.14h-.9l-.15-.16-.1-2.07a6,6,0,0,0-.13-1.19,1.34,1.34,0,0,0-.42-.46,9.49,9.49,0,0,0-1.81-.9,14.64,14.64,0,0,0-2.92-.9,16.37,16.37,0,0,0-3.14-.28,13.15,13.15,0,0,0-6.33,1.48,9.61,9.61,0,0,0-4.15,4.33,14.13,14.13,0,0,0-1.4,6.32,15.19,15.19,0,0,0,1.51,6.69,11.42,11.42,0,0,0,4.31,4.83,12.21,12.21,0,0,0,6.55,1.74,18.08,18.08,0,0,0,3.31-.32,10.07,10.07,0,0,0,2.78-.91,11.17,11.17,0,0,0,.18-2.52v-2.17a5.44,5.44,0,0,0-.2-1.92c-.13-.26-.45-.43-1-.54a23.49,23.49,0,0,0-3.33-.19l-.18-.18v-.86l.18-.18,1.19,0c2,.07,3.71.1,5,.1.74,0,1.83,0,3.26-.12Z" fill="#fff"/>
    <path d="M505.32,144l.18.15v1l-.16.14a13.88,13.88,0,0,0-2.66.21,1.27,1.27,0,0,0-.74.52,3.35,3.35,0,0,0-.24,1.41c0,.71-.06,2.69-.11,6v9q0,2,.06,4.41a12.4,12.4,0,0,0,.24,2.86,1.18,1.18,0,0,0,.68.59,12.66,12.66,0,0,0,2.77.24l.16.14v.95l-.18.16q-3.18-.18-5.55-.18c-1.06,0-2.88.06-5.44.18l-.18-.16v-.93l.16-.16a14.83,14.83,0,0,0,2.66-.21,1.21,1.21,0,0,0,.73-.52,3.36,3.36,0,0,0,.26-1.44c0-.71.06-2.69.1-5.93V148l-6.74,14.1c-1.7,3.53-3.17,6.85-4.44,10h-.76c-.73-1.68-1.33-3-1.79-4L475,148.65v13.66c0,1.27,0,2.74.05,4.4a11.28,11.28,0,0,0,.24,2.88,1.24,1.24,0,0,0,.69.59,11.11,11.11,0,0,0,2.77.23l.16.16v.94l-.18.17-1.25-.06c-1.29-.06-2.4-.1-3.32-.1-.42,0-2,.06-4.67.16l-.15-.16v-.93l.15-.18a13.7,13.7,0,0,0,2.66-.19,1.24,1.24,0,0,0,.73-.53,3.15,3.15,0,0,0,.25-1.39q0-1,.09-6v-8.95c0-1.18,0-2.63,0-4.33a12.58,12.58,0,0,0-.23-2.94,1.21,1.21,0,0,0-.67-.6,11.22,11.22,0,0,0-2.78-.23l-.15-.16v-.94l.17-.17q1.35.09,3.63.09t3.75-.09c1.1,2.52,2.15,4.81,3.15,6.85l7.4,15.2,6.68-13.93q2.72-5.64,3.65-8.12,1.88.09,3.69.09Q503.1,144.08,505.32,144Z" fill="#fff"/>
    <path d="M507,144.06l.16-.13q4.84.15,5.58.15c.45,0,2.31-.05,5.61-.15l.16.13v1l-.16.14c-.9,0-1.59.06-2.08.11a2.59,2.59,0,0,0-1.07.3,1.42,1.42,0,0,0-.44,1,17.93,17.93,0,0,0-.1,2.2l0,4.49v6.21c0,2,0,3.55.13,4.51a7.94,7.94,0,0,0,.54,2.42,4.58,4.58,0,0,0,1.28,1.7,6.72,6.72,0,0,0,2.46,1.16,13.48,13.48,0,0,0,3.64.45,13,13,0,0,0,4-.6,6.09,6.09,0,0,0,2.84-1.73,5.87,5.87,0,0,0,1.28-3,33.91,33.91,0,0,0,.3-5.13v-6c0-1,0-2.41-.05-4.19a13.44,13.44,0,0,0-.23-3.06,1.21,1.21,0,0,0-.68-.61,10.6,10.6,0,0,0-2.77-.24l-.15-.16v-.92l.15-.17c1.93.1,3.47.15,4.63.15,1,0,2.53-.05,4.61-.15l.18.15V145l-.18.16a17.85,17.85,0,0,0-2.39.14,1.5,1.5,0,0,0-.78.33,1.37,1.37,0,0,0-.34.66,18,18,0,0,0-.14,2.58l-.06,4.39v5.94a45.38,45.38,0,0,1-.27,5.61,7.41,7.41,0,0,1-1.22,3.36,9.08,9.08,0,0,1-2.25,2.21,10,10,0,0,1-3.33,1.37,18.32,18.32,0,0,1-4.22.48,17.23,17.23,0,0,1-4.83-.61,9.12,9.12,0,0,1-3.31-1.6,6.17,6.17,0,0,1-1.74-2.1,8,8,0,0,1-.69-2.6q-.15-1.49-.15-4.56v-7.5l0-3.81a28.23,28.23,0,0,0-.11-2.87,1.87,1.87,0,0,0-.27-.86,1.46,1.46,0,0,0-.71-.35,17,17,0,0,0-2.6-.21L507,145Z" fill="#fff"/>
    <path d="M539.07,164.81l.16-.16h.95l.16.16a18.87,18.87,0,0,0,.26,3.05,2.58,2.58,0,0,0,1.06,1.17,7.54,7.54,0,0,0,2.36,1,11.67,11.67,0,0,0,3,.39,8.74,8.74,0,0,0,3.72-.76,5.79,5.79,0,0,0,2.57-2.24,6.13,6.13,0,0,0,.92-3.31,5.33,5.33,0,0,0-.44-2.24,3.83,3.83,0,0,0-1.23-1.54,5.71,5.71,0,0,0-1.81-.86c-.68-.18-1.68-.39-3-.61s-2.32-.4-3.05-.57a10.53,10.53,0,0,1-2.2-.78,5.86,5.86,0,0,1-1.83-1.34,6.34,6.34,0,0,1-1.17-2,7.27,7.27,0,0,1-.44-2.53,7.76,7.76,0,0,1,2.54-6,9.67,9.67,0,0,1,6.82-2.34,18.17,18.17,0,0,1,3.7.42,14.85,14.85,0,0,1,3.64,1.24l.14.24a26.64,26.64,0,0,0-.53,5.11l-.17.16h-1l-.16-.14c0-1.56-.06-2.54-.11-3s-.65-.9-1.78-1.5a7.75,7.75,0,0,0-3.69-.9,7.42,7.42,0,0,0-3.11.66,4.62,4.62,0,0,0-2.19,2.09,6.32,6.32,0,0,0-.74,2.91,4.51,4.51,0,0,0,.45,2,3.84,3.84,0,0,0,1.16,1.4,5,5,0,0,0,1.66.77c.64.17,1.79.38,3.47.63a20.43,20.43,0,0,1,5,1.18,5.53,5.53,0,0,1,2.52,2.2,6.68,6.68,0,0,1,1,3.63,8.59,8.59,0,0,1-3.39,6.93,12.55,12.55,0,0,1-8.21,2.78,16.26,16.26,0,0,1-7.09-1.45l-.12-.25A56.32,56.32,0,0,0,539.07,164.81Z" fill="#fff"/>
    <path d="M559.68,143.93l2.44.08c1.6.05,2.65.07,3.14.07s2.31-.05,5.61-.15l.15.13v1l-.15.14c-.9,0-1.59.06-2.08.11a2.59,2.59,0,0,0-1.07.3,1.42,1.42,0,0,0-.44,1,17.93,17.93,0,0,0-.1,2.2l0,4.49v9.05l0,3.8a28,28,0,0,0,.11,2.86,1.83,1.83,0,0,0,.29.86,1.49,1.49,0,0,0,.71.36,16.39,16.39,0,0,0,2.6.22l.15.12v1l-.15.16-3.44-.12-2.17,0c-.4,0-2.26.06-5.58.16l-.16-.16v-1l.16-.12a22.12,22.12,0,0,0,2.42-.19,1.76,1.76,0,0,0,.81-.31,1.43,1.43,0,0,0,.33-.79,17.93,17.93,0,0,0,.15-2.69l0-4.12v-9.05l0-3.81a28.23,28.23,0,0,0-.11-2.87,1.87,1.87,0,0,0-.27-.86,1.45,1.45,0,0,0-.72-.35,16.71,16.71,0,0,0-2.59-.21l-.16-.14v-1Z" fill="#fff"/>
    <path d="M599.25,168.22l-.74,1.82a20.19,20.19,0,0,1-9.26,2.21q-7.05,0-11.46-4a13.5,13.5,0,0,1-4.4-10.47,13.78,13.78,0,0,1,2.2-7.78,13.54,13.54,0,0,1,5.8-5,19.21,19.21,0,0,1,8.09-1.65,24,24,0,0,1,5.14.55,21.39,21.39,0,0,1,4.24,1.31l.13.19a24.85,24.85,0,0,0-.84,5.41L598,151h-.92l-.16-.16-.19-3.32a10.8,10.8,0,0,0-3.45-1.77,14.07,14.07,0,0,0-4.21-.63,12.3,12.3,0,0,0-5.92,1.41,9.93,9.93,0,0,0-4.06,4.11,13.75,13.75,0,0,0-1.44,6.57,13.49,13.49,0,0,0,1.69,6.85,11.71,11.71,0,0,0,4.64,4.54,14.34,14.34,0,0,0,6.87,1.58,16.52,16.52,0,0,0,3.34-.33,13.39,13.39,0,0,0,2.66-.82,12.9,12.9,0,0,0,2-1.2Z" fill="#fff"/>
  </g>
  <g clip-path="url(#clip-path-2)">
    <g>
      <path d="M175.4-155.15c-2.46-3.1-7.1-6.28-10.65-6.55a31.81,31.81,0,0,0-15.58,2.95c-6,2.87-11.52,9.15-16.7,8.51s-6,1.09-15.83-8.19-29.1-29-35.11-31.47-9.91-8.73-30.1-7c0,0-8.46,1.55-12,4.09a.71.71,0,0,1-.3-1.14,1.55,1.55,0,0,0-.57-2.35s.92-.75.72-1.57-1-1.33-1.47-1.84.37-.92.58-1.43a4.71,4.71,0,0,0,.07-2.22c-.45-1.86-8-.61-8-.61-2.46.34-5,1.64-4.95,2.45s1.44,2.26,1.64,2.46-.61.21-.82,1a3.31,3.31,0,0,0,.41,2.25c.28.41-.54,1.1-.07,2.39a9.88,9.88,0,0,0,.89,1.91l4.91,36.77a4.11,4.11,0,0,0,0,2.52,4.69,4.69,0,0,0,1,1.57c.4.48,1.09,1.18.75,1.75A7.17,7.17,0,0,0,33.6-147c-.14.56-.47,1.73-.06,2.14a4,4,0,0,1,.84,1.3l.25.54L53-4.45S50.79-4.79,51.68-3,54.2-1.24,54.14-.42s.42,1.18-.3,1.68S52.77,2,52.7,2.78s-.27,1.78.41,2.25,1.64,1.3,1.64,1.3l3.34,33.49s-2.66.41-3,1.57a7.14,7.14,0,0,1-.75,1.78S52.09,44.53,52.23,46s-.41,3.75.88,4.37,4.23,1.29,5,2.18,3.07,2.12,4.09,3.55,2.39,3.61,2.39,3.61-4.29,1.23-5.11,2.46S57,64.61,57.81,66.44s1.3,3.69,3.69,3.47,9.55-2.32,10.71-2.32,4-.48,5.05-.62,6.75.41,7-.88a31.75,31.75,0,0,0,.2-3.62s2.53-1.95,4.5-1.84,6.28-.75,8.6-1,2-1,4.57-.2A20.71,20.71,0,0,1,107.55,62c1.63,1,1,1.84,2.73,2.05s3.13.14,3.82-.48.27-.48,1.29-1.09,2.18-.48,2-1.64S115,56.26,114,55.58s-3.41-1.16-3.48-1.7,2.11-2.6,2.11-3.42-.68-3.13.41-3.54,2.32-.21,1.64-1-1.57-2.72-2-3.07a2.82,2.82,0,0,0-.87-.44l59.79-172.25,4.36-13.73S177.85-152.06,175.4-155.15Zm-21.65,22.73L70.07,31.32l-1.2.32S64.44,5.85,64.16,5.17s0-.82.32-1.3.48-.4.75-1.38-.41-1.41-.59-1.84S63.28-.45,63-.63s0-.61,0-.68a9.48,9.48,0,0,1,.68-.91,4,4,0,0,0,.77-2c.07-.84-1.29-2.38-1.65-2.73a2.25,2.25,0,0,1-.35-1.29s-16.85-131.28-17-132a44.7,44.7,0,0,1-.4-4.51c-.09-1.55.53-1.33.84-2.39a2.39,2.39,0,0,0-1.29-2.56A2.65,2.65,0,0,1,43.31-151c-.4-.62,0-.71.48-1.2a13.64,13.64,0,0,0,1.6-1.77c.63-.84-1.29-2-1.82-2.34s2.12-2.83,3.71-3.76a37.39,37.39,0,0,1,12.43-5c7.95-1.82,18.69,4.82,18.69,4.82C81.26-159,102.14-142,102.14-142c11.14,8.87,20.6,10.5,26.73,11.23s12.6-2.91,12.6-2.91A121.79,121.79,0,0,0,153-140.42c1.37-1.14,3.41-2.59,4.42-2.76s.63.17.86,1S153.75-132.42,153.75-132.42Z" fill="#b17840"/>
      <line x1="74.21" y1="-177.91" x2="86.77" y2="6.42" fill="none" stroke="#292929" stroke-miterlimit="10" stroke-width="0.62"/>
      <line x1="69.18" y1="-181.4" x2="81.58" y2="19.17" fill="none" stroke="#292929" stroke-miterlimit="10" stroke-width="0.62"/>
      <line x1="64.44" y1="-183.93" x2="77.97" y2="24.68" fill="none" stroke="#292929" stroke-miterlimit="10" stroke-width="0.62"/>
      <line x1="58.2" y1="-185.16" x2="75.38" y2="29.25" fill="none" stroke="#292929" stroke-miterlimit="10" stroke-width="0.62"/>
      <line x1="51.73" y1="-185.53" x2="73.41" y2="33.82" fill="none" stroke="#292929" stroke-miterlimit="10" stroke-width="0.62"/>
      <polygon points="154.48 -129.74 72.14 35.39 74.21 35.39 156.12 -128.69 154.48 -129.74" fill="#8c5521"/>
    </g>
  </g>
  <g>
    <path d="M1272.58,154.37q-1.93,2.49-3.86,5c-.34.43-.32.57.1.89L1282,170.41l3.38,2.6a.31.31,0,0,1,.05.5c-1.9,2.32-3.69,4.72-5.52,7.09-2.37,3-4.73,6.1-7.09,9.15-.26.35-.27.34-.61.08a19.8,19.8,0,0,0-2-1.46c-.33-.2-.57-.52-.88-.74-1-.76-2-1.56-3-2.32s-1.82-1.47-2.76-2.16c-1.29-1-2.53-2-3.81-3-.41-.32-.87-.57-1.26-.91-.74-.65-1.54-1.22-2.31-1.84-.2-.16-.41-.3-.6-.47s-.33-.16-.49.06c-.48.67-1,1.32-1.5,2-.73.94-1.45,1.88-2.18,2.81q-1.79,2.28-3.55,4.58l-.74,1c-.06.08-.13.17-.24.14s-.1-.14-.12-.23c-.26-1.31-.52-2.63-.79-3.95s-.53-2.51-.79-3.77c-.2-.95-.39-1.9-.59-2.84a1.13,1.13,0,0,0-.19-.53c-.09-.11.05-.25,0-.38-.09-.44-.13-.9-.26-1.33s-.12-.75-.21-1.12c-.19-.83-.34-1.67-.51-2.5l-.84-4.26c-.29-1.45-.58-2.9-.88-4.34s-.51-2.59-.78-3.88c-.19-.89-.33-1.79-.55-2.68-.16-.67-.25-1.36-.4-2a14.6,14.6,0,0,0-.36-1.59,3.67,3.67,0,0,1-.11-.81c0-.2.11-.24.27-.25l2.31-.13c.91-.06,1.82-.17,2.73-.17.75,0,1.48-.14,2.23-.14s1.52-.09,2.27-.14,1.58-.07,2.37-.12l2.15-.14c1.09-.08,2.18-.12,3.27-.17l2.37-.12c1.84-.1,3.68-.18,5.51-.3,1.17-.07,2.33-.11,3.5-.2,1.41-.11,2.82-.13,4.23-.27,1-.09,2-.11,3-.16a5.48,5.48,0,0,1,.57-.05c.12,0,.29-.06.35.1s-.07.23-.14.32l-.72.94c-1.06,1.37-2.12,2.73-3.17,4.1Z" fill="#fff"/>
    <path d="M1257.24,146.06A39.8,39.8,0,1,1,1297,185.85,39.89,39.89,0,0,1,1257.24,146.06Zm67.84,2.4c-1.17,0-2.34.09-3.49,0-2.37-.24-3.61.5-3.68,3.13a70.54,70.54,0,0,1-.93,7.2c-.3,2.2-2,4.8-.9,6.42,1.17,1.77,4.33,1,6.49,1.88,1.72.68,2.71-.06,3.59-1.45a35.26,35.26,0,0,0,5.21-12.55c.84-4.61.84-4.61-4-4.61Zm-56.07,0h-5c-1.35,0-2,.62-1.77,2a35.22,35.22,0,0,0,6.17,15.84,2.09,2.09,0,0,0,2.51.91,58.06,58.06,0,0,1,5.68-1.24c1.57-.25,1.8-.94,1.47-2.39a83.57,83.57,0,0,1-1.54-8.3C1275.72,148.45,1275.77,148.45,1269,148.48Zm-.26-4.87a37,37,0,0,1,3.8,0c2.43.26,3.6-.6,3.64-3.18a41.59,41.59,0,0,1,.75-6.07c1.21-7.25,1.2-7.16-5.8-9a2.62,2.62,0,0,0-3.34,1.36,35.26,35.26,0,0,0-4.55,10.06c-1.91,6.85-1.88,6.86,5.21,6.86Zm55.49,0c2.15,0,3.71-.05,5.26,0,2,.08,2.54-.72,2.22-2.67a35.44,35.44,0,0,0-3.33-10.53c-2.8-5.5-2.77-5.52-8.64-4.29-.57.12-1.15.22-1.73.3-1.72.24-2.23,1.12-1.84,2.86.59,2.55,1,5.15,1.39,7.74C1318.67,144.64,1316.94,143.5,1324.24,143.62Zm-29.62,13c0-1.85,0-3.7,0-5.55s-.66-2.68-2.56-2.63c-2.82.07-5.65.1-8.46,0-2.17-.09-3,.67-2.7,2.9.46,3.57.95,7.13,1.63,10.67.49,2.5,1.63,3.32,4.2,3.12C1294.62,164.5,1294.63,164.59,1294.62,156.62Zm11.83-8.16c-1.27,0-2.54.09-3.79,0-2.38-.22-3.34.71-3.24,3.15.16,3.5.06,7,0,10.5,0,1.38.21,2.56,2,2.6,10.6.21,8.87,2.89,11.12-8.06a11.88,11.88,0,0,0,.15-1.45C1313.32,148.45,1313.32,148.45,1306.45,148.46Zm-7-13.08c0,1.94,0,3.88,0,5.82,0,1.74.75,2.45,2.46,2.42q4.52-.09,9,0c1.79,0,2.46-.79,2.26-2.51-.39-3.47-.82-6.92-1.5-10.36-.51-2.55-1.71-3.45-4.37-3.35C1299.47,127.72,1299.46,127.61,1299.47,135.38Zm-4.83.21c0-8.08,0-8.08-8.26-8.14h-.29c-2-.25-3.08.52-3.46,2.56-.48,2.57-1.1,5.1-1.37,7.73-.7,6.73-1,5.82,5.45,5.87C1294.65,143.66,1294.65,143.63,1294.64,135.59Zm7.93-12.69,4.55-.26c1,0,1.87-.27,1.26-1.54-1.63-3.34-3.63-6.42-6.78-8.56-1.45-1-2.13-.48-2.13,1.19,0,2.32,0,4.65,0,7C1299.39,122.71,1300.4,123.28,1302.57,122.9Zm-8-5.44c0-1.16,0-2.32,0-3.48,0-2-.71-2.43-2.42-1.27a17.87,17.87,0,0,0-5.22,6.11c-2,3.43-1.91,3.56,2.09,3.9C1294.78,123.21,1294.68,124.07,1294.62,117.46Zm0,57.78c0-5.83,0-5.83-5.49-5.64-.48,0-1,.07-1.45.07-1.87,0-2.58.65-1.43,2.42a26.16,26.16,0,0,0,3.3,4.77c1.29,1.28,2.56,3.59,4.3,2.94S1294.27,176.65,1294.64,175.24Zm4.82-.21c0,.87,0,1.74,0,2.6s-.34,2,.68,2.32,1.6-.51,2.26-1a20.46,20.46,0,0,0,4.82-5.74c1.74-2.95,1.61-3.18-1.79-3.5C1299.46,169.13,1299.46,169.13,1299.46,175Zm-26.39-54.42c1.6,1,3.09,1,4.49,1.28,1.16.21,2.37.21,3-1.07,1.2-2.28,2.38-4.57,3.88-7.45A31.25,31.25,0,0,0,1273.07,120.61Zm36.49-7.15c1.14,2.09,2,3.51,2.71,5,2,3.83,3.18,4.29,7.37,2.93,1.33-.43,1.3-.9.39-1.72A29.59,29.59,0,0,0,1309.56,113.46Zm-25.64,64.93c.1-.27.18-.38.15-.44-.92-1.79-1.85-3.57-2.78-5.36-1-2-5.56-2.71-7.19-1.22-.73.66-.09,1,.29,1.36A28.53,28.53,0,0,0,1283.92,178.39Zm25.59.4c4.54-1.93,8-3.83,11.26-7.2-2.86-.51-5.37-2.29-7.39.15C1311.87,173.55,1311,175.93,1309.51,178.79Z" fill="#fff"/>
  </g>
</svg>
