<svg id="be269306-01d7-4ff6-8167-0aa28156cab7" data-name="Layer 1" xmlns="http://www.w3.org/2000/svg" xmlns:xlink="http://www.w3.org/1999/xlink" width="1344.293" height="194.648" viewBox="0 0 1344.293 194.648">
  <defs>
    <clipPath id="b2dd2e3a-ad3c-4e38-a177-e60835924254">
      <rect y="43.788" width="172.4" height="132.49" style="fill: none"/>
    </clipPath>
  </defs>
  <title>banner-7</title>
  <g style="clip-path: url(#b2dd2e3a-ad3c-4e38-a177-e60835924254)">
    <g>
      <polygon points="78.837 72.155 78.837 122.677 35.562 170.987 30.737 113.676 78.837 72.155" style="fill: #62472f"/>
      <polygon points="35.562 170.987 97.112 198.472 134.79 143.064 78.837 122.677 35.562 170.987" style="fill: #412f1f"/>
      <polygon points="78.837 122.677 134.79 143.064 139.791 91.431 78.837 72.155 78.837 122.677" style="fill: #825e3e"/>
      <polygon points="5.883 117.185 53.544 77.418 78.837 72.155 30.737 113.676 5.883 117.185" style="fill: #ae906c"/>
      <polygon points="78.837 72.155 94.472 69.108 149.339 86.186 139.791 91.431 78.837 72.155" style="fill: #d7c3a8"/>
      <polygon points="30.737 113.676 35.562 170.987 97.112 198.472 126.937 154.612 102.271 140.92 30.737 113.676" style="fill: #583316"/>
      <polygon points="139.791 91.431 102.271 140.92 138.312 168.622 170.183 114.831 139.791 91.431" style="fill: #d7c3a8"/>
      <polygon points="30.737 113.676 12.843 149.93 85.058 179.381 102.271 140.92 30.737 113.676" style="fill: #ae906c"/>
    </g>
  </g>
  <polygon points="204.411 104.462 162.931 172.476 0 172.476 0 194.648 279.306 194.648 1344.293 194.648 1344.293 104.462 204.411 104.462" style="fill: #212026"/>
  <g>
    <path d="M216.611,144.063l.156-.136q6.7.117,8.574.117,6.406,0,11.406-.117l.1.136a33.311,33.311,0,0,0-.723,5.879l-.117.156h-.957l-.176-.156a2.871,2.871,0,0,0,.02-.312,19.023,19.023,0,0,0-.254-3.164,10.582,10.582,0,0,0-3.408-.713q-2.178-.166-3.272-.166-1.543,0-3.945.215l-.078,3.125-.059,3.574-.058,3.965q2.109.117,3.886.117,1.8,0,3.008-.117a5.04,5.04,0,0,0,1.416-.245.818.818,0,0,0,.313-.488,7.409,7.409,0,0,0,.185-1.279l.078-1.211.157-.156h.9l.156.156q-.039,2.129-.1,4.277l.1,4.395-.156.156h-.9l-.157-.156-.136-1.172q-.177-1.367-.254-1.631a.864.864,0,0,0-.362-.459,3.906,3.906,0,0,0-1.455-.312q-1.172-.117-3.222-.118-1.134,0-3.457.1-.1,1.641-.1,5.469,0,4.1.1,6.035h3.593q4.746,0,5.938-.117a7.8,7.8,0,0,0,2.265-.567,21.388,21.388,0,0,0,.577-2.08q.4-1.631.459-2.041l.195-.136h.937l.157.136a26.769,26.769,0,0,0-.342,2.93q-.167,2.091-.166,3.574l-.137.156q-3.731-.117-9.765-.117l-5.313-.039q-1.856,0-3.867.156l-.156-.156v-.644l.156-.2a10.4,10.4,0,0,0,1.318-.732,15.222,15.222,0,0,0,.274-3.418q.107-3.271.107-4.99v-7.168l-.019-4.434q0-1.446-.04-2.353a7.338,7.338,0,0,0-.136-1.3,1.478,1.478,0,0,0-.225-.547.955.955,0,0,0-.41-.264,4.526,4.526,0,0,0-.967-.185l-1.484-.117-.156-.137Z" style="fill: #fff"/>
    <path d="M253.056,171.876q-.293-.859-2.442-6.563l-6.64-16.425a23.8,23.8,0,0,0-1.426-3.194q-.292-.381-2.344-.517l-.175-.176v-.9l.175-.175q2.989.156,5.078.156,1.953,0,5.176-.156l.156.156v1.074l-.156.156a14.458,14.458,0,0,0-2.822.147.562.562,0,0,0-.459.556,14.655,14.655,0,0,0,.625,2.08q.624,1.846,1.113,3.116l6.114,15.449,5.1-12.813q.528-1.308,1.543-4.218a17.956,17.956,0,0,0,1.016-3.5.6.6,0,0,0-.479-.625,22.739,22.739,0,0,0-2.861-.332l-.176-.157v-.937l.176-.156q3.417.156,4.355.156.762,0,3.946-.156l.156.156v.937l-.156.157a5.615,5.615,0,0,0-1.7.214,1.319,1.319,0,0,0-.518.606q-.225.45-1.4,3.086l-6.093,15q-2.051,5.02-2.91,7.793Z" style="fill: #fff"/>
    <path d="M269.931,144.063l.156-.136q6.7.117,8.574.117,6.406,0,11.407-.117l.1.136a33.333,33.333,0,0,0-.722,5.879l-.118.156h-.957l-.175-.156a3.121,3.121,0,0,0,.019-.312,19.023,19.023,0,0,0-.254-3.164,10.576,10.576,0,0,0-3.408-.713q-2.178-.166-3.271-.166-1.543,0-3.946.215l-.078,3.125L277.2,152.5l-.059,3.965q2.109.117,3.887.117,1.8,0,3.007-.117a5.022,5.022,0,0,0,1.416-.245.818.818,0,0,0,.313-.488,7.485,7.485,0,0,0,.186-1.279l.078-1.211.156-.156h.9l.157.156q-.04,2.129-.1,4.277l.1,4.395-.157.156h-.9l-.156-.156-.137-1.172q-.175-1.367-.254-1.631a.862.862,0,0,0-.361-.459,3.912,3.912,0,0,0-1.455-.312q-1.173-.117-3.223-.118-1.133,0-3.457.1-.1,1.641-.1,5.469,0,4.1.1,6.035h3.594q4.746,0,5.937-.117a7.814,7.814,0,0,0,2.266-.567q.175-.448.576-2.08t.459-2.041l.195-.136h.938l.156.136a27.027,27.027,0,0,0-.342,2.93q-.166,2.091-.166,3.574l-.137.156q-3.73-.117-9.765-.117l-5.313-.039q-1.856,0-3.867.156l-.156-.156v-.644l.156-.2a10.448,10.448,0,0,0,1.319-.732,15.339,15.339,0,0,0,.273-3.418q.106-3.271.107-4.99v-7.168l-.019-4.434q0-1.446-.039-2.353a7.411,7.411,0,0,0-.137-1.3,1.461,1.461,0,0,0-.225-.547.942.942,0,0,0-.41-.264,4.527,4.527,0,0,0-.966-.185l-1.485-.117-.156-.137Z" style="fill: #fff"/>
    <path d="M293.759,144.063l.156-.136q3.575.156,5.567.156,2.206,0,5.957-.137,1.386-.039,2.011-.039,4.941,0,6.7,1.8a5.882,5.882,0,0,1,1.757,4.258,6.677,6.677,0,0,1-.859,3.222,7.65,7.65,0,0,1-2.539,2.705,12.666,12.666,0,0,1-4.629,1.69q.546.762,1.973,2.637l2.773,3.672q1.349,1.815,2.891,3.837a12.34,12.34,0,0,0,1.992,2.286,2.493,2.493,0,0,0,.771.322,6.4,6.4,0,0,0,1.026.058l.156.157v.918l-.176.175a18.275,18.275,0,0,0-2.226-.117q-1.387,0-3.028.117-1.347-1.639-4.238-5.683-3.36-4.687-6.875-8.692l.195-.6q1.016.058,1.583.059a7.93,7.93,0,0,0,5.292-1.622,5.571,5.571,0,0,0,1.915-4.492,4.609,4.609,0,0,0-1.719-3.9,7.455,7.455,0,0,0-4.649-1.319,12.907,12.907,0,0,0-3.867.567q-.293.429-.293,7.324v9.043l.02,3.809a26.014,26.014,0,0,0,.117,2.851,1.826,1.826,0,0,0,.283.86,1.472,1.472,0,0,0,.713.361,15.347,15.347,0,0,0,2.6.224l.156.118v.976l-.156.156q-.1,0-3.438-.117-1.387-.039-2.168-.039-.606,0-5.586.156l-.156-.156v-.976l.156-.118a20.17,20.17,0,0,0,2.422-.195,1.787,1.787,0,0,0,.811-.3,1.542,1.542,0,0,0,.332-.791,18.066,18.066,0,0,0,.146-2.695l.02-4.121v-9.043l-.039-3.809q-.021-2.226-.108-2.871a1.776,1.776,0,0,0-.273-.859,1.412,1.412,0,0,0-.713-.352,16.818,16.818,0,0,0-2.6-.214l-.156-.137Z" style="fill: #fff"/>
    <path d="M319.169,145.763l-.176-.176v-.821l.176-.175,5.528-.918a6.64,6.64,0,0,1,1.142,1.035,19.249,19.249,0,0,1,1.621,2.334q1.065,1.709,2.744,4.765t3.223,6.123l1.992-3.164,2.246-3.75,4.141-7.089a14.858,14.858,0,0,0,1.484.078c.3,0,.755-.027,1.367-.078l.157.156v.371q-.978,1.074-3.028,3.9t-3.056,4.414q-1.006,1.593-2.471,4a20.754,20.754,0,0,0-1.6,2.9,4.309,4.309,0,0,0-.136,1.152v2.871l.019,2.93a18.829,18.829,0,0,0,.127,2.373,1.865,1.865,0,0,0,.293.879,1.46,1.46,0,0,0,.7.342,16.536,16.536,0,0,0,2.588.214l.156.118v.976l-.156.156q-.1,0-3.437-.117-1.387-.039-2.168-.039-.626,0-5.586.156l-.156-.156v-.976l.156-.118a19.794,19.794,0,0,0,2.441-.195,1.746,1.746,0,0,0,.791-.3,1.381,1.381,0,0,0,.322-.722,13.481,13.481,0,0,0,.137-2.2l.039-3.34v-3.711a51.992,51.992,0,0,0-2.871-5.059L326.2,152.11q-.819-1.329-2.06-3.1a16.649,16.649,0,0,0-1.924-2.4,3.186,3.186,0,0,0-1.055-.742A10.384,10.384,0,0,0,319.169,145.763Z" style="fill: #fff"/>
    <path d="M346.142,144.063l.156-.136q3.38.156,4.609.156l9.141-.195a23.309,23.309,0,0,1,6.406.732,10.988,10.988,0,0,1,4.444,2.539,12.072,12.072,0,0,1,2.949,4.2,13.056,13.056,0,0,1,1.006,5.108,15.442,15.442,0,0,1-.918,5.214,15.182,15.182,0,0,1-2.608,4.62,14.271,14.271,0,0,1-3.847,3.291,13.944,13.944,0,0,1-4.326,1.67,23.27,23.27,0,0,1-4.434.419q-1.524,0-5.742-.117-1.387-.039-1.836-.039-1.349,0-3.262.156l-.156-.156v-.644l.156-.2a10.314,10.314,0,0,0,1.318-.732,15.222,15.222,0,0,0,.274-3.418q.107-3.271.107-4.99v-7.168l-.019-4.434q0-1.446-.039-2.353a7.411,7.411,0,0,0-.137-1.3,1.461,1.461,0,0,0-.225-.547.948.948,0,0,0-.41-.264,4.526,4.526,0,0,0-.967-.185l-1.484-.117-.156-.137Zm7.226,25.489a24.089,24.089,0,0,0,4.59.39,14.913,14.913,0,0,0,7.276-1.523,9.474,9.474,0,0,0,4.072-4.512,16.221,16.221,0,0,0,1.348-6.738q0-5.528-2.95-8.574t-9.3-3.047a31.665,31.665,0,0,0-5.039.39q-.156,3.2-.156,7.227V159.3l.039,5.742Q353.251,166.72,353.368,169.552Z" style="fill: #fff"/>
    <path d="M377.372,171.68l-.175-.156v-1.015l.175-.157a8.307,8.307,0,0,0,1.836-.146,1.567,1.567,0,0,0,.733-.508,16.224,16.224,0,0,0,1.3-2.49l2.051-4.453,5.313-12.032q1.5-3.534,2.988-7.07h1.27l8.339,19.61,1.114,2.617q.488,1.113,1.123,2.422a7.418,7.418,0,0,0,.879,1.543,1.648,1.648,0,0,0,.605.361,6.437,6.437,0,0,0,1.611.146l.157.157v1.015l-.157.156q-2.07-.176-3.73-.175-3.243.1-6.484.175l-.157-.156v-1.015l.157-.157a15.811,15.811,0,0,0,2.734-.185.65.65,0,0,0,.547-.674,3.317,3.317,0,0,0-.274-1.133l-2.4-5.957H385.614l-2.128,5a5.888,5.888,0,0,0-.567,1.973.765.765,0,0,0,.528.722,8.856,8.856,0,0,0,2.656.254l.176.157v1.015l-.157.156q-2.519-.156-4.414-.156Q379.56,171.524,377.372,171.68Zm8.907-10.957h9.882l-4.9-11.777Z" style="fill: #fff"/>
    <path d="M403.525,145.763l-.176-.176v-.821l.176-.175,5.527-.918a6.644,6.644,0,0,1,1.143,1.035,19.249,19.249,0,0,1,1.621,2.334q1.064,1.709,2.744,4.765t3.222,6.123l1.993-3.164,2.246-3.75,4.14-7.089c.508.051,1,.078,1.485.078.3,0,.755-.027,1.367-.078l.156.156v.371q-.976,1.074-3.027,3.9t-3.057,4.414q-1.007,1.593-2.471,4a20.811,20.811,0,0,0-1.6,2.9,4.306,4.306,0,0,0-.137,1.152v2.871l.02,2.93a18.635,18.635,0,0,0,.127,2.373,1.854,1.854,0,0,0,.293.879,1.455,1.455,0,0,0,.7.342,16.522,16.522,0,0,0,2.588.214l.156.118v.976l-.156.156q-.1,0-3.438-.117-1.387-.039-2.168-.039-.625,0-5.586.156l-.156-.156v-.976l.156-.118a19.837,19.837,0,0,0,2.442-.195,1.751,1.751,0,0,0,.791-.3,1.389,1.389,0,0,0,.322-.722,13.724,13.724,0,0,0,.137-2.2l.039-3.34v-3.711a52.46,52.46,0,0,0-2.871-5.059l-1.719-2.793q-.82-1.329-2.061-3.1a16.731,16.731,0,0,0-1.923-2.4,3.2,3.2,0,0,0-1.055-.742A10.4,10.4,0,0,0,403.525,145.763Z" style="fill: #fff"/>
    <path d="M441.064,143.927q4.921.156,6.269.156,1.836,0,4.121-.1,2.423-.078,2.989-.078a15.241,15.241,0,0,1,4.521.566,5.96,5.96,0,0,1,2.959,2.071,5.735,5.735,0,0,1,1.172,3.633,7.51,7.51,0,0,1-.82,3.4,8.163,8.163,0,0,1-2.286,2.793,9.437,9.437,0,0,1-6.093,2.148,14.934,14.934,0,0,1-2.7-.273l-.332-1.191.176-.2a11.246,11.246,0,0,0,2.383.332,5.317,5.317,0,0,0,4.111-1.689,6.145,6.145,0,0,0,1.553-4.326,5.672,5.672,0,0,0-1.611-4.239,6.705,6.705,0,0,0-4.873-1.582,13.233,13.233,0,0,0-3.907.664q-.175,1.5-.175,7.266v9.043l.019,3.809a26.562,26.562,0,0,0,.117,2.851,1.824,1.824,0,0,0,.284.86,1.468,1.468,0,0,0,.712.361,15.359,15.359,0,0,0,2.6.224l.156.118v.976l-.156.156q-4.98-.156-5.605-.156-.664,0-5.586.156l-.157-.156v-.976l.157-.118a20.17,20.17,0,0,0,2.422-.195,1.782,1.782,0,0,0,.81-.3,1.533,1.533,0,0,0,.332-.791,18.014,18.014,0,0,0,.147-2.695l.019-4.121v-9.043l-.039-3.809q-.019-2.226-.107-2.871a1.775,1.775,0,0,0-.274-.859,1.408,1.408,0,0,0-.713-.352,16.785,16.785,0,0,0-2.6-.214l-.157-.137v-.977Z" style="fill: #fff"/>
    <path d="M464.892,144.063l.156-.136q3.574.156,5.566.156,2.208,0,5.958-.137,1.386-.039,2.011-.039,4.941,0,6.7,1.8a5.883,5.883,0,0,1,1.758,4.258,6.677,6.677,0,0,1-.859,3.222,7.659,7.659,0,0,1-2.539,2.705,12.666,12.666,0,0,1-4.629,1.69q.546.762,1.973,2.637l2.773,3.672q1.347,1.815,2.891,3.837a12.34,12.34,0,0,0,1.992,2.286,2.483,2.483,0,0,0,.771.322,6.4,6.4,0,0,0,1.026.058l.156.157v.918l-.176.175a18.275,18.275,0,0,0-2.226-.117q-1.388,0-3.028.117-1.347-1.639-4.238-5.683-3.36-4.687-6.875-8.692l.195-.6q1.015.058,1.582.059a7.932,7.932,0,0,0,5.293-1.622,5.57,5.57,0,0,0,1.914-4.492,4.608,4.608,0,0,0-1.718-3.9,7.455,7.455,0,0,0-4.649-1.319,12.907,12.907,0,0,0-3.867.567q-.293.429-.293,7.324v9.043l.02,3.809a26.014,26.014,0,0,0,.117,2.851,1.826,1.826,0,0,0,.283.86,1.467,1.467,0,0,0,.713.361,15.33,15.33,0,0,0,2.6.224l.157.118v.976l-.157.156q-.1,0-3.437-.117-1.388-.039-2.168-.039-.606,0-5.586.156l-.156-.156v-.976l.156-.118a20.17,20.17,0,0,0,2.422-.195,1.777,1.777,0,0,0,.81-.3,1.532,1.532,0,0,0,.333-.791,18.066,18.066,0,0,0,.146-2.695l.02-4.121v-9.043l-.04-3.809q-.019-2.226-.107-2.871a1.787,1.787,0,0,0-.273-.859,1.412,1.412,0,0,0-.713-.352,16.818,16.818,0,0,0-2.6-.214l-.156-.137Z" style="fill: #fff"/>
    <path d="M491.728,158.067a17.312,17.312,0,0,1,.84-5.469,12.66,12.66,0,0,1,2.861-4.7,13.864,13.864,0,0,1,4.873-3.34,16.694,16.694,0,0,1,6.445-1.181q6.66,0,10.606,3.623T521.3,156.9a16.169,16.169,0,0,1-1.934,7.93,13.531,13.531,0,0,1-5.537,5.469,16.711,16.711,0,0,1-8.095,1.953,15.708,15.708,0,0,1-5.86-1.065,11.949,11.949,0,0,1-4.56-3.173,12.925,12.925,0,0,1-2.735-4.883A17.421,17.421,0,0,1,491.728,158.067Zm4.062-1.289a18.974,18.974,0,0,0,.772,5.127,13.471,13.471,0,0,0,2.3,4.707,9.906,9.906,0,0,0,3.536,2.92,11.248,11.248,0,0,0,9.951-.43,8.718,8.718,0,0,0,3.594-4.306,16.731,16.731,0,0,0,1.23-6.553,17.468,17.468,0,0,0-1.406-7.129,9.437,9.437,0,0,0-4-4.629,11.646,11.646,0,0,0-5.762-1.445,9.662,9.662,0,0,0-7.48,2.969Q495.789,150.978,495.79,156.778Z" style="fill: #fff"/>
    <path d="M522.822,144.063l.156-.136q3.378.156,4.609.156l9.141-.195a23.309,23.309,0,0,1,6.406.732,10.984,10.984,0,0,1,4.443,2.539,12.061,12.061,0,0,1,2.95,4.2,13.055,13.055,0,0,1,1,5.108,15.442,15.442,0,0,1-.918,5.214,15.158,15.158,0,0,1-2.607,4.62,14.26,14.26,0,0,1-3.848,3.291,13.935,13.935,0,0,1-4.326,1.67,23.252,23.252,0,0,1-4.433.419q-1.524,0-5.743-.117-1.386-.039-1.835-.039-1.348,0-3.262.156l-.156-.156v-.644l.156-.2a10.4,10.4,0,0,0,1.318-.732,15.222,15.222,0,0,0,.274-3.418q.106-3.271.107-4.99v-7.168l-.02-4.434q0-1.446-.039-2.353a7.338,7.338,0,0,0-.136-1.3,1.478,1.478,0,0,0-.225-.547.955.955,0,0,0-.41-.264,4.526,4.526,0,0,0-.967-.185l-1.484-.117-.156-.137Zm7.226,25.489a24.082,24.082,0,0,0,4.59.39,14.906,14.906,0,0,0,7.275-1.523,9.471,9.471,0,0,0,4.073-4.512,16.221,16.221,0,0,0,1.347-6.738q0-5.528-2.949-8.574t-9.3-3.047a31.655,31.655,0,0,0-5.039.39q-.156,3.2-.156,7.227V159.3l.039,5.742Q529.931,166.72,530.048,169.552Z" style="fill: #fff"/>
    <path d="M553.779,144.063l.156-.136q4.844.156,5.586.156.663,0,5.605-.156l.156.136v.977l-.156.137q-1.347.039-2.08.117a2.512,2.512,0,0,0-1.064.293,1.382,1.382,0,0,0-.44,1.006,17.227,17.227,0,0,0-.107,2.2l-.039,4.492v6.211q0,3.066.127,4.5a7.962,7.962,0,0,0,.547,2.422,4.449,4.449,0,0,0,1.279,1.7,6.665,6.665,0,0,0,2.461,1.162,13.439,13.439,0,0,0,3.633.449,13.12,13.12,0,0,0,4.013-.595A6.105,6.105,0,0,0,576.3,167.4a5.928,5.928,0,0,0,1.279-2.978,33.479,33.479,0,0,0,.3-5.127v-6.016q0-1.524-.049-4.189a13.333,13.333,0,0,0-.234-3.067,1.222,1.222,0,0,0-.684-.605,10.837,10.837,0,0,0-2.763-.244l-.157-.157V144.1l.157-.175q2.889.156,4.629.156,1.484,0,4.609-.156l.176.156v.937l-.176.157a18.407,18.407,0,0,0-2.393.146,1.568,1.568,0,0,0-.781.322,1.325,1.325,0,0,0-.332.664,18.1,18.1,0,0,0-.146,2.579l-.059,4.394v5.938a44.767,44.767,0,0,1-.273,5.6,7.367,7.367,0,0,1-1.221,3.369,9.067,9.067,0,0,1-2.246,2.207,9.875,9.875,0,0,1-3.33,1.367,18.294,18.294,0,0,1-4.219.479,17.471,17.471,0,0,1-4.834-.606,9.178,9.178,0,0,1-3.311-1.6,6.3,6.3,0,0,1-1.738-2.1,7.909,7.909,0,0,1-.683-2.6q-.158-1.5-.157-4.561v-7.5l-.039-3.809q-.019-2.226-.107-2.871a1.775,1.775,0,0,0-.274-.859,1.408,1.408,0,0,0-.713-.352,16.785,16.785,0,0,0-2.6-.214l-.156-.137Z" style="fill: #fff"/>
    <path d="M611.552,168.223l-.742,1.817a20.119,20.119,0,0,1-9.258,2.207q-7.052,0-11.455-4a13.48,13.48,0,0,1-4.4-10.469,13.8,13.8,0,0,1,2.2-7.783,13.612,13.612,0,0,1,5.8-4.98,19.207,19.207,0,0,1,8.095-1.651,24.369,24.369,0,0,1,5.137.547,21.562,21.562,0,0,1,4.238,1.309l.137.195a24.864,24.864,0,0,0-.84,5.41l-.136.156H609.4l-.157-.156-.195-3.32a10.58,10.58,0,0,0-3.447-1.768,13.975,13.975,0,0,0-4.209-.635,12.231,12.231,0,0,0-5.918,1.416,9.881,9.881,0,0,0-4.063,4.1,13.709,13.709,0,0,0-1.445,6.572,13.485,13.485,0,0,0,1.7,6.856,11.63,11.63,0,0,0,4.639,4.531,14.265,14.265,0,0,0,6.865,1.582,16.373,16.373,0,0,0,3.34-.332,12.7,12.7,0,0,0,2.666-.82,12.152,12.152,0,0,0,2.041-1.192Z" style="fill: #fff"/>
    <path d="M636.239,143.927l.176.175q-.175,1.758-.176,6.133l-.156.156h-.918l-.156-.175-.215-1.8a16.562,16.562,0,0,0-.244-1.768.842.842,0,0,0-.283-.469,3.561,3.561,0,0,0-1.27-.244q-1.074-.1-2.4-.1H626.9q-.158,4.413-.157,5.1v11.387l.039,3.809q.019,2.207.108,2.861a1.707,1.707,0,0,0,.273.859,1.535,1.535,0,0,0,.713.352,15.512,15.512,0,0,0,2.617.224l.137.118v.976l-.137.156q-5-.156-5.586-.156-.625,0-5.566.156l-.156-.156v-.976l.156-.118a20.011,20.011,0,0,0,2.432-.195,1.756,1.756,0,0,0,.8-.3,1.576,1.576,0,0,0,.342-.791,15.933,15.933,0,0,0,.137-2.695l.039-4.121V150.938q0-.312-.156-5.1h-2.91q-1.8,0-3.106.078t-1.514.4a7.09,7.09,0,0,0-.38,2.1l-.2,1.8-.176.175h-.9l-.156-.156q-.04-4.707-.176-6.133l.176-.175q3.4.156,11.308.156Q632.978,144.083,636.239,143.927Z" style="fill: #fff"/>
    <path d="M638.72,164.805l.156-.156h.957l.156.156a18.008,18.008,0,0,0,.264,3.057,2.492,2.492,0,0,0,1.055,1.172,7.571,7.571,0,0,0,2.363,1.006,11.56,11.56,0,0,0,2.979.39,8.772,8.772,0,0,0,3.72-.761,5.825,5.825,0,0,0,2.569-2.237,6.134,6.134,0,0,0,.918-3.31,5.335,5.335,0,0,0-.44-2.246,3.827,3.827,0,0,0-1.23-1.533,5.6,5.6,0,0,0-1.807-.86q-1.016-.282-3.027-.615-1.953-.312-3.057-.566a10.4,10.4,0,0,1-2.2-.782,5.832,5.832,0,0,1-1.826-1.338,6.089,6.089,0,0,1-1.172-1.992,7.2,7.2,0,0,1-.44-2.529,7.767,7.767,0,0,1,2.539-5.986,9.681,9.681,0,0,1,6.817-2.334,18.043,18.043,0,0,1,3.7.42,15.005,15.005,0,0,1,3.643,1.24l.136.234a26.728,26.728,0,0,0-.527,5.117l-.176.157h-1.015l-.157-.137q-.039-2.345-.117-2.949t-1.777-1.5a7.78,7.78,0,0,0-3.692-.9,7.355,7.355,0,0,0-3.1.664,4.549,4.549,0,0,0-2.188,2.09,6.233,6.233,0,0,0-.742,2.91,4.466,4.466,0,0,0,.449,2.041,3.834,3.834,0,0,0,1.163,1.407,5,5,0,0,0,1.66.771q.946.254,3.466.625a20.605,20.605,0,0,1,5.03,1.182,5.6,5.6,0,0,1,2.519,2.2,6.677,6.677,0,0,1,.948,3.633,8.6,8.6,0,0,1-3.389,6.933,12.549,12.549,0,0,1-8.213,2.774,16.382,16.382,0,0,1-7.09-1.445l-.117-.254A57.487,57.487,0,0,0,638.72,164.805Z" style="fill: #fff"/>
  </g>
  <g>
    <g>
      <path d="M1304.353,113.446l.145-2.5a2.674,2.674,0,0,0-3.452-2.882L1220.981,125.4c-2.721.589-4.944,2.974-4.944,5.315v2.88Z" style="fill: #fff"/>
      <path d="M1216.037,138.385v36.834c0,2.2,2.146,3.326,4.773,2.531l77.674-23.532a5.543,5.543,0,0,0,3.774-4.558l1.855-32.059Z" style="fill: #fff"/>
    </g>
    <path d="M1303.417,156.189c-17.727,3.913-30.983,12.132-29.609,18.356l1.4,6.333c1.374,6.224,16.858,8.1,34.584,4.184s30.982-12.132,29.608-18.356l-1.4-6.333C1336.627,154.148,1321.143,152.275,1303.417,156.189Z" style="fill: #fff"/>
  </g>
</svg>
